<svg xmlns="http://www.w3.org/2000/svg" viewBox="0 0 18 18"><polygon points="15 15 15 10 14 10 14 13.29 10.83 10.13 10.13 10.83 13.29 14 10 14 10 15 15 15"/><polygon points="17 17 13 17 13 18 18 18 18 13 17 13 17 17"/><polygon points="13 0 13 1 17 1 17 5 18 5 18 0 13 0"/><polygon points="10.13 7.17 10.83 7.88 14 4.71 14 8 15 8 15 3 10 3 10 4 13.29 4 10.13 7.17"/><polygon points="3 3 3 8 4 8 4 4.71 7.17 7.88 7.88 7.17 4.71 4 8 4 8 3 3 3"/><polygon points="1 1 5 1 5 0 0 0 0 5 1 5 1 1"/><polygon points="1 13 0 13 0 18 5 18 5 17 1 17 1 13"/><polygon points="7.88 10.83 7.17 10.13 4 13.29 4 10 3 10 3 15 8 15 8 14 4.71 14 7.88 10.83"/></svg>