<svg xmlns="http://www.w3.org/2000/svg" viewBox="0 0 18 18"><g><path d="M6.5,0C4.6,0,3,1.6,3,3.5C3,5.4,4.6,7,6.5,7S10,5.4,10,3.5C10,1.6,8.4,0,6.5,0L6.5,0z M6.5,6C5.1,6,4,4.9,4,3.5 C4,2.1,5.1,1,6.5,1S9,2.1,9,3.5C9,4.9,7.9,6,6.5,6L6.5,6z"/></g><g><path d="M8,7H6.5H5c-2.2,0-4,1.8-4,4v3.7C1,14.9,1.1,15,1.3,15h5.9c-0.1-0.3-0.2-0.7-0.2-1H2v-3c0-1.7,1.3-3,3-3h3 c0.7,0,1.4,0.3,1.9,0.7c0.3-0.2,0.7-0.3,1-0.4C10.2,7.5,9.1,7,8,7L8,7z"/></g><g><path d="M12.5,10c1.9,0,3.5,1.6,3.5,3.5S14.4,17,12.5,17S9,15.4,9,13.5S10.6,10,12.5,10 M12.5,9C10,9,8,11,8,13.5s2,4.5,4.5,4.5 s4.5-2,4.5-4.5S15,9,12.5,9L12.5,9z"/></g><polygon points="13,13 13,11 12,11 12,13 10,13 10,14 12,14 12,16 13,16 13,14 15,14 15,13 "/></svg>