<svg xmlns="http://www.w3.org/2000/svg" viewBox="0 0 800 240"><path d="M761.212,44.965a8.515,8.515,0,0,1-.488-17.016h0a8.515,8.515,0,0,1,.986,17C761.543,44.96,761.377,44.965,761.212,44.965Zm-.459-16.517.029.5a7.516,7.516,0,1,0,7.938,7.068,7.526,7.526,0,0,0-7.938-7.068Z" transform="translate(0 0)" fill="#a4a4a4"/><path d="M770.5,28.41a.5.5,0,0,1-.418-.225,7.966,7.966,0,0,0-7.679-3.39.5.5,0,1,1-.156-.987,8.994,8.994,0,0,1,8.671,3.827.5.5,0,0,1-.418.775Z" transform="translate(0 0)" fill="#a4a4a4"/><path d="M218.667,61.789a7.385,7.385,0,1,1,5.088-2.03A7.368,7.368,0,0,1,218.667,61.789Zm0-13.772A6.383,6.383,0,1,0,223.3,50,6.369,6.369,0,0,0,218.663,48.017Z" transform="translate(0 0)" fill="#a4a4a4"/><path d="M233.066,240a.488.488,0,0,1-.208-.046l-19.416-8.893a.5.5,0,0,1-.1-.851l15.889-12.169a.5.5,0,0,1,.8.313l3.526,21.063a.5.5,0,0,1-.493.583Zm-18.452-9.5,17.8,8.154-3.233-19.312Z" transform="translate(0 0)" fill="#a4a4a4"/><path d="M601.175,189.261a.511.511,0,0,1-.267-.077.5.5,0,0,1-.233-.434l.436-20.009a.5.5,0,0,1,.744-.426L620.5,178.731a.5.5,0,0,1-.02.883l-19.08,9.593A.493.493,0,0,1,601.175,189.261Zm.918-19.667-.4,18.346,17.5-8.795Z" transform="translate(0 0)" fill="#a4a4a4"/><path d="M100.549,81.805a.5.5,0,0,0,.48.359.492.492,0,0,0,.141-.021.5.5,0,0,0,.338-.621l-2.493-8.438a5.222,5.222,0,1,0-.949.316ZM92.855,68.439a4.093,4.093,0,1,1,4.092,4.093A4.1,4.1,0,0,1,92.855,68.439Z" transform="translate(0 0)" fill="#a4a4a4"/><path d="M105.649,99.067a.5.5,0,1,0,.959-.283l-2.55-8.631a.5.5,0,0,0-.959.283Z" transform="translate(0 0)" fill="#a4a4a4"/><path d="M86.949,134.867a.5.5,0,0,0,.352-.144l6.395-6.334a.5.5,0,0,0-.7-.711l-6.4,6.334a.5.5,0,0,0,.352.855Z" transform="translate(0 0)" fill="#a4a4a4"/><path d="M56.691,137.428a.5.5,0,0,0,.139-.981l-8.647-2.5a.5.5,0,1,0-.277.961l8.646,2.5A.482.482,0,0,0,56.691,137.428Z" transform="translate(0 0)" fill="#a4a4a4"/><path d="M13.415,153.952a.5.5,0,0,0,.356-.148l6.333-6.4a.5.5,0,1,0-.711-.7l-6.333,6.4a.5.5,0,0,0,.355.851Z" transform="translate(0 0)" fill="#a4a4a4"/><path d="M13.115,192.925a.484.484,0,0,0,.135-.019.5.5,0,0,0,.347-.616l-2.419-8.669a.5.5,0,1,0-.963.27l2.419,8.669A.5.5,0,0,0,13.115,192.925Z" transform="translate(0 0)" fill="#a4a4a4"/><path d="M30.153,206.852l-8.517-2.613c.006-.106.031-.206.031-.313a5.184,5.184,0,1,0-.192,1.31l8.385,2.571a.5.5,0,0,0,.293-.955Zm-13.578,1.167a4.093,4.093,0,1,1,4.092-4.093A4.1,4.1,0,0,1,16.575,208.019Z" transform="translate(0 0)" fill="#a4a4a4"/><path d="M47.361,212.13l-8.6-2.639a.5.5,0,0,0-.293.956l8.6,2.638a.473.473,0,0,0,.147.022.5.5,0,0,0,.146-.977Z" transform="translate(0 0)" fill="#a4a4a4"/><path d="M70.711,203.6l-6.33,6.4a.5.5,0,0,0,0,.707.494.494,0,0,0,.351.145.5.5,0,0,0,.356-.149l6.33-6.4a.5.5,0,0,0-.711-.7Z" transform="translate(0 0)" fill="#a4a4a4"/><path d="M83.372,190.8l-6.33,6.4a.5.5,0,1,0,.711.7l6.33-6.4a.5.5,0,0,0-.711-.7Z" transform="translate(0 0)" fill="#a4a4a4"/><path d="M109.2,106.212a5.077,5.077,0,0,0-3.44,8.825l-6.369,6.308a.5.5,0,0,0,.7.711l6.395-6.333a.587.587,0,0,0,.06-.09,5.04,5.04,0,0,0,2.65.765,5.093,5.093,0,1,0,0-10.186Zm0,9.186a4.093,4.093,0,1,1,4.093-4.093A4.1,4.1,0,0,1,109.2,115.4Z" transform="translate(0 0)" fill="#a4a4a4"/><path d="M40.8,130.441a5.093,5.093,0,1,0-8.772,3.5l-6.306,6.367a.5.5,0,0,0,.711.7l6.333-6.395c.007-.007.009-.016.015-.023a5.079,5.079,0,0,0,8.019-4.156Zm-5.093-4.092a4.093,4.093,0,1,1-4.093,4.092A4.1,4.1,0,0,1,35.711,126.349Z" transform="translate(0 0)" fill="#a4a4a4"/><path d="M83.669,142.688a5.08,5.08,0,0,0-9.975-1.368l-8.218-2.375a.5.5,0,1,0-.277.961l8.323,2.405c-.009.127-.038.248-.038.377a5.093,5.093,0,1,0,10.185,0Zm-9.185,0a4.093,4.093,0,1,1,4.093,4.093A4.1,4.1,0,0,1,74.484,142.688Z" transform="translate(0 0)" fill="#a4a4a4"/><path d="M10.186,161.825a5.093,5.093,0,1,0-5.093,5.093c.128,0,.249-.029.375-.038L7.8,175.222a.5.5,0,0,0,.481.365.484.484,0,0,0,.135-.019.5.5,0,0,0,.347-.616l-2.3-8.244A5.084,5.084,0,0,0,10.186,161.825Zm-5.093,4.093a4.093,4.093,0,1,1,4.093-4.093A4.1,4.1,0,0,1,5.093,165.918Z" transform="translate(0 0)" fill="#a4a4a4"/><path d="M58.675,210.314a5.093,5.093,0,1,0,5.093,5.093A5.1,5.1,0,0,0,58.675,210.314Zm0,9.186a4.093,4.093,0,1,1,4.093-4.093A4.1,4.1,0,0,1,58.675,219.5Z" transform="translate(0 0)" fill="#a4a4a4"/><path d="M90.059,179.7a5.032,5.032,0,0,0-1.119.133l-2.473-8.408a.5.5,0,1,0-.959.281l2.483,8.442a5.075,5.075,0,1,0,2.068-.448Zm0,9.186a4.093,4.093,0,1,1,4.092-4.093A4.1,4.1,0,0,1,90.059,188.882Z" transform="translate(0 0)" fill="#a4a4a4"/><path d="M78.842,163.356a5.093,5.093,0,1,0,5.093-5.092A5.1,5.1,0,0,0,78.842,163.356Zm5.093-4.092a4.093,4.093,0,1,1-4.093,4.092A4.1,4.1,0,0,1,83.935,159.264Z" transform="translate(0 0)" fill="#a4a4a4"/><path d="M693.309,103.7a.5.5,0,0,0-.946.325l2.93,8.51a.5.5,0,1,0,.945-.325Z" transform="translate(0 0)" fill="#a4a4a4"/><path d="M714.273,135.078l-7.951-3.976a5.023,5.023,0,0,0,.292-1.632,5.08,5.08,0,0,0-6.15-4.979v-.012l-1.3-3.763a.5.5,0,1,0-.945.326l1.291,3.751a5.087,5.087,0,1,0,6.395,7.22l7.918,3.96a.5.5,0,1,0,.447-.9Zm-12.752-1.516a4.093,4.093,0,1,1,4.093-4.092A4.1,4.1,0,0,1,701.521,133.562Z" transform="translate(0 0)" fill="#a4a4a4"/><path d="M765.979,136.9a.5.5,0,1,0,.612-.791l-6.861-5.3a5.043,5.043,0,0,0,.466-2.1,5.093,5.093,0,1,0-10.185,0,5.028,5.028,0,0,0,.64,2.421l-1.389.817a.5.5,0,0,0,.508.862l1.445-.851a5.041,5.041,0,0,0,8.006-.278ZM755.1,132.8a4.093,4.093,0,1,1,4.092-4.092A4.1,4.1,0,0,1,755.1,132.8Z" transform="translate(0 0)" fill="#a4a4a4"/><path d="M780.22,147.911a.5.5,0,0,0,.611-.791l-7.12-5.5a.5.5,0,1,0-.611.791Z" transform="translate(0 0)" fill="#a4a4a4"/><path d="M783.279,176.673a.5.5,0,0,0-.682.184l-4.485,7.8a.5.5,0,1,0,.867.5l4.485-7.8A.5.5,0,0,0,783.279,176.673Z" transform="translate(0 0)" fill="#a4a4a4"/><path d="M740,159.494a.5.5,0,1,0-.793.61l5.479,7.14a.5.5,0,1,0,.793-.609Z" transform="translate(0 0)" fill="#a4a4a4"/><path d="M750.96,173.774a.5.5,0,0,0-.793.61l5.479,7.14a.5.5,0,0,0,.4.2.494.494,0,0,0,.3-.1.5.5,0,0,0,.091-.7Z" transform="translate(0 0)" fill="#a4a4a4"/><path d="M731.006,147.771a.5.5,0,1,0-.793.609l3.517,4.584a.5.5,0,1,0,.793-.61Z" transform="translate(0 0)" fill="#a4a4a4"/><path d="M696.663,51.394a5.093,5.093,0,1,0-6.433,4.891l-1.8,8.4a.5.5,0,0,0,.384.593.483.483,0,0,0,.1.012.5.5,0,0,0,.489-.4l1.809-8.441c.118.008.232.035.352.035A5.1,5.1,0,0,0,696.663,51.394Zm-5.093,4.092a4.093,4.093,0,1,1,4.093-4.092A4.1,4.1,0,0,1,691.57,55.486Z" transform="translate(0 0)" fill="#a4a4a4"/><path d="M691.306,82.012a5.083,5.083,0,0,0-4.487-5.032l.7-3.288a.5.5,0,0,0-.978-.21l-.746,3.479a5.079,5.079,0,0,0,.414,10.143c.108,0,.21-.025.316-.031l2.906,8.438a.5.5,0,0,0,.472.338.49.49,0,0,0,.163-.028.5.5,0,0,0,.31-.635l-2.849-8.276A5.087,5.087,0,0,0,691.306,82.012ZM686.213,86.1a4.093,4.093,0,1,1,4.093-4.092A4.1,4.1,0,0,1,686.213,86.1Z" transform="translate(0 0)" fill="#a4a4a4"/><path d="M734.171,142.248c0-.1-.024-.19-.029-.287a.488.488,0,0,0,.112-.03l7.758-4.563a.5.5,0,0,0-.508-.861l-7.527,4.426a5.074,5.074,0,0,0-9.568-.707.489.489,0,0,0-.185-.173l-1.9-.95a.5.5,0,1,0-.447.894l1.9.95A.5.5,0,0,0,724,141a.483.483,0,0,0,.173-.049,5.084,5.084,0,1,0,10,1.3Zm-5.093,4.093a4.093,4.093,0,1,1,4.093-4.093A4.1,4.1,0,0,1,729.078,146.341Z" transform="translate(0 0)" fill="#a4a4a4"/><path d="M794.907,152.7a5.078,5.078,0,0,0-4.117,2.121l-2.839-2.195a.5.5,0,1,0-.611.791l2.941,2.274a5.018,5.018,0,0,0,1.147,5.8l-4.346,7.563a.5.5,0,1,0,.867.5l4.28-7.447a5.047,5.047,0,0,0,2.678.78,5.093,5.093,0,0,0,0-10.186Zm0,9.186A4.093,4.093,0,1,1,799,157.792,4.1,4.1,0,0,1,794.907,161.885Z" transform="translate(0 0)" fill="#a4a4a4"/><path d="M773.339,194.971l1.155-2.01a.5.5,0,1,0-.867-.5l-1.157,2.013a5,5,0,0,0-5.144.628l-5.408-7.049a.5.5,0,0,0-.793.609l5.469,7.129a5.082,5.082,0,1,0,6.745-.822Zm-2.926,8.249a4.093,4.093,0,1,1,4.093-4.093A4.1,4.1,0,0,1,770.413,203.22Z" transform="translate(0 0)" fill="#a4a4a4"/><path d="M23.778,39.51H17.389V33.121a.5.5,0,0,0-1,0V39.51H10a.5.5,0,0,0,0,1h6.389V46.9a.5.5,0,0,0,1,0V40.51h6.389a.5.5,0,0,0,0-1Z" transform="translate(0 0)" fill="#a4a4a4"/><path d="M621.6,6.889h-6.389V.5a.5.5,0,0,0-1,0V6.889h-6.39a.5.5,0,0,0,0,1h6.39v6.389a.5.5,0,1,0,1,0V7.889H621.6a.5.5,0,0,0,0-1Z" transform="translate(0 0)" fill="#a4a4a4"/></svg>