<svg xmlns="http://www.w3.org/2000/svg" viewBox="0 0 800 240"><path d="M180.658,21.958c-.065,0-.131,0-.2,0a7.5,7.5,0,1,1,.2,0Zm-.007-14.1a6.547,6.547,0,0,0-4.746,11.06h0a6.551,6.551,0,1,0,4.746-11.06Z" fill="#a4a4a4"/><path d="M7.549,73.812a7.53,7.53,0,0,1-5.475-2.345h0a7.56,7.56,0,1,1,5.475,2.345ZM2.8,70.778a6.551,6.551,0,1,0,.235-9.261A6.558,6.558,0,0,0,2.8,70.778Z" fill="#a4a4a4"/><path d="M705.063,127.087l-.2,0a7.5,7.5,0,0,1-5.28-2.346h0a7.56,7.56,0,0,1,.27-10.675,7.55,7.55,0,0,1,10.675.272,7.55,7.55,0,0,1-5.469,12.752Zm-.008-14.1a6.55,6.55,0,0,0-4.743,11.063h0a6.509,6.509,0,0,0,4.581,2.036,6.552,6.552,0,0,0,4.915-11.062,6.506,6.506,0,0,0-4.582-2.035C705.169,112.986,705.111,112.986,705.055,112.986Z" fill="#a4a4a4"/><path d="M195.392,172.769a.488.488,0,0,1-.208-.046l-19.871-9.1a.5.5,0,0,1-.095-.85l16.261-12.455a.5.5,0,0,1,.8.314l3.609,21.557a.5.5,0,0,1-.493.583Zm-18.907-9.711,18.258,8.364-3.315-19.808Z" fill="#a4a4a4"/><path d="M578.4,172.782a.5.5,0,0,1-.5-.511l.448-20.477a.5.5,0,0,1,.744-.426l19.08,10.659a.5.5,0,0,1-.02.883l-19.527,9.819A.493.493,0,0,1,578.4,172.782Zm.929-20.136-.411,18.816,17.943-9.022Z" fill="#a4a4a4"/><path d="M616.735,22.122a.5.5,0,0,1-.483-.628L621.868.371a.5.5,0,0,1,.823-.238l15.022,13.925a.5.5,0,0,1-.175.839l-20.638,7.2A.489.489,0,0,1,616.735,22.122Zm5.886-20.691-5.16,19.408,18.963-6.612Z" fill="#a4a4a4"/><path d="M8.215,224.52a.5.5,0,0,1-.235-.942L29.859,211.9a.5.5,0,1,1,.47.882L8.451,224.461A.5.5,0,0,1,8.215,224.52Z" fill="#a4a4a4"/><path d="M.5,240a.5.5,0,0,1-.235-.941l34.59-18.471a.5.5,0,1,1,.471.883L.736,239.941A.5.5,0,0,1,.5,240Z" fill="#a4a4a4"/><path d="M744.513,221.427a.5.5,0,0,1-.441-.265c-2.428-4.552.622-10.119,4.721-13.617,3.773-3.221,7.819-5.036,11.608-5.248,1.167-4.979,4.615-9.2,6.489-11.2,9.139-9.76,21.35-14.683,32.675-13.185a.5.5,0,0,1,.431.562.514.514,0,0,1-.562.43c-11.008-1.461-22.895,3.352-31.813,12.876-1.774,1.895-5.025,5.857-6.189,10.5.372.009.74.033,1.107.074,2.588.288,5.779,1.673,6.967,4.7a5.732,5.732,0,0,1-.634,5.13,3.916,3.916,0,0,1-3.195,1.889h-.063c-2.43,0-4.261-2.287-5-4.572a12.951,12.951,0,0,1-.414-6.188c-3.494.265-7.237,1.99-10.755,4.993-3.672,3.133-6.643,8.346-4.487,12.386a.5.5,0,0,1-.442.736Zm16.7-18.151a12.041,12.041,0,0,0,.345,5.915c.63,1.939,2.124,3.881,4.052,3.881h.048a2.946,2.946,0,0,0,2.38-1.446,4.768,4.768,0,0,0,.533-4.208c-1.026-2.611-3.848-3.815-6.148-4.071A11.263,11.263,0,0,0,761.217,203.276Z" fill="#a4a4a4"/></svg>