<svg xmlns="http://www.w3.org/2000/svg" viewBox="0 0 18 18"><path d="M13.561 5.205l.001-.001-.567-.571-8.644 8.638.099.099.465.49 8.652-8.65-.006-.005zM6.364 8.709a2.462 2.462 0 1 0-2.475-2.467 2.467 2.467 0 0 0 2.475 2.467zm.016-.822a1.654 1.654 0 1 1 1.655-1.645A1.652 1.652 0 0 1 6.38 7.887z"/><path d="M9 0a9 9 0 1 0 9 9 9.01 9.01 0 0 0-9-9zm0 17.194A8.194 8.194 0 1 1 17.2 9 8.2 8.2 0 0 1 9 17.194z"/><path d="M11.765 9.678a2.468 2.468 0 1 0 2.475 2.467 2.474 2.474 0 0 0-2.475-2.467zm-1.672 2.467a1.672 1.672 0 1 1 1.672 1.662 1.689 1.689 0 0 1-1.672-1.662z"/></svg>