<svg xmlns="http://www.w3.org/2000/svg" viewBox="0 0 32 24"><path d="M28,3.46H4a4,4,0,0,0-4,4v16a4,4,0,0,0,4,4H28a4,4,0,0,0,4-4v-16A4,4,0,0,0,28,3.46Zm2,20a2,2,0,0,1-2,2H4a2,2,0,0,1-2-2v-10H30Zm0-14H2v-2a2,2,0,0,1,2-2H28a2,2,0,0,1,2,2Z" transform="translate(0 -3.46)" fill="#6d6d6d"/><path d="M30,7.46v2H2v-2a2,2,0,0,1,2-2H28A2,2,0,0,1,30,7.46Z" transform="translate(0 -3.46)" fill="#fff"/><path d="M30,13.46v10a2,2,0,0,1-2,2H4a2,2,0,0,1-2-2v-10Z" transform="translate(0 -3.46)" fill="#fff"/><rect x="4" y="12" width="12" height="2" fill="#6d6d6d"/><rect x="4" y="16" width="4" height="2" fill="#6d6d6d"/><rect x="22" y="12" width="6" height="4" fill="#6d6d6d"/></svg>