<svg xmlns="http://www.w3.org/2000/svg" viewBox="0 0 18 18"><path d="M6,13H5V5H16V7h1V0H0V14H6ZM1,1H16V4H1ZM4,13H1V5H4Z"/><path d="M12.5,14.5a2,2,0,1,1,2-2A2,2,0,0,1,12.5,14.5Zm0-3a1,1,0,1,0,1,1A.9.9,0,0,0,12.5,11.5Z"/><path d="M14.1,18H10.9V16.6a.1.1,0,0,1-.1-.1L9.7,17.6,7.4,15.3l1.1-1.1H7V10.9H8.5L7.4,9.7,9.7,7.4l1.1,1.1h.1V7h3.2V8.4h.1l1.1-1.1,2.3,2.3-1.1,1.1H18v3.2H16.5l1.1,1.1-2.3,2.3-1.1-1.1a.1.1,0,0,1-.1.1Zm-2.2-1h1.2V15.9l.4-.2.6-.2.3-.2.9.8.8-.8-.8-.9.2-.3a1.4,1.4,0,0,0,.2-.6l.2-.4H17V11.9H15.9l-.2-.4a1.4,1.4,0,0,0-.2-.6l-.2-.3.8-.9-.8-.8-.9.8-.3-.2-.6-.2-.4-.2V8H11.9V9.1l-.4.2-.6.2-.3.2-.9-.8-.8.8.8.9-.2.3a1.4,1.4,0,0,0-.2.6l-.2.4H8v1.2H9.1l.2.4a1.4,1.4,0,0,0,.2.6l.2.3-.8.9.8.8.9-.8.3.2.6.2.4.2Z"/></svg>