<svg xmlns="http://www.w3.org/2000/svg" viewBox="0 0 18 18"><path d="M16,3c0,.4-.3.8-.9,1.1a7.9,7.9,0,0,1-2.6.9A19,19,0,0,1,9,5.3,19,19,0,0,1,5.5,5a7.9,7.9,0,0,1-2.6-.9C2.3,3.8,2,3.4,2,3V2.3q0-.6.9-1.2A11.5,11.5,0,0,1,5.5.3,19,19,0,0,1,9,0a19,19,0,0,1,3.5.3,11.5,11.5,0,0,1,2.6.8q.9.6.9,1.2Z"/><path d="M16,14.7q0,.6-.9,1.2a11.5,11.5,0,0,1-2.6.8A19,19,0,0,1,9,17a19,19,0,0,1-3.5-.3,11.5,11.5,0,0,1-2.6-.8Q2,15.3,2,14.7V13a8.5,8.5,0,0,0,3,1.2,25,25,0,0,0,4,.3,25,25,0,0,0,4-.3A8.5,8.5,0,0,0,16,13Z"/><path d="M16,10.7q0,.6-.9,1.2a11.5,11.5,0,0,1-2.6.8A19,19,0,0,1,9,13a19,19,0,0,1-3.5-.3,11.5,11.5,0,0,1-2.6-.8Q2,11.3,2,10.7V9a8.5,8.5,0,0,0,3,1.2,25,25,0,0,0,4,.3,25,25,0,0,0,4-.3A8.5,8.5,0,0,0,16,9Z"/><path d="M16,6.7q0,.6-.9,1.2a11.5,11.5,0,0,1-2.6.8A19,19,0,0,1,9,9a19,19,0,0,1-3.5-.3,11.5,11.5,0,0,1-2.6-.8Q2,7.3,2,6.7V5A8.5,8.5,0,0,0,5,6.2a25,25,0,0,0,4,.3,25,25,0,0,0,4-.3A8.5,8.5,0,0,0,16,5Z"/></svg>