<svg xmlns="http://www.w3.org/2000/svg" viewBox="0 0 18 18"><line x1="0.51" y1="2.27" x2="0.51" y2="13.35" fill="none" stroke="#000" stroke-linecap="round" stroke-miterlimit="10"/><line x1="12.51" y1="2.27" x2="12.51" y2="7.44" fill="none" stroke="#000" stroke-linecap="round" stroke-miterlimit="10"/><path d="M.51,6c0,1,2.69,1.84,6,1.84s6-.82,6-1.84" fill="none" stroke="#000" stroke-linecap="round" stroke-miterlimit="10"/><ellipse cx="6.51" cy="2.27" rx="6" ry="1.85" fill="none" stroke="#000" stroke-linecap="round" stroke-miterlimit="10"/><polyline points="15.28 12.61 12.59 15.3 9.93 12.64" fill="none" stroke="#000" stroke-miterlimit="10"/><path d="M12.5,10A3.5,3.5,0,1,1,9,13.5,3.5,3.5,0,0,1,12.5,10m0-1A4.5,4.5,0,1,0,17,13.5,4.49,4.49,0,0,0,12.5,9Z"/><path d="M12.5,10A3.5,3.5,0,1,1,9,13.5,3.5,3.5,0,0,1,12.5,10m0-1A4.5,4.5,0,1,0,17,13.5,4.49,4.49,0,0,0,12.5,9Z"/><path d="M.51,9.66c0,1,2.69,1.84,6,1.84" fill="none" stroke="#000" stroke-linecap="round" stroke-miterlimit="10"/><path d="M12.5,10A3.5,3.5,0,1,1,9,13.5,3.5,3.5,0,0,1,12.5,10m0-1A4.5,4.5,0,1,0,17,13.5,4.49,4.49,0,0,0,12.5,9Z"/><path d="M.51,13.35c0,1,2.69,1.85,6,1.85" fill="none" stroke="#000" stroke-linecap="round" stroke-miterlimit="10"/><line x1="12.6" y1="15.31" x2="12.6" y2="11.31" fill="none" stroke="#000" stroke-miterlimit="10"/></svg>