<svg xmlns="http://www.w3.org/2000/svg" viewBox="0 0 18 18"><path d="M8,13H5V5H16V9h1V0H0V14H8ZM1,1H16V4H1ZM4,13H1V5H4Z"/><path d="M13.5,10A3.9,3.9,0,0,1,16,11a3.7,3.7,0,0,1,0,5,3.9,3.9,0,0,1-2.5,1A3.9,3.9,0,0,1,11,16a3.7,3.7,0,0,1,0-5,3.9,3.9,0,0,1,2.5-1m0-1a4.4,4.4,0,0,0-3.2,1.3,4.7,4.7,0,0,0,0,6.4A4.4,4.4,0,0,0,13.5,18a4.4,4.4,0,0,0,3.2-1.3,4.7,4.7,0,0,0,0-6.4A4.4,4.4,0,0,0,13.5,9Z"/><polygon points="15.6 12.1 14.9 11.4 13.5 12.8 12.1 11.4 11.4 12.1 12.8 13.5 11.4 14.9 12.1 15.6 13.5 14.2 14.9 15.6 15.6 14.9 14.2 13.5 15.6 12.1"/></svg>