<svg xmlns="http://www.w3.org/2000/svg" viewBox="0 0 18 18"><path d="M9,0a9,9,0,1,0,9,9A9,9,0,0,0,9,0Zm7.4,6H12.8A11.2,11.2,0,0,0,11,1.3,8,8,0,0,1,16.4,6ZM12,9a13.4,13.4,0,0,1-.1,2H6.1a26.7,26.7,0,0,1,0-4h5.8A13.4,13.4,0,0,1,12,9ZM9,17c-.9,0-2.2-1.9-2.8-5h5.6C11.2,15.1,10,17,9,17ZM6.2,6C6.8,2.9,8.1,1,9,1s2.2,1.9,2.8,5ZM7,1.3A11.2,11.2,0,0,0,5.2,6H1.6A8,8,0,0,1,7,1.3ZM1.3,7H5.1A12.7,12.7,0,0,0,5,9a12.7,12.7,0,0,0,.1,2H1.3a6.8,6.8,0,0,1,0-4Zm.3,5H5.2A11.2,11.2,0,0,0,7,16.7,8,8,0,0,1,1.6,12ZM11,16.7A11.2,11.2,0,0,0,12.8,12h3.6A8,8,0,0,1,11,16.7ZM16.7,11H12.9A12.7,12.7,0,0,0,13,9a12.7,12.7,0,0,0-.1-2h3.8a6.8,6.8,0,0,1,0,4Z" fill="#050505"/></svg>