<svg id="b1872227-f503-42e7-a68c-7dd28555f416" data-name="Layer 1" xmlns="http://www.w3.org/2000/svg" viewBox="0 0 16.657 18"><path d="M16.758,2.291,15.38.914a1.947,1.947,0,0,0-2.755,0L4.36,9.179,3.672,14l4.821-.689,8.265-8.265A1.948,1.948,0,0,0,16.758,2.291ZM5.943,9.011,12.054,2.9l2.718,2.719L8.661,11.729Zm-.657.757L7.9,12.385l-3.053.436ZM16.051,4.339l-.572.572L12.761,2.192l.571-.571a.948.948,0,0,1,1.341,0L16.051,3A.951.951,0,0,1,16.051,4.339Z" transform="translate(-0.672)"/><polygon points="14 10 14 17 1 17 1 1 9 1 9 0 0 0 0 18 15 18 15 9 14 9 14 10"/></svg>