<svg xmlns="http://www.w3.org/2000/svg" viewBox="0 0 24.9 32"><path d="M19.6,0H3.6V32H28.4V8.9Zm6.4,8.9H19.6V2.5Zm.7,21.3H5.3V1.8H17.8v8.9h8.9Z" transform="translate(-3.6)"/><rect x="5.3" y="3.6" width="3.6" height="1.78"/><rect x="8.9" y="5.3" width="3.6" height="1.78"/><rect x="5.3" y="7.1" width="3.6" height="1.78"/><rect x="8.9" y="8.9" width="3.6" height="1.78"/><rect x="5.3" y="10.7" width="3.6" height="1.78"/><rect x="8.9" y="12.4" width="3.6" height="1.78"/><rect x="8.9" y="16" width="3.6" height="1.78"/><rect x="5.3" y="14.2" width="3.6" height="1.78"/><path d="M12.4,19.6a1.8,1.8,0,1,1-1.8,1.8,1.8,1.8,0,0,1,1.8-1.8m0-1.8A3.6,3.6,0,1,0,16,21.3a3.6,3.6,0,0,0-3.6-3.6Z" transform="translate(-3.6)"/></svg>