<svg xmlns="http://www.w3.org/2000/svg" x="0px" y="0px" viewBox="0 0 18 18" style="enable-background:new 0 0 18 18" xml:space="preserve"><path d="M9.3,13c-0.1,0-0.2,0-0.3,0c-2.2-0.1-3.9-1.8-4-4c0-0.6,0.1-1.1,0.4-1.6L4,5.4C2.9,6.1,1.9,7.1,1.2,8.3 c-0.2,0.4-0.2,0.9,0,1.4C2.8,12.4,5.8,14.1,9,14c0.3,0,0.7,0,1-0.1L9.3,13z"/><path d="M6.1,8.3c-0.4,1.6,0.6,3.2,2.2,3.6c0.1,0,0.2,0.1,0.4,0.1L6.1,8.3z"/><path d="M16.8,9.7c0.2-0.4,0.2-0.9,0-1.4C15.2,5.6,12.2,3.9,9,4C8.7,4,8.3,4,8,4.1L6.1,1.3C5.7,0.8,5.1,0.7,4.7,1.1 C4.2,1.4,4.1,2,4.4,2.4l1.5,2.1c0,0,0,0,0,0l0.9,1.2c0,0,0,0,0,0l1.7,2.4l2.3,3.3c0,0,0,0,0,0l2.9,4.1c0.2,0.3,0.5,0.4,0.8,0.4 c0.2,0,0.4-0.1,0.6-0.2c0.5-0.3,0.6-0.9,0.2-1.4L14,12.6C15.1,11.9,16.1,10.9,16.8,9.7z M12,9.8c0.2-0.8,0.2-1.7-0.3-2.5 C11.1,6.5,10.2,6,9.3,5.9L8.7,5C8.8,5,8.9,5,9,5c2.2,0.1,3.9,1.8,4,4c0,0.6-0.2,1.1-0.4,1.6L12,9.8z"/></svg>