<svg id="ab109fc3-5c92-4f7c-b28a-74e53b72286e" data-name="Layer 1" xmlns="http://www.w3.org/2000/svg" viewBox="0 0 18 18"><path d="M16.815,8.323A8.957,8.957,0,0,0,9,4,8.959,8.959,0,0,0,1.185,8.323a1.33,1.33,0,0,0,0,1.354A8.957,8.957,0,0,0,9,14a8.959,8.959,0,0,0,7.815-4.323,1.33,1.33,0,0,0,0-1.354ZM9,13A4.166,4.166,0,0,1,5,9,4.166,4.166,0,0,1,9,5a4.166,4.166,0,0,1,4,4A4.166,4.166,0,0,1,9,13Z"/><path d="M9,6a2.967,2.967,0,0,0-.869.143A1.5,1.5,0,1,1,6.143,8.131,2.967,2.967,0,0,0,6,9,3,3,0,1,0,9,6Z"/></svg>