<svg xmlns="http://www.w3.org/2000/svg" viewBox="0 0 18 18"><path d="M11 0H2v18h14V5zm3.59 5H11V1.41zM15 17H3V1h7v5h5z"/><path d="M10.37 12l-.17-.2a10.52 10.52 0 0 1-1.08-1.48 11.31 11.31 0 0 0 .27-2.07v-.1c0-.62 0-1.67-.87-1.86a1 1 0 0 0-.78.16 1.15 1.15 0 0 0-.44.75 5.81 5.81 0 0 0 1 3.25 12.28 12.28 0 0 1-.71 2.12 8 8 0 0 0-1.95 1.08c-1.09.78-1 1.37-.83 1.64a.85.85 0 0 0 .76.4A1.2 1.2 0 0 0 6 15.6a4.84 4.84 0 0 0 2.11-2.38 8.23 8.23 0 0 1 1.92-.4 3.63 3.63 0 0 0 2.12 1.25 1 1 0 0 0 1.12-.77c0-.42-.25-1-1-1.13a7.79 7.79 0 0 0-1.89-.17zM5.7 14.89a.37.37 0 0 1-.22 0 1.61 1.61 0 0 1 .6-.62 7.21 7.21 0 0 1 .85-.55 3.15 3.15 0 0 1-1.23 1.17zm2.38-7.57a.33.33 0 0 1 .12-.21.2.2 0 0 1 .11 0c.25 0 .25.54.24 1.07v.11a8.89 8.89 0 0 1-.08 1 3.91 3.91 0 0 1-.44-1.89zm.46 5c.12-.3.22-.61.31-.91.18.26.37.51.56.74-.28 0-.57.1-.87.17zm3.55.66c.33.07.43.23.43.26s-.09.1-.32.08a1.87 1.87 0 0 1-1-.46 5.4 5.4 0 0 1 .86.12z"/></svg>