<svg xmlns="http://www.w3.org/2000/svg" viewBox="0 0 26.2 32"><path d="M16,0H2.9V26.2H14.6a6.1,6.1,0,0,1,0-1.5H4.4V1.5H14.5V8.7h7.3v8.8h1.5V7.3Zm0,7.3V2.1l5.2,5.2Z" transform="translate(-2.9)"/><rect x="4.4" y="11.6" width="11.6" height="1.45"/><rect x="4.4" y="14.5" width="11.6" height="1.45"/><rect x="4.4" y="17.5" width="11.6" height="1.45"/><rect x="4.4" y="20.4" width="7.3" height="1.45"/><path d="M22.5,18.9a6.5,6.5,0,1,0,6.5,6.5A6.6,6.6,0,0,0,22.5,18.9Zm0,11.6a5.1,5.1,0,1,1,5.1-5.1A5.1,5.1,0,0,1,22.5,30.5Z" transform="translate(-2.9)"/><polygon points="23.3 24.7 23.3 26.2 20.4 26.2 20.4 29.1 18.9 29.1 18.9 26.2 16 26.2 16 24.7 18.9 24.7 18.9 21.8 20.4 21.8 20.4 24.7 23.3 24.7"/></svg>