<svg id="b34eee24-dc56-4b12-bee0-15f67aab0898" data-name="Layer 1" xmlns="http://www.w3.org/2000/svg" viewBox="0 0 18 14"><path d="M6.666,3,10.4,5.8l.267.2H17v9H1V3H6.666M7,2H0V16H18V5H11L7,2Z" transform="translate(0 -2)"/><path d="M13,10V9a1,1,0,0,0-1-1H10.5a.5.5,0,0,0-.5.5v4a.5.5,0,0,0,.5.5H13a1,1,0,0,0,1-1V11A1,1,0,0,0,13,10ZM11,9h1v1H11Zm2,3H11V11h2Z" transform="translate(0 -2)"/><path d="M8.962,8.309a.5.5,0,0,0-.653-.271.518.518,0,0,0-.163.109L6.5,9.793,4.854,8.147a.518.518,0,0,0-.163-.109A.5.5,0,0,0,4,8.5v4a.5.5,0,0,0,1,0V9.707l1.146,1.147a.5.5,0,0,0,.708,0L8,9.707V12.5a.5.5,0,0,0,1,0v-4A.5.5,0,0,0,8.962,8.309Z" transform="translate(0 -2)"/></svg>