<svg xmlns="http://www.w3.org/2000/svg" viewBox="0 0 18 18"><path d="M14,3V1H11V3H6V1H3V3H1V17H16V3ZM12,2h1V4H12V2ZM4,2H5V4H4V2ZM15,16H2V6H15Z"/><rect x="6" y="7" width="2" height="2"/><rect x="9" y="7" width="2" height="2"/><rect x="12" y="7" width="2" height="2"/><rect x="3" y="10" width="2" height="2"/><rect x="6" y="10" width="2" height="2"/><rect x="9" y="10" width="2" height="2"/><rect x="12" y="10" width="2" height="2"/><rect x="3" y="13" width="2" height="2"/><rect x="6" y="13" width="2" height="2"/><rect x="9" y="13" width="2" height="2"/></svg>