<svg xmlns="http://www.w3.org/2000/svg" viewBox="0 0 18 18"><path d="M9,0a9,9,0,1,0,9,9A9,9,0,0,0,9,0Zm7.41,6H12.77A11.05,11.05,0,0,0,11,1.27,8,8,0,0,1,16.41,6ZM12,9a18,18,0,0,1-.11,2H6.11a18.24,18.24,0,0,1,0-4h5.78A18,18,0,0,1,12,9ZM9,17c-.95,0-2.23-1.88-2.75-5h5.5C11.23,15.12,10,17,9,17ZM6.25,6C6.77,2.88,8.05,1,9,1s2.23,1.88,2.75,5ZM7,1.27A11.05,11.05,0,0,0,5.23,6H1.59A8,8,0,0,1,7,1.27ZM1.26,7H5.1C5,7.64,5,8.31,5,9s0,1.36.1,2H1.26A8.24,8.24,0,0,1,1,9,8.24,8.24,0,0,1,1.26,7Zm.33,5H5.23A11.05,11.05,0,0,0,7,16.73,8,8,0,0,1,1.59,12ZM11,16.73A11.05,11.05,0,0,0,12.77,12h3.64A8,8,0,0,1,11,16.73ZM16.74,11H12.9c.06-.64.1-1.31.1-2s0-1.36-.1-2h3.84A8.24,8.24,0,0,1,17,9,8.24,8.24,0,0,1,16.74,11Z"/></svg>