<svg xmlns="http://www.w3.org/2000/svg" viewBox="0 0 22.02 32"><path fill="#8c8c8c" d="M12.3692 3.4324l.0508-.1935 3.6076.9475-.0508.1934z"/><path d="M7.39 0L.01 28.16 14.63 32l7.38-28.16zm7.1 31.76L.24 28l1.37-5.2 14.24 3.74zm1.42-5.41L1.66 22.61 6.58 3.85l14.25 3.74zM6.64 3.66l.9-3.42L21.78 4l-.9 3.42z" fill="#8c8c8c"/><path fill="#fff" d="M1.47 22.73l14.55 3.82"/><path fill="#26b8d1" d="M14.15 14.43l-5.01-1.34.06-.23 5.01 1.34-.06.23m-.3 1.14l-5.02-1.34.06-.23 5.01 1.34-.05.23m-.31 1.14l-5.01-1.34.06-.23 5.01 1.34-.06.23"/><path d="M8.59 18.33l.4-1.5-1.98-.52 1.34-5 7.29 2-1.34 5-3.6-1zm2.13-1.28l3.42.92 1.22-4.56-6.84-1.83-1.22 4.56 1.94.52-.33 1.23z" fill="#26b8d1"/><path d="M8.01 28.31a1 1 0 0 1-.26 0 1 1 0 1 1 .26 0zm0-1.87a.83.83 0 1 0 .21 0z" fill="#8c8c8c"/></svg>