<svg xmlns="http://www.w3.org/2000/svg" viewBox="0 0 22.02 32"><path fill="#8c8c8c" d="M12.3692 3.4324l.0508-.1935 3.6076.9475-.0508.1934z"/><path fill="#fff" d="M1.54 22.68l14.44 3.79"/><path d="M7.39 0L.01 28.16 14.63 32l7.38-28.16zm7.1 31.76L.24 28l1.37-5.2 14.24 3.74zm1.42-5.41L1.66 22.61 6.58 3.85l14.25 3.74zM6.64 3.66l.9-3.42L21.78 4l-.9 3.42z" fill="#8c8c8c"/><path d="M8.01 28.31a1 1 0 0 1-.26 0 1 1 0 1 1 .26 0zm0-1.87a.83.83 0 1 0 .21 0z" fill="#8c8c8c"/><path d="M6.69 13.89l-.54-.32.2-.31.52.39.14-.65.37.1-.21.66.63-.08v.37h-.64l.26.6-.35.13-.2-.64-.48.44-.25-.28zm1.74.46L7.89 14l.2-.31.52.39.13-.66.37.1-.21.66.63-.08v.37h-.64l.26.6-.35.13-.2-.64-.48.44-.25-.28zm1.74.46l-.54-.32.2-.31.52.39.13-.66.37.1-.21.66.63-.08v.37h-.64l.26.6-.35.13-.2-.64-.48.44-.25-.28zm1.74.45l-.54-.32.2-.31.52.39.13-.66.37.1-.21.66.63-.12v.37h-.64l.26.6-.35.13-.2-.64-.48.44-.25-.28zm1.74.46l-.54-.32.2-.31.52.39.13-.66.37.1-.21.66.63-.08v.37h-.64l.26.6-.36.13-.2-.64-.48.44-.25-.28zm1.74.46l-.54-.32.2-.31.52.39.13-.66.37.1-.21.66.63-.08v.37h-.64l.26.6-.35.13-.2-.64-.48.44-.25-.28z" fill="#26b8d1"/></svg>