<svg id="b97713a4-c390-4d0f-bbb5-089e487389ec" data-name="Layer 1" xmlns="http://www.w3.org/2000/svg" viewBox="0 0 96 96"><rect y="20" width="96" height="76" fill="#ececec"/><rect y="10" width="96" height="10" fill="#f8f6ed"/><rect x="6" y="14" width="64" height="2" fill="#343230"/><rect width="96" height="10" fill="#343230"/><rect x="50" y="52" width="40" height="38" fill="#fff"/><rect x="55" y="74" width="30" height="2" fill="#343230"/><rect x="60" y="70" width="20" height="2" fill="#343230"/><rect x="60" y="80" width="20" height="6" rx="0.913" fill="#f47b44"/><rect x="65" y="56" width="10" height="10" rx="2" fill="#c2c2c2"/><rect x="6" y="52" width="40" height="38" fill="#fff"/><rect x="11" y="74" width="30" height="2" fill="#343230"/><rect x="16" y="70" width="20" height="2" fill="#343230"/><rect x="16" y="80" width="20" height="6" rx="0.913" fill="#f47b44"/><rect x="21" y="56" width="10" height="10" rx="2" fill="#c2c2c2"/><rect x="6" y="26" width="84" height="22" fill="#fff"/><rect x="29" y="34" width="20" height="2" fill="#343230"/><rect x="29" y="38" width="56" height="2" fill="#343230"/><circle cx="88" cy="5" r="2" fill="#d7cebf"/><circle cx="82" cy="5" r="2" fill="#d7cebf"/><rect x="6" y="4" width="20" height="2" fill="#d7cebf"/><rect x="11" y="31" width="12" height="12" rx="2.4" fill="#c2c2c2"/></svg>