<svg id="a5907962-e006-4d1f-aad6-94b032b25716" data-name="Layer 1" xmlns="http://www.w3.org/2000/svg" viewBox="0 0 96 96"><rect y="20" width="96" height="76" fill="#343230"/><rect y="10" width="96" height="10" fill="#858484"/><rect x="6" y="14" width="64" height="2" fill="#fff"/><rect width="96" height="10" fill="#343230"/><rect x="50" y="52" width="40" height="38" fill="#666"/><rect x="55" y="74" width="30" height="2" fill="#fff"/><rect x="60" y="70" width="20" height="2" fill="#fff"/><rect x="60" y="80" width="20" height="6" rx="0.913" fill="#f47b44"/><rect x="65" y="56" width="10" height="10" rx="2" fill="#22b8d1"/><rect x="6" y="52" width="40" height="38" fill="#666"/><rect x="11" y="74" width="30" height="2" fill="#fff"/><rect x="16" y="70" width="20" height="2" fill="#fff"/><rect x="16" y="80" width="20" height="6" rx="0.913" fill="#f47b44"/><rect x="21" y="56" width="10" height="10" rx="2" fill="#96ca52"/><rect x="6" y="26" width="84" height="22" fill="#666"/><rect x="29" y="34" width="20" height="2" fill="#fff"/><rect x="29" y="38" width="56" height="2" fill="#fff"/><circle cx="88" cy="5" r="2" fill="#c2c2c2"/><circle cx="82" cy="5" r="2" fill="#c2c2c2"/><rect x="6" y="4" width="20" height="2" fill="#c2c2c2"/><rect x="11" y="31" width="12" height="12" rx="2.4" fill="#e5b22a"/></svg>