<svg xmlns="http://www.w3.org/2000/svg" viewBox="0 0 17.8 32"><path d="M16,1.8a7.1,7.1,0,0,1,7.1,7.1,7,7,0,0,1-2.8,5.7l-.7.5v2l-1.3,1.3L17,19.6l1.3,1.3,1.3,1.3v.3l-1.3,1.3L17,24.9l1.3,1.3,1.3,1.3h0L16,29.9l-3.6-2.4V15.1l-.7-.5A7,7,0,0,1,8.9,8.9,7.1,7.1,0,0,1,16,1.8M16,0a8.9,8.9,0,0,0-5.3,16V28.4L16,32l5.3-3.6V26.7l-1.8-1.8,1.8-1.8V21.3l-1.8-1.8,1.8-1.8V16A8.9,8.9,0,0,0,16,0Z" transform="translate(-7.1)"/><path d="M16,5.3a1.8,1.8,0,1,1-1.8,1.8A1.8,1.8,0,0,1,16,5.3m0-1.8a3.6,3.6,0,1,0,3.6,3.6A3.6,3.6,0,0,0,16,3.6Z" transform="translate(-7.1)"/></svg>