<svg xmlns="http://www.w3.org/2000/svg" viewBox="0 0 16 18"><path d="M15,8H14V5A5,5,0,0,0,9,0,5,5,0,0,0,4,5V8H3a2,2,0,0,0-2,2v6a2,2,0,0,0,2,2H15a2,2,0,0,0,2-2V10A2,2,0,0,0,15,8ZM5,5a4,4,0,0,1,8,0V8H5ZM16,16a.9.9,0,0,1-1,1H3a.9.9,0,0,1-1-1V10A.9.9,0,0,1,3,9H15a.9.9,0,0,1,1,1Z" transform="translate(-1)"/><path d="M9,10a2,2,0,0,0-.9,3.8c-.1,0-.1.1-.1.2v1a.9.9,0,0,0,1,1,.9.9,0,0,0,1-1V14c0-.1,0-.2-.1-.2A2.1,2.1,0,0,0,11,12,2,2,0,0,0,9,10Zm0,3a1,1,0,0,1,0-2,1,1,0,0,1,0,2Z" transform="translate(-1)"/></svg>