<svg xmlns="http://www.w3.org/2000/svg" viewBox="0 0 18 18"><path d="M17.824 8.2c-.662-1.116-9.61-7-13.544-4.048a8.345 8.345 0 0 0-3.164 6 1.25 1.25 0 0 1 1.053 1.2v.071a1.257 1.257 0 0 1-.675 1.164 3.171 3.171 0 0 0 .519.853c2.918 3.3 12.881-.812 15.36-3.3a1.626 1.626 0 0 0 .451-1.94z" fill="#173f63"/><path d="M2.536 5.338H3.9v1.9c.3-.037.567-.084.836-.1a3.138 3.138 0 0 1 1.5.25 2.04 2.04 0 0 1 1.18 1.588 4.087 4.087 0 0 1-.068 1.9 2.2 2.2 0 0 1-1.973 1.685 8.048 8.048 0 0 1-2.63-.165c-.17-.032-.227-.1-.227-.27V7.392c.018-.662.018-1.343.018-2.054zm1.379 6.022a10.724 10.724 0 0 0 1.134 0 1.068 1.068 0 0 0 1-.917A4.291 4.291 0 0 0 6.1 9.289a.908.908 0 0 0-.84-.864 6.551 6.551 0 0 0-1.219.087.2.2 0 0 0-.127.147c-.001.867.001 1.741.001 2.701zM15 12.555l-5.127.021 2.846-4.082h-2.453V7.183h4.9l-2.821 4.124H15zM7.951 7.167a1.463 1.463 0 0 0 1.409 0v5.4H7.951zM9.516 5.97a.85.85 0 0 1-.815.884h-.06A.878.878 0 0 1 8.652 5.1a.844.844 0 0 1 .864.821.14.14 0 0 1 0 .049z" fill="#fff"/><path d="M1.747 11.423a.85.85 0 0 1-.814.885H.872a.878.878 0 1 1 .011-1.755.843.843 0 0 1 .864.821.4.4 0 0 1 0 .049z" fill="#173f63"/></svg>