<svg xmlns="http://www.w3.org/2000/svg" xmlns:xlink="http://www.w3.org/1999/xlink" viewBox="0 0 949.227 257.125"><defs><linearGradient id="a" x1="66.802" y1="270.038" x2="66.802" y2="270.712" gradientTransform="matrix(71, 0, 0, -140.125, -4670.972, 38096.164)" gradientUnits="userSpaceOnUse"><stop offset="0" stop-color="#f56640"/><stop offset="0.244" stop-color="#f57840"/><stop offset="1" stop-color="#ffbe54"/></linearGradient><linearGradient id="b" x1="66.69" y1="269.406" x2="66.69" y2="270.2" gradientTransform="matrix(62.3, 0, 0, -95.55, -4082.681, 25949.329)" gradientUnits="userSpaceOnUse"><stop offset="0" stop-color="#f56640"/><stop offset="0.181" stop-color="#f57840"/><stop offset="1" stop-color="#ffbe54"/></linearGradient><linearGradient id="c" x1="66.475" y1="269.478" x2="66.475" y2="270.836" gradientTransform="matrix(50.4, 0, 0, -105.502, -3278.162, 28621.809)" gradientUnits="userSpaceOnUse"><stop offset="0" stop-color="#f56640"/><stop offset="0.084" stop-color="#f57840"/><stop offset="1" stop-color="#ffbe54"/></linearGradient><linearGradient id="d" x1="66.475" y1="269.738" x2="66.475" y2="270.582" gradientTransform="matrix(50.4, 0, 0, -105.502, -3278.162, 28621.809)" gradientUnits="userSpaceOnUse"><stop offset="0" stop-color="#f56640"/><stop offset="0.391" stop-color="#f57840"/><stop offset="1" stop-color="#ffbe54"/></linearGradient></defs><path d="M106.78,132.7a12.968,12.968,0,0,1-11.5-7.2l-3.8-8.5H53.78l-3.8,8.5a12.968,12.968,0,0,1-11.5,7.2h-2l16.1,122.7c.8,2.3,2.3,2.3,3.2,0l16-39.2,13.9,39.1c.8,2.3,2.3,2.3,3.2,0l18.6-122.5-.7-.1" fill="url(#a)"/><path d="M89.98,113.6H55.38l-5.3,11.9a13.012,13.012,0,0,1-9.1,6.9l12.2,75.7c.8,1.4,2.3,1.4,3.2,0l15.6-23.7L86.28,208a1.744,1.744,0,0,0,3.2,0l13.8-75.8a12.981,12.981,0,0,1-8-6.7l-5.3-11.9" fill="url(#b)"/><path d="M95.28,125.5,72.58,74.8l-22.6,50.7a14.49,14.49,0,0,1-3,3.9l9.4,50.3a1.806,1.806,0,0,0,2.7,0L71.68,163l12.6,16.6a1.682,1.682,0,0,0,2.7,0l10.4-50.9a17.683,17.683,0,0,1-2.1-3.2" fill="url(#c)"/><path d="M95.28,125.5,72.58,74.8l-22.6,50.7a14.49,14.49,0,0,1-3,3.9l9.4,50.3a1.806,1.806,0,0,0,2.7,0L71.68,163l12.6,16.6a1.682,1.682,0,0,0,2.7,0l10.4-50.9a17.683,17.683,0,0,1-2.1-3.2" opacity="0.5" fill="url(#d)" style="isolation:isolate"/><path d="M.18,5.8c-.7-2.4.7-4.1,3.1-4.1h19.9a3.574,3.574,0,0,1,3.1,2.4l14.6,57.5h.7L67.88,1.9A3.258,3.258,0,0,1,70.78,0h3.1a2.906,2.906,0,0,1,2.9,1.9l26.3,59.7h.7l14.6-57.5a3.461,3.461,0,0,1,3.1-2.4h19.9c2.4,0,3.7,1.7,3.1,4.1l-32.1,114a3.211,3.211,0,0,1-3.1,2.4h-2.7a3.318,3.318,0,0,1-2.9-1.9L72.58,50.9h-.5l-30.9,69.4a3.513,3.513,0,0,1-2.9,1.9h-2.7a3.3,3.3,0,0,1-3.1-2.4L.18,5.8" fill="#f56640"/><path d="M162.18,4.9a3.222,3.222,0,0,1,3.2-3.2h40.9c20.9,0,38,17,38,37.5,0,21-17.1,38.2-37.8,38.2h-17.8v39.9a3.29,3.29,0,0,1-3.2,3.2h-20a3.158,3.158,0,0,1-3.2-3.2V4.9h-.1m42.6,47.7a13.337,13.337,0,0,0,13.4-13.4c0-7.1-6.1-12.6-13.4-12.6h-16.1v26h16.1" fill="#f56640"/><path d="M299.58,4.9a3.222,3.222,0,0,1,3.2-3.2h50.7a36.917,36.917,0,0,1,37,36.7c0,15.6-10.3,28.2-25.1,34.1l23.2,43.1a3.2,3.2,0,0,1-2.9,4.9h-22.6a2.936,2.936,0,0,1-2.7-1.5l-22.6-45h-11.7v43.3a3.29,3.29,0,0,1-3.2,3.2h-20.2a3.158,3.158,0,0,1-3.2-3.2l.1-112.4m51.8,47.5c7,0,12.9-6.4,12.9-13.6a13,13,0,0,0-12.9-12.9h-25.1V52.4h25.1" fill="#0e1b23"/><path d="M465.58,0a61.1,61.1,0,1,1,0,122.2,60.563,60.563,0,0,1-60.9-60.9A60.9,60.9,0,0,1,465.58,0m0,95a33.95,33.95,0,0,0,0-67.9c-18.5,0-33.8,15.4-33.8,34.1A34.016,34.016,0,0,0,465.58,95" fill="#0e1b23"/><path d="M599.78,0c17,0,29.5,5.3,41.1,15.8a3.162,3.162,0,0,1,.2,4.7l-13.2,13.7a2.9,2.9,0,0,1-4.2,0,34.76,34.76,0,0,0-22.9-8.7c-19.2,0-33.3,16-33.3,35,0,18.8,14.3,34.5,33.4,34.5a36.015,36.015,0,0,0,22.7-8.1,3.343,3.343,0,0,1,4.4.2l13.2,14.1a3.4,3.4,0,0,1-.2,4.6,58.137,58.137,0,0,1-41.2,16.5,61.15,61.15,0,1,1,0-122.3" fill="#0e1b23"/><path d="M661.38,5.8a4.054,4.054,0,0,1,4.1-4.1h19.9a4.185,4.185,0,0,1,4.1,4.1V50.4l37.7-47a5.322,5.322,0,0,1,3.2-1.7h21.4a3.973,3.973,0,0,1,3.1,6.3l-39.7,49.7,43.3,56.3a4,4,0,0,1-3.2,6.3h-23.4a4.945,4.945,0,0,1-3.1-1.2l-39.4-53.3v50.6a4.185,4.185,0,0,1-4.1,4.1h-19.9a4.054,4.054,0,0,1-4.1-4.1l.1-110.6" fill="#0e1b23"/><path d="M775.58,4.9a3.222,3.222,0,0,1,3.2-3.2h70.3a3.158,3.158,0,0,1,3.2,3.2V23.4a3.222,3.222,0,0,1-3.2,3.2h-47v21h38.7a3.29,3.29,0,0,1,3.2,3.2V69.3a3.158,3.158,0,0,1-3.2,3.2h-38.7v23h47a3.158,3.158,0,0,1,3.2,3.2v18.5a3.222,3.222,0,0,1-3.2,3.2h-70.3a3.158,3.158,0,0,1-3.2-3.2V4.9" fill="#0e1b23"/><path d="M890.28,26.6h-24.3a3.158,3.158,0,0,1-3.2-3.2V4.9a3.222,3.222,0,0,1,3.2-3.2h75.3a3.158,3.158,0,0,1,3.2,3.2V23.4a3.222,3.222,0,0,1-3.2,3.2h-24.3v90.6a3.29,3.29,0,0,1-3.2,3.2h-20.4a3.29,3.29,0,0,1-3.2-3.2l.1-90.6" fill="#0e1b23"/><path d="M140.44,207.71c7.255,0,12.339-3.85,12.339-10.315v-.1c0-5.725-3.751-8.341-11.06-10.118-6.663-1.579-8.242-2.764-8.242-5.429v-.1c0-2.27,2.073-4.1,5.626-4.1a14.365,14.365,0,0,1,7.946,2.616,2.937,2.937,0,0,0,1.579.444,2.824,2.824,0,0,0,2.863-2.813,2.739,2.739,0,0,0-1.333-2.418,19.006,19.006,0,0,0-10.957-3.208c-6.86,0-11.8,4.1-11.8,10.02v.1c0,6.367,4.146,8.538,11.5,10.315,6.416,1.481,7.8,2.813,7.8,5.281v.1c0,2.566-2.369,4.343-6.12,4.343a14.975,14.975,0,0,1-9.673-3.554,2.939,2.939,0,0,0-4.64,2.27,2.849,2.849,0,0,0,1.185,2.32,21.507,21.507,0,0,0,12.98,4.343m41.951-23.838a3.022,3.022,0,0,0-3.01-3.01,2.991,2.991,0,0,0-3.009,3.01v11.993c0,4.047-2.418,6.416-5.873,6.416-3.554,0-5.577-2.27-5.577-6.317v-12.09a2.986,2.986,0,1,0-5.971,0v13.869c0,6.071,3.405,10.02,9.279,10.02a9.376,9.376,0,0,0,8.143-4.59v1.333a3.01,3.01,0,0,0,6.02,0v-20.63m7.453,28.527V183.877a2.949,2.949,0,0,1,2.961-3.01,2.991,2.991,0,0,1,3.01,3.01v1.629a10.432,10.432,0,0,1,8.884-4.886c6.12,0,12.09,4.837,12.09,13.523v.1c0,8.637-5.923,13.523-12.09,13.523a10.642,10.642,0,0,1-8.884-4.59V212.4a2.986,2.986,0,0,1-5.971,0m13.424-9.822c4.1,0,7.453-3.208,7.453-8.341v-.1c0-5.03-3.405-8.341-7.453-8.341s-7.6,3.356-7.6,8.341v.1c0,4.985,3.554,8.341,7.6,8.341m24.18-10.216H240.82c-.395-3.85-2.665-6.86-6.613-6.86-3.652,0-6.219,2.813-6.762,6.86m16.83,11.993a13.38,13.38,0,0,1-9.377,3.455c-7.551,0-13.375-5.478-13.375-13.523v-.1c0-7.453,5.281-13.572,12.733-13.572,8.292,0,12.388,6.811,12.388,12.832a2.793,2.793,0,0,1-2.813,2.863H227.5a7.275,7.275,0,0,0,7.5,6.613,9.364,9.364,0,0,0,6.169-2.27,2.225,2.225,0,0,1,1.53-.543,2.35,2.35,0,0,1,2.369,2.418,2.6,2.6,0,0,1-.79,1.826m8.489.148a2.939,2.939,0,0,0,2.961,2.961,2.981,2.981,0,0,0,3.01-2.961v-7.7c0-6.169,2.912-9.427,7.156-10.167a2.8,2.8,0,0,0,2.369-2.863,2.772,2.772,0,0,0-2.961-2.961c-2.616,0-5.182,2.468-6.564,5.725v-2.665a2.991,2.991,0,0,0-3.01-3.01,2.95,2.95,0,0,0-2.961,3.01v20.63m20.285-30.06c0,1.777,1.481,2.961,3.405,2.961s3.4-1.185,3.4-2.961v-.3c0-1.777-1.481-2.912-3.4-2.912s-3.405,1.135-3.405,2.912v.3m.444,30.06a2.986,2.986,0,0,0,5.971,0v-20.63a2.991,2.991,0,0,0-3.01-3.01,2.95,2.95,0,0,0-2.961,3.01v20.63m26.16,3.307a13.477,13.477,0,0,1-13.819-13.474v-.1a13.9,13.9,0,0,1,27.787-.1v.1a13.625,13.625,0,0,1-13.967,13.572m.1-5.232c4.837,0,7.9-3.751,7.9-8.242v-.1c0-4.59-3.307-8.39-8-8.39-4.787,0-7.847,3.751-7.847,8.292v.1a8.032,8.032,0,0,0,7.946,8.341m19.939,1.925a2.939,2.939,0,0,0,2.961,2.961,2.981,2.981,0,0,0,3.01-2.961v-7.7c0-6.169,2.912-9.427,7.156-10.167a2.8,2.8,0,0,0,2.369-2.863,2.772,2.772,0,0,0-2.961-2.961c-2.616,0-5.182,2.468-6.564,5.725v-2.665a2.991,2.991,0,0,0-3.01-3.01,2.95,2.95,0,0,0-2.961,3.01v20.63m43.975.691a3.368,3.368,0,0,0,3.159,2.517h.592a3.325,3.325,0,0,0,3.159-2.517l7.7-22.555,7.7,22.555a3.271,3.271,0,0,0,3.109,2.517h.592a3.383,3.383,0,0,0,3.159-2.517l10.216-28.626a3.479,3.479,0,0,0,.3-1.234,2.971,2.971,0,0,0-3.01-2.912,3.1,3.1,0,0,0-2.961,2.172l-7.946,23.789-7.8-23.641a3.16,3.16,0,0,0-3.06-2.418h-.444a3.2,3.2,0,0,0-3.06,2.418l-7.8,23.641-7.946-23.739a3.1,3.1,0,0,0-3.01-2.221,3.035,3.035,0,0,0-3.109,2.961,3.182,3.182,0,0,0,.247,1.185L363.669,205.2M419,207.815a13.477,13.477,0,0,1-13.819-13.474v-.1a13.9,13.9,0,0,1,27.787-.1v.1A13.625,13.625,0,0,1,419,207.814m.1-5.232c4.837,0,7.9-3.751,7.9-8.242v-.1c0-4.59-3.307-8.39-8-8.39-4.787,0-7.847,3.751-7.847,8.292v.1a8.032,8.032,0,0,0,7.946,8.341m19.939,1.925A2.939,2.939,0,0,0,442,207.469a2.981,2.981,0,0,0,3.01-2.961v-7.7c0-6.169,2.912-9.427,7.156-10.167a2.8,2.8,0,0,0,2.369-2.863,2.772,2.772,0,0,0-2.961-2.961c-2.616,0-5.182,2.468-6.564,5.725v-2.665a2.991,2.991,0,0,0-3.01-3.01,2.95,2.95,0,0,0-2.961,3.01v20.63m45.26-30.6v30.6a2.986,2.986,0,0,1-5.971,0v-1.629a10.432,10.432,0,0,1-8.884,4.886c-6.12,0-12.09-4.886-12.09-13.523v-.1c0-8.637,5.873-13.523,12.09-13.523a10.657,10.657,0,0,1,8.884,4.59v-11.3a2.986,2.986,0,0,1,5.971,0M470.875,185.8c-4.1,0-7.5,3.159-7.5,8.341v.1c0,5.03,3.455,8.341,7.5,8.341,4,0,7.551-3.356,7.551-8.341v-.1c0-5.03-3.554-8.341-7.551-8.341m21.617,18.656V175.734a3.014,3.014,0,0,1,3.06-3.06h10.562c8.094,0,13.13,4.59,13.13,11.549v.1c0,7.749-6.219,11.8-13.819,11.8h-6.86v8.341a3.035,3.035,0,0,1-6.07,0m6.071-13.819h7.06c4.59,0,7.453-2.566,7.453-6.169v-.1c0-4.047-2.912-6.169-7.453-6.169h-7.06V190.64m26.21,13.869a2.939,2.939,0,0,0,2.961,2.961,2.981,2.981,0,0,0,3.01-2.961v-7.7c0-6.169,2.912-9.427,7.156-10.167a2.8,2.8,0,0,0,2.369-2.863,2.772,2.772,0,0,0-2.961-2.961c-2.616,0-5.182,2.468-6.564,5.725v-2.665a2.991,2.991,0,0,0-3.01-3.01,2.95,2.95,0,0,0-2.961,3.01v20.63m23.986-12.141h13.375c-.395-3.85-2.665-6.86-6.613-6.86-3.652,0-6.219,2.813-6.762,6.86m16.83,11.993a13.38,13.38,0,0,1-9.377,3.455c-7.551,0-13.375-5.478-13.375-13.523v-.1c0-7.453,5.281-13.572,12.733-13.572,8.292,0,12.388,6.811,12.388,12.832a2.793,2.793,0,0,1-2.813,2.863H548.812a7.275,7.275,0,0,0,7.5,6.613,9.364,9.364,0,0,0,6.169-2.27,2.225,2.225,0,0,1,1.53-.543,2.35,2.35,0,0,1,2.369,2.418,2.6,2.6,0,0,1-.79,1.826m17.422,3.356c5.429,0,9.673-2.714,9.673-8.193v-.1c0-4.689-4.294-6.416-8.094-7.6-3.06-.987-5.873-1.777-5.873-3.7v-.1c0-1.481,1.333-2.566,3.652-2.566a14.21,14.21,0,0,1,6.12,1.777,2.35,2.35,0,0,0,1.185.3,2.4,2.4,0,0,0,2.468-2.418,2.532,2.532,0,0,0-1.431-2.27,17.908,17.908,0,0,0-8.193-2.122c-5.182,0-9.279,3.01-9.279,7.946v.1c0,4.985,4.294,6.564,8.143,7.65,3.06.938,5.824,1.629,5.824,3.652v.1c0,1.727-1.481,2.813-4.047,2.813a13.757,13.757,0,0,1-7.5-2.517,2.609,2.609,0,0,0-1.283-.345,2.391,2.391,0,0,0-2.418,2.418,2.291,2.291,0,0,0,1.135,2.073,17.806,17.806,0,0,0,9.92,3.109m24.23,0c5.429,0,9.673-2.714,9.673-8.193v-.1c0-4.689-4.3-6.416-8.094-7.6-3.06-.987-5.873-1.777-5.873-3.7v-.1c0-1.481,1.333-2.566,3.652-2.566a14.21,14.21,0,0,1,6.119,1.777,2.353,2.353,0,0,0,1.185.3,2.4,2.4,0,0,0,2.469-2.418,2.532,2.532,0,0,0-1.432-2.27,17.908,17.908,0,0,0-8.193-2.122c-5.182,0-9.279,3.01-9.279,7.946v.1c0,4.985,4.295,6.564,8.144,7.65,3.06.938,5.823,1.629,5.823,3.652v.1c0,1.727-1.481,2.813-4.047,2.813a13.757,13.757,0,0,1-7.5-2.517,2.609,2.609,0,0,0-1.283-.345,2.391,2.391,0,0,0-2.418,2.418,2.291,2.291,0,0,0,1.135,2.073,17.806,17.806,0,0,0,9.92,3.109m31.29-3.257V175.736a3.014,3.014,0,0,1,3.06-3.06h10.562c8.094,0,13.13,4.59,13.13,11.549v.1c0,7.749-6.219,11.8-13.819,11.8h-6.86v8.341a3.035,3.035,0,0,1-6.07,0m6.071-13.819h7.06c4.59,0,7.453-2.566,7.453-6.169v-.1c0-4.047-2.912-6.169-7.453-6.169h-7.06v12.437m30.452,1.727h13.375c-.395-3.85-2.665-6.86-6.613-6.86-3.652,0-6.219,2.813-6.762,6.86m16.83,11.993a13.38,13.38,0,0,1-9.377,3.455c-7.551,0-13.375-5.478-13.375-13.523v-.1c0-7.453,5.281-13.572,12.733-13.572,8.292,0,12.388,6.811,12.388,12.832a2.793,2.793,0,0,1-2.813,2.863H675.109a7.275,7.275,0,0,0,7.5,6.613,9.364,9.364,0,0,0,6.169-2.27,2.225,2.225,0,0,1,1.53-.543,2.35,2.35,0,0,1,2.369,2.418,2.6,2.6,0,0,1-.79,1.826m8.489.148a2.939,2.939,0,0,0,2.961,2.961,2.981,2.981,0,0,0,3.01-2.961v-7.7c0-6.169,2.912-9.427,7.156-10.167a2.8,2.8,0,0,0,2.37-2.863,2.772,2.772,0,0,0-2.961-2.961c-2.617,0-5.182,2.468-6.565,5.725V183.88a2.991,2.991,0,0,0-3.01-3.01,2.95,2.95,0,0,0-2.961,3.01v20.63m21.716,0a2.986,2.986,0,0,0,5.971,0V186.3h4.542a2.486,2.486,0,0,0,2.517-2.468,2.456,2.456,0,0,0-2.517-2.468h-4.639v-1.431c0-2.714,1.185-3.948,3.455-3.948a9.506,9.506,0,0,1,1.234.1,2.485,2.485,0,0,0,.444-4.936,17.218,17.218,0,0,0-3.01-.247,7.892,7.892,0,0,0-5.873,2.073c-1.382,1.382-2.122,3.554-2.122,6.416v1.925H721.06a2.527,2.527,0,0,0-2.517,2.517,2.486,2.486,0,0,0,2.517,2.468H722.1V204.51m29.12,3.307A13.477,13.477,0,0,1,737.4,194.343v-.1a13.9,13.9,0,0,1,27.787-.1v.1a13.625,13.625,0,0,1-13.967,13.572m.1-5.232c4.837,0,7.9-3.751,7.9-8.242v-.1c0-4.59-3.307-8.39-8-8.39-4.787,0-7.847,3.751-7.847,8.292v.1a8.032,8.032,0,0,0,7.946,8.341m19.939,1.925a2.939,2.939,0,0,0,2.961,2.961,2.981,2.981,0,0,0,3.01-2.961v-7.7c0-6.169,2.912-9.427,7.156-10.167a2.8,2.8,0,0,0,2.369-2.863,2.772,2.772,0,0,0-2.961-2.961c-2.616,0-5.182,2.468-6.564,5.725V183.88a2.991,2.991,0,0,0-3.01-3.01,2.95,2.95,0,0,0-2.961,3.01v20.63m20.383,0a2.986,2.986,0,0,0,5.971,0V192.517c0-4,2.27-6.465,5.577-6.465s5.281,2.27,5.281,6.317V204.51a2.986,2.986,0,0,0,5.971,0V192.517c0-4.195,2.32-6.465,5.577-6.465,3.356,0,5.281,2.221,5.281,6.367v12.09a2.95,2.95,0,0,0,3.01,2.961,2.908,2.908,0,0,0,2.961-2.961V190.591c0-6.367-3.455-9.97-9.131-9.97a10.485,10.485,0,0,0-8.785,4.59,8.27,8.27,0,0,0-7.8-4.59c-4,0-6.268,2.172-7.946,4.491v-1.234a2.991,2.991,0,0,0-3.01-3.01,2.95,2.95,0,0,0-2.961,3.01v20.63m54.39,3.257c-4.886,0-9.229-2.813-9.229-8.04v-.1c0-5.626,4.393-8.39,10.759-8.39a21.776,21.776,0,0,1,7.01,1.086v-.642c0-3.7-2.27-5.676-6.465-5.676a15.484,15.484,0,0,0-5.774,1.036,3.343,3.343,0,0,1-.938.148,2.486,2.486,0,0,1-2.517-2.468,2.605,2.605,0,0,1,1.629-2.369,22.333,22.333,0,0,1,8.39-1.53c3.9,0,6.811,1.036,8.637,2.912,1.925,1.875,2.813,4.639,2.813,8.04v12.832a2.845,2.845,0,0,1-2.912,2.863,2.7,2.7,0,0,1-2.912-2.517v-.987a10.591,10.591,0,0,1-8.489,3.8m1.678-4.343c3.948,0,6.959-2.27,6.959-5.577v-1.777a16.565,16.565,0,0,0-5.923-1.036c-3.85,0-6.12,1.629-6.12,4.343v.1c0,2.517,2.221,3.948,5.083,3.948m19.791,1.086a2.986,2.986,0,0,0,5.971,0V192.514c0-4.047,2.418-6.465,5.873-6.465,3.554,0,5.577,2.32,5.577,6.367v12.09a2.95,2.95,0,0,0,3.01,2.961,2.908,2.908,0,0,0,2.961-2.961V190.588c0-6.02-3.4-9.97-9.279-9.97a9.444,9.444,0,0,0-8.143,4.541v-1.283a2.991,2.991,0,0,0-3.01-3.01,2.95,2.95,0,0,0-2.961,3.01v20.63m42.642,3.307a12.755,12.755,0,0,0,9.476-3.7,2.327,2.327,0,0,0,.839-1.875,2.517,2.517,0,0,0-4.195-1.974,8.7,8.7,0,0,1-5.824,2.32c-4.59,0-7.8-3.7-7.8-8.341v-.1c0-4.541,3.208-8.292,7.551-8.292a8.266,8.266,0,0,1,5.577,2.221,3.045,3.045,0,0,0,1.777.592,2.718,2.718,0,0,0,2.764-2.714,2.833,2.833,0,0,0-.938-2.073,13.183,13.183,0,0,0-9.131-3.257,13.45,13.45,0,0,0-13.572,13.622v.1a13.3,13.3,0,0,0,13.474,13.474m19.89-15.448H943.4c-.395-3.85-2.665-6.86-6.613-6.86-3.652,0-6.219,2.813-6.762,6.86m16.83,11.993a13.38,13.38,0,0,1-9.377,3.455c-7.551,0-13.375-5.478-13.375-13.523v-.1c0-7.453,5.281-13.572,12.733-13.572,8.292,0,12.388,6.811,12.388,12.832a2.793,2.793,0,0,1-2.813,2.863H930.078a7.275,7.275,0,0,0,7.5,6.613,9.364,9.364,0,0,0,6.169-2.27,2.225,2.225,0,0,1,1.53-.543,2.35,2.35,0,0,1,2.369,2.418,2.6,2.6,0,0,1-.79,1.826" fill="#757575"/></svg>