<svg id="b61fae89-7411-40d7-a50a-5828627b830c" data-name="Layer 1" xmlns="http://www.w3.org/2000/svg" xmlns:xlink="http://www.w3.org/1999/xlink" viewBox="0 0 96 51"><defs><radialGradient id="e359bd39-8640-43c8-8048-9949d48d6c49" cx="-104.065" cy="288.92" r="136.146" gradientTransform="matrix(0.463, 0, 0, -0.468, 77.001, 144.129)" gradientUnits="userSpaceOnUse"><stop offset="0" stop-color="#fff"/><stop offset="0.5" stop-color="#4d6c98"/><stop offset="1" stop-color="#231f20"/></radialGradient></defs><ellipse cx="48" cy="25.5" rx="48" ry="25.5" fill="url(#e359bd39-8640-43c8-8048-9949d48d6c49)"/><ellipse cx="48" cy="25.5" rx="46.125" ry="23.605" fill="#6282b7"/><path d="M57.337,33.154l2.288-11.9c.525-2.69.075-4.7-1.275-5.948-1.312-1.213-3.562-1.819-6.862-1.819H47.513l1.125-5.911a.8.8,0,0,0-.15-.644.671.671,0,0,0-.563-.265H42.45a.768.768,0,0,0-.75.606L39.263,19.892a6.77,6.77,0,0,0-1.65-3.637c-1.613-1.857-4.125-2.8-7.538-2.8H19.537a.768.768,0,0,0-.75.606L13.875,39.671a.8.8,0,0,0,.15.644.674.674,0,0,0,.563.265H20.1a.768.768,0,0,0,.75-.606l1.2-6.176h4.088a17.779,17.779,0,0,0,5.362-.682,10.617,10.617,0,0,0,3.938-2.387,12.237,12.237,0,0,0,2.325-2.918l-.975,5.115a.8.8,0,0,0,.15.645.672.672,0,0,0,.562.265h5.475a.768.768,0,0,0,.75-.606l2.7-14.02h3.75c1.613,0,2.063.3,2.212.455.113.114.338.568.075,1.97L50.287,32.964a.8.8,0,0,0,.15.644.672.672,0,0,0,.563.266h5.625A1.053,1.053,0,0,0,57.337,33.154ZM31.988,23.3a6.034,6.034,0,0,1-1.913,3.789,7.5,7.5,0,0,1-4.5,1.1H23.138L24.9,19.021h3.15c2.325,0,3.262.492,3.638.909C32.175,20.536,32.287,21.711,31.988,23.3Z" fill="#fff"/><path d="M80.738,16.255c-1.613-1.857-4.125-2.8-7.538-2.8H62.587a.768.768,0,0,0-.75.606L56.925,39.633a.8.8,0,0,0,.15.644.669.669,0,0,0,.562.265H63.15a.768.768,0,0,0,.75-.606l1.2-6.176h4.087a17.786,17.786,0,0,0,5.363-.682,10.613,10.613,0,0,0,3.937-2.387,12.169,12.169,0,0,0,2.4-3.031A12.723,12.723,0,0,0,82.2,24.022C82.837,20.726,82.35,18.149,80.738,16.255ZM75,23.3a6.03,6.03,0,0,1-1.913,3.789,7.5,7.5,0,0,1-4.5,1.1H66.15l1.762-9.169h3.15c2.325,0,3.263.492,3.638.909C75.225,20.536,75.337,21.711,75,23.3Z" fill="#fff"/><path d="M28.05,18.263c2.1,0,3.488.379,4.2,1.175s.863,2.121.488,4.016A6.745,6.745,0,0,1,30.525,27.7a8.1,8.1,0,0,1-4.95,1.25H22.238L24.3,18.263ZM14.625,39.785h5.513L21.45,33h4.725a16.224,16.224,0,0,0,5.137-.682,9.822,9.822,0,0,0,3.676-2.235,11.385,11.385,0,0,0,2.25-2.842,11.146,11.146,0,0,0,1.2-3.41c.6-3.031.15-5.381-1.313-7.086s-3.787-2.538-6.975-2.538H19.537Z" fill="#050507"/><path d="M42.488,7.426h5.475L46.65,14.209h4.875c3.075,0,5.175.53,6.337,1.629s1.5,2.842,1.05,5.267L56.625,33h-5.55L53.25,21.673c.262-1.288.15-2.16-.262-2.614a3.84,3.84,0,0,0-2.738-.72H45.863L43.05,33H37.575Z" fill="#050507"/><path d="M71.062,18.263c2.1,0,3.488.379,4.2,1.175s.863,2.121.488,4.016A6.749,6.749,0,0,1,73.538,27.7a8.1,8.1,0,0,1-4.95,1.25H65.25l2.063-10.685ZM57.637,39.785H63.15L64.462,33h4.726a16.228,16.228,0,0,0,5.137-.682A9.818,9.818,0,0,0,78,30.085a11.339,11.339,0,0,0,2.25-2.842,11.146,11.146,0,0,0,1.2-3.41c.6-3.031.15-5.381-1.313-7.086s-3.787-2.538-6.975-2.538H62.55Z" fill="#050507"/></svg>