<svg xmlns="http://www.w3.org/2000/svg" viewBox="0 0 32 32"><path d="M10.372 24.552c.256-.114.515-.218.776-.316.295-.111.592-.216.894-.306.375-.113.753-.216 1.137-.3a14.035 14.035 0 0 1 1.566-.242q-.445 1.4-.976 2.771c.015.178.024.357.028.536a11.342 11.342 0 0 1 4.406 0c0-.179.013-.358.028-.536q-.53-1.371-.976-2.771a13.964 13.964 0 0 1 1.566.242c.384.081.762.184 1.137.3.3.09.6.2.894.306.261.1.52.2.776.316a13.883 13.883 0 0 1 4.821 3.559 16 16 0 1 0-20.9 0 13.883 13.883 0 0 1 4.821-3.559" fill="#a6dce8"/><path d="M21.628 24.552l.993 3.416.282.013c.183 0 .311.048.311.231 0 .3.016.645.045.944.248.21.549.447.778.677a16.045 16.045 0 0 0 2.412-1.722 13.883 13.883 0 0 0-4.821-3.559m-1.942-.034l1.166-.282c-.3-.111-.592-.216-.894-.306-.375-.113-.753-.216-1.137-.3a14.035 14.035 0 0 0-1.566-.242q.445 1.4.976 2.771c-.015.178-.024.357-.028.536a11.484 11.484 0 0 1 2.39.778l-.907-2.958" fill="#535453"/><path d="M7.963 29.833c.186.108.374.214.565.315.066-.321.173-.765.205-1.095-.247.21-.541.55-.77.78m12.61-2.386A11.2 11.2 0 0 0 18.2 26.7a11.342 11.342 0 0 0-4.406 0 11.839 11.839 0 0 0-2.439.742l-.08.5h9.444l-.149-.491" fill="#010101"/><path d="M8.7 29.148a8.606 8.606 0 0 0 .05-.868.287.287 0 0 1 .309-.3l.3-.011 1.009-3.417a13.883 13.883 0 0 0-4.821 3.559 16.045 16.045 0 0 0 2.412 1.722q.343-.345.714-.661" fill="#535453"/><path d="M23.381 29.756a1.694 1.694 0 0 0 .091.392q.286-.151.565-.315-.346-.349-.722-.669l.066.592" fill="#010101"/><path d="M20.573 27.447l.149.491h1.932l-1.026-3.386c-.256-.113-.514-.219-.776-.317l-1.166.283.887 2.929" fill="#aa9678"/><path d="M9.38 28.621l.03-.021h-.029v.021" fill="#c5b7a2"/><path d="M22.619 28.6h-.029l.03.021V28.6" fill="#aa9678"/><path d="M22.586 28.551l-6.6.007L16 32a15.936 15.936 0 0 0 6.862-1.544 10.075 10.075 0 0 1-.172-1.864c-.01-.007-.1-.041-.1-.041" fill="#aa9678"/><path d="M15.989 28.572s-6.635-.008-6.645 0c-.022.625-.151 1.367-.206 1.885A15.936 15.936 0 0 0 16 32v-3.417l-.015-.011" fill="#c5b7a2"/><path d="M16 28.269v.331z" fill="#796554"/><path d="M20.949 26.02v.01-.01a3.174 3.174 0 0 1-.368-.365 3.174 3.174 0 0 0 .368.365" fill="#aa9678"/><path d="M26.464 15.9v.02a1.667 1.667 0 0 1 .012.189v.081q0 .093-.012.186v.023c-.009.064-.021.127-.036.19l.419-.438-.423-.442a1.886 1.886 0 0 1 .036.193" fill="#686b6b"/><path d="M26.464 16.4v-.024c.008-.06.01-.123.012-.186v-.081q0-.095-.012-.189v-.021a1.6 1.6 0 0 0-.037-.193c0-.022-.013-.041-.019-.061a1.242 1.242 0 0 0-.151-.328.939.939 0 0 0-.076-.1.67.67 0 0 0-.083-.077l-.034-.022a.514.514 0 0 0-.111-.053.376.376 0 0 0-.115-.02.369.369 0 0 0-.114.02.5.5 0 0 0-.112.053c-.011.008-.022.013-.033.022a.619.619 0 0 0-.134.141l-.026.036a1.242 1.242 0 0 0-.151.328v.015a1.633 1.633 0 0 0-.041.18c0 .019-.008.037-.01.057a1.871 1.871 0 0 0-.017.216v.03c0 .61.289 1.1.644 1.1a.392.392 0 0 0 .176-.044.448.448 0 0 0 .095-.06.349.349 0 0 0 .035-.032.7.7 0 0 0 .081-.09.8.8 0 0 0 .052-.073l.029-.052c.018-.034.035-.068.051-.105 0-.013.011-.026.017-.04.019-.051.036-.105.051-.161a1.827 1.827 0 0 0 .036-.19zm-.6-.4c-.133 0-.241-.185-.241-.413s.108-.414.241-.414.242.185.242.414S26 16 25.861 16z" fill="#010101"/><path d="M25.861 15.171c-.133 0-.241.185-.241.414s.108.413.241.413.242-.185.242-.413-.108-.414-.242-.414" fill="#fff"/><path d="M25.268 15.642a1.242 1.242 0 0 1 .151-.328c.008-.013.017-.024.026-.036a.619.619 0 0 1 .134-.141c.011-.009.022-.014.033-.022a.5.5 0 0 1 .112-.053.338.338 0 0 1 .229 0 .514.514 0 0 1 .111.053l.034.022a.659.659 0 0 1 .083.077.939.939 0 0 1 .076.1 1.211 1.211 0 0 1 .151.328l-.57-2.61-.57 2.61" fill="#909393"/><path d="M18.287 16.121a1.33 1.33 0 0 0-.01-.155 1.494 1.494 0 0 0-.025-.149q-.017-.072-.039-.141a1.407 1.407 0 0 0-.052-.136 1.506 1.506 0 0 0-.8-.78 1.4 1.4 0 0 0-.27-.081h-.021a1.454 1.454 0 0 0-.573 0h-.01a1.587 1.587 0 0 0-.265.079h-.006a1.521 1.521 0 0 0-.247.128 1.556 1.556 0 0 0-.218.17h-.006a1.52 1.52 0 0 0-.274.349c-.023.04-.043.081-.062.123l-.006.014a1.22 1.22 0 0 0-.046.119l-.009.024c-.012.037-.021.076-.031.115l-.008.033c-.008.039-.014.078-.019.118 0 .012 0 .023-.005.036a1.5 1.5 0 0 0 .02.448v.006a1.476 1.476 0 0 0 .083.272 1.522 1.522 0 0 0 .657.742c.041.023.082.044.125.063h.011c.039.017.08.032.121.046l.021.007c.038.012.077.022.116.031l.032.008c.038.008.077.014.117.019h.036a1.505 1.505 0 0 0 1-.249 1.53 1.53 0 0 0 .407-.407 1.509 1.509 0 0 0 .258-.843v-.022zm-1.506-.177a.566.566 0 1 1 .566-.566.565.565 0 0 1-.566.566z" fill="#010101"/><path d="M16.781 14.812a.566.566 0 1 0 0 1.132.566.566 0 0 0 0-1.132" fill="#fff"/><path d="M15.744 15.05h.006l1.039-3.175v-.752a8.8 8.8 0 0 0-1.781-.183c-.2 0-.4.008-.6.022l-.087.006a8.935 8.935 0 0 0-3.019.784 9.661 9.661 0 0 0-2.258 1.438q-.273.234-.529.487l-.1.094c-.161.162-.317.33-.467.5l-.1.114q-.228.267-.438.548c-.011.016-.022.033-.034.048q-.2.273-.382.556c-.023.037-.048.073-.071.111-.1.156-.191.317-.282.478h4.729l4.368-1.079" fill="#bbbcbd"/><path d="M19.737 14.693c.01-.124.017-.247.024-.371.008-.168.014-.336.017-.5v-.504c0-.337-.016-.673-.037-1.009l-.375-.214-.009-.005-.1-.055-.067-.038-.014-.007-.049-.027c-.218-.113-.439-.217-.665-.312a11.906 11.906 0 0 0-1.671-.523v.752l1.03 3.18a1.547 1.547 0 0 1 .271.346 1.212 1.212 0 0 1 .065.13 1.407 1.407 0 0 1 .052.136q.023.069.039.141a1.447 1.447 0 0 1 .025.149 1.33 1.33 0 0 1 .01.155v.009h1.26a13.43 13.43 0 0 0 .182-1.4v-.039" fill="#e3dddb"/><path d="M15.751 15.044a1.572 1.572 0 0 1 .219-.171 1.506 1.506 0 0 1 .246-.127h.006a1.55 1.55 0 0 1 .265-.079h.01a1.511 1.511 0 0 1 .284-.028 1.445 1.445 0 0 1 .289.029h.007a1.375 1.375 0 0 1 .274.083 1.5 1.5 0 0 1 .469.3l-1.03-3.18-1.038 3.175" fill="#909393"/><path d="M15.386 16.712a1.525 1.525 0 0 1-.083-.272v-.006a1.5 1.5 0 0 1-.02-.448c0-.013 0-.024.005-.036 0-.04.011-.079.019-.118l.008-.033c.01-.039.019-.078.031-.116l.009-.023c.014-.04.028-.081.046-.12l.006-.013c.019-.042.039-.083.062-.123a1.547 1.547 0 0 1 .274-.35l-4.368 1.079h-.008l4.326 1.056a1.5 1.5 0 0 1-.307-.47" fill="#686b6b"/><path d="M25.213 15.894c0-.02.007-.038.01-.057a1.633 1.633 0 0 1 .041-.18v-.021l.57-2.609v-1.488a2.324 2.324 0 0 0-1.483-.595 2.562 2.562 0 0 0-1.725.81 6.422 6.422 0 0 0-1.2 1.727l-.044.085c.1.083.192.168.286.254q.32.293.627.6c.1.094.19.191.284.287s.2.2.3.307q.27.284.533.575.225.248.445.5l.049.052h1.285v-.03a1.889 1.889 0 0 1 .017-.217m-3.827-2.32l.005.006v-.006" fill="#e3dddb"/><path d="M5.872 17.772l.011-.029a12.245 12.245 0 0 1 .6-1.309c.035-.066.069-.132.1-.2.02-.036.043-.07.063-.106.091-.162.183-.323.282-.479.023-.038.048-.074.071-.111q.183-.283.382-.556c.012-.015.023-.032.034-.048q.21-.28.438-.548l.1-.114c.15-.172.306-.34.467-.5l.1-.094q.257-.254.529-.487A5.7 5.7 0 0 1 14.687 9.3a5.751 5.751 0 0 1 2.982.848 4.868 4.868 0 0 1 2.025 2.064l.007.014c.013.025.026.048.038.072a9.585 9.585 0 0 1 1.16.843c.123.1.244.21.362.319l.118.106.04-.082c.367-2.314 1.532-3.577 2.736-3.577.908 0 1.568.542 2.066 2v.015a5.248 5.248 0 0 1 .411.506l.008.01c.007.021.013.043.02.064l-.019-.076A11.223 11.223 0 0 0 4.8 16.02a11.088 11.088 0 0 0 .558 3.493v-.006a12 12 0 0 1 .514-1.735" fill="#535453"/><path d="M26.822 16.144l-.391.438a1.482 1.482 0 0 1-.053.163c-.006.014-.012.027-.017.04a1.017 1.017 0 0 1-.051.105l-.029.052a.8.8 0 0 1-.052.073.686.686 0 0 1-.081.09.359.359 0 0 1-.035.032.468.468 0 0 1-.094.06.408.408 0 0 1-.177.043c-.355 0-.644-.494-.644-1.1h-1.292q.365.422.717.851t.669.835l.032.041q.314.4.621.8l.06.078c.217.287.434.574.648.863a11.183 11.183 0 0 0 .589-3.473l-.363-.014-.057.018" fill="#fff"/><path d="M14.316 10.962l.087-.006c.2-.014.4-.022.6-.022a8.885 8.885 0 0 1 1.781.183 11.938 11.938 0 0 1 1.67.523c.226.095.447.2.665.312l.049.027.014.007.068.038.1.055.009.005.35.2.015.008.01.006c-.012-.024-.025-.047-.038-.072l-.007-.014a5.839 5.839 0 0 0-2.147-2.337 5.722 5.722 0 0 0-8.5 3.313 9.694 9.694 0 0 1 2.258-1.442 8.935 8.935 0 0 1 3.019-.784" fill="#010101"/><path d="M26.653 12.439l-.008-.01a5.393 5.393 0 0 0-.41-.506c-.063-.068-.127-.134-.194-.2-.025-.024-.05-.045-.075-.067-.041-.038-.082-.076-.124-.111v1.489l.57 2.61c.006.02.014.039.019.06l.395.442h.413v-.114a11.181 11.181 0 0 0-.569-3.522c-.007-.021-.013-.043-.02-.064" fill="#bbbcbd"/><path d="M22.63 11.754a2.562 2.562 0 0 1 1.725-.81 2.324 2.324 0 0 1 1.483.595v.005c.042.034.083.072.124.11.025.022.05.043.075.067.067.064.131.13.194.2v-.016c-.5-1.457-1.3-2.4-2.21-2.4-1.2 0-2.225 1.668-2.592 3.982a6.445 6.445 0 0 1 1.2-1.727M21 25.979a3.074 3.074 0 0 1-.368-.365 3.6 3.6 0 0 1-.267-.345c-.026-.038-.052-.078-.078-.119a3.84 3.84 0 0 1-.209-.421 2.476 2.476 0 0 1-.125-.445 3.132 3.132 0 0 1-.079-.358 3 3 0 0 1-.038-.591 3.11 3.11 0 0 1 .032-.352 3.275 3.275 0 0 1 .07-.355 4.29 4.29 0 0 1 .492-1.158l.063-.139c.08-.134.1-.128.173-.256a7.413 7.413 0 0 0 1.368-5.275q-.046-.324-.106-.645-.036.232-.078.465a1.068 1.068 0 0 1-.051.133 9.521 9.521 0 0 1-2.25 3.531q-.22.238-.445.471-.4.415-.813.824l-.349.345c-.108.108-.243.338-.405.507-.1.279-.212.593-.308.924l-.128-.048a15 15 0 0 1-3.416-1.849 14.975 14.975 0 0 0 2.83 2.66 5.633 5.633 0 0 0 .507.329c-.073 1.159.438 2.273 2.747 2.6a4.712 4.712 0 0 0 1.193.008c0-.012.023-.012.02-.019s.022-.024.022-.024" fill="#010101"/><path d="M19.767 23A14.278 14.278 0 0 0 28 21.8c.076-.036.16.058.235.021a19.566 19.566 0 0 1-4.723 3.441c-.075.036-.149.075-.225.109-.248.114-.5.213-.754.3a7.094 7.094 0 0 1-1.5.377l-.069.01-.009-.029v-.01a3.174 3.174 0 0 1-.368-.365 3.693 3.693 0 0 1-.267-.345 3.6 3.6 0 0 1-.3-.526 3.3 3.3 0 0 1-.179-.48 3.071 3.071 0 0 1-.117-.949A3.175 3.175 0 0 1 19.75 23h.017" fill="#a02255"/><path d="M18.3 20.661q.411-.408.813-.824c.151-.155.3-.312.446-.47a9.844 9.844 0 0 0 2.291-3.589c.011-.033.022-.076.033-.124v-.023c.01-.051.021-.108.032-.173 0-.044.143-.133.147-.175a5.461 5.461 0 0 0-.679-1.71v.006l-.005-.006-.118-.106c-.118-.109-.239-.216-.362-.319a9.585 9.585 0 0 0-1.16-.843c.021.336.034.673.037 1.009v.504c0 .168-.009.336-.017.5-.007.124-.014.247-.024.371v.039a13.652 13.652 0 0 1-.183 1.4l-.148.7a22.3 22.3 0 0 1-1.453 3.564c-.137.311-.267.626-.381.947l-.032.09c.136-.143.273-.284.413-.423l.348-.346" fill="#fbb041"/><path d="M11.525 27.4a10.251 10.251 0 0 1 2.272-.7c0-.179-.013-.358-.028-.536q.53-1.371.976-2.771a14.088 14.088 0 0 0-1.567.242c-.383.081-.761.184-1.136.3-.3.09-.6.2-.894.306l1.166.282-.938 2.946.149-.062" fill="#535453"/><path d="M25.945 18.672q-.308-.4-.621-.8l-.032-.042q-.335-.426-.678-.845t-.708-.841l-.046-.053q-.3-.341-.6-.673-.186-.2-.376-.4c-.1-.1-.2-.206-.3-.307s-.188-.193-.284-.287q-.307-.3-.627-.6c-.094-.086-.189-.171-.286-.254a12.842 12.842 0 0 1 .55 1.78q.045.237.075.462c.283 2.1-.391 3.477-1.462 5.284q-.117.2-.236.395a4.271 4.271 0 0 0-.492 1.158 3.275 3.275 0 0 0-.07.355 14.111 14.111 0 0 0 8.485-1.185s-.633-.931-1.586-2.211q-.32-.43-.644-.857l-.06-.078" fill="#df1668"/><path d="M11.264 27.99l1.05-3.472-1.166-.282c-.261.1-.52.2-.776.316l-1.04 3.438 1.161.018.771-.018" fill="#aa9678"/><path d="M12 26.488c.1.039.207.075.311.111a11.216 11.216 0 0 0 7.9-.181c.068-.028.135-.058.2-.087.11-.046.219-.095.327-.145s.194-.089.289-.137l-.069.01a4.712 4.712 0 0 1-1.193-.008c-2.309-.332-2.82-1.446-2.747-2.6a5.633 5.633 0 0 1-.507-.329 14.975 14.975 0 0 1-2.83-2.66 15 15 0 0 0 3.419 1.844l.128.048c.1-.331.209-.645.308-.924l.032-.09c.114-.321.244-.636.381-.947a22.3 22.3 0 0 0 1.451-3.564l.148-.7h-1.26v.011a1.506 1.506 0 0 1-1.664 1.5h-.036c-.04-.006-.079-.011-.117-.019l-.032-.008c-.039-.009-.078-.019-.116-.031l-.021-.008a1.038 1.038 0 0 1-.121-.046h-.011c-.042-.019-.084-.04-.125-.063a1.511 1.511 0 0 1-.35-.272l-4.326-1.056H6.647c-.021.036-.043.071-.063.107-.036.065-.07.132-.1.2-.116.219-.225.442-.327.667s-.185.426-.269.642l-.011.029a12.025 12.025 0 0 0-.514 1.734 11.245 11.245 0 0 0 4.08 5.588c.055.04.113.076.169.115a11.443 11.443 0 0 0 .992.622 11.049 11.049 0 0 0 1.4.657" fill="#fff"/><path d="M23.323 29.172c-.031-.3-.046-.6-.048-.9a.331.331 0 0 0-.331-.331H9.056a.332.332 0 0 0-.332.331 9.024 9.024 0 0 1-.047.9 9.2 9.2 0 0 1-.149.976c.2.106.4.21.61.308a9.857 9.857 0 0 0 .242-1.835V28.6h13.239v.021a9.857 9.857 0 0 0 .242 1.835c.205-.1.409-.2.61-.308a9.2 9.2 0 0 1-.149-.976" fill="#8c7561"/></svg>