<svg xmlns="http://www.w3.org/2000/svg" viewBox="0 0 32 32"><radialGradient cx="17.625" cy="9.625" r="27.8761" id="zencart-gradirnt" gradientTransform="matrix(0.9982 -0.0596 0.0425 0.7123 -0.3779 3.8191)" gradientUnits="userSpaceOnUse"><stop offset="0" stop-color="#FFFE00"/><stop offset="0.2728" stop-color="#FFB800"/><stop offset="1" stop-color="#FF0000"/></radialGradient><polygon fill="url(#zencart-gradirnt)" points="26.75,32 0,26.75 5.25,0 32,5.25 "/><path d="M2.37,2.37v27.26h27.26V2.37H2.37z M6.15,18.97c-0.8,0.55-1.65,0.27-2.02-0.64c-0.49-1.22-0.39-2.44,0.18-3.61 c0.81-1.65,2.13-2.84,3.68-3.79c1.96-1.2,4.06-1.95,6.22-1.97c1.47,0.01,2.74,0.2,3.87,0.9c0.27,0.17,0.61,0.38,0.66,0.77 c-0.07,0.29-0.58,0.36-0.89,0.38c-2.93,0.21-5.42,1.42-7.62,3.3c-1.23,1.05-2.22,2.3-3.07,3.66C6.91,18.37,6.53,18.71,6.15,18.97z M13.05,28.39c-0.17,0.72-0.78,0.96-1.34,0.49c-0.63-0.52-1.26-1.13-1.64-1.84c-2.05-3.82-1.86-7.61,0.57-11.19 c1.22-1.8,3.08-2.74,5.27-2.92c0.36-0.03,0.9-0.06,1.11,0.36c0.1,0.2-0.29,0.57-0.49,0.68c-2.36,1.24-3.4,3.41-4.08,5.81 c-0.69,2.44-0.16,4.82,0.52,7.18C13.1,27.42,13.15,27.94,13.05,28.39z M26.71,23.2c-0.67,1.49-1.7,2.6-3.39,2.92 c-0.57,0.11-1.15,0.2-1.72,0.3c-3.44-0.06-6-2.15-6.58-5.42c-0.28-1.55,0.45-3.34,1.63-4.02c0.86-0.49,1.44-0.26,1.64,0.71 c0.1,0.48,0.06,0.99,0.15,1.48c0.39,2.33,1.75,3.54,4.14,3.49c1.09-0.02,2.16-0.38,3.25-0.54c0.3-0.04,0.78-0.04,0.91,0.14 C26.88,22.46,26.84,22.92,26.71,23.2z M18.75,14.37c0.01-1.25,1.06-2.29,2.3-2.27c1.23,0.02,2.25,1.09,2.24,2.34 c-0.01,1.25-1.05,2.29-2.28,2.29C19.75,16.73,18.73,15.67,18.75,14.37z M26.22,18c-0.2,0.23-0.32,0.51-0.88,0.43 c-0.37-0.12-0.33-0.7-0.28-1.02c0.25-1.8,0.13-3.57-0.8-5.12c-0.6-1-1.46-1.92-2.38-2.65c-1.51-1.2-3.16-2.24-4.77-3.32 c-0.66-0.44-1-1.12-0.82-1.77c0.2-0.71,0.73-1.07,1.62-1.02c1.53,0.09,2.85,0.79,4.15,1.52c3.27,1.82,5.42,5.43,5.42,9.79 C27.47,15.58,27.19,16.92,26.22,18z"/></svg>