<svg xmlns="http://www.w3.org/2000/svg" viewBox="0 0 96 83"><polygon points="2.281 2.578 2.281 81.525 57 81.525 75.234 76.562 87.646 65.793 93.718 48.854 93.718 29.283 84.638 13.559 68.801 4.63 53.543 3.349 2.281 2.578" fill="#fff"/><path d="M3.9,3.9V79.1H49.544C77.107,79.1,92.1,66.246,92.1,41.4c0-25.529-16.253-37.5-42.557-37.5ZM49.544,0C89.965,0,96,25.943,96,41.4,96,68.228,79.5,83,49.544,83H0V0Z" fill="#0a0b09"/><polygon points="10.187 73.118 24.799 73.118 24.799 47.083 10.187 47.083 10.187 73.118" fill="#0a0b09"/><path d="M26.552,33.98a9.081,9.081,0,1,1-9.08-9.089,9.084,9.084,0,0,1,9.08,9.089" fill="#0a0b09"/><path d="M32.06,29.745V38.23h2.6c1.8,0,3.468-.522,3.468-4.309,0-3.7-1.853-4.176-3.468-4.176Zm43.406-4.22h4.208v12.7h6.237C84.2,15.177,66.082,10.2,49.618,10.2H32.064V25.534h2.6c4.737,0,7.681,3.215,7.681,8.387,0,5.336-2.873,8.521-7.681,8.521h-2.6V73.131H49.618c26.769,0,36.084-12.442,36.413-30.689H75.466Zm-11.728,9.44h3.045l-1.392-4.783h-.253ZM57.17,42.447l5.1-16.923h5.988l5.1,16.923H68.969l-.955-3.273H62.508l-.958,3.273ZM55.149,38.23v4.212H44.736V25.531H54.813v4.211H48.946V31.7h5.548v4.209H48.946V38.23Z" fill="#d50172"/></svg>