<svg xmlns="http://www.w3.org/2000/svg" viewBox="0 0 599.868 42.748"><path d="M20.675,19.724c2.1,3.909,5.805,9.87,8.413,11.793s5.446,3.321-.566.781-10.4-9.741-13.306-15.2c-2.24-4.19-4.163-8.013-8.34-10.847s.488-.845.488-.845c7.626,3.724,10.39,8.867,13.311,14.314m-8.017,12.3c8.317,6.476,16.21,3.734,19.816,3.357l6.489,6.449h2.392l-7.447-7.405C33.849,29.98,44.1,1.237,0,1.237,4.8,17.8,4.342,25.542,12.658,32.023" fill="#7bc049"/><path d="M52.229.708h29.4V3.542H55.3V19.779H78.971v2.833H55.3V39.2H81.923v2.832H52.229Z" fill="#231f20"/><path d="M94.145.708h2.893l28.513,35.951V.708H128.5V42.031h-2.3L97.1,5.314V42.031H94.145Z" fill="#231f20"/><path d="M139.6.708h3.426l16.178,38.021L175.439.708h3.247L160.5,42.326H157.79Z" fill="#231f20"/><rect x="190.199" y="0.708" width="3.072" height="41.323" fill="#231f20"/><path d="M225.326,22.139a17.088,17.088,0,0,0,4.816-.649,11.694,11.694,0,0,0,3.8-1.858,8.911,8.911,0,0,0,2.512-2.953,8.406,8.406,0,0,0,.915-3.984v-.119a7.939,7.939,0,0,0-3.1-6.615q-3.1-2.421-8.766-2.419H211.394v18.6Zm-17-21.431H225.68a19.591,19.591,0,0,1,6.794,1.09,13.275,13.275,0,0,1,4.838,2.985,10.663,10.663,0,0,1,2.3,3.45,10.924,10.924,0,0,1,.823,4.223v.12a11.207,11.207,0,0,1-.915,4.636,10.448,10.448,0,0,1-2.539,3.51,13.06,13.06,0,0,1-3.836,2.391,19.2,19.2,0,0,1-4.811,1.27l13.638,17.648h-3.9L224.917,24.912H211.394V42.031h-3.068Z" fill="#231f20"/><path d="M281.354,27.69,270.5,3.776,259.57,27.69ZM269.077.415h2.949l19.249,41.616h-3.366l-5.253-11.572H258.273l-5.257,11.572h-3.188Z" fill="#231f20"/><path d="M321.15,42.748a23.138,23.138,0,0,1-8.8-1.626,19.762,19.762,0,0,1-11.1-11.215,22.655,22.655,0,0,1-1.536-8.417v-.12a21.907,21.907,0,0,1,1.564-8.205A20.764,20.764,0,0,1,312.438,1.711,21.255,21.255,0,0,1,321.03,0a29.362,29.362,0,0,1,4.931.381,22.825,22.825,0,0,1,4.1,1.1,20.95,20.95,0,0,1,3.57,1.739,25.625,25.625,0,0,1,3.275,2.391l-4.6,5.492a27.384,27.384,0,0,0-2.429-1.831,14.882,14.882,0,0,0-2.594-1.388A15.847,15.847,0,0,0,324.306,7a18.223,18.223,0,0,0-3.57-.328,11.971,11.971,0,0,0-5.281,1.183,13.631,13.631,0,0,0-4.249,3.16,14.457,14.457,0,0,0-2.834,4.632,15.14,15.14,0,0,0-1.039,5.611v.115a17.078,17.078,0,0,0,1,5.9A13.247,13.247,0,0,0,315.62,35a14.214,14.214,0,0,0,5.76,1.123,17.352,17.352,0,0,0,5.519-.846A15.584,15.584,0,0,0,331.361,33V25.27h-10.57V18.951h17.6V36.31A32.158,32.158,0,0,1,335,38.793a26.005,26.005,0,0,1-4.012,2.061,25.94,25.94,0,0,1-9.833,1.894Z" fill="#231f20"/><path d="M375.232,25.625,368.084,9.094,361,25.625ZM364.837.415h6.734l18.178,41.616h-7.673l-4.194-9.971H358.343l-4.25,9.971h-7.434Z" fill="#231f20"/><path d="M399.2.708h7.258V35.427h21.729v6.6H399.2Z" fill="#231f20"/><path d="M438.1.708h7.267V35.427H467.1v6.6h-29Z" fill="#231f20"/><path d="M477.012.708h30.634V7.2H484.271V17.948H505v6.5H484.271V35.537h23.668v6.494H477.012Z" fill="#231f20"/><path d="M536.816,21.2a9.59,9.59,0,0,0,6.2-1.859,6.146,6.146,0,0,0,2.3-5.05v-.12a6.067,6.067,0,0,0-2.245-5.106,10.114,10.114,0,0,0-6.32-1.738H526.191V21.2ZM518.925.708h18.416a20.3,20.3,0,0,1,6.918,1.09,13.927,13.927,0,0,1,5.013,3.041,11.952,11.952,0,0,1,2.54,3.956,13.494,13.494,0,0,1,.892,4.963v.114a13.456,13.456,0,0,1-.746,4.577,11.9,11.9,0,0,1-2.032,3.6,12.2,12.2,0,0,1-3.1,2.658,15.366,15.366,0,0,1-3.983,1.68l11.149,15.642h-8.554l-10.157-14.4h-9.089v14.4h-7.266Z" fill="#231f20"/><path d="M576.134,25.739,559.723.708h8.564l11.573,18.3L591.542.708h8.326L583.457,25.565V42.031h-7.323Z" fill="#231f20"/></svg>
