<svg xmlns="http://www.w3.org/2000/svg" viewBox="0 0 93.186 19.923"><path d="M7.892,9.635a8.621,8.621,0,0,1,1.519.1,1.757,1.757,0,0,1,1.167,1.422,2.822,2.822,0,0,1-.1.82,26.215,26.215,0,0,1-1.674,3.249c-.537-.871-1.8-3.331-2.238-4.289a2.611,2.611,0,0,1-.286-.9C6.284,9.736,6.884,9.635,7.892,9.635Zm-7.163,0a1.667,1.667,0,0,1,1.29,1.032c1.549,2.843,3.1,5.977,4.609,9.06a1.047,1.047,0,0,0,.733.2,1.067,1.067,0,0,0,.728-.195c.719-1.357,2.616-5,3.434-6.413.952,1.748,2.591,4.938,3.256,6.413a1.026,1.026,0,0,0,.723.195,1.029,1.029,0,0,0,.725-.195q2.008-4.394,4.233-8.684c.506-1.006.725-1.276,1.768-1.47L22.67,9.5c.252-.253.187-.846-.093-.96-.7.055-1.515.083-2.436.083-.788,0-1.54-.028-2.586-.083-.316.114-.316.765-.123.96l.532.1c.543.111.791.248.791.387a3.459,3.459,0,0,1-.292,1.058c-.5,1.263-.994,2.6-1.761,4.183-.692-1.314-1.574-3.084-2.146-4.4a2.263,2.263,0,0,1-.25-.845c0-.139.437-.276,1.168-.412l.47-.078c.228-.111.252-.927-.094-.96q-2.793.082-5.588.083H3.885c-1.326,0-2.334-.028-3.628-.083-.323.137-.323.737-.1.96Z"/><path d="M27.1,9.46a1.47,1.47,0,0,1,1.673,1.5c0,.274-.063.55-.22.628a2.873,2.873,0,0,1-1.3.243H26.09c-1.016,0-1.452-.02-1.452-.407A2.448,2.448,0,0,1,27.1,9.459Zm-.033,10.426A6.2,6.2,0,0,0,32.6,16.774a.7.7,0,0,0-.822-.634,3.269,3.269,0,0,1-2.938,1.42c-2.934,0-4.454-1.989-4.454-4.036,0-.436.066-.49.794-.49H31.23c.986,0,1.14-.382,1.14-.9,0-2.105-1.77-3.933-5.054-3.933-3.94,0-6.814,2.677-6.814,6.118C20.5,17.294,22.807,19.886,27.068,19.886ZM40.435,9.635a8.636,8.636,0,0,1,1.522.1,1.758,1.758,0,0,1,1.168,1.422,2.879,2.879,0,0,1-.094.82,27.957,27.957,0,0,1-1.673,3.249c-.543-.871-1.8-3.331-2.242-4.289a2.7,2.7,0,0,1-.285-.9C38.831,9.736,39.427,9.635,40.435,9.635Zm-7.162,0a1.668,1.668,0,0,1,1.294,1.032c1.544,2.843,3.1,5.977,4.61,9.06a1.446,1.446,0,0,0,1.452,0c.73-1.357,2.62-5,3.443-6.413.95,1.748,2.584,4.938,3.249,6.413a1.449,1.449,0,0,0,1.452,0q2.011-4.394,4.235-8.684c.5-1.006.723-1.276,1.764-1.47l.446-.078c.249-.253.183-.846-.1-.96-.7.055-1.514.083-2.434.083q-1.293-.006-2.586-.083c-.32.114-.32.765-.126.96l.536.1c.538.111.788.248.788.387a3.653,3.653,0,0,1-.281,1.058c-.507,1.263-1.013,2.6-1.773,4.183-.692-1.314-1.574-3.084-2.142-4.4a2.186,2.186,0,0,1-.255-.845c0-.139.439-.276,1.17-.412l.47-.078c.222-.111.255-.927-.094-.96-2.018.055-3.6.083-5.588.083H36.428q-1.815,0-3.628-.083c-.313.137-.313.737-.093.96Z"/><path d="M60.3,9.46c1.793,0,2.678,2.288,2.713,4.94.027,2.458-.576,4.231-2.377,4.231-1.823,0-2.87-2.106-2.87-4.968,0-2.972,1.143-4.2,2.534-4.2Zm0,10.426c3.878,0,7.259-1.882,7.259-5.873,0-3.848-3.352-5.812-7.074-5.812s-7.3,2.155-7.265,6.062C53.259,18.027,56.538,19.886,60.3,19.886Z"/><path d="M72.94,10.514c.2,0,.475.03,1.2.546a1.88,1.88,0,0,0,1.23.494,1.8,1.8,0,0,0,2.023-1.775,1.651,1.651,0,0,0-1.743-1.61c-1.321,0-2.233.9-3.091,1.362-.25-.05-.316-.133-.316-.326,0-.244.065-.623.123-1.174a.672.672,0,0,0-.56-.249,23.345,23.345,0,0,1-4.617,1.646.588.588,0,0,0,0,.817l.45.246c.6.328.6.654.6,1.748v4.12c0,1.91-.127,2.155-1.17,2.241l-.6.05a.67.67,0,0,0,.033.96q1.863-.09,3.727-.084c1.48,0,2.746.024,4.263.083a.67.67,0,0,0,.029-.959l-1.01-.076c-1.042-.087-1.17-.306-1.17-2.215v-4.2c0-1.036.16-1.642.606-1.642"/><path d="M85.328,18.56l-.409.085a.634.634,0,0,0,.123.95c.884-.054,2.017-.08,3.888-.08,1.83,0,3,.026,3.972.08a.636.636,0,0,0,.125-.95l-.469-.086a3.988,3.988,0,0,1-1.86-.625,43.964,43.964,0,0,1-4.133-5.215.97.97,0,0,1-.23-.465.54.54,0,0,1,.188-.356,18.7,18.7,0,0,1,2.121-1.585,5.689,5.689,0,0,1,2.117-.952l1.006-.192a.662.662,0,0,0-.128-.955,53.166,53.166,0,0,1-5.966.382h-.754c-.315.114-.35.71-.066.955l.792.114c.281.022.6.13.6.27,0,.164-.152.462-.756,1.086l-1.322,1.346a2.5,2.5,0,0,1-1.834.762c-.343,0-.445-.082-.445-.383V4.177c0-1.722.04-2.87.1-3.987a.741.741,0,0,0-.54-.19,39.234,39.234,0,0,1-4.828,1.523.579.579,0,0,0,0,.816l.536.28c.629.329.629.628.629,1.726v12c0,1.91-.127,2.129-1.268,2.242l-.6.054a.668.668,0,0,0,.032.95q1.926-.085,3.854-.08c1.454,0,2.778.026,3.793.08a.668.668,0,0,0,.03-.95l-.5-.054c-1.11-.113-1.238-.333-1.238-2.242v-1.58c0-.523.16-.656.378-.656a.933.933,0,0,1,.8.4L85.3,17.47a3.1,3.1,0,0,1,.535.878c0,.1-.186.152-.5.211"/></svg>