<svg xmlns="http://www.w3.org/2000/svg" viewBox="0 0 1805.4 247"><path d="M38.1,104.5v95a9.56,9.56,0,0,0,9.5,9.5h95V180.5h-9.5v.5a9.54,9.54,0,0,1-9.5,9H57.1V123.5a9.56,9.56,0,0,1,9.5-9.5v-9.5Z" fill="#ff9800"/><path d="M237.6,0h-133L2,102.5a6.73,6.73,0,0,0-2,4.8H0A6.7,6.7,0,0,0,6.7,114H133V240.3a6.7,6.7,0,0,0,6.7,6.7h0a6.73,6.73,0,0,0,4.8-2L247.1,142.5V9.5A9.56,9.56,0,0,0,237.6,0ZM38.1,95l76-76h114V133l-76,76V104.5a9.56,9.56,0,0,0-9.5-9.5Z" fill="#0d1c4e"/><path d="M323.8,164.4l5.8-9.9a3.71,3.71,0,0,1,5.4-1.1c.8.5,13.8,9.9,24.2,9.9,8.3,0,14.6-5.4,14.6-12.3,0-8.2-6.9-13.8-20.3-19.2-15.1-6.1-30.1-15.7-30.1-34.6,0-14.3,10.6-30.8,36-30.8,16.3,0,28.8,8.3,32,10.7a4,4,0,0,1,1,5.3l-6.1,9.1c-1.3,1.9-3.7,3.2-5.6,1.9-1.3-.8-13.5-8.8-22.3-8.8-9.1,0-14.1,6.1-14.1,11.2,0,7.5,5.9,12.7,18.9,17.9,15.5,6.2,33.5,15.5,33.5,36.2,0,16.5-14.3,31.7-36.9,31.7-20.2,0-32-9.5-35.2-12.5C323.2,167.7,322.4,166.9,323.8,164.4Z" fill="#0d1c4e"/><path d="M415.6,71a3,3,0,0,1,3-3h65.2a3,3,0,0,1,3,3V84.1a3,3,0,0,1-3,3H436.4v26.3H476a3.08,3.08,0,0,1,3,3v13.3a3,3,0,0,1-3,3H436.4v28h47.4a3,3,0,0,1,3,3v13.1a3,3,0,0,1-3,3H418.6a3,3,0,0,1-3-3Z" fill="#0d1c4e"/><path d="M557.7,66.3a57.65,57.65,0,1,1-57.5,57.8A57.62,57.62,0,0,1,557.7,66.3Zm0,94.5a36.87,36.87,0,0,0,36.8-36.7c0-20.2-16.7-37-36.8-37s-36.7,16.8-36.7,37A36.92,36.92,0,0,0,557.7,160.8Z" fill="#0d1c4e"/><path d="M683.7,87.1H659.2a3,3,0,0,1-3-3V71a3,3,0,0,1,3-3h70a3,3,0,0,1,3,3V84.1a3,3,0,0,1-3,3H704.7V177a3.08,3.08,0,0,1-3,3H686.8a3.08,3.08,0,0,1-3-3l-.1-89.9Z" fill="#0d1c4e"/><path d="M747.3,71a3,3,0,0,1,3-3h65.2a3,3,0,0,1,3,3V84.1a3,3,0,0,1-3,3H768.1v26.3h39.6a3.08,3.08,0,0,1,3,3v13.3a3,3,0,0,1-3,3H768.1v28h47.4a3,3,0,0,1,3,3v13.1a3,3,0,0,1-3,3H750.3a3,3,0,0,1-3-3Z" fill="#0d1c4e"/><path d="M833.3,164.4l5.8-9.9a3.71,3.71,0,0,1,5.4-1.1c.8.5,13.8,9.9,24.2,9.9,8.3,0,14.6-5.4,14.6-12.3,0-8.2-6.9-13.8-20.3-19.2-15.1-6.1-30.1-15.7-30.1-34.6,0-14.3,10.6-30.8,36-30.8,16.3,0,28.8,8.3,32,10.7a4,4,0,0,1,1,5.3l-6.1,9.1c-1.3,1.9-3.7,3.2-5.6,1.9-1.3-.8-13.5-8.8-22.3-8.8-9.1,0-14.1,6.1-14.1,11.2,0,7.5,5.9,12.7,18.9,17.9,15.5,6.2,33.5,15.5,33.5,36.2,0,16.5-14.3,31.7-36.9,31.7-20.2,0-32-9.5-35.2-12.5C832.7,167.7,831.9,166.9,833.3,164.4Z" fill="#0d1c4e"/><path d="M940.2,87.1H915.7a3,3,0,0,1-3-3V71a3,3,0,0,1,3-3h70a3,3,0,0,1,3,3V84.1a3,3,0,0,1-3,3H961.2V177a3.08,3.08,0,0,1-3,3H943.3a3.08,3.08,0,0,1-3-3l-.1-89.9Z" fill="#0d1c4e"/><path d="M1003.8,71a3,3,0,0,1,3-3H1072a3,3,0,0,1,3,3V84.1a3,3,0,0,1-3,3h-47.4v26.3h39.6a3.08,3.08,0,0,1,3,3v13.3a3,3,0,0,1-3,3h-39.6v28H1072a3,3,0,0,1,3,3v13.1a3,3,0,0,1-3,3h-65.2a3,3,0,0,1-3-3Z" fill="#0d1c4e"/><path d="M1096.4,71a3,3,0,0,1,3-3h45.8c19.2,0,34.9,15.4,34.9,34.4,0,14.7-9.8,26.8-23.7,32.4l22,40.7a3,3,0,0,1-2.7,4.6h-16.8a3,3,0,0,1-2.6-1.4L1135,136.2h-17.8v40.9a3.08,3.08,0,0,1-3,3h-14.7a3,3,0,0,1-3-3V71Zm47.1,48c8.5,0,15.9-7.4,15.9-16.3,0-8.5-7.4-15.5-15.9-15.5h-26.1v31.9l26.1-.1Z" fill="#0d1c4e"/><path d="M1284.8,66.3a57.65,57.65,0,1,1-57.5,57.8A57.62,57.62,0,0,1,1284.8,66.3Zm0,94.5a36.87,36.87,0,0,0,36.8-36.7c0-20.2-16.7-37-36.8-37s-36.7,16.8-36.7,37A36.79,36.79,0,0,0,1284.8,160.8Z" fill="#0d1c4e"/><path d="M1361.8,69.2a3,3,0,0,1,3-2.9h4l66.7,70.8h.2V70.9a3,3,0,0,1,3-3h14.7a3.08,3.08,0,0,1,3,3V178.7a3,3,0,0,1-3,2.9h-3.8l-67-73.5h-.2V177a3,3,0,0,1-3,3h-14.6a3.08,3.08,0,0,1-3-3V69.2Z" fill="#0d1c4e"/><path d="M1484.1,71a3,3,0,0,1,3-3h14.7a3.08,3.08,0,0,1,3,3v89.9h40.9a3,3,0,0,1,3,3V177a3,3,0,0,1-3,3h-58.6a3,3,0,0,1-3-3Z" fill="#0d1c4e"/><path d="M1563.4,71a3.08,3.08,0,0,1,3-3h14.9a3.08,3.08,0,0,1,3,3V177.1a3.08,3.08,0,0,1-3,3h-14.9a3.08,3.08,0,0,1-3-3Z" fill="#0d1c4e"/><path d="M1611.9,69.2a3,3,0,0,1,3-2.9h4l66.7,70.8h.2V70.9a3,3,0,0,1,3-3h14.7a3.08,3.08,0,0,1,3,3V178.7a3,3,0,0,1-3,2.9h-3.8l-67-73.5h-.2V177a3,3,0,0,1-3,3h-14.6a3.08,3.08,0,0,1-3-3V69.2Z" fill="#0d1c4e"/><path d="M1734.2,71a3,3,0,0,1,3-3h65.2a3,3,0,0,1,3,3V84.1a3,3,0,0,1-3,3H1755v26.3h39.6a3.08,3.08,0,0,1,3,3v13.3a3,3,0,0,1-3,3H1755v28h47.4a3,3,0,0,1,3,3v13.1a3,3,0,0,1-3,3h-65.2a3,3,0,0,1-3-3Z" fill="#0d1c4e"/></svg>