<svg xmlns="http://www.w3.org/2000/svg" viewBox="0 0 382.399 83.631"><path d="M156.337,36.573c0,17.46-8.244,28.125-20.931,28.125-3.8,0-8.565-1.215-11.558-5.979-2.665,3.714-6.787,5.979-12.687,5.979-6.387,0-15.516-2.986-15.516-18.5V36.174c0-3.958-3.315-5.172-3.315-7.358v-.322a2.167,2.167,0,0,1,2.022-2.022l13.415-1.778c2.665-.322,4.279.243,4.279,2.672l-.321,25.7c-.079,3.479,1.214,5.736,3.236,5.736,4.522,0,6.058-9.207,6.058-15.351V36.174c0-3.958-3.315-5.172-3.315-7.358v-.322a2.167,2.167,0,0,1,2.022-2.022l12.287-1.778c2.664-.4,4.279.243,4.279,2.672l-.322,25.3c-.078,3.878.886,6.135,3.315,6.135,5.329,0,9.294-9.207,9.294-14.544,0-6.543-8.244-6.144-8.244-13.737,0-3.558,2.586-6.222,6.865-6.222C152.7,24.294,156.337,27.852,156.337,36.573Z" fill="#12224d"/><path d="M201.6,43.846c0,12.93-9.215,20.852-19.16,20.852a14.086,14.086,0,0,1-7.272-1.693V70.92c0,3.958,3.723,5.172,3.723,7.68v.321c0,1.05-.808,1.7-2.022,1.7H157.879c-1.214,0-2.021-.651-2.021-1.7V78.6c0-2.508,3.307-3.722,3.307-7.68V40.452c0-3.714-2.044-5.169-2.044-7.677V32.3c0-1.05.807-1.865,2.014-2.507l9.9-4.932c2.665-1.293,3.715,0,3.715,1.7v1.614c1.935-2.508,5.336-3.879,9.693-3.879C191.333,24.294,201.6,30.273,201.6,43.846Zm-16,8.165c0-7.593-1.457-23.438-6.95-23.438-2.265,0-3.48,2.108-3.48,5.336v15.03c0,7.272,2.915,11.48,5.9,11.48C184.217,60.419,185.6,57.591,185.6,52.011Z" fill="#12224d"/><path d="M250.385,43.767c0,12.93-9.216,20.931-19.152,20.931-3.965,0-6.873-1.05-9.137-3.072,0,1.7-.721,2.265-2.344,2.265H206.18c-1.215,0-2.022-.643-2.022-1.7v-.321c0-2.507,3.315-3.714,3.315-7.679v-34.5c0-3.957-4.2-4.764-4.2-7.272v-.321c0-1.05.478-1.622,2.421-2.508L219.752,3.12c2.187-1.05,4.209-.486,4.209,2.022V26.073a13.43,13.43,0,0,1,7.272-1.779C240.119,24.294,250.385,30.351,250.385,43.767Zm-16,8.244c0-7.593-1.458-23.438-6.951-23.438-2.265,0-3.471,2.108-3.471,6.386v16.41c0,4.6,2.907,9.05,5.893,9.05C233.012,60.419,234.383,57.591,234.383,52.011Z" fill="#12224d"/><path d="M295.727,61.47c0,2.343-3.558,2.907-9.216,2.907-5.25,0-7.515-1.129-8.079-4.2-2.022,2.907-5.658,4.521-11.073,4.521-7.914,0-15.108-5.493-15.108-15.273V36.174c0-3.958-3.315-5.172-3.315-7.358v-.322a2.167,2.167,0,0,1,2.022-2.022l13.416-1.778c2.664-.322,4.278.243,4.278,1.865l-.321,24.567c-.078,5.893,1.215,7.671,4.043,7.671,2.265,0,4.036-2.742,4.036-6.95V36.174c0-3.958-3.307-5.172-3.307-7.358v-.322a2.166,2.166,0,0,1,2.014-2.022l13.416-1.778c2.672-.322,3.965.243,3.965,1.865V54.433C292.5,61.227,295.727,57.912,295.727,61.47Z" fill="#12224d"/><path d="M315.994,25.1h15.837a2,2,0,0,1,2.022,2.022v2.022a2,2,0,0,1-2.022,2.014H316.48V54.19c0,3.965,4.529,5.172,4.529,7.679v.321c0,1.058-.815,1.7-2.021,1.7H299.506c-1.206,0-2.013-.643-2.013-1.7v-.321c0-2.507,3.314-3.714,3.314-7.679V31.159h-4.35a1.993,1.993,0,0,1-2.013-2.014V27.123a2,2,0,0,1,2.013-2.022h4.35V21.873c0-9.294,5.086-16.974,17.616-16.974C326.017,4.9,332,9.993,332,15.807a5.527,5.527,0,0,1-5.9,5.415c-10.1,0-5.736-12.044-11.073-12.044C308.965,9.178,313.737,22.758,315.994,25.1Z" fill="#12224d"/><path d="M326.168,25.1V21.873c0-9.294,5.093-16.974,17.624-16.974,7.593,0,13.572,5.094,13.572,10.908a5.527,5.527,0,0,1-5.9,5.415c-10.1,0-5.736-12.044-11.065-12.044-6.065,0-1.3,13.58.964,15.923h4.713a2,2,0,0,1,2.014,2.022v2.022a1.994,1.994,0,0,1-2.014,2.014h-4.227V54.19c0,3.965,4.53,5.172,4.53,7.679v.321c0,1.058-.808,1.7-2.022,1.7H324.882c-1.214,0-2.021-.643-2.021-1.7v-.321c0-2.507,3.307-3.714,3.307-7.679V31.159" fill="#12224d"/><path d="M346.36,55.083c0-4.044,2.821-5.736,6.379-5.736,8.972,0,6.143,11.394,11.723,11.394,1.692,0,3.15-.894,3.15-3.722,0-10.5-20.61-4.687-20.61-20.116,0-7.437,7.116-12.609,17.538-12.609,10.344,0,17.373,4.2,17.373,9.78,0,3.072-2.75,5.493-6.144,5.493-8.643,0-5.979-11.237-10.343-11.237-1.936,0-2.586,2.021-2.586,3.965,0,11.151,19.559,5.814,19.559,20.2,0,6.865-6.387,12.123-17.937,12.123C354.439,64.62,346.36,61.227,346.36,55.083Z" fill="#12224d"/><path d="M86.6,27.714A27.747,27.747,0,0,0,58.883,0H0V44.639H0v6.354a33.884,33.884,0,0,0,.282,4.49,32.423,32.423,0,0,0,28.306,27.94l.8.1h.317c.894.075,1.8.112,2.7.112s1.807-.037,2.7-.112H58.883a27.642,27.642,0,0,0,23.876-41.7A27.547,27.547,0,0,0,86.6,27.714ZM73.089,55.805a14.2,14.2,0,0,1-14.206,14.2H34.469a18.843,18.843,0,0,1-4.121,0H30.2A19.029,19.029,0,0,1,16.054,60.7a18.822,18.822,0,0,1-1.842-4.373,18.872,18.872,0,0,1-.534-2.61,20.59,20.59,0,0,1-.166-2.719H28.823a18.837,18.837,0,0,1-12.744-9.041L15.99,41.8q-.376-.66-.7-1.349a18.912,18.912,0,0,1-1.584-5.317,19.955,19.955,0,0,1-.2-2.848H29.02a18.972,18.972,0,0,1-12.978-9.135c-.055-.1-.11-.192-.163-.288q-.236-.425-.449-.86t-.4-.881q-.19-.445-.357-.9t-.31-.917c-.095-.309-.183-.62-.262-.933s-.151-.628-.215-.944-.119-.636-.166-.956-.086-.642-.117-.965-.054-.647-.068-.971c-.015-.341-.02-.681-.02-1.022H58.883a14.2,14.2,0,0,1,2.093,28.25A14.262,14.262,0,0,1,73.089,55.805Z" fill="#12224d"/></svg>
