<svg xmlns="http://www.w3.org/2000/svg" viewBox="0 0 31.9 21.8"><path d="M26.9,26.8v-10c0-2.1-.9-3.2-2.6-3.2s-2.6,1.1-2.6,3.2v10H16.6v-10c0-2.1-.8-3.2-2.6-3.2s-2.6,1.1-2.6,3.2v10H6.3V16.2a6,6,0,0,1,2.3-5A8.87,8.87,0,0,1,14,9.7q3.45,0,5.1,1.8,1.35-1.8,5.1-1.8a8.67,8.67,0,0,1,5.4,1.5,5.87,5.87,0,0,1,2.3,5V26.8Z" transform="translate(0 -5)" fill="#f16922"/><path d="M17.8,10.5a4.37,4.37,0,0,0-2.3-1.4C9.7,7.4,5.4,7.4,6.3,14.6h0c0,.1.1.2.1.4a9.43,9.43,0,0,0,11.7-4.3C18,10.6,17.9,10.5,17.8,10.5Z" transform="translate(0 -5)" fill="#3a3c3f"/><path d="M0,11.4C7.8,6.7,11.9,5.9,21,5c-3.9,3.1-8.2,6-8.2,6s-6.3.6-12.8.6" transform="translate(0 -5)" fill="#58595b"/><polygon points="13.01 6.4 12.71 6 21 0 21.3 0.4 13.01 6.4" fill="#4a4a4c"/><rect y="11.2" width="12.8" height="0.5" transform="translate(-0.35 -4.79) rotate(-1.79)" fill="#a8abad"/><path d="M8.7,9.2c.7-.2,1.3-.3,1.8-.5l-.1-.5a14.58,14.58,0,0,1-1.7.4C3.4,9.9.8,10.7.7,11.5a29.91,29.91,0,0,0,0,4.4H.8c-1,2.6-.1,4.7.7,6.6,0-2.3.2-4.2-.5-6.6h.2a28.46,28.46,0,0,1,0-4.3C1.4,11,6.5,9.7,8.7,9.2Z" transform="translate(0 -5)" fill="#f16922"/><ellipse cx="10.29" cy="8.5" rx="0.6" ry="0.3" transform="translate(-2.25 -1.05) rotate(-19.61)" fill="#3a3c3f"/></svg>