<svg xmlns="http://www.w3.org/2000/svg" viewBox="0 0 32 24.5"><path d="M26.5,3.7a5.4,5.4,0,0,0-5.2,4.2A5.3,5.3,0,0,0,16,3.7a5.3,5.3,0,0,0-5.3,4.2A5.4,5.4,0,0,0,5.5,3.7,5.2,5.2,0,0,0,0,8.7,8.8,8.8,0,0,0,.7,12L4.8,23.8c1.4,3.9,4.3,4.5,5.8,4.5A5.7,5.7,0,0,0,16,24.8a5.7,5.7,0,0,0,5.4,3.5c1.5,0,4.4-.6,5.8-4.5L31.4,12h0c0-.2.1-.3.1-.5A7.1,7.1,0,0,0,32,9.1,5.3,5.3,0,0,0,26.5,3.7Zm2,7.3L24.3,22.8c-.5,1.4-1.3,2.5-2.9,2.5A3,3,0,0,1,18.5,23L16,15.1h0L13.5,23a2.9,2.9,0,0,1-2.9,2.2c-1.6,0-2.4-1-2.9-2.4L3.5,11A8,8,0,0,1,3,8.7c0-1.1,1-2,2.5-2a2.3,2.3,0,0,1,2.3,2L10.6,18h.1l2.8-9.1c.4-1.3,1.1-2.2,2.5-2.2s2.1.9,2.5,2.2L21.3,18h.1l2.8-9.3a2.3,2.3,0,0,1,2.3-2A2.3,2.3,0,0,1,29,9.1a9,9,0,0,1-.5,1.9Z" transform="translate(0 -3.7)" fill="#488ecc"/></svg>