<svg id="3531f8cc-fb7f-406c-a2a2-f323c9b7dc55" data-name="Layer 1" xmlns="http://www.w3.org/2000/svg" viewBox="0 0 128 128"><defs><linearGradient id="e71ffb99-9706-4585-8bd5-773767b86143" x1="-659.44" y1="1030.13" x2="-658.17" y2="1030.13" gradientTransform="translate(100384.3 64229.3) rotate(90) scale(97.4)" gradientUnits="userSpaceOnUse"><stop offset="0" stop-color="#ff1b2d"/><stop offset="0.3" stop-color="#ff1b2d"/><stop offset="0.61" stop-color="#ff1b2d"/><stop offset="1" stop-color="#a70014"/></linearGradient><linearGradient id="ab9d80cb-386b-4311-93b2-cd877e4e3b26" x1="-658.3" y1="1029.15" x2="-657.03" y2="1029.15" gradientTransform="translate(88739 56717.3) rotate(90) scale(86.14)" gradientUnits="userSpaceOnUse"><stop offset="0" stop-color="#9c0000"/><stop offset="0.7" stop-color="#ff4b4b"/><stop offset="1" stop-color="#ff4b4b"/></linearGradient></defs><path d="M64.1,0A64,64,0,0,0,0,64H0a64,64,0,0,0,61,63.9h3.1a63.7,63.7,0,0,0,42.7-16.3h0a46.1,46.1,0,0,1-25.6,7.9h0c-15.3,0-28.9-7.5-38.1-19.5h0c-7.1-8.3-11.7-20.6-12-34.5h0V62.5h0c.3-13.9,4.8-26.2,12-34.5h0c9.1-12,22.7-19.5,38-19.5h0a45,45,0,0,1,25.6,7.9h0A62.5,62.5,0,0,0,64.3,0h-.2Z" fill="url(#e71ffb99-9706-4585-8bd5-773767b86143)"/><path d="M42.9,27.9C48.8,21,56.4,16.8,64.7,16.8h0c18.6,0,33.8,21.1,33.8,47.1h0C98.5,90,83.3,111,64.7,111h0c-8.3,0-15.9-4.2-21.8-11.1h0c9.2,12,22.8,19.5,38.1,19.5h0a45,45,0,0,0,25.6-7.9h0A63.4,63.4,0,0,0,128,63.8h0A64.1,64.1,0,0,0,106.6,16h0A46.1,46.1,0,0,0,81,8.1h0c-15.2.3-28.8,7.8-38.1,19.8" fill="url(#ab9d80cb-386b-4311-93b2-cd877e4e3b26)"/></svg>