<svg xmlns="http://www.w3.org/2000/svg" x="0px" y="0px" viewBox="0 0 640 480" style="enable-background:new 0 0 640 480" xml:space="preserve"><g><path d="M219.21,231.17c0-9.36,0-18.26,0-27.32c2.57,0,4.81,0,7.18,0c0.05,0.75,0.13,1.36,0.13,1.98c0,14.12,0.14,28.25-0.05,42.37
    c-0.13,9.27-3.93,16.82-12.24,21.45c-13.9,7.74-31.16-0.57-34.26-16.35c-2.51-12.79,3.9-24.82,15.51-28.66
    c8.31-2.75,15.79-1.14,22.13,5.07C218,230.08,218.4,230.43,219.21,231.17z M186.9,247.9c0.22,1.56,0.28,3.17,0.69,4.68
    c1.68,6.25,5.33,10.79,11.75,12.54c5.74,1.56,10.68-0.29,14.68-4.47c6.15-6.42,6.7-16.71,1.36-23.82
    c-2.9-3.86-6.72-6.27-11.66-6.44C194.38,230.06,187.06,237.78,186.9,247.9z"/><path d="M337.72,203.84c2.27,0,4.46,0,6.83,0c0,9,0,17.85,0,27.07c0.64-0.42,1.05-0.58,1.33-0.88c9.88-10.65,27.16-7.9,34.74,4.25
    c7.51,12.04,3.46,28.78-8.65,35.43c-14.76,8.1-33.64-1.95-34.35-18.86c-0.65-15.43-0.14-30.92-0.14-46.38
    C337.48,204.33,337.58,204.18,337.72,203.84z M344.78,247.88c0.27,1.72,0.35,3.49,0.84,5.14c1.79,6.02,5.47,10.38,11.67,12.09
    c5.54,1.53,10.37-0.17,14.34-4.14c6.11-6.12,6.93-16.51,1.93-23.67c-2.88-4.12-6.75-6.69-11.89-6.91
    C352.4,230,344.92,237.84,344.78,247.88z"/><path d="M437.15,242.68c-11.83,5.01-23.71,10.04-35.87,15.18c2.78,4.37,6.62,6.8,11.46,7.38c6.55,0.78,12.04-1.19,15.88-6.91
    c0.43-0.64,1.46-1.15,2.26-1.22c1.96-0.17,3.94-0.06,6.28-0.06c-2.52,6.73-6.57,11.62-13.11,13.87c-9.23,3.17-17.99,2.1-25.29-4.73
    c-7.45-6.97-9.55-15.76-6.67-25.47c2.78-9.39,9.18-15.22,18.88-17.05C422.79,221.46,435.34,230.56,437.15,242.68z M427.91,239.03
    c-3.8-7.38-12.17-10.43-19.29-7.21c-7.32,3.31-12.01,12.67-9.49,19.34C408.73,247.12,418.31,243.08,427.91,239.03z"/><path d="M74.33,247.61c-0.01,10.9-5.78,19.77-14.88,23.39c-8.86,3.53-19.13,1.33-25.54-5.77c-6.61-7.32-8.32-15.94-5.3-25.24
    c2.9-8.92,9.1-14.51,18.44-16.28c13.15-2.49,26.22,7.92,27.17,21.58C74.29,246.24,74.31,247.19,74.33,247.61z M66.83,247.83
    c-0.27-9.31-6.92-16.85-15.18-17.19c-8.06-0.33-15.18,5.93-16.47,14.48c-1.36,9.04,3.82,17.63,11.89,19.72
    C57.26,267.48,67.15,258.96,66.83,247.83z"/><path d="M279.48,238.88c-2.53,0-4.81,0.08-7.08-0.05c-0.56-0.03-1.24-0.64-1.6-1.16c-4-5.79-9.46-8.06-16.3-6.63
    c-6.15,1.28-11.22,7.12-12.28,13.74c-1.54,9.64,3.83,18.36,12.68,20.19c6.23,1.29,11.52-0.64,15.24-5.86
    c1.19-1.67,2.37-2.25,4.28-2.08c1.57,0.14,3.15,0.03,4.74,0.03c-0.72,7.93-10.89,15.35-20.95,15.43
    c-11.98,0.1-22.3-9.03-23.59-20.87c-1.45-13.33,6.31-25.08,18.27-27.68C264.46,221.42,275.9,227.69,279.48,238.88z"/><path d="M139.74,271.28c-2.54,0-4.81,0-7.27,0c-0.07-0.57-0.21-1.17-0.21-1.77c-0.01-9.04-0.07-18.08,0.01-27.12
    c0.08-8.48,4.67-15.04,12.24-17.78c7.87-2.85,16.88-0.8,22.07,5.06c2.95,3.34,4.5,7.32,4.55,11.73c0.12,9.67,0.05,19.35,0.05,29.02
    c0,0.22-0.11,0.45-0.21,0.83c-2.25,0-4.51,0-7.09,0c-0.04-0.78-0.11-1.61-0.11-2.44c-0.01-8.72,0.05-17.44-0.02-26.17
    c-0.06-7.94-5.94-13.1-13.68-12.14c-6.05,0.75-10.19,5.24-10.27,11.45c-0.11,8.88-0.05,17.76-0.06,26.64
    C139.74,269.44,139.74,270.29,139.74,271.28z"/><path d="M83.04,224.81c2.34,0,4.67,0,7.27,0c0,0.97,0,1.82,0,2.67c0,8.49-0.05,16.98,0.02,25.47c0.07,8.64,6.8,13.87,15.23,11.91
    c5.32-1.23,8.72-5.72,8.77-11.8c0.06-8.01,0.02-16.03,0.02-24.04c0-1.33,0-2.67,0-4.17c2.56,0,4.89,0,7.31,0
    c0.08,0.32,0.21,0.62,0.21,0.91c0.01,9.44,0.21,18.89-0.06,28.32c-0.32,10.97-8.27,18.37-19.27,18.41
    c-11.16,0.04-19.28-7.29-19.64-18.32c-0.31-9.51-0.07-19.04-0.06-28.56C82.83,225.38,82.94,225.16,83.04,224.81z"/><path d="M288.82,224.78c2.54,0,4.73,0,7.36,0c0,0.94,0,1.85,0,2.76c0,8.33-0.05,16.66,0.01,24.99c0.07,9.03,6.73,14.33,15.34,12.32
    c5.2-1.22,8.64-5.67,8.7-11.61c0.09-8.49,0.03-16.98,0.03-25.47c0-0.93,0-1.86,0-2.95c2.59,0,4.92,0,7.41,0
    c0.05,0.81,0.13,1.5,0.13,2.2c0.01,8.81,0.04,17.61,0,26.42c-0.06,11.01-8.1,18.95-19.2,19.04c-11.44,0.09-19.6-7.5-19.75-18.64
    C288.71,244.25,288.82,234.66,288.82,224.78z"/><path d="M7.53,271.32c-2.66,0-4.93,0-7.35,0c-0.06-0.7-0.16-1.3-0.16-1.91c-0.01-8.71-0.06-17.43,0-26.14
    c0.09-12.93,9.51-21.31,22.11-19.53c0,2.19,0,4.42,0,6.76c-1.08,0.05-2.09,0.08-3.1,0.15c-7.08,0.49-11.39,4.91-11.47,12
    c-0.09,8.63-0.03,17.27-0.04,25.9C7.53,269.41,7.53,270.26,7.53,271.32z"/></g><g><polygon fill="#37BEFF" fill-rule="evenodd" clip-rule="evenodd" points="640,274.91 557.14,227.05 557.14,175.97 640,223.83   "/><polygon fill="#404F54" fill-rule="evenodd" clip-rule="evenodd" points="474.29,274.91 557.14,227.05 557.14,175.97 474.29,223.83  "/><path fill="#404F54" fill-rule="evenodd" clip-rule="evenodd" d="M557.14,157.06c31.65,0,57.32,25.67,57.32,57.32s-25.67,57.32-57.32,57.32s-57.32-25.67-57.32-57.32
    C499.83,182.72,525.49,157.06,557.14,157.06"/><path fill="#E5E5E5" fill-rule="evenodd" clip-rule="evenodd" d="M557.14,157.06c31.66,0,57.34,25.67,57.34,57.32s-25.68,57.32-57.34,57.32
    c-18.17-12.23-25.69-36.87-25.69-57.28S538.97,169.31,557.14,157.06"/><polygon fill="#37BEFF" fill-rule="evenodd" clip-rule="evenodd" points="640,223.83 557.14,271.69 557.14,322.77 640,274.91   "/><polygon fill="#404F54" fill-rule="evenodd" clip-rule="evenodd" points="474.29,223.83 557.14,271.69 557.14,322.77 474.29,274.91   "/></g></svg>