<svg xmlns="http://www.w3.org/2000/svg" viewBox="0 0 303 72"><path d="M32.93,28.77c-4-1.4-9.39-3.19-9.39-7.79,0-3.33,3-5.63,8-5.63a26.56,26.56,0,0,1,13.37,3.84L51.2,5A50.08,50.08,0,0,0,28.69,0C11.71,0,1.8,8.19,1.8,21.1c0,14.07,12,18.29,20.2,21.23,5,1.79,8.87,3.45,8.87,7.42,0,3.45-3.09,5.75-8,5.75A37.43,37.43,0,0,1,6.69,51.15L0,67a54.19,54.19,0,0,0,23.54,5C43.22,72,53,63.43,53,49.87c0-14.06-11.58-18-20.07-21.1" fill="#636466"/><path d="M72,70C61.48,66.77,56,59.27,56,45.84V2H77V46c0,5.87,2.87,9,9,9a25,25,0,0,0,8-1V2h21V53Z" fill="#636466"/><path d="M122,50a46.53,46.53,0,0,1-2-14.12C120,11.75,134.85,0,151.89,0c7.62,0,13.56,1.41,19.11,4.73l-6.58,14.93a15.54,15.54,0,0,0-9.17-2.55c-8,0-13.17,6.89-13.17,18.51A26,26,0,0,0,143,43Z" fill="#636466"/><path d="M155.27,53.66a10.72,10.72,0,0,1-3.46-.56q-5.3,1.92-10.55,4c-4.11,1.6-8.2,3-12.26,4.71A30.17,30.17,0,0,0,151.91,72c7.61,0,13.54-1.46,19.09-4.92L164.42,51a15,15,0,0,1-9.15,2.66" fill="#9c9b9e"/><path d="M211,36V54c0,.64-4.54,1-8,1-6.15,0-9-3.1-9-9V40l-21,6c.29,18.12,11.05,26,31,26,11.15,0,21.87-1.93,29-5V32Z" fill="#9c9b9e"/><polygon points="173 35 173 2 194 2 194 31 173 35" fill="#636466"/><path d="M233,2H211V28c8.05-1.2,15-2,22-3Z" fill="#636466"/><path d="M239,24V5.07c7.61-3,17.84-5.07,29.9-5.07A65.35,65.35,0,0,1,279,.78l-3.83,17.44a23.27,23.27,0,0,0-7.78-1.3,18.86,18.86,0,0,0-7.19,1.17L260,22Z" fill="#636466"/><polygon points="239 30 239 71 260 71 260 26 239 30" fill="#9c9b9e"/><polygon points="282 23 282 25 282 71 303 71 303 21 282 23" fill="#9c9b9e"/><polygon points="282 20 282 2 303 2 303 19 282 20" fill="#609f43"/></svg>