<svg xmlns="http://www.w3.org/2000/svg" viewBox="0 0 1430.347 394.864"><defs><clipPath id="a"><path d="M198.2 376.042s35.944.189 72.067-21.668l-43.416-90.9s-18.751 24.156-49.739 23.154c.001 0 19.739 86.377 21.088 89.414z" fill="none"/></clipPath><clipPath id="b"><path d="M249.54 103.261c3.137-1.395 5.266-3.449 4.757-4.593s-3.46-.941-6.6.454-5.267 3.449-4.764 4.594 3.467.939 6.607-.455z" fill="none"/></clipPath><clipPath id="c"><path d="M234.671 110.7c3.137-1.395 5.265-3.45 4.756-4.593s-3.46-.942-6.6.455-5.268 3.449-4.764 4.591 3.468.937 6.608-.453z" fill="none"/></clipPath><clipPath id="d"><path d="M313.15 143.617l-18.087 5.6a36.272 36.272 0 012.008 5.109l13.2-3.559s4.48-1.521 4.974 0-2.22 2.508-5.591 3.413c-3.26.875-11.2 3.325-11.721 3.486a21.935 21.935 0 01.392 2.809 15.1 15.1 0 01.024 1.977l20.8-6.175s5.346-1.809 3.7-8.552-9.699-4.108-9.699-4.108z" fill="none"/></clipPath><clipPath id="e"><path d="M192.467 161.979a6.406 6.406 0 01-.572-.8 7.363 7.363 0 01-.5-.926 9.7 9.7 0 01-.405-1.012 9.962 9.962 0 01-.28-1.052 8.407 8.407 0 01-.155-1.04 8.738 8.738 0 01.022-1.851 6.459 6.459 0 01.193-1c-2.014-.781-12.482-4.361-11.75 5.828.81 11.213 10.361 10.114 14.576 3a4.95 4.95 0 01-.539-.5 4.711 4.711 0 01-.59-.647z" fill="none"/></clipPath><clipPath id="f"><path d="M296.5 162.14c-.1-.908-.269-1.836-.436-2.784-.185-.942-.4-1.9-.644-2.844-.469-1.9-1.054-3.775-1.631-5.526-.555-1.638-1.085-3.168-1.6-4.488a34.352 34.352 0 00-11.642-14.2l-.771-.394a21.53 21.53 0 00-2.233-1.046 30.7 30.7 0 00-8.466-2.154 37.7 37.7 0 00-5.828-.236 48.984 48.984 0 00-6.46.744 36.332 36.332 0 00-6.654 1.9L243.481 134c-2.254.936-4.486 1.944-6.723 2.8l-6.547 2.591c-4.242 1.7-8.247 3.16-11.667 4.444-6.849 2.551-11.458 4.13-11.458 4.13l.035-.014-16.542 6.382c.034.242-.578 1-.525 1.319.075.483.188 1.037.313 1.621a17.238 17.238 0 00.507 1.79 15.738 15.738 0 00.671 1.73c.111.276.258.524.373.777s.247.477.367.688c.129.248 1.752 1.12.686 1.176l13.135-6.3s34.229-13.343 49.881-15.87c10.6-1.711 19.163 4.727 21.481 15.082.647 2.9 1.6 7.43-.113 12.186q-.189.532-.429 1.067a7.107 7.107 0 01-.27.744c.053.017-.132.324-.08.342-2.525 4.683-7.8 9.378-19.133 12.766-1.139.11-1.139.222-1.139.331-1.138.106-1.138.211-1.138.314a123.539 123.539 0 01-15.644 2.867c-43.431 5.3-2.165-4.9-2.165-4.9a90.411 90.411 0 0015.688-5.714 16.724 16.724 0 0010.746-8.968l.034-.071c.265-.577.39-.945.39-.945h-.007c.014-.042.038-.083.052-.127a7.309 7.309 0 00.348-2.345c-.188-11.285-11.73-9.252-17.166-7.478s-37.8 13.6-37.87 13.63a12.284 12.284 0 003.918 3.832s-2.771 5.647 2.435 13.839 10.038 8.3 21.554 5.868c3.45-.729 9.724-1.8 17.687-3.48 0-.083 0-.173 1.138-.26 0-.086 0-.171 1.139-.261 9.1-2.165 19.388-5.248 27.277-9.72-.008-.031-.02-.061-.028-.093.289-.167.57-.338.855-.508.332-.2.667-.4.989-.6 4.877-3.1 8.564-6.807 10.036-11.268.011-.1.028-.191.038-.293a16.327 16.327 0 00.081-2.349c-.012-.828-.103-1.705-.191-2.612z" fill="none"/></clipPath><clipPath id="g"><path d="M279.876 127.71s28.229-11.733 35.548-13.012 24.978-5.808 37.525 1.046 18.471 10.921 33.457 8.6 19.324-36.364 10.8-58.048-23.7-39.468-42.055-36.772c0 0-16.961 5.252-17.89 27.324a21.74 21.74 0 01-.346 2.913 64.053 64.053 0 00.21 4.723c.072 1.424.3 2.952.465 4.577.263 1.611.475 3.327.85 5.073.358 1.749.727 3.558 1.244 5.363.253.905.456 1.832.752 2.734s.591 1.811.886 2.717c.539 1.836 1.339 3.575 2 5.338s1.553 3.394 2.288 5.032a25.981 25.981 0 001.219 2.343c.42.756.832 1.5 1.232 2.214a46.315 46.315 0 002.436 3.951c.806 1.189 1.463 2.343 2.194 3.257.711.929 1.331 1.741 1.842 2.407l1.606 2.1-1.687-2.036-1.938-2.339c-.769-.89-1.47-2.016-2.328-3.179-.831-1.182-1.782-2.433-2.6-3.876l-1.326-2.18c-.456-.742-.925-1.5-1.321-2.313-.8-1.621-1.758-3.241-2.506-4.991s-1.615-3.487-2.234-5.323q-.5-1.362-1.006-2.722c-.336-.9-.579-1.836-.871-2.744-.6-1.816-1.044-3.64-1.478-5.407-.451-1.764-.735-3.5-1.067-5.141-.2-1.4-.423-2.72-.571-3.981-7.87 18.1-36.246 32.437-49.757 38.89-15.544 7.424-74.057 35.349-75.387 42.486l2.084-.888 8.545-3.579c3.541-1.462 7.672-3.17 12.1-5l6.835-2.789c2.338-.928 4.645-2 6.988-3s4.716-1.993 7.036-2.975a39.2 39.2 0 017.223-1.978 42.517 42.517 0 016.947-.632 40.037 40.037 0 016.226.453 30.98 30.98 0 015.128 1.2m113.893-25.507a29.6 29.6 0 01-2.754 7.3 18.213 18.213 0 01-5.529 6.352 14.5 14.5 0 01-8.614 2.518 20.606 20.606 0 01-9.019-2.652c-5.63-3.093-10.247-7.983-13.982-13.434a71.291 71.291 0 01-12.01-37.738c-.1-6.607.838-13.268 3.649-19.047a20.586 20.586 0 015.83-7.379 14.471 14.471 0 018.49-2.921 18.2 18.2 0 018.184 1.991 29.6 29.6 0 016.467 4.371 49.617 49.617 0 018.783 10.316 70.177 70.177 0 015 9.161c1.2 2.637 1.976 4.776 2.5 6.237l.75 2.255.691 2.275a77.51 77.51 0 011.566 6.532 70.072 70.072 0 011.207 10.368 49.608 49.608 0 01-1.207 13.49z" fill="none"/></clipPath></defs><circle cx="182.277" cy="193.001" r="182.277" fill="#34495e"/><path fill="#fff" d="M190.477 211.724l-33.948.861 14.216 50.889 42.186-20.905-22.454-30.845z"/><g clip-path="url(#a)"><path fill="#f2f2f2" d="M218.076 376.231l52.193-20.265v20.265h-52.193zM195.958 376.231l-1.357-3.496 73.814-28.661 1.854 4.774v7.118l-52.193 20.265h-22.118z"/><path fill="#f3f3f3" d="M190.346 361.774l73.816-28.66 4.255 10.958-73.815 28.661z"/><path fill="#f4f4f4" d="M186.091 350.815l73.816-28.66 4.255 10.959-73.816 28.66z"/><path fill="#f5f5f5" d="M181.835 339.857l73.815-28.66 4.256 10.958-73.816 28.66z"/><path fill="#f6f6f6" d="M177.58 328.898l73.815-28.66 4.255 10.958-73.815 28.66z"/><path fill="#f7f7f7" d="M177.58 328.899l-.468-1.207v-11.223l70.028-27.19 4.255 10.959-73.815 28.661z"/><path fill="#f9f9f9" d="M177.112 303.858l65.773-25.538 4.255 10.959-70.028 27.19v-12.611z"/><path fill="#fafafa" d="M177.112 291.247l61.518-23.886 4.255 10.959-65.773 25.538v-12.611z"/><path fill="#fbfbfb" d="M177.112 278.636l39.049-15.162h20.96l1.509 3.887-61.518 23.886v-12.611z"/><path fill="#fcfcfc" d="M177.112 266.024l6.569-2.55h32.48l-39.049 15.162v-12.612z"/><path fill="#fdfdfd" d="M183.681 263.474l-6.569 2.55v-2.55h6.569z"/></g><path d="M180.306 215.316l-14.341 25.993-9.436-28.724s13.502 3.554 23.777 2.731z" fill="#f2f2f2"/><path d="M179.986 215.761l18.869 11.819-8.378-15.857s-8.177 2.177-10.491 4.038z" fill="#f2f2f2"/><path d="M196.485 282.748s-.733 22.775-.733 29.018v1.517l3.285 4.051 5.247-6.7z" fill="#603813"/><path d="M189.936 233.206a9.358 9.358 0 003.53-9l-13.48-8.446-6.174 10.324s4.821 9.594 11 9.088l26.6 104.091 16.695 10.63 7.091-17.376z" fill="#603813"/><path d="M75.606 88.569S71.22 215.773 179.19 214.422c0 0 23.282 2.362 30.366-34.078s-13.5-107.97-28.678-126.528c0 0-71.192-.673-105.272 34.753z" fill="#c28557"/><path d="M61.961 81.284l-1.2-48.892S77.692 1.349 143.288 0l26.474 32.023s-44.421 1.343-107.801 49.261z" fill="#1abc9c"/><path d="M135.69 37.652c-18.249-.8-36.364-2.819-54.659-2.948-6.671-.048-13.9.212-20.268-2.2l1.2 48.778c34.183-25.843 88.534-43.669 107.8-49.261-9.19-.921-31.249 5.755-34.073 5.631z" fill="#17a388"/><path d="M157.617 17.83S99.054 22.6 61.518 63.265l.443 18.02s58.394-47.607 107.8-49.261z" fill="#e6e6e6"/><path d="M190.589 71.1s29.542-18.972 34.041-32.7c4.5-13.706-52.861-10.565-90.314 1.919s-135.544 71.72-57.143 72.807c0 0-1.911-19.388-1.566-24.557 0 0 26.469-31.96 105.272-34.753-.001 0 7.881 10.184 9.71 17.284z" fill="#17a388"/><path d="M217.978 48.952c0-.009-.006-.1-.013-.161a5.425 5.425 0 00-.116-.574 7.256 7.256 0 00-1.045-2.21 11.552 11.552 0 00-2.84-2.836 20.683 20.683 0 00-4.835-2.49 34.568 34.568 0 00-6.38-1.686 61.8 61.8 0 00-7.416-.835c-1.3-.061-2.623-.091-3.962-.125l-4.07.049-4.137.193L179 38.6c-2.776.288-5.556.575-8.279.976-2.731.337-5.4.833-7.989 1.234-2.576.488-5.078.917-7.432 1.407s-4.588.933-6.634 1.407c-4.1.925-7.506 1.73-9.879 2.344l-3.738.934 3.711-1.033c2.357-.677 5.743-1.574 9.819-2.609 2.035-.528 4.259-1.02 6.6-1.584s4.839-1.05 7.41-1.609c2.588-.471 5.249-1.04 7.983-1.451 2.724-.475 5.511-.838 8.3-1.2l4.193-.437 4.175-.307 4.125-.16c1.363 0 2.71-.006 4.037.02a64.276 64.276 0 017.646.658 36.392 36.392 0 016.763 1.6 22.8 22.8 0 015.4 2.61 13.8 13.8 0 013.466 3.3 9.611 9.611 0 011.445 2.878 8.078 8.078 0 01.2.891l.038.351z" fill="#34495e"/><path d="M183.558 197.153a178.666 178.666 0 01-50.858-16.979c-8.023-4.168-16.366-8.831-23.151-14.873-6.208-5.526-11.054-12.195-15.578-19.125-5.221-8-11.073-16.05-15.506-24.691 6.694 37.588 28.728 93.836 100.721 92.937 0 0 13.98 1.386 23.568-14.958a168.076 168.076 0 01-19.196-2.311z" fill="#a06e4b" opacity=".4"/><path d="M160.634 91.944s.9 1 2.366 2.855 3.487 4.553 5.695 7.953c1.108 1.7 2.281 3.558 3.42 5.589s2.33 4.188 3.4 6.506a69.939 69.939 0 013 7.322 46.524 46.524 0 012 8.062 22.392 22.392 0 01-.337 8.626 12.214 12.214 0 01-5.027 7.13 16.536 16.536 0 01-7.457 2.483 29.9 29.9 0 01-6.727-.06c-1.028-.085-1.994-.259-2.917-.39l-2.589-.524c-1.615-.359-3-.744-4.133-1.086-1.139-.306-2.007-.656-2.608-.845l-.917-.311 3.669.459c1.164.148 2.579.279 4.194.428 1.616.118 3.438.221 5.405.215a35.008 35.008 0 006.229-.531 15.183 15.183 0 006.044-2.425 9.381 9.381 0 003.487-5.414 19.166 19.166 0 00.138-7.267 43.233 43.233 0 00-1.739-7.476c-.8-2.439-1.64-4.844-2.6-7.126s-1.917-4.484-2.889-6.55-1.926-4.007-2.829-5.793c-1.817-3.565-3.394-6.522-4.514-8.586s-1.764-3.244-1.764-3.244zM161.138 159.763a28.46 28.46 0 002.948.539 33.719 33.719 0 006.519.253c.584-.063 1.172-.084 1.74-.179s1.129-.149 1.656-.29a14.673 14.673 0 001.508-.383c.466-.16.922-.259 1.307-.44l1.065-.446c.309-.146.562-.3.777-.416l.669-.365 1.125 2.106-.828.329c-.264.1-.577.24-.948.363l-1.259.353c-.456.144-.97.2-1.5.306a16.809 16.809 0 01-1.679.209c-.58.076-1.184.061-1.792.087s-1.224-.028-1.837-.04a34.418 34.418 0 01-6.6-1.081 28.721 28.721 0 01-2.871-.905zM167.951 173.431l.236-.075a5.653 5.653 0 01.679-.173c.594-.132 1.442-.278 2.46-.463a63.174 63.174 0 007.334-1.691 31.458 31.458 0 003.716-1.371c.584-.232 1.1-.543 1.615-.789.5-.263.942-.564 1.365-.812s.75-.548 1.07-.775a6.141 6.141 0 00.761-.651l.631-.59 1.636 1.739-.822.621a7.75 7.75 0 01-.967.659c-.391.22-.813.5-1.3.743-.5.223-1.018.5-1.591.726-.58.207-1.174.476-1.815.655a32.9 32.9 0 01-4.009 1 63.714 63.714 0 01-7.575.9c-1.032.075-1.892.128-2.487.195a5.536 5.536 0 00-.691.1zM132.628 140.088a14.965 14.965 0 012.237.966 22.994 22.994 0 012.4 1.461 27.238 27.238 0 012.9 2.249c.511.442.99.952 1.518 1.456a15.275 15.275 0 011.518 1.669l1.517 1.849c.47.664.915 1.369 1.383 2.078.228.356.477.708.693 1.079l.612 1.147a70.16 70.16 0 011.219 2.353c.324.828.65 1.664.979 2.5a22.043 22.043 0 01.9 2.549l.694 2.611.332 1.3.2 1.316q.21 1.311.375 2.6l.171 1.277.06 1.266c.079 1.673.125 3.291.114 4.817a119.108 119.108 0 01-.354 4.285c-.068.66-.11 1.293-.189 1.891l-.341 1.686c-.2 1.057-.419 1.972-.588 2.723-.345 1.5-.582 2.344-.582 2.344s-.073-.889-.127-2.42c-.024-.766-.065-1.692-.069-2.747l-.02-1.678q-.065-.885-.139-1.855c-.1-1.29-.2-2.682-.262-4.147-.167-1.459-.421-2.984-.578-4.566q-.069-.593-.142-1.192l-.252-1.191q-.26-1.2-.485-2.419l-.234-1.227-.34-1.2-.671-2.423a19.169 19.169 0 00-.781-2.382l-.847-2.339a60.285 60.285 0 01-1.016-2.225l-.486-1.1c-.174-.357-.381-.694-.567-1.039-.378-.688-.767-1.354-1.111-2.032l-1.195-1.872-.584-.9-.624-.83c-.409-.545-.778-1.1-1.185-1.591-.83-.958-1.56-1.886-2.3-2.623-.706-.774-1.384-1.385-1.926-1.92-.575-.487-1.01-.911-1.336-1.153z" fill="#a76e44"/><path d="M88.764 121.635s-24.746-6.294-21.594 9.9 19.347 13.274 24.52 4.724" fill="#c28557"/><path d="M83.513 142.318a4.328 4.328 0 00.426-.286c.257-.182.625-.442 1.046-.779a7.641 7.641 0 00.65-.569c.219-.215.475-.391.7-.633s.453-.486.695-.715a5.353 5.353 0 00.671-.751c.21-.264.4-.544.578-.82a8.413 8.413 0 01.5-.808 2.636 2.636 0 01.674-.563c.259-.146.474-.314.707-.45a6.536 6.536 0 011.337-.59 5.683 5.683 0 01.669-.176l.314.173a3.243 3.243 0 01.122.66 5.414 5.414 0 01-.107 1.611 3.809 3.809 0 01-.97 1.863 3.521 3.521 0 01-.939.715 15.45 15.45 0 00-1.064.6 12.406 12.406 0 01-2.079 1.044 9.809 9.809 0 01-1.007.335 9.332 9.332 0 01-.914.234 10.461 10.461 0 01-1.387.226 4.314 4.314 0 01-.522.026z" fill="#a76e44"/><path d="M129.683 113.126s11.789-11.887 8.357-25.169c0 0-34.473-7.461-44.771 16.864 0 0 4.029 6.277 14.028 10.973.003-.001 11.641-16.149 22.386-2.668z" fill="#b77e56"/><path d="M108.56 115.793a14.032 14.032 0 011.872-3.616 15.251 15.251 0 011.222-1.58 14.15 14.15 0 011.607-1.59 12.454 12.454 0 012.018-1.431 10.344 10.344 0 012.439-1 8.873 8.873 0 012.7-.253 8.036 8.036 0 012.539.644 7.8 7.8 0 012.031 1.224 9.2 9.2 0 011.475 1.429 9.856 9.856 0 011 1.369 8.474 8.474 0 01.643 1.122c.313.645.467 1.018.467 1.018s-.322-.261-.842-.728-1.278-1.1-2.2-1.773a7.244 7.244 0 00-.739-.483 6.407 6.407 0 00-.794-.47 5.642 5.642 0 00-.861-.4 6.832 6.832 0 00-.908-.331 7.344 7.344 0 00-1.928-.3 8.048 8.048 0 00-1.99.252 10.119 10.119 0 00-1.953.735 14.508 14.508 0 00-1.83 1.054 30.172 30.172 0 00-3.075 2.4 67.516 67.516 0 00-2.893 2.708z"/><path d="M91.688 105.282a2.984 2.984 0 01-2.474-4.652c15.277-22.68 47.014-18.138 48.357-17.932a2.984 2.984 0 01-.9 5.9c-.375-.055-29.38-4.126-42.511 15.365a2.974 2.974 0 01-2.472 1.319z" fill="#603813"/><path d="M165.467 79.552s7.634 15.718 15.747 18.9c0 0 4.951-5.72 11-1.542 0 0 4.545-7.1 3.429-12.988l-2.652-7.061s-13.751-3.627-27.524 2.691z" fill="#b77e56"/><path d="M165.469 81.433a2.985 2.985 0 01-.989-5.8c.931-.325 22.979-7.94 37.75-2.695a2.985 2.985 0 11-2 5.625c-12.777-4.541-33.568 2.629-33.776 2.7a2.989 2.989 0 01-.985.17z" fill="#603813"/><path d="M181.214 97.8a5.37 5.37 0 011-1.819 6.644 6.644 0 011.58-1.453 5.717 5.717 0 011.1-.6 7.084 7.084 0 011.277-.4 5.715 5.715 0 011.382-.06 3.986 3.986 0 011.319.285 3.673 3.673 0 011.1.573 4.442 4.442 0 01.449.335l.345.386a3.407 3.407 0 01.53.7c.126.227.215.439.289.607a4.894 4.894 0 01.2.541s-.213-.074-.539-.212c-.161-.071-.357-.15-.556-.256s-.469-.152-.707-.257a3.374 3.374 0 00-.79-.225 3.457 3.457 0 00-.834-.14c-.144 0-.28-.039-.425-.042a4.279 4.279 0 01-.438.02 7.341 7.341 0 00-.892.093c-.3.082-.611.118-.917.223s-.617.179-.919.3c-.61.207-1.189.459-1.718.659-1.029.442-1.836.742-1.836.742z"/><path d="M75.421 89.516s61.3-24 114.565-19.769c0 0-2.833-9.63-9.109-15.931.001 0-69.33-2.288-105.456 35.7z" fill="#a3714f"/><path d="M218.812 153.111a22.489 22.489 0 00-.144 2.443c-.018.725.024 1.564.093 2.451a18.309 18.309 0 00.465 2.736 12.017 12.017 0 00.377 1.353c.125.448.319.863.469 1.282s.368.792.529 1.17a11.458 11.458 0 00.542 1.026c.188.308.319.624.492.864l.42.648.354.589-.532-.431-.6-.521a7.035 7.035 0 01-.7-.757 6.721 6.721 0 01-.75-.968 9.318 9.318 0 01-.712-1.175 10.814 10.814 0 01-.6-1.345 12.8 12.8 0 01-.449-1.457 11.7 11.7 0 01-.264-1.5 12.1 12.1 0 01-.088-1.468 12.3 12.3 0 01.276-2.576 8.412 8.412 0 01.822-2.364z" fill="#34495e"/><path d="M214.694 172.784s-.069-3.944 13-7.015 28.6-9.12 33.274-2.577-5.555 9.565-19.005 13.082-16.316 4.026-16.316 4.026" fill="#34495e"/><path d="M347.936 62.519l-.03.007z" fill="#fff"/><path d="M211.509 170.392a14.452 14.452 0 01-.835-1.473 10.408 10.408 0 00.835 1.473z" fill="#34495e"/><path d="M334.941 78.453a17.2 17.2 0 01-1.053 1.375c-.358.417-.765.967-1.3 1.512a79.398 79.398 0 01-1.787 1.866c-.652.691-1.435 1.35-2.245 2.072-.828.7-1.64 1.522-2.612 2.195-.951.7-1.916 1.457-2.934 2.173-.993.752-2.081 1.4-3.155 2.062l-3.248 1.914c-1.062.648-2.223 1.076-3.281 1.6-1.07.508-2.121.961-3.113 1.4a20.328 20.328 0 01-2.872 1.043c-3.614 1.15-6.059 1.7-6.059 1.7s2.185-1.314 5.516-2.963c.83-.419 1.744-.835 2.655-1.4.922-.534 1.889-1.1 2.908-1.649 1.008-.569 2.074-1.106 3.109-1.741s2.08-1.288 3.129-1.936c1.063-.626 2.139-1.232 3.123-1.942 1-.69 2.016-1.32 2.984-1.957.985-.612 1.866-1.3 2.749-1.9.856-.627 1.728-1.151 2.463-1.719s1.438-1.056 2.06-1.5 1.132-.852 1.578-1.175c.888-.635 1.385-1.03 1.385-1.03z" fill="#fff"/><path d="M393.071 78.171a77.51 77.51 0 00-1.566-6.532l-.691-2.275-.75-2.255a76.52 76.52 0 00-2.5-6.237 70.057 70.057 0 00-5-9.161A49.612 49.612 0 00373.78 41.4a29.619 29.619 0 00-6.467-4.371 18.211 18.211 0 00-8.184-1.991 14.48 14.48 0 00-8.49 2.921 20.586 20.586 0 00-5.83 7.379c-2.811 5.779-3.748 12.44-3.649 19.047a71.291 71.291 0 0012.01 37.738c3.735 5.451 8.352 10.341 13.982 13.434a20.579 20.579 0 009.019 2.652 14.493 14.493 0 008.614-2.518 18.213 18.213 0 005.529-6.352 29.636 29.636 0 002.754-7.3 49.519 49.519 0 001.208-13.494 69.846 69.846 0 00-1.205-10.374z" fill="none"/><path d="M393.071 78.171a77.51 77.51 0 00-1.566-6.532l-.691-2.275-.75-2.255a76.52 76.52 0 00-2.5-6.237 70.057 70.057 0 00-5-9.161A49.612 49.612 0 00373.78 41.4a29.619 29.619 0 00-6.467-4.371 18.211 18.211 0 00-8.184-1.991 14.48 14.48 0 00-8.49 2.921 20.586 20.586 0 00-5.83 7.379c-2.811 5.779-3.748 12.44-3.649 19.047a71.291 71.291 0 0012.01 37.738c3.735 5.451 8.352 10.341 13.982 13.434a20.579 20.579 0 009.019 2.652 14.493 14.493 0 008.614-2.518 18.213 18.213 0 005.529-6.352 29.636 29.636 0 002.754-7.3 49.519 49.519 0 001.208-13.494 69.846 69.846 0 00-1.205-10.374z" fill="none"/><path fill="#34495e" d="M286 130.78l-.014-.01.006.006.008.004zM210.065 146.729c-.636.27-1.018.434-1.113.475l1.1-.442a.318.318 0 00.013-.033z"/><path d="M240.411 183.005s-43.187 10.7 2.384 5.138a126.254 126.254 0 0016.23-3.008v-9.271a90.8 90.8 0 01-18.614 7.141z" fill="none"/><path d="M189.987 211.977c.9 1.265 11.958 21.151 11.958 21.151 2.509-5.452 7.17-23.81 7.17-23.81l-7.17-8.467c-3.576 6.877-11.958 11.126-11.958 11.126zM258.986 204.924l.039.054-.018-.065zM288.218 268.743c-8.042-24.961 23.467-28.3 23.479-28.3 1.254-20.271-8.614-40.812-18.417-52.26a17.777 17.777 0 01-2.306 7.405c-3.173 5.659-9.025 8.46-16.477 8.46a30.665 30.665 0 01-5.511-.191c-1.334.431-6.159 2.1-8.139 2.1a2.144 2.144 0 01-1.275-.272c3.58 5.264 21.848 33.619 3.8 38.051 0 0-15.372 4.606-22.278-3.669 0 0-8.92 18.3-14.241 23.4 0 0 41.075 81.193 47.149 100.763 0 0 26.316-10.121 33.064-24.629 0 0-28.229-41.145-45.2-64.016v.006l-2.88-3.561c-.439-.526-.88-1.125-1.41-1.7s-1.1-1.181-1.682-1.807-1.184-1.272-1.794-1.93c-.628-.64-1.31-1.246-1.966-1.875s-1.314-1.257-1.982-1.849l-2.017-1.675c-.654-.542-1.285-1.063-1.921-1.51l-1.757-1.3c-1.127-.729-2.059-1.378-2.717-1.734-.638-.384-1.063-.6-1.063-.6l1.192-2.068s.379.228 1.078.726c.718.472 1.612 1.208 2.726 2.066.527.46 1.1.957 1.7 1.482s1.228 1.089 1.842 1.706 1.261 1.235 1.913 1.873c.63.658 1.236 1.358 1.859 2.041.379.426.762.847 1.142 1.269 2.603.781 19.482 5.564 34.089 3.598zm-41.5 10.031c1.492 2.057 3.666 4.97 6.144 8.553 2.5 3.569 5.328 7.791 8.286 12.363 1.451 2.3 3 4.652 4.483 7.1s3.018 4.913 4.487 7.422 2.924 5.022 4.312 7.526c1.427 2.481 2.73 4.979 3.993 7.4 1.3 2.4 2.441 4.776 3.527 7.028 1.124 2.232 2.06 4.41 2.931 6.413.429 1 .88 1.946 1.235 2.879s.686 1.816 1 2.648c.629 1.658 1.187 3.1 1.537 4.328.756 2.435 1.152 3.827 1.152 3.827s-.6-1.331-1.587-3.663c-.457-1.178-1.145-2.559-1.92-4.144s-1.635-3.373-2.655-5.292c-1.981-3.856-4.4-8.305-7.068-13.025q-1-1.772-2.027-3.6-1.05-1.814-2.124-3.662c-1.4-2.479-2.883-4.967-4.361-7.455-1.438-2.512-2.946-4.985-4.4-7.436s-2.9-4.855-4.294-7.188c-2.8-4.657-5.413-9-7.652-12.73l-5.382-9.037-2.026-3.442s.902 1.143 2.412 3.187z" fill="#d35248"/><path d="M287.678 268.743s23.919-.228 23.919-28.88h.049a52.9 52.9 0 01-3.113 14.417c-3.293 9.106-11.304 13.238-20.855 14.463z" fill="#8c7444"/><path d="M288.218 268.743c9.1-1.226 17.316-5.069 20.609-14.169a50.569 50.569 0 002.87-14.128c-.012.001-31.521 3.336-23.479 28.297z" fill="#8c7444"/><path d="M261.413 203.636l29.544-16.012a20.059 20.059 0 00-.739-6.931c-8.277 4.692-19.254 7.928-28.805 10.2z" fill="#c28557"/><path d="M261.413 203.691c1.194-.206 5.127-1.214 7.139-1.875l.277-.094.294-.264a28.308 28.308 0 005.371.205c6.55 0 11.662-2.366 14.394-7.24a16.254 16.254 0 002.067-6.958l-29.544 16.17v.056z" fill="#c28557"/><path d="M292.166 186.956l.02-.01c.364.4.728.815 1.093 1.241a22.594 22.594 0 00-1-8.756c-.338.215-.689.421-1.038.631a21.284 21.284 0 01.925 6.894zM259.569 205.765c-.3-.441-.48-.7-.544-.788a1.4 1.4 0 00.544.788zM260.22 191.166c-1.194.091-1.194.185-1.194.272v13.2a1.456 1.456 0 00.033.274l1.161-.629zM259.026 175.864v9.271c0-.108 0-.218 1.194-.33v-9.622c-1.194.232-1.194.458-1.194.681z" fill="#34495e"/><path d="M268.983 203.86a30.668 30.668 0 005.511.191c7.452 0 13.3-2.8 16.477-8.46a18.481 18.481 0 002.306-7.563c-.365-.425-.729-.762-1.093-1.162l-.02.05c-.313 9.831-7.665 18.892-23.24 16.015 0 0-8.706 2.887-8.706 1.707v-.355l-1.187.629v.065c.064.09.238.346.538.788a2.221 2.221 0 001.272.193c1.986 0 6.807-1.667 8.142-2.098zM261.413 174.447c-1.193.25-1.193.5-1.193.736v9.622c0-.114 0-.231 1.193-.347z" fill="#34495e"/><path d="M261.413 190.892c-1.193.095-1.193.184-1.193.274v13.117l1.193-.647zM291.242 180.062c-.353.211-.7.425-1.063.631a20.021 20.021 0 01.751 6.931l1.235-.668a21.256 21.256 0 00-.923-6.894z" fill="#34495e"/><path d="M288.89 194.423c-2.732 4.874-7.844 7.24-14.394 7.24a28.387 28.387 0 01-5.378-.205l-.3.1-.265.174c-2.012.661-5.944 1.749-7.139 1.955v-.056l-1.193.647v.355c0 1.18 8.706-1.688 8.706-1.688 15.575 2.877 22.939-6.163 23.253-15.995l-1.242.51a16.224 16.224 0 01-2.048 6.963z" fill="#34495e"/><path d="M261.862 275.585l-2.581-3.783c-.4-.563-.792-1.2-1.274-1.825s-1.006-1.274-1.54-1.952l-1.65-2.092c-.221-.266-.456-.525-.688-.786-.226-.067-.374-.113-.374-.113 2.132 2.611 4.923 6.266 8.107 10.551z" fill="#c64d44"/><path d="M251.128 261.837l-1.913-1.873c-.62-.606-1.227-1.194-1.842-1.706s-1.175-1.022-1.7-1.482c-1.113-.858-2.007-1.595-2.726-2.066-.7-.5-1.078-.726-1.078-.726l-1.192 2.068s.425.214 1.063.6c.658.356 1.59 1 2.717 1.734l1.757 1.295c.636.446 1.276.958 1.921 1.51s1.33 1.1 2.017 1.675c.668.592 1.315 1.229 1.982 1.849s1.338 1.235 1.966 1.875l1.794 1.93 1.682 1.807c.535.576.97 1.179 1.41 1.7l2.88 3.561c-3.184-4.29-5.975-7.939-8.107-10.552 0 0 .148.046.374.113-.38-.422-.763-.843-1.142-1.269-.627-.68-1.232-1.38-1.863-2.043zM251.719 288.068l7.652 12.73c1.393 2.332 2.833 4.739 4.294 7.188s2.962 4.924 4.4 7.436c1.478 2.488 2.958 4.976 4.361 7.455l2.124 3.662q1.029 1.821 2.027 3.6c2.67 4.721 5.087 9.169 7.068 13.025 1.02 1.919 1.889 3.7 2.655 5.292s1.463 2.966 1.92 4.144c.987 2.332 1.587 3.663 1.587 3.663s-.4-1.393-1.152-3.827c-.351-1.23-.908-2.67-1.537-4.328-.313-.832-.646-1.717-1-2.648s-.807-1.875-1.235-2.879c-.871-2-1.807-4.181-2.931-6.413-1.086-2.252-2.23-4.632-3.527-7.028-1.263-2.419-2.566-4.917-3.993-7.4-1.387-2.5-2.846-5.018-4.312-7.526s-3-4.976-4.487-7.422-3.033-4.8-4.483-7.1c-2.958-4.572-5.789-8.794-8.286-12.363-2.478-3.583-4.651-6.5-6.144-8.553-1.51-2.044-2.411-3.186-2.411-3.186l2.026 3.442z" fill="#c64d44"/><path d="M281.694 171c-2.637 4.934-8.342 9.886-20.281 13.455v6.434c9.551-2.271 20.514-5.506 28.792-10.2a19.6 19.6 0 00-2.1-4.786 11.266 11.266 0 00-6.411-4.903z" fill="#c28557"/><path d="M260.22 184.805c-1.194.112-1.194.222-1.194.33v6.3c0-.087 0-.182 1.194-.272zM259.026 171.456v4.407c0-.223 0-.449 1.194-.681v-2.936a46.192 46.192 0 016.333-2.039 13.5 13.5 0 001.136-1.5 48.53 48.53 0 00-7.954 2.436zM289.1 175.284a20.95 20.95 0 012.141 4.778c.349-.21.7-.416 1.038-.631a21.882 21.882 0 00-2.159-4.769 13.5 13.5 0 00-7.473-5.857c-.134.372-.283.747-.45 1.119a12.388 12.388 0 016.903 5.36z" fill="#34495e"/><path d="M261.413 173.06c0-.27 1.892-.7 3.4-1.141a18.929 18.929 0 001.749-1.71 46.813 46.813 0 00-6.346 2.039v2.936c0-.24 0-.485 1.193-.736v-1.388zM288.083 175.907a19.625 19.625 0 012.1 4.786c.364-.206.711-.419 1.063-.631a20.95 20.95 0 00-2.141-4.778 12.394 12.394 0 00-6.9-5.361c-.16.36-.337.719-.53 1.08a11.269 11.269 0 016.408 4.904zM261.413 184.457c-1.193.116-1.193.233-1.193.347v6.361c0-.091 0-.18 1.193-.274z" fill="#34495e"/><path d="M393.071 78.171a77.51 77.51 0 00-1.566-6.532l-.691-2.275.676 2.279a77.95 77.95 0 011.52 6.54 61.854 61.854 0 011.076 10.362 46.226 46.226 0 01-1.525 13.356 28.875 28.875 0 01-2.926 7.045 17.292 17.292 0 01-5.435 5.854 13.281 13.281 0 01-7.968 2.049 19.07 19.07 0 01-8.262-2.744 37.564 37.564 0 01-9.883-8.954 10.2 10.2 0 003.825 1.923l.628.124c.226.017.468.006.7 0a3.574 3.574 0 001.2-.2l.136-.036.066-.018.035-.008c.159-.052.064-.026.109-.042l.284-.158.556-.322a8.972 8.972 0 00.895-.855 8.661 8.661 0 001.608-4.132 20.707 20.707 0 00.226-4.014 40.957 40.957 0 00-.888-6.9c-.423-2.023-.9-3.76-1.317-5.181-.446-1.414-.809-2.52-1.1-3.259l-.417-1.143.4 1.148c.277.744.625 1.853 1.051 3.271l.628 2.37c.182.873.41 1.81.56 2.829a33.915 33.915 0 01.552 6.863 20.066 20.066 0 01-.468 3.862 7.813 7.813 0 01-1.646 3.593 8.7 8.7 0 01-.73.612c-.278.1-.575.34-.821.346a2.5 2.5 0 01-1.014.1l-.434-.031-.485-.135a9.7 9.7 0 01-3.623-2.286 33.436 33.436 0 01-5.663-7.566 61.5 61.5 0 01-4.187-8.956l-.853-2.362c-.245-.783-.509-1.558-.74-2.347-.447-1.59-.865-3.182-1.193-4.776a33.6 33.6 0 01-.766-9.419 9.715 9.715 0 011.2-4.111l.273-.422c.1-.124.228-.224.338-.34a2.506 2.506 0 01.753-.553l.1-.062.049-.03.025-.015h-.006l.232-.063.535-.145c.323-.031.583-.01.89-.018a7.813 7.813 0 013.61 1.6 19.976 19.976 0 012.908 2.581 33.772 33.772 0 014.134 5.506c.563.863 1.012 1.718 1.455 2.491l1.1 2.19c.619 1.344 1.093 2.408 1.377 3.148l.46 1.126-.445-1.132c-.274-.746-.735-1.815-1.336-3.168a67.685 67.685 0 00-2.443-4.755 41.076 41.076 0 00-3.9-5.758 20.7 20.7 0 00-2.827-2.86 8.694 8.694 0 00-3.945-2.031 8.081 8.081 0 00-1.3-.032l-.544.108-.273.054a.71.71 0 00-.109.035l-.036.018-.073.035-.147.071a3.734 3.734 0 00-1.1.694c-.162.145-.339.282-.486.439l-.389.509a10.939 10.939 0 00-1.7 4.534 64.88 64.88 0 01-.221-3.372c-.2-6.362.527-12.764 2.967-18.282a19.094 19.094 0 015.154-7.012 13.276 13.276 0 017.684-2.93 17.3 17.3 0 017.817 1.639 28.987 28.987 0 016.459 4.06 46.185 46.185 0 018.959 10.024 61.689 61.689 0 015.109 9.079 77.176 77.176 0 012.539 6.217l.765 2.25-.75-2.255a76.52 76.52 0 00-2.5-6.237 70.057 70.057 0 00-5-9.161 49.612 49.612 0 00-8.783-10.316 29.619 29.619 0 00-6.467-4.371 18.211 18.211 0 00-8.184-1.991 14.48 14.48 0 00-8.49 2.921 20.586 20.586 0 00-5.83 7.379c-2.811 5.779-3.748 12.44-3.649 19.047a71.291 71.291 0 0012.01 37.738c3.735 5.451 8.352 10.341 13.982 13.434a20.579 20.579 0 009.019 2.652 14.493 14.493 0 008.614-2.518 18.213 18.213 0 005.529-6.352 29.636 29.636 0 002.754-7.3 49.519 49.519 0 001.208-13.494 69.607 69.607 0 00-1.205-10.368z" fill="none"/><path d="M387.51 60.9a61.833 61.833 0 00-5.109-9.079 46.162 46.162 0 00-8.962-10.021 28.987 28.987 0 00-6.459-4.06 17.289 17.289 0 00-7.817-1.639 13.288 13.288 0 00-7.684 2.93 19.071 19.071 0 00-5.154 7.012c-2.44 5.518-3.165 11.919-2.967 18.282.041 1.123.122 2.247.221 3.372a10.939 10.939 0 011.7-4.534l.389-.509c.147-.157.324-.294.486-.439a3.721 3.721 0 011.1-.694l.147-.071.073-.035.036-.018.109-.035.273-.054.544-.108a8.081 8.081 0 011.3.032 8.7 8.7 0 013.945 2.031 20.7 20.7 0 012.827 2.86 41.076 41.076 0 013.9 5.758 69.25 69.25 0 012.443 4.755c.6 1.353 1.062 2.422 1.336 3.168.291.737.445 1.132.445 1.132l.417 1.143c.287.74.649 1.846 1.1 3.259a66.88 66.88 0 011.317 5.181 41.164 41.164 0 01.888 6.9 20.559 20.559 0 01-.226 4.014 8.681 8.681 0 01-1.608 4.132 8.86 8.86 0 01-.9.855l-.556.322-.284.158c-.045.016.05-.01-.109.042l-.035.008-.066.018-.136.036a3.59 3.59 0 01-1.2.2c-.232 0-.474.015-.7 0l-.628-.124a10.2 10.2 0 01-3.825-1.923 37.581 37.581 0 009.883 8.954 19.083 19.083 0 008.262 2.744 13.281 13.281 0 007.974-2.055 17.3 17.3 0 005.435-5.858 28.914 28.914 0 002.926-7.045 46.268 46.268 0 001.525-13.356 61.959 61.959 0 00-1.076-10.362 77.472 77.472 0 00-1.52-6.54l-.676-2.279-.765-2.25a77.39 77.39 0 00-2.539-6.21z" fill="#fe0"/><g clip-path="url(#b)"><path fill="#fdd113" d="M242.433 99.32l1.744-.838 3.065 6.376h-4.809V99.32z"/><path fill="#fdd213" d="M244.177 98.482l1.992-.958h3.466l3.133 6.517-1.699.817h-3.827l-3.065-6.376z"/><path fill="#fdd314" d="M254.806 103.062l-2.038.979-3.133-6.517h5.171v5.538z"/></g><g clip-path="url(#c)"><path fill="#fdce11" d="M227.563 106.757l2.305-1.108 3.194 6.645h-5.499v-5.537z"/><path fill="#fdcf12" d="M229.868 105.649l1.432-.688h4.155l3.004 6.247-2.259 1.086h-3.138l-3.194-6.645z"/><path fill="#fdd012" d="M239.936 110.498l-1.477.71-3.004-6.247h4.481v5.537z"/></g><path d="M362.8 76.664l-1.1-2.19c-.443-.773-.893-1.628-1.455-2.491a33.687 33.687 0 00-4.134-5.506A19.976 19.976 0 00353.2 63.9a7.824 7.824 0 00-3.61-1.6c-.308.008-.567-.013-.89.018l-.535.145-.232.063h.006l-.025.015-.049.03-.1.062a2.493 2.493 0 00-.753.553c-.111.117-.234.217-.338.34l-.273.422a9.719 9.719 0 00-1.2 4.111 33.6 33.6 0 00.766 9.419c.328 1.595.746 3.186 1.193 4.776.231.789.5 1.564.74 2.347l.853 2.362a61.5 61.5 0 004.187 8.956 33.414 33.414 0 005.663 7.566 9.713 9.713 0 003.623 2.286l.485.135.434.031a2.518 2.518 0 001.014-.1c.246-.006.543-.246.821-.346a8.729 8.729 0 00.73-.612 7.833 7.833 0 001.646-3.593 20.047 20.047 0 00.468-3.862 33.843 33.843 0 00-.552-6.863c-.15-1.019-.377-1.956-.56-2.829l-.628-2.37c-.425-1.418-.774-2.527-1.051-3.271s-.4-1.148-.4-1.148l-.46-1.126c-.28-.746-.754-1.809-1.373-3.153z" fill="#e9d300"/><g clip-path="url(#d)"><path fill="#fdd515" d="M295.063 161.64l.392.816h-.392v-.816z"/><path fill="#fdd615" d="M295.063 152.927l4.581 9.529h-4.189l-.392-.816v-8.713z"/><path fill="#fdd716" d="M295.063 147.002l1.089-.524 7.681 15.978h-4.189l-4.581-9.529v-5.925z"/><path fill="#fdd916" d="M296.152 146.478l3.403-1.635 8.467 17.613h-4.189l-7.681-15.978z"/><path fill="#fdda17" d="M299.555 144.843l3.402-1.636 9.254 19.249h-4.189l-8.467-17.613z"/><path fill="#fddb17" d="M302.957 143.207l3.403-1.636 9.309 19.365-3.161 1.52h-.297l-9.254-19.249z"/><path fill="#fddc18" d="M306.36 141.571l1.217-.585h2.69l8.805 18.315-3.403 1.635-9.309-19.365z"/><path fill="#fddd18" d="M314.456 140.986l8.018 16.679-3.402 1.636-8.805-18.315h4.189z"/><path fill="#fdde19" d="M318.645 140.986l5.855 12.179v3.526l-2.026.974-8.018-16.679h4.189z"/><path fill="#fddf19" d="M322.834 140.986l1.666 3.465v8.714l-5.855-12.179h4.189z"/><path fill="#fde01a" d="M324.5 144.451l-1.666-3.465h1.666v3.465z"/></g><g clip-path="url(#e)"><path fill="#fec20b" d="M178.285 157.937l6.441 13.399h-6.441v-13.399z"/><path fill="#fec20b" d="M180.356 149.934l10.288 21.402h-5.918l-6.441-13.399v-8.003h2.071z"/><path fill="#fec30c" d="M186.274 149.934l7.319 15.225v5.271l-1.885.906h-1.064l-10.288-21.402h5.918z"/><path fill="#fec40c" d="M192.192 149.934l1.401 2.914v12.311l-7.319-15.225h5.918z"/><path fill="#fec50d" d="M193.593 152.848l-1.401-2.914h1.401v2.914z"/></g><g clip-path="url(#f)"><path fill="#fec20b" d="M190.001 183.793l5.881 12.235h-5.881v-12.235zM190.001 172.06l11.522 23.968h-5.641l-5.881-12.235V172.06z"/><path fill="#fec30c" d="M190.001 160.328l17.162 35.7h-5.64l-11.522-23.968v-11.732z"/><path fill="#fec40c" d="M190.001 152.397l1.485-.714 21.317 44.345h-5.64l-17.162-35.7v-7.931z"/><path fill="#fec50d" d="M191.486 151.683l4.581-2.202 22.376 46.547h-5.64l-21.317-44.345z"/><path fill="#fec60d" d="M196.067 149.481l4.581-2.203 23.435 48.75h-5.64l-22.376-46.547z"/><path fill="#fec70e" d="M200.648 147.278l4.582-2.202 24.493 50.952h-5.64l-23.435-48.75z"/><path fill="#fec80e" d="M205.23 145.076l4.581-2.202 25.553 53.154h-5.641l-24.493-50.952z"/><path fill="#fec90f" d="M209.811 142.874l4.582-2.203 26.611 55.357h-5.64l-25.553-53.154z"/><path fill="#feca0f" d="M214.393 140.671l4.581-2.202 27.67 57.559h-5.64l-26.611-55.357z"/><path fill="#fecb10" d="M218.974 138.469l4.582-2.203 28.728 59.762h-5.64l-27.67-57.559z"/><path fill="#fecc10" d="M223.556 136.266l4.581-2.202 29.64 61.658-.635.306h-4.858l-28.728-59.762z"/><path fill="#fdcd11" d="M228.137 134.066l4.58-2.202 29.64 61.659-4.58 2.202z"/><path fill="#fdce11" d="M232.719 131.863l4.581-2.202 29.64 61.659-4.581 2.202z"/><path fill="#fdcf12" d="M237.3 129.659l2.561-1.231h2.487l29.174 60.687-4.582 2.203-29.64-61.659z"/><path fill="#fdd012" d="M247.989 128.428l28.114 58.485-4.581 2.202-29.174-60.687h5.641z"/><path fill="#fdd113" d="M253.629 128.428l27.056 56.283-4.582 2.202-28.114-58.485h5.64z"/><path fill="#fdd213" d="M259.269 128.428l25.997 54.08-4.581 2.203-27.056-56.283h5.64z"/><path fill="#fdd314" d="M264.909 128.428l24.939 51.878-4.582 2.202-25.997-54.08h5.64z"/><path fill="#fdd414" d="M270.549 128.428l23.88 49.675-4.581 2.203-24.939-51.878h5.64z"/><path fill="#fdd515" d="M276.189 128.428l20.528 42.702v5.874l-2.288 1.099-23.88-49.675h5.64z"/><path fill="#fdd615" d="M281.83 128.428l14.887 30.969v11.733l-20.528-42.702h5.641z"/><path fill="#fdd716" d="M287.47 128.428l9.247 19.237v11.732l-14.887-30.969h5.64z"/><path fill="#fdd916" d="M293.11 128.428l3.607 7.504v11.733l-9.247-19.237h5.64z"/><path fill="#fdda17" d="M296.717 135.932l-3.607-7.504h3.607v7.504z"/></g><g clip-path="url(#g)"><path fill="#fde11a" d="M341.062 115.364l1.414 2.941h-1.414v-2.941z"/><path fill="#fde21b" d="M341.062 103.054l7.332 15.251h-5.918l-1.414-2.941v-12.31z"/><path fill="#fde31b" d="M341.062 90.743l13.25 27.562h-5.918l-7.332-15.251V90.743z"/><path fill="#fce41c" d="M341.062 78.432l19.167 39.873h-5.917l-13.25-27.562V78.432z"/><path fill="#fce51c" d="M341.062 66.122l25.085 52.183h-5.918l-19.167-39.873v-12.31z"/><path fill="#fce61d" d="M341.062 53.811l31.003 64.494h-5.918l-25.085-52.183V53.811z"/><path fill="#fce71d" d="M341.062 41.5l36.921 76.805h-5.918l-31.003-64.494V41.5z"/><path fill="#fce81e" d="M341.062 39.658l4.088-1.965 38.751 80.612h-5.918L341.062 41.5v-1.842z"/><path fill="#fce91e" d="M345.15 37.693l4.807-2.311 38.96 81.045-3.906 1.878h-1.11L345.15 37.693z"/><path fill="#fcea1f" d="M349.957 35.382l.788-.379h4.947l38.032 79.113-4.807 2.311-38.96-81.045z"/><path fill="#fceb1f" d="M361.61 35.003l32.821 68.274v10.499l-.707.34-38.032-79.113h5.918z"/><path fill="#fcec20" d="M367.528 35.003l26.903 55.963v12.311L361.61 35.003h5.918z"/><path fill="#fced20" d="M373.446 35.003l20.985 43.653v12.31l-26.903-55.963h5.918z"/><path fill="#fcee21" d="M379.364 35.003l15.067 31.342v12.311l-20.985-43.653h5.918z"/><path fill="#fcee21" d="M394.431 66.345l-15.067-31.342h15.067v31.342z"/><path fill="#fec80e" d="M210.064 138.315l4.046 8.417h-4.046v-8.417z"/><path fill="#fec90f" d="M210.064 126.004l9.964 20.728h-5.918l-4.046-8.417v-12.311z"/><path fill="#feca0f" d="M210.064 113.694l15.882 33.038h-5.918l-9.964-20.728v-12.31z"/><path fill="#fecb10" d="M210.064 101.383l21.8 45.349h-5.918l-15.882-33.038v-12.311z"/><path fill="#fecc10" d="M210.064 94.148l1.982-.953 25.736 53.537h-5.918l-21.8-45.349v-7.235z"/><path fill="#fdcd11" d="M212.046 93.195l4.807-2.31 26.847 55.847h-5.918l-25.736-53.537z"/><path fill="#fdce11" d="M216.853 90.885l4.807-2.311 27.958 58.158H243.7l-26.847-55.847z"/><path fill="#fdcf12" d="M221.66 88.574l4.807-2.311 29.069 60.469h-5.918L221.66 88.574z"/><path fill="#fdd012" d="M226.467 86.263l4.807-2.311 30.18 62.78h-5.918l-29.069-60.469z"/><path fill="#fdd113" d="M231.274 83.952l4.807-2.311 31.291 65.091h-5.918l-30.18-62.78z"/><path fill="#fdd213" d="M236.081 81.641l4.807-2.311 32.402 67.402h-5.918l-31.291-65.091z"/><path fill="#fdd314" d="M240.888 79.33l4.808-2.311 33.512 69.713h-5.918L240.888 79.33z"/><path fill="#fdd414" d="M245.696 77.019l4.807-2.31 34.623 72.023h-5.918l-33.512-69.713z"/><path fill="#fdd515" d="M250.503 74.709l4.807-2.311 35.734 74.334h-5.918l-34.623-72.023z"/><path fill="#fdd615" d="M255.31 72.398l4.807-2.311 36.844 76.645h-5.917L255.31 72.398z"/><path fill="#fdd716" d="M260.117 70.087l4.807-2.311 37.955 78.956h-5.918l-36.844-76.645z"/><path fill="#fdd916" d="M264.924 67.776l4.807-2.311 39.066 81.267h-5.918l-37.955-78.956z"/><path fill="#fdda17" d="M269.731 65.465l4.807-2.311 40.177 83.578h-5.918l-39.066-81.267z"/><path fill="#fddb17" d="M274.538 63.154l4.807-2.31 41.288 85.888h-5.918l-40.177-83.578z"/><path fill="#fddc18" d="M279.345 60.844l4.807-2.311 42.399 88.199h-5.918l-41.288-85.888z"/><path fill="#fddd18" d="M284.152 58.533l4.807-2.311 43.51 90.51h-5.918l-42.399-88.199z"/><path fill="#fdde19" d="M288.959 56.222l4.807-2.311 44.621 92.821h-5.918l-43.51-90.51z"/><path fill="#fddf19" d="M293.766 53.911l4.808-2.311 45.731 95.132h-5.918l-44.621-92.821z"/><path fill="#fde01a" d="M298.574 51.6l4.807-2.311 46.842 97.443h-5.918L298.574 51.6z"/><path fill="#fde11a" d="M303.381 49.289l4.807-2.311 47.663 99.151-1.254.603h-4.374l-46.842-97.443z"/><path fill="#fde21b" d="M308.188 46.98l4.807-2.311 47.663 99.15-4.807 2.312z"/><path fill="#fde31b" d="M312.995 44.67l4.807-2.312 47.663 99.151-4.807 2.311z"/><path fill="#fce41c" d="M317.803 42.36l4.807-2.311 47.663 99.15-4.808 2.312z"/><path fill="#fce51c" d="M322.507 40.126l4.806-2.31 47.635 99.121-4.806 2.31z"/><path fill="#fce61d" d="M327.418 37.737l4.807-2.31 47.663 99.15-4.807 2.311z"/><path fill="#fce71d" d="M332.224 35.426l4.807-2.311 47.663 99.151-4.807 2.31z"/><path fill="#fce81e" d="M337.031 33.116l4.808-2.311 47.662 99.15-4.807 2.311z"/><path fill="#fce91e" d="M341.838 30.804l4.808-2.31 47.663 99.15-4.808 2.311z"/><path fill="#fcea1f" d="M346.644 28.492l3.467-1.667h1.65l47.354 98.507-4.807 2.311-47.664-99.151z"/><path fill="#fceb1f" d="M357.679 26.825l46.243 96.196-4.807 2.311-47.354-98.507h5.918z"/><path fill="#fcec20" d="M363.597 26.825l42.133 87.646v7.681l-1.808.869-46.243-96.196h5.918z"/><path fill="#fced20" d="M369.515 26.825l36.215 75.335v12.311l-42.133-87.646h5.918z"/><path fill="#fcee21" d="M375.433 26.825L405.73 89.85v12.31l-36.215-75.335h5.918zM405.73 89.85l-30.297-63.025h30.297V89.85z"/></g><path d="M221.533 164.656a88.8 88.8 0 00-4.386-12.991c-2.7-6.073-7.929-49.43 9.955-51.455 0 0 4.386-2.193 4.217 8.268s2.193 7.485 6.748 3.152 13.158-7.708 16.7-2.478-2.531 12.822-7.59 17.041 2.866 7.253 7.083 12.651 4.722 19.739-3.038 29.861z" fill="#c28557"/><path d="M227.531 102.22a20.657 20.657 0 01.791 2.509c.411 1.5.771 3.481 1.09 5.438l.462 2.846c.148.908.318 1.716.5 2.393a8.035 8.035 0 00.327.883 3.107 3.107 0 00.4.6 1.72 1.72 0 00.392.3l.172.091a1.722 1.722 0 01-.783.028 2.493 2.493 0 01-.857-.4 4.272 4.272 0 01-.852-.837 12.239 12.239 0 01-2.121-5.517 20.223 20.223 0 01-.1-5.734 12.353 12.353 0 01.579-2.6zM253.049 114.864s-.434.815-1.306 2.166c-.439.671-.946 1.515-1.6 2.424s-1.378 1.947-2.212 3.049-1.817 2.248-2.857 3.455l-.393.458-.2.231c.023-.024-.072.076.051-.051l-.012.015-.023.029-.047.058-.094.116a4.062 4.062 0 00-.622.869 3.8 3.8 0 00-.313.724 1.99 1.99 0 00-.055.713 3.956 3.956 0 00.66 1.664c.413.623.913 1.274 1.45 1.964a41.465 41.465 0 013.327 4.591c.486.9.874 1.615 1.3 2.473.4.88.8 1.76 1.147 2.644.309.9.6 1.79.873 2.673.22.9.385 1.805.571 2.683a14.89 14.89 0 01.32 2.62c.036.861.158 1.7.113 2.513a35.783 35.783 0 01-.394 4.553 108.928 108.928 0 01-.79 3.74c-.324 1.085-.7 2-.967 2.767-.563 1.517-.92 2.356-.92 2.356s.06-.934.226-2.52l.311-2.837c.014-1.1.03-2.336.091-3.664a12.89 12.89 0 00-.089-2.067l-.138-2.193c-.042-.75-.251-1.5-.369-2.274a18.066 18.066 0 00-.479-2.338c-.225-.778-.425-1.575-.675-2.366q-.47-1.157-.906-2.349c-.334-.772-.728-1.519-1.07-2.293-.387-.764-.881-1.642-1.263-2.344a38.509 38.509 0 00-2.962-4.266 19.119 19.119 0 01-1.59-2.407 7.053 7.053 0 01-.922-3.229 5.11 5.11 0 011.136-3.258 6.6 6.6 0 01.917-1.012l.278-.276.214-.2.425-.395 3.217-2.94a106.97 106.97 0 012.7-2.563l2.088-1.986z" fill="#a76e44"/><path d="M214.3 170.392l40.924.958s-.013 115.277-78.51 115.277c0 0 24.408 86.715 22.721 103.922 0 0-47.237 16.2-85.026-14.17 0 0 20.382-50.613 21.831-149.137a24.02 24.02 0 0120.246-14.634s11.763 34.2 14.029 46.016c-.002 0 36.605 12.251 43.785-88.232z" fill="#e75b4c"/><path d="M228.108 261.956s-12.7-12.105-26.878-1.539c-14.17 10.585-21.586 14.655-16.414 25.77 0-.001 24.284.013 43.292-24.231z" fill="#a1884d"/><path d="M140.05 232.073l4.588 5.315c1.385 1.576 3 3.4 4.763 5.318.877.962 1.822 1.918 2.762 2.9s1.923 1.957 2.938 2.89a61.57 61.57 0 003.039 2.759l1.542 1.282c.523.4 1.03.814 1.547 1.193 1.042.741 2.049 1.463 3.053 2.061.5.3.992.6 1.481.841a15.507 15.507 0 001.423.714 21.3 21.3 0 002.6 1l1.13.317c.357.067.686.13.982.188a12.518 12.518 0 001.405.179l.507.051-.5.079a8.407 8.407 0 01-1.439.164c-.315.009-.664.016-1.044.025-.378-.02-.786-.069-1.226-.108a15.755 15.755 0 01-2.9-.615 20.264 20.264 0 01-3.268-1.269 28.6 28.6 0 01-3.4-1.9 38.551 38.551 0 01-3.365-2.428c-1.089-.9-2.175-1.826-3.212-2.806s-2.015-2.017-2.969-3.04-1.826-2.089-2.674-3.111a69.752 69.752 0 01-4.265-5.867 49.763 49.763 0 01-3.498-6.132z" fill="#c64d44"/><path fill="#f2f2f2" d="M215.291 170.415l1.543-6.678 36.861 5.231-.646 2.509-37.758-1.062z"/><path d="M143.289 258.855s1.635 2.832 4.488 6.711c.72.966 1.517 2 2.381 3.061s1.823 2.147 2.828 3.248 2.112 2.166 3.239 3.239a42.649 42.649 0 003.6 3.025 37.252 37.252 0 003.867 2.65 42.753 42.753 0 004 2.133c.67.306 1.352.548 2 .841l1.961.7c1.3.383 2.536.742 3.705.973.58.147 1.145.228 1.685.31s1.049.187 1.534.241c.971.073 1.823.2 2.529.234 1.411.057 2.231.111 2.231.111s-.8.146-2.217.364c-.71.1-1.581.139-2.583.2a28.207 28.207 0 01-3.377-.106 28.733 28.733 0 01-3.975-.609l-2.133-.562a48.079 48.079 0 01-2.175-.763 32.955 32.955 0 01-4.353-2.081 38.759 38.759 0 01-4.15-2.744 45.421 45.421 0 01-3.743-3.253 43.458 43.458 0 01-3.232-3.527 42.575 42.575 0 01-2.671-3.567 43.643 43.643 0 01-2.1-3.378 37.715 37.715 0 01-3.339-7.451z" fill="#c64d44"/><path d="M176.739 286.717a37.15 37.15 0 01-10.49-3.39 68.882 68.882 0 01-6.154-3.467c-1.178 16.8-3.4 33.462-6.1 50.1-2.7 16.666-6.828 33.863-17.952 47.1a50.306 50.306 0 01-8.511 7.929c34.762 18.286 71.9 5.558 71.9 5.558 1.66-16.898-21.857-100.847-22.693-103.83z" fill="#d35248"/><path d="M168.819 300.04s.475 1.43 1.22 3.958c.726 2.53 1.806 6.14 2.938 10.512 1.157 4.364 2.4 9.484 3.63 15 .577 2.763 1.245 5.6 1.794 8.519s1.154 5.864 1.662 8.836 1.005 5.942 1.425 8.881c.474 2.93.813 5.833 1.134 8.643.372 2.8.58 5.533.782 8.12.254 2.578.318 5.037.4 7.3.027 1.132.112 2.213.085 3.247s-.048 2.014-.07 2.935c-.037 1.84-.065 3.44-.227 4.757-.25 2.632-.426 4.121-.426 4.121s-.035-1.513-.039-4.137c.044-1.311-.071-2.9-.2-4.726s-.24-3.876-.5-6.112c-.229-2.235-.447-4.656-.8-7.209a287.624 287.624 0 00-1.092-8.023q-.308-2.086-.621-4.233l-.708-4.328c-.443-2.917-.97-5.87-1.5-8.823-.477-2.961-1.049-5.906-1.573-8.813l-1.586-8.529-2.907-15.115c-1.69-8.872-2.821-14.781-2.821-14.781z" fill="#c64d44"/><path d="M130.266 358.158s26.318-14.845 30.705-23.616c0 0 16.217 32.053-4.039 38.463s-26.666-14.847-26.666-14.847z" fill="#a1884d"/><path d="M160.97 334.542c-1.218 2.434-6.259 7.033-9.826 9.956-1.24 7.9-2.2 13.024-6.206 19.987a45.955 45.955 0 01-4.765 7.02 20.976 20.976 0 0016.757 1.5c20.258-6.405 4.04-38.463 4.04-38.463z" fill="#8c7444"/><g style="isolation:isolate"><path d="M556.785 163.3a7.54 7.54 0 01-6.072-2.772c3.564-2.112 5.94-7 5.94-11.352 0-4.62-2.508-8.844-9.768-8.844s-12.145 4.091-12.145 12.012c0 19.405 29.7 22.045 29.7 50.558 0 22.177-17.952 33-37.093 33-15.048 0-27.985-6.6-27.985-22.705 0-14.257 10.165-21.649 19.405-21.649 4.62 0 11.22 1.848 11.616 8.712-7.128 0-15.444 3.3-15.444 12.408 0 6.6 4.224 12.673 12.672 12.673 8.844 0 15.313-6.468 15.313-17.556 0-22.573-27.061-30.625-27.061-50.03 0-13.728 13.464-23.629 30.493-23.629 6.2 0 21.252 1.321 21.252 15.841.001 7.655-4.223 13.333-10.823 13.333zM598.363 222.832c10.428 0 16.764-5.808 23.364-13.333h4.489c-7.525 12.145-18.745 24.421-36.3 24.421-12.408 0-20.592-6.072-20.592-20.988 0-15.181 8.58-46.993 35.641-46.993 11.748 0 14.52 6.071 14.52 12.672 0 15.18-14.52 26.928-30.361 27.852-.132 1.849-.264 3.7-.264 5.281-.002 8.976 3.167 11.088 9.503 11.088zm7.656-49.9c-6.732 0-13.2 14.124-15.841 27.192 10.165-.66 19.141-10.824 19.141-21.78 0-3.298-.792-5.409-3.3-5.409z"/><path d="M660.137 178.347c0-3.3-1.188-5.412-3.7-5.412-8.316 0-16.9 24.156-16.9 38.809 0 8.976 3.168 11.088 9.5 11.088 10.428 0 16.765-5.808 23.365-13.333h4.498c-7.524 12.145-18.745 24.421-36.3 24.421-12.408 0-20.592-6.072-20.592-20.988 0-15.312 8.711-46.993 35.508-46.993 11.749 0 14.653 6.071 14.653 12.143 0 6.469-3.168 9.637-7 9.637a8.455 8.455 0 01-4.621-1.584 23.3 23.3 0 001.589-7.788z"/><path d="M723.628 187.059a3.1 3.1 0 001.452.264c6.073 0 14.653-3.96 20.329-7.92l1.188 3.564c-5.016 5.412-13.729 9.372-23.365 10.956-2.112 24.421-15.313 39.734-31.549 39.734-12.276 0-21.12-5.809-21.12-20.857 0-15.18 8.976-46.861 36.169-46.861 11.352 0 16.896 7.261 16.896 21.12zm-11.351 7.26c-2.773-.659-3.565-2.9-3.565-5.544 0-3.7 1.716-6.072 4.092-7.128-.264-5.544-1.584-7.656-5.016-7.656-9.372 0-17.557 24.156-17.557 37.092 0 8.713 1.716 10.693 6.733 10.693 6.468 0 13.199-11.876 15.313-27.457z"/><path d="M763.623 178.611c-4.753 0-8.316 5.544-10.3 12.144l-8.976 42.373h-19.005l13.992-66h19.009l-1.452 6.865c5.544-6.336 11.352-7.393 15.444-7.393 8.448 0 14.653 4.357 14.653 14.917 0 10.692-6.336 26.665-6.336 34.057 0 3.3 1.32 5.544 5.28 5.544 5.807 0 8.184-4.752 11.088-11.617h5.545c-7.393 21.649-17.558 24.421-24.554 24.421-11.484 0-15.576-7.392-15.576-14.916 0-8.976 5.94-25.213 5.94-33.661 0-4.358-1.584-6.734-4.752-6.734z"/><path d="M850.742 212.007a20.572 20.572 0 00-.528 3.828c0 3.037 1.32 5.281 5.412 5.281a8.583 8.583 0 004.225-.792c-.66 9.373-7.393 13.6-14.521 13.6-6.732 0-12.144-3.3-13.728-10.956-3.96 5.676-10.032 10.956-18.744 10.956-8.977 0-17.557-5.544-17.557-21.253 0-17.82 10.956-46.2 33.925-46.2 7.524 0 10.692 2.905 10.692 6.733v.528l6.468-30.361 19.537-2.64zm-12.012-32.736a5.236 5.236 0 00-5.412-4.62c-11.22 0-18.481 23.761-18.481 36.169 0 10.164 4.225 10.3 6.6 10.3 3.431 0 8.843-3.036 10.3-9.5z"/><path d="M891.926 230.489c13.729 3.036 27.589 17.029 44.354 17.029a28.433 28.433 0 0011.087-2.113c-1.32 12.672-6.6 20.725-13.728 20.725-18.877 0-35.509-29.966-58.874-29.966a23.367 23.367 0 00-3.036.132l19.671-91.478c-11.485 4.752-18.481 14.652-18.481 28.776 0 6.733 1.716 7.789 1.848 8.977-9.108 0-14.124-3.3-14.124-12.8 0-17.557 24.289-34.321 46.333-34.321 1.848 0 3.564.132 5.28.263z"/><path d="M937.861 167.126l-9.5 44.881a18.337 18.337 0 00-.529 4.225c0 3.7 1.717 4.884 5.412 4.884 5.149 0 9.9-5.016 11.881-11.617h5.544c-7.524 21.517-20.593 24.421-27.72 24.421-7.92 0-14.124-4.752-14.124-15.84a43.3 43.3 0 011.055-8.581l8.977-42.373zm-5.94-28.117a10.592 10.592 0 0110.56 10.561 10.479 10.479 0 01-10.56 10.43 10.367 10.367 0 01-10.429-10.428 10.48 10.48 0 0110.429-10.563z"/><path d="M978.385 178.611c-4.752 0-8.316 5.544-10.3 12.144l-8.976 42.373H940.1l13.993-66h19.008l-1.451 6.865c5.543-6.336 11.351-7.393 15.444-7.393 8.448 0 14.652 4.357 14.652 14.917 0 10.692-6.337 26.665-6.337 34.057 0 3.3 1.321 5.544 5.281 5.544 5.808 0 8.184-4.752 11.088-11.617h5.544c-7.392 21.649-17.556 24.421-24.552 24.421-11.485 0-15.577-7.392-15.577-14.916 0-8.976 5.94-25.213 5.94-33.661.004-4.358-1.58-6.734-4.748-6.734z"/><path d="M1037.652 221.38c5.015 0 11.351-3.3 15.576-7-2.773 15.048-12.277 19.536-22.837 19.536-12.277 0-20.46-6.072-20.46-20.988 0-15.181 8.58-46.993 35.641-46.993 11.748 0 14.52 6.071 14.52 12.672 0 15.312-14.52 26.928-30.361 27.852-.132 1.321-.264 2.773-.264 3.96 0 8.321 3.564 10.961 8.185 10.961zm8.975-48.445c-6.6 0-13.2 14.652-15.971 27.192 10.3-.528 19.272-10.692 19.272-21.78 0-3.301-.792-5.412-3.301-5.412zM1075.006 181.383c-9.107 0-14.124-3.3-14.124-12.8 0-17.557 13.86-34.322 46.466-34.322 6.071 0 22.176 3.433 35.641 3.433 6.467 0 12.276-.792 15.972-3.168-3.168 5.808-5.016 9.636-11.089 39.732 5.677-6.467 11.485-7.656 15.709-7.656 8.449 0 14.653 4.357 14.653 14.917 0 10.692-6.336 26.665-6.336 34.057 0 3.3 1.319 5.544 5.279 5.544 5.809 0 8.185-4.752 11.089-11.617h5.544c-7.393 21.649-17.557 24.421-24.553 24.421-11.484 0-15.576-7.392-15.576-14.916 0-8.976 5.94-25.213 5.94-33.661 0-4.356-1.584-6.732-4.753-6.732-4.62 0-8.051 5.148-10.032 11.352-2.244 11.485-4.884 25.609-8.052 43.165h-19.008l18.085-84.218c-5.413-.4-11.353-1.453-17.425-2.245l-18.613 86.463h-19.008l18.877-87.65c-14.786.528-26.534 6.2-26.534 26.929 0 6.728 1.716 7.789 1.848 8.972z"/><path d="M1215.586 222.832c10.428 0 16.764-5.808 23.364-13.333h4.489c-7.525 12.145-18.745 24.421-36.3 24.421-12.409 0-20.593-6.072-20.593-20.988 0-15.181 8.58-46.993 35.641-46.993 11.748 0 14.52 6.071 14.52 12.672 0 15.18-14.52 26.928-30.36 27.852-.133 1.849-.265 3.7-.265 5.281-.001 8.976 3.167 11.088 9.504 11.088zm7.656-49.9c-6.732 0-13.2 14.124-15.84 27.192 10.164-.66 19.14-10.824 19.14-21.78 0-3.298-.792-5.409-3.3-5.409z"/><path d="M1304.818 178.611c-4.752 0-8.317 5.544-10.3 12.144l-8.976 42.373h-19.009l9.636-45.541a13.251 13.251 0 00.4-3.3c0-2.9-1.056-5.808-3.96-5.808-5.149 0-8.713 5.676-10.693 12.276l-8.976 42.373h-19.009l13.993-66h19.008l-1.451 6.865c5.544-6.336 11.484-7.525 16.1-7.525 7 0 12.144 3.168 13.6 11.353 6.336-9.769 13.465-11.221 18.349-11.221 8.448 0 14.652 4.357 14.652 14.917 0 10.692-6.336 26.665-6.336 34.057 0 3.3 1.32 5.544 5.28 5.544 5.808 0 8.184-4.752 11.088-11.617h5.544c-7.392 21.649-17.556 24.421-24.553 24.421-11.483 0-15.576-7.392-15.576-14.916 0-8.976 5.941-25.213 5.941-33.661 0-4.358-1.584-6.734-4.752-6.734z"/><path d="M1365.536 222.832c10.428 0 16.764-5.808 23.365-13.333h4.488c-7.525 12.145-18.745 24.421-36.3 24.421-12.409 0-20.593-6.072-20.593-20.988 0-15.181 8.58-46.993 35.641-46.993 11.748 0 14.52 6.071 14.52 12.672 0 15.18-14.52 26.928-30.36 27.852-.133 1.849-.265 3.7-.265 5.281-.001 8.976 3.168 11.088 9.504 11.088zm7.657-49.9c-6.733 0-13.2 14.124-15.841 27.192 10.164-.66 19.14-10.824 19.14-21.78 0-3.298-.792-5.409-3.299-5.409z"/><path d="M1427.443 163.035c1.584 34.188 2.9 39.337 2.9 48.048 0 17.162-15.576 22.837-26.4 22.837-13.465 0-19.273-8.843-19.273-16.9 0-6.072 3.432-10.561 7-12.277 7.392-13.068 12.144-26.136 16.236-39.073zm-32.209 52.933c-1.32 0-2.9-.4-3.564-1.717 0 6.2 2.244 9.241 8.052 9.241s11.484-3.036 11.484-12.277c0-6.863-1.188-10.956-2.508-31.284a150.914 150.914 0 01-10.692 24.948 4.979 4.979 0 013.036 4.62c0 3.168-2.376 6.469-5.808 6.469z"/></g></svg>