<svg id="f358dd00-1201-434f-9746-0d3008b5f263" data-name="Layer 1" xmlns="http://www.w3.org/2000/svg" viewBox="0 0 128 128"><defs><linearGradient id="f404da1d-7619-4b9b-9499-419de6792e92" x1="-84.42" y1="214.15" x2="-84.42" y2="214.67" gradientTransform="matrix(248, 0, 0, -248, 20999, 53237)" gradientUnits="userSpaceOnUse"><stop offset="0.25" stop-color="#dbdbda"/><stop offset="1" stop-color="#fff"/></linearGradient><radialGradient id="983db79a-b3c0-4e39-86b1-8a53031b50e9" cx="-84.37" cy="214.46" r="0.32" gradientTransform="matrix(229.4, 0, 0, -229.4, 19427.3, 49247.3)" gradientUnits="userSpaceOnUse"><stop offset="0" stop-color="#2abce1"/><stop offset="0.11" stop-color="#2abbe1"/><stop offset="1" stop-color="#3375f8"/></radialGradient><linearGradient id="9d2e2d9a-8a31-40bd-b483-00e565e6534a" x1="-84.38" y1="214.45" x2="-84.5" y2="214.24" gradientTransform="matrix(229.4, 0, 0, -229.4, 19427.98, 49247.2)" gradientUnits="userSpaceOnUse"><stop offset="0" stop-opacity="0"/><stop offset="1"/></linearGradient></defs><circle cx="64" cy="64" r="64" fill="url(#f404da1d-7619-4b9b-9499-419de6792e92)"/><circle cx="64" cy="64" r="59.2" fill="url(#983db79a-b3c0-4e39-86b1-8a53031b50e9)"/><path d="M64.1,19.2a.8.8,0,0,1-.8-.7V8.1a.9.9,0,0,1,.8-.8.8.8,0,0,1,.7.8V18.5a.7.7,0,0,1-.7.7Z" fill="#f3f3f3"/><path d="M64.1,19.2a.8.8,0,0,1-.8-.7V8.1a.9.9,0,0,1,.8-.8.8.8,0,0,1,.8.8V18.5a.8.8,0,0,1-.8.7Zm0-11.8a.8.8,0,0,0-.7.7V18.5c0,.4.3.6.7.6a.7.7,0,0,0,.7-.6V8.1a.8.8,0,0,0-.7-.7Z" fill="#fff"/><path d="M69.1,13.6a.8.8,0,0,1-.7-.7l.4-4.7a.6.6,0,0,1,.8-.6.7.7,0,0,1,.6.7L69.9,13a.8.8,0,0,1-.8.6Z" fill="#f3f3f3"/><path d="M69.1,13.6a.9.9,0,0,1-.8-.7l.4-4.7a.8.8,0,0,1,.9-.7.8.8,0,0,1,.7.8L69.9,13a.6.6,0,0,1-.8.6Zm.5-6c-.4,0-.8.2-.8.6l-.3,4.7a.7.7,0,0,0,.7.6.6.6,0,0,0,.6-.5l.4-4.7a.7.7,0,0,0-.6-.7Z" fill="#fff"/><path d="M72.9,20.1a.9.9,0,0,1-.7-.9L74.3,9c.1-.4.5-.7.8-.6a.9.9,0,0,1,.7.9L73.7,19.5a.8.8,0,0,1-.8.6Z" fill="#f3f3f3"/><path d="M72.9,20.1a.8.8,0,0,1-.7-.9L74.2,9a1,1,0,0,1,1-.6,1,1,0,0,1,.7.9L73.8,19.5a.7.7,0,0,1-.9.6ZM75.2,8.5a.7.7,0,0,0-.8.5l-2,10.2c-.1.4.1.8.5.8a.7.7,0,0,0,.8-.5L75.8,9.3a.8.8,0,0,0-.6-.8Z" fill="#fff"/><path d="M78.9,15.6a.7.7,0,0,1-.6-.9l1.3-4.5c0-.4.5-.6.8-.5a.7.7,0,0,1,.6.9l-1.2,4.5a.8.8,0,0,1-.9.5Z" fill="#f3f3f3"/><path d="M78.9,15.6c-.5-.1-.8-.5-.6-.9l1.3-4.5c0-.4.5-.6.9-.6a1,1,0,0,1,.6,1l-1.3,4.5a.7.7,0,0,1-.9.5Zm1.6-5.8a.8.8,0,0,0-.9.4l-1.2,4.6a.5.5,0,0,0,.5.7.7.7,0,0,0,.9-.4L81,10.6a.6.6,0,0,0-.5-.8Z" fill="#fff"/><path d="M81.3,22.7a.9.9,0,0,1-.4-1l4-9.6a.7.7,0,0,1,1-.4.7.7,0,0,1,.3.9l-4,9.7a.7.7,0,0,1-.9.4Z" fill="#f3f3f3"/><path d="M81.3,22.7a.7.7,0,0,1-.4-1l4-9.6c.1-.5.5-.6,1-.5a.9.9,0,0,1,.5,1l-4,9.7a.9.9,0,0,1-1.1.4Zm4.6-10.9a.8.8,0,0,0-1,.3l-4,9.7a.7.7,0,0,0,.5.8.5.5,0,0,0,.8-.4l4-9.6a.6.6,0,0,0-.3-.8Z" fill="#fff"/><path d="M88.1,19.5a.9.9,0,0,1-.4-1l2.1-4.1a.8.8,0,0,1,1-.4.8.8,0,0,1,.3,1l-2,4.1a.9.9,0,0,1-1,.4Z" fill="#f3f3f3"/><path d="M88.1,19.5a.7.7,0,0,1-.4-1l2.1-4.2c.2-.4.6-.5,1.1-.3a.7.7,0,0,1,.3,1l-2.1,4.1a.8.8,0,0,1-1,.4ZM90.8,14a.7.7,0,0,0-.9.4l-2.1,4.1a.7.7,0,0,0,.3.9c.3.1.8.1.9-.3L91.1,15a.9.9,0,0,0-.3-1Z" fill="#fff"/><path d="M89.1,26.8a.6.6,0,0,1-.2-1l5.7-8.6a.8.8,0,0,1,1-.2.7.7,0,0,1,.3,1l-5.8,8.7a.7.7,0,0,1-1,.1Z" fill="#f3f3f3"/><path d="M89.1,26.9a.8.8,0,0,1-.3-1.1l5.8-8.7a.8.8,0,0,1,1.1-.1.7.7,0,0,1,.2,1l-5.8,8.7a.7.7,0,0,1-1,.2ZM95.6,17a.8.8,0,0,0-.9.2l-5.8,8.6a.7.7,0,0,0,1.2.8L95.9,18a.8.8,0,0,0-.3-1Z" fill="#fff"/><path d="M96.4,25a.7.7,0,0,1-.2-1l2.9-3.6a.7.7,0,0,1,1-.2c.3.3.4.8.1,1l-2.8,3.7a.8.8,0,0,1-1,.1Z" fill="#f3f3f3"/><path d="M96.3,25a.7.7,0,0,1-.2-1l3-3.7a.7.7,0,0,1,1-.1.7.7,0,0,1,.2,1.1L97.4,25a.8.8,0,0,1-1.1,0Zm3.8-4.7a.7.7,0,0,0-1,.1L96.2,24a.8.8,0,0,0,.2,1,.6.6,0,0,0,.9-.1l2.9-3.7a.6.6,0,0,0-.1-.9Z" fill="#fff"/><path d="M95.9,32.5a.7.7,0,0,1,0-1l7.3-7.3c.4-.4.8-.3,1,0a.6.6,0,0,1,0,1l-7.3,7.3a.7.7,0,0,1-1,0Z" fill="#f3f3f3"/><path d="M95.8,32.5a.7.7,0,0,1,0-1l7.4-7.4a.8.8,0,1,1,1.1,1.1l-7.4,7.3a.8.8,0,0,1-1.1,0Zm8.4-8.3a.6.6,0,0,0-.9,0l-7.4,7.3a.7.7,0,0,0,0,1,.9.9,0,0,0,1,0l7.3-7.4a.6.6,0,0,0,0-.9Z" fill="#fff"/><path d="M103.4,32.1a.7.7,0,0,1,0-1l3.5-3a.7.7,0,0,1,1,1.1l-3.5,3a.7.7,0,0,1-1-.1Z" fill="#f3f3f3"/><path d="M103.3,32.2a.9.9,0,0,1,.1-1.2l3.5-3a.8.8,0,0,1,1.1.2.7.7,0,0,1-.1,1l-3.5,3a.8.8,0,0,1-1.1,0Zm4.6-4a.8.8,0,0,0-1-.1l-3.5,3a.6.6,0,0,0,0,.9.8.8,0,0,0,.9.2l3.6-3a.9.9,0,0,0,0-1Z" fill="#fff"/><path d="M101.4,39.3a.6.6,0,0,1,.2-1l8.6-5.8c.4-.2.9-.1,1,.2a.7.7,0,0,1-.1,1l-8.7,5.8a.8.8,0,0,1-1-.2Z" fill="#f3f3f3"/><path d="M101.3,39.3c-.2-.4-.2-.9.2-1.1l8.7-5.8c.4-.2.9-.2,1.1.3s.1.8-.2,1.1l-8.7,5.8a.9.9,0,0,1-1.1-.3Zm9.9-6.5a.7.7,0,0,0-.9-.3l-8.7,5.8a.7.7,0,0,0,.8,1.2l8.7-5.8a.6.6,0,0,0,.1-.9Z" fill="#fff"/><path d="M108.8,40.3a.7.7,0,0,1,.3-1l4-2.3a.8.8,0,0,1,1,.3c.2.4.1.9-.2,1l-4.1,2.4a.8.8,0,0,1-1-.4Z" fill="#f3f3f3"/><path d="M108.8,40.4a.8.8,0,0,1,.2-1.1l4.1-2.3a.8.8,0,0,1,1,.3.9.9,0,0,1-.2,1.1l-4.1,2.3a.7.7,0,0,1-1-.3Zm5.3-3a.7.7,0,0,0-1-.2l-4,2.2c-.3.3-.4.7-.2.9a.6.6,0,0,0,.9.3l4-2.3c.3-.1.4-.5.3-.9Z" fill="#fff"/><path d="M105.4,47a.7.7,0,0,1,.5-.9l9.6-4a.6.6,0,0,1,.9.3.8.8,0,0,1-.3,1l-9.7,4a.8.8,0,0,1-1-.4Z" fill="#f3f3f3"/><path d="M105.4,47.1a.8.8,0,0,1,.4-1.1l9.6-4a.7.7,0,0,1,1,.4.9.9,0,0,1-.3,1.1l-9.7,4a.8.8,0,0,1-1-.4Zm11-4.6a.9.9,0,0,0-.9-.4l-9.6,4a.7.7,0,0,0-.4.9.8.8,0,0,0,.9.4l9.6-4a.7.7,0,0,0,.4-.9Z" fill="#fff"/><path d="M112.5,49.5a.8.8,0,0,1,.4-.9l4.5-1.5c.3-.2.7.1.8.5s0,.7-.4.9l-4.4,1.4a.6.6,0,0,1-.9-.4Z" fill="#f3f3f3"/><path d="M112.4,49.6a.8.8,0,0,1,.5-1l4.5-1.5c.4-.2.8.1,1,.5a.9.9,0,0,1-.5,1l-4.5,1.5c-.3.1-.8-.2-1-.5Zm5.8-1.9a.6.6,0,0,0-.8-.5L113,48.7a.6.6,0,0,0-.4.8c.1.3.5.6.8.4l4.5-1.4c.3-.2.5-.5.3-.8Z" fill="#fff"/><path d="M108,55.4a.7.7,0,0,1,.6-.8l10.2-2a.6.6,0,0,1,.8.6.7.7,0,0,1-.5.9l-10.2,2a.9.9,0,0,1-.9-.7Z" fill="#f3f3f3"/><path d="M107.9,55.4a.8.8,0,0,1,.6-.9l10.3-2a.7.7,0,0,1,.8.7c.2.4-.2.8-.5.9l-10.3,2a.8.8,0,0,1-.9-.7Zm11.7-2.2a.7.7,0,0,0-.8-.5l-10.2,2c-.4,0-.7.4-.5.7a.6.6,0,0,0,.7.6l10.3-2a.8.8,0,0,0,.5-.8Z" fill="#fff"/><path d="M114.4,59.3a.8.8,0,0,1,.6-.8l4.6-.6a.8.8,0,0,1,.8.7.8.8,0,0,1-.6.8l-4.6.5a.7.7,0,0,1-.8-.6Z" fill="#f3f3f3"/><path d="M114.4,59.3a.7.7,0,0,1,.6-.9l4.6-.6a.8.8,0,0,1,.8.8.6.6,0,0,1-.6.8l-4.6.6a.7.7,0,0,1-.8-.7Zm6-.7a.6.6,0,0,0-.8-.6l-4.5.6a.6.6,0,0,0-.6.7.7.7,0,0,0,.7.6l4.7-.6c.3,0,.5-.4.5-.7Z" fill="#fff"/><path d="M108.8,64.2a.8.8,0,0,1,.7-.8h10.4a.7.7,0,0,1,.7.8.6.6,0,0,1-.7.7H109.5a.7.7,0,0,1-.7-.7Z" fill="#f3f3f3"/><path d="M108.8,64.2a.8.8,0,0,1,.7-.9h10.4a.8.8,0,0,1,.8.9.7.7,0,0,1-.8.7H109.5a.7.7,0,0,1-.7-.7Zm11.8,0a.7.7,0,0,0-.7-.7H109.5c-.4,0-.6.3-.6.7s.2.7.6.7h10.4c.4-.1.7-.3.7-.7Z" fill="#fff"/><path d="M114.4,69.2a.7.7,0,0,1,.7-.7l4.7.3a.9.9,0,0,1,.6.9c0,.4-.3.6-.8.6L115,70a.8.8,0,0,1-.6-.8Z" fill="#f3f3f3"/><path d="M114.3,69.2c.1-.4.4-.8.8-.8l4.7.4a.7.7,0,0,1,.6.9.7.7,0,0,1-.8.7l-4.6-.3a1,1,0,0,1-.7-.9Zm6.1.5c0-.4-.3-.8-.6-.8l-4.7-.3a.7.7,0,0,0-.7.6.7.7,0,0,0,.7.7l4.6.4a.7.7,0,0,0,.7-.6Z" fill="#fff"/><path d="M107.9,72.9a.9.9,0,0,1,.9-.7L119,74.3a.8.8,0,0,1,.6.8.9.9,0,0,1-.9.7l-10.3-2.1a.9.9,0,0,1-.5-.8Z" fill="#f3f3f3"/><path d="M107.9,72.9a.7.7,0,0,1,.9-.7l10.2,2a1,1,0,0,1,.6,1,1,1,0,0,1-.9.7l-10.3-2.1a.8.8,0,0,1-.5-.9Zm11.6,2.3a.7.7,0,0,0-.5-.8l-10.2-2a.8.8,0,0,0-.9.5.9.9,0,0,0,.5.8l10.3,2.1a.8.8,0,0,0,.8-.6Z" fill="#fff"/><path d="M112.4,78.9a.7.7,0,0,1,.9-.6l4.5,1.3c.4,0,.6.5.5.8a.7.7,0,0,1-.9.6l-4.5-1.2a.8.8,0,0,1-.5-.9Z" fill="#f3f3f3"/><path d="M112.4,78.9a.6.6,0,0,1,.9-.6l4.5,1.3c.4,0,.6.5.6.9a1,1,0,0,1-1,.6l-4.5-1.3a.7.7,0,0,1-.5-.9Zm5.8,1.6a.8.8,0,0,0-.4-.9l-4.6-1.2c-.3-.1-.6.1-.8.5a1.2,1.2,0,0,0,.5.9l4.5,1.2a.6.6,0,0,0,.8-.5Z" fill="#fff"/><path d="M105.4,81.2a.6.6,0,0,1,.9-.3l9.6,4a.7.7,0,0,1,.5.9.7.7,0,0,1-1,.4l-9.6-4a.7.7,0,0,1-.4-1Z" fill="#f3f3f3"/><path d="M105.3,81.2a.7.7,0,0,1,1-.4l9.6,4a.7.7,0,0,1,.5,1,.7.7,0,0,1-1,.4l-9.7-4a.7.7,0,0,1-.4-1Zm10.9,4.6a.6.6,0,0,0-.3-.9l-9.7-4c-.3-.2-.6,0-.8.3a.6.6,0,0,0,.4.9l9.6,4c.4.1.7,0,.8-.3Z" fill="#fff"/><path d="M108.6,88a.8.8,0,0,1,1-.4l4.1,2.2a.7.7,0,0,1,.3,1,.8.8,0,0,1-.9.3L108.9,89a.8.8,0,0,1-.3-1Z" fill="#f3f3f3"/><path d="M108.6,87.9a.8.8,0,0,1,1-.3l4.2,2.1a.9.9,0,0,1,.3,1.1.8.8,0,0,1-1,.3L108.9,89c-.4-.1-.5-.6-.3-1.1Zm5.3,2.8a.6.6,0,0,0-.3-.9l-4.1-2.1a.8.8,0,0,0-.9.3.6.6,0,0,0,.3.9l4.2,2.1c.3.1.7.1.8-.3Z" fill="#fff"/><path d="M101.2,88.9a.7.7,0,0,1,1-.1l8.7,5.8a.6.6,0,0,1,.2,1,.8.8,0,0,1-1,.2l-8.7-5.9a.8.8,0,0,1-.2-1Z" fill="#f3f3f3"/><path d="M101.2,88.9a.9.9,0,0,1,1.1-.3l8.7,5.8c.4.3.4.7.2,1.2a.9.9,0,0,1-1.1.2L101.4,90a.7.7,0,0,1-.2-1.1Zm9.9,6.6a.8.8,0,0,0-.2-.9l-8.7-5.8a.6.6,0,0,0-.9.1.8.8,0,0,0,.1,1l8.7,5.8a.8.8,0,0,0,1-.2Z" fill="#fff"/><path d="M103.1,96.2a.7.7,0,0,1,1-.1l3.7,2.8a.8.8,0,0,1,.1,1c-.3.3-.8.4-1,.2l-3.7-2.9a.8.8,0,0,1-.1-1Z" fill="#f3f3f3"/><path d="M103.1,96.1a.8.8,0,0,1,1-.1l3.7,2.9a.7.7,0,0,1,.1,1,.6.6,0,0,1-1,.2l-3.7-2.9a.8.8,0,0,1-.1-1.1Zm4.8,3.8a.8.8,0,0,0-.1-1l-3.7-2.8a.8.8,0,0,0-1,.1.8.8,0,0,0,.1,1l3.7,2.9a1,1,0,0,0,1-.2Z" fill="#fff"/><path d="M95.6,95.7a.7.7,0,0,1,1,0l7.5,7.4a.8.8,0,0,1,0,1,.7.7,0,0,1-1,0l-7.5-7.4a.9.9,0,0,1,0-1Z" fill="#f3f3f3"/><path d="M95.6,95.6a1.3,1.3,0,0,1,1.2,0l7.3,7.4a.8.8,0,0,1,0,1.1.7.7,0,0,1-1,0l-7.5-7.3a.9.9,0,0,1,0-1.2Zm8.5,8.4a.7.7,0,0,0,0-.9l-7.5-7.4a.6.6,0,0,0-.9.9l7.4,7.4a.7.7,0,0,0,1,0Z" fill="#fff"/><path d="M96.1,103.1a.8.8,0,0,1,1,.1l3,3.5a.7.7,0,0,1,0,1,.8.8,0,0,1-1-.1L96,104.1a.8.8,0,0,1,.1-1Z" fill="#f3f3f3"/><path d="M96.1,103.1a.8.8,0,0,1,1,.1l3.1,3.5a.8.8,0,0,1-1.2,1.1l-3.1-3.6a.8.8,0,0,1,.2-1.1Zm4,4.6a.6.6,0,0,0,0-.9l-3-3.6a.8.8,0,0,0-1,0,.7.7,0,0,0,0,.9l3,3.5a.8.8,0,0,0,1,.1Z" fill="#fff"/><path d="M88.9,101.2a.8.8,0,0,1,1,.2l5.8,8.7a.8.8,0,0,1-.2,1,.7.7,0,0,1-1-.2l-5.8-8.7a.8.8,0,0,1,.2-1Z" fill="#f3f3f3"/><path d="M88.9,101.2a.8.8,0,0,1,1.1.2l5.8,8.7a.7.7,0,0,1-.2,1,.8.8,0,0,1-1.2-.2l-5.8-8.6a.8.8,0,0,1,.3-1.1Zm6.6,9.9a.8.8,0,0,0,.2-1l-5.8-8.6a.7.7,0,0,0-1-.1.5.5,0,0,0-.1.8l5.8,8.7a1,1,0,0,0,.9.2Z" fill="#fff"/><path d="M87.9,108.6c.3-.2.7,0,1,.3l2.2,4a.7.7,0,0,1-.2,1c-.4.2-.8.2-1-.2l-2.3-4.1a.7.7,0,0,1,.3-1Z" fill="#f3f3f3"/><path d="M87.9,108.6a.7.7,0,0,1,1,.3l2.3,4c.2.3.1.9-.3,1s-.8.2-1-.2l-2.3-4.1a.7.7,0,0,1,.3-1Zm3,5.3a.8.8,0,0,0,.2-.9l-2.3-4.1a.8.8,0,0,0-.9-.2.7.7,0,0,0-.3.9l2.3,4a.8.8,0,0,0,1,.3Z" fill="#fff"/><path d="M81.2,105.4a.6.6,0,0,1,.9.3l4.1,9.7c.2.3-.1.7-.4.9s-.8,0-.9-.4l-4.1-9.6a.7.7,0,0,1,.4-.9Z" fill="#f3f3f3"/><path d="M81.2,105.3a.7.7,0,0,1,1,.4l4.1,9.7a1,1,0,0,1-.4,1,.9.9,0,0,1-1.1-.5l-4-9.6a.7.7,0,0,1,.4-1Zm4.6,10.9a.6.6,0,0,0,.3-.8l-4-9.6a.7.7,0,0,0-1-.4c-.3.2-.5.5-.3.8l4.1,9.7a.7.7,0,0,0,.9.3Z" fill="#fff"/><path d="M78.8,112.4a.8.8,0,0,1,.9.5l1.4,4.4a.6.6,0,0,1-.4.9.7.7,0,0,1-.9-.4l-1.5-4.4c-.2-.4.1-.8.5-1Z" fill="#f3f3f3"/><path d="M78.7,112.4a.7.7,0,0,1,1,.5l1.4,4.3a.7.7,0,0,1-.5,1,.7.7,0,0,1-1-.4l-1.4-4.4a.9.9,0,0,1,.5-1Zm1.9,5.7c.4,0,.6-.5.5-.8l-1.5-4.4c0-.3-.5-.5-.8-.4a.6.6,0,0,0-.4.9l1.4,4.4a.6.6,0,0,0,.8.3Z" fill="#fff"/><path d="M72.9,107.9a.7.7,0,0,1,.8.5l2.1,10.3c.1.4-.2.7-.6.9s-.8-.2-.8-.6l-2.2-10.2a.9.9,0,0,1,.7-.9Z" fill="#f3f3f3"/><path d="M72.9,107.9a.8.8,0,0,1,.9.5l2.1,10.3a.8.8,0,1,1-1.5.3l-2.2-10.2a.7.7,0,0,1,.7-.9Zm2.3,11.6a.8.8,0,0,0,.6-.8l-2.2-10.3c0-.3-.4-.5-.7-.5a.8.8,0,0,0-.6.9L74.4,119a.7.7,0,0,0,.8.5Z" fill="#fff"/><path d="M69.1,114.4a.8.8,0,0,1,.8.6l.6,4.6a.7.7,0,0,1-.7.8.8.8,0,0,1-.8-.6l-.6-4.6a.7.7,0,0,1,.7-.8Z" fill="#f3f3f3"/><path d="M69.1,114.4a.6.6,0,0,1,.8.6l.7,4.6a.8.8,0,0,1-.8.8.8.8,0,0,1-.9-.6l-.6-4.6a.8.8,0,0,1,.8-.8Zm.7,6a.8.8,0,0,0,.6-.8l-.6-4.6a.7.7,0,0,0-.7-.6.9.9,0,0,0-.7.8l.7,4.6a.7.7,0,0,0,.7.6Z" fill="#fff"/><path d="M63.9,108.8a.8.8,0,0,1,.8.7v10.4a.7.7,0,0,1-.8.7.6.6,0,0,1-.7-.7V109.5a.7.7,0,0,1,.7-.7Z" fill="#f3f3f3"/><path d="M63.9,108.8a.8.8,0,0,1,.8.7v10.4a.8.8,0,0,1-.8.8.7.7,0,0,1-.8-.8V109.5a.8.8,0,0,1,.8-.7Zm0,11.8a.8.8,0,0,0,.7-.7V109.5c0-.4-.3-.6-.7-.6a.7.7,0,0,0-.7.6v10.4a.8.8,0,0,0,.7.7Z" fill="#fff"/><path d="M58.9,114.4a.8.8,0,0,1,.7.7l-.4,4.7a.6.6,0,0,1-.8.6.7.7,0,0,1-.6-.7l.3-4.6a.8.8,0,0,1,.8-.7Z" fill="#f3f3f3"/><path d="M58.9,114.4a.9.9,0,0,1,.8.7l-.4,4.7a.8.8,0,0,1-.9.7.8.8,0,0,1-.7-.8l.4-4.6c0-.5.3-.8.8-.7Zm-.5,6c.4,0,.8-.3.8-.6l.3-4.7a.8.8,0,0,0-.7-.7.7.7,0,0,0-.6.7l-.4,4.6a.7.7,0,0,0,.6.7Z" fill="#fff"/><path d="M55.2,107.9a.9.9,0,0,1,.6.9L53.7,119a.9.9,0,0,1-.9.6,1,1,0,0,1-.6-.9l2.1-10.3c0-.3.5-.5.9-.5Z" fill="#f3f3f3"/><path d="M55.2,107.9c.4,0,.6.5.6.9l-2,10.2a.9.9,0,0,1-1,.6.7.7,0,0,1-.6-.9l2-10.3a.9.9,0,0,1,1-.5Zm-2.4,11.6a.6.6,0,0,0,.8-.5l2.1-10.2a1,1,0,0,0-.6-.9.9.9,0,0,0-.8.5l-2.1,10.3a.8.8,0,0,0,.6.8Z" fill="#fff"/><path d="M49.2,112.4a.7.7,0,0,1,.5.9l-1.3,4.5a.7.7,0,0,1-.8.5.8.8,0,0,1-.6-.9l1.2-4.5a.8.8,0,0,1,1-.5Z" fill="#f3f3f3"/><path d="M49.2,112.4c.4,0,.6.5.5.9l-1.3,4.5a.9.9,0,0,1-.9.6,1,1,0,0,1-.6-1l1.3-4.5a.7.7,0,0,1,1-.5Zm-1.7,5.8a.7.7,0,0,0,.8-.4l1.3-4.6c.1-.3-.1-.6-.5-.8a1.1,1.1,0,0,0-.9.5L47,117.4a.7.7,0,0,0,.5.8Z" fill="#fff"/><path d="M46.7,105.4c.4.1.5.5.4.9l-4,9.6c-.2.4-.6.6-.9.4s-.6-.6-.4-.9l4-9.7a.6.6,0,0,1,.9-.3Z" fill="#f3f3f3"/><path d="M46.7,105.3a.8.8,0,0,1,.5,1l-4,9.6a.9.9,0,0,1-1.1.5.7.7,0,0,1-.4-1l4-9.7a.7.7,0,0,1,1-.4Zm-4.5,10.9a.7.7,0,0,0,.9-.3l4-9.7a.7.7,0,0,0-.4-.8.6.6,0,0,0-.9.4l-4,9.6a.6.6,0,0,0,.4.8Z" fill="#fff"/><path d="M39.9,108.6a.7.7,0,0,1,.4.9l-2.1,4.1a.7.7,0,0,1-1,.3c-.4-.1-.5-.5-.4-.9l2.1-4.1a.7.7,0,0,1,1-.3Z" fill="#f3f3f3"/><path d="M39.9,108.5a.8.8,0,0,1,.4,1.1l-2.1,4.1a.9.9,0,0,1-1,.4.8.8,0,0,1-.4-1.1l2.1-4.1a.7.7,0,0,1,1-.4Zm-2.7,5.4a.6.6,0,0,0,.9-.3l2.1-4.1a.8.8,0,0,0-.3-.9.7.7,0,0,0-.9.3l-2.1,4.2a.6.6,0,0,0,.3.8Z" fill="#fff"/><path d="M38.9,101.1c.4.3.5.8.3,1l-5.9,8.7c-.1.3-.6.4-1,.2a.7.7,0,0,1-.1-1l5.8-8.6a.6.6,0,0,1,.9-.3Z" fill="#f3f3f3"/><path d="M38.9,101.1a.9.9,0,0,1,.3,1.1l-5.8,8.7a.9.9,0,0,1-1.1.2,1.1,1.1,0,0,1-.3-1.2l5.8-8.6a.8.8,0,0,1,1.1-.2Zm-6.6,9.8c.4.2.8.2,1-.1l5.8-8.7a.7.7,0,0,0-.2-.9.8.8,0,0,0-.9.2L32.2,110c-.2.3-.2.8.1.9Z" fill="#fff"/><path d="M31.7,103a.8.8,0,0,1,.1,1l-2.9,3.6a.8.8,0,0,1-1,.2.7.7,0,0,1-.1-1l2.9-3.7c.2-.3.6-.3,1-.1Z" fill="#f3f3f3"/><path d="M31.7,102.9a.9.9,0,0,1,.1,1.2L29,107.7a.8.8,0,0,1-1.2.1c-.3-.2-.3-.7-.1-1.1l2.9-3.6a.7.7,0,0,1,1.1-.2ZM28,107.7a.6.6,0,0,0,.9-.1l2.9-3.7a.6.6,0,0,0-.1-.9.8.8,0,0,0-1,.1l-2.9,3.7a.7.7,0,0,0,.2.9Z" fill="#fff"/><path d="M32.2,95.5a.7.7,0,0,1,0,1l-7.4,7.4a.9.9,0,0,1-1,0,.7.7,0,0,1,0-1l7.3-7.4a.8.8,0,0,1,1.1,0Z" fill="#f3f3f3"/><path d="M32.2,95.4a.9.9,0,0,1,0,1.2l-7.4,7.3a.8.8,0,0,1-1.1-1.1l7.4-7.4a.8.8,0,0,1,1.1,0Zm-8.4,8.5a.8.8,0,0,0,.9,0l7.4-7.4a.7.7,0,0,0,0-.9.6.6,0,0,0-.9,0l-7.4,7.3a.7.7,0,0,0,0,1Z" fill="#fff"/><path d="M24.7,95.9a.8.8,0,0,1-.1,1l-3.6,3a.7.7,0,1,1-.9-1.1l3.6-3a.8.8,0,0,1,1,.1Z" fill="#f3f3f3"/><path d="M24.7,95.9a.7.7,0,0,1,0,1l-3.6,3a.8.8,0,0,1-1.1,0,.9.9,0,0,1,0-1.1l3.6-3a.7.7,0,0,1,1.1.1Zm-4.6,3.9a.6.6,0,0,0,.9.1l3.6-3a.9.9,0,0,0,.1-1,.7.7,0,0,0-1,0l-3.6,3a.7.7,0,0,0,0,.9Z" fill="#fff"/><path d="M26.7,88.7a.8.8,0,0,1-.2,1l-8.7,5.8a.8.8,0,0,1-1-.2.6.6,0,0,1,.2-1l8.7-5.8a.8.8,0,0,1,1,.2Z" fill="#f3f3f3"/><path d="M26.7,88.7a.8.8,0,0,1-.2,1.1l-8.7,5.8a.7.7,0,0,1-1.1-.2.9.9,0,0,1,.2-1.2l8.7-5.8a.8.8,0,0,1,1.1.3Zm-9.9,6.5a.6.6,0,0,0,.9.2l8.7-5.8c.3-.2.4-.5.1-.9a.5.5,0,0,0-.8-.2L17,94.3a.6.6,0,0,0-.2.9Z" fill="#fff"/><path d="M19.2,87.6a.8.8,0,0,1-.2,1l-4.1,2.3a.7.7,0,0,1-1-.3.8.8,0,0,1,.2-1l4.1-2.2a.7.7,0,0,1,1,.2Z" fill="#f3f3f3"/><path d="M19.2,87.6a.6.6,0,0,1-.2,1l-4,2.3a.8.8,0,0,1-1.1-.3.8.8,0,0,1,.2-1l4.1-2.3a.7.7,0,0,1,1,.3Zm-5.2,3a.6.6,0,0,0,.9.3l4-2.3a.8.8,0,0,0,.2-1,.6.6,0,0,0-.9-.2l-4,2.3a.6.6,0,0,0-.2.9Z" fill="#fff"/><path d="M22.5,81a.6.6,0,0,1-.3.9l-9.7,4a.6.6,0,0,1-.9-.3.7.7,0,0,1,.3-1l9.7-4a.6.6,0,0,1,.9.4Z" fill="#f3f3f3"/><path d="M22.6,80.9a.8.8,0,0,1-.4,1.1l-9.6,4a.8.8,0,0,1-1-.4.9.9,0,0,1,.3-1.1l9.7-4a.9.9,0,0,1,1,.4Zm-11,4.6a.7.7,0,0,0,.9.4l9.7-4a.7.7,0,0,0-.5-1.3l-9.7,4a.7.7,0,0,0-.4.9Z" fill="#fff"/><path d="M15.5,78.5a.7.7,0,0,1-.5.9l-4.4,1.5c-.3.2-.7-.1-.8-.5a.6.6,0,0,1,.4-.9l4.4-1.4a.6.6,0,0,1,.9.4Z" fill="#f3f3f3"/><path d="M15.5,78.4a.7.7,0,0,1-.5,1l-4.4,1.5c-.4.2-.8-.1-1-.5a.9.9,0,0,1,.5-1l4.4-1.5a1,1,0,0,1,1,.5Zm-5.7,2a.6.6,0,0,0,.8.4L15,79.4a.7.7,0,0,0,.4-.9.6.6,0,0,0-.9-.4l-4.4,1.4a.6.6,0,0,0-.3.9Z" fill="#fff"/><path d="M20,72.6c.1.3-.1.8-.5.8l-10.3,2a.8.8,0,0,1-.3-1.5l10.2-2c.4,0,.9.2.9.7Z" fill="#f3f3f3"/><path d="M20.1,72.6a.8.8,0,0,1-.6.9l-10.3,2a.8.8,0,0,1-.9-.6.9.9,0,0,1,.6-1l10.3-2a.8.8,0,0,1,.9.7ZM8.4,74.8a.9.9,0,0,0,.8.6l10.3-2a.9.9,0,0,0,.5-.8c-.1-.4-.5-.7-.8-.6L8.9,74a.7.7,0,0,0-.5.8Z" fill="#fff"/><path d="M13.6,68.7a.8.8,0,0,1-.6.8l-4.6.6a.8.8,0,0,1-.8-.7.8.8,0,0,1,.6-.8l4.6-.5c.3-.1.7.2.8.6Z" fill="#f3f3f3"/><path d="M13.6,68.7a.7.7,0,0,1-.6.9l-4.6.6a.8.8,0,0,1-.8-.8.6.6,0,0,1,.6-.8l4.6-.6a.7.7,0,0,1,.8.7Zm-6,.7c.1.4.4.7.7.6l4.6-.6c.4,0,.6-.3.6-.7a.7.7,0,0,0-.7-.6l-4.6.6a.7.7,0,0,0-.6.7Z" fill="#fff"/><path d="M19.2,63.8a.8.8,0,0,1-.7.8H8.1a.9.9,0,0,1-.8-.8.8.8,0,0,1,.8-.7H18.5a.7.7,0,0,1,.7.7Z" fill="#f3f3f3"/><path d="M19.2,63.8a.8.8,0,0,1-.7.9H8.1a.9.9,0,0,1-.8-.9.8.8,0,0,1,.8-.7H18.5a.7.7,0,0,1,.7.7Zm-11.8,0a.7.7,0,0,0,.7.7H18.5c.4,0,.6-.3.6-.7s-.2-.7-.6-.7H8.1c-.4.1-.7.3-.7.7Z" fill="#fff"/><path d="M13.6,58.8a.7.7,0,0,1-.7.7l-4.7-.3a.8.8,0,0,1-.6-.9.7.7,0,0,1,.7-.6L13,58a.8.8,0,0,1,.6.8Z" fill="#e2e2e2"/><path d="M13.7,58.8c-.1.4-.4.8-.8.8l-4.7-.4a.8.8,0,0,1,.1-1.6l4.7.3a1,1,0,0,1,.7.9Zm-6.1-.5c0,.4.2.8.6.8l4.7.3a.6.6,0,0,0,.6-.6.6.6,0,0,0-.6-.7l-4.6-.4a.7.7,0,0,0-.7.6Z" fill="#fff"/><path d="M20.1,55.2a.9.9,0,0,1-.9.6L9,53.7a.8.8,0,0,1-.6-.9,1,1,0,0,1,.9-.6l10.2,2a1,1,0,0,1,.6,1Z" fill="#f3f3f3"/><path d="M20.1,55.2a.9.9,0,0,1-.9.6L9,53.8a.9.9,0,0,1-.6-1,.7.7,0,0,1,.9-.6l10.2,2a.8.8,0,0,1,.6,1ZM8.5,52.8a.7.7,0,0,0,.5.8l10.2,2.1c.4,0,.8-.2.8-.6a.7.7,0,0,0-.5-.8L9.3,52.2a.8.8,0,0,0-.8.6Z" fill="#fff"/><path d="M15.6,49.2a.7.7,0,0,1-.9.5l-4.5-1.3a.7.7,0,0,1-.5-.8.8.8,0,0,1,.9-.6l4.5,1.2a.8.8,0,0,1,.5,1Z" fill="#f3f3f3"/><path d="M15.6,49.2a.7.7,0,0,1-.9.5l-4.5-1.3a.9.9,0,0,1-.6-.9,1,1,0,0,1,1-.6l4.5,1.3a.7.7,0,0,1,.5,1ZM9.8,47.5a.7.7,0,0,0,.4.8l4.6,1.3a.5.5,0,0,0,.7-.5.7.7,0,0,0-.4-.9L10.6,47a.7.7,0,0,0-.8.5Z" fill="#fff"/><path d="M22.7,46.8a.9.9,0,0,1-1,.4l-9.6-4a.9.9,0,0,1-.5-1,.8.8,0,0,1,1-.4l9.6,4a.7.7,0,0,1,.5,1Z" fill="#f3f3f3"/><path d="M22.7,46.8a.7.7,0,0,1-1,.4l-9.6-4c-.5-.1-.6-.5-.5-1a.7.7,0,0,1,1-.4l9.7,4c.4.1.5.6.4,1ZM11.8,42.2a.8.8,0,0,0,.3,1l9.7,4a.7.7,0,0,0,.8-.4.7.7,0,0,0-.4-1l-9.6-4c-.4,0-.7.1-.8.4Z" fill="#fff"/><path d="M19.4,40a.7.7,0,0,1-.9.3l-4.2-2.1c-.3-.1-.5-.5-.3-1a.9.9,0,0,1,1-.3L19.1,39a.7.7,0,0,1,.3,1Z" fill="#f3f3f3"/><path d="M19.5,40.1a.9.9,0,0,1-1.1.3l-4.2-2.1a.9.9,0,0,1-.3-1.1c.2-.4.6-.5,1.1-.3L19.1,39a.9.9,0,0,1,.4,1.1ZM14,37.3c-.1.4,0,.8.4.9l4.1,2.1a.8.8,0,0,0,.9-.3c.1-.3.1-.8-.3-.9L14.9,37a.7.7,0,0,0-.9.3Z" fill="#fff"/><path d="M26.8,39.1a.7.7,0,0,1-1,.1l-8.7-5.7a.8.8,0,0,1-.2-1,.7.7,0,0,1,1-.2l8.7,5.8a.8.8,0,0,1,.2,1Z" fill="#f3f3f3"/><path d="M26.8,39.1c-.3.3-.8.5-1.1.2L17,33.5a.7.7,0,0,1-.1-1,.8.8,0,0,1,1.1-.3L26.6,38a.8.8,0,0,1,.2,1.1ZM17,32.5a.8.8,0,0,0,.1,1l8.7,5.7a.7.7,0,0,0,.9-.1.8.8,0,0,0-.2-1l-8.6-5.8c-.4-.2-.8-.1-.9.2Z" fill="#fff"/><path d="M24.9,31.8a.8.8,0,0,1-1,.2l-3.7-2.9a.9.9,0,0,1-.1-1c.3-.3.8-.4,1-.1l3.7,2.8a.7.7,0,0,1,.1,1Z" fill="#f3f3f3"/><path d="M25,31.8a.9.9,0,0,1-1.2.2l-3.6-2.8A1.1,1.1,0,0,1,20,28a.9.9,0,0,1,1.1-.1l3.7,2.9a.7.7,0,0,1,.2,1Zm-4.9-3.7a.7.7,0,0,0,.1.9l3.7,2.9a.7.7,0,0,0,.9-.1.8.8,0,0,0,0-1L21.1,28a.8.8,0,0,0-1,.1Z" fill="#fff"/><path d="M32.3,32.3a.7.7,0,0,1-1,0L23.9,25a.8.8,0,0,1,0-1,.7.7,0,0,1,1,0l7.4,7.3a.7.7,0,0,1,0,1Z" fill="#f3f3f3"/><path d="M32.3,32.3a.7.7,0,0,1-1.1,0L23.8,25a.8.8,0,0,1,0-1.1.9.9,0,0,1,1.2,0l7.3,7.3a.7.7,0,0,1,0,1.1ZM24,24a.7.7,0,0,0,0,1l7.3,7.3a.7.7,0,0,0,1-1L24.9,24a.6.6,0,0,0-.9,0Z" fill="#fff"/><path d="M31.9,24.8a.7.7,0,0,1-1,0l-3.1-3.5a.8.8,0,0,1,.2-1,.6.6,0,0,1,1,.1l3,3.4a.8.8,0,0,1-.1,1Z" fill="#f3f3f3"/><path d="M32,24.8a.8.8,0,0,1-1.2,0l-3-3.5a.7.7,0,0,1,.1-1.1.9.9,0,0,1,1.1,0l3,3.6a.7.7,0,0,1,0,1Zm-4-4.5a.8.8,0,0,0-.2.9l3.1,3.6a.7.7,0,0,0,.9,0,.7.7,0,0,0,.2-1l-3.1-3.4a.5.5,0,0,0-.9-.1Z" fill="#fff"/><path d="M39.1,26.8a.7.7,0,0,1-1-.3l-5.9-8.6a.8.8,0,0,1,.3-1c.3-.3.7-.1,1,.2l5.7,8.7a.7.7,0,0,1-.1,1Z" fill="#f3f3f3"/><path d="M39.1,26.8a.8.8,0,0,1-1.1-.2L32.2,18c-.2-.4-.2-.9.3-1.1a.7.7,0,0,1,1,.1l5.8,8.7a.7.7,0,0,1-.2,1.1ZM32.5,17c-.3.1-.4.5-.2.9l5.8,8.6c.2.3.6.3,1,.2a.8.8,0,0,0,.1-.9l-5.7-8.7a.9.9,0,0,0-1-.1Z" fill="#fff"/><path d="M40.2,19.4c-.4.1-.9.1-1-.3L36.8,15a.9.9,0,0,1,.4-1,1,1,0,0,1,1,.3l2.2,4.1a.8.8,0,0,1-.2,1Z" fill="#f3f3f3"/><path d="M40.2,19.4a.8.8,0,0,1-1.1-.3l-2.3-4a.8.8,0,0,1,.3-1.1,1.1,1.1,0,0,1,1.1.3l2.2,4.1c.3.3.2.7-.2,1Zm-3-5.3a.6.6,0,0,0-.3.9l2.3,4a.6.6,0,0,0,.9.3c.3-.2.5-.6.2-.9l-2.2-4a.6.6,0,0,0-.9-.3Z" fill="#fff"/><path d="M46.8,22.7a.8.8,0,0,1-1-.4l-4-9.7a.7.7,0,0,1,.4-.9.8.8,0,0,1,1,.4l4,9.6a.9.9,0,0,1-.4,1Z" fill="#f3f3f3"/><path d="M46.8,22.7c-.4.1-.9,0-1-.4l-4.1-9.7a.9.9,0,0,1,.5-1,.8.8,0,0,1,1,.5l4,9.6a.8.8,0,0,1-.4,1ZM42.2,11.8a.6.6,0,0,0-.3.8l4,9.6c.2.4.6.6.9.4a.6.6,0,0,0,.4-.8l-4-9.7c-.3-.3-.6-.5-1-.3Z" fill="#fff"/><path d="M49.2,15.5a.6.6,0,0,1-.9-.4l-1.5-4.4a.8.8,0,0,1,.5-.9.8.8,0,0,1,.9.4l1.5,4.4a.7.7,0,0,1-.5.9Z" fill="#f3f3f3"/><path d="M49.3,15.6a.7.7,0,0,1-1-.5l-1.5-4.3a.8.8,0,0,1,.5-1,.7.7,0,0,1,1,.4l1.5,4.4a.8.8,0,0,1-.5,1Zm-2-5.7c-.3,0-.5.5-.4.8l1.4,4.4c.1.4.5.5.9.4a.7.7,0,0,0,.5-.9l-1.5-4.4a.6.6,0,0,0-.9-.3Z" fill="#fff"/><path d="M55.2,20.1a.7.7,0,0,1-.9-.6L52.2,9.3c-.1-.4.2-.7.6-.9a.8.8,0,0,1,.9.6l2.1,10.2a.9.9,0,0,1-.6.9Z" fill="#f3f3f3"/><path d="M55.2,20.1a.8.8,0,0,1-1-.6L52.1,9.3a.7.7,0,0,1,.6-.9.8.8,0,0,1,1,.6l2.1,10.2a.9.9,0,0,1-.6.9ZM52.8,8.5a.8.8,0,0,0-.6.8l2.1,10.2a.7.7,0,0,0,.9.5.6.6,0,0,0,.5-.8L53.6,9a.6.6,0,0,0-.8-.5Z" fill="#fff"/><path d="M58.9,13.6a.8.8,0,0,1-.8-.6l-.6-4.6c-.1-.4.3-.7.7-.8a.8.8,0,0,1,.8.6l.6,4.6c.1.4-.3.7-.7.8Z" fill="#f3f3f3"/><path d="M58.9,13.6a.6.6,0,0,1-.8-.6l-.7-4.6a.8.8,0,0,1,.8-.8.8.8,0,0,1,.9.6l.6,4.6a.8.8,0,0,1-.8.8Zm-.7-5.9a.7.7,0,0,0-.6.7l.6,4.6a.5.5,0,0,0,.7.5.8.8,0,0,0,.7-.7l-.7-4.6a.5.5,0,0,0-.7-.5Z" fill="#fff"/><circle cx="64.3" cy="63.9" r="59.2" fill-opacity="0.2" fill="url(#9d2e2d9a-8a31-40bd-b483-00e565e6534a)"/><polygon points="105.3 26.4 57.6 57 57.5 57 57.5 57 57.5 57.1 27.7 106.3 71.5 71 71.5 71 71.5 70.9 105.3 26.4" opacity="0.05"/><path d="M104.4,23.5,57.2,57.1,71.2,71l33.2-47.5" fill="#cd151e"/><path d="M57.3,57l7,6.9,40.1-40.4Z" fill="#fa5153"/><path d="M57.3,57l14,13.9L24.1,104.4Z" fill="#acacac"/><path d="M24.1,104.4,64.3,63.9l-7-6.9Z" fill="#eee"/></svg>