<svg id="b63f2bc8-9073-4bcd-89fc-6151cf28ac82" data-name="Layer 1" xmlns="http://www.w3.org/2000/svg" viewBox="0 0 358.405 240.1"><path d="M89.7,59.1h67.8L147,99.3a25.38,25.38,0,0,1-9,13.5,24.32,24.32,0,0,1-15.3,5.1H91.2a30.183,30.183,0,0,0-19,6.3,33.048,33.048,0,0,0-11.6,17.1,30.678,30.678,0,0,0-.4,15.3A33.24,33.24,0,0,0,66,169.4a30.415,30.415,0,0,0,10.8,8.9,31.745,31.745,0,0,0,14.4,3.3h19.2a10.939,10.939,0,0,1,8.8,4.3,10.8,10.8,0,0,1,2,9.8l-12,44.4h-21a86.157,86.157,0,0,1-39.8-9.4,88.946,88.946,0,0,1-30.2-25.1A86.8,86.8,0,0,1,1.9,170.1,88.132,88.132,0,0,1,3,129l1.2-4.5A88.361,88.361,0,0,1,35.8,77.3,88.7,88.7,0,0,1,60.9,64,84.614,84.614,0,0,1,89.7,59.1Z" transform="translate(0.02 0)" fill="#f36c31"/><path d="M123.9,240,183,18.6a25.38,25.38,0,0,1,9-13.5A24.32,24.32,0,0,1,207.3,0H270a85.3,85.3,0,0,1,39.8,9.5,89.041,89.041,0,0,1,46.6,60.6,83.574,83.574,0,0,1-1.2,40.9l-1.2,4.5a90.16,90.16,0,0,1-12,26.6,85.586,85.586,0,0,1-19.4,20.8,88.055,88.055,0,0,1-25.1,13.5,87.036,87.036,0,0,1-28.8,4.8H214.4l10.8-40.5a25.376,25.376,0,0,1,9-13.2,24.32,24.32,0,0,1,15.3-5.1H267a31.441,31.441,0,0,0,30.5-23.7,29.369,29.369,0,0,0,.4-14.7,35.544,35.544,0,0,0-5.8-12.8,31.758,31.758,0,0,0-10.8-9,30.575,30.575,0,0,0-14.4-3.4H233.3L189.5,221.7a25.376,25.376,0,0,1-9,13.2,23.883,23.883,0,0,1-15,5.1Z" transform="translate(0.02 0)" fill="#f36c31"/></svg>