<svg xmlns="http://www.w3.org/2000/svg" viewBox="0 0 27.996 32"><path d="M22.97,5.953C21.336,4.936,19.8,4.535,18.254,3.518A21.977,21.977,0,0,1,14.863,0C14.647,2.13,14,2.993,13.26,3.61A22.176,22.176,0,0,1,9.345,5.953,14,14,0,0,0,2.009,18.19,13.989,13.989,0,0,0,16.127,32C23.556,32,30,26.605,30,18.437A14.5,14.5,0,0,0,22.97,5.953ZM5.115,11.1c-.092-.062-.555-.339-.092-1.048a14.6,14.6,0,0,1,5.209-4.316,18.9,18.9,0,0,0,3.052-1.849A4.143,4.143,0,0,0,15.01.586a5.673,5.673,0,0,1,.247,2.065,2.016,2.016,0,0,1-.925,1.418c-.154.123-.8.431-.956.524s-.123.154,0,.185c.247.062.4.154.4.37,0,.185-.092.585-.77,1.294a18.555,18.555,0,0,1-4.5,3.484C6.256,11.282,5.208,11.159,5.115,11.1Zm18.033,18a6.688,6.688,0,0,1-3.237,1.295c-1.664.154-3.914.246-5.271-.987a.443.443,0,0,1,0-.647.721.721,0,0,1,.463-.216c.185,0,.154,0,.246.062a5.241,5.241,0,0,0,3.514.894,6.976,6.976,0,0,0,3.977-1.018c.277-.215.4-.03.431.093A.466.466,0,0,1,23.148,29.1Zm-5.394-2.8a5.56,5.56,0,0,1,1.418-1.017,2.755,2.755,0,0,1,1.294-.185,2.559,2.559,0,0,1,1.387.277,2.44,2.44,0,0,1,.709,1.11.433.433,0,0,1-.246.616c-.216.124-.247.062-.463-.339s-.4-.8-1.479-.8a2.492,2.492,0,0,0-1.942.8c-.524.432-.709.586-.894.339S17.415,26.6,17.754,26.294Zm8.168.247c-1.109-.093-3.329-3.545-4.747-3.607-1.788-.062-5.672,3.73-8.723,3.73a4.627,4.627,0,0,1-3.021-.678A3.3,3.3,0,0,1,8.074,23a5.078,5.078,0,0,1,5.117-4.686c3.607-.031,6.1,3.576,7.923,3.545,1.541-.031,4.5-3.052,5.949-3.052,1.541,0,1.973,1.6,1.973,2.559a7.588,7.588,0,0,1-1.048,3.761C27.248,26.2,26.785,26.6,25.922,26.541Z" transform="translate(-2.002)" fill="#005a8e"/><path d="M26.631,9.679c-.119-.363-.205-.654-.268-.889a15.373,15.373,0,0,0-3.4-2.841c-1.6-1.017-3.175-1.418-4.716-2.435A20.759,20.759,0,0,1,14.856,0c-.216,2.127-.832,3.021-1.6,3.606A22.08,22.08,0,0,1,9.338,5.949,14.057,14.057,0,0,0,2,18.187a13.431,13.431,0,0,0,1.852,6.854l.306-.011A4.865,4.865,0,0,0,7.8,26.263,9.77,9.77,0,0,0,9.615,26.1c-.061-.038-.123-.075-.184-.115A3.3,3.3,0,0,1,8.074,23a5.078,5.078,0,0,1,5.117-4.686c2.643-.022,4.687,1.9,6.308,2.925,5.233-3.413,6.463-6.151,6.762-6.932A6.745,6.745,0,0,0,26.631,9.679ZM15.257,2.651a2.016,2.016,0,0,1-.925,1.418c-.154.123-.8.431-.956.524s-.123.154,0,.185c.247.062.4.154.4.37,0,.185-.092.585-.77,1.294a18.555,18.555,0,0,1-4.5,3.484c-2.25,1.356-3.3,1.233-3.391,1.171s-.555-.339-.092-1.048a14.6,14.6,0,0,1,5.209-4.316,18.9,18.9,0,0,0,3.052-1.849A4.143,4.143,0,0,0,15.01.586,5.673,5.673,0,0,1,15.257,2.651Z" transform="translate(-2.002)" fill="#0174bb"/><path d="M22.963,5.949c-1.6-1.017-3.175-1.418-4.716-2.435A20.721,20.721,0,0,1,14.856,0c-.216,2.127-.832,3.021-1.6,3.607A22.13,22.13,0,0,1,9.338,5.949,14.057,14.057,0,0,0,2,18.187a13.431,13.431,0,0,0,1.852,6.854A14.308,14.308,0,0,0,16.12,32c7.429,0,13.871-5.395,13.871-13.564A14.12,14.12,0,0,0,26.363,8.79,15.373,15.373,0,0,0,22.963,5.949ZM26.71,9.558a13.852,13.852,0,0,1,3.05,8.875,13.634,13.634,0,0,1-1.1,5.474,12.585,12.585,0,0,1-2.973,4.2,14.229,14.229,0,0,1-14.818,2.634,14.081,14.081,0,0,1-4.432-2.837,13.255,13.255,0,0,1-4.2-9.719,13.1,13.1,0,0,1,3.186-8.72A14.655,14.655,0,0,1,9.448,6.153c.327-.179.634-.336.931-.488A16.6,16.6,0,0,0,13.4,3.789,4.411,4.411,0,0,0,15.019.554a18.125,18.125,0,0,0,3.1,3.154A16.708,16.708,0,0,0,20.54,4.966a17.957,17.957,0,0,1,2.3,1.178l.029.018A14.811,14.811,0,0,1,26.71,9.558Z" transform="translate(-2.002)" fill="#044a76"/><path d="M15.06.776a5.726,5.726,0,0,1,.2,1.875,2.016,2.016,0,0,1-.925,1.418c-.154.123-.8.431-.956.524s-.123.154,0,.185c.247.062.4.154.4.37,0,.185-.092.585-.77,1.294a18.555,18.555,0,0,1-4.5,3.484c-2.25,1.356-3.3,1.233-3.391,1.171s-.555-.339-.092-1.048a8.586,8.586,0,0,1,.862-1.085,4.54,4.54,0,0,0-.431.407c-1.14,1.264-1.479,2.219-1.233,2.651s1.11.493,2.929-.4a23.191,23.191,0,0,0,5.8-3.976c1.634-1.634,1.788-2.312,1.788-2.651,0-.278-.278-.37-.278-.494,0-.03.062-.154.278-.308a1.955,1.955,0,0,0,.647-1.387A5.5,5.5,0,0,0,15.06.776Z" transform="translate(-2.002)" fill="#94c5e3"/></svg>