<svg xmlns="http://www.w3.org/2000/svg" viewBox="0 0 315.6 45.2"><path d="M311.2,13.6a4.574,4.574,0,0,1,4.4,4.7,4.41,4.41,0,1,1-8.8,0A4.51,4.51,0,0,1,311.2,13.6Zm0,8.7a3.828,3.828,0,0,0,3.7-4,3.8,3.8,0,0,0-3.7-3.9,3.868,3.868,0,0,0-3.7,3.9A3.828,3.828,0,0,0,311.2,22.3Zm1.9-2.1c.1.1.1.1.1.2s-.1.2-.1.3c-.1,0-.1.1-.2.1s-.2-.1-.3-.2l-1.2-1.9h-1.1v1.7a.3.3,0,1,1-.6,0V16.2a.319.319,0,0,1,.3-.3h1.9a1.367,1.367,0,0,1,1.4,1.4,1.41,1.41,0,0,1-1.1,1.4ZM310.2,18h1.5a.781.781,0,0,0,.8-.8.684.684,0,0,0-.7-.7h-1.6V18Z" fill="#211452"/><path d="M8.2,29.9,26.9,5.8c0-.1.1-.1.1-.2,1.2-1.2,5.4-.9,5.4,4.5V20.5L17.3,40.6a9.908,9.908,0,0,1-8,4.2C3.7,44.8,0,41.2,0,34.7V29.6C0,30.6,3.3,36,8.2,29.9Z" fill="#00aeef"/><path d="M6.9,0a7.047,7.047,0,0,1,6.9,7.2V22.8L8.2,30c-4.9,6.1-8.2.7-8.2-.3V7.2A7.047,7.047,0,0,1,6.9,0Z" fill="#211452"/><path d="M71,2a6.735,6.735,0,0,0-9.5,1.3L40.7,30.4c-3.8,4-6.9,2.2-8.1-.2,0-.1-.1-.1-.1-.2v5.1c0,6.6,3.7,10.1,9.3,10.1A10.376,10.376,0,0,0,49.9,41L72.4,11.3A6.616,6.616,0,0,0,71,2Z" fill="#00aeef"/><path d="M32.5,30.3v0c1.3,2.3,4.4,4.1,8.2.1l5.5-7.2V10.1c0-6.5-4-10.1-9.6-10.1-3.3,0-6.7,1.6-9.7,5.8,1-1.4,5.5-1.3,5.5,4.3l.1,20.2Z" fill="#211452"/><path d="M87.7,33.8a1.938,1.938,0,0,1-1.9,1.1,1.961,1.961,0,0,1-1.9-1.2L79.2,20.4a1.486,1.486,0,0,1-.1-.6,1.418,1.418,0,0,1,1.2-1.5c.2,0,.5-.1.8-.1a1.773,1.773,0,0,1,1.8,1.3l2,6.8c.3.9.8,2.9,1,3.9h0c.3-1.1.9-3.1,1.1-3.9l2.3-6.8a1.8,1.8,0,0,1,1.9-1.2A1.831,1.831,0,0,1,93,19.5l2.4,7c.3.9.8,2.6,1.1,3.7h0c.3-1,.8-2.5,1.1-3.7l2.2-7a1.628,1.628,0,0,1,1.8-1.2,1.949,1.949,0,0,1,.8.1,1.4,1.4,0,0,1,1.1,1.4,3.711,3.711,0,0,1-.2.9L98.1,34a1.938,1.938,0,0,1-1.9,1.1,1.961,1.961,0,0,1-1.9-1.2l-2.3-7c-.3-.9-.7-2.3-1-3.3h0c-.3.9-.8,2.5-1.1,3.3Z" fill="#211452"/><path d="M122.7,26.6c0,5.2-3.6,8.7-8.3,8.7a6.027,6.027,0,0,1-4.8-2.2h0v7.3a1.74,1.74,0,0,1-1.9,1.7,1.8,1.8,0,0,1-1.9-1.7V19.8a1.912,1.912,0,0,1,3.8,0v.8h0a6.392,6.392,0,0,1,5.1-2.8C119.7,17.8,122.7,21.7,122.7,26.6Zm-3.8,0c0-3.2-1.8-5.6-4.6-5.6-2.9,0-4.8,2.5-4.8,5.6s1.6,5.6,4.7,5.6C116.9,32.2,118.9,29.9,118.9,26.6Z" fill="#211452"/><path d="M140,33.8c0,.5-.3.8-.8,1.1a6.461,6.461,0,0,1-2.7.5,4.47,4.47,0,0,1-2.8-.9,4.1,4.1,0,0,1-1.4-3.5V20.8h-1.5a.945.945,0,0,1-1-1,1,1,0,0,1,1-1h1.4v-4a1.1,1.1,0,1,1,2.2,0v4h4.1a.945.945,0,0,1,1,1,1,1,0,0,1-1,1h-4.1v10a2.521,2.521,0,0,0,.7,2,2.41,2.41,0,0,0,1.5.4,5.853,5.853,0,0,0,1.3-.2,4.253,4.253,0,0,1,1.1-.2A1.06,1.06,0,0,1,140,33.8Z" fill="#211452"/><path d="M155.1,25.3v.4a1.415,1.415,0,0,1-1.3,1.4H142.3a7.956,7.956,0,0,0,1,3.8,4.895,4.895,0,0,0,4.4,2.3,8.333,8.333,0,0,0,2.6-.4,6.71,6.71,0,0,0,2.4-1.6,1.222,1.222,0,0,1,.9-.4,1.025,1.025,0,0,1,1,1,.908.908,0,0,1-.3.7c-1.5,1.9-3.8,2.8-6.7,2.8a7.293,7.293,0,0,1-4.9-1.7,8.716,8.716,0,0,1-2.7-6.8c0-4.9,3.4-8.6,8-8.6A6.7,6.7,0,0,1,155.1,25.3Zm-2.2-.2v-.2a4.581,4.581,0,0,0-4.9-4.8,5.51,5.51,0,0,0-5.6,5Z" fill="#211452"/><path d="M164.7,18.1c2.6,0,5.2,1.1,6.4,3.1a1.854,1.854,0,0,1,.2.7,1.02,1.02,0,0,1-.5.8,1.421,1.421,0,0,1-.6.2,1.231,1.231,0,0,1-1-.5,5.185,5.185,0,0,0-4.6-2.2c-3.4,0-5.9,2.8-5.9,6.5s2.4,6.5,5.8,6.5a6.355,6.355,0,0,0,4.9-2.1,1.222,1.222,0,0,1,.9-.4,1.421,1.421,0,0,1,.6.2.867.867,0,0,1,.4.7,1.854,1.854,0,0,1-.2.7c-1.3,2-3.9,3-6.6,3-4.6,0-8-3.6-8-8.6C156.6,21.8,160.1,18.1,164.7,18.1Z" fill="#211452"/><path d="M176.2,26.2v7.6a1.1,1.1,0,1,1-2.2,0V11.5a1.1,1.1,0,1,1,2.2,0v9.9h0a5.858,5.858,0,0,1,5.6-3.3c4.1,0,6.3,2.4,6.3,6.8v8.9a1.1,1.1,0,0,1-2.2,0V24.9c0-2.3-.8-4.8-4.4-4.8C178.3,20.2,176.2,22.8,176.2,26.2Z" fill="#211452"/><path d="M203.1,27.6c-3.6-.4-5.9-1.6-5.9-4.5,0-3.1,2.6-4.9,6.1-4.9,2.9,0,4.6,1.1,5.5,2.4a.952.952,0,0,1,.2.7.9.9,0,0,1-.9.9.975.975,0,0,1-.9-.4,4.729,4.729,0,0,0-3.8-1.7c-2.4,0-4,1.1-4,2.8,0,1.6,1.4,2.2,4.3,2.5,4,.5,5.9,2.1,5.9,4.8,0,2.8-2.4,4.9-6.4,4.9-2.9,0-5.3-1.1-6.1-2.6a1.854,1.854,0,0,1-.2-.7.919.919,0,0,1,1-.9.891.891,0,0,1,.8.5,5.232,5.232,0,0,0,4.4,1.8c2.1,0,4.3-1,4.3-2.9C207.5,29,206.9,28,203.1,27.6Z" fill="#211452"/><path d="M212.2,28.5V19.6a1.1,1.1,0,0,1,2.2,0v8.9c0,2.3.8,4.8,4.4,4.8,3.2,0,5.3-2.6,5.3-5.9V19.6a1.1,1.1,0,1,1,2.2,0V33.9a1.1,1.1,0,1,1-2.2,0V32a5.858,5.858,0,0,1-5.6,3.3C214.3,35.3,212.2,32.9,212.2,28.5Z" fill="#211452"/><path d="M246.6,26.7c0,5.1-3.6,8.6-8.2,8.6-2.3,0-4.9-1.1-5.8-3.2h0v8.8a1.049,1.049,0,0,1-1.1,1.1,1.11,1.11,0,0,1-1.1-1.1V19.6a1.1,1.1,0,0,1,2.2,0v2h0a6.783,6.783,0,0,1,6.1-3.4C243.6,18.1,246.6,22,246.6,26.7Zm-2.1,0c0-3.6-2.3-6.5-5.8-6.5s-6,2.9-6,6.5,2.4,6.5,5.9,6.5C242,33.2,244.5,30.6,244.5,26.7Z" fill="#211452"/><path d="M265.8,26.7c0,5.1-3.6,8.6-8.2,8.6-2.3,0-4.9-1.1-5.8-3.2h0v8.8a1.049,1.049,0,0,1-1.1,1.1,1.11,1.11,0,0,1-1.1-1.1V19.6a1.1,1.1,0,0,1,2.2,0v2h0a6.783,6.783,0,0,1,6.1-3.4C262.8,18.1,265.8,22,265.8,26.7Zm-2.2,0c0-3.6-2.3-6.5-5.8-6.5s-6,2.9-6,6.5,2.4,6.5,5.9,6.5C261.1,33.2,263.6,30.6,263.6,26.7Z" fill="#211452"/><path d="M275.2,18.1c4.4,0,8,3.5,8,8.6s-3.6,8.6-8,8.6-8-3.5-8-8.6S270.8,18.1,275.2,18.1Zm0,15.1c3.2,0,5.8-2.5,5.8-6.5s-2.6-6.5-5.8-6.5-5.8,2.4-5.8,6.5C269.4,30.7,272,33.2,275.2,33.2Z" fill="#211452"/><path d="M294.3,18.5a1.1,1.1,0,0,1,.6,1,.942.942,0,0,1-1,1,1.952,1.952,0,0,1-.7-.1,2.388,2.388,0,0,0-.9-.2c-2.2,0-4.3,2.4-4.3,5.9v7.7a1.1,1.1,0,1,1-2.2,0V19.6a1.1,1.1,0,1,1,2.2,0v1.8h0a4.61,4.61,0,0,1,6.3-2.9Z" fill="#211452"/><path d="M305.4,33.8c0,.5-.3.8-.8,1.1a6.461,6.461,0,0,1-2.7.5,4.47,4.47,0,0,1-2.8-.9,4.1,4.1,0,0,1-1.4-3.5V20.8h-1.4a.945.945,0,0,1-1-1,1,1,0,0,1,1-1h1.4v-4a1.1,1.1,0,0,1,2.2,0v4H304a.945.945,0,0,1,1,1,1,1,0,0,1-1,1h-4.2v10a2.521,2.521,0,0,0,.7,2,2.41,2.41,0,0,0,1.5.4,5.853,5.853,0,0,0,1.3-.2,4.253,4.253,0,0,1,1.1-.2A.942.942,0,0,1,305.4,33.8Z" fill="#211452"/></svg>
