<svg xmlns="http://www.w3.org/2000/svg" viewBox="0 0 32 32"><path d="M32,4.34a4.23,4.23,0,0,0-8.41-.59l0,0c-3.46-1.55-6.37,1.19-6.37,1.19L9.47,12.6l3,2.91,6.2-6c2.9-2.88,4.47-.93,4.47-.93,2.18,1.83.08,4,.08,4l3.12,3c2.55-2.73,2.69-5.12,1.92-7A4.21,4.21,0,0,0,32,4.34" fill="#faae42"/><path d="M28.34,23.65l0,0c1.56-3.43-1.2-6.33-1.2-6.33L19.42,9.63l-2.93,3,6.09,6.16c2.9,2.88.94,4.44.94,4.44-1.84,2.16-4,.07-4,.07l-3,3.1c2.75,2.53,5.15,2.68,7.06,1.91a4.23,4.23,0,1,0,4.79-4.68" fill="#ef4136"/><path d="M19.49,16.49l-6.2,6c-2.9,2.88-4.47.93-4.47.93-2.18-1.83-.08-4-.08-4l-3.12-3c-2.55,2.73-2.7,5.12-1.92,7a4.2,4.2,0,1,0,4.72,4.76l0,0c3.46,1.55,6.37-1.19,6.37-1.19l7.7-7.69-3-2.91" fill="#4f92ce"/><path d="M9.42,13.19c-2.9-2.88-.94-4.44-.94-4.44,1.84-2.16,4-.07,4-.07l3-3.1C12.76,3,10.36,2.9,8.45,3.67A4.23,4.23,0,1,0,3.66,8.35l0,0c-1.56,3.43,1.2,6.33,1.2,6.33l7.74,7.65,2.93-3L9.42,13.19" fill="#7bc144"/></svg>