<svg xmlns="http://www.w3.org/2000/svg" viewBox="0 0 600.518 245.882"><path d="M576.13,113.22A47.29,47.29,0,0,1,594,131.009a49.477,49.477,0,0,1,6.522,25.134,50.089,50.089,0,0,1-6.343,25.045,46.877,46.877,0,0,1-17.33,17.7,47.555,47.555,0,0,1-24.567,6.46,46.474,46.474,0,0,1-21.26-4.868,44.074,44.074,0,0,1-15.9-13.363v51.861a6.686,6.686,0,0,1-1.966,4.956,6.816,6.816,0,0,1-5,1.947,6.516,6.516,0,0,1-4.914-1.947,6.858,6.858,0,0,1-1.876-4.956V199.331a5.336,5.336,0,0,1-.177-1.593V156.143a49.466,49.466,0,0,1,6.52-25.134,47.248,47.248,0,0,1,17.866-17.789,52.7,52.7,0,0,1,50.562,0Zm-6.789,74.96a34.408,34.408,0,0,0,13.042-13.187,39.89,39.89,0,0,0,0-37.7,35.089,35.089,0,0,0-13.042-13.274,35.9,35.9,0,0,0-18.491-4.868,35.287,35.287,0,0,0-31.356,18.142,37.744,37.744,0,0,0-4.734,18.851,38.9,38.9,0,0,0,.178,4.424,1.983,1.983,0,0,1,.179.886,35.4,35.4,0,0,0,11.7,22.655q9.917,8.854,24.031,8.851A36.413,36.413,0,0,0,569.341,188.18Z" fill="#2a2a2a"/><path d="M417.209,198.977a46.114,46.114,0,0,1-17.777-17.612,52.842,52.842,0,0,1,0-50.533,45.957,45.957,0,0,1,17.777-17.7,53.868,53.868,0,0,1,50.829,0,46.791,46.791,0,0,1,17.777,17.7,52.524,52.524,0,0,1,.089,50.533,46.138,46.138,0,0,1-17.776,17.612,54.048,54.048,0,0,1-50.919,0Zm44.04-10.8a33.963,33.963,0,0,0,12.863-13.187,40.924,40.924,0,0,0,0-37.878,33.994,33.994,0,0,0-12.863-13.186,38.337,38.337,0,0,0-37.072,0,34.421,34.421,0,0,0-13.043,13.186,40.243,40.243,0,0,0,0,37.878,34.389,34.389,0,0,0,13.043,13.187,38.337,38.337,0,0,0,37.072,0Z" fill="#2a2a2a"/><path d="M394.043,112.84a7.159,7.159,0,0,1-.536,2.478L359.38,200.862q-2.323,4.6-6.789,4.6-4.288,0-6.432-4.6L315.5,115.5a5.43,5.43,0,0,1-.536-2.478q0-3.717,3.931-5.664a5.717,5.717,0,0,1,2.858-.708,6.472,6.472,0,0,1,3.306.885,5.255,5.255,0,0,1,2.233,2.655l25.3,73.631,28.946-73.631a5.555,5.555,0,0,1,2.322-2.744,6.784,6.784,0,0,1,3.574-.973,5.72,5.72,0,0,1,2.858.708A5.9,5.9,0,0,1,394.043,112.84Z" fill="#2a2a2a"/><path d="M99.336,114.371v41.6A49.481,49.481,0,0,1,92.815,181.1a47.248,47.248,0,0,1-17.866,17.789,50.173,50.173,0,0,1-25.281,6.46,50.164,50.164,0,0,1-25.28-6.46A47.208,47.208,0,0,1,6.521,181.1,49.451,49.451,0,0,1,0,155.966,50.059,50.059,0,0,1,6.343,130.92a46.888,46.888,0,0,1,17.33-17.7,47.566,47.566,0,0,1,24.566-6.46A46.543,46.543,0,0,1,69.5,111.627a44.128,44.128,0,0,1,15.9,13.364V73.13a6.679,6.679,0,0,1,1.966-4.956,6.809,6.809,0,0,1,5-1.947,6.515,6.515,0,0,1,4.913,1.947,6.854,6.854,0,0,1,1.876,4.956v39.648A5.391,5.391,0,0,1,99.336,114.371ZM68.07,188.092a35.258,35.258,0,0,0,12.953-13.276,37.746,37.746,0,0,0,4.735-18.85,39.651,39.651,0,0,0-.179-4.425,1.94,1.94,0,0,1-.179-.885A35.415,35.415,0,0,0,73.7,128q-9.915-8.849-24.03-8.85a36.413,36.413,0,0,0-18.491,4.779,34.421,34.421,0,0,0-13.043,13.186,39.89,39.89,0,0,0,0,37.7,35.033,35.033,0,0,0,13.043,13.276,35.888,35.888,0,0,0,18.491,4.867A35.416,35.416,0,0,0,68.07,188.092Z" fill="#2a2a2a"/><path d="M183.167,112.866a42.729,42.729,0,0,1,16.576,16.9,50.472,50.472,0,0,1,5.9,24.6,5.772,5.772,0,0,1-1.873,4.514,7.014,7.014,0,0,1-4.871,1.68H123.231q1.5,14.517,11.988,23.541t26.221,9.028a43.873,43.873,0,0,0,13.579-2.212,33.565,33.565,0,0,0,10.957-5.576,8.5,8.5,0,0,1,5.057-1.77,7.253,7.253,0,0,1,4.121,1.416,6.255,6.255,0,0,1,2.434,4.778,5.255,5.255,0,0,1-2.06,4.072,51.761,51.761,0,0,1-15.733,8.23,57.136,57.136,0,0,1-45.138-3.009,46.183,46.183,0,0,1-18.449-17.523,48.911,48.911,0,0,1-6.649-25.4,51.559,51.559,0,0,1,6.274-25.577,44.806,44.806,0,0,1,17.419-17.523,50.783,50.783,0,0,1,25.379-6.283A48.541,48.541,0,0,1,183.167,112.866Zm-48.136,14.426q-9.368,8.322-11.425,21.948h68.551q-1.5-13.627-10.489-21.948t-23.037-8.319Q144.395,118.973,135.031,127.292Z" fill="#00768e"/><path d="M264.571,106.76a50.783,50.783,0,0,1,25.379,6.283,44.8,44.8,0,0,1,17.418,17.523,51.56,51.56,0,0,1,6.275,25.577,48.921,48.921,0,0,1-6.649,25.4,46.183,46.183,0,0,1-18.449,17.523,57.139,57.139,0,0,1-45.139,3.009,51.785,51.785,0,0,1-15.733-8.23,5.258,5.258,0,0,1-2.06-4.072,6.256,6.256,0,0,1,2.435-4.778,7.25,7.25,0,0,1,4.12-1.416,8.5,8.5,0,0,1,5.058,1.77,33.565,33.565,0,0,0,10.957,5.576,43.872,43.872,0,0,0,13.578,2.212q15.733,0,26.222-9.028t11.987-23.541H224.3a7.013,7.013,0,0,1-4.87-1.68,5.772,5.772,0,0,1-1.873-4.514,50.472,50.472,0,0,1,5.9-24.6,42.716,42.716,0,0,1,16.576-16.9A48.538,48.538,0,0,1,264.571,106.76Zm0,12.213q-14.048,0-23.038,8.319T231.045,149.24H299.6q-2.059-13.627-11.426-21.948T264.571,118.973Z" fill="#00768e"/><circle cx="157.634" cy="49" r="49" fill="#00768e"/><circle cx="265.134" cy="49" r="49" fill="#00768e"/></svg>