<svg viewBox="0 0 34 21.5"><g id="Layer_2" data-name="Layer 2"><g id="Layer_1-2" data-name="Layer 1-2"><g id="Layer_2-2" data-name="Layer 2"><g id="Layer_1-2-2" data-name="Layer 1-2"><path id="_Compound_Path_" data-name=" Compound Path " d="M9.5,19.7V18.5a.7.7,0,0,0-.6-.8H8.8a.7.7,0,0,0-.7.3.7.7,0,0,0-.6-.3.7.7,0,0,0-.6.3v-.2H6.5v1.9h.4V18.6a.5.5,0,0,1,.4-.5h.1c.3,0,.4.2.4.5v1.1h.4V18.6a.5.5,0,0,1,.4-.5h.1c.3,0,.4.2.4.5v1.1Zm6.3-1.9h-.7v-.6h-.4v.6h-.4v.4h.4V19c0,.4.2.7.7.7h.5v-.3h-.4c-.2,0-.3-.1-.3-.3v-.9h.7Zm3.6,0a.6.6,0,0,0-.5.3v-.2h-.4v1.9h.4V18.6c0-.3.2-.5.4-.5h.3v-.4h-.3Zm-5.4.2-.8-.2c-.5,0-.8.2-.8.6s.2.5.7.6h.2c.2,0,.4.1.4.2s-.2.2-.5.2l-.6-.2-.2.3.8.3c.6,0,.9-.3.9-.6s-.2-.5-.7-.6h-.2c-.2,0-.3-.1-.3-.2s.2-.2.4-.2l.6.2Zm5.9.8a1,1,0,0,0,.9,1h.1l.7-.2-.2-.3-.5.2a.7.7,0,0,1,0-1.3l.5.2.2-.3-.7-.2a1,1,0,0,0-1,.9s0,.1,0,.1Zm-2.7-1a.9.9,0,0,0-1,1,1,1,0,0,0,.9,1h.1a1.2,1.2,0,0,0,.8-.3l-.2-.3-.6.2a.6.6,0,0,1-.6-.5H18v-.2a.9.9,0,0,0-.9-1Zm0,.4a.5.5,0,0,1,.5.5h-1a.5.5,0,0,1,.5-.5Zm-5.2.7v-1h-.4V18a.8.8,0,0,0-.6-.3,1,1,0,0,0,0,2,.8.8,0,0,0,.6-.3v.2h.4Zm-1.6,0a.6.6,0,0,1,.6-.7h.1a.7.7,0,0,1,0,1.3.6.6,0,0,1-.6-.6h0Zm14.9-1a.6.6,0,0,0-.5.3v-.2h-.4v1.9h.4V18.6c0-.3.2-.5.4-.5h.3v-.4h-.3Zm3.1,1.7h.2a.2.2,0,0,1,0,.1h-.4a.2.2,0,0,1,0-.1h.2Zm0,.3h.1a.1.1,0,0,0,0-.2h-.2a.1.1,0,0,0,0,.2h.1Zm0-.2h-.1v-.2Zm0,0h.1a0,0,0,0,0,0,0,0,0,0,0,0,0,0h-.1Zm-4.6-.8v-1h-.4V18a.8.8,0,0,0-.6-.3,1,1,0,1,0,0,2,.8.8,0,0,0,.6-.3v.2h.4Zm-1.6,0a.6.6,0,0,1,.6-.7h.1a.7.7,0,0,1,0,1.3.6.6,0,0,1-.6-.6h0Zm5.5,0V17h-.4v1a.8.8,0,0,0-.6-.3,1,1,0,1,0,0,2,.8.8,0,0,0,.6-.3v.2h.4Zm-1.6,0a.6.6,0,0,1,.6-.7h.1a.7.7,0,0,1,0,1.3.6.6,0,0,1-.6-.6h0Z"/><g id="_Group_" data-name=" Group "><path d="M17,14.5c-2.9-1.4-4.6-3.5-4.6-5.7S14.1,4.4,17,3.1a10.4,10.4,0,0,1,2,1.2C23.2,7.4,22.3,12,17,14.5Z" fill="#ff5f00"/><path id="_Path_2" data-name=" Path 2" d="M14.2,8.8A7.3,7.3,0,0,1,17,3.1a7.3,7.3,0,1,0,0,11.4A7.3,7.3,0,0,1,14.2,8.8Z" fill="#eb001b"/><path d="M28.1,13.3V13H28v.2Zm.5,0V13h-.1v0h-.1v.3h.1v0h.1v0Z" fill="#f79e1b"/><path d="M28.8,8.8A7.3,7.3,0,0,1,17,14.5,7.3,7.3,0,0,0,18.2,4.3L17,3.1A7.3,7.3,0,0,1,28.8,8.8Z" fill="#f79e1b"/></g></g></g></g></g></svg>