<svg xmlns="http://www.w3.org/2000/svg" viewBox="0 0 32 32"><path d="M16.03,0.25C10.86,0.25,5.99,2.72,3,6.86l10.47,10.4l3.85-3.79l-2.17-2.14 l-0.03-0.07c-0.49-0.66-0.72-1.42-0.72-2.27c0-2.21,1.81-3.98,4.05-3.98S22.49,6.8,22.49,9c0,0.95-0.33,1.81-0.99,2.53l-0.03,0.03 l-1.94,1.91l10.4,10.21c1.35-2.37,2.07-5,2.07-7.7C32.03,7.29,24.86,0.25,16.03,0.25L16.03,0.25L16.03,0.25z M18.44,6.57 c-1.38,0-2.5,1.09-2.5,2.47c0,0.53,0.13,0.95,0.4,1.35l2.11,2.07l1.91-1.88c0.4-0.46,0.59-0.95,0.59-1.51 C20.94,7.65,19.82,6.57,18.44,6.57z M2.11,8.21C0.72,10.58,0,13.28,0,16.02c0,8.69,7.18,15.74,16.03,15.74l0,0 c5.23,0,10.14-2.5,13.14-6.72L18.44,14.57l-3.85,3.82l2.07,2.07c0.56,0.72,0.86,1.55,0.86,2.4c0,2.21-1.81,3.98-4.05,3.98 s-4.05-1.78-4.05-3.98c0-0.76,0.2-1.48,0.59-2.07l0.03-0.07l2.37-2.3L2.11,8.21L2.11,8.21z M13.46,19.44l-2.21,2.17 c-0.2,0.36-0.33,0.79-0.33,1.22c0,1.35,1.12,2.47,2.5,2.47s2.5-1.09,2.5-2.47c0-0.53-0.16-0.99-0.49-1.45L13.46,19.44z"/></svg>