<svg viewBox="0 0 34 21.5"><polygon points="12 15.8 13.7 5.7 16.5 5.7 14.7 15.8 12 15.8" fill="#1a1f71"/><path d="M24.7,6a7.1,7.1,0,0,0-2.5-.4c-2.7,0-4.6,1.4-4.7,3.3S19,11.1,20,11.6s1.4.8,1.4,1.3-.9,1-1.6,1a5.8,5.8,0,0,1-2.6-.5l-.4-.2-.4,2.3a8.7,8.7,0,0,0,3.1.5c2.9,0,4.8-1.4,4.8-3.5s-.7-2-2.3-2.7S20.5,9,20.5,8.5s.5-.9,1.6-.9a5.1,5.1,0,0,1,2.1.4h.2L24.7,6Z" fill="#1a1f71"/><path d="M31.8,5.7H29.6a1.4,1.4,0,0,0-1.4.8l-4.1,9.3H27l.6-1.5h3.5l.3,1.5H34L31.8,5.7Zm-3.4,6.5,1.1-2.8.4-1,.2.9.6,2.9Z" fill="#1a1f71"/><path d="M12.6,5.7,8.3,15.8H5.3L2.9,7A11.6,11.6,0,0,0,0,5.9V5.7H4.5a1.2,1.2,0,0,1,1.2.9l1,4.6L7,12.6,9.7,5.7Z" fill="#1a1f71"/></svg>