<svg id="Layer_1" data-name="Layer 1" xmlns="http://www.w3.org/2000/svg" xmlns:xlink="http://www.w3.org/1999/xlink" viewBox="0 0 139.6 139.6"><defs><clipPath id="clip-path" transform="translate(5.8 5.8)"><circle cx="64" cy="64" r="64" fill="none"/></clipPath><linearGradient id="linear-gradient" x1="272.083" y1="372.99" x2="424.81" y2="283.777" gradientTransform="translate(-52.5 -44.5) scale(0.25)" gradientUnits="userSpaceOnUse"><stop offset="0" stop-color="#a52714" stop-opacity="0.6"/><stop offset="0.66" stop-color="#a52714" stop-opacity="0"/></linearGradient><linearGradient id="linear-gradient-2" x1="509.255" y1="633.273" x2="339.557" y2="533.881" gradientTransform="translate(-52.5 -44.5) scale(0.25)" gradientUnits="userSpaceOnUse"><stop offset="0" stop-color="#055524" stop-opacity="0.4"/><stop offset="0.33" stop-color="#055524" stop-opacity="0"/></linearGradient><clipPath id="clip-path-6" transform="translate(5.8 5.8)"><polygon points="0 128 60.9 128 89.2 99.7 89.2 78.5 38.8 78.5 0 12 0 128" fill="none"/></clipPath><linearGradient id="linear-gradient-3" x1="541.176" y1="299.623" x2="583.907" y2="486.753" gradientTransform="translate(-52.5 -44.5) scale(0.25)" gradientUnits="userSpaceOnUse"><stop offset="0" stop-color="#ea6100" stop-opacity="0.3"/><stop offset="0.66" stop-color="#ea6100" stop-opacity="0"/></linearGradient><clipPath id="clip-path-9" transform="translate(5.8 5.8)"><polygon points="64 34.9 89.2 78.5 60.9 128 128 128 128 34.9 64 34.9" fill="none"/></clipPath><radialGradient id="radial-gradient" cx="1030.876" cy="317.485" r="244.591" gradientTransform="translate(-196.5 -44.5) scale(0.25)" gradientUnits="userSpaceOnUse"><stop offset="0" stop-color="#3e2723" stop-opacity="0.2"/><stop offset="1" stop-color="#3e2723" stop-opacity="0"/></radialGradient><clipPath id="clip-path-12" transform="translate(5.8 5.8)"><polygon points="10.2 0 10.2 29.3 38.8 78.5 64 34.9 128 34.9 128 0 10.2 0" fill="none"/></clipPath><radialGradient id="radial-gradient-2" cx="826.364" cy="295.876" r="227.037" xlink:href="#radial-gradient"/><radialGradient id="radial-gradient-3" cx="1041.546" cy="434.401" r="255.622" gradientTransform="translate(-196.5 -44.5) scale(0.25)" gradientUnits="userSpaceOnUse"><stop offset="0" stop-color="#263238" stop-opacity="0.2"/><stop offset="1" stop-color="#263238" stop-opacity="0"/></radialGradient><radialGradient id="radial-gradient-4" cx="286.468" cy="247.859" r="514.17" gradientTransform="translate(-46.7 -38.7) scale(0.25)" gradientUnits="userSpaceOnUse"><stop offset="0" stop-color="#fff" stop-opacity="0.1"/><stop offset="1" stop-color="#fff" stop-opacity="0"/></radialGradient></defs><g clip-path="url(#clip-path)"><path d="M10.2,0V78.5H38.8L64,34.9h64V0Z" transform="translate(5.8 5.8)" fill="#db4437"/><path d="M10.2,0V78.5H38.8L64,34.9h64V0Z" transform="translate(5.8 5.8)" fill="url(#linear-gradient)"/></g><g clip-path="url(#clip-path)"><path d="M39.5,78.3l-29-49.7-.4.7L38.9,78.6Z" transform="translate(5.8 5.8)" fill="#3e2723" fill-opacity="0.15"/></g><g clip-path="url(#clip-path)"><path d="M0,128H60.9L89.2,99.7V78.5H38.8L0,12Z" transform="translate(5.8 5.8)" fill="#0f9d58"/><path d="M0,128H60.9L89.2,99.7V78.5H38.8L0,12Z" transform="translate(5.8 5.8)" fill="url(#linear-gradient-2)"/></g><g clip-path="url(#clip-path)"><path d="M88.6,79.5l-.6-.3L60.1,128h.8L88.6,79.5Z" transform="translate(5.8 5.8)" fill="#263238" fill-opacity="0.15"/></g><g clip-path="url(#clip-path)"><g clip-path="url(#clip-path-6)"><path d="M64,34.9,89.2,78.5,60.9,128H128V34.9Z" transform="translate(5.8 5.8)" fill="#ffcd40"/><path d="M64,34.9,89.2,78.5,60.9,128H128V34.9Z" transform="translate(5.8 5.8)" fill="url(#linear-gradient-3)"/></g><g clip-path="url(#clip-path)"><path d="M64,34.9,89.2,78.5,60.9,128H128V34.9Z" transform="translate(5.8 5.8)" fill="#ffcd40"/><path d="M64,34.9,89.2,78.5,60.9,128H128V34.9Z" transform="translate(5.8 5.8)" fill="url(#linear-gradient-3)"/></g><g clip-path="url(#clip-path)"><g clip-path="url(#clip-path-9)"><path d="M10.2,0V78.5H38.8L64,34.9h64V0Z" transform="translate(5.8 5.8)" fill="#db4437"/><path d="M10.2,0V78.5H38.8L64,34.9h64V0Z" transform="translate(5.8 5.8)" fill="url(#linear-gradient)"/></g><g clip-path="url(#clip-path)"><path d="M64,34.9V50.1l57-15.2Z" transform="translate(5.8 5.8)" fill="url(#radial-gradient)"/></g><g clip-path="url(#clip-path)"><g clip-path="url(#clip-path-12)"><path d="M0,128H60.9L89.2,99.7V78.5H38.8L0,12Z" transform="translate(5.8 5.8)" fill="#0f9d58"/><path d="M0,128H60.9L89.2,99.7V78.5H38.8L0,12Z" transform="translate(5.8 5.8)" fill="url(#linear-gradient-2)"/></g><g clip-path="url(#clip-path)"><path d="M10.2,29.4,51.8,71l-13,7.5Z" transform="translate(5.8 5.8)" fill="url(#radial-gradient-2)"/></g><g clip-path="url(#clip-path)"><path d="M61,127.9,76.2,71l13,7.5Z" transform="translate(5.8 5.8)" fill="url(#radial-gradient-3)"/></g><g clip-path="url(#clip-path)"><circle cx="69.8" cy="69.8" r="29.1" fill="#f1f1f1"/><circle cx="69.8" cy="69.8" r="23.3" fill="#4285f4"/></g><g clip-path="url(#clip-path)"><path d="M64,34.2A29.064,29.064,0,0,0,34.9,63.3V64A29.064,29.064,0,0,1,64,34.9h64v-.7Z" transform="translate(5.8 5.8)" fill="#3e2723" fill-opacity="0.2"/><path d="M89.2,78.5A28.955,28.955,0,0,1,64,93,29.288,29.288,0,0,1,38.8,78.5h0L0,12v.7L38.8,79.3h0A28.955,28.955,0,0,0,64,93.8,29.288,29.288,0,0,0,89.2,79.3h0v-.8Z" transform="translate(5.8 5.8)" fill="#fff" fill-opacity="0.1"/><path d="M64.7,34.9h-.4a29.1,29.1,0,0,1,.1,58.2h.4a29.1,29.1,0,1,0-.1-58.2Z" transform="translate(5.8 5.8)" fill="#3e2723" opacity="0.1" style="isolation:isolate"/><path d="M89.5,79.5A28.7,28.7,0,0,0,92,56.2a28.664,28.664,0,0,1-2.8,22.3h0L60.9,128h.8L89.5,79.5Z" transform="translate(5.8 5.8)" fill="#fff" fill-opacity="0.2"/></g><g clip-path="url(#clip-path)"><path d="M64,.7a64.04,64.04,0,0,1,64,63.6v-.4A64,64,0,1,0,0,64v.4A64.06,64.06,0,0,1,64,.7Z" transform="translate(5.8 5.8)" fill="#fff" fill-opacity="0.2"/><path d="M64,127.3a64.04,64.04,0,0,0,64-63.6v.4A64,64,0,1,1,0,64v-.4A64.06,64.06,0,0,0,64,127.3Z" transform="translate(5.8 5.8)" fill="#3e2723" fill-opacity="0.15"/></g><circle cx="69.8" cy="69.8" r="64" fill="url(#radial-gradient-4)"/><path d="M-5.8-5.8H133.8V133.8H-5.8Z" transform="translate(5.8 5.8)" fill="none"/></g></g></g></svg>