<svg xmlns="http://www.w3.org/2000/svg" viewBox="0 0 32 23.04"><path d="M32,11.4c0-1.35-2.5-2-8.94-2-15.12,0-19-.64-23.06-5,1.73,2.59,2.67,7.46,18.65,7.22,16.67-.26,6.5,4.3,3.54,9.45,5.34-4.76,9.79-7.9,9.81-9.72v0Z" transform="translate(0 -4.48)" fill="#04b6f0"/><path d="M10.76,25.24A2.29,2.29,0,1,1,8.48,23,2.28,2.28,0,0,1,10.76,25.24Z" transform="translate(0 -4.48)" fill="#04b6f0"/><path d="M21.17,25.24A2.29,2.29,0,1,1,18.89,23,2.28,2.28,0,0,1,21.17,25.24Z" transform="translate(0 -4.48)" fill="#04b6f0"/></svg>