<svg xmlns="http://www.w3.org/2000/svg" viewBox="0 0 16 13.001"><path d="M22.362,12.737c.007.141.01.282.01.424A9.337,9.337,0,0,1,8,21.026a6.4,6.4,0,0,0,.783.045,6.581,6.581,0,0,0,4.076-1.4,3.283,3.283,0,0,1-3.065-2.279,3.323,3.323,0,0,0,1.481-.057,3.286,3.286,0,0,1-2.632-3.219v-.041a3.261,3.261,0,0,0,1.487.41A3.287,3.287,0,0,1,9.114,10.1a9.317,9.317,0,0,0,6.766,3.429,3.286,3.286,0,0,1,5.594-2.994,6.619,6.619,0,0,0,2.085-.795,3.306,3.306,0,0,1-1.444,1.815A6.5,6.5,0,0,0,24,11.038,6.665,6.665,0,0,1,22.362,12.737Z" transform="translate(-8 -9.5)" fill="#fff"/></svg>