<svg xmlns="http://www.w3.org/2000/svg" viewBox="0 0 32 32"><g transform="scale(0.5 0.5) translate(1268 20)"><path fill="#FF7700" d="M-1268-1.87c0-0.99,0.8-1.79,1.79-1.79h27.3l0.9-3.13c0.15-0.67,0.68-1.19,1.34-1.34h21.93 c0.67,0.15,1.19,0.68,1.34,1.34l0.9,3.13h6.71c0.99,0,1.79,0.8,1.79,1.79v32.22c0,0.99-0.8,1.79-1.79,1.79h-60.42 c-0.99,0-1.79-0.8-1.79-1.79V-1.87"/><path fill="#4E4E4E" d="M-1233.81-5.99c0-0.25,0.2-0.45,0.45-0.45h15.22c0.25,0,0.45,0.2,0.45,0.45v4.65c0,0.25-0.2,0.45-0.45,0.45 h-15.22c-0.25,0-0.45-0.2-0.45-0.45V-5.99"/><path fill="#FFFFFF" d="M-1233.14-5.45c0-0.25,0.2-0.45,0.45-0.45h13.87c0.25,0,0.45,0.2,0.45,0.45v3.58c0,0.25-0.2,0.45-0.45,0.45 h-13.87c-0.25,0-0.45-0.2-0.45-0.45V-5.45"/><ellipse fill="#FFFFFF" cx="-1250.1" cy="14.24" rx="13.43" ry="13.43"/><ellipse fill="#4E4E4E" cx="-1250.1" cy="14.24" rx="11.01" ry="11.01"/><ellipse fill="#FFFFFF" cx="-1250.1" cy="14.24" rx="8.95" ry="8.95"/><ellipse fill="#4E4E4E" cx="-1250.99" cy="15.13" rx="8.95" ry="8.95"/></g></svg>