<svg xmlns="http://www.w3.org/2000/svg" viewBox="0 0 32 10.72"><path d="M25.92 4.3c-.1-.26-.23-.39-.38-.43s-.47.09-.68.41a2 2 0 0 0-.35.77 2.45 2.45 0 0 0 0 .48 1.63 1.63 0 0 0 .12.59c.09.25.22.39.38.42a.64.64 0 0 0 .49-.18 1.69 1.69 0 0 0 .5-1 2.44 2.44 0 0 0 .05-.48 1.59 1.59 0 0 0-.13-.58z" fill="#9c5c8f"/><path d="M30.51 1.19h-13A1.48 1.48 0 0 0 16 2.68v5a1.49 1.49 0 0 0 1.49 1.49h6.17l2.82 1.57-.64-1.57h4.67A1.49 1.49 0 0 0 32 7.65v-5a1.49 1.49 0 0 0-1.49-1.46zm-7.88 6.52a.76.76 0 0 1-.08.43.41.41 0 0 1-.34.23.63.63 0 0 1-.52-.24 6.53 6.53 0 0 1-1.44-2.77c-.42.84-.73 1.46-.93 1.88-.39.73-.71 1.11-1 1.13s-.33-.14-.46-.45a28.06 28.06 0 0 1-1.07-4.94.52.52 0 0 1 .1-.43.53.53 0 0 1 .41-.21.48.48 0 0 1 .57.47c.2 1.36.42 2.51.65 3.46L20 3.55a.64.64 0 0 1 .49-.39c.28 0 .46.17.53.55a11.48 11.48 0 0 0 .62 2.22 9.81 9.81 0 0 1 .83-3.57.49.49 0 0 1 .42-.29.56.56 0 0 1 .41.13.52.52 0 0 1 .21.37.62.62 0 0 1-.07.31 8.08 8.08 0 0 0-.63 2.35 12.22 12.22 0 0 0-.18 2.48zm4-1a1.75 1.75 0 0 1-1.53 1 2.35 2.35 0 0 1-.35 0 1.53 1.53 0 0 1-1-.76 2.52 2.52 0 0 1-.31-1.29 3.41 3.41 0 0 1 .51-1.83 1.74 1.74 0 0 1 1.52-1 2.33 2.33 0 0 1 .36 0 1.55 1.55 0 0 1 1 .76 2.53 2.53 0 0 1 .31 1.28 3.47 3.47 0 0 1-.52 1.82zm4.58-1.84a3.47 3.47 0 0 1-.51 1.84 1.74 1.74 0 0 1-1.53 1 2.35 2.35 0 0 1-.35 0 1.53 1.53 0 0 1-1-.76 2.52 2.52 0 0 1-.31-1.29A3.41 3.41 0 0 1 28 3.75a1.75 1.75 0 0 1 1.53-1 2.35 2.35 0 0 1 .35 0 1.53 1.53 0 0 1 1 .76 2.34 2.34 0 0 1 .32 1.34z" fill="#9c5c8f"/><path d="M29.61 3.87c-.23 0-.46.09-.67.41a2 2 0 0 0-.35.77 2.45 2.45 0 0 0 0 .48 1.85 1.85 0 0 0 .11.59q.15.38.39.42a.61.61 0 0 0 .52-.21 1.64 1.64 0 0 0 .5-1 2.45 2.45 0 0 0 0-.48 1.58 1.58 0 0 0-.11-.59c-.1-.22-.23-.35-.39-.39zM14.39 4.93h-1.26V3.68h-.5v1.25h-1.25v.5h1.25v1.25h.5V5.43h1.26v-.5" fill="#9c5c8f"/><path d="M5.08 5.36L3.79 9.11A4.37 4.37 0 0 0 5 9.28a4.15 4.15 0 0 0 1.42-.24v-.06zM.71 5a4.31 4.31 0 0 0 2.42 3.86l-2-5.61A4.22 4.22 0 0 0 .71 5z" fill="#21759c"/><path d="M7.9 4.78a2.17 2.17 0 0 0-.36-1.18 2 2 0 0 1-.42-1 .74.74 0 0 1 .72-.76h.06a4.3 4.3 0 0 0-6.48.81h1.42a.18.18 0 0 1 0 .35h-.49l1.56 4.65.94-2.82-.65-1.85h-.45c-.23 0-.2-.36 0-.35h2.27a.18.18 0 1 1 0 .35h-.49l1.55 4.61.43-1.42a4 4 0 0 0 .39-1.39zm.86-1.84a2.94 2.94 0 0 1 0 .44 4.1 4.1 0 0 1-.32 1.53L7.16 8.7A4.28 4.28 0 0 0 9.29 5a4.21 4.21 0 0 0-.53-2.06z" fill="#21759c"/><path d="M5 0a5 5 0 1 0 5 5 5 5 0 0 0-5-5zm0 9.77A4.78 4.78 0 1 1 9.77 5 4.78 4.78 0 0 1 5 9.77z" fill="#21759c"/></svg>