<svg xmlns="http://www.w3.org/2000/svg" viewBox="0 0 32 32"><circle cx="16" cy="16" r="16" fill="#a6a6a6"/><circle cx="16" cy="16" r="10.18" fill="#6c6c6c"/><circle cx="25.31" cy="25.37" r="1.16" fill="#d8d8d8"/><path d="M16.35 15.83l-4.26 3.39L23 30.39a16 16 0 0 0 4.35-25.67z" fill="#4c4c4c" opacity=".65"/><path d="M27.35 4.72l-11 11.1s15.59.23 15.65.18a16 16 0 0 0-4.65-11.28z" fill="#6c6c6c"/><circle cx="16" cy="16" r="5.06" fill="#4c4c4c"/><circle cx="6.69" cy="25.31" r="1.16" fill="#bfbfbf"/><circle cx="16" cy="29.21" r="1.16" fill="#bfbfbf"/><circle cx="2.85" cy="16.06" r="1.16" fill="#bfbfbf"/><circle cx="6.69" cy="6.75" r="1.16" fill="#bfbfbf"/><circle cx="16" cy="3.03" r="1.16" fill="#bfbfbf"/><rect x="14.43" y="14.6" width="16.06" height="2.91" rx="1.45" ry="1.45" fill="#aeaeae"/></svg>