<svg id="ecd2def3-e22f-4739-9f93-41f9531b0915" xmlns="http://www.w3.org/2000/svg" viewBox="0 0 20.84 28.42"><path d="M6.43,22.18A9.76,9.76,0,0,1,.17,14.5C-1.44,5.1,8.49-3.36,18.47,1.34c.1,2.1-.88,5.13-3.57,6,13.35,8.42,2,25.59-12,20C.37,26,1.74,23.64,4.43,25s7,1,9.49-.34A11.13,11.13,0,0,0,18,21.05a14.06,14.06,0,0,0,.93-1.76c.24-.49.88-2.54.39-2.74s-.2.1-.24.24a9.4,9.4,0,0,1-1.91,3.58A9.55,9.55,0,0,1,13,23.2a13.49,13.49,0,0,1-7.49.1A10.3,10.3,0,0,0,6.43,22.18Zm9.2-20s0,.34.1.88a4.45,4.45,0,0,1-1.47,3.67l-.78.68c3.77,2.35,5.72,7.49,3.57,11.06-3,4.79-8.81,3.71-12,.39S2.18,11,4.58,7.7A13.68,13.68,0,0,1,15.63,2.22Z" fill="#97ca4f" fill-rule="evenodd"/><path d="M4.28,12.73c.74-7.14,9-8.51,12,1S3.16,21.39,4.28,12.73Zm6.7,4.7c6.51.25,3.38-6.36-.88-7.83S3.55,17.43,11,17.43Z" fill="#fff" fill-rule="evenodd"/></svg>