<svg xmlns="http://www.w3.org/2000/svg" viewBox="0 0 200 50"><path d="M51.839,5.569a3.356,3.356,0,0,0-4.827,0,3.267,3.267,0,0,0,0,4.771,3.856,3.856,0,0,0,.918.683,3.326,3.326,0,0,0,1.5.341,3.436,3.436,0,0,0,1.263-.228,3.817,3.817,0,0,0,1.15-.8,3.267,3.267,0,0,0,0-4.771Zm5.4,21.988a3.776,3.776,0,0,0-1.035.739,3.268,3.268,0,0,0,0,4.772,3.359,3.359,0,0,0,4.827,0,3.268,3.268,0,0,0,0-4.772,3.327,3.327,0,0,0-2.413-1.023A3.37,3.37,0,0,0,57.242,27.557Zm-40-23.012a3.322,3.322,0,0,0-2.414,1.024,3.267,3.267,0,0,0,0,4.771,3.825,3.825,0,0,0,1.149.8,3.443,3.443,0,0,0,1.265.228,3.317,3.317,0,0,0,1.493-.341,3.866,3.866,0,0,0,.92-.683,3.267,3.267,0,0,0,0-4.771A3.323,3.323,0,0,0,17.242,4.545ZM10.461,28.3A3.272,3.272,0,0,0,9.2,27.5a2.883,2.883,0,0,0-1.149-.226A3.327,3.327,0,0,0,5.633,28.3a3.268,3.268,0,0,0,0,4.772,3.36,3.36,0,0,0,4.828,0,3.272,3.272,0,0,0,0-4.772ZM30.92,44.431a3.356,3.356,0,0,0,4.827,0,3.267,3.267,0,0,0,0-4.771,3.331,3.331,0,0,0-1.379-.853,3.215,3.215,0,0,0-2.069,0,3.318,3.318,0,0,0-1.379.853,3.267,3.267,0,0,0,0,4.771ZM57.357,7.954a7.354,7.354,0,0,1-2.413,5.569,7.08,7.08,0,0,1-.69.625,1.977,1.977,0,0,1,.171.341l3.219,7.954a2.785,2.785,0,0,1,.115.341,6.411,6.411,0,0,1,.862-.057,8,8,0,0,1,8.046,7.955,7.351,7.351,0,0,1-2.414,5.568,7.514,7.514,0,0,1-5.632,2.386,7.886,7.886,0,0,1-5.747-2.386,7.535,7.535,0,0,1-2.3-5.568A7.915,7.915,0,0,1,52.874,25c.213-.2.424-.389.633-.568-.036-.087-.075-.182-.115-.284l-3.219-7.955a2.67,2.67,0,0,1-.115-.341,4.809,4.809,0,0,1-.747.057,6.991,6.991,0,0,1-1.264-.113,1.427,1.427,0,0,1-.115.341L38.391,35.682a.95.95,0,0,1-.114.172,7.169,7.169,0,0,1,.575.51,7.716,7.716,0,0,1,2.413,5.682,7.353,7.353,0,0,1-2.413,5.568A7.522,7.522,0,0,1,33.219,50a7.89,7.89,0,0,1-5.747-2.386,7.528,7.528,0,0,1-2.3-5.568,7.907,7.907,0,0,1,2.3-5.682,8.085,8.085,0,0,1,.747-.626l-9.6-19.6a1.385,1.385,0,0,1-.115-.341,8.3,8.3,0,0,1-1.379.113,4.832,4.832,0,0,1-.748-.057,2.478,2.478,0,0,1-.115.341l-3.218,7.955a1.427,1.427,0,0,1-.115.227,5.831,5.831,0,0,1,.748.625,7.716,7.716,0,0,1,2.413,5.682,7.353,7.353,0,0,1-2.413,5.568,7.517,7.517,0,0,1-5.633,2.386A7.892,7.892,0,0,1,2.3,36.25,7.531,7.531,0,0,1,0,30.682,7.91,7.91,0,0,1,2.3,25a8.1,8.1,0,0,1,5.748-2.273h.633c.034-.087.072-.182.114-.284l3.218-7.954c.041-.1.079-.2.116-.284-.25-.209-.5-.436-.747-.682a7.528,7.528,0,0,1-2.3-5.569,7.908,7.908,0,0,1,2.3-5.682A8.1,8.1,0,0,1,17.127,0a7.709,7.709,0,0,1,5.632,2.272,7.719,7.719,0,0,1,2.414,5.682,7.355,7.355,0,0,1-2.414,5.569c-.071.074-.148.15-.23.227a1.545,1.545,0,0,1,.23.341L32.3,33.636a2.12,2.12,0,0,1,.171.513,4.909,4.909,0,0,1,.748-.058,6.5,6.5,0,0,1,.862.058,2.042,2.042,0,0,1,.173-.513l9.539-19.545c.042-.081.081-.156.117-.227-.113-.11-.227-.223-.346-.341a7.525,7.525,0,0,1-2.3-5.569,7.9,7.9,0,0,1,2.3-5.682A8.1,8.1,0,0,1,49.311,0a7.713,7.713,0,0,1,5.633,2.272A7.718,7.718,0,0,1,57.357,7.954Z" fill="#007bd9" fill-rule="evenodd"/><polygon points="90.22 12.795 98.769 34.592 98.88 34.592 107.429 12.795 112.073 12.795 112.073 39.623 108.443 39.623 108.443 29.009 108.811 18.101 108.719 18.083 100.022 39.623 97.608 39.623 88.948 18.138 88.856 18.157 89.206 29.009 89.206 39.623 85.576 39.623 85.576 12.795 90.22 12.795"/><path d="M125.763,19.318a7.551,7.551,0,0,1,6.1,2.432,9.687,9.687,0,0,1,2.063,6.486V30.5H120.991l-.056.092a7.878,7.878,0,0,0,1.456,4.726,4.636,4.636,0,0,0,3.925,1.852,9.129,9.129,0,0,0,3.233-.525,7.42,7.42,0,0,0,2.405-1.447l1.419,2.359a8.437,8.437,0,0,1-2.819,1.75,11.417,11.417,0,0,1-4.238.7,8.41,8.41,0,0,1-6.624-2.773,10.441,10.441,0,0,1-2.46-7.2v-.81a10.222,10.222,0,0,1,2.533-7.085A7.8,7.8,0,0,1,125.763,19.318Zm0,2.855a3.932,3.932,0,0,0-3.114,1.539,7.292,7.292,0,0,0-1.585,3.86l.037.092H130.3v-.479a5.56,5.56,0,0,0-1.143-3.574A4.07,4.07,0,0,0,125.763,22.173Z"/><path d="M142.788,14.877v4.809h3.777v2.69h-3.777V34.482a2.708,2.708,0,0,0,.581,1.971,2.1,2.1,0,0,0,1.538.572,3.645,3.645,0,0,0,.691-.074,4.305,4.305,0,0,0,.673-.184l.479,2.487a3.226,3.226,0,0,1-1.189.544,6.016,6.016,0,0,1-1.575.212,4.7,4.7,0,0,1-3.519-1.336,5.8,5.8,0,0,1-1.309-4.192V22.376h-3.169v-2.69h3.169V14.877Z"/><path d="M160.477,22.892l-1.861-.11a4.16,4.16,0,0,0-2.423.681,4.378,4.378,0,0,0-1.52,1.917V39.623h-3.63V19.686h3.243l.35,2.911a6.913,6.913,0,0,1,2.091-2.413,4.884,4.884,0,0,1,2.865-.866,4.475,4.475,0,0,1,.774.064,5.113,5.113,0,0,1,.608.138Z"/><polygon points="167.902 39.623 164.273 39.623 164.273 19.686 167.902 19.686 167.902 39.623"/><polygon points="168.347 14.582 164.717 14.582 164.717 10.879 168.347 10.879 168.347 14.582"/><polygon points="177.41 39.623 173.78 39.623 173.78 10.879 177.41 10.879 177.41 39.623"/><path d="M191.045,19.318a8.11,8.11,0,0,1,6.55,2.855A10.943,10.943,0,0,1,200,29.47v.405a10.923,10.923,0,0,1-2.4,7.3,8.916,8.916,0,0,1-13.055-.009,10.905,10.905,0,0,1-2.405-7.288V29.47a10.975,10.975,0,0,1,2.4-7.287A8.033,8.033,0,0,1,191.045,19.318Zm0,2.855a4.38,4.38,0,0,0-3.934,2.083,9.48,9.48,0,0,0-1.336,5.214h0v.405a9.459,9.459,0,0,0,1.336,5.233,4.825,4.825,0,0,0,7.914,0,9.4,9.4,0,0,0,1.345-5.233h0V29.47a9.375,9.375,0,0,0-1.354-5.214A4.441,4.441,0,0,0,191.045,22.173Z"/></svg>