<svg xmlns="http://www.w3.org/2000/svg" viewBox="0 0 415.2 150"><path d="M67.6,33.2a32.53,32.53,0,0,1-8,21.4L66.8,150H2.6l7-93.8A32.84,32.84,0,0,1,0,33.1C0,14.8,15.1,0,33.8,0S67.6,14.9,67.6,33.2M33.8,40.7a8.07,8.07,0,0,0,8.1-8.1,8.1,8.1,0,0,0-16.2,0,8.13,8.13,0,0,0,8.1,8.1m6.4,28.8L29.1,80.6v43.1H40.2Z" fill="#1cc691"/><path d="M154.1,111.9a15.37,15.37,0,0,1-7.2,1.8,11.93,11.93,0,0,1-7.4-2.4,12.3,12.3,0,0,1-4.3-6.2A37.32,37.32,0,0,1,134,94.3v-21c0-.5,0-2.8-1.5-3.5a5,5,0,0,0-1.2-.3.86.86,0,0,1-.8-.8V66.3a.88.88,0,0,1,.8-.9h9.3a2.43,2.43,0,0,1,2.4,2.4v28c0,4.6.8,7.7,2.5,9.1a8.32,8.32,0,0,0,5.9,2.2,12.29,12.29,0,0,0,5.4-1.5,31.2,31.2,0,0,0,8.1-5.6V73.3c0-.5,0-2.8-1.4-3.5a5.31,5.31,0,0,0-1.1-.3c-.4-.1-.8-.4-.8-.8V66.3a.9.9,0,0,1,.9-.9h9.2a2.43,2.43,0,0,1,2.4,2.4v36.6c0,.5-.1,3.1,1.4,3.8a5,5,0,0,0,1.2.3.86.86,0,0,1,.8.8v2.4c0,.5-.4.8-.9.9h-9.2a2.43,2.43,0,0,1-2.4-2.4v-7a46.42,46.42,0,0,1-10.9,8.7" fill="#515254"/><path d="M197.9,109.3a13.8,13.8,0,0,0,6,1.3c3.2,0,6.3-1.7,9-5.2s4.2-8.5,4.2-15.2q0-9.15-4.2-14.1c-2.8-3.3-6-4.9-9.5-4.9a13.29,13.29,0,0,0-5.7,1.4A27.5,27.5,0,0,0,193,76a2.5,2.5,0,0,0-.8,1.8v26.5a2.34,2.34,0,0,0,.8,1.8,21.51,21.51,0,0,0,4.9,3.2m-14.4-58c0-.5,0-2.7-1.4-3.4a4.17,4.17,0,0,0-.6-.2.76.76,0,0,1-.6-.8V44.6c0-.5.4-.8.9-.9h8.3a2.26,2.26,0,0,1,2.3,2.3V73.4q7-9.6,15.3-9.6c5,0,9.4,2.1,13.1,6.3s5.6,9.9,5.6,17.2c0,8.5-2.9,15.3-8.6,20.5a24.37,24.37,0,0,1-16.5,6.7,27.46,27.46,0,0,1-8.7-1.5,41.46,41.46,0,0,1-7.7-3.7,2.81,2.81,0,0,1-1.3-2.4V57.6Z" fill="#515254"/><path d="M278,112.4a.9.9,0,0,1-.9-.9v-2.3a.77.77,0,0,1,.7-.8,5.63,5.63,0,0,0,1-.2c1.4-.7,1.4-2.9,1.4-3.4V84.6c0-1.9,0-3.8.1-5.5V73c0-.6,0-2.8-1.4-3.5-.1-.1-.3-.1-.5-.2a.76.76,0,0,1-.6-.8V66.2c0-.5.4-.8.9-.9h8.1a2.26,2.26,0,0,1,2.3,2.3v5.2a.58.58,0,0,0,.6.6.52.52,0,0,0,.4-.2c5.4-5.9,12.3-8.8,17.2-8.8a11.9,11.9,0,0,1,6.9,1.9,13.63,13.63,0,0,1,4.6,6.3c.8,2.1,1.2,5.2,1.2,9.4v22.8c0,.5,0,2.7,1.4,3.4a1.55,1.55,0,0,0,.8.2.85.85,0,0,1,.7.8v2.3a1,1,0,0,1-.8.9h-12a2,2,0,0,1-2-2,2.38,2.38,0,0,1,1.6-2.2c.1,0,.1,0,.2-.1a3.32,3.32,0,0,0,1.4-2.7V82.8c0-4.3-.6-7.4-1.7-9.3a6.34,6.34,0,0,0-5.8-2.9,21,21,0,0,0-14.4,6.7v27.5c0,.5,0,2.8,1.4,3.5.1,0,.1,0,.2.1a2.25,2.25,0,0,1,1.6,2.2,2,2,0,0,1-2,2h-7.9c0-.2-1.6-.2-4.7-.2" fill="#515254"/><path d="M403.7,86.7c-6.6,1.3-10.4,2.2-11.4,2.5-3.7,1.2-6.6,2.6-6.8,8.7a8.61,8.61,0,0,0,2.3,6.3,6.86,6.86,0,0,0,5.3,2.5c2.5,0,5.7-1.8,9.6-4.8a2.66,2.66,0,0,0,1.1-2.2v-13Zm8.8,17.4v.6a3.19,3.19,0,0,0,1.4,2.8,1.42,1.42,0,0,0,.6.2.85.85,0,0,1,.7.8v2.4c0,.5-.4.8-.9.9H406a2.26,2.26,0,0,1-2.3-2.3V105c-5,3.9-8.2,6.1-9.5,6.7a14.24,14.24,0,0,1-6.1,1.3,11.46,11.46,0,0,1-8.4-3.4,12.56,12.56,0,0,1-3.3-9.1,11.46,11.46,0,0,1,1.6-6.2,16.07,16.07,0,0,1,7.6-6.8c4-1.6,7.3-2,18-4.4V78.8c0-4.5-.8-9.2-8.4-8.7a29.09,29.09,0,0,0-14.7,5,.83.83,0,0,1-1.2-.2.75.75,0,0,1-.1-.5V71.6c0-1.5.3-2.4.9-2.9,3.1-2.5,10.9-5.5,18.5-5,8.4.6,11.4,4,12.9,9.3.5,1.6,1,2.8,1,7.5v23.6Z" fill="#515254"/><path d="M354.1,71.1a9.92,9.92,0,0,0-5-1.5,11.64,11.64,0,0,0-8.3,3.8c-2.7,2.8-4.6,6.5-4.6,13.5s1.5,12.4,4.6,16.2,6.4,5.6,10.2,5.6a11.4,11.4,0,0,0,7.8-3.4,4.05,4.05,0,0,0,1.4-3V81.5a12.41,12.41,0,0,0-6.1-10.4M370,107.9c.1.1.3.1.5.2a.76.76,0,0,1,.6.8v2.3c0,.5-.4.8-.9.9h-8a2.31,2.31,0,0,1-2.3-2.2v-2.2a25.74,25.74,0,0,1-6.8,5.3,15.71,15.71,0,0,1-7.1,1.6c-5.2,0-9.7-2.2-13.6-6.6s-5.8-10-5.8-16.9A30.33,30.33,0,0,1,333,72.3c4.3-5.7,9.8-8.5,16.5-8.5a14.25,14.25,0,0,1,10.4,4V51.1c0-.5,0-2.7-1.4-3.4-.1-.1-.3-.1-.5-.2a.76.76,0,0,1-.6-.8V44.3a.9.9,0,0,1,.9-.9h7.9a2.31,2.31,0,0,1,2.3,2.2v58.9c.1.6.1,2.7,1.5,3.4" fill="#515254"/><path d="M238.7,83.5c0,.1,0,.3.1.3s.2.1.4.1h23.9a.46.46,0,0,0,.5-.4,12.7,12.7,0,0,0-3.3-10.8c-1.8-1.9-4.1-2.8-8.3-2.8-7.6,0-12.5,7.3-13.3,13.6m-2.5,24.7c-3.9-4.3-5.9-11.3-5.9-18.2a28.61,28.61,0,0,1,6.4-18.7,21.89,21.89,0,0,1,17.1-7.7c5.8,0,10.2,2,13.2,5.8,2.7,3.6,4.1,8.8,4.1,15.4,0,.8,0,1.9-.1,3.3a1.73,1.73,0,0,1-1.7,1.6H239.5c-.1,0-.3.1-.4.1s-.1.2-.1.4c.1,5.4,1.8,10,5,13.2a16.8,16.8,0,0,0,12.4,4.9,49.56,49.56,0,0,0,12.4-2.1,1,1,0,0,1,1.3.7.45.45,0,0,1,0,.5l-.5,1.9a2.62,2.62,0,0,1-1.3,1.6,36,36,0,0,1-15,3.5c-7,.1-13-1.6-17.1-6.2" fill="#515254"/><path d="M119.8,69.2v36.9a2.61,2.61,0,0,0,1.4,2.3,2.44,2.44,0,0,1,1.4,2.3v.7a1.37,1.37,0,0,1-1.4,1.4H108.7a1.37,1.37,0,0,1-1.4-1.4v-.7a2.61,2.61,0,0,1,1.4-2.3,2.44,2.44,0,0,0,1.4-2.3V70.4a.9.9,0,0,0-.9-.9.9.9,0,0,1-.9-.9V67.4a2.05,2.05,0,0,1,2.1-2.1H116a3.82,3.82,0,0,1,3.8,3.9" fill="#515254"/><path d="M115,44.1a6,6,0,0,1,6,5.9,5.93,5.93,0,0,1-6,5.9,5.9,5.9,0,1,1,0-11.8" fill="#515254"/></svg>