<svg id="5f354f47-c01e-4da7-89e2-ff8511069ac0" data-name="Firefox - Large" xmlns="http://www.w3.org/2000/svg" viewBox="0 0 124 128.1"><defs><radialGradient id="d49c75d7-a05a-413c-8fb0-19776051fe45" cx="-15360.17" cy="-7598.17" r="58.65" gradientTransform="matrix(0.76, 0.03, -0.05, 1.12, 11444.67, 9064.22)" gradientUnits="userSpaceOnUse"><stop offset="0.04" stop-color="#ffea00"/><stop offset="0.12" stop-color="#ffde00"/><stop offset="0.25" stop-color="#ffbf00"/><stop offset="0.43" stop-color="#ff8e00"/><stop offset="0.77" stop-color="#ff272d"/><stop offset="0.87" stop-color="#e0255a"/><stop offset="0.95" stop-color="#cc2477"/><stop offset="1" stop-color="#c42482"/></radialGradient><radialGradient id="890d4187-e2ff-4e43-a232-c8b4a48a4427" cx="-8132.76" cy="-7189.64" r="102.92" gradientTransform="translate(10050.9 8832.4) scale(1.23)" gradientUnits="userSpaceOnUse"><stop offset="0" stop-color="#00ccda"/><stop offset="0.22" stop-color="#0083ff"/><stop offset="0.26" stop-color="#007af9"/><stop offset="0.33" stop-color="#0060e8"/><stop offset="0.33" stop-color="#005fe7"/><stop offset="0.44" stop-color="#2639ad"/><stop offset="0.52" stop-color="#401e84"/><stop offset="0.57" stop-color="#4a1475"/></radialGradient><linearGradient id="c7d24be0-9e02-45e8-b864-213c29ccd53c" x1="72.32" y1="1070.85" x2="47.42" y2="989.39" gradientTransform="translate(0 -976)" gradientUnits="userSpaceOnUse"><stop offset="0" stop-color="#000f43" stop-opacity="0.4"/><stop offset="0.48" stop-color="#001962" stop-opacity="0.17"/><stop offset="1" stop-color="#002079" stop-opacity="0"/></linearGradient><radialGradient id="e486cd8b-ca83-4ad5-b5e0-baf3f59c72bd" cx="-9095.23" cy="-6072.26" r="34.72" gradientTransform="translate(10471.3 8603.5) rotate(5.8) scale(1.23)" gradientUnits="userSpaceOnUse"><stop offset="0" stop-color="#ffea00"/><stop offset="0.5" stop-color="#ff272d"/><stop offset="1" stop-color="#c42482"/></radialGradient><radialGradient id="c5e83b54-d7bd-439b-90d4-bf307df0246f" cx="-9098.37" cy="-6105.54" r="57.97" gradientTransform="translate(10471.3 8603.5) rotate(5.8) scale(1.23)" gradientUnits="userSpaceOnUse"><stop offset="0" stop-color="#ffe900"/><stop offset="0.16" stop-color="#ffaf0e"/><stop offset="0.32" stop-color="#ff7a1b"/><stop offset="0.47" stop-color="#ff4e26"/><stop offset="0.62" stop-color="#ff2c2e"/><stop offset="0.76" stop-color="#ff1434"/><stop offset="0.89" stop-color="#ff0538"/><stop offset="1" stop-color="#ff0039"/></radialGradient><radialGradient id="8060a613-d01d-4c27-b7df-6b8955f248e1" cx="-9090.17" cy="-6051.8" r="53.2" gradientTransform="translate(10471.3 8603.5) rotate(5.8) scale(1.23)" gradientUnits="userSpaceOnUse"><stop offset="0" stop-color="#ff272d"/><stop offset="0.5" stop-color="#c42482"/><stop offset="0.99" stop-color="#620700"/></radialGradient><radialGradient id="c4d15765-ca54-42cf-ba54-8e099ea9c771" cx="95.03" cy="1027.26" r="101.75" gradientTransform="translate(0 -976)" gradientUnits="userSpaceOnUse"><stop offset="0.16" stop-color="#ffea00"/><stop offset="0.23" stop-color="#ffde00"/><stop offset="0.36" stop-color="#ffbf00"/><stop offset="0.54" stop-color="#ff8e00"/><stop offset="0.76" stop-color="#ff272d"/><stop offset="0.8" stop-color="#f92433"/><stop offset="0.84" stop-color="#e91c45"/><stop offset="0.89" stop-color="#cf0e62"/><stop offset="0.94" stop-color="#b5007f"/></radialGradient><radialGradient id="be872c58-8e62-44ed-b3f2-4f5eef605050" cx="87.37" cy="976.17" r="120.14" gradientTransform="translate(0 -976)" gradientUnits="userSpaceOnUse"><stop offset="0.28" stop-color="#ffea00"/><stop offset="0.4" stop-color="#fd0"/><stop offset="0.63" stop-color="#ffba00"/><stop offset="0.86" stop-color="#ff9100"/><stop offset="0.93" stop-color="#ff6711"/><stop offset="0.99" stop-color="#ff4a1d"/></radialGradient><linearGradient id="6e12b76f-31ac-481a-8caf-fd89f3db5ab0" x1="-9184.04" y1="-6092.74" x2="-9147.05" y2="-6102.17" gradientTransform="translate(10471.3 8603.5) rotate(5.8) scale(1.23)" gradientUnits="userSpaceOnUse"><stop offset="0" stop-color="#c42482" stop-opacity="0.5"/><stop offset="0.47" stop-color="#ff272d" stop-opacity="0.5"/><stop offset="0.49" stop-color="#ff2c2c" stop-opacity="0.51"/><stop offset="0.68" stop-color="#ff7a1a" stop-opacity="0.72"/><stop offset="0.83" stop-color="#ffb20d" stop-opacity="0.87"/><stop offset="0.94" stop-color="#ffd605" stop-opacity="0.96"/><stop offset="1" stop-color="#ffe302"/></linearGradient><linearGradient id="61d69935-83a1-4704-b24f-edfca84bad84" x1="119.83" y1="-377.33" x2="112.73" y2="-395.52" gradientTransform="matrix(1, 0.1, -0.1, 1, -136.26, 397.26)" gradientUnits="userSpaceOnUse"><stop offset="0" stop-color="#891551" stop-opacity="0.6"/><stop offset="1" stop-color="#c42482" stop-opacity="0"/></linearGradient><linearGradient id="25119784-ed5e-4496-98bd-508c839cb4bd" x1="-188.25" y1="1249.26" x2="-176.01" y2="1263.16" gradientTransform="matrix(1, 0.1, -0.1, 1, 342.87, -1163.16)" gradientUnits="userSpaceOnUse"><stop offset="0.01" stop-color="#891551" stop-opacity="0.5"/><stop offset="0.48" stop-color="#ff272d" stop-opacity="0.5"/><stop offset="1" stop-color="#ff272d" stop-opacity="0"/></linearGradient><linearGradient id="c67f6c7b-9d4f-4594-a129-16431713f391" x1="-165.07" y1="1273.4" x2="-165.06" y2="1263.67" gradientTransform="matrix(1, 0.1, -0.1, 1, 342.87, -1163.16)" gradientUnits="userSpaceOnUse"><stop offset="0" stop-color="#c42482"/><stop offset="0.08" stop-color="#c42482" stop-opacity="0.81"/><stop offset="0.21" stop-color="#c42482" stop-opacity="0.56"/><stop offset="0.33" stop-color="#c42482" stop-opacity="0.36"/><stop offset="0.45" stop-color="#c42482" stop-opacity="0.2"/><stop offset="0.56" stop-color="#c42482" stop-opacity="0.09"/><stop offset="0.67" stop-color="#c42482" stop-opacity="0.02"/><stop offset="0.77" stop-color="#c42482" stop-opacity="0"/></linearGradient><linearGradient id="9144753b-b378-404c-b391-d61b0e9fff19" x1="82.66" y1="980.72" x2="122.42" y2="1069.63" gradientTransform="translate(0 -976)" gradientUnits="userSpaceOnUse"><stop offset="0" stop-color="#fff14f"/><stop offset="0.27" stop-color="#ffee4c"/><stop offset="0.45" stop-color="#ffe643"/><stop offset="0.61" stop-color="#ffd834"/><stop offset="0.76" stop-color="#ffc41e"/><stop offset="0.89" stop-color="#ffab02"/><stop offset="0.9" stop-color="#ffa900"/><stop offset="0.95" stop-color="#ffa000"/><stop offset="1" stop-color="#ff9100"/></linearGradient><linearGradient id="ae99bb5e-0a15-488f-97ca-a32849b2d095" x1="90.62" y1="1031.85" x2="71.78" y2="1082.42" gradientTransform="translate(0 -976)" gradientUnits="userSpaceOnUse"><stop offset="0" stop-color="#ff8e00"/><stop offset="0.04" stop-color="#ff8e00" stop-opacity="0.86"/><stop offset="0.08" stop-color="#ff8e00" stop-opacity="0.73"/><stop offset="0.13" stop-color="#ff8e00" stop-opacity="0.63"/><stop offset="0.18" stop-color="#ff8e00" stop-opacity="0.56"/><stop offset="0.23" stop-color="#ff8e00" stop-opacity="0.51"/><stop offset="0.28" stop-color="#ff8e00" stop-opacity="0.5"/><stop offset="0.39" stop-color="#ff8e00" stop-opacity="0.48"/><stop offset="0.52" stop-color="#ff8e00" stop-opacity="0.42"/><stop offset="0.68" stop-color="#ff8e00" stop-opacity="0.31"/><stop offset="0.84" stop-color="#ff8e00" stop-opacity="0.17"/><stop offset="1" stop-color="#ff8e00" stop-opacity="0"/></linearGradient></defs><path d="M102.2,11.9c-3.1,3.6-4.6,11.8-1.4,20.1s8,6.5,11,14.9c4,11.1,2.1,26.1,2.1,26.1s4.8,13.9,8.1-.9C129.4,44.5,102.2,18.7,102.2,11.9Z" transform="translate(-2)" fill="url(#d49c75d7-a05a-413c-8fb0-19776051fe45)"/><path id="867c9e24-3f06-4668-9087-a8e976145eb2" data-name=" Path " d="M64.2,126.8a58,58,0,1,0-57.7-58A57.9,57.9,0,0,0,64.2,126.8Z" transform="translate(-2)" fill="url(#890d4187-e2ff-4e43-a232-c8b4a48a4427)"/><path d="M107.4,104.5a31.4,31.4,0,0,1-3.9,2.4,85.4,85.4,0,0,0,5-8.2,39.5,39.5,0,0,0,3.3-4.1c.4-.7,1-1.6,1.5-2.6,3.2-5.8,6.8-15.3,6.9-25h0v-.7a36.1,36.1,0,0,0-.7-7.3,1.3,1.3,0,0,0,.1.6c0-.1-.1-.3-.1-.4s.1.5.1.8c.7,5.6.2,11.1-2.2,15.1,0,.1-.1.1-.1.2a52,52,0,0,0,.3-19.7s-.5-3.3-4.6-13.3c-2.3-5.8-6.5-10.5-10.1-13.9a105.6,105.6,0,0,0-7.7-8.3c-3.4-3.5-4.8-6.2-5.3-7.9S83,5.7,82.5,5.5c-2.8,4.3-11.6,17.9-7.4,30.6A32.2,32.2,0,0,0,86.8,51.2c.2.3,3,3.3,4.3,10s.6,12.5-2.2,20.6S77,95.6,69.2,96.3c-16.9,1.5-23-8.5-23-8.5,6,2.4,12.7,1.9,16.7-.6s6.6-4.4,8.6-3.7,3.6-1.4,2.1-3.6a10.2,10.2,0,0,0-10.3-4.5c-4.1.7-7.8,3.9-13.2.8l-1-.7c-.4-.2,1.1.4.8.1l-3.4-2.2.7.2c-5-4.1-4.4-6.9-4.2-8.7A4.8,4.8,0,0,1,45.6,61l1.2.7-.5-1h.2l2.7,1.5a3.6,3.6,0,0,1,1.2,1.2s.2-.1.1-.7A3.4,3.4,0,0,0,49.2,61h.1a8.3,8.3,0,0,1,1.5,1.1,8.6,8.6,0,0,0,.6-3.7,7.5,7.5,0,0,0-.2-2c-.2-.4.1-.6.4-.1l-.3-1h0c.4-1.5,8.9-5.3,9.5-5.7a8.1,8.1,0,0,0,2.5-2.7,6.6,6.6,0,0,0,.9-3.4c0-1.2-.5-1.9-9-2.8a5.7,5.7,0,0,1-4.5-3.5l-.4-.9L50,35.2a20.5,20.5,0,0,1,7.2-10c.2-.2-.8,0-.6-.1a16.3,16.3,0,0,1,1.9-.9c.3-.2-1.4-.9-3-.7a8.4,8.4,0,0,0-2.7.7c.3-.3,1.5-.8,1.2-.8a15.8,15.8,0,0,0-5.6,2.4,1.3,1.3,0,0,1,.1-.6,9.7,9.7,0,0,0-3.5,3v-.7a9.8,9.8,0,0,0-1.7,1.8h0a20.2,20.2,0,0,0-12.8-1.2c-.8-.8-1.2-.2-3-4.2h0c-.3-.8.2,1,0,0-3,2.4-7,5.1-8.9,7,0,.1,2.2-.6,0,0s-.7.7-.8,4.9v1a26,26,0,0,0-3,4.5c-2,3.4-4.2,8.7-6.3,17.1a41.2,41.2,0,0,1,3.4-6.6C10,56.3,8.3,63.3,8,74.1c.4-2.2,1-4.4,1.6-6.6a62,62,0,0,0,4.5,26.2,61.6,61.6,0,0,0,6.6,12.4,58.8,58.8,0,0,0,86.7-1.6Z" transform="translate(-2)" fill="url(#c7d24be0-9e02-45e8-b864-213c29ccd53c)"/><path d="M94.5,112.7c21.2-2.5,30.6-24.3,18.5-24.7S84.5,113.9,94.5,112.7Z" transform="translate(-2)" fill="url(#e486cd8b-ca83-4ad5-b5e0-baf3f59c72bd)"/><path d="M114.5,83.6c14.6-8.5,10.8-26.8,10.8-26.8a59.1,59.1,0,0,0-9.4,17C112.1,84,105.8,88.7,114.5,83.6Z" transform="translate(-2)" fill="url(#c5e83b54-d7bd-439b-90d4-bf307df0246f)"/><path d="M68.3,123.6c20.3,6.5,37.8-9.5,27-14.9S58.6,120.5,68.3,123.6Z" transform="translate(-2)" fill="url(#8060a613-d01d-4c27-b7df-6b8955f248e1)"/><path d="M116.1,91.3c.5-.7,1.2-2.9,1.8-3.9,3.6-5.8,3.6-10.4,3.6-10.5,2.2-10.8,2-15.2.6-23.4-1.1-6.6-5.8-16-9.8-20.6s-1.2-3.2-5.3-6.6-7-7.8-8.9-9.4C84.5,5.6,84.8,3.2,85.1,2.8l-.2.2a9,9,0,0,1-.3-1.2,36.6,36.6,0,0,0-9,19.8A30.3,30.3,0,0,0,82,43.5,49.6,49.6,0,0,0,89.7,51h0a29.3,29.3,0,0,1,5.1,16.9A28.6,28.6,0,0,1,66.2,96.5a27.3,27.3,0,0,1-6.4-.7,24,24,0,0,1-13.9-7.7,25.4,25.4,0,0,1-1.8-2.5c6.7,2.4,14,1.9,18.5-.6s7.3-4.4,9.5-3.6S76,80,74.5,77.8a11.9,11.9,0,0,0-11.4-4.5c-4.5.7-8.7,3.9-14.6.8a4.1,4.1,0,0,1-1.1-.7c-.4-.2,1.3.4.9.1a32.8,32.8,0,0,1-3.7-2.2l.8.2c-5.5-4.1-4.9-6.9-4.7-8.6A4.8,4.8,0,0,1,43.5,59l1.3.7-.5-1h.2a20,20,0,0,1,2.9,1.5,3.4,3.4,0,0,1,1.3,1.2s.3-.1.1-.7A3.9,3.9,0,0,0,47.4,59h.1l1.7,1.1a8.2,8.2,0,0,0,.7-3.6c-.1-1.2,0-1.5-.3-2s.1-.6.5-.1l-.3-1h0c.5-1.4,9.8-5.2,10.5-5.7A10.3,10.3,0,0,0,63.1,45a6.5,6.5,0,0,0,1-3.4c0-.7-.2-1.3-2.7-1.8l-7.3-1a6.2,6.2,0,0,1-5-3.5l-.5-.9a4.9,4.9,0,0,1-.4-1.1,19.9,19.9,0,0,1,8-9.9c.2-.2-.8,0-.6-.1a13.3,13.3,0,0,1,2.1-.9c.4-.2-1.6-.9-3.3-.7a11,11,0,0,0-3,.7c.4-.3,1.6-.8,1.3-.8a20.5,20.5,0,0,0-6.2,2.3,1.3,1.3,0,0,1,.1-.6c-.9.4-3.2,1.8-3.9,3v-.7a10.7,10.7,0,0,0-1.9,1.8h0a25.3,25.3,0,0,0-14.1-1.2c-.9-.8-2.3-2-4.3-5.9-.1-.2-.2.5-.3.3a19.1,19.1,0,0,1-1.2-6.8s-1.6.7-2.9,3.8a6.7,6.7,0,0,1-.6,1.2c-.1.1.2-1,.1-.9a14.2,14.2,0,0,0-1.1,1.6,11.6,11.6,0,0,0-.6,1.5h0v-.7a32,32,0,0,0-1.6,3.9A38.8,38.8,0,0,0,12.5,34v1a32.1,32.1,0,0,0-3.3,4.4C7,42.8,4.6,48,2.3,56.4A37.7,37.7,0,0,1,6,49.9C4.2,54.1,2.4,61.1,2,71.8c.5-2.2,1.1-4.4,1.8-6.5a55.7,55.7,0,0,0,5,25.9,60.1,60.1,0,0,0,23.9,27.1h0A52.9,52.9,0,0,0,46.6,125l2,.7-.6-.3a65,65,0,0,0,18.1,2.7c22.8,0,29.5-9.1,29.5-9.1h-.1l.9-.9c-3.6,3.4-11.8,3.6-14.9,3.4a162.9,162.9,0,0,0,15.4-5.4l2.4-1h.3l.5-.2a44.9,44.9,0,0,0,9.1-5.7c6.7-5.4,8.2-10.6,9-14.1a9.8,9.8,0,0,1-.7,1.6c-1.7,3.7-5.6,6-9.7,7.9a88.7,88.7,0,0,0,5.5-8.1C114.6,94.9,115,92.8,116.1,91.3Z" transform="translate(-2)" fill="url(#c4d15765-ca54-42cf-ba54-8e099ea9c771)"/><path d="M107.9,104.2A45.5,45.5,0,0,0,115,93.8c4.8-10.1,12.2-26.9,6.4-44.4-4.6-13.9-11-21.4-19-28.8C89.2,8.6,85.6,3.2,85.6,0c0,0-15.1,16.8-8.6,34.4s20,16.9,28.8,35.2c10.4,21.6-8.4,45.1-24.1,51.7,1-.2,34.7-7.9,36.5-27.2C118.2,94.5,117.5,99.8,107.9,104.2Z" transform="translate(-2)" fill="url(#be872c58-8e62-44ed-b3f2-4f5eef605050)"/><path d="M64.1,41.5c.1-1.1-.5-1.9-10-2.8-3.9-.4-5.4-3.9-5.8-5.5a25.4,25.4,0,0,0-1.6,11.9c.2,3,2.2,6.2,3.2,8.1l.3-.4c1.8-1.9,9.4-4.7,10.1-5.1S64,45.1,64.1,41.5Z" transform="translate(-2)" fill="url(#6e12b76f-31ac-481a-8caf-fd89f3db5ab0)"/><path d="M22.6,20.4c-.1-.2-.2.5-.3.3a17.1,17.1,0,0,1-1.1-6.8s-1.6.7-2.9,3.8a6.7,6.7,0,0,1-.6,1.2c-.1.1.2-1,.1-.9a14.2,14.2,0,0,0-1.1,1.6c-.2.6-.4.8-.6,1.5s.1-.8,0-.7c-3.1,6-3.7,15-3.3,14.6a30.9,30.9,0,0,1,14.1-8.7,16.5,16.5,0,0,1-4.3-5.9Z" transform="translate(-2)" fill="url(#61d69935-83a1-4704-b24f-edfca84bad84)"/><path d="M47.5,93.7c-9.1-3.9-19.4-9.3-19-21.7C29,55.6,43.7,58.8,43.7,58.8a5.4,5.4,0,0,0-2.6,2.3A6.9,6.9,0,0,0,42.6,69c4.8,5.2-9.9,12.4,12.8,26,.7.3-5.2-.2-7.9-1.3Z" transform="translate(-2)" fill="url(#25119784-ed5e-4496-98bd-508c839cb4bd)"/><path d="M44.3,85.5c6.4,2.2,13.9,1.8,18.4-.6s6.9-4.3,9.2-3.7a16.8,16.8,0,0,0-5.5-1.3h-3c-1.2.1-2.4.8-3.6.7l1-.5-2,.2H57.5c-13.4,1.1-24.7-7.3-24.7-7.3-1,3.4,4.3,9.8,11.5,12.3Z" transform="translate(-2)" fill="url(#c67f6c7b-9d4f-4594-a129-16431713f391)"/><path d="M107.8,104.3c13.5-13.3,20.4-29.5,17.5-47.6a37.9,37.9,0,0,1-3.2,18.8,50,50,0,0,0-3.2-32.8c-7.5-16-19.8-24.3-24.5-27.8C87.3,9.5,84.3,4.1,84.3,3c-2.1,4.4-8.6,19.3-.7,32.1s19,15.6,27.1,26.7C125.7,82.2,107.8,104.3,107.8,104.3Z" transform="translate(-2)" fill="url(#9144753b-b378-404c-b391-d61b0e9fff19)"/><path d="M105.9,69.7c-4.7-9.8-10.6-14-16.2-18.7a18.4,18.4,0,0,1,1.2,1.8,34.5,34.5,0,0,1,6.9,34.1c-9.9,30.2-49.6,16-53.7,12,1.7,17.5,31,25.9,50,14.5C104.9,103.2,113.7,85.7,105.9,69.7Z" transform="translate(-2)" fill="url(#ae99bb5e-0a15-488f-97ca-a32849b2d095)"/></svg>