<svg xmlns="http://www.w3.org/2000/svg" viewBox="0 0 120 30" fill="#d7cfbf"><path d="M118.25,6.05c-.57-.35-3.82,4.53-6.84,10.17a21.77,21.77,0,0,0-1,2.11C116.37,13.45,118.82,6.4,118.25,6.05Z" transform="translate(0 0)" fill="none"/><path d="M34.28,18.33c1.4-1.85,2.37-4.14,1.75-4.62-.92-.75-4.56,1.89-6.62,6.07h0c-.13.26-.26.52-.35.74C31.21,21.9,33,20,34.28,18.33Z" transform="translate(0 0)" fill="none"/><path d="M50,13.62c-.91-.09-1.87.4-3.2,1.76a38.74,38.74,0,0,0-5.7,9.11c.09,1.28.66,2.69,1.84,3,1.54.35,3.56-1,6.1-6.07h0C51.53,16.39,51,13.71,50,13.62Z" transform="translate(0 0)" fill="none"/><path d="M91,13.84c-1.4-.13-4.61,2.73-7,6.65s-2.9,7.66-1.18,7.7,4.08-2.77,6.32-6.64C91.87,16.7,92.26,14,91,13.84Z" transform="translate(0 0)" fill="none"/><path d="M32.2,2.36c-.09-.62-.53-.71-1.05-.18A189.82,189.82,0,0,0,14.34,24.89C16,18.51,17.86,13.14,19.26,9c1.1-3.34.87-4.44,0-5.72A.63.63,0,0,0,18.42,3a.63.63,0,0,0-.26.25A219.15,219.15,0,0,0,2.81,24.67c1.88-6.25,4-12,5.48-15.93,1.27-3.39,1.19-5,.44-6.25C8.42,2,8,2,7.63,2.67,5.48,6.8,1.92,16.93.35,23.62c-.7,3-.36,4.7,1.18,6.07a.78.78,0,0,0,1.11.07.72.72,0,0,0,.2-.29c3.73-5.94,8.83-13.12,12.77-18.31A117.83,117.83,0,0,0,12,23.4c-.65,3.12-.13,4.71,1.36,6.07.57.53,1,.31,1.32-.22C20,21.06,26.46,13,29.66,8.74,31.89,5.79,32.46,3.9,32.2,2.36Z" transform="translate(0 0)"/><path d="M50.65,11.82a6.11,6.11,0,0,0-3.77,1.85c1.36-2.42,3.24-5.46,3.9-6.69,1.8-3.3,1.8-5.28,1.14-6.51-.35-.62-.7-.62-1.1,0C48,4.34,40.42,18.62,38.39,23.58c-1.93,2.54-4.68,5-7.76,4.88-2.33-.13-3.38-2.9-2-6.95,3.07,2.51,6,1.36,8.16-1.28,1.84-2.23,2.19-4.93,1.4-6A8.12,8.12,0,0,0,35.63,12c-2.19-1.28-6.67,1-9.52,6.69s-.91,11.17,4.66,11.08A10.85,10.85,0,0,0,37.57,27a3.73,3.73,0,0,0,.66,2.47c.26.35.53.3.7-.14.4-.92.88-2,1.27-2.9a4.63,4.63,0,0,0,4.61,3.12c2.54,0,5.27-2.51,7.33-7.13C54.55,17,54.38,11.82,50.65,11.82Zm-21.24,8h0C31.47,15.6,35.11,13,36,13.71c.62.48-.35,2.77-1.75,4.62C33,20,31.21,21.9,29.06,20.53,29.15,20.31,29.28,20.05,29.41,19.79ZM49,21.37h0c-2.54,5.1-4.56,6.42-6.1,6.07-1.18-.26-1.75-1.67-1.84-3a38.74,38.74,0,0,1,5.7-9.11c1.33-1.36,2.29-1.85,3.2-1.76S51.53,16.39,49,21.37Z" transform="translate(0 0)"/><path d="M119.75,7c.52-2.07.26-3.7-1-4.84-.61-.58-1.23-.49-1.88.22-4.41,4.59-9.32,12.4-11,20,0,0-.06,0-.09.07-1.31,3-3.72,5.94-5.7,6-1.4.09-1.49-1.63-.44-4.18.93-2.2,2.77-5.2,3.69-7.13,1.06-2.2.7-4.1,0-4.8-.35-.4-.65-.26-1,.27a54.23,54.23,0,0,0-5.62,10.69c-.1.31-.17.6-.24.89C95,26.5,93.1,28.47,91.65,28.54s-1.45-1.8-.35-4.27,3.25-5.63,4.21-7.61c1-2.2.7-4.09,0-4.88-.3-.4-.65-.3-1,.26a30.06,30.06,0,0,0-1.58,2.69c.09-1.72-.79-3.17-2.68-3.17-2.19,0-5.65,2-9.21,7.17a14,14,0,0,0-1.9,3.91c-1.67,3-3.57,5.69-5.31,5.73-1.58,0-2.2-2-1-4.49,1.1-2.2,3.24-5.11,4-7.08.88-2.21.53-4.81-1-4.84s-4.39,2-6.5,4.09c.58-1.94-.21-4.27-1.71-4.32s-4.87,2.56-6.8,4.8c.66-1.76.79-3.48.05-4.71-.27-.44-.61-.48-.92,0a73.22,73.22,0,0,0-6.89,13.12c-.75,2.24-.53,3.69.43,4.53.4.35.67.18.84-.22,1.75-4.14,3.86-8.23,6.45-11,2.81-3.09,5-4.28,5.48-4.06.88.31-3.85,6.39-5.31,10-1.27,3.17-.65,4.88.1,5.55.39.44.74.3,1-.22,1.85-4.14,4-8.37,7.64-12,2.85-2.86,4.34-3.35,4.69-3.21.66.22-3.24,5.15-4.87,8.8s-.22,6.65,3.6,6.65c2.07,0,4.27-1.48,5.7-3.38a3.46,3.46,0,0,0,3.48,3.29c2.11,0,4.08-1.63,5.49-3.44,0,2.07,1.23,3.48,3.6,3.61,1.68.09,3.52-1.06,4.88-2.59a3,3,0,0,0,3.33,2.46,7.6,7.6,0,0,0,5.92-3.64,3.65,3.65,0,0,0,3.75,3.56h.12c3.51.09,6.71-3.56,7.33-4.88a4,4,0,0,0,.44-2.73c-.18-.61-.66-.57-1,0-1.71,3.39-4.78,6.56-6.89,6.38s-1.49-3.82.27-8.14C113.47,17.67,118.38,12.39,119.75,7Zm-8.34,9.24c3-5.64,6.27-10.52,6.84-10.17s-1.88,7.4-7.89,12.28A21.77,21.77,0,0,1,111.41,16.22Zm-28.62,12c-1.72,0-1.14-3.92,1.18-7.7s5.62-6.78,7-6.65.88,2.86-1.88,7.71C86.87,25.42,84.59,28.24,82.79,28.19Z" transform="translate(0 0)"/></svg>