<svg xmlns="http://www.w3.org/2000/svg" viewBox="0 0 128 128"><path d="M88.2,89.2c.8-2.6.5-5.3-.8-6.9a8.5,8.5,0,0,0-5.6-2.9l-46.2-.5c-.3,0-.5-.3-.8-.3s-.3-.5,0-.8.5-.8,1.1-.8l46.4-.5c5.6-.3,11.4-4.8,13.6-10.1l2.6-6.9c0-.3.3-.5,0-.8a30.2,30.2,0,0,0-58.1-3.2,14.9,14.9,0,0,0-9.6-2.7A13.9,13.9,0,0,0,18.6,65.1a12.5,12.5,0,0,0,.3,4.7A19.5,19.5,0,0,0,0,89.2a9.2,9.2,0,0,0,.3,2.9.8.8,0,0,0,.8.8H86.3c.5,0,1.1-.2,1.1-.8Z" fill="#f48120"/><path d="M102.8,59.5h-1.4c-.2,0-.5.3-.8.5l-1.8,6.4c-.8,2.6-.5,5.3.8,6.9a7.9,7.9,0,0,0,5.6,2.9l9.8.5c.3,0,.5.3.8.3a.6.6,0,0,1,0,.8c-.3.5-.5.8-1.1.8l-10.1.5c-5.5.3-11.4,4.8-13.5,10.1l-.5,2.4c-.3.3,0,.8.5.8h35c.6,0,.8-.3.8-.8a24.8,24.8,0,0,0-24.1-32.1" fill="#faad3f"/></svg>