<svg xmlns="http://www.w3.org/2000/svg" viewBox="0 0 159 64.3"><path d="M109,13H95.6a9.371,9.371,0,0,0-3.4.7c-3.8,1.6-5.8,4.6-5.8,9.3V41.8a10.465,10.465,0,0,0,2.7,7.3,8.882,8.882,0,0,0,7.2,3.2h15.4v1c0,3-1.7,4.7-4.7,4.7H86v6.3h21a13.1,13.1,0,0,0,8-2.3,9.07,9.07,0,0,0,3-7.2V20.6C117.3,15.5,114.3,13,109,13Zm2.8,28.8a4.5,4.5,0,0,1-1,3,3.04,3.04,0,0,1-2.5,1H96.7c-2.2,0-3.6-1.3-4-4V23.9a4,4,0,0,1,3.6-4.3h12c2.3,0,3.5,1.4,3.5,4.4Z"/><polygon points="40.4 0 34 0 34 52 40.4 52 40.4 19.3 49 19.3 49 13 40.4 13 40.4 0"/><path d="M73,13H53v6.4H73.4a2.088,2.088,0,0,1,1.6.8,2.41,2.41,0,0,1,.7,1.8v2.6H59.9c-3.4,0-5.9,1.2-7.6,3.7a9.829,9.829,0,0,0-2.3,7v6.6a10.064,10.064,0,0,0,.6,3.6,9.879,9.879,0,0,0,3.7,4.7,9.1,9.1,0,0,0,5.5,2h13c3.3,0,6-1.6,8-4.8a10.22,10.22,0,0,0,1.4-5V22L82,20C81,15.4,78,13,73,13Zm2.8,29c0,2.6-1.8,3.8-5.3,3.8H61.7a10.879,10.879,0,0,1-3.7-.5h.1A3.452,3.452,0,0,1,56.4,42V35c0-2.3,1.6-3.6,4.6-4H71.3c3,.3,4.5,1.7,4.5,4Z"/><polygon points="126 0 122 0 122 0.125 122 4 126 4 126 30 130 30 130 4 130 0 126 0"/><path d="M0,26,17,0h6L6,26,23,52H17Zm159,0L142,0h-6l17,26L136,52h6Z" fill="#2d70c0"/></svg>