<svg viewBox="0 0 1885 468" fill="none" xmlns="http://www.w3.org/2000/svg"><path d="M606.915 111.08L704.336 359.167L748.707 238.403L794.234 359.167L891.463 111.08H838.99L794.234 226.056L749.478 111.08L704.529 226.056L659.58 111.08H606.915Z" fill="#18164C"/><path d="M912.49 110.501V353.958H1058.91V305.537H961.297V256.537H1034.41V207.923H961.297V159.115H1058.91V110.501H912.49Z" fill="#18164C"/><path d="M1106.95 145.419C1083.41 168.182 1070.29 199.627 1070.87 232.423C1070.87 266.761 1082.83 295.698 1106.95 319.427C1129.71 342.962 1161.16 356.08 1193.76 355.502C1227.52 355.502 1256.65 343.348 1280.76 319.427C1307.58 292.805 1320.69 255.186 1316.07 217.568C1307.77 217.568 1266.29 217.568 1191.64 217.568V264.06C1233.11 264.06 1256.26 264.06 1260.89 264.06C1243.92 300.714 1200.32 316.726 1163.66 299.749C1155.75 296.084 1148.42 291.068 1142.25 284.702C1128.17 271.005 1120.45 252.1 1120.64 232.423C1120.64 212.167 1127.78 194.804 1142.25 180.143C1155.95 166.06 1174.85 158.151 1194.53 158.344C1214.4 158.344 1231.76 165.674 1246.62 180.143C1250.09 176.671 1277.87 148.891 1281.34 145.419C1258.19 122.462 1226.75 109.537 1194.14 109.537C1159.81 109.151 1130.87 121.111 1106.95 145.419Z" fill="#18164C"/><path d="M1337.67 111.08V353.765H1483.9V305.344H1386.48V111.08H1337.67Z" fill="#18164C"/><path d="M1611.42 109.151L1613.92 109.344L1616.43 109.537L1618.94 109.73L1621.25 109.923L1623.57 110.308L1625.88 110.694L1628.2 111.08L1630.51 111.466L1632.83 112.045L1635.14 112.623L1637.46 113.202L1639.77 113.974L1642.09 114.745L1644.4 115.517L1646.72 116.289L1649.03 117.06L1651.35 118.025L1653.66 118.989L1655.79 119.954L1657.91 120.919L1660.03 122.076L1662.15 123.234L1664.27 124.391L1666.4 125.549L1668.52 126.706L1670.64 128.056L1672.57 129.407L1674.5 130.757L1676.43 132.108L1678.36 133.651L1680.29 135.194L1682.22 136.737L1684.14 138.281L1685.88 139.824L1687.62 141.56L1689.35 143.297L1691.09 145.033L1692.83 146.962L1694.56 148.891L1696.3 150.82L1698.03 152.749L1699.58 154.678L1701.12 156.608L1702.66 158.537L1704.21 160.466L1705.75 162.395L1707.1 164.324L1708.45 166.253L1709.8 168.182L1710.96 170.304L1712.12 172.427L1713.27 174.549L1714.43 176.671L1715.59 178.793L1716.55 180.915L1717.52 183.037L1718.48 185.159L1719.45 187.281L1720.22 189.403L1720.99 191.525L1721.76 193.84L1722.53 196.155L1723.11 198.47L1723.69 200.785L1724.27 203.1L1724.85 205.415L1725.23 207.73L1725.62 210.045L1726.01 212.36L1726.39 214.675L1726.78 217.182L1726.97 219.69L1727.16 222.198L1727.36 224.706L1727.55 227.214V229.722V232.23V234.738V237.245L1727.36 239.753L1727.16 242.261L1726.97 244.769L1726.78 247.084L1726.39 249.399L1726.01 251.714L1725.62 254.029L1725.23 256.344L1724.85 258.659L1724.27 260.974L1723.69 263.289L1723.11 265.604L1722.53 267.919L1721.76 270.234L1720.99 272.549L1720.22 274.864L1719.45 277.179L1718.48 279.494L1717.52 281.616L1716.55 283.738L1715.59 285.86L1714.43 287.982L1713.27 290.104L1712.12 292.226L1710.96 294.348L1709.61 296.47L1708.26 298.399L1706.91 300.328L1705.56 302.257L1704.21 304.186L1702.66 306.116L1701.12 308.045L1699.58 309.974L1698.03 311.903L1696.49 313.832L1694.75 315.568L1693.02 317.305L1691.28 319.041L1689.55 320.777L1687.62 322.513L1685.69 324.25L1683.76 325.986L1681.83 327.529L1679.9 329.072L1677.97 330.616L1676.04 332.159L1674.11 333.509L1672.18 334.86L1670.25 336.21L1668.33 337.561L1666.2 338.718L1664.08 339.875L1661.96 341.033L1659.84 342.19L1657.72 343.155L1655.59 344.12L1653.47 345.084L1651.35 346.049L1649.23 347.013L1647.1 347.785L1644.79 348.557L1642.48 349.328L1640.16 350.1L1637.85 350.679L1635.53 351.257L1633.22 351.836L1630.9 352.415L1628.59 352.801L1626.27 353.187L1623.96 353.572L1621.64 353.958L1619.13 354.151L1616.62 354.344L1614.12 354.537L1611.61 354.73L1609.1 354.923H1606.59H1604.09H1601.58H1599.07H1596.56L1594.05 354.73L1591.55 354.537L1589.23 354.344L1586.92 354.151L1584.6 353.765L1582.29 353.379L1579.97 352.994L1577.66 352.608L1575.34 352.029L1573.03 351.45L1570.71 350.872L1568.4 350.1L1566.08 349.328L1563.77 348.557L1561.45 347.785L1559.14 346.82L1556.82 345.856L1554.7 344.891L1552.58 343.927L1550.46 342.962L1548.33 341.805L1546.21 340.647L1544.09 339.49L1541.97 338.332L1539.85 337.175L1537.72 335.824L1535.6 334.474L1533.67 333.124L1531.74 331.773L1529.81 330.23L1527.88 328.687L1525.96 327.143L1524.03 325.6L1522.29 324.057L1520.55 322.32L1518.82 320.584L1517.08 318.848L1515.35 317.112L1513.61 315.375L1511.87 313.446L1510.33 311.517L1508.79 309.588L1507.24 307.659L1505.7 305.73L1504.16 303.801L1502.81 301.871L1501.46 299.942L1500.1 298.013L1498.75 296.084L1497.6 293.962L1496.44 291.84L1495.28 289.718L1494.12 287.596L1492.97 285.474L1492 283.352L1491.04 281.23L1490.07 279.108L1489.11 276.986L1488.34 274.864L1487.57 272.549L1486.79 270.234L1486.02 267.919L1485.44 265.604L1484.86 263.289L1484.29 260.974L1483.71 258.659L1483.32 256.344L1482.94 254.029L1482.55 251.714L1482.16 249.399L1481.78 247.084L1481.59 244.576L1481.39 242.068L1481.2 239.56L1481.01 237.053V234.545V232.037V229.529V227.021L1481.2 224.513L1481.39 222.005L1481.59 219.497L1481.78 217.182L1481.97 214.868L1482.36 212.553L1482.74 210.238L1483.13 207.923L1483.51 205.608L1484.09 203.293L1484.67 200.978L1485.25 198.663L1486.02 196.348L1486.79 194.033L1487.57 191.718L1488.34 189.403L1489.3 187.088L1490.27 184.773L1491.23 182.651L1492.2 180.529L1493.16 178.407L1494.32 176.285L1495.47 174.163L1496.63 172.041L1497.79 169.919L1498.95 167.797L1500.3 165.675L1501.65 163.745L1503 161.816L1504.35 159.887L1505.89 157.958L1507.44 156.029L1508.98 154.1L1510.52 152.171L1512.07 150.434L1513.8 148.698L1515.54 146.962L1517.27 145.226L1519.01 143.489L1520.94 141.753L1522.87 140.017L1524.8 138.281L1526.73 136.737L1528.66 135.194L1530.59 133.651L1532.51 132.108L1534.44 130.757L1536.37 129.407L1538.3 128.056L1540.23 126.706L1542.35 125.549L1544.47 124.391L1546.6 123.234L1548.72 122.076L1550.84 120.919L1552.96 119.954L1555.09 118.989L1557.21 118.025L1559.33 117.06L1561.45 116.289L1563.77 115.517L1566.08 114.745L1568.4 113.974L1570.71 113.395L1573.03 112.816L1575.34 112.237L1577.66 111.659L1579.97 111.273L1582.29 110.887L1584.6 110.501L1586.92 110.115L1589.23 109.73L1591.74 109.537L1594.25 109.344L1596.75 109.151L1599.26 108.958H1601.77H1604.28H1606.79H1609.29L1611.42 109.151ZM1599.65 158.344H1598.11H1596.56L1595.02 158.537L1593.48 158.73L1591.93 158.923L1590.39 159.115L1589.04 159.308L1587.69 159.501L1586.34 159.887L1584.99 160.273L1583.64 160.659L1582.29 161.045L1580.94 161.43L1579.59 161.816L1578.23 162.202L1576.88 162.781L1575.53 163.36L1574.18 163.938L1572.83 164.517L1571.48 165.096L1570.13 165.675L1568.78 166.253L1567.43 167.025L1566.08 167.797L1564.92 168.568L1563.77 169.34L1562.61 170.112L1561.45 170.883L1560.29 171.655L1559.14 172.619L1557.98 173.584L1556.82 174.549L1555.66 175.513L1554.51 176.478L1553.35 177.442L1552.38 178.407L1551.42 179.564L1550.26 180.722L1549.1 181.879L1548.14 183.037L1547.18 184.194L1546.21 185.352L1545.25 186.509L1544.28 187.667L1543.32 188.824L1542.55 189.982L1541.77 191.139L1541 192.297L1540.23 193.454L1539.46 194.612L1538.69 195.962L1537.92 197.119L1537.34 198.47L1536.76 199.82L1536.18 201.171L1535.6 202.521L1535.02 203.871L1534.44 205.222L1533.86 206.572L1533.48 207.923L1533.09 209.273L1532.71 210.623L1532.32 211.974L1531.94 213.324L1531.55 214.675L1531.16 216.025L1530.78 217.375L1530.59 218.726L1530.39 220.076L1530.2 221.619L1530.01 223.163L1529.81 224.706L1529.62 226.249L1529.43 227.793V229.336V230.879V232.423V233.966V235.509V237.053V238.596L1529.62 240.139L1529.81 241.683L1530.01 243.226L1530.2 244.769L1530.39 246.12L1530.59 247.47L1530.97 248.82L1531.36 250.171L1531.74 251.521L1532.13 252.872L1532.51 254.222L1532.9 255.572L1533.29 256.923L1533.67 258.273L1534.25 259.623L1534.83 260.974L1535.41 262.324L1535.99 263.675L1536.57 265.025L1537.14 266.375L1537.72 267.726L1538.49 269.076L1539.27 270.427L1540.04 271.584L1540.81 272.742L1541.58 273.899L1542.35 275.057L1543.32 276.214L1544.09 277.372L1545.05 278.529L1546.02 279.686L1546.98 280.844L1547.95 282.001L1548.91 283.159L1549.88 284.124L1550.84 285.088L1552 286.053L1553.16 287.017L1554.31 287.982L1555.47 288.946L1556.63 289.911L1557.79 290.876L1558.94 291.84L1560.1 292.612L1561.26 293.383L1562.42 294.155L1563.57 294.927L1564.73 295.698L1565.89 296.47L1567.05 297.242L1568.2 298.013L1569.55 298.592L1570.9 299.171L1572.25 299.749L1573.6 300.328L1574.96 300.907L1576.31 301.486L1577.66 302.064L1579.01 302.45L1580.36 302.836L1581.71 303.222L1583.06 303.608L1584.41 303.994L1585.76 304.379L1587.11 304.765L1588.46 305.151L1589.81 305.344L1591.35 305.537L1592.9 305.73L1594.44 305.923L1595.98 306.116L1597.53 306.309L1599.07 306.501H1600.61H1602.16H1603.7H1605.24H1606.79H1608.33H1609.87L1611.42 306.309L1612.96 306.116L1614.5 305.923L1615.85 305.73L1617.2 305.537L1618.55 305.344L1619.9 305.151L1621.25 304.765L1622.6 304.379L1623.96 303.994L1625.31 303.608L1626.66 303.222L1628.01 302.836L1629.36 302.45L1630.71 301.871L1632.06 301.293L1633.41 300.714L1634.76 300.135L1636.11 299.557L1637.46 298.978L1638.81 298.399L1640.16 297.627L1641.51 296.856L1642.67 296.084L1643.83 295.312L1644.98 294.541L1646.14 293.769L1647.3 292.998L1648.46 292.226L1649.61 291.261L1650.77 290.297L1651.93 289.332L1653.09 288.368L1654.24 287.403L1655.21 286.438L1656.17 285.474L1657.33 284.316L1658.29 283.159L1659.26 282.001L1660.22 280.844L1661.19 279.686L1662.15 278.529L1663.12 277.372L1664.08 276.214L1664.85 275.057L1665.62 273.899L1666.4 272.742L1667.17 271.584L1667.94 270.427L1668.71 269.269L1669.48 267.919L1670.06 266.761L1670.64 265.411L1671.22 264.06L1671.8 262.71L1672.38 261.36L1672.96 260.009L1673.53 258.659L1673.92 257.309L1674.31 255.958L1674.69 254.608L1675.08 253.257L1675.46 251.907L1675.85 250.557L1676.24 249.206L1676.43 247.856L1676.62 246.505L1676.81 244.962L1677.01 243.419L1677.2 241.875L1677.39 240.332L1677.59 238.789V237.245V235.702V234.159V232.616V231.072V229.529V227.986V226.442L1677.39 224.899L1677.2 223.356L1677.01 221.812L1676.81 220.269L1676.62 218.919L1676.43 217.568L1676.04 216.218L1675.66 214.868L1675.27 213.517L1674.88 212.167L1674.5 210.816L1674.11 209.466L1673.73 208.116L1673.34 206.765L1672.76 205.415L1672.18 204.064L1671.61 202.714L1671.03 201.364L1670.45 200.013L1669.87 198.663L1669.1 197.312L1668.33 195.962L1667.55 194.804L1666.78 193.454L1666.01 192.297L1665.24 191.139L1664.47 189.982L1663.7 188.824L1662.73 187.667L1661.77 186.509L1660.8 185.352L1659.84 184.194L1658.87 183.037L1657.91 181.879L1656.94 180.915L1655.79 179.95L1654.63 178.793L1653.47 177.828L1652.31 176.864L1651.16 175.899L1650 174.934L1648.84 173.97L1647.68 173.005L1646.53 172.041L1645.37 171.269L1644.21 170.497L1643.05 169.726L1641.9 168.954L1640.74 168.182L1639.58 167.411L1638.42 166.639L1637.27 165.867L1635.92 165.289L1634.57 164.71L1633.22 164.131L1631.86 163.552L1630.51 162.974L1629.16 162.395L1627.81 162.009L1626.46 161.623L1625.11 161.238L1623.76 160.852L1622.41 160.466L1621.06 160.08L1619.71 159.694L1618.36 159.501L1617.01 159.308L1615.66 159.115L1614.31 158.923L1612.77 158.73L1611.22 158.537L1609.68 158.344L1608.14 158.151H1606.59H1605.05H1603.51H1601.96H1600.42L1599.65 158.344Z" fill="#18164C"/><path d="M1715.59 111.08V159.308H1775.39V353.765H1824.39V159.308H1884V111.08H1715.59Z" fill="#18164C"/><path d="M253.712 0.92176L263.19 1.84362L272.531 3.20923L281.735 4.88209L290.837 6.93055L299.801 9.32044L308.595 12.0516L317.252 15.1243L325.771 18.5383L334.086 22.2597L342.264 26.2882L350.202 30.59L358.003 35.199L365.599 40.1153L372.956 45.3046L380.141 50.7671L386.984 56.5027L393.827 62.4773L400.328 68.691L406.556 75.1436L412.543 81.9717L418.292 88.7999L423.766 95.9693L428.967 103.31L433.86 110.889L438.514 118.639L442.825 126.593L446.862 134.719L450.558 143.049L453.979 151.516L457.024 160.154L459.796 168.962L462.191 177.873L464.244 186.954L465.921 196.172L467.255 205.493L468.213 214.915L468.795 224.475L469 234.102L468.795 243.764L468.213 253.29L467.255 262.712L465.921 272.067L464.244 281.251L462.191 290.332L459.796 299.243L457.024 308.051L453.979 316.689L450.558 325.19L446.862 333.486L442.825 341.611L438.514 349.566L433.86 357.35L428.967 364.895L423.766 372.236L418.292 379.405L412.543 386.233L406.556 393.061L400.328 399.548L393.827 405.762L386.984 411.736L380.141 417.438L372.956 422.9L365.599 428.09L358.003 432.972L350.202 437.581L342.264 441.917L334.086 445.843L325.771 449.564L317.252 452.978L308.595 456.051L299.801 458.782L290.837 461.172L281.735 463.22L272.531 464.927L263.19 466.259L253.712 467.215L244.166 467.795L234.483 468L224.834 467.795L215.253 467.215L205.81 466.327L196.469 464.996L187.23 463.289L178.163 461.24L169.199 458.85L160.302 456.085L151.612 453.012L143.126 449.598L134.914 445.843L126.736 441.848L118.764 437.512L110.997 432.903L103.435 428.021L96.0446 422.798L88.8592 417.335L82.016 411.634L75.1728 405.659L68.6717 399.446L62.4444 392.959L56.4566 386.131L50.7083 379.303L45.2337 372.133L40.0329 364.759L35.14 357.214L30.5208 349.43L26.1753 341.475L22.1378 333.349L18.4425 325.053L15.0209 316.552L11.9756 307.915L9.23839 299.106L6.80907 290.196L4.75609 281.114L3.07943 271.93L1.74505 262.576L0.787008 253.153L0.205288 243.628L0 233.966L0.205288 224.338L0.787008 214.779L1.74505 205.356L3.07943 196.036L4.75609 186.818L6.80907 177.736L9.23839 168.825L11.9756 160.017L15.0209 151.38L18.4425 142.913L22.1378 134.582L26.1753 126.457L30.5208 118.502L35.14 110.752L40.0329 103.173L45.2337 95.8328L50.7083 88.6633L56.4566 81.8351L62.4444 75.007L68.6717 68.5544L75.1728 62.3409L82.016 56.3662L88.8592 50.6305L96.0446 45.1681L103.435 39.9787L110.997 35.0624L118.764 30.4534L126.736 26.1518L134.914 22.1232L143.229 18.4018L151.714 14.9877L160.405 11.9151L169.199 9.18384L178.163 6.79396L187.23 4.7455L196.469 3.07264L205.81 1.70703L215.253 0.785272L224.834 0.170662L234.483 0L244.166 0.170662L253.712 0.92176Z" fill="#171849"/><path d="M320.83 142.034H319.667H319.085L318.538 142.068L317.409 142.103L316.827 142.137L315.698 142.205L314.569 142.273L312.859 142.444L311.73 142.547L310.601 142.683L309.472 142.82L307.761 143.093L306.632 143.264L304.922 143.572L304.477 143.64L304.032 143.743L302.253 144.084L300.475 144.494L300.03 144.563L299.14 144.802L298.696 144.904L298.251 145.007L297.806 145.144L296.917 145.349L296.506 145.485L296.061 145.588L295.172 145.861L294.761 145.964L294.317 146.1L293.461 146.374L293.017 146.51L292.572 146.647L292.161 146.75L291.717 146.886L291.272 147.057L290.861 147.194L290.006 147.501L287.851 148.253L287.03 148.595L286.585 148.765L286.175 148.936L284.943 149.449L284.533 149.62L284.156 149.791L283.712 149.961L283.301 150.166L282.891 150.337L282.514 150.542L282.104 150.713L281.659 150.918L281.283 151.089L280.462 151.499L280.085 151.67L279.675 151.909L279.264 152.08L278.854 152.285L278.477 152.524L278.067 152.729L277.69 152.934L277.28 153.139L276.904 153.344L276.527 153.583L276.117 153.788L275.33 154.233L274.954 154.472L274.577 154.677L274.201 154.916L273.791 155.155L273.414 155.394L272.285 156.112L271.909 156.351L271.567 156.59L271.327 156.727L271.156 156.829L270.985 156.966L270.78 157.103L270.575 157.205L270.404 157.342L270.198 157.479L269.446 158.025L269.275 158.128L268.693 158.538L268.522 158.674L268.146 158.948L267.941 159.084L267.77 159.187L267.393 159.495L267.222 159.631L266.846 159.905L266.675 160.041L265.751 160.725L265.58 160.895L265.409 161.032L265.204 161.169L265.033 161.305L264.862 161.476L264.691 161.613L264.52 161.75L264.314 161.886L264.143 162.023L263.972 162.194L263.87 162.262L263.425 162.638L263.322 162.706L263.083 162.946L262.98 163.014L262.706 163.253L262.638 163.322L262.535 163.39L262.433 163.492L262.262 163.629L262.193 163.732L262.091 163.8L261.988 163.868L261.885 163.937L261.817 164.039L261.714 164.107L261.646 164.176L261.543 164.244L261.475 164.347L261.372 164.415L261.27 164.483L261.201 164.552L261.03 164.722L260.927 164.825L260.859 164.893L260.756 164.962L260.688 165.03L260.585 165.132L260.517 165.235L260.448 165.269L260.414 165.303L260.38 165.337L260.277 165.406L260.243 165.44L260.141 165.508L260.106 165.577L260.038 165.645L259.97 165.713L259.901 165.782L259.833 165.816L259.764 165.884L259.696 165.952L259.593 166.055L259.525 166.089L259.422 166.226L259.354 166.26L259.285 166.363L259.251 166.397L259.114 166.499L259.046 166.568L258.841 166.773L258.806 166.807L258.772 166.841L258.704 166.875L258.67 166.943L258.567 167.012L258.533 167.046L258.499 167.08L258.43 167.114L258.054 167.456L257.985 167.49L257.917 167.558L257.849 167.627L257.746 167.695L257.712 167.763L257.506 167.934L257.472 167.968L257.438 168.037L257.404 168.071L257.335 168.105V168.173L257.301 168.208L257.233 168.31L257.199 168.378L257.164 168.413L257.199 168.344L257.267 168.208L257.335 168.003L257.472 167.695L257.609 167.319L257.78 166.841L257.985 166.363L258.225 165.782L258.464 165.132L258.738 164.449L259.012 163.732L259.32 162.946L259.662 162.126L260.004 161.271L260.346 160.383L260.688 159.495L261.064 158.572L261.406 157.649L262.159 155.736L262.535 154.813L263.254 152.934L263.63 152.011L263.972 151.123L264.348 150.235L264.656 149.381L264.999 148.56L265.306 147.775L265.58 147.057L265.854 146.374L266.093 145.724L266.333 145.144L266.538 144.631L266.709 144.187L266.983 143.503L267.12 143.093H228.222L195.244 227.764L162.128 143.093L128.876 227.764L95.7602 143.093H57L128.876 326L161.683 236.99L195.244 326L230.583 236.067L230.651 237.844L230.754 239.587L230.891 241.363L231.062 243.072L231.267 244.814L231.472 246.489L231.746 248.197L232.02 249.872L232.328 251.546L232.67 253.186L233.08 254.826L233.457 256.466L233.901 258.072L234.38 259.678L234.859 261.25L235.407 262.822L235.954 264.428L236.536 265.965L237.151 267.503L237.801 269.04L238.486 270.544L239.17 272.047L239.922 273.516L240.709 275.02L241.496 276.455L242.351 277.89L243.207 279.359L244.096 280.76L245.02 282.161L245.978 283.562L246.97 284.963L247.962 286.33L249.022 287.697L250.083 289.029L251.178 290.362L252.341 291.694L253.504 292.993L254.701 294.291L255.899 295.555L257.164 296.82L258.499 298.152L259.833 299.417L261.167 300.647L262.57 301.877L263.938 303.038L265.341 304.166L266.743 305.294L268.18 306.387L269.617 307.412L271.054 308.437L272.525 309.394L274.03 310.351L275.501 311.273L277.006 312.162L278.546 313.016L280.085 313.802L281.625 314.588L283.198 315.339L284.772 316.023L286.38 316.74L287.988 317.355L289.596 317.97L291.272 318.551L292.88 319.098L294.556 319.645L296.267 320.089L297.943 320.567L299.654 320.943L301.364 321.353L303.143 321.695L304.888 322.002L306.667 322.276L308.411 322.549L310.225 322.754L312.038 322.925L313.851 323.096L315.698 323.198L317.545 323.301L319.427 323.335H321.309H323.156L325.003 323.301L326.851 323.198L328.698 323.096L330.477 322.925L332.29 322.754L334.069 322.549L335.848 322.276L337.627 322.002L339.372 321.695L341.082 321.353L342.793 320.943L344.537 320.567L346.179 320.089L347.89 319.645L349.532 319.098L351.208 318.551L352.85 317.97L354.458 317.355L356.1 316.74L357.674 316.023L359.282 315.339L360.856 314.588L362.395 313.802L363.935 313.016L365.474 312.162L367.014 311.273L368.519 310.351L369.99 309.394L371.495 308.437L372.932 307.412L374.403 306.387L375.84 305.294L377.242 304.166L378.645 303.038L380.082 301.877L381.45 300.647L382.819 299.417L384.187 298.152L385.521 296.82L386.821 295.487L388.121 294.154L389.387 292.754L390.619 291.353L391.85 289.918L393.013 288.448L394.177 286.979L395.271 285.476L396.4 283.904L397.427 282.366L398.453 280.76L399.479 279.154L400.437 277.514L401.361 275.84L402.25 274.132L403.105 272.389L403.926 270.612L404.713 268.835L405.466 266.99L406.184 265.145L406.834 263.266L407.518 261.352L408.1 259.439L408.647 257.457L409.195 255.441L409.639 253.425L410.084 251.341L410.495 249.256L410.803 247.138L411.111 244.951L411.384 242.764L411.589 240.543L411.795 238.288L411.897 235.999L411.966 233.675L412 231.318V228.926L411.932 226.5L411.795 224.04L411.658 221.58H319.632V255.885H370.742L370.127 257.115L369.511 258.38L368.793 259.61L368.108 260.84L367.356 262.036L366.569 263.266L365.714 264.428L364.858 265.589L363.969 266.751L363.045 267.879L362.087 268.972L361.095 270.065L360.069 271.125L359.008 272.15L357.914 273.175L356.785 274.166L355.622 275.122L354.424 276.045L353.227 276.967L351.961 277.856L350.729 278.676L349.429 279.496L348.095 280.282L346.727 280.999L345.324 281.717L343.922 282.366L342.485 282.981L341.014 283.596L339.543 284.143L338.003 284.656L336.498 285.1L334.924 285.544L333.351 285.886L331.743 286.227L330.101 286.501L328.459 286.74L326.782 286.911L325.072 287.047L323.361 287.15L321.616 287.184L320.522 287.15L319.393 287.116L318.264 287.082L317.169 287.013L316.074 286.911L314.98 286.808L313.919 286.671L312.859 286.501L311.798 286.364L310.738 286.159L309.677 285.954L308.651 285.715L307.624 285.476L306.632 285.202L305.606 284.929L304.58 284.621L303.622 284.28L302.63 283.904L301.638 283.562L300.68 283.186L299.722 282.776L298.764 282.332L297.84 281.888L296.917 281.41L295.993 280.931L295.069 280.419L294.146 279.872L293.29 279.325L292.367 278.778L291.511 278.163L290.622 277.548L289.767 276.933L288.911 276.284L288.056 275.635L287.235 274.917L286.414 274.2L285.593 273.482L284.772 272.765L283.951 271.979L283.164 271.193L282.377 270.373L281.625 269.553L280.872 268.767L280.154 267.947L279.435 267.093L278.751 266.238L278.067 265.384L277.417 264.53L276.801 263.676L276.185 262.787L275.604 261.899L275.022 261.011L274.475 260.122L273.927 259.2L273.448 258.277L272.935 257.355L272.491 256.432L272.012 255.475L271.601 254.518L271.191 253.562L270.814 252.605L270.404 251.614L270.062 250.623L269.754 249.667L269.446 248.641L269.138 247.651L268.864 246.625L268.625 245.6L268.385 244.575L268.18 243.516L267.975 242.491L267.804 241.432L267.701 240.338L267.564 239.279L267.427 238.186L267.325 237.092L267.291 235.999L267.222 234.905L267.188 233.812V232.65V231.557L267.222 230.429L267.291 229.302L267.325 228.208L267.427 227.149L267.564 226.056L267.701 224.962L267.804 223.903L267.975 222.844L268.18 221.819L268.385 220.76L268.625 219.734L268.864 218.709L269.138 217.718L269.446 216.693L269.754 215.703L270.062 214.677L270.404 213.721L270.814 212.764L271.191 211.773L271.601 210.816L272.012 209.86L272.491 208.937L272.935 208.015L273.448 207.058L273.927 206.135L274.475 205.247L275.022 204.324L275.604 203.436L276.185 202.547L276.801 201.693L277.417 200.805L278.067 199.951L278.751 199.096L279.435 198.242L280.154 197.422L280.872 196.568L281.625 195.748L282.377 194.962L283.164 194.142L283.951 193.356L284.806 192.604L285.593 191.853L286.414 191.101L287.269 190.383L288.09 189.7L288.946 189.017L289.801 188.367L290.656 187.718L291.546 187.103L292.435 186.522L293.325 185.941L294.214 185.395L295.138 184.848L296.027 184.335L296.951 183.857L297.909 183.379L298.832 182.934L299.79 182.49L300.748 182.08L301.706 181.704L302.664 181.329L303.656 180.987L304.648 180.645L305.64 180.338L306.667 180.03L307.659 179.757L308.685 179.518L309.746 179.278L310.772 179.073L311.798 178.868L312.859 178.698L313.953 178.561L315.014 178.424L316.109 178.322L317.169 178.219L318.298 178.151L319.393 178.117L320.522 178.082H321.616H322.745L323.84 178.117L324.901 178.151L325.995 178.219L327.056 178.322L328.117 178.424L329.211 178.561L330.238 178.698L331.298 178.868L332.324 179.073L333.351 179.278L334.377 179.518L335.403 179.757L336.395 180.03L337.422 180.338L338.414 180.645L339.372 180.987L340.364 181.329L341.356 181.704L342.314 182.08L343.272 182.49L344.229 182.934L345.153 183.379L346.077 183.857L347.035 184.335L347.924 184.848L348.848 185.395L349.771 185.941L350.661 186.522L351.585 187.103L352.44 187.718L353.329 188.367L354.185 189.017L355.04 189.7L355.93 190.383L356.751 191.101L357.606 191.853L358.427 192.604L359.282 193.356L360.103 194.142L385.761 168.515L385.487 168.242L384.7 167.49L384.427 167.251L384.153 166.978L383.913 166.738L383.64 166.499L382.271 165.269L381.998 165.03L381.69 164.791L380.321 163.595L380.013 163.356L379.774 163.116L379.466 162.877L379.192 162.672L378.884 162.399L378.611 162.194L378.303 161.955L377.721 161.511L377.174 161.066L376.866 160.827L376.592 160.622L375.977 160.178L375.703 159.939L375.395 159.734L375.121 159.495L374.813 159.289L374.506 159.084L374.163 158.845L373.787 158.572L373.411 158.333L373.069 158.059L372.727 157.82L372.35 157.581L371.974 157.342L371.632 157.103L369.785 155.907L369.374 155.702L369.032 155.463L368.621 155.223L368.279 154.984L367.869 154.779L367.116 154.335L366.74 154.096L366.364 153.891L365.987 153.652L364.824 153.002L363.285 152.217L362.874 152.011L362.498 151.806L362.122 151.601L361.335 151.191L360.548 150.816L360.137 150.645L359.727 150.44L359.316 150.269L358.906 150.064L358.461 149.893L357.195 149.312L356.306 148.936L355.861 148.765L355.451 148.595L354.15 148.082L353.706 147.911L353.261 147.74L352.816 147.57L352.371 147.399L351.927 147.262L351.037 146.955L350.593 146.784L350.148 146.647L349.737 146.476L349.293 146.34L348.814 146.203L348.369 146.066L347.924 145.929L347.479 145.793L347.035 145.656L346.59 145.519L346.111 145.383L345.666 145.246L344.743 145.007L344.298 144.904L343.853 144.802L342.964 144.563L342.485 144.426L342.04 144.323L341.595 144.221L340.569 143.982L340.295 143.948L339.782 143.845L339.543 143.777L339.303 143.743L337.251 143.333L336.977 143.298L336.737 143.264L336.498 143.196L336.224 143.162L334.924 142.957L334.685 142.888H334.445L334.172 142.82H333.932L333.659 142.752L333.145 142.683L332.872 142.649L332.393 142.581H332.119L331.88 142.547L331.606 142.513L331.332 142.478H331.264L329.519 142.308H329.451L328.903 142.273H328.801L328.527 142.239H328.424H328.322H328.253L327.98 142.205H327.911H327.706L326.543 142.103L325.414 142.068H324.832L323.669 142.034H323.122H322.54L321.959 142H321.411L320.83 142.034Z" fill="white"/></svg>