<svg viewBox="0 0 500 172" xmlns="http://www.w3.org/2000/svg"><path fill-rule="evenodd" clip-rule="evenodd" d="M85.782 171.564C133.158 171.564 171.564 133.158 171.564 85.782C171.564 38.4059 133.158 0 85.782 0C38.4059 0 0 38.4059 0 85.782C0 133.158 38.4059 171.564 85.782 171.564ZM85.782 163.651C128.788 163.651 163.651 128.788 163.651 85.782C163.651 42.776 128.788 7.91281 85.782 7.91281C42.776 7.91281 7.91281 42.776 7.91281 85.782C7.91281 128.788 42.776 163.651 85.782 163.651Z" fill="#24212C"/><path fill-rule="evenodd" clip-rule="evenodd" d="M66.3596 58.0872C66.3596 46.8639 75.4579 37.7657 86.6812 37.7657C97.9044 37.7657 107.003 46.8639 107.003 58.0872V80.0273C107.003 91.2505 97.9044 100.349 86.6812 100.349C75.4579 100.349 66.3596 91.2505 66.3596 80.0273V58.0872ZM74.2725 57.7275C74.2725 50.8744 79.828 45.3188 86.6812 45.3188C93.5343 45.3188 99.0899 50.8744 99.0899 57.7275V80.3869C99.0899 87.2401 93.5343 92.7957 86.6812 92.7957C79.828 92.7957 74.2725 87.2401 74.2725 80.3869V57.7275Z" fill="#24212C"/><path d="M52.3324 73.0136V80.9256C52.3324 98.2031 65.3965 112.429 82.1853 114.265V129.482H71.3051C69.2691 129.482 67.6185 131.133 67.6185 133.169C67.6185 135.205 69.2691 136.856 71.3051 136.856H100.618C102.655 136.856 104.305 135.205 104.305 133.169C104.305 131.133 102.655 129.482 100.618 129.482H89.7384V114.245C106.441 112.328 119.411 98.1414 119.411 80.9257V73.0136C119.411 68.5177 112.038 68.6029 112.038 73.0136V81.1962C112.038 95.6474 100.323 107.362 85.8719 107.362C71.4207 107.362 59.7057 95.6474 59.7057 81.1962V73.0136C59.7057 68.4644 52.3324 68.6432 52.3324 73.0136Z" fill="#24212C"/><path d="M226.434 65.1462C232.971 65.1462 238.388 66.8896 242.684 70.3763C246.145 73.1852 248.535 76.7619 249.855 81.1063C247.275 81.1063 243.768 81.1063 240.724 81.1063C239.826 78.9611 238.425 77.1901 236.52 75.7932C233.781 73.6763 230.356 72.6178 226.247 72.6178C223.258 72.6178 220.519 73.3027 218.028 74.6725C215.6 76.0423 213.639 78.1592 212.144 81.0233C210.65 83.8251 209.903 87.3119 209.903 91.4835C209.903 95.6551 210.65 99.173 212.144 102.037C213.639 104.839 215.6 106.925 218.028 108.294C220.519 109.664 223.258 110.349 226.247 110.349C230.356 110.349 233.781 109.291 236.52 107.174C238.629 105.58 240.121 103.546 240.995 101.07C243.768 101.07 246.196 101.07 250.063 101.07C248.795 105.787 246.335 109.627 242.684 112.591C238.388 116.015 232.971 117.727 226.434 117.727C221.515 117.727 217.156 116.669 213.358 114.552C209.56 112.435 206.572 109.415 204.393 105.493C202.276 101.508 201.217 96.8381 201.217 91.4835C201.217 86.1289 202.276 81.4591 204.393 77.4743C206.572 73.4895 209.56 70.4386 213.358 68.3216C217.156 66.2047 221.515 65.1462 226.434 65.1462Z" fill="#24212C"/><path d="M281.825 65.1462C286.806 65.1462 291.009 66.3915 294.434 68.882C297.92 71.3725 300.349 74.7036 301.718 78.8752V65.8H310.217V117.074H301.718V103.998C300.349 108.17 297.92 111.501 294.434 113.992C291.009 116.482 286.806 117.727 281.825 117.727C277.28 117.727 273.233 116.669 269.684 114.552C266.135 112.435 263.333 109.415 261.279 105.493C259.286 101.508 258.29 96.8381 258.29 91.4835C258.29 86.1289 259.286 81.4591 261.279 77.4743C263.333 73.4895 266.135 70.4386 269.684 68.3216C273.233 66.2047 277.28 65.1462 281.825 65.1462ZM284.254 72.7112C279.024 72.7112 274.821 74.3923 271.645 77.7545C268.532 81.0544 266.976 85.6308 266.976 91.4835C266.976 97.3362 268.532 101.944 271.645 105.306C274.821 108.606 279.024 110.256 284.254 110.256C287.616 110.256 290.604 109.477 293.22 107.921C295.897 106.364 297.983 104.185 299.477 101.383C300.971 98.5192 301.718 95.2193 301.718 91.4835C301.718 87.7477 300.971 84.4478 299.477 81.5837C297.983 78.7196 295.897 76.5404 293.22 75.046C290.604 73.4895 287.616 72.7112 284.254 72.7112Z" fill="#24212C"/><path d="M338.873 65.1462C344.664 65.1462 349.302 66.6717 352.789 69.7226C356.338 72.7112 358.486 76.7583 359.233 81.8638H351.108C350.734 78.813 349.458 76.3224 347.279 74.3923C345.162 72.3999 342.298 71.4037 338.687 71.4037C335.636 71.4037 333.239 72.1508 331.495 73.6451C329.814 75.0772 328.974 77.0385 328.974 79.529C328.974 81.3969 329.534 82.9223 330.655 84.1053C331.838 85.2261 333.27 86.0977 334.951 86.7204C336.694 87.2807 339.06 87.9034 342.049 88.5883C345.847 89.4599 348.898 90.3627 351.201 91.2967C353.567 92.1684 355.56 93.6004 357.179 95.5928C358.86 97.5853 359.7 100.263 359.7 103.625C359.7 107.796 358.113 111.19 354.937 113.805C351.824 116.42 347.652 117.727 342.422 117.727C336.321 117.727 331.34 116.264 327.479 113.338C323.619 110.411 321.346 106.333 320.661 101.103H328.88C329.191 104.216 330.53 106.738 332.896 108.668C335.324 110.598 338.5 111.563 342.422 111.563C345.349 111.563 347.621 110.816 349.24 109.322C350.921 107.828 351.762 105.866 351.762 103.438C351.762 101.446 351.17 99.8579 349.987 98.6749C348.804 97.4919 347.341 96.589 345.598 95.9664C343.854 95.3438 341.457 94.69 338.406 94.0051C334.608 93.1334 331.557 92.2618 329.254 91.3901C327.012 90.5184 325.082 89.1486 323.463 87.2807C321.907 85.3506 321.128 82.7667 321.128 79.529C321.128 75.2328 322.716 71.7772 325.892 69.1622C329.067 66.4849 333.394 65.1462 338.873 65.1462Z" fill="#24212C"/><path d="M394.593 109.602V117.074H388.242C383.012 117.074 379.089 115.828 376.474 113.338C373.921 110.847 372.645 106.676 372.645 100.823V73.1782H364.987V65.8H372.645V53.0049H381.237V65.8H394.499V73.1782H381.237V101.01C381.237 104.31 381.829 106.582 383.012 107.828C384.257 109.011 386.374 109.602 389.363 109.602H394.593Z" fill="#24212C"/><path d="M427.285 65.1462C432.204 65.1462 436.593 66.2047 440.454 68.3216C444.376 70.4386 447.427 73.4895 449.606 77.4743C451.848 81.4591 452.969 86.1289 452.969 91.4835C452.969 96.8381 451.848 101.508 449.606 105.493C447.427 109.415 444.376 112.435 440.454 114.552C436.593 116.669 432.204 117.727 427.285 117.727C422.366 117.727 417.946 116.669 414.023 114.552C410.163 112.435 407.112 109.415 404.87 105.493C402.629 101.508 401.508 96.8381 401.508 91.4835C401.508 86.1289 402.629 81.4591 404.87 77.4743C407.112 73.4895 410.163 70.4386 414.023 68.3216C417.946 66.2047 422.366 65.1462 427.285 65.1462ZM427.285 72.6178C424.234 72.6178 421.401 73.3027 418.786 74.6725C416.233 76.0423 414.148 78.1592 412.529 81.0233C410.972 83.8251 410.194 87.3119 410.194 91.4835C410.194 95.5928 410.972 99.0796 412.529 101.944C414.148 104.746 416.233 106.831 418.786 108.201C421.401 109.571 424.234 110.256 427.285 110.256C430.336 110.256 433.138 109.571 435.691 108.201C438.306 106.831 440.391 104.746 441.948 101.944C443.567 99.0796 444.376 95.5928 444.376 91.4835C444.376 87.3119 443.567 83.8251 441.948 81.0233C440.391 78.1592 438.306 76.0423 435.691 74.6725C433.138 73.3027 430.336 72.6178 427.285 72.6178Z" fill="#24212C"/><path d="M479.173 65.1462C484.964 65.1462 489.602 66.6717 493.089 69.7226C496.638 72.7112 498.786 76.7583 499.533 81.8638H491.408C491.034 78.813 489.758 76.3224 487.579 74.3923C485.462 72.3999 482.598 71.4037 478.986 71.4037C475.935 71.4037 473.538 72.1508 471.795 73.6451C470.114 75.0772 469.273 77.0385 469.273 79.529C469.273 81.3969 469.834 82.9223 470.954 84.1053C472.137 85.2261 473.569 86.0977 475.25 86.7204C476.994 87.2807 479.36 87.9034 482.348 88.5883C486.147 89.4599 489.197 90.3627 491.501 91.2967C493.867 92.1684 495.86 93.6004 497.478 95.5928C499.159 97.5853 500 100.263 500 103.625C500 107.796 498.412 111.19 495.237 113.805C492.124 116.42 487.952 117.727 482.722 117.727C476.62 117.727 471.639 116.264 467.779 113.338C463.919 110.411 461.646 106.333 460.961 101.103H469.18C469.491 104.216 470.83 106.738 473.196 108.668C475.624 110.598 478.799 111.563 482.722 111.563C485.648 111.563 487.921 110.816 489.54 109.322C491.221 107.828 492.062 105.866 492.062 103.438C492.062 101.446 491.47 99.8579 490.287 98.6749C489.104 97.4919 487.641 96.589 485.897 95.9664C484.154 95.3438 481.757 94.69 478.706 94.0051C474.908 93.1334 471.857 92.2618 469.553 91.3901C467.312 90.5184 465.382 89.1486 463.763 87.2807C462.206 85.3506 461.428 82.7667 461.428 79.529C461.428 75.2328 463.016 71.7772 466.191 69.1622C469.367 66.4849 473.694 65.1462 479.173 65.1462Z" fill="#24212C"/></svg>