<svg xmlns="http://www.w3.org/2000/svg" viewBox="0 0 2325.174 508.1">
  <path d="M421.174,140.6l-45.2,256a2.141,2.141,0,0,1-4.2.1l-61.7-256.5a5.657,5.657,0,0,0-5.5-4.4h-90.6a5.657,5.657,0,0,0-5.5,4.4l-61.8,256.5a2.141,2.141,0,0,1-4.2-.1l-45.2-256a5.688,5.688,0,0,0-5.6-4.7h-86a5.618,5.618,0,0,0-5.5,7l86.6,360.7a5.657,5.657,0,0,0,5.5,4.4h102.9a4.382,4.382,0,0,0,4.2-3.3l58.6-240.7a1.33,1.33,0,0,1,2.6,0l58.6,240.7a4.382,4.382,0,0,0,4.2,3.3h102.9a5.657,5.657,0,0,0,5.5-4.4l86.6-360.7a5.665,5.665,0,0,0-5.5-7h-86A5.8,5.8,0,0,0,421.174,140.6Z" fill="#666"/><path d="M712.174,374.4h-52.7a3.543,3.543,0,0,0-3.5,3.5V504.4a3.543,3.543,0,0,1-3.5,3.5h-83.6a3.543,3.543,0,0,1-3.5-3.5v-365a3.543,3.543,0,0,1,3.5-3.5h143.3c91.2,0,136.7,51.4,136.7,119.8C848.874,317.1,807.074,374.4,712.174,374.4Zm-6.9-72.1c36,0,51.4-18,51.4-46.6s-15.4-46.6-51.4-46.6h-45.8a3.543,3.543,0,0,0-3.5,3.5v86.2a3.543,3.543,0,0,0,3.5,3.5Z" fill="#666"/><path d="M998.374,135.9h236.3a2.9,2.9,0,0,1,2.9,2.9v66.7a2.9,2.9,0,0,1-2.9,2.9h-148.6V288h114.7a2.9,2.9,0,0,1,2.9,2.9v64.6a2.9,2.9,0,0,1-2.9,2.9h-114.7V504.8a2.9,2.9,0,0,1-2.9,2.9h-84.7a2.9,2.9,0,0,1-2.9-2.9v-366A2.758,2.758,0,0,1,998.374,135.9Z" fill="#666"/><path d="M1285.174,135.9h86.7a2.006,2.006,0,0,1,2,2V506a2.006,2.006,0,0,1-2,2h-86.7a2.006,2.006,0,0,1-2-2V137.8A1.988,1.988,0,0,1,1285.174,135.9Z" fill="#666"/><path d="M1909.174,135.9h86.7a2.006,2.006,0,0,1,2,2V506a2.006,2.006,0,0,1-2,2h-86.7a2.006,2.006,0,0,1-2-2V137.8A1.988,1.988,0,0,1,1909.174,135.9Z" fill="#666"/><path d="M1582.074,396.9l-64.5,110.1a2.062,2.062,0,0,1-1.7,1h-98.1a1.964,1.964,0,0,1-1.7-3l116.6-185a2.354,2.354,0,0,0,0-2.3L1413.574,139a2,2,0,0,1,1.6-3.1h100.7a1.7,1.7,0,0,1,1.6.9l72.3,108.7a2.057,2.057,0,0,0,3.5-.1l63.5-108.5a2.062,2.062,0,0,1,1.7-1h98.1a1.964,1.964,0,0,1,1.7,3l-115.6,183.4a2.354,2.354,0,0,0,0,2.3l120.2,180.2a2,2,0,0,1-1.6,3.1h-100.7a1.7,1.7,0,0,1-1.6-.9l-73.4-110.3A2.064,2.064,0,0,0,1582.074,396.9Z" fill="#666"/><path d="M2039.674,135.9h283.1a2.433,2.433,0,0,1,2.4,2.4v67.9a2.433,2.433,0,0,1-2.4,2.4h-93.9a2.433,2.433,0,0,0-2.4,2.4V505.7a2.433,2.433,0,0,1-2.4,2.4h-85.9a2.433,2.433,0,0,1-2.4-2.4V210.8a2.433,2.433,0,0,0-2.4-2.4h-93.9a2.433,2.433,0,0,1-2.4-2.4V138.1A2.68,2.68,0,0,1,2039.674,135.9Z" fill="#666"/><rect x="433.474" y="7.6" width="12.1" height="90.4" fill="#f98c5c"/><path d="M146.774,7.6h-5.9a2.988,2.988,0,0,0-2.8,1.7L99.474,78a1.421,1.421,0,0,0-.2.6v4.7h35.5V98h12V83.3h7.8V71.2h-7.8Zm-12,63.6h-17.4l15.6-30.3h1.8Z" fill="#f98c5c"/><polygon points="191.574 105.8 203.974 105.8 239.874 0 227.574 0 191.574 105.8" fill="#f98c5c"/><polygon points="700.574 7.6 680.274 7.6 680.274 19.1 700.574 19.1 700.574 97.9 712.674 97.9 712.674 19.1 732.974 19.1 732.974 7.6 712.674 7.6 700.574 7.6" fill="#f98c5c"/><polygon points="971.374 7.6 951.074 7.6 951.074 19.1 971.374 19.1 971.374 97.9 983.474 97.9 983.474 19.1 1003.774 19.1 1003.774 7.6 983.474 7.6 971.374 7.6" fill="#f98c5c"/><polygon points="1726.274 7.6 1705.974 7.6 1693.874 7.6 1673.574 7.6 1673.574 19.1 1693.874 19.1 1693.874 97.9 1705.974 97.9 1705.974 19.1 1726.274 19.1 1726.274 7.6" fill="#f98c5c"/><path d="M1327.674,7.6h-30.9V98h12.1V64.3h18.8a23,23,0,0,0,23-23V30.6A22.939,22.939,0,0,0,1327.674,7.6Zm10.9,33.7a11.715,11.715,0,0,1-11.7,11.7h-18V18.8h18a11.715,11.715,0,0,1,11.7,11.7Z" fill="#f98c5c"/><path d="M1423.174,7.6h-30.9V98h12.1V64.3h18.8a23,23,0,0,0,23-23V30.6A22.939,22.939,0,0,0,1423.174,7.6Zm10.9,33.7a11.715,11.715,0,0,1-11.7,11.7h-18V18.8h18a11.715,11.715,0,0,1,11.7,11.7Z" fill="#f98c5c"/><path d="M1637.174,38V30.6a23,23,0,0,0-23-23h-30.9V98h12.1V61h7.2l23.7,37h14.1l-23.3-37.2A23.009,23.009,0,0,0,1637.174,38Zm-41.7,11.7v-31h18a11.715,11.715,0,0,1,11.7,11.7V38a11.715,11.715,0,0,1-11.7,11.7Z" fill="#f98c5c"/><path d="M1515.574,5.8h-6.4a23.43,23.43,0,0,0-23.4,23.4V75.8a23.43,23.43,0,0,0,23.4,23.4h6.4a23.43,23.43,0,0,0,23.4-23.4V29.2A23.43,23.43,0,0,0,1515.574,5.8Zm11.3,69.3a12.931,12.931,0,0,1-12.9,12.9h-3.2a12.931,12.931,0,0,1-12.9-12.9v-45a12.931,12.931,0,0,1,12.9-12.9h3.2a12.931,12.931,0,0,1,12.9,12.9Z" fill="#f98c5c"/><path d="M1239.474,75.8a12.249,12.249,0,0,1-12.2,12.2h-4.7a12.249,12.249,0,0,1-12.2-12.2V7.6h-12.1V76.1a23.259,23.259,0,0,0,23.3,23.3h6.7a23.259,23.259,0,0,0,23.3-23.3V7.6h-12.1V75.8Z" fill="#f98c5c"/><polygon points="533.574 66.4 499.774 7.6 492.474 7.6 492.474 97.9 504.574 97.9 504.574 39.6 537.474 97.9 545.674 97.9 545.674 7.6 533.574 7.6 533.574 66.4" fill="#f98c5c"/><polygon points="899.474 66.4 865.674 7.6 858.374 7.6 858.374 97.9 870.474 97.9 870.474 39.6 903.474 97.9 911.574 97.9 911.574 7.6 899.474 7.6 899.474 66.4" fill="#f98c5c"/><path d="M603.374,30.2c0-9,7.4-13.2,14.3-13.2,15,0,14.7,11.4,14,17.8l12.4-.9c1.7-16.1-9.5-28.4-25.7-28.4-13.5,0-26.8,7.8-26.8,25,0,32.9,41.4,20.5,41.4,43.4,0,6.9-3.3,14.1-15.3,14.1-10.6,0-16.8-6.5-14.8-19.4l-12.3,2.1c-1.4,19.8,11.6,28.7,26.5,28.7,15.5,0,27.8-7.1,27.8-24.6C644.674,40.9,603.374,52.1,603.374,30.2Z" fill="#f98c5c"/><path d="M1114.574,30.2c0-9,7.4-13.2,14.3-13.2,15,0,14.7,11.4,14,17.8l12.4-.9c1.7-16.1-9.5-28.4-25.7-28.4-13.5,0-26.8,7.8-26.8,25,0,32.9,41.4,20.5,41.4,43.4,0,6.9-3.3,14.1-15.3,14.1-10.6,0-16.8-6.5-14.8-19.4l-12.3,2.1c-1.4,19.8,11.6,28.7,26.5,28.7,15.5,0,27.8-7.1,27.8-24.6C1155.874,40.9,1114.574,52.1,1114.574,30.2Z" fill="#f98c5c"/><path d="M792.074,7.6h-5.5L760.374,98h12.1l5.8-20h24.7l5.8,20h12.1l-26.2-90.4Zm-10.3,58.5,8.9-30.7,8.9,30.7Z" fill="#f98c5c"/><path d="M278.574,7.6V30h11.9V18.7h24.8l-32.1,79.2h12.9l33.9-83.6a5.732,5.732,0,0,0,.4-1.4l.7-5.4h-52.5Z" fill="#f98c5c"/><path d="M61.274,31c0-16.6-11-25.4-25.3-25.4-16.7,0-26.6,12.8-25.7,27.6l12.5,1.5c-1.4-11.6,4.7-17.4,13.4-17.4s12.8,4.3,12.8,13.9c0,22.3-26.9,45.8-39.8,56.8a1.612,1.612,0,0,0-.6,1.3v7.6a1,1,0,0,0,1,1h52.9V86.1h-32.7C41.474,73.4,61.274,51.3,61.274,31Z" fill="#f98c5c"/>
</svg>
