<svg xmlns="http://www.w3.org/2000/svg" viewBox="0 0 216.117 32.079"><path d="M118.286,5.977h-6.4v17.76h-2.611V5.977h-6.385V3.83h15.395Z"/><path d="M125.82,11.213a7.673,7.673,0,0,0-1.244-.1,3.332,3.332,0,0,0-3.377,2.12v10.5h-2.53V8.944h2.461l.041,1.709A3.938,3.938,0,0,1,124.7,8.67a2.579,2.579,0,0,1,1.121.192Z"/><path d="M137.411,23.737a5.275,5.275,0,0,1-.355-1.559,5.642,5.642,0,0,1-4.211,1.832,5.22,5.22,0,0,1-3.589-1.237,4,4,0,0,1-1.4-3.138,4.184,4.184,0,0,1,1.757-3.589,8.286,8.286,0,0,1,4.943-1.278h2.461V13.606a2.846,2.846,0,0,0-.793-2.113,3.188,3.188,0,0,0-2.338-.786,3.687,3.687,0,0,0-2.27.684,2.014,2.014,0,0,0-.916,1.654h-2.543a3.494,3.494,0,0,1,.786-2.14,5.372,5.372,0,0,1,2.133-1.633,7.175,7.175,0,0,1,2.96-.6,5.85,5.85,0,0,1,4.006,1.278,4.616,4.616,0,0,1,1.5,3.521v6.809a8.33,8.33,0,0,0,.519,3.24v.219Zm-4.2-1.928a4.447,4.447,0,0,0,2.256-.615,3.734,3.734,0,0,0,1.545-1.6V16.559h-1.983q-4.649,0-4.648,2.721a2.3,2.3,0,0,0,.793,1.859A3.043,3.043,0,0,0,133.214,21.809Z"/><path d="M145.966,8.944l.082,1.859a5.389,5.389,0,0,1,4.429-2.133q4.689,0,4.731,5.291v9.776h-2.529v-9.79a3.409,3.409,0,0,0-.732-2.365,2.931,2.931,0,0,0-2.235-.765,3.645,3.645,0,0,0-2.16.656A4.459,4.459,0,0,0,146.1,13.2V23.737h-2.529V8.944Z"/><path d="M167.58,19.813a1.864,1.864,0,0,0-.772-1.593,7.466,7.466,0,0,0-2.694-.978,12.7,12.7,0,0,1-3.049-.984,4.335,4.335,0,0,1-1.668-1.367,3.268,3.268,0,0,1-.54-1.887A3.839,3.839,0,0,1,160.4,9.928a6.012,6.012,0,0,1,3.931-1.258,6.181,6.181,0,0,1,4.081,1.3,4.126,4.126,0,0,1,1.566,3.322H167.43a2.285,2.285,0,0,0-.882-1.791,3.307,3.307,0,0,0-2.222-.752,3.456,3.456,0,0,0-2.16.6,1.892,1.892,0,0,0-.779,1.572,1.534,1.534,0,0,0,.724,1.381,8.926,8.926,0,0,0,2.618.889A13.662,13.662,0,0,1,167.8,16.2a4.485,4.485,0,0,1,1.743,1.415,3.483,3.483,0,0,1,.567,2.017,3.785,3.785,0,0,1-1.586,3.179,6.648,6.648,0,0,1-4.115,1.2,7.449,7.449,0,0,1-3.144-.629,5.11,5.11,0,0,1-2.14-1.757,4.232,4.232,0,0,1-.772-2.44h2.529A2.616,2.616,0,0,0,161.9,21.2a3.952,3.952,0,0,0,2.509.746,4.075,4.075,0,0,0,2.3-.582A1.785,1.785,0,0,0,167.58,19.813Z"/><path d="M176.163,23.737h-2.529v-21h2.529Z"/><path d="M189.256,23.737a5.308,5.308,0,0,1-.355-1.559,5.642,5.642,0,0,1-4.211,1.832,5.22,5.22,0,0,1-3.589-1.237,4,4,0,0,1-1.4-3.138,4.183,4.183,0,0,1,1.756-3.589,8.286,8.286,0,0,1,4.943-1.278h2.461V13.606a2.846,2.846,0,0,0-.793-2.113,3.188,3.188,0,0,0-2.338-.786,3.689,3.689,0,0,0-2.27.684,2.016,2.016,0,0,0-.916,1.654H180a3.49,3.49,0,0,1,.787-2.14,5.362,5.362,0,0,1,2.132-1.633,7.179,7.179,0,0,1,2.96-.6,5.85,5.85,0,0,1,4.006,1.278,4.616,4.616,0,0,1,1.5,3.521v6.809a8.31,8.31,0,0,0,.52,3.24v.219Zm-4.2-1.928a4.447,4.447,0,0,0,2.256-.615,3.734,3.734,0,0,0,1.545-1.6V16.559h-1.983q-4.649,0-4.648,2.721a2.3,2.3,0,0,0,.793,1.859A3.043,3.043,0,0,0,185.059,21.809Z"/><path d="M198.867,5.362V8.944h2.761V10.9h-2.761v9.185a2.056,2.056,0,0,0,.369,1.335,1.555,1.555,0,0,0,1.258.444,6.086,6.086,0,0,0,1.2-.164v2.039a7.39,7.39,0,0,1-1.942.272,3.15,3.15,0,0,1-2.556-1.025,4.4,4.4,0,0,1-.862-2.913V10.9h-2.693V8.944h2.693V5.362Z"/><path d="M210.348,24.01a6.46,6.46,0,0,1-4.9-1.976,7.329,7.329,0,0,1-1.887-5.284v-.465a8.883,8.883,0,0,1,.841-3.93,6.559,6.559,0,0,1,2.352-2.707,5.908,5.908,0,0,1,3.274-.978,5.543,5.543,0,0,1,4.485,1.9,8.23,8.23,0,0,1,1.6,5.441v1.053H206.1a5.255,5.255,0,0,0,1.278,3.534,4.017,4.017,0,0,0,3.11,1.347,4.414,4.414,0,0,0,2.27-.547,5.718,5.718,0,0,0,1.627-1.45l1.545,1.2A6.212,6.212,0,0,1,210.348,24.01Zm-.315-13.262a3.372,3.372,0,0,0-2.57,1.115,5.413,5.413,0,0,0-1.285,3.124h7.41V14.8a4.821,4.821,0,0,0-1.039-2.987A3.179,3.179,0,0,0,210.033,10.748Z"/><path d="M41.7,16.882a8.042,8.042,0,0,1-16.083,0,8.042,8.042,0,0,1,16.083,0Zm-3.52,0a4.533,4.533,0,1,0-9.042,0,4.533,4.533,0,1,0,9.042,0Z"/><path d="M59.051,16.882a8.042,8.042,0,0,1-16.083,0,8.042,8.042,0,0,1,16.083,0Zm-3.52,0a4.533,4.533,0,1,0-9.043,0,4.533,4.533,0,1,0,9.043,0Z"/><path d="M75.676,9.35V23.741c0,5.92-3.491,8.338-7.619,8.338a7.634,7.634,0,0,1-7.105-4.724l3.065-1.276a4.427,4.427,0,0,0,4.037,2.845c2.642,0,4.279-1.63,4.279-4.7V23.072H72.21a5.456,5.456,0,0,1-4.221,1.822,8.022,8.022,0,0,1,0-16.029,5.558,5.558,0,0,1,4.221,1.793h.123v-1.3h3.343Zm-3.094,7.56c0-2.822-1.883-4.886-4.279-4.886A4.635,4.635,0,0,0,63.84,16.91,4.6,4.6,0,0,0,68.3,21.739C70.7,21.739,72.582,19.7,72.582,16.91Z"/><rect x="77.754" y="0.914" width="3.433" height="23.492"/><path d="M94.567,19.52,97.3,21.341a7.979,7.979,0,0,1-6.679,3.553,7.842,7.842,0,0,1-7.954-8.016c0-4.767,3.429-8.016,7.56-8.016,4.16,0,6.2,3.31,6.86,5.1l.365.911L86.735,19.31a4.08,4.08,0,0,0,3.885,2.429,4.576,4.576,0,0,0,3.947-2.219Zm-8.41-2.884,7.163-2.975a3.1,3.1,0,0,0-2.975-1.7A4.4,4.4,0,0,0,86.157,16.636Z"/><path d="M12.624,14.8V11.4h11.46a11.275,11.275,0,0,1,.17,2.053A11.231,11.231,0,0,1,21.309,21.4a11.382,11.382,0,0,1-8.681,3.491A12.621,12.621,0,0,1,0,12.447,12.621,12.621,0,0,1,12.628,0a11.858,11.858,0,0,1,8.529,3.43l-2.4,2.4A8.665,8.665,0,0,0,12.624,3.4,8.929,8.929,0,0,0,3.7,12.447a8.929,8.929,0,0,0,8.927,9.046A8.328,8.328,0,0,0,18.909,19a7.049,7.049,0,0,0,1.843-4.21Z"/></svg>