<svg xmlns="http://www.w3.org/2000/svg" viewBox="0 0 18 18"><path d="M11.891 6.556a1.269 1.269 0 0 1 1.358-.482c.08.014.121.025.107.13-.067.351-.121.705-.178 1.058-.015.093-.027.137-.15.108a.912.912 0 0 0-1.109.66.873.873 0 0 0-.028.254c0 .693-.007 1.387 0 2.078 0 .163-.047.194-.2.189a18.044 18.044 0 0 0-.987 0c-.1 0-.127-.031-.126-.13V6.23c0-.093.024-.12.12-.12.346 0 .694.008 1.039 0 .121 0 .167.035.151.156a2.805 2.805 0 0 0 .003.29zM18 6.167c0-.1-.022-.142-.135-.142q-.51.01-1.022 0c-.112 0-.162.026-.151.146s0 .216 0 .362l-.14-.107a1.834 1.834 0 0 0-2.066-.137 2.254 2.254 0 0 0-.773 2.956 1.874 1.874 0 0 0 2.5.891 1.849 1.849 0 0 0 .412-.266c.019-.015.038-.025.061-.008A.864.864 0 0 1 16 10.875a.6.6 0 0 1-.074.011 2.578 2.578 0 0 1-.4.053 2.444 2.444 0 0 1-1.356-.361c-.08-.044-.121-.056-.174.042a17.25 17.25 0 0 1-.411.738c-.051.085-.037.127.047.177a3.762 3.762 0 0 0 .97.4 5.848 5.848 0 0 0 1.308.073 2.016 2.016 0 0 0 2.083-2.222V8.011C18 7.391 18 6.779 18 6.167zm-1.258 2.065a1.062 1.062 0 0 1-.756.978.99.99 0 0 1-1.176-.758.619.619 0 0 1-.015-.086 1 1 0 1 1 1.917-.566 1.011 1.011 0 0 1 .03.432zM10.155 7.759A2.356 2.356 0 0 0 8.2 6c-.135 0-.5-.014-.618 0A2.375 2.375 0 0 0 5.6 8.887a2.347 2.347 0 0 0 4.554-1.128zM8.409 9.325a.757.757 0 0 1-1.071.014l-.013-.013a1.455 1.455 0 0 1-.008-1.976.763.763 0 0 1 1.077-.04c.013.013.027.026.039.04a1.372 1.372 0 0 1 .376.986 1.326 1.326 0 0 1-.4.989z" fill="#163b4f"/><path d="M.958 8.335a.516.516 0 0 1 .152-.381c.284-.287.569-.575.859-.857a.533.533 0 0 1 .752-.021l.021.021q.43.415.844.844A.534.534 0 0 1 3.6 8.7l-.017.018q-.417.429-.844.844a.532.532 0 0 1-.749.036c-.013-.011-.024-.023-.036-.035a83.826 83.826 0 0 1-.843-.844.509.509 0 0 1-.153-.384z" fill="#f48320"/><path d="M3.946 9.47c.03-.764.023-1.505 0-2.257.03-.015.05.032.073.056.157.148.31.292.45.451a.864.864 0 0 1 .165.964 2.844 2.844 0 0 1-.688.786zM.005 8.437a1.083 1.083 0 0 1 0-.213.963.963 0 0 1 .295-.567c.155-.149.305-.3.457-.456C.741 7.965.73 8.716.762 9.48.488 9.151.066 8.93.005 8.437z" fill="#f48421"/><path d="M3.435 9.923a6.42 6.42 0 0 1-.535.577.854.854 0 0 1-1.118-.02 6.934 6.934 0 0 1-.51-.546 21.338 21.338 0 0 0 2.163-.011zM2.191 5.994a.945.945 0 0 1 .327 0 .84.84 0 0 1 .462.241c.164.155.328.314.517.494-.795 0-1.544-.04-2.275.024a1.875 1.875 0 0 1 .969-.759z" fill="#f48420"/></svg>