<svg xmlns="http://www.w3.org/2000/svg" viewBox="0 0 2788 413">
  <g>
    <path d="M239 61.8l.4-55.1H0v333.8h69.1V210.7h156.1v-55.6H69.1V61.8zM351.5 37.6c0 21.9-13.9 37.6-34 37.6s-34-15.7-34-37.6S297.4 0 317.5 0s34 15.8 34 37.6zm-65.7 302.1V104.5H349v235.2zM1107.1 218.8v121.7H1052V234.9c0-24.9-14.4-39.6-37.5-39.6-26.7.4-42.9 21.3-42.9 49.4v95.8h-55.1V234.9c0-24.9-14.4-39.6-37.1-39.6-27 .4-43.2 21.3-43.2 49.4v95.8h-55.5V146.7h55.5v33.5c13.7-23.8 36.4-35.3 65.6-35.7 32.8 0 56.2 16.6 65.6 44.7 12.6-29.9 37.1-44.3 69.9-44.7 42.7.1 69.8 28.9 69.8 74.3zM1239.3 362.2c-13.7 34.2-37.5 50.8-71 50.8-20.5 0-36.7-5.8-52.6-18.7l23.4-40c8.6 7.2 16.2 10.4 25.2 10.4 11.5 0 20.2-5.8 25.6-17.3l5.4-10.8-80.3-189.9h57.3l50.8 133.3 45.8-133.3h55.5zM1481 165.8l-19.1 37.8c-21.3-11.9-42.9-18.7-59.1-18.7-13 0-22.3 4.3-22.3 14.4 0 29.2 102.3 14.4 102 82.9 0 39.6-34.9 60.5-78.9 60.5-31.3 0-62-9.4-83.9-27l18-37.5c20.2 15.5 46.1 24.1 67.4 24.1 14.1 0 24.5-4.7 24.5-15.1 0-31-100.5-14.4-100.5-82.5 0-40 34.2-60.5 76.4-60.5 26.5 0 53.9 7.9 75.5 21.6zM1571.1 96.3c0 17.7-12.2 30.4-29.9 30.4s-29.9-12.7-29.9-30.4 12.2-30.4 29.9-30.4 29.9 12.8 29.9 30.4zm-57.7 244.2V150.4h55.5v190.1zM1736.1 329.7a102.9 102.9 0 01-50.4 13.3c-34.6 0-60.9-19.8-60.9-59.8v-89.7h-27v-38.2h27V102h55.1v53.3h52.6v38.5h-52.6v80c0 16.2 6.8 22.7 18.7 22.3 7.2 0 15.9-2.5 25.9-7.2zM1940.3 260.6h-139.1c6.5 24.5 25.2 38.9 50.1 38.9a68.718 68.718 0 0049-20.5l29.2 29.5c-19.5 21.6-47.9 34.2-82.9 34.2-62 0-101.2-39.6-101.2-98.4 0-59.8 40.7-99.4 99.8-99.4 68.1 0 99.8 45 95.1 115.7zm-51.8-32.8c-.7-25.6-17.3-42.1-42.9-42.1-24.5 0-41.1 16.6-45.4 42.1z" fill="#196bbb"/>
    <path d="M2014.2 315c0 16.6-11.5 28.8-27.7 28.8-15.8 0-27.7-12.2-27.7-28.8 0-16.9 11.9-28.5 27.7-28.5 16.1 0 27.7 11.5 27.7 28.5zM2216.3 185.6l-37.5 27c-10.4-13-25.2-20.9-44.3-20.5-27 0-46.1 20.9-46.1 51.9 0 31.3 19.1 52.6 46.1 52.6 19.8 0 35.3-7.6 45-22.7l38.2 25.9c-16.2 27-46.5 42.9-86.1 42.9-58.7 0-98.7-39.6-98.7-98.4 0-59.4 40-99.4 99.4-99.4 37.1 0 66.7 14.8 84 40.7zM2431 243.6c0 59.1-41.8 99.1-103.8 99.1-62.3 0-104.1-40-104.1-99.1 0-59.4 41.8-98.7 104.1-98.7 62 0 103.8 39.3 103.8 98.7zm-152 .7c0 31.7 19.5 53.3 48.3 53.3 28.5 0 48.3-21.6 48.3-53.3s-19.8-53.3-48.3-53.3c-28.9 0-48.3 21.6-48.3 53.3zM2788 218.8v121.7h-55.1V234.9c0-24.9-14.4-39.6-37.5-39.6-26.7.4-42.9 21.3-42.9 49.4v95.8h-55.1V234.9c0-24.9-14.4-39.6-37.1-39.6-27 .4-43.2 21.3-43.2 49.4v95.8h-55.5V146.7h55.5v33.5c13.7-23.8 36.4-35.3 65.6-35.7 32.8 0 56.2 16.6 65.6 44.7 12.6-29.9 37.1-44.3 69.9-44.7 42.8.1 69.8 28.9 69.8 74.3zM733.8 343.4l4-4 4-4c2.2-2.2-1.5-12.3-8.3-22.6l-17.4-26.4c-6.8-10.3-17.5-19.8-24-21.1-6.5-1.4-11.7-2.5-11.7-2.5l-52.5-52.5-19.1 19.1 52.4 52.5 2.5 11.7c1.4 6.4 10.8 17.2 21.1 24l26.5 17.4c10.2 6.8 20.3 10.6 22.5 8.4zM411.9 69.9l78 78 9.7 9.7a4.349 4.349 0 00.7.6l12.9-12.9-92-92a5.728 5.728 0 018.1-8.1l92 92 14.3-14.4-92-92a5.8 5.8 0 010-8.1 5.673 5.673 0 018 0l92 92 12.9-12.9c-.2-.2-.3-.5-.5-.7l-10.2-10.2-77.5-77.5a39.916 39.916 0 00-56.4 56.5z" fill="#ebb000"/>
    <path d="M743.7 76.7c-.9-12.3-11.8-14.7-20.5-6l-30.5 30.5a18.288 18.288 0 01-25.8 0l-19.7-19.7a18.409 18.409 0 010-25.9l31.5-31.5c8.7-8.7 6.5-20-5.7-21.4a80.635 80.635 0 00-88.8 94.7L415 266.5a47.2 47.2 0 1066.7 66.8l170.8-170.8a79.12 79.12 0 0023.3-.2 80.357 80.357 0 0067.9-85.6zM464.4 318.8a24.607 24.607 0 110-34.8 24.625 24.625 0 010 34.8z" fill="#ebb000"/>
  </g>
</svg>
