<svg xmlns="http://www.w3.org/2000/svg" viewBox="0 0 200 200"><path d="M131.959-67.5v31.977c-.815,1.062-2,.922-3.119.926-7.4.031-14.794,0-22.19.019-3.29.007-3.529.192-4.591,3.26-1.393,4.027-2.872,8.024-4.3,12.04-.111.314-.229.625-.359.932-.3.707-.713,1.318-1.574,1.321-.79,0-1.165-.612-1.438-1.217-1.125-2.492-1.88-5.123-2.831-7.681-.788-2.121-1.509-4.268-2.273-6.4a2.966,2.966,0,0,0-3.1-2.26c-10.528,0-21.057-.023-31.585.026-1.977.009-2.441.51-2.464,2.551-.06,5.461-.012,10.923-.025,16.384a23.416,23.416,0,0,1-.089,2.6c-.078.688-.233,1.4-1.015,1.543s-1.219-.442-1.528-1.052c-1.446-2.851-2.656-5.81-3.959-8.726-1.684-3.769-3.388-7.528-5.019-11.32a2.943,2.943,0,0,0-2.925-1.986c-8.4-.025-16.792-.007-25.188-.012-1.79,0-2.608,1.068-3.232,2.487C7.069-27.336,4.932-22.6,2.846-17.849-2.076-6.632-7.075,4.55-11.994,15.768c-2.486,5.67-5.07,11.3-7.508,16.988-.949,2.216-.632,2.707,1.822,2.722,6.131.036,12.262-.023,18.392.028,3.366.028,3.79.442,3.8,3.855.038,18.116.011,36.232.017,54.348,0,.932-.012,1.865.007,2.8.051,2.507.422,2.923,2.924,2.925q36.284.03,72.567.022A4.944,4.944,0,0,0,83.9,97.8c3.02-3.191,5.864-6.543,8.9-9.714,2.191-2.289,2.869-2.259,5.088-.076,2.992,2.943,5.621,6.22,8.467,9.3a6.467,6.467,0,0,0,5.292,2.175c5.729-.1,11.461-.052,17.192-.02,1.118.006,2.307-.137,3.123.926,0,9.993-.034,19.986.041,29.979.01,1.37-.271,1.638-1.64,1.637q-96.881-.065-193.761-.038H-68V-67.5a4.227,4.227,0,0,1,2.157-.191q97.823-.015,195.645,0A4.226,4.226,0,0,1,131.959-67.5Z" transform="translate(68 68)" fill="#006fce"/><path d="M131.959,100.384c-7.463,0-14.926-.028-22.389.028a3.422,3.422,0,0,1-2.9-1.3c-3.334-3.8-6.793-7.5-10.139-11.293-.851-.965-1.338-1.035-2.23-.023-3.345,3.8-6.824,7.472-10.159,11.276a3.65,3.65,0,0,1-3.077,1.332q-37.782-.05-75.564.018c-1.716,0-2.048-.485-2.043-2.1.057-19.914.013-39.828.079-59.742.006-1.741-.384-2.23-2.176-2.2-7.195.116-14.393.018-21.589.073-1.468.011-2.021-.038-1.257-1.756Q-6.286.541,8.744-33.69A2.664,2.664,0,0,1,11.7-35.558c9,.076,17.991.058,26.987.011a2.01,2.01,0,0,1,2.2,1.42c2.99,6.885,6.07,13.732,9.124,20.59.264.593.556,1.175.9,1.9.517-.61.314-1.216.315-1.747.018-6.794.051-13.588-.02-20.38-.015-1.386.337-1.792,1.758-1.785q17.391.087,34.783.006a1.736,1.736,0,0,1,1.981,1.4c1.935,5.629,3.969,11.224,6.126,17.271,1.6-4.454,3.053-8.5,4.522-12.549.723-1.991.946-4.729,2.378-5.739s4.1-.346,6.224-.35q11.493-.025,22.988-.007v8c-.752,1-1.858.917-2.918.923-5.664.033-11.329-.006-16.993.021-2.793.014-3.041.239-4.011,2.911-3.408,9.388-6.728,18.807-10.183,28.178-.138.374-.269.752-.441,1.114-.326.686-.724,1.354-1.575,1.34-.866-.014-1.215-.738-1.494-1.425C93.119,2.511,92.086-.587,91-3.662c-2.31-6.528-4.7-13.027-6.964-19.572-1.089-3.151-1.365-3.347-4.744-3.352-5.265-.008-10.53-.021-15.794.007-2.647.013-2.973.341-2.976,3.033q-.027,23.28-.01,46.559a29.882,29.882,0,0,1-.089,3.195c-.067.619-.224,1.245-.879,1.442-.771.233-1.231-.3-1.605-.889a38.332,38.332,0,0,1-2.456-5.241C48.8,6.279,42.005-8.916,35.343-24.167a3.513,3.513,0,0,0-3.651-2.441c-4.464.068-8.931.06-13.395,0a3.539,3.539,0,0,0-3.67,2.433C7.488-7.747.157,8.592-7.02,25c-.905,2.07-.683,2.467,1.573,2.487,3.265.03,6.531,0,9.8.01a3.026,3.026,0,0,0,3.19-2.168c.839-2.245,1.9-4.4,2.748-6.645A3.248,3.248,0,0,1,13.6,16.339q11.2-.073,22.39,0A3.063,3.063,0,0,1,39.071,18.4c.9,2.076,1.889,4.12,2.667,6.242A3.892,3.892,0,0,0,46.1,27.537a85.734,85.734,0,0,1,9.592,0c4.9.3,9.792-.211,14.691-.06,3.214.1,3.439-.2,3.443-3.36q.019-14.588.007-29.174c0-.933-.021-1.866.066-2.8.07-.741.143-1.584,1.043-1.719C75.81-9.7,76.2-9,76.5-8.289c1.051,2.522,1.92,5.111,2.857,7.675,3.064,8.38,6.175,16.742,9.224,25.127,1.005,2.764,1.321,2.964,4.2,2.98,2.2.012,4.4-.047,6.6.016a3.012,3.012,0,0,0,3.269-2.285c2.846-7.75,5.669-15.508,8.533-23.252,1.177-3.184,2.284-6.395,3.533-9.554.147-.371.286-.747.46-1.106.318-.655.607-1.464,1.531-1.269.781.165.863.926.93,1.6.093.93.073,1.863.074,2.8q.006,14.787,0,29.574c0,3.293.193,3.466,3.538,3.482,2.732.013,5.465-.017,8.2.018a2.845,2.845,0,0,1,2.52.921v7.994a5.488,5.488,0,0,1-3.789.929c-4.265.03-8.531.058-12.795-.01a5.659,5.659,0,0,0-4.657,2.112c-4.25,4.68-8.561,9.305-12.791,14.005-1.25,1.389-2.383,1.445-3.8.174-2.482-2.231-4.525-4.878-6.806-7.3-2.189-2.324-4.3-4.72-6.447-7.088a5.545,5.545,0,0,0-4.408-1.9c-20.181-.02-40.362.032-60.544.029-2.6,0-2.989.4-2.992,3.052q-.028,23.979,0,47.957c0,2.7.374,3.048,3.2,3.052,12.6.019,25.191-.055,37.785.031,7.187.049,14.375-.165,21.559.009a6.408,6.408,0,0,0,5.434-2.352c3.275-3.855,6.895-7.4,10.162-11.265a27.2,27.2,0,0,1,2.374-2.428c1.748-1.611,2.758-1.633,4.393.178,4.237,4.692,8.517,9.344,12.749,14.04a4.753,4.753,0,0,0,3.79,1.8c4.6-.007,9.2-.023,13.795.01a5.487,5.487,0,0,1,3.788.929Z" transform="translate(68 68)" fill="#fefefe"/><path d="M131.959,28.435c-4.465,0-8.932-.075-13.394.041-1.545.04-1.844-.434-1.837-1.888.061-11.988.035-23.976.035-36.09-.623.308-.655.841-.815,1.276-4.285,11.667-8.586,23.329-12.813,35.017a2.1,2.1,0,0,1-2.416,1.681c-3.328-.116-6.666-.12-9.994,0-1.407.051-1.928-.471-2.382-1.723C84.15,15.192,79.884,3.659,75.637-7.88a2.564,2.564,0,0,0-.955-1.363v2.048c0,11.258-.028,22.516.033,33.773.008,1.473-.341,1.906-1.865,1.894q-14.5-.111-28.991-.007a1.986,1.986,0,0,1-2.2-1.473c-1.086-2.786-2.34-5.507-3.422-8.294a1.967,1.967,0,0,0-2.178-1.487q-11.3.095-22.592,0a1.968,1.968,0,0,0-2.19,1.472c-1.1,2.855-2.329,5.656-3.465,8.495-.324.812-.677,1.293-1.7,1.281C.986,28.4-4.144,28.434-9.3,28.434c-.156-.925.4-1.563.7-2.253Q2.892.079,14.388-26.02a2.3,2.3,0,0,1,2.54-1.594q8.1.117,16.194,0a2.282,2.282,0,0,1,2.5,1.653Q46.948-.124,58.389,25.67a2.862,2.862,0,0,0,1.13,1.665V25.127c0-16.92.021-33.839-.034-50.759-.005-1.541.356-2.011,1.957-1.989,6.8.094,13.6.072,20.393.011A1.967,1.967,0,0,1,84.065-26C87.725-15.593,91.474-5.217,95.2,5.169c.172.479.363.952.561,1.47.728-.454.749-1.181.965-1.776,3.712-10.249,7.427-20.5,11.068-30.773a2.092,2.092,0,0,1,2.376-1.709c7.263.1,14.527.074,21.79.093Z" transform="translate(68 68)" fill="#006fce"/><path d="M131.959,92.39c-6.328.018-12.657.01-18.984.079a2.869,2.869,0,0,1-2.3-1.29c-4.545-5.042-9.168-10.016-13.631-15.129-1.289-1.477-1.932-1.266-3.113.066C89.43,81.2,84.788,86.153,80.26,91.21a3.507,3.507,0,0,1-2.924,1.26q-31.678-.052-63.356.013c-1.64,0-2.1-.371-2.092-2.057q.1-26.07.008-52.14c0-1.444.285-1.9,1.834-1.9q32.178.087,64.358.016a3.091,3.091,0,0,1,2.558,1.148c4.62,5.155,9.332,10.226,13.928,15.4.978,1.1,1.466,1.254,2.521.067,4.51-5.073,9.157-10.023,13.681-15.083a4.034,4.034,0,0,1,3.4-1.548c5.927.095,11.857.039,17.786.039v.4c-1.095,2.827-3.418,4.743-5.419,6.8-4.588,4.723-8.989,9.627-13.7,14.237-1.655,1.621-3.019,3.541-4.747,5.107-1.087.985-1,1.864,0,2.868,2.392,2.4,4.68,4.909,7.029,7.348,3.6,3.736,7.153,7.519,10.7,11.3,2.193,2.337,4.866,4.375,6.135,7.5Z" transform="translate(68 68)" fill="#006fce"/><path d="M131.959,91.99c-3.261-2.619-5.842-5.909-8.726-8.9-5.5-5.693-10.858-11.515-16.334-17.228-1.019-1.064-1.347-1.711-.133-2.963,8.147-8.4,16.2-16.892,24.3-25.347a8.645,8.645,0,0,1,.9-.726V48.421a11.493,11.493,0,0,1-2.881,3.98c-3.312,3.252-6.259,6.854-9.636,10.05-1.539,1.457-1.46,1.975-.1,3.477q5.412,5.963,11,11.759a15.651,15.651,0,0,1,1.615,2.711Z" transform="translate(68 68)" fill="#fefefe"/><path d="M131.959,80.4c-3.156-2.535-5.6-5.771-8.429-8.625-2.1-2.119-4.1-4.338-6.142-6.519-.384-.411-1.007-.76-.332-1.456,4.971-5.122,9.609-10.568,14.9-15.377Z" transform="translate(68 68)" fill="#006fce"/><path d="M131.959-67.5H-68c.36-.827,1.081-.374,1.6-.375,9.931-.034,19.862-.025,29.794-.025q83.382,0,166.766.025C130.745-67.873,131.516-68.334,131.959-67.5Z" transform="translate(68 68)" fill="#5194da"/><path d="M24.745-13.5C27.006-8.083,29.07-3.157,31.117,1.776c1.208,2.911,1.2,2.916-2.007,2.916-3.387,0-6.775-.025-10.161.014-1.2.013-1.739-.128-1.135-1.539C20.105-2.189,22.3-7.588,24.745-13.5Z" transform="translate(68 68)" fill="#fdfefe"/><path d="M59.574,36.627C65.2,42.583,70.444,48.139,75.688,53.7q4.588,4.865,9.17,9.736c.5.527,1.128.907.311,1.768C76.75,74.084,68.363,83,59.574,92.317V83.4a14.743,14.743,0,0,1,.015-2c.213-1.538-.327-2.015-1.931-2-9.459.078-18.919,0-28.377.074-1.583.012-2.331-.268-2.125-2.029.251-2.156-.914-5.067.451-6.3,1.192-1.073,4.046-.335,6.165-.339,7.728-.015,15.455-.05,23.182.032,1.5.016,1.92-.369,1.857-1.865-.125-2.991-.149-6,.007-8.985.088-1.694-.572-1.929-2.043-1.919-9.192.058-18.386-.018-27.578.072-1.689.016-2.2-.441-2.049-2.093a28.157,28.157,0,0,0,0-4.789c-.109-1.408.362-1.775,1.76-1.766,9.326.062,18.652.045,27.978.026,3.111-.007,2.651.4,2.677-2.6C59.6,43.679,59.574,40.43,59.574,36.627Z" transform="translate(68 68)" fill="#fefefe"/></svg>