<svg xmlns="http://www.w3.org/2000/svg" viewBox="0 0 280.7 43.902"><path d="M207.023,35.855a.693.693,0,0,1-.678.75,54,54,0,0,1-7.2-.036.879.879,0,0,1-.712-.963c0-1.283.143-5.489.143-6.772,0-1-.107-4.277-.107-5.276,0-2.174-.927-3.243-2.816-3.243-1.141,0-3.493,1.319-3.493,2.6V35.749a.793.793,0,0,1-.75.892,57.591,57.591,0,0,1-7.021-.036.758.758,0,0,1-.749-.784l.036-11.192a37.211,37.211,0,0,0-.927-9.3c-.072-.321-.107-.784.32-.89,1-.108,2.317-.286,3.993-.536,2.53-.5,3.92-.748,4.241-.748.464,0,.357,3.208.819,3.208.179,0,.678-.534,2.567-1.639a10.094,10.094,0,0,1,4.92-1.64c3.849,0,7.306,1.888,7.306,5.987,0,4.563,0,7.379.036,12.227,0,2.068.036,3.6.036,4.634l.036-.073Zm15.826-18.534a1.167,1.167,0,0,1-.357.641c-1.925-.5-4.848.107-4.848,2.459,0,2.068,4.67,3.887,4.67,8.592a6.805,6.805,0,0,1-1.853,4.74c-2.353,2-5.775,3.671-8.8,3.671-.749,0-3.779-5.062-3.779-5.739,0-.142.107-.214.25-.249,1.1-.214,2.246-.428,3.35-.606,1.391-.464,2.1-1.176,2.1-2.21A3.876,3.876,0,0,0,212.37,26.2c-1.461-1.6-2.211-2.46-2.281-2.566-4.1-6.1,2.887-11.906,9.339-11.906.606,0,3.386,5.1,3.386,5.561l.035.036Zm18.5,12.261c0,.749-.356,3.529-.356,4.278,0,.927-.107.962-.927,1.426a14.068,14.068,0,0,1-6.808,1.675c-4.6,0-6.879-1.747-6.879-5.276,0-1.745.249-7.662.249-9.445,0-1.888-2.744-.32-2.744-1.675,0-.428.107-1.925.107-2.317,0-.571-.107-2.5-.107-3.03,0-.321.5-.5,1.533-.535.57,0,.89-.178.926-.463a15.654,15.654,0,0,0,.107-2.851c-.071-2.032-.107-2.816-.107-2.923,0-1.854.179-2.745.535-2.745.677,0,3.136.57,3.707.641.819.107,2.031.286,3.671.464.393.036.606.178.606.392,0,1.069-.321,4.705-.321,5.775,0,.784.215,1.176.678,1.176.926,0,4.1-.143,5.062-.143.356,0,.534.107.534.357,0,.712-.25,2.566-.25,3.279l.036,3.315c0,.321-.214.5-.678.5-1.639-.036-3.313-.072-4.954-.072-.25,0-.356.357-.356,1.034l.036,3.386c0,2.5.319,3.779,2.958,3.779,1.5,0,3.742-1.211,3.742-.035v.034Zm14.721-7.414c0-3.137-3.884-5.168-6.023-2.459a4.3,4.3,0,0,0-.892,2.744c0,.428.214.642.678.642a43.14,43.14,0,0,0,5.489-.535c.535-.072.785-.213.785-.392Zm8.341,1.462c0,1.6-.534,2.53-1.568,2.744q-.267.054-4.919.535c-1.889.214-4.669.463-8.376.749.677,3.243,6.059,3.849,9.409,1.889.606-.392,1.213-.749,1.819-1.142.713.358,2.851,4.456,2.851,5.2,0,.107-.106.285-.356.535-1.925,2.067-4.919,3.1-9.018,3.1-7.486,0-12.69-4.741-12.69-12.263,0-7.2,4.563-12.582,11.906-12.582a10.335,10.335,0,0,1,7.77,3.351,10.984,10.984,0,0,1,3.208,7.912Zm16.111-1.889c0,1.211-1.353.926-2.352.856-1.461-.108-3.207-.108-3.992.569a3.3,3.3,0,0,0-.713,2.5c0,1.142.072,5.063.072,6.2,0,.749.178,3.351.178,4.1,0,.392-.25.606-.784.641a52.877,52.877,0,0,1-7.128-.035c-.535-.071-.784-.321-.784-.785l.034-11.406a34.431,34.431,0,0,0-1.033-9.2c-.072-.321-.107-.749.321-.82.891-.107,2.138-.285,3.85-.535,2.494-.5,3.813-.748,3.884-.748.714,0,.428,2.994.963,2.994.214,0,.427-.428,1.961-1.247a9.334,9.334,0,0,1,4.383-1.248c.891,0,1.319.178,1.319.57a16.125,16.125,0,0,1-.143,1.961,43.435,43.435,0,0,0-.107,5.632ZM143.9,35.678a.821.821,0,0,1-.713.926,52.823,52.823,0,0,1-7.128-.035c-.463-.107-.712-.5-.712-1.177,0-1.247.142-5.311.142-6.523,0-2.78-.036-4.74-.107-5.917-.107-1.889-1-2.815-2.673-2.815a3.863,3.863,0,0,0-3.458,3.029c-.071.677-.107,2.6-.107,5.847,0,1.247.143,5.524.143,6.808,0,.534-.214.784-.677.784h-7.2c-.427,0-.677-.321-.677-.963,0-1.283.143-5.453.143-6.736,0-1-.107-4.349-.107-5.348,0-5.845-6.2-2.851-6.2-.748l.035,12.9c0,.819-.071.855-.891.926a48.217,48.217,0,0,1-6.772-.035c-.784-.072-.784-.072-.784-.891l.035-11.406a73.457,73.457,0,0,0-.57-8.769c-.071-.392-.142-.82.285-.962a32.1,32.1,0,0,1,4.1-.571,27.008,27.008,0,0,1,3.743-.82c.713,0,.356,3.351.677,3.315.963-.25,3.208-3.493,7.878-3.493,2.78,0,5.631,1.319,6.38,4.028a10.49,10.49,0,0,1,7.771-4.028c3.991,0,7.342,1.96,7.342,6.131,0,1.426-.142,6.166-.142,7.592,0,1.676.142,7.343.142,9.018Z" fill="#0d82df"/><path d="M16.254,24.77c0-2.388-1.568-4.741-4.17-4.741-3.886,0-5.526,5.1-3.1,8.056s7.272,1.319,7.272-3.315m26.02.214c0-4.6-5.026-6.381-7.342-3.315-1.925,2.566-1.177,8.127,3.136,8.127,2.781,0,4.206-1.6,4.206-4.812m8.805.036c0,6.665-4.278,11.9-11.122,11.9a13.689,13.689,0,0,1-5.809-1.818c-.215,0-.321.249-.321.713,0,1.426.249,5.881.249,7.307,0,.5-.249.748-.784.748-1.212,0-6.1.107-6.951-.106a.829.829,0,0,1-.713-.891l.036-18.322a45.825,45.825,0,0,0-.82-9.339c-.071-.32-.107-.748.25-.891a34.849,34.849,0,0,1,7.235-1.176c1.462,0,.927,2.459,1.391,2.459-.178,0,.534-.427,2.032-1.283a8.585,8.585,0,0,1,4.134-1.283c7.022,0,11.228,5.026,11.228,11.941Zm18.178,4.491c0,1.034-.356,3.279-.356,4.277,0,.856-.072.962-.927,1.426a14.06,14.06,0,0,1-6.808,1.676c-4.6,0-6.879-1.747-6.879-5.276,0-1.818.249-7.628.249-9.445,0-1.925-2.744-.286-2.744-1.675,0-.428.106-1.926.106-2.318,0-.57-.106-2.495-.106-3.03,0-.32.5-.5,1.532-.534.57,0,.891-.178.927-.463a15.759,15.759,0,0,0,.107-2.852c-.071-2.032-.107-3.03-.107-2.923,0-1.853.178-2.744.535-2.744.855,0,2.816.534,3.707.641.819.107,2.031.285,3.671.464.392.035.606.178.606.392,0,1.212-.321,4.562-.321,5.774,0,.784.214,1.176.677,1.176.927,0,4.1-.142,5.062-.142.356,0,.534.106.534.356,0,.713-.249,2.566-.249,3.28l.036,3.315c0,.32-.214.5-.677.5-1.711-.035-3.244-.071-4.955-.071-.25,0-.357.357-.357,1.034l.036,3.386c0,2.5.357,3.779,2.958,3.779,1.676,0,3.743-1.249,3.743-.037v.036Zm9.232-3.957c0,1.961.142,8.377.142,10.337,0,.321-.213.535-.606.607a45.7,45.7,0,0,1-7.306,0q-.535-.108-.642-.321c-.107-.214.107-9.766.107-10.622a85.4,85.4,0,0,0-.535-10.765c-.143-1.176.143-1.1,2.638-.82,3.208.321,3.743-.107,6.2-.107.677,0,.57.428.535.927a95.205,95.205,0,0,0-.535,10.764M79.1,7.875c0,2.744-1.568,4.135-4.669,4.135-4.92,0-6.025-4.92-3.244-7.165C74.105,2.492,79.1,4.1,79.1,7.875m25.522,27.909a.691.691,0,0,1-.678.748,54,54,0,0,1-7.2-.034.881.881,0,0,1-.713-.963c0-1.283.143-5.489.143-6.772,0-1-.107-4.278-.107-5.276,0-2.174-.927-3.243-2.816-3.243-1.212,0-3.493,1.354-3.493,2.6V35.678a.791.791,0,0,1-.749.891,51.364,51.364,0,0,1-7.022-.036.757.757,0,0,1-.748-.784l.035-11.192a37.208,37.208,0,0,0-.927-9.3c-.071-.356-.071-.784.321-.891,1-.107,2.317-.285,3.993-.535,2.53-.5,3.92-.748,4.241-.748.463,0,.357,3.208.82,3.208-.178,0,.677-.535,2.566-1.64a10.094,10.094,0,0,1,4.92-1.639c3.849,0,7.307,1.889,7.307,5.988,0,4.562,0,7.378.035,12.226,0,2.067.036,3.6.036,4.633l.036-.072ZM24.025,24.77c0,7.236-4.777,12.19-12.048,12.19C4.99,36.96,0,32.077,0,25.056c0-7.272,4.527-12.4,11.977-12.4,7.2,0,12.048,4.919,12.048,12.119" fill="#84c51e"/><path d="M164.036,36.39c15.149,0,27.446,1.319,27.446,2.959s-12.3,2.959-27.446,2.959-27.446-1.319-27.446-2.959,12.3-2.959,27.446-2.959" fill-opacity="0.141"/><path d="M180.539,12.865c.357-.214.428-1.533.464-1.925a1.261,1.261,0,0,1,1.925-.819A5.94,5.94,0,0,1,185,14.184c.178,1.5.036,3.493-1.033,4.669-1.141,1.284-4.028,1.676-5.739,1.5-.463-.035-.891-.142-1.319-.213l-.82-7.343.892.178a6.573,6.573,0,0,0,3.529-.107Z" fill="#996"/><path d="M183.319,11.439a2.97,2.97,0,0,0-.748-.748.564.564,0,0,0-.856.321l-.035.249a2.381,2.381,0,0,1,1.639.178m1,5.026a7.32,7.32,0,0,0-.285-3.6,2.5,2.5,0,0,0-1.106-.855c-.677-.286-1.033-.178-1.353.107a3.485,3.485,0,0,1-.179.712,4.74,4.74,0,0,1,2.923,3.672v-.036ZM178.9,13.827a9.792,9.792,0,0,1-2-.213l.641,5.916a8.811,8.811,0,0,0,2.744.072c.642-2.281,0-4.954-1.425-5.81Zm2-.392a3.206,3.206,0,0,1-1.033.321,6.618,6.618,0,0,1,1.21,5.739A4.658,4.658,0,0,0,183.5,18.39c.107-.107.178-.25.286-.357,0-2.031-.82-4.206-2.781-4.633-.036.035-.036.035-.072.035Z" fill="#c0c0a0"/><path d="M180.539,17.285a7.467,7.467,0,0,1-2.46.178,5.1,5.1,0,0,1-.784-.143l-.427-3.671a9.725,9.725,0,0,0,2,.214,4.386,4.386,0,0,1,1.64,3.422Zm2.6-5.169c.034.214.07.428.106.642a6.306,6.306,0,0,1,.036,1.426,4.192,4.192,0,0,0-1.889-1.355,3.5,3.5,0,0,0,.178-.713,1.162,1.162,0,0,1,1.354-.106l.215.106m-.535-1.39a3.712,3.712,0,0,1,.249.535,2.309,2.309,0,0,0-1.212-.035l.036-.25a.563.563,0,0,1,.855-.321l.072.035v.036ZM180.9,13.435a3.212,3.212,0,0,1-1.034.321,5.7,5.7,0,0,1,1.354,3.315,2.8,2.8,0,0,0,1.248-.784c.286-.285-.464-2.673-1.5-2.887-.036.035-.036.035-.071.035" fill="#fbfac4"/><path d="M147.1,12.865c-.357-.214-.428-1.533-.464-1.925a1.261,1.261,0,0,0-1.925-.819,5.94,5.94,0,0,0-2.067,4.063c-.178,1.5-.036,3.493,1.034,4.669,1.14,1.284,4.027,1.676,5.738,1.5.464-.035.892-.142,1.319-.213l.82-7.343-.892.178a6.57,6.57,0,0,1-3.528-.107Z" fill="#996"/><path d="M144.325,11.439a2.986,2.986,0,0,1,.748-.748.564.564,0,0,1,.856.321l.035.249a2.381,2.381,0,0,0-1.639.178m-1,5.026a7.321,7.321,0,0,1,.286-3.6,2.494,2.494,0,0,1,1.105-.855c.677-.286,1.034-.178,1.353.107a3.551,3.551,0,0,0,.179.712,4.74,4.74,0,0,0-2.923,3.672v-.036Zm5.419-2.638a9.79,9.79,0,0,0,2-.213L150.1,19.53a8.811,8.811,0,0,1-2.744.072c-.642-2.281,0-4.954,1.425-5.81Zm-2-.392a3.212,3.212,0,0,0,1.034.321,6.616,6.616,0,0,0-1.211,5.739,4.666,4.666,0,0,1-2.424-1.105c-.107-.107-.178-.25-.286-.357,0-2.031.82-4.206,2.781-4.633.035.035.035.035.072.035Z" fill="#c0c0a0"/><path d="M147.1,17.285a7.468,7.468,0,0,0,2.46.178,5.082,5.082,0,0,0,.784-.143l.427-3.671a9.725,9.725,0,0,1-2,.214,4.389,4.389,0,0,0-1.64,3.422Zm-2.6-5.169c-.034.214-.07.428-.106.642a6.251,6.251,0,0,0-.035,1.426,4.183,4.183,0,0,1,1.888-1.355,3.565,3.565,0,0,1-.178-.713,1.162,1.162,0,0,0-1.354-.106l-.215.106m.536-1.39a3.615,3.615,0,0,0-.25.535A2.309,2.309,0,0,1,146,11.226l-.036-.25a.563.563,0,0,0-.855-.321l-.072.035v.036h0Zm1.711,2.709a3.2,3.2,0,0,0,1.033.321,5.7,5.7,0,0,0-1.354,3.315,2.79,2.79,0,0,1-1.248-.784c-.285-.285.464-2.673,1.5-2.887.036.035.036.035.072.035" fill="#fbfac4"/><path d="M151.061,11.439a15.836,15.836,0,0,0-3.672.321l1.07-1.034A15.044,15.044,0,0,1,152.2,8.2a18.341,18.341,0,0,1,6.45-1.96,29.992,29.992,0,0,0-5.025-1.39c6.452-1.354,14.721-1.854,20.638,3.172,3.387,2.888,5.24,8.234,5.24,13.082,0,18.286-31.153,18.286-31.153,0a14.662,14.662,0,0,1,1.747-6.951,8.7,8.7,0,0,0-1.249.428l-1.888.784,1.353-1.533a11.013,11.013,0,0,1,2.817-2.316l-.072-.072Z" fill="#8ed41e"/><path d="M165.034,5.807a15.491,15.491,0,0,1,8.447,3.458c2.994,2.53,4.6,7.236,4.6,11.477,0,7.77-6.416,11.8-13.045,12.012V5.807Z" fill="#70a91b"/><path d="M153.556,9.764c2.353-1.569,6.2-2.068,10.837-1.818a7.629,7.629,0,0,0-2.673-2.1c2.1-.071,3.777.392,7.948,1.818a20.137,20.137,0,0,0-12.154-2.6,14.881,14.881,0,0,1,4.241,2A16.853,16.853,0,0,0,150.669,10.3a6.812,6.812,0,0,1,3.637.641,9.718,9.718,0,0,0-3.886,2.175,21.34,21.34,0,0,1,5.667-2.21,18.514,18.514,0,0,0-2.531-1.141" fill="#a1e141"/><path d="M163.893,5.451a7.615,7.615,0,0,1,7.735,7.521,7.738,7.738,0,0,1-15.469,0,7.638,7.638,0,0,1,7.734-7.521" fill="#70a91b"/><path d="M151.632,19.994c.249-.464,23.7-.642,24.167,0,.819,1.069.356,2.1,0,2.994H151.632a3.953,3.953,0,0,1,0-2.994" fill="#70a91b"/><path d="M151.953,20.671c.249-.606,23.1-.856,23.56,0,.784,1.461.321,2.887,0,4.1h-23.56a7.607,7.607,0,0,1,0-4.1" fill="#4b7113"/><path d="M170.951,5.13c-.321-6.095-8.519-6.737-10.658-1.96,3.779-2.068,7.628-1.319,10.658,1.96" fill="#70a91b"/><path d="M166.388.069a5.619,5.619,0,0,0-6.059,3.065,8.86,8.86,0,0,1,4.278-1.141A4.425,4.425,0,0,1,166.425.069Z" fill="#85c51f"/><path d="M163.893,4.667a6.951,6.951,0,1,1-6.95,6.95,6.937,6.937,0,0,1,6.95-6.95" fill="#d3e8ef"/><path d="M159.509,6.449c2.317-1.925,5.561-1.925,7.2.071,1.64,1.961,1.07,5.133-1.247,7.094-2.318,1.924-5.561,1.924-7.2-.072-1.639-1.96-1.068-5.132,1.248-7.093" fill="#fff"/><path d="M164.071,9.265a4.717,4.717,0,0,1,4.884,4.562,4.895,4.895,0,0,1-9.767,0,4.717,4.717,0,0,1,4.883-4.562" fill="#0d82df"/><path d="M164.071,9.265a5.037,5.037,0,0,1,3.387,1.283,6.464,6.464,0,0,1-2,3.066,5.488,5.488,0,0,1-6.237.784,2.858,2.858,0,0,1-.036-.571,4.717,4.717,0,0,1,4.883-4.562" fill="#0399ed"/><path d="M164.071,10.905a3.055,3.055,0,0,1,3.137,2.922,3.144,3.144,0,0,1-6.273,0,3.032,3.032,0,0,1,3.136-2.922" fill="#232323"/><path d="M164.071,10.905a3.256,3.256,0,0,1,2.638,1.318,5.6,5.6,0,0,1-1.248,1.355A6.012,6.012,0,0,1,161.219,15a2.757,2.757,0,0,1-.284-1.212,3.032,3.032,0,0,1,3.136-2.923v.036Z" fill="#323232"/><path d="M161.327,9.514a2.239,2.239,0,0,1,2.316,2.175,2.321,2.321,0,0,1-4.633,0,2.24,2.24,0,0,1,2.317-2.175" fill="#fff"/><path d="M147.675,22.382a114.211,114.211,0,0,1,32.33,0c.784,5.632.356,10.979,0,16.36-10.764.428-21.565.5-32.33,0a66.145,66.145,0,0,1,0-16.36" fill="#9caeb3"/><path d="M150.776,37.638c8.733.32,17.431.285,26.163,0a42.633,42.633,0,0,0-9.8-4.455,25.159,25.159,0,0,1-3.564,1.318.6.6,0,0,1-.357,0,29.738,29.738,0,0,1-2.959-1.14,38.232,38.232,0,0,0-9.517,4.313l.036-.036Zm-2.067-13.4a60.647,60.647,0,0,0,.071,12.975A43.3,43.3,0,0,1,158.8,32.577c-4.064-2.139-6.915-5.2-10.087-8.342m29.37-.855a114.465,114.465,0,0,0-28.586,0c3.921,4.384,8.235,7.985,13.973,9.873,6.095-1.746,10.3-5.56,14.613-9.873m.821,13.83a74.755,74.755,0,0,0,.107-12.939,45.94,45.94,0,0,1-10.623,8.305,52.41,52.41,0,0,1,10.552,4.634Z" fill="#d3e8ef"/><path d="M150.776,37.638c4.206.143,8.411.214,12.654.214V34.5a.471.471,0,0,1-.178-.036,29.347,29.347,0,0,1-2.959-1.14,38.249,38.249,0,0,0-9.517,4.313m-2.067-13.4a60.647,60.647,0,0,0,.071,12.975A43.3,43.3,0,0,1,158.8,32.577c-4.064-2.139-6.915-5.2-10.087-8.342m14.721-1.746a107.042,107.042,0,0,0-13.937.892c3.886,4.383,8.235,7.948,13.937,9.872Z" fill="#fff"/><path d="M157.37,25.056a2.179,2.179,0,0,1-.177.428,1.285,1.285,0,0,1-.392.569,1.45,1.45,0,0,1-1.427.036,4.48,4.48,0,0,1-2.174-2.46,4.517,4.517,0,0,1-.25-3.208,189.5,189.5,0,0,1,21.565-.036v.036h.108a6.07,6.07,0,0,1-.285,2.71A4.761,4.761,0,0,1,172.2,26.2a1.254,1.254,0,0,1-1.319.036,1.725,1.725,0,0,1-.428-.57,3.871,3.871,0,0,1-.391-1.39.9.9,0,0,1-.607.534,10.337,10.337,0,0,1-1.461.214c-.463.036-.961.072-1.462.072a8.2,8.2,0,0,1-2.28-.285,1.194,1.194,0,0,1-.713.961,7.24,7.24,0,0,1-1.533.251c-.534.035-1.069.071-1.568.071a6.538,6.538,0,0,1-2.5-.392.957.957,0,0,1-.57-.606v-.035Z" fill="#996"/><path d="M169.454,20.172c.285,1.6.213,3.671-.25,3.778a11.476,11.476,0,0,1-4.812-.035,10.5,10.5,0,0,1-.321-3.778c1.854,0,3.707,0,5.383.035m-11.514.321c-.249.749-.5,1.6-.748,2.638-.143.642-.25,1.283-.357,1.746-.142.641-.463.749-1.069.5-1.569-.677-2.388-3.314-2.317-4.919,1.069-.071,2.674-.142,4.491-.214,1.747-.035,3.707-.071,5.668-.071.177,1.96.177,4.313-.25,4.812-.749.25-3.671.607-5.1-.035-.641-.285-.392-2.673-.356-4.42l.036-.036Zm11.8-.321c.213.856.463,1.747.712,2.887.143.713.215,1.391.321,1.854.143.712.428.82,1,.535,1.391-.714,2.175-3.352,2.139-5.1-1.033-.071-2.5-.142-4.17-.178" fill="#c0c0a0"/><path d="M164.071,21.135c1.675,0,3.352,0,4.884.035.249.891.249,2.495-.82,2.887a9.955,9.955,0,0,1-3.743-.214,7.653,7.653,0,0,1-.321-2.708m-6.166.106c1.532-.035,3.279-.071,5.026-.071.177,1.283.5,3.85-1.105,3.992a8.323,8.323,0,0,1-3.565-.285c-.534-.249-.463-2.031-.392-3.6Zm-4.384.214c.748-.071,1.746-.107,2.922-.142a29.891,29.891,0,0,1,.428,3.528c-.143.642-.464.749-1.07.5-1.247-.535-2.032-2.318-2.246-3.85l-.034-.036Zm17.251,3.458c.143.713.428.82,1,.535,1.142-.571,1.854-2.425,2.068-4.028-.677-.072-1.5-.107-2.46-.143-.57.428-.677,3.386-.606,3.636" fill="#fbfac4"/><path d="M161.006,21.206a7.65,7.65,0,0,1-.178,2.887,2.519,2.519,0,0,1-2.316-.036c-.251-.177-.215-1.533-.179-2.816.855-.035,1.747-.035,2.709-.071l-.036.036ZM167,21.17a4.93,4.93,0,0,1-.179,2.067,2.791,2.791,0,0,1-2.21-.035c-.214-.143-.214-1.106-.178-2.067H167v.035Zm-11.264.178c-.036.392-.036.856-.036,1.319v1.426c0,.535-.142.641-.428.392a5.6,5.6,0,0,1-1.283-3.03c.5-.036,1.1-.071,1.747-.107m17.679.036c-.464-.036-1-.071-1.6-.071,0,.392.036.819.036,1.283v1.533c0,.57.107.677.392.427a6.535,6.535,0,0,0,1.176-3.172" fill="#fff"/><path d="M149.814,37.924a3.887,3.887,0,0,1-3.956,2.886c-2.46-.107-6.274-2.816-6.2-5.489a5.179,5.179,0,0,1,2.281-3.707c1.1-.857,2.958-1.747,4.385-1.355s2.423,2.353,2.886,3.635a7.838,7.838,0,0,1,.57,4.03Zm28.088,0a7.849,7.849,0,0,1,.57-4.03c.464-1.282,1.462-3.243,2.887-3.635s3.28.5,4.385,1.355a5.182,5.182,0,0,1,2.281,3.707c.071,2.673-3.743,5.382-6.2,5.489a3.887,3.887,0,0,1-3.957-2.886Zm-.035,0h0Z" fill="#85c51f"/><path d="M149.208,37.744a3.9,3.9,0,0,0,.072-.677c-.463-1.96-1.569-4.206-2.816-4.562-1.925-.571-5.81,2-5.6,4.634a7.293,7.293,0,0,0,4.991,3.065,3.277,3.277,0,0,0,3.351-2.424v-.036Zm29.229,0a3.9,3.9,0,0,1-.073-.677c.465-1.96,1.569-4.206,2.817-4.562,1.925-.571,5.81,2,5.6,4.634a7.291,7.291,0,0,1-4.99,3.065,3.277,3.277,0,0,1-3.351-2.424v-.036Z" fill="#70a91b"/><path d="M148.531,38.243c.249-.605-.107-1.674-.82-1.568-.748.143-2.531,1.426-2.459,2.139.035.571,1.033,1.07,1.818.784A3.013,3.013,0,0,0,148.531,38.243Zm30.618,0c-.249-.605.107-1.674.821-1.568.748.143,2.53,1.426,2.459,2.139-.036.571-1.033,1.07-1.818.784a3.019,3.019,0,0,1-1.462-1.355Zm-31.723-2.5c.5-1-.32-2.744-1.568-2.6-1.319.178-4.171,2.139-4.171,3.672,0,.963,1.319,1.64,2.709,1.248a6.092,6.092,0,0,0,3.03-2.318Zm32.829,0c-.5-1,.32-2.744,1.568-2.6,1.319.178,4.17,2.139,4.17,3.672,0,.963-1.319,1.64-2.709,1.248a6.09,6.09,0,0,1-3.029-2.318Z" fill="#5d8d17"/><path d="M141.224,34.074a.82.82,0,0,1-.784,1.069c-.57-.428-1.1-1.426-.891-1.675.213-.285,1.176,0,1.675.606Zm45.2,0a.82.82,0,0,0,.784,1.069c.57-.428,1.1-1.426.891-1.675-.213-.285-1.176,0-1.675.606Zm-43.379-1.783c.141.712-.82,1.319-1.284,1-.605-.606-.819-1.675-.535-1.924S142.543,31.507,143.042,32.291Zm41.561,0c-.142.712.82,1.319,1.284,1,.6-.606.819-1.675.535-1.924S185.1,31.507,184.6,32.291Zm-39.137-1.176c.035.642-1.213,1.211-1.712.749-.428-.821-.319-1.818.036-2.032.392-.214,1.355.178,1.676,1.283Zm36.714,0c-.037.642,1.212,1.211,1.711.749.428-.821.32-1.818-.036-2.032-.392-.214-1.355.178-1.675,1.283Zm-33.358-6.651c-.165-.076-.255-.245-.29-.548-.073-.571.106-1.462.784-1.6a1.661,1.661,0,0,1,1.711,1.1l.035.036c.06.479-.533.757-1.145.919a1.63,1.63,0,0,1,1,1.078c.064.55-.638.866-1.3,1.026.513.235.955.547.73.969h.036a2.231,2.231,0,0,1-2.139.748c-.677-.214-.535-1.033-.249-1.567a.686.686,0,0,1,.43-.435,1.508,1.508,0,0,1-.038-.207,1.866,1.866,0,0,1,.433-1.518Zm28.928-.088c-.62-.161-1.228-.44-1.167-.925l.036-.036a1.659,1.659,0,0,1,1.71-1.1c.678.142.857,1.033.784,1.6-.033.289-.116.456-.267.536a1.854,1.854,0,0,1,.446,1.53,1.312,1.312,0,0,1-.041.217.712.712,0,0,1,.4.425c.286.534.428,1.353-.249,1.567a2.232,2.232,0,0,1-2.139-.748h.035c-.226-.426.225-.739.743-.975-.657-.162-1.341-.476-1.277-1.02A1.623,1.623,0,0,1,177.75,24.376Zm-.454,3.067h0Zm-31.83-5.31c.106.464,1,.356,1.675.214.677-.178.927-.321.784-.784-.107-.464-.535-1.105-1.211-.927s-1.354,1.034-1.248,1.533Zm36.749,0c-.107.464-1,.356-1.676.214-.676-.178-.926-.321-.784-.784.108-.464.534-1.105,1.211-.927s1.355,1.034,1.249,1.533v-.036Z" fill="#2c440c"/><path d="M144.9,27.916l.173.49-.464-.356a2.2,2.2,0,0,1-.534-.714,4.065,4.065,0,0,0,.142.714,4.883,4.883,0,0,1-.892-3.921,3.742,3.742,0,0,1,2.852-2.424,5.471,5.471,0,0,1,2-.214,2.124,2.124,0,0,1,1.355.5,3.857,3.857,0,0,1,.5,1.6,8.925,8.925,0,0,1-.034,2.388,5.145,5.145,0,0,1-.678,1.961,2.342,2.342,0,0,1-1.033.927,2.518,2.518,0,0,1-1.534.142,3.62,3.62,0,0,1-1.847-1.1l-.041-.116-.036.036C144.849,27.863,144.875,27.89,144.9,27.916Zm37.843,0a3.62,3.62,0,0,1-1.847,1.1,2.514,2.514,0,0,1-1.533-.142,2.339,2.339,0,0,1-1.034-.927,5.127,5.127,0,0,1-.677-1.961,8.925,8.925,0,0,1-.035-2.388,3.843,3.843,0,0,1,.5-1.6,2.123,2.123,0,0,1,1.354-.5,5.471,5.471,0,0,1,2,.214,3.742,3.742,0,0,1,2.852,2.424,4.883,4.883,0,0,1-.892,3.921,4.065,4.065,0,0,0,.142-.714,2.183,2.183,0,0,1-.534.714l-.464.356.173-.49c.027-.026.052-.053.078-.08l-.036-.036-.042.116Z" fill="#85c51f"/><path d="M149.173,22.489c.428.5.642,2.6.142,4.135a2.08,2.08,0,0,1-.5.072,2.834,2.834,0,0,1-2.033-.713,1.127,1.127,0,0,0,.179.463,2.36,2.36,0,0,1-1.034-1.318,4.622,4.622,0,0,0,.178,1,2.7,2.7,0,0,1-1.284-1.426,1.437,1.437,0,0,1,.25-1.747c1.319-.962,3.565-1.034,4.063-.427l.037-.038Zm29.3,0c-.427.5-.642,2.6-.142,4.135a2.073,2.073,0,0,0,.5.072,2.834,2.834,0,0,0,2.033-.713,1.155,1.155,0,0,1-.179.463,2.355,2.355,0,0,0,1.033-1.318,4.571,4.571,0,0,1-.177,1,2.7,2.7,0,0,0,1.284-1.426,1.438,1.438,0,0,0-.25-1.747c-1.319-.962-3.565-1.034-4.063-.427l-.037-.038Z" fill="#a1e141"/></svg>