<svg xmlns="http://www.w3.org/2000/svg" viewBox="0 0 30.7 14.4"><path d="M32,11.3s-8.8,6.2-24.9,9H32Z" transform="translate(-1.3 -5.9)" fill="#ef7622"/><path d="M2.6,6.1H1.3v4.7H2.6a2.4,2.4,0,0,0,1.7-.5A2.3,2.3,0,0,0,2.6,6.1ZM3.7,9.6a1.7,1.7,0,0,1-1.3.4H2.2V6.9h.2a1.7,1.7,0,0,1,1.3.4,1.6,1.6,0,0,1,.5,1.2A1.6,1.6,0,0,1,3.7,9.6Z" transform="translate(-1.3 -5.9)" fill="#231f20"/><rect x="4.3" y="0.2" width="0.9" height="4.7" fill="#231f20"/><path d="M8.7,7.9c-.5-.2-.7-.3-.7-.6s.3-.5.7-.5a.9.9,0,0,1,.7.4l.5-.6A2.1,2.1,0,0,0,8.5,6,1.4,1.4,0,0,0,7.1,7.4c0,.6.3,1,1.2,1.3l.6.3a.6.6,0,0,1,.3.5.7.7,0,0,1-.7.7,1.1,1.1,0,0,1-1-.6l-.6.6a1.8,1.8,0,0,0,1.6.9,1.5,1.5,0,0,0,1.6-1.5C10.1,8.6,9.8,8.3,8.7,7.9Z" transform="translate(-1.3 -5.9)" fill="#231f20"/><path d="M10.3,8.5a2.4,2.4,0,0,0,2.5,2.5l1.1-.3V9.6a1.5,1.5,0,0,1-1.1.5,1.5,1.5,0,0,1-1.6-1.6,1.6,1.6,0,0,1,1.5-1.6,1.5,1.5,0,0,1,1.1.5V6.3A2.3,2.3,0,0,0,12.9,6,2.5,2.5,0,0,0,10.3,8.5Z" transform="translate(-1.3 -5.9)" fill="#231f20"/><polygon points="20 3.3 18.7 0.2 17.7 0.2 19.7 5 20.2 5 22.2 0.2 21.2 0.2 20 3.3" fill="#231f20"/><polygon points="22.7 4.9 25.3 4.9 25.3 4.1 23.6 4.1 23.6 2.8 25.2 2.8 25.2 2 23.6 2 23.6 1 25.3 1 25.3 0.2 22.7 0.2 22.7 4.9" fill="#231f20"/><path d="M30.1,7.5c0-.9-.6-1.4-1.7-1.4H27.1v4.7H28V8.9h.1l1.3,1.9h1.1l-1.5-2A1.2,1.2,0,0,0,30.1,7.5Zm-1.8.8H28V6.9h.3c.6,0,.9.2.9.7S28.9,8.3,28.3,8.3Z" transform="translate(-1.3 -5.9)" fill="#231f20"/><path d="M19.3,8.5A2.5,2.5,0,1,1,16.8,6,2.5,2.5,0,0,1,19.3,8.5Z" transform="translate(-1.3 -5.9)" fill="#ef7622"/><path d="M30.6,6.2h-.3v.4h.1v0h.1V6.3Zm-.2.1h0Z" transform="translate(-1.3 -5.9)" fill="#231f20"/><path d="M30.5,5.9a.4.4,0,1,0,.4.4A.4.4,0,0,0,30.5,5.9Zm0,.7a.3.3,0,1,1,.3-.3A.3.3,0,0,1,30.5,6.6Z" transform="translate(-1.3 -5.9)" fill="#231f20"/></svg>