<svg xmlns="http://www.w3.org/2000/svg" viewBox="0 0 32 32"><circle cx="16" cy="16" r="16" fill="#3076bc"/><path d="M13.33 11.52a2.67 2.67 0 0 1 5.34 0 10.61 10.61 0 0 1 1.45.27v-.26a4.12 4.12 0 1 0-8.23 0v.26a10.61 10.61 0 0 1 1.44-.27zm2.67.55c-1.39 0-6.56 0-6.46 2.61a10.8 10.8 0 0 0 6.46 9.5 10.8 10.8 0 0 0 6.46-9.5C22.56 12 17.39 12 16 12.07zm2.06 7.35H14s-.29-1.06 1.18-2.34a1.59 1.59 0 0 1-.81-1.37 1.61 1.61 0 0 1 3.23 0 1.59 1.59 0 0 1-.75 1.29c1.51 1.33 1.21 2.42 1.21 2.42z" fill="#fff"/></svg>