<svg xmlns="http://www.w3.org/2000/svg" viewBox="0 0 32 32"><path fill="#9C5C8F" d="M19.84,12.67c-0.2-0.52-0.46-0.78-0.76-0.86c-0.3-0.08-0.94,0.18-1.36,0.82c-0.34,0.46-0.58,0.98-0.7,1.54 c-0.03,0.32-0.03,0.64,0,0.96c0.01,0.4,0.09,0.8,0.24,1.18c0.18,0.5,0.44,0.78,0.76,0.84c0.36,0.02,0.72-0.11,0.98-0.36 c0.55-0.53,0.9-1.24,1-2l0,0c0.06-0.32,0.1-0.64,0.1-0.96C20.09,13.43,20,13.04,19.84,12.67z"/><path fill="#9C5C8F" d="M29.02,6.45h-26C1.39,6.42,0.03,7.72,0,9.35C0,9.38,0,9.4,0,9.43v10c0,1.65,1.33,2.98,2.98,2.98h12.34 l5.64,3.14l-1.28-3.14h9.34c1.65,0,2.98-1.33,2.98-2.98c0-0.02,0-0.04,0-0.06v-10C31.97,7.75,30.64,6.45,29.02,6.45z M13.26,19.49 c0.03,0.3-0.02,0.6-0.16,0.86c-0.13,0.26-0.39,0.44-0.68,0.46c-0.4,0.02-0.79-0.16-1.04-0.48C9.99,18.74,9,16.84,8.5,14.79 c-0.84,1.68-1.46,2.92-1.86,3.76c-0.78,1.46-1.42,2.22-2,2.26c-0.58,0.04-0.66-0.28-0.92-0.9c-1.01-3.22-1.73-6.53-2.14-9.88 c-0.06-0.3,0.01-0.62,0.2-0.86l0,0c0.2-0.26,0.5-0.41,0.82-0.42c0.52-0.1,1.02,0.24,1.12,0.76c0.01,0.06,0.02,0.12,0.02,0.18 c0.4,2.72,0.84,5.02,1.3,6.92L8,11.17c0.17-0.41,0.54-0.71,0.98-0.78c0.56,0,0.92,0.34,1.06,1.1c0.26,1.52,0.68,3.01,1.24,4.44 c0.1-2.46,0.66-4.89,1.66-7.14c0.15-0.34,0.47-0.56,0.84-0.58c0.3-0.03,0.59,0.07,0.82,0.26c0.24,0.18,0.39,0.44,0.42,0.74 c0.01,0.22-0.04,0.43-0.14,0.62c-0.65,1.49-1.08,3.08-1.26,4.7C13.33,16.17,13.21,17.83,13.26,19.49z M21.26,17.49 c-0.56,1.19-1.75,1.96-3.06,2c-0.23,0.02-0.47,0.02-0.7,0c-0.85-0.2-1.58-0.75-2-1.52c-0.43-0.79-0.65-1.68-0.62-2.58 c-0.01-1.29,0.34-2.56,1.02-3.66c0.56-1.19,1.73-1.96,3.04-2c0.24-0.02,0.48-0.02,0.72,0c0.85,0.2,1.58,0.75,2,1.52l0,0 c0.43,0.78,0.64,1.67,0.62,2.56c0,1.29-0.36,2.55-1.04,3.64L21.26,17.49z M30.42,13.81c0.01,1.3-0.34,2.57-1.02,3.68 c-0.56,1.19-1.74,1.97-3.06,2c-0.23,0.02-0.47,0.02-0.7,0c-0.85-0.2-1.58-0.75-2-1.52c-0.43-0.79-0.65-1.68-0.62-2.58 c-0.06-1.34,0.28-2.67,0.98-3.82c0.56-1.19,1.75-1.96,3.06-2c0.23-0.02,0.47-0.02,0.7,0c0.85,0.2,1.58,0.75,2,1.52 c0.48,0.81,0.7,1.74,0.64,2.68L30.42,13.81z"/><path fill="#9C5C8F" d="M27.22,11.81c-0.46,0-0.92,0.18-1.34,0.82c-0.34,0.46-0.58,0.98-0.7,1.54c-0.03,0.32-0.03,0.64,0,0.96 c0.01,0.4,0.08,0.8,0.22,1.18c0.2,0.51,0.46,0.79,0.78,0.84c0.39,0.04,0.78-0.12,1.04-0.42c0.56-0.53,0.91-1.24,1-2l0,0 c0.03-0.32,0.03-0.64,0-0.96c0-0.4-0.07-0.8-0.22-1.18C27.8,12.15,27.54,11.89,27.22,11.81z"/></svg>