<svg version="1.1" id="Layer_1" xmlns="http://www.w3.org/2000/svg" x="0px" y="0px" viewBox="0 0 640 480" style="enable-background:new 0 0 640 480" xml:space="preserve"><path fill="#9CCA15" d="M204.47,219.04c-0.2-1.32-0.95-1.74-2.15-1.79c-2-0.08-3.99-0.22-5.98-0.33c-6.87-0.36-13.74-0.71-20.61-1.07
  c-2.22-0.12-4.43-0.28-6.65-0.4c-1.21-0.06-1.97-0.54-2.49-1.75c-2.64-6.18-6.26-11.75-10.72-16.77c-0.77-0.86-0.86-1.58-0.43-2.67
  c4.17-10.34,8.26-20.71,12.43-31.05c0.49-1.21,0.49-1.98-0.73-2.75c-2.11-1.33-4.13-2.81-6.15-4.29c-0.98-0.72-1.66-0.63-2.58,0.2
  c-8.3,7.47-16.66,14.88-24.96,22.35c-0.9,0.81-1.65,1-2.81,0.54c-6.01-2.39-12.28-3.85-18.73-4.28c-2-0.13-2.74-0.92-3.43-2.55
  c-4.17-9.86-8.47-19.67-12.64-29.53c-0.61-1.45-1.4-1.98-2.89-1.69c-2.45,0.47-4.92,0.82-7.33,1.42c-0.58,0.15-1.3,1.05-1.39,1.68
  c-0.28,1.97-0.29,3.98-0.4,5.97c-0.36,6.93-0.7,13.85-1.08,20.78c-0.13,2.44-0.26,4.88-0.57,7.29c-0.08,0.65-0.71,1.52-1.31,1.79
  c-6.18,2.77-11.83,6.37-16.92,10.82c-0.99,0.87-1.8,0.93-2.98,0.46c-10.35-4.15-20.73-8.22-31.07-12.39
  c-1.17-0.47-1.81-0.28-2.47,0.7c-1.36,2.03-2.74,4.05-4.21,6c-0.86,1.14-0.75,1.91,0.21,2.98c7.4,8.22,14.71,16.51,22.11,24.73
  c0.92,1.03,1.03,1.89,0.53,3.12c-2.41,5.95-3.77,12.18-4.2,18.56c-0.13,1.92-0.88,2.66-2.46,3.33c-9.91,4.2-19.77,8.52-29.68,12.71
  c-1.38,0.59-1.89,1.33-1.62,2.75c0.47,2.5,0.91,5.01,1.36,7.52c0.17,0.91,0.71,1.22,1.64,1.24c2.38,0.06,4.77,0.24,7.15,0.38
  c8.8,0.52,17.61,1.09,26.41,1.55c1.28,0.07,2,0.44,2.52,1.64c2.71,6.2,6.29,11.87,10.82,16.91c0.89,0.98,0.72,1.81,0.3,2.86
  c-4.12,10.3-8.17,20.63-12.34,30.91c-0.54,1.32-0.3,1.98,0.82,2.7c2,1.3,3.97,2.66,5.86,4.11c1.16,0.89,1.91,0.72,2.97-0.24
  c8.34-7.52,16.72-14.97,25.14-22.4c0.46-0.4,1.4-0.54,2.03-0.4c1.29,0.29,2.5,0.88,3.77,1.29c5.08,1.64,10.26,2.8,15.61,3.06
  c1.4,0.07,2.42,0.47,3,2.03c1.16,3.12,2.6,6.13,3.92,9.19c3.07,7.14,6.11,14.28,9.24,21.39c0.25,0.56,1.09,1.31,1.57,1.25
  c2.79-0.36,5.55-0.97,8.34-1.43c1.03-0.17,1.34-0.66,1.37-1.67c0.06-2.5,0.23-4.99,0.38-7.48c0.52-8.75,1.08-17.5,1.55-26.25
  c0.06-1.15,0.37-1.8,1.47-2.27c6.22-2.68,11.87-6.29,16.94-10.78c1-0.89,1.82-0.88,2.97-0.42c10.29,4.14,20.6,8.23,30.91,12.33
  c0.36,0.14,0.72,0.28,1.29,0.49c0.3-0.24,0.76-0.46,1.02-0.82c1.65-2.3,3.24-4.65,4.88-6.95c0.53-0.74,0.36-1.23-0.22-1.87
  c-2.58-2.83-5.11-5.72-7.66-8.58c-4.99-5.6-9.98-11.2-14.98-16.8c-0.62-0.69-1.02-1.29-0.61-2.34c2.52-6.44,4.15-13.09,4.44-20.03
  c0.04-1.06,0.55-1.67,1.56-2.09c3.39-1.39,6.73-2.87,10.1-4.32c6.98-3,13.97-5.98,20.93-9.04c0.55-0.24,1.27-1.09,1.21-1.57
  C205.48,224.37,204.89,221.72,204.47,219.04z M106.55,282.53c-24.23-0.19-42.34-20.15-42.01-42.5
  c-0.47-22.37,18.52-42.9,43.39-42.47c22.73,0.39,41.74,19.51,41.52,42.76C149.23,263.6,130.67,282.73,106.55,282.53z"/><path d="M99.7,133.09c4.83,11.27,9.65,22.54,14.52,33.78c0.19,0.44,0.82,0.85,1.31,0.96c4.75,1.12,9.5,2.19,14.27,3.19
  c0.51,0.11,1.28-0.21,1.7-0.58c8.65-7.66,17.29-15.34,25.88-23.07c1.04-0.93,1.79-1.13,2.97-0.29c5.27,3.78,10.59,7.5,15.92,11.2
  c0.98,0.68,1,1.3,0.58,2.33c-4.32,10.76-8.57,21.54-12.9,32.3c-0.43,1.08-0.24,1.75,0.38,2.67c2.47,3.69,4.84,7.43,7.16,11.21
  c0.53,0.87,0.98,1.38,2.11,1.44c11.26,0.6,22.52,1.31,33.78,1.88c1.88,0.09,2.86,0.56,3.18,2.57c0.94,5.91,2.03,11.8,3.12,17.69
  c0.32,1.75-0.21,2.61-1.92,3.33c-10.28,4.31-20.5,8.78-30.76,13.14c-1.29,0.55-1.85,1.22-2.11,2.72c-0.74,4.25-1.78,8.46-2.85,12.64
  c-0.28,1.11-0.16,1.81,0.6,2.65c7.61,8.48,15.18,16.99,22.75,25.49c0.44,0.49,0.87,1,1.58,1.84c-4.29,6.13-8.61,12.29-12.92,18.45
  c-7-2.78-13.59-5.4-20.18-8.02c-4.69-1.86-9.39-3.7-14.06-5.6c-0.88-0.36-1.45-0.23-2.24,0.3c-3.83,2.55-7.71,5.03-11.63,7.42
  c-0.88,0.54-1.21,1.07-1.26,2.07c-0.64,11.7-1.33,23.41-1.97,35.11c-0.05,0.89-0.37,1.24-1.19,1.45c-6.56,1.71-13.2,2.98-19.98,3.53
  c-1.11,0.09-1.53-0.3-1.94-1.25c-4.49-10.51-9.05-20.99-13.51-31.51c-0.57-1.33-1.26-1.84-2.73-2.1c-4.09-0.71-8.14-1.68-12.16-2.71
  c-1.35-0.35-2.24-0.35-3.37,0.68c-8.32,7.53-16.72,14.97-25.1,22.44c-0.53,0.47-1.09,0.93-1.65,1.4
  c-6.41-3.55-12.28-7.71-17.85-12.33c-0.86-0.71-0.53-1.3-0.24-2.03c4.27-10.72,8.5-21.45,12.83-32.15c0.49-1.21,0.27-1.95-0.42-2.98
  c-2.44-3.64-4.78-7.34-7.06-11.08c-0.57-0.94-1.09-1.43-2.27-1.49c-11.65-0.62-23.29-1.32-34.94-1.95
  c-0.96-0.05-1.37-0.35-1.54-1.29c-1.08-6.06-2.21-12.1-3.32-18.15c-0.08-0.43-0.2-0.85-0.31-1.28c0-0.67,0-1.33,0-2
  c0.32-0.06,0.66-0.07,0.94-0.19c10.91-4.69,21.82-9.37,32.7-14.12c0.51-0.22,0.99-0.96,1.13-1.54c1.03-4.42,1.9-8.89,3-13.3
  c0.3-1.18,0.17-1.92-0.62-2.8c-7.68-8.56-15.31-17.17-22.99-25.73c-0.8-0.89-1.01-1.53-0.28-2.56c3.82-5.38,7.6-10.8,11.37-16.21
  c0.6-0.87,1.19-1.02,2.22-0.61c10.86,4.37,21.73,8.7,32.63,12.97c0.57,0.22,1.5,0.09,2.04-0.24c3.97-2.44,7.89-4.95,11.78-7.51
  c0.54-0.36,1.1-1.11,1.14-1.72c0.39-5.15,0.67-10.31,0.97-15.47c0.38-6.55,0.76-13.09,1.09-19.64c0.05-1.04,0.38-1.58,1.48-1.8
  c3.42-0.69,6.81-1.59,10.24-2.23c3.05-0.57,6.13-0.91,9.2-1.35C98.59,133.09,99.15,133.09,99.7,133.09z M185.12,301.47
  c0.3-0.24,0.76-0.46,1.02-0.82c1.65-2.3,3.24-4.65,4.88-6.95c0.53-0.74,0.36-1.23-0.22-1.87c-2.58-2.83-5.11-5.72-7.66-8.58
  c-4.99-5.6-9.98-11.2-14.98-16.8c-0.62-0.69-1.02-1.29-0.61-2.34c2.52-6.44,4.15-13.09,4.44-20.03c0.04-1.06,0.55-1.67,1.56-2.09
  c3.39-1.39,6.73-2.87,10.1-4.32c6.98-3,13.97-5.98,20.93-9.04c0.55-0.24,1.27-1.09,1.21-1.57c-0.33-2.69-0.93-5.34-1.34-8.02
  c-0.2-1.32-0.95-1.74-2.15-1.79c-2-0.08-3.99-0.22-5.98-0.33c-6.87-0.36-13.74-0.71-20.61-1.07c-2.22-0.12-4.43-0.28-6.65-0.4
  c-1.21-0.06-1.97-0.54-2.49-1.75c-2.64-6.18-6.26-11.75-10.72-16.77c-0.77-0.86-0.86-1.58-0.43-2.67
  c4.17-10.34,8.26-20.71,12.43-31.05c0.49-1.21,0.49-1.98-0.73-2.75c-2.11-1.33-4.13-2.81-6.15-4.29c-0.98-0.72-1.66-0.63-2.58,0.2
  c-8.3,7.47-16.66,14.88-24.96,22.35c-0.9,0.81-1.65,1-2.81,0.54c-6.01-2.39-12.28-3.85-18.73-4.28c-2-0.13-2.74-0.92-3.43-2.55
  c-4.17-9.86-8.47-19.67-12.64-29.53c-0.61-1.45-1.4-1.98-2.89-1.69c-2.45,0.47-4.92,0.82-7.33,1.42c-0.58,0.15-1.3,1.05-1.39,1.68
  c-0.28,1.97-0.29,3.98-0.4,5.97c-0.36,6.93-0.7,13.85-1.08,20.78c-0.13,2.44-0.26,4.88-0.57,7.29c-0.08,0.65-0.71,1.52-1.31,1.79
  c-6.18,2.77-11.83,6.37-16.92,10.82c-0.99,0.87-1.8,0.93-2.98,0.46c-10.35-4.15-20.73-8.22-31.07-12.39
  c-1.17-0.47-1.81-0.28-2.47,0.7c-1.36,2.03-2.74,4.05-4.21,6c-0.86,1.14-0.75,1.91,0.21,2.98c7.4,8.22,14.71,16.51,22.11,24.73
  c0.92,1.03,1.03,1.89,0.53,3.12c-2.41,5.95-3.77,12.18-4.2,18.56c-0.13,1.92-0.88,2.66-2.46,3.33c-9.91,4.2-19.77,8.52-29.68,12.71
  c-1.38,0.59-1.89,1.33-1.62,2.75c0.47,2.5,0.91,5.01,1.36,7.52c0.17,0.91,0.71,1.22,1.64,1.24c2.38,0.06,4.77,0.24,7.15,0.38
  c8.8,0.52,17.61,1.09,26.41,1.55c1.28,0.07,2,0.44,2.52,1.64c2.71,6.2,6.29,11.87,10.82,16.91c0.89,0.98,0.72,1.81,0.3,2.86
  c-4.12,10.3-8.17,20.63-12.34,30.91c-0.54,1.32-0.3,1.98,0.82,2.7c2,1.3,3.97,2.66,5.86,4.11c1.16,0.89,1.91,0.72,2.97-0.24
  c8.34-7.52,16.72-14.97,25.14-22.4c0.46-0.4,1.4-0.54,2.03-0.4c1.29,0.29,2.5,0.88,3.77,1.29c5.08,1.64,10.26,2.8,15.61,3.06
  c1.4,0.07,2.42,0.47,3,2.03c1.16,3.12,2.6,6.13,3.92,9.19c3.07,7.14,6.11,14.28,9.24,21.39c0.25,0.56,1.09,1.31,1.57,1.25
  c2.79-0.36,5.55-0.97,8.34-1.43c1.03-0.17,1.34-0.66,1.37-1.67c0.06-2.5,0.23-4.99,0.38-7.48c0.52-8.75,1.08-17.5,1.55-26.25
  c0.06-1.15,0.37-1.8,1.47-2.27c6.22-2.68,11.87-6.29,16.94-10.78c1-0.89,1.82-0.88,2.97-0.42c10.29,4.14,20.6,8.23,30.91,12.33
  C184.2,301.12,184.56,301.25,185.12,301.47z"/><path d="M64.54,240.04c-0.47-22.37,18.52-42.9,43.39-42.47c22.73,0.39,41.74,19.51,41.52,42.76c-0.22,23.27-18.78,42.4-42.9,42.21
  C82.32,282.34,64.21,262.38,64.54,240.04z M107.05,204.97c-19.43,0-35.12,15.6-35.17,34.97c-0.05,19.38,15.65,35.18,34.96,35.18
  c19.41,0,35.18-15.67,35.19-34.97C142.04,220.77,126.33,204.97,107.05,204.97z"/><path d="M528.85,192.9c0-0.56,0-1.16,0-1.76c0-10.33,0-20.67,0-31c0-2.56,0.6-3.19,3.11-3.19c5.83-0.01,11.67-0.01,17.5,0
  c2.54,0.01,3.1,0.59,3.1,3.19c0,29.78,0.04,59.55-0.01,89.33c-0.04,20.88-14.67,37.79-35.22,40.91
  c-22.98,3.49-44.87-13.78-46.48-37.06c-0.69-9.9-1.03-19.9,0.36-29.77c2.43-17.34,17.38-31.67,34.75-33.82
  c7.5-0.93,14.72-0.04,21.68,2.91c0.3,0.13,0.62,0.24,0.93,0.34C528.61,192.99,528.67,192.95,528.85,192.9z M528.64,240.04
  c0.07,0,0.14,0,0.21,0c0-0.94,0.03-1.89-0.01-2.83c-0.14-3.6,0.16-7.3-0.56-10.78c-1.77-8.54-9.79-14.12-18.38-13.28
  c-8.69,0.85-15.33,7.93-15.56,16.92c-0.17,6.66-0.18,13.34,0,20c0.26,9.37,7.32,16.47,16.58,16.97c8.61,0.47,16.4-5.86,17.62-14.86
  C529.09,248.2,528.64,244.09,528.64,240.04z"/><path d="M251.5,192.61c4.2-1,8.23-2.31,12.36-2.89c20.52-2.88,40.44,11.12,44.85,31.46c0.68,3.12,1.01,6.38,1.02,9.58
  c0.09,18.89,0.05,37.79,0.05,56.69c0,2.7-0.63,3.33-3.32,3.34c-5.78,0.01-11.56,0.01-17.34,0c-2.36,0-3.04-0.69-3.04-3.09
  c0-19.06,0.02-38.12-0.01-57.19c-0.02-10.03-7.96-17.66-17.98-17.4c-9.25,0.24-16.55,7.96-16.57,17.66
  c-0.04,18.01-0.01,36.01-0.01,54.02c0,0.89,0,1.78,0,2.67c-0.01,2.73-0.6,3.33-3.31,3.34c-5.78,0.01-11.56,0.01-17.34,0
  c-2.34,0-3.08-0.73-3.08-3.09c0-42.57,0-85.14,0-127.71c0-2.3,0.69-3.02,2.96-3.02c5.95-0.02,11.89-0.02,17.84,0
  c2.3,0.01,2.92,0.66,2.92,3.03c0.01,10.34,0,20.67,0,31.01C251.5,191.61,251.5,192.22,251.5,192.61z"/><path d="M581.96,251.88c0.86,8.56,8.37,15.11,17.14,15.17c6.11,0.04,12.23,0,18.34,0.01c2.5,0,3.11,0.63,3.11,3.18
  c0.01,5.78,0,11.56,0,17.34c0,2.51-0.66,3.23-3.11,3.21c-7.66-0.07-15.36,0.23-22.99-0.36c-17.86-1.37-33.44-16.32-35.89-34.12
  c-0.54-3.94-0.55-7.97-0.58-11.97c-0.05-5.72-0.16-11.46,0.2-17.16c1.12-17.64,14.1-32.76,31.27-36.73
  c23.39-5.41,46.02,9.65,50,33.34c1.17,6.95,0.69,13.65-3.84,19.5c-4.32,5.57-10,8.54-17.07,8.57c-11.56,0.06-23.12,0.02-34.68,0.02
  C583.26,251.88,582.66,251.88,581.96,251.88z M615.92,228.07c-0.22-7.83-8.23-14.93-16.8-14.97c-8.75-0.05-16.84,7.01-17.09,14.97
  C593.33,228.07,604.62,228.07,615.92,228.07z"/><path d="M397.49,240.17c-0.33,5.7-0.21,11.47-1.08,17.09c-2.71,17.47-18.16,31.61-35.82,33.25c-21.61,2.01-40.33-11.8-44.62-32.96
  c-0.34-1.68-0.63-3.41-0.63-5.12c-0.01-10.21-1.17-20.49,0.81-30.59c4.06-20.8,24.3-35.04,45.31-32.16
  c20.59,2.82,35.49,19.68,35.72,40.46c0.04,3.33,0.01,6.67,0.01,10C397.28,240.16,397.38,240.17,397.49,240.17z M373.26,240.02
  c0.07,0,0.14,0,0.21,0c0-1.06,0.04-2.11-0.01-3.17c-0.14-3.49,0.15-7.07-0.55-10.44c-1.76-8.49-9.83-14.11-18.4-13.26
  c-8.7,0.86-15.31,7.94-15.54,16.93c-0.17,6.66-0.18,13.34,0,20c0.26,9.32,7.16,16.31,16.42,16.96c8.61,0.6,16.53-5.8,17.77-14.87
  C373.71,248.19,373.26,244.07,373.26,240.02z"/><path d="M402.76,257.14c0-10-0.4-20.02,0.09-29.99c0.84-17.45,14.01-32.74,31.09-36.61c3.43-0.78,7.03-1.04,10.56-1.15
  c5.77-0.18,11.55-0.05,17.33-0.05c2.79,0,3.35,0.55,3.35,3.28c0,5.72,0,11.44,0,17.17c0,2.68-0.62,3.29-3.36,3.29
  c-6.11,0.01-12.22-0.06-18.33,0.03c-8.43,0.12-15.24,5.84-16.82,14.09c-0.27,1.41-0.29,2.87-0.29,4.31c-0.02,18.5-0.01,37-0.01,55.5
  c0,3.26-0.51,3.78-3.74,3.78c-5.5,0-11,0-16.5,0c-2.94,0-3.53-0.57-3.53-3.48c0-10.06,0-20.11,0-30.17
  C402.63,257.14,402.7,257.14,402.76,257.14z"/></svg>