<svg xmlns="http://www.w3.org/2000/svg" viewBox="0 0 32 32"><path fill="#FF8E14" d="M0,26.04c0,0,1.19,0.25,1.9,0.24c1.76-0.04,2.65-0.21,3.57-3.21c0.32-1.05,0.48-3.09,0.59-4.4 c0.12-1.31,0.24-1.9,0.59-3.33s0.95-2.97,1.66-4.28s1.66-2.5,2.85-3.33s3.09-1.78,6.54-1.78s4.75,1.43,4.75,1.43 s0.71,1.19,2.61,1.07c1.9-0.12,2.02-1.31,2.26-1.66c0.24-0.36,0.24-0.36,0.24-0.36s-0.08-1.52,0.24-1.9 c0.51-0.61,0.76,0.05,0.76,0.05S28.76,4.28,29,4.4c0.24,0.12,0.36,0.59,0.24,1.07c-0.12,0.48-0.36,0.95-0.36,0.95 s0.83,0.12,1.31,0.71c0.48,0.59,0.71,1.31,0.71,1.31s1,0.96,1.07,1.31c0.07,0.36,0,0.48-0.24,0.59c-0.24,0.12-0.48,0-0.48,0 s0.42,0.45,0.07,0.48s-0.73-0.52-1.14-0.59s-0.94-0.15-1.12-0.18c-0.18-0.02-0.33-0.17-0.46,0.08c-0.13,0.25-0.87,1.55-1.49,2.07 c-0.62,0.52-1.88,1.08-1.88,1.08s-1.05,1.02-1.44,1.47c-0.39,0.45-0.67,0.7-0.77,0.93c-0.11,0.23,0.02,0.55-0.21,0.67 c-0.24,0.12-0.83,0.07-1.13,0.12c-0.3,0.05-0.34,0.05-0.67,0.02c-0.32-0.02-0.76,0-0.76-0.31c0-0.31,0.4-0.3,0.76-0.31 c0.36-0.01,1.18-0.02,1.46-0.38c0.29-0.36,0.49-0.7,0.65-1.08c0.15-0.36,0.36-0.59,0.11-0.69c-0.21-0.08-0.86,0.7-1.02,1.02 s-0.02,0.43-0.19,0.59c-0.25,0.25-0.68,0.17-1.34,0.21c-0.68,0.05-0.99-0.12-0.95-0.42c0.04-0.3,0.61-0.14,0.9-0.19 c0.33-0.06,0.71-0.17,0.95-0.34s0.55-0.82,0.55-0.82s-0.96,0.01-1.69-0.06c-0.73-0.07-1.81-0.34-1.81-0.34s-0.33,1.38-1.32,2.48 c-0.99,1.11-1.16,1.16-2.12,1.79c-0.95,0.63-2.63,1.62-3.28,2.26c-0.65,0.64-1.36,1.31-1.53,1.65c-0.18,0.34-0.42,0.86-0.46,1.88 s-0.23,2.04-0.23,2.37s0.2,0.56-0.1,0.99c-0.61,0.88-1.56,1.14-1.78,0.78c-0.23-0.36,0.38-0.86,0.38-0.86s-0.07-0.45,0.05-0.78 s0.48-0.76,0.48-0.76s0.02-2.14,0.02-2.85c0-0.71-0.26-1.47-0.02-2.21c0.24-0.74,1.24-1.19,1.88-1.74c0.64-0.55,1.33-1.05,1.55-2.03 c0.21-0.99,0.26-0.94,0.3-1.5s0.01-1.32,0.01-1.32s-0.57-0.45-0.64-1.06c-0.07-0.61,0.24-1.21,0.24-1.21s-1.06,0.43-1.64,1.2 c-0.58,0.77-1.78,2.86-2.04,3.68c-0.26,0.82-0.58,2.45-0.77,3.34c-0.19,0.89-0.68,2.88-0.83,3.58c-0.69,3.24-2.91,4.02-4.15,3.98 C0.69,26.99,0,26.04,0,26.04z"/></svg>