<svg id="Layer_1" data-name="Layer 1" xmlns="http://www.w3.org/2000/svg" viewBox="0 0 118.715 128"><path d="M41.685,75.981a24.6,24.6,0,0,0,1.4,8.387,21.956,21.956,0,0,0,3.993,6.59,26.042,26.042,0,0,0,5.891,4.992,34.286,34.286,0,0,0,7.189,3.495,41.593,41.593,0,0,0,7.888,2,55.312,55.312,0,0,0,8.087.7,58.182,58.182,0,0,0,9.585-.8,86.771,86.771,0,0,0,8.786-2.2,76.676,76.676,0,0,0,8.387-3.3c2.8-1.3,5.592-2.695,8.587-4.193v27.058c-3.3,1.6-6.49,2.895-9.685,4.093-3.195,1.1-6.39,2.1-9.685,2.9a85.805,85.805,0,0,1-9.884,1.8,86.824,86.824,0,0,1-10.384.6,58.068,58.068,0,0,1-13.879-1.7,54.616,54.616,0,0,1-12.58-4.793A51.2,51.2,0,0,1,34.6,114.022a46.889,46.889,0,0,1-8.387-9.984,50.712,50.712,0,0,1-5.392-12.082,48.584,48.584,0,0,1-1.9-13.878,48.944,48.944,0,0,1,2.2-14.976,49.924,49.924,0,0,1,6.19-13.18,47.672,47.672,0,0,1,9.885-10.683,53.441,53.441,0,0,1,13.179-7.588,27.9,27.9,0,0,0-6.19,9.485,43.586,43.586,0,0,0-2.9,10.983H86.814a47.043,47.043,0,0,0-1.4-11.982,20.216,20.216,0,0,0-4.493-8.586,18.715,18.715,0,0,0-8.088-5.092,37.841,37.841,0,0,0-11.881-1.7,55.426,55.426,0,0,0-16.474,2.5,70.207,70.207,0,0,0-15.676,6.789A72.659,72.659,0,0,0,15.126,44.431,61.043,61.043,0,0,0,4.643,57.41,71.253,71.253,0,0,1,8.137,41.935a72.6,72.6,0,0,1,6.49-13.779,60.019,60.019,0,0,1,9.286-11.482A55.706,55.706,0,0,1,35.694,7.888,58.551,58.551,0,0,1,49.573,2.3,56.131,56.131,0,0,1,75.133,1a73.155,73.155,0,0,1,9.485,2.4,56.581,56.581,0,0,1,16.474,8.786,56.011,56.011,0,0,1,12.181,13.08,58.875,58.875,0,0,1,7.488,16.274,66.556,66.556,0,0,1,2.6,18.471V75.981Z" transform="translate(-4.643 -0.1)" fill="#0078d7"/></svg>