<svg xmlns="http://www.w3.org/2000/svg" viewBox="0 0 32 32"><radialGradient id="v_titger_logo-svg-id-1" cx="24.5867" cy="10.4324" r="15.5823" fx="22.2094" fy="12.6866" gradientUnits="userSpaceOnUse"><stop offset="0.4614" stop-color="#BED630"/><stop offset="0.4661" stop-color="#BAD430"/><stop offset="0.538" stop-color="#89BC33"/><stop offset="0.6118" stop-color="#5FA835"/><stop offset="0.6861" stop-color="#3D9737"/><stop offset="0.7614" stop-color="#228A39"/><stop offset="0.8379" stop-color="#0F803A"/><stop offset="0.9164" stop-color="#047B3B"/><stop offset="1" stop-color="#00793B"/></radialGradient><path fill="url(#v_titger_logo-svg-id-1)" d="M31.82,14.5c-0.75-3.38-4.07-5.63-7.49-5.09c-0.14,0.02-0.17-0.02-0.22-0.13c-1.47-3.23-3.98-5.03-7.51-5.38 c-0.85-0.09-1.71-0.01-2.55,0.19c-2.35,0.56-4.18,1.86-5.5,3.88C8.38,8.23,8.24,8.5,8.08,8.78c0.76,0.16,1.45,0.4,2.1,0.75 c0.04-0.06,0.07-0.11,0.09-0.16c0.35-0.61,0.79-1.15,1.32-1.61c1.55-1.35,3.34-1.89,5.37-1.61c1.37,0.19,2.55,0.78,3.55,1.72 c1.1,1.03,1.76,2.31,2,3.8c0.07,0.39,0.38,0.55,0.74,0.37c1.27-0.64,2.56-0.7,3.86-0.14c1.98,0.87,3.03,2.97,2.56,5.08 c-0.63,2.85-3.88,4.33-6.44,2.95c-0.9-0.49-1.57-1.2-1.99-2.14c-0.09-0.2-0.22-0.35-0.45-0.37c-0.2-0.02-0.34,0.11-0.48,0.23 c-1.63,1.4-3.51,1.89-5.61,1.52c-1.14-0.2-2.15-0.7-3.02-1.47c-1.23-1.07-1.99-2.4-2.24-4.02c-0.02-0.1-0.03-0.23-0.09-0.29 c-0.59-0.62-1.31-1-2.17-1.13c-0.04,0.73,0,1.44,0.16,2.15c0.63,2.88,2.27,4.96,4.91,6.26c0.93,0.45,1.92,0.71,2.95,0.79 c0.75,0.06,1.49,0.05,2.23-0.08c0.96-0.16,1.87-0.47,2.73-0.94c0.11-0.06,0.17-0.04,0.26,0.05c0.24,0.24,0.48,0.49,0.75,0.7 c1.58,1.23,3.36,1.69,5.34,1.35c1.61-0.27,2.95-1.06,3.97-2.32C31.84,18.55,32.29,16.62,31.82,14.5z"/><radialGradient id="v_tiger-logo-vg-id-2" cx="15.0782" cy="16.4056" r="14.422" gradientUnits="userSpaceOnUse"><stop offset="0.4614" stop-color="#00AAEC"/><stop offset="0.5309" stop-color="#0096DB"/><stop offset="0.6428" stop-color="#007BC5"/><stop offset="0.7573" stop-color="#0068B5"/><stop offset="0.8748" stop-color="#005DAC"/><stop offset="1" stop-color="#0059A9"/></radialGradient><path fill="url(#v_tiger-logo-vg-id-2)" d="M21.81,22.51c-0.03,0.05-0.06,0.09-0.08,0.14c-0.43,0.74-0.98,1.37-1.66,1.89c-1.7,1.28-3.59,1.69-5.66,1.2 c-1.41-0.34-2.58-1.1-3.51-2.22c-0.74-0.9-1.21-1.93-1.41-3.07C9.4,19.9,9.15,19.77,8.66,20c-0.91,0.44-1.86,0.58-2.86,0.39 c-2.25-0.44-3.89-2.57-3.56-5.01c0.13-0.96,0.55-1.79,1.23-2.49c1.29-1.34,3.35-1.73,5.03-0.95c1.03,0.48,1.79,1.24,2.26,2.28 c0.05,0.11,0.14,0.22,0.24,0.29c0.2,0.13,0.38,0.08,0.62-0.13c1.69-1.46,3.63-1.97,5.81-1.51c2.69,0.57,4.76,2.83,5.13,5.54 c0.01,0.09,0.06,0.2,0.13,0.26c0.24,0.2,0.47,0.4,0.73,0.57c0.41,0.26,0.86,0.42,1.37,0.49c0.01-0.09,0.02-0.15,0.02-0.21 c-0.04-0.55-0.04-1.11-0.13-1.65c-0.35-2.13-1.36-3.89-3.01-5.28c-1.19-1.01-2.57-1.65-4.11-1.94c-0.88-0.16-1.76-0.19-2.64-0.08 c-1.09,0.14-2.13,0.46-3.1,1c-0.1,0.05-0.15,0.05-0.23-0.03c-0.18-0.19-0.36-0.38-0.56-0.55c-1.63-1.37-3.5-1.89-5.6-1.51 c-1.57,0.28-2.88,1.06-3.89,2.29c-1.31,1.59-1.79,3.42-1.44,5.44c0.31,1.75,1.21,3.17,2.65,4.21c1.47,1.06,3.11,1.45,4.9,1.19 c0.11-0.02,0.17,0.01,0.22,0.12c0.29,0.72,0.68,1.38,1.16,1.99c1.71,2.15,3.95,3.28,6.68,3.42c0.72,0.04,1.44-0.03,2.14-0.2 c2.4-0.55,4.27-1.87,5.61-3.95c0.15-0.24,0.28-0.49,0.43-0.75c-0.75-0.16-1.43-0.41-2.07-0.75C21.82,22.5,21.81,22.5,21.81,22.51z"/></svg>