<svg xmlns="http://www.w3.org/2000/svg" viewBox="0 0 812 144"><path d="M0.84 142L29.94 142L29.94 112.9L0.84 112.9ZM137.8 97.38L115.3 84.38L83.68 84.38L83.68 61.88L135.86 61.88L135.86 45L87.36 45L64.86 58L64.86 88.26L87.36 101.26L118.99 101.26L118.99 125.12L64.86 125.12L64.86 142L115.3 142L137.8 129ZM183.78 102.23L222.78 102.23L222.78 126.09L183.78 126.09ZM187.47 142.97L209 142.97L222.78 135.02L236.55 142.97L241.59 142.97L241.59 58L219.09 45L174.66 45L174.66 61.88L222.78 61.88L222.78 85.35L187.47 85.35L164.96 98.35L164.96 129.97ZM264.87 61.88L282.72 61.88L282.72 129L305.23 142L324.82 142L324.82 125.12L301.54 125.12L301.54 61.88L324.82 61.88L324.82 45L301.54 45L301.54 17.84L282.72 28.7L282.72 45L264.87 45ZM370.8 61.88L424.73 61.88L424.73 45L374.48 45L351.98 58L351.98 129L374.48 142L424.73 142L424.73 125.12L370.8 125.12ZM470.71 142L470.71 60.91L517.46 60.91L517.46 142L536.28 142L536.28 57.03L513.78 44.03L484.48 44.03L470.71 51.98L470.71 0.38L451.89 0.38L451.89 142ZM697.88 57.03L675.38 44.03L655.78 44.03L637.55 54.51L619.51 44.03L599.91 44.03L586.14 51.98L581.48 44.03L567.32 44.03L567.32 142L586.14 142L586.14 60.91L623.19 60.91L623.19 142L642.01 142L642.01 60.91L679.06 60.91L679.06 142L697.88 142ZM811.37 129.97L811.37 57.03L788.87 44.03L751.43 44.03L728.92 57.03L728.92 129.97L751.43 142.97L788.87 142.97ZM747.74 60.91L792.55 60.91L792.55 126.09L747.74 126.09Z"/></svg>