<svg xmlns="http://www.w3.org/2000/svg" viewBox="0 0 32 32"><path fill="#2692D8" d="M 12.21,19.19v-3.67c0-1.78-0.95-2.74-2.57-2.74c-0.6,0-1.13,0.47-1.36,0.84c0-0.56,0-1.79,0-1.79 c0-0.58-0.36-1-1.1-1H6.68v7.32c0,0.64,0.33,1.04,1.07,1.04h0.51v-3.56c0-1.1,0.64-1.48,1.13-1.48c0.68,0,1.24,0.41,1.24,1.43v2.56 c0,0.67,0.41,1.04,1.06,1.04H12.21z"/><path fill="#2692D8" d="M16.26,12.78c-2.21,0-3.14,1.44-3.14,3.52v3.79c0,0.67,0.53,1.08,1.09,1.08h0.49c0,0,0-1.9,0-2.77 c0.32,0.54,0.89,0.93,1.58,0.93c1.83,0,2.83-1.45,2.82-3.46C19.11,14.3,17.93,12.78,16.26,12.78z M16.22,17.95 c-0.93,0-1.54-0.71-1.54-1.97c0-1.08,0.48-1.82,1.34-1.82c1,0,1.49,0.64,1.48,2.12C17.5,17.28,16.98,17.95,16.22,17.95z"/><path fill="#2692D8" d="M5.99,15.88c0-1.58-1.18-3.09-2.85-3.09C0.93,12.78,0,14.22,0,16.3v3.79c0,0.67,0.53,1.08,1.09,1.08h0.48 c0,0,0-1.9,0-2.77c0.31,0.53,0.89,0.93,1.59,0.94C4.99,19.34,5.99,17.89,5.99,15.88z M1.54,15.98c0-1.08,0.48-1.82,1.34-1.82 c1,0,1.49,0.64,1.49,2.12c0,1-0.52,1.67-1.29,1.67C2.16,17.95,1.54,17.24,1.54,15.98z"/><path fill="#2692D8" d="M30.59,14.99c0.79-0.23,1.26-0.8,1.26-1.69c0-1.3-1.08-2.1-2.6-2.1h-0.96c-0.67,0-1.72,0.23-2.1,0.36v5.78 c0,1.24,0.73,1.89,2.22,1.89h0.86c1.45,0,2.73-0.89,2.73-2.5C32,16.03,31.39,15.21,30.59,14.99z M27.76,12.61 c0.23-0.04,0.49-0.08,0.69-0.08h0.59c0.6,0,1.23,0.22,1.23,0.92c0,0.69-0.58,0.96-1.29,0.97h-1.22L27.76,12.61L27.76,12.61z M29.12,17.78h-0.65c-0.39,0-0.7-0.22-0.7-0.5v-1.64h1.26c0.93,0,1.36,0.28,1.36,1.14C30.4,17.38,29.98,17.78,29.12,17.78z"/><path fill="#2692D8" d="M25.55,16.73c0-0.7-0.61-1.52-1.41-1.74c0.79-0.23,1.26-0.8,1.26-1.69c0-1.3-1.08-2.1-2.6-2.1h-0.96 c-0.67,0-1.72,0.23-2.1,0.36v5.78c0,1.24,0.73,1.89,2.22,1.89v-0.01h0.86C24.27,19.22,25.55,18.33,25.55,16.73z M21.31,12.61 c0.23-0.04,0.49-0.08,0.69-0.08h0.59c0.6,0,1.23,0.22,1.23,0.92c0,0.69-0.58,0.96-1.29,0.97h-1.22L21.31,12.61L21.31,12.61z M22.67,17.78h-0.65c-0.39,0-0.7-0.22-0.7-0.5v-1.64h1.26c0.93,0,1.36,0.28,1.36,1.14C23.95,17.38,23.53,17.78,22.67,17.78z"/></svg>