<svg xmlns="http://www.w3.org/2000/svg" viewBox="0 0 286.15 58.04"><path d="M63,10.9c-4.3-7.2-14.1-3.1-12,5.2C53.8,27.3,67.4,30,72.4,39.9c2.8,5.5,1,10.9-3.2,13.3s-11.6,3.4-16.1.1c-2.2-1.7-2.1-2.9-3.2.2-.4,1-1,2.1-2.3,1s-1.9-6.9,1.4-9.1,3.5-.5,5.4,1.4c4.7,3.9,10.7,2.7,12.2-.5s0-5.3-2-7.5-7.4-6-11.2-10.4S44.7,16.3,47.2,9.9s8.3-10.7,15.6-7C67.1,5.1,71.3,10,68.9,15c-1.7,3.4-6.8,4.5-9.2,1S64.2,12.9,63,10.9Z" transform="translate(-0.05 -0.06)" class="theme-foreground"/><path d="M82,22.6c.2,6.1-6.8,5.7-7-.2a3.12,3.12,0,0,1,2.9-3.3h.6a4.44,4.44,0,0,1,2.2,1,3.34,3.34,0,0,1,1.2,2.5Z" transform="translate(-0.05 -0.06)" class="theme-foreground"/><path d="M75.5,36.3l-.3.2c-3,1.7-2.1-1.7-.5-3.7s3-2.8,4.2-2.6A2.58,2.58,0,0,1,81.1,32c.8,3.9-3.6,14.8,1.1,17.7a2,2,0,0,0,2.7-.4c.9-1,1-2.7,2.1-3s.9.1,1.1,1.4c.3,3.9-1.4,9.5-6.8,7.6s-4.6-11.4-4.5-16.4c0-.3-.1-3.3-1.3-2.6Z" transform="translate(-0.05 -0.06)" class="theme-foreground"/><path d="M110,29.5a2.37,2.37,0,0,0-2.3-1.6l-5.6.3-6.3.3,1-9c.9-8.7,1-14.1.1-16.1S95,.8,93.9,1.6c-2.2.4-2.8,4.3-3,11.5,0,5.4.2,10.7.7,16.1l-3.2.9a11.66,11.66,0,0,0-2.6,1,1,1,0,0,0-.5,1.1,4.55,4.55,0,0,0,.5,2l4,9.2,3.7,8.4c1.1,2.5,2.5,3.8,4.3,3.7s2.6-.3,2.5-.6a12.4,12.4,0,0,1-.4-2.5,43.86,43.86,0,0,1-3.2-10.5,78.72,78.72,0,0,1-.4-8.4c5.5-1.3,9.2-.9,12.4-1.8h.2c1.2-.8.5-.4,1-.8A1,1,0,0,0,110,29.5Zm-16.5,17-.2.2H93l-.4-.9c-.3-.7-1.6-5.1-1.6-5.1s-1.1-4.1-1.3-4.5a.85.85,0,0,1,0-.7,2.09,2.09,0,0,1,.4-.6,3.1,3.1,0,0,1,1.3-.6h.3l.2.3v.9l.3,2.1,1,6.2.3,2.3Z" transform="translate(-0.05 -0.06)" class="theme-foreground"/><path d="M129.1,48.7c-3.4,4.2-8.2,8.1-13.5,6.6-3.1-1.1-5.1-4.1-6.1-7.8a24.06,24.06,0,0,1-.2-11c1.2-5.6,4.6-10.2,8.5-10.2,7.4.7,11.2,8.9,7.4,14.7-2.1,3.2-6.5,4.8-8.6,5.9s-1.4.6-1.3,2.1c.3,3.7,6.6,3.7,10.6-4.6.4-.8,2.9-4,4.5-3.1C133.8,43.4,129.5,48.2,129.1,48.7Zm-15.5-5.1c4.4-1.4,8.1-5.3,8.4-7.4.6-4-5.5-7.4-7.7-.9-.6,1.7-.7,5.3-.7,8.2Z" transform="translate(-0.05 -0.06)" class="theme-foreground"/><path d="M158.9,34.1c-.3,3.3,4.7,20.6,1.1,20.9s-3.5.4-4-.8,1.6-10-.2-7.3c-.4.6-.3.7-1,1.8-5.9,10.6-14,7.8-18.7-.8a35.32,35.32,0,0,1-3.6-20.2c1.3-12.3,6.6-28.5,19-25.9,9.8,2.1,3,15.2-.4,11.8C143-4.1,126.9,38.7,144.7,49c5.2,3,9.6-6.7,8.5-11s-.9-3.1-2.4-2.7-5.1,3.8-6.3,2.7-2.1-6.4.6-6.5,5.1.9,8.9-3.7,6.3-2.9,5.7,1.6c-.3,2-.8,3.1-1,4.6Z" transform="translate(-0.05 -0.06)" class="theme-foreground"/><path d="M181.8,27.7a16.3,16.3,0,0,0-10.2-3c-5.4.6-10.5,4.2-9.9,9.9.2,2.4.5,12.8,1.4,17.1a3.92,3.92,0,0,0,2.6,3.2,3,3,0,0,0,3.7-1.6c.9-2.1-.1-4-.6-5.8A76.91,76.91,0,0,1,167,35.8c-.6-6.4,9.1-7.2,11.3-3.5-1.6,2.5.7,4.1,3.7,1.8s1.6-5-.3-6.5Z" transform="translate(-0.05 -0.06)" class="theme-foreground"/><path d="M195,55.6c13.4-2.3,18.5-23,1.9-30.1C179.6,19.9,178.8,59,195,55.6Zm-6.1-16.8c1.6-16.3,12.3-8.7,13.7,1.9S186.6,57.6,188.9,38.8Z" transform="translate(-0.05 -0.06)" class="theme-foreground"/><path d="M214.3,34.2c-2.1,4.6-1.3,23.2,8.3,14.4,2.1-1.9,2.4-8.1,1.6-13.4a58.73,58.73,0,0,0-1.6-6c-.4-1.1.7-3.4,2.5-4a3.18,3.18,0,0,1,3.7,1.8c1,2.4.3,6.3.2,7.9-.3,4.8-1.1,10.6.6,13.7.7,1.3,1.7,1.5,1.8,2.4.1,3.5-4.1,5.8-5.6,3.6-.4-.6-.1-1.5-.7-2-7.9,7.1-16.6,1.5-16.4-8.6,0-2.2-.3-5.8.5-9s1-4.8,2.3-6.1a2.18,2.18,0,0,1,3.1-.1c.6.4.3,3.7-.3,5.4Z" transform="translate(-0.05 -0.06)" class="theme-foreground"/><path d="M249.6,50c1.4-4.8,3.1-12.6,2-15.5S244,28.6,241.1,33c-1.8,2.7-1.9,12.4.4,18.1.6,1.4-.5,3.3-2.2,3.8-6.6,2.2-1.5-16.1-5.3-22-.8-1.3-1.8-1.4-2-2.3-.4-3.4,3.6-5.5,5.4-3.4.5.6.2,1.5.9,1.9,7.3-6.8,18.2-1.7,18.9,8a39.15,39.15,0,0,1-2.6,14.8,9.23,9.23,0,0,1-1.8,3,2.3,2.3,0,0,1-3.1.1c-1.2-.8-.6-3.5-.1-5Z" transform="translate(-0.05 -0.06)" class="theme-foreground"/><path d="M278.7,28.8c.6-5.2-1.6-20.5-5.6-20.9-1.1-.1-1.3-2.7-.6-4.3s2.5-2.1,5.4-.9c4.6,1.9,5,19.4,5.1,24.6s-.2,11.3.6,16.1a17.11,17.11,0,0,0,1.3,4.4c.8,1.9,1.7,3.2,1.1,4.3s-4.8,3.3-6,2.1-1.2-2.3-1.4-4c-6.9,11-18,2.4-19.5-8.3s7.8-22.2,19.6-13.3ZM267.8,49.1c8.7,6.3,11.5-10,7.1-16.1S256.1,40,267.8,49.1Z" transform="translate(-0.05 -0.06)" class="theme-foreground"/><path d="M30.6,15.1c5.4-1.9,7.4-8,7.2-12.3C17.5-6.8-2.9,10.4.4,29.6c1.2,6.9,6,13.5,12.8,15.8-.5.5-1.4,1.8-1.8,2.3,6.5,1.4,11.2,1.2,15.3-.3a19.88,19.88,0,0,0,8.4-5.8A17.64,17.64,0,0,0,39,34.2c.1-.3-.6-1,.5-.5s-.3,4.7-.7,5.7a20.83,20.83,0,0,1-2,3.6,23.63,23.63,0,0,1-8.3,7.4c-5.1,2.8-13.9,3.5-19.4.7S.8,53.1,6,55.8C34.5,67.4,57.8,32.2,30.6,15.1Zm4.2,22.7c-6,9.8-17.9,7.6-24.5.9s-5.9-16.2-1-22.9A28.56,28.56,0,0,1,32,4.5a12.25,12.25,0,0,1,.2,1.9,9.27,9.27,0,0,1-3,7.5l-1.6,1.4C35.3,20.1,39.3,30.5,34.8,37.8Z" transform="translate(-0.05 -0.06)" fill="#96cb4c"/><path d="M8.9,26.1c1.5-14.6,18.3-17.5,24.5,2S6.6,43.7,8.9,26.1Zm13.7,9.6c13.3.5,6.9-13.1-1.8-16.1S7.3,35.7,22.6,35.7Z" transform="translate(-0.05 -0.06)" class="theme-foreground"/></svg>