<svg xmlns="http://www.w3.org/2000/svg" viewBox="0 0 18 18"><defs><linearGradient id="a" x1="767.244" y1="358.964" x2="767.244" y2="332.386" gradientTransform="matrix(.069 0 0 .069 -51.834 -14.764)" gradientUnits="userSpaceOnUse"><stop offset="0" stop-color="#009cdd"/><stop offset="1" stop-color="#88cef2"/></linearGradient></defs><circle cx=".914" cy="9.001" r=".914" fill="url(#a)"/><path d="M9.325 6.828a2.185 2.185 0 1 0 2.182 2.187 2.184 2.184 0 0 0-2.182-2.187zm0 3.27a1.086 1.086 0 1 1 1.085-1.086A1.086 1.086 0 0 1 9.325 10.1zM5.764 9.509a1.085 1.085 0 1 1 0-.994h1.164a2.185 2.185 0 1 0 0 .994zM16.572 6.8a1.422 1.422 0 0 0-1.246.737 1.422 1.422 0 0 0-2.332-.236V7h-1.153v4.02h1.179l-.01-2.422a.666.666 0 0 1 1.331 0v2.422H15.5V8.594a.665.665 0 0 1 1.33 0v2.422H18V8.379v-.15A1.422 1.422 0 0 0 16.575 6.8z" fill="#0061a3"/></svg>