<svg xmlns="http://www.w3.org/2000/svg" viewBox="0 0 32 32"><path d="M2.27,16A13.73,13.73,0,0,0,10,28.35L3.46,10.41A13.68,13.68,0,0,0,2.27,16Z" fill="#00749a"/><path d="M25.27,15.31a7.23,7.23,0,0,0-1.13-3.79A6.43,6.43,0,0,1,22.79,8.3a2.38,2.38,0,0,1,2.3-2.44h.18A13.72,13.72,0,0,0,4.53,8.46l.88,0c1.44,0,3.66-.17,3.66-.17a.57.57,0,0,1,.09,1.13s-.74.09-1.57.13l5,14.87,3-9L13.45,9.56c-.74,0-1.44-.13-1.44-.13A.57.57,0,0,1,12.1,8.3s2.27.17,3.62.17,3.66-.17,3.66-.17a.57.57,0,0,1,.09,1.13s-.75.09-1.57.13l5,14.75,1.37-4.57A16.59,16.59,0,0,0,25.27,15.31Z" fill="#00749a"/><path d="M16.24,17.2l-4.12,12a13.73,13.73,0,0,0,8.44-.22,1.2,1.2,0,0,1-.1-.19Z" fill="#00749a"/><path d="M28,9.41a10.52,10.52,0,0,1,.09,1.41,13,13,0,0,1-1,4.92L22.9,27.86A13.73,13.73,0,0,0,28,9.41Z" fill="#00749a"/><path d="M16,0A16,16,0,1,0,32,16,16,16,0,0,0,16,0Zm0,31.27A15.27,15.27,0,1,1,31.26,16,15.28,15.28,0,0,1,16,31.27Z" fill="#00749a"/></svg>