<svg id="a9072d7f-59b9-4b7e-8374-81cc681d8623" xmlns="http://www.w3.org/2000/svg" viewBox="0 0 128 128"><g opacity="0.1"><path d="M64,0a64,64,0,1,0,64,64A64,64,0,0,0,64,0ZM94.05,101.0355c-.3.145-.597.2995-.9.4375-.9935.454-2.004.85-3.0185,1.2145a28.2785,28.2785,0,0,1-6.007,1.508c-.381.1905-.768.369-1.155.549q-.6487.3007-1.3095.5805c-.271.1155-.5395.2365-.8135.3465a44.8541,44.8541,0,0,1-31.593.7255c-.416-.1455-.833-.2875-1.243-.445a44.422,44.422,0,0,1-5.612-2.627,44.8916,44.8916,0,0,1-3.9715-2.49c-.223-.156-.455-.298-.675-.4575a44.9977,44.9977,0,0,1-16.319-22.352l-.006.0255a44.3929,44.3929,0,0,1-2.231-13.97A44.8939,44.8939,0,0,1,106.618,49.71l-.0039-.0049.0039.0049.075.3035A44.7985,44.7985,0,0,1,108.968,64.1v.0025c0,.1535.002.322,0,.475h-.0005a44.8011,44.8011,0,0,1-2.3535,13.875l-.018-.024c3.812,5.1185,6.3455,8.842,6.3455,8.842S104.332,96.064,94.05,101.0355Z"/></g><path d="M42.398,103.325q-1.061-.5874-2.0827-1.2345l-2.9216,9.66H45.112l.6536-2.1311,1.2329-4.0772A44.95,44.95,0,0,1,42.398,103.325Z" opacity="0.4"/><g opacity="0.3"><path d="M63.9457,114.4H37.525c-.001.0285-.004.0575-.0055.086a39.2655,39.2655,0,0,1-.966,7.339,63.7315,63.7315,0,0,0,27.3922,6.1747Z"/><path d="M63.9728,128,64,128v-.0008Z"/></g><path d="M90.475,114.4H63.9457V128a63.9743,63.9743,0,0,0,27.5008-6.1755,39.3075,39.3075,0,0,1-.9665-7.339C90.479,114.457,90.476,114.428,90.475,114.4Z" opacity="0.4"/><path d="M93.29,116.687c-.116-1.193-.188-2.396-.188-3.612a1.3244,1.3244,0,0,0-1.324-1.3245H36.222a1.3248,1.3248,0,0,0-1.3245,1.3245c0,1.216-.0715,2.419-.188,3.612a36.6431,36.6431,0,0,1-.5995,3.904c.8055.426,1.6175.8405,2.4435,1.2335a39.2655,39.2655,0,0,0,.966-7.339c.0015-.0285.0045-.0575.0055-.086h52.95c.001.0285.004.0575.005.086a39.3075,39.3075,0,0,0,.9665,7.339c.826-.393,1.638-.8075,2.4435-1.2335a36.7717,36.7717,0,0,1-.6-3.904" opacity="0.6"/><g opacity="0.4"><path d="M88.07,103.35a25.564,25.564,0,0,1-3.9458.8458c-.381.1905-.768.369-1.155.549q-.6487.3007-1.3095.5805c-.212.09-.4235.1818-.6362.271l1.27,4.1915.5955,1.963h7.727Z"/></g><path d="M105.9285,64.6005l.0005-.019-.0005.019" fill="#fff"/><path d="M105.929,64.5815l-.0005-.0175.0005.0175" fill="#bbbcbd"/><path d="M101.074,62.5665h0a4.9339,4.9339,0,0,1,.603-1.311c.033-.05.0665-.0965.1015-.144.0665-.09.134-.1775.2055-.2565a2.6044,2.6044,0,0,1,.3315-.308c.0435-.0335.0905-.0565.1345-.0855a1.8454,1.8454,0,0,1,.308-.1635c.045-.0185.0905-.0365.1365-.051a1.37,1.37,0,0,1,.917,0c.046.0145.0915.0325.1365.05a1.8816,1.8816,0,0,1,.3075.164c.045.029.0915.0525.1355.086a2.5936,2.5936,0,0,1,.331.3075c.0715.079.139.167.2065.2575.034.0465.0675.093.1.1425a4.95,4.95,0,0,1,.603,1.311v.001l-2.279-10.4385-2.2795,10.438h.0005" opacity="0.4"/><path d="M62.976,60.202h0l.0225-.005.0065-.0205,4.153-12.701V44.503l-.0005-.0335a35.3934,35.3934,0,0,0-7.125-.735c-.8125,0-1.6185.0345-2.4195.089-.1165.008-.2335.015-.35.024a35.68,35.68,0,0,0-12.0745,3.138,38.6059,38.6059,0,0,0-9.01,5.7735V52.76l-.0045.004c-.731.621-1.4315,1.2765-2.1155,1.9485-.128.125-.258.249-.3845.376q-.966.9735-1.8685,2.0095c-.1305.1505-.259.304-.388.456-.6045.7135-1.1925,1.4405-1.751,2.1915-.0465.063-.09.129-.136.192-.5325.7245-1.04,1.468-1.528,2.224-.0955.1475-.1935.293-.287.442-.395.6265-.7625,1.27-1.1275,1.915H45.5055L62.976,60.202" opacity="0.3"/><path d="M78.9475,58.773q.0577-.7432.0955-1.4865.0517-1.0065.071-2.0145c.01-.5215.0085-1.0435.006-1.565,0-.1505.0035-.301.002-.452-.014-1.344-.0665-2.69-.1485-4.0365l-.0115-.0075-.005-.0095c-.005-.0035-.0245-.0145-.0425-.0245l-.06-.0345c-.247-.142-.854-.4895-1.399-.799l-.035-.02c-.138-.078-.271-.1535-.3915-.2215l-.007-.004c-.104-.0585-.191-.107-.2715-.152l-.0535-.03c-.0885-.049-.157-.086-.1975-.1075q-1.3043-.6765-2.6595-1.25a47.162,47.162,0,0,0-6.682-2.09v3.006L71.2745,60.197l.0045.0105a6.0687,6.0687,0,0,1,1.0835,1.3835v.0005c.096.168.184.3415.2635.519l.005.011a5.7192,5.7192,0,0,1,.211.544l.005.0125q.0915.2783.1565.567l.004.015c.043.1945.0765.393.1005.594l.0015.0085a6.2066,6.2066,0,0,1,.04.6215l.0155.034h5.04a55.0435,55.0435,0,0,0,.7285-5.59c.0035-.0515.01-.103.0135-.1545" opacity="0.1"/><path d="M85.54,54.275l-.009.0175.009-.017" fill="#fcb03f"/><path d="M63.005,60.1765h0a6.1413,6.1413,0,0,1,.873-.682l.0035-.0015a5.976,5.976,0,0,1,.981-.509l.027-.0105a5.9969,5.9969,0,0,1,1.06-.316l.039-.006a5.9244,5.9244,0,0,1,2.293.003l.028.004a5.9815,5.9815,0,0,1,1.079.3255l.0175.0065a6.0738,6.0738,0,0,1,1.8735,1.217l-.0045-.0105L67.158,47.4755l-4.153,12.701" opacity="0.4"/><path d="M61.5425,66.847a5.9413,5.9413,0,0,1-.329-1.087.2138.2138,0,0,1-.0035-.024,6.0009,6.0009,0,0,1-.1155-1.165,6.0663,6.0663,0,0,1,.0335-.629c.005-.0485.0155-.095.0215-.1435.02-.158.0425-.3155.0745-.4695.01-.0445.024-.0875.0335-.1325.037-.1555.076-.311.124-.4625.0105-.0315.0235-.0615.0345-.0935.055-.162.114-.323.1825-.4785.0075-.018.0175-.035.0255-.053.075-.168.1565-.333.2465-.4915l.011-.0185a6.1112,6.1112,0,0,1,1.0945-1.397l-17.47,4.316H45.472l17.304,4.2235a6.0516,6.0516,0,0,1-1.228-1.88l-.0055-.0145" opacity="0.6"/><path d="M100.8515,63.574c.011-.078.0275-.151.041-.227a6.74,6.74,0,0,1,.1625-.7205c.0075-.026.01-.0555.0185-.081l2.2795-10.438,0-5.9515a9.3024,9.3024,0,0,0-5.9335-2.3795,10.26,10.26,0,0,0-6.9,3.2385,25.87,25.87,0,0,0-4.8,6.909c-.0575.1145-.1165.2245-.1735.34q.5782.501,1.1435,1.017c.852.7795,1.6855,1.5795,2.508,2.39.383.378.759.764,1.136,1.1485.4.4075.8.814,1.1945,1.228q.76.7987,1.5055,1.612.3143.342.6255.687c.5995.6635,1.196,1.33,1.7825,2.0055l.001.001c.0985.103.1675.177.194.207h5.153c0-.0415-.0035-.0795-.003-.121a6.909,6.909,0,0,1,.0655-.865" opacity="0.1"/><path d="M85.545,54.291l-.0055-.0155-.009.017.0225.022-.008-.0235" fill="#e3dddb"/><path d="M106.618,49.71a21.8635,21.8635,0,0,0-1.68-2.017l-.0045-.006.0045.006-.0145-.0175c-.256-.277-.5135-.5415-.7755-.7925-.0985-.0945-.2-.177-.3-.2675-.1645-.15-.328-.304-.495-.441v5.9545l2.2795,10.439V62.567c.025.081.055.157.077.241l1.579,1.77h1.68c.002-.153,0-.3215,0-.475V64.1a44.7985,44.7985,0,0,0-2.275-14.087Z" opacity="0.3"/><path d="M79.0005,92.0105a12.84,12.84,0,0,0-.13,1.41,12.3661,12.3661,0,0,0,.4705,3.7955,13.1462,13.1462,0,0,0,.7135,1.9185,14.3257,14.3257,0,0,0,.8875,1.629q.1553.246.313.476c.1575.2295.315.446.4705.6485.2065.27.4055.508.5985.73a12.41,12.41,0,0,0,1.4725,1.462l.0135.0415c.0085.0265.0215.0655.0375.1135.092-.01.184-.0275.276-.04a28.2785,28.2785,0,0,0,6.007-1.508c1.0145-.365,2.025-.76,3.0185-1.2145.3035-.138.6-.2925.9-.4375,10.282-4.9715,18.8915-13.765,18.8915-13.765A56.431,56.431,0,0,1,79.0005,92.0105Z" opacity="0.6"/><path d="M103.78,74.689q-1.2293-1.614-2.482-3.215c-.043-.055-.087-.1095-.13-.1645q-1.3223-1.6822-2.677-3.34l-.0335-.041q-1.3957-1.701-2.8335-3.365c-.0605-.07-.121-.142-.1825-.212-.5865-.6755-1.183-1.342-1.7825-2.0055q-.3113-.3443-.6255-.687-.7455-.8138-1.5055-1.612c-.3945-.4135-.794-.821-1.1945-1.228-.377-.3845-.753-.77-1.136-1.1485-.823-.81-1.656-1.611-2.508-2.39q-.5655-.5168-1.144-1.0175l-.0145.0295A51.1055,51.1055,0,0,1,87.74,61.397q.1807.9487.301,1.8485c1.13,8.4135-1.566,13.907-5.8475,21.1335q-.4613.777-.9445,1.582a17.0665,17.0665,0,0,0-1.97,4.63,13.9761,13.9761,0,0,0-.2785,1.4195,56.431,56.431,0,0,0,33.941-4.74s-2.5335-3.7235-6.3455-8.842q-1.2788-1.7167-2.5775-3.4275c-.079-.1045-.16-.2085-.239-.312" opacity="0.4"/><path d="M38.4265,100.8355c-.223-.156-.455-.298-.675-.4575-.0875-.0636-.1716-.1315-.2587-.1957A55.4676,55.4676,0,0,0,22.2035,112.444a64.1524,64.1524,0,0,0,9.65,6.888q1.371-1.3815,2.856-2.645c.1165-1.193.188-2.396.188-3.612a1.3248,1.3248,0,0,1,1.3245-1.3245h1.1717l2.9216-9.66Q39.3555,101.4851,38.4265,100.8355Z" opacity="0.7"/><path d="M49.253,106.397c-.416-.1455-.833-.2875-1.243-.445-.34-.1306-.6756-.2708-1.0115-.41l-1.2329,4.0772a39.7989,39.7989,0,0,1,6.7139-2.2313C51.3879,107.0952,50.31,106.7677,49.253,106.397Z" opacity="0.7"/><g opacity="0.7"><path d="M80.846,105.6715a44.91,44.91,0,0,1-5.3445,1.7623,49.0752,49.0752,0,0,1,6.87,2.4717l-1.3245-4.32C80.98,105.6142,80.9137,105.6443,80.846,105.6715Z"/></g><path d="M92.913,101.5739c-.9176.41-1.8474.7774-2.782,1.1136-.6971.2505-1.398.47-2.1.6728l.0386-.0106,2.5462,8.4008h1.162a1.3244,1.3244,0,0,1,1.324,1.3245c0,1.216.072,2.419.188,3.612.0054.0552.0151.1094.0208.1646.9337.7826,2.0024,1.6407,2.8357,2.48a64.1524,64.1524,0,0,0,9.65-6.888A55.4346,55.4346,0,0,0,92.913,101.5739Z" opacity="0.7"/><path d="M64.0815,19.1955a44.8858,44.8858,0,0,0-44.886,44.886,44.3929,44.3929,0,0,0,2.231,13.97l.006-.0255q.4275-1.9807,1.024-3.9315.465-1.518,1.031-3.008c.015-.0385.031-.0765.046-.115.331-.8655.6935-1.72,1.074-2.5655.1065-.2355.216-.469.326-.703.312-.664.642-1.319.984-1.968.139-.264.275-.529.419-.79.0795-.1445.1695-.2825.25-.4265.365-.645.7325-1.2885,1.1275-1.915.0935-.15.1915-.2945.287-.442.4885-.756.9955-1.5,1.528-2.224.046-.063.09-.129.136-.192.5585-.751,1.1465-1.478,1.751-2.1915.129-.152.257-.305.388-.456q.903-1.035,1.8685-2.0095c.127-.127.2565-.251.3845-.376.684-.672,1.3845-1.3275,2.1155-1.9485l.0045-.0045a22.9339,22.9339,0,0,1,41.9414-5.0965c.2258.3809.4454.7758.6571,1.1935l.029.0575c.049.097.104.19.152.288l.005.0095.0115.0075A38.6049,38.6049,0,0,1,83.614,52.591q.7357.621,1.446,1.277c.156.143.3165.279.4705.4245l.009-.0175.0055-.012c.053-.1085.0994-.19.1529-.2972.0143-.09.0309-.1777.0458-.2672,1.4991-9.1336,5.553-15.69,10.3288-15.69,3.63,0,6.8465,3.7865,8.84,9.6145l.0205.0625.005.007c.563.6115,1.68,2.017,1.68,2.017A44.9061,44.9061,0,0,0,64.0815,19.1955Z" opacity="0.7"/><path d="M105.857,63.5845c.002.017.007.032.009.049l.006.03v.004a7.4568,7.4568,0,0,1,.0475.7575c.001.0475.009.092.009.139l.0005.0175-.0005.019c-.0005.051-.009.0985-.01.149-.006.2525-.017.503-.0465.743v.0035l-.007.0365c-.002.02-.008.037-.01.056-.036.262-.1411.748-.1411.748l1.5746-1.759-1.579-1.77,0,.0035A6.7823,6.7823,0,0,1,105.857,63.5845Z" opacity="0.6"/><path d="M34.11,120.591a36.6431,36.6431,0,0,0,.5995-3.904q-1.485,1.2608-2.856,2.645C32.5965,119.765,33.347,120.1875,34.11,120.591Z"/><path d="M75.5082,107.432a44.6453,44.6453,0,0,1-23.0287-.0439,39.7989,39.7989,0,0,0-6.7139,2.2313l-.6536,2.1311H82.889l-.5175-1.845A49.2672,49.2672,0,0,0,75.5082,107.432Z"/><polygon points="93.29 116.683 93.29 116.687 93.29 116.683 93.29 116.683"/><path d="M93.29,116.687a36.7717,36.7717,0,0,0,.6,3.904c.763-.4035,1.513-.826,2.2565-1.259-.8333-.84-1.902-1.6978-2.8357-2.48C93.3051,116.7964,93.2954,116.7422,93.29,116.687Z"/><path d="M73.15,64.484a6.2066,6.2066,0,0,0-.04-.6215l-.0015-.0085c-.024-.201-.0575-.3995-.1005-.594l-.004-.015q-.0645-.2887-.1565-.567l-.005-.0125a5.7192,5.7192,0,0,0-.211-.544l-.005-.011c-.08-.1775-.1675-.351-.2635-.519a6.0677,6.0677,0,0,0-2.957-2.601l-.0175-.0065a5.9815,5.9815,0,0,0-1.079-.3255l-.028-.004a5.9244,5.9244,0,0,0-2.293-.003l-.039.006a5.9969,5.9969,0,0,0-1.0595.316l-.027.0105a5.976,5.976,0,0,0-.981.509l-.0035.0015a6.1413,6.1413,0,0,0-.873.682l-.0065.0205-.0225.005a6.1112,6.1112,0,0,0-1.0945,1.397l-.011.0185c-.09.1585-.1715.3235-.2465.4915-.008.018-.018.035-.0255.053-.0685.1555-.1275.3165-.1825.4785-.01.032-.0245.062-.0345.0935-.048.1515-.087.307-.124.4625-.01.045-.024.088-.0335.1325-.032.154-.054.3115-.0745.4695-.006.0485-.0165.095-.0215.1435a6.0663,6.0663,0,0,0-.0335.629,6.0009,6.0009,0,0,0,.1155,1.165.2138.2138,0,0,0,.0035.024,5.9413,5.9413,0,0,0,.329,1.087l.0055.0145a6.0755,6.0755,0,0,0,2.629,2.967l.0075.0045c.162.091.3295.173.5.249.014.006.0275.014.042.02.158.069.3215.1285.486.184.028.01.055.0215.083.0305.152.0485.309.0875.466.1235.0425.01.0835.024.1265.033.1525.0315.3095.053.4675.0735.0475.0055.0945.0165.143.0215a6.0236,6.0236,0,0,0,2.973-.4415,5.95,5.95,0,0,0,1.024-.5555,6.02,6.02,0,0,0,2.659-5c0-.0145-.002-.028-.002-.0415-.0005-.0155-.0025-.03-.003-.0455Zm-6.025-.7065A2.2653,2.2653,0,1,1,69.39,61.512a2.2653,2.2653,0,0,1-2.265,2.2655Z"/><path d="M90.519,47.015a10.26,10.26,0,0,1,6.9-3.2385,9.328,9.328,0,0,1,5.934,2.3975s.3305.2915.495.441c.1.09.2015.173.3.2675.262.251.529.526.785.803l-.0205-.0625c-1.9935-5.828-5.21-9.6145-8.84-9.6145-4.8175,0-8.902,6.67-10.369,15.9285l-.0056.0288A26.1545,26.1545,0,0,1,90.519,47.015"/><path d="M57.2625,43.8475c.117-.009.234-.016.35-.024.801-.0545,1.607-.089,2.4195-.089a35.3934,35.3934,0,0,1,7.125.735h.0005a47.162,47.162,0,0,1,6.682,2.09q1.3538.5715,2.6595,1.25c.0405.0215.109.059.1975.1075l.0535.03c.0805.045.1685.0935.2715.152l.007.004c.121.0685.253.1435.3915.2215l.035.02c.553.3135,1.165.665,1.399.799l.06.0345.0425.0245c-.048-.098-.103-.191-.152-.288l-.029-.0575a23.3687,23.3687,0,0,0-8.587-9.349A22.8892,22.8892,0,0,0,36.1775,52.759a38.6059,38.6059,0,0,1,9.0105-5.7735,35.68,35.68,0,0,1,12.0745-3.138"/><path d="M105.855,65.5885c.0045-.033.013-.0625.0175-.096.0295-.24.04-.4905.0465-.743.0005-.057.01-.1105.01-.168,0-.0535-.008-.1035-.009-.1565a7.4568,7.4568,0,0,0-.0475-.7575c-.004-.029-.0115-.0545-.015-.083a6.7823,6.7823,0,0,0-.147-.773c-.022-.086-.0525-.1625-.078-.2455a4.95,4.95,0,0,0-.603-1.311q-.0495-.0735-.1-.1425c-.0675-.09-.135-.1785-.2065-.2575a2.5962,2.5962,0,0,0-.331-.3075c-.044-.0335-.0905-.057-.1355-.086a1.8816,1.8816,0,0,0-.3075-.164c-.045-.018-.09-.036-.1365-.05a1.37,1.37,0,0,0-.917,0c-.046.0145-.0915.0325-.1365.051a1.8651,1.8651,0,0,0-.308.1635c-.044.029-.091.052-.1345.0855a2.6412,2.6412,0,0,0-.3315.308c-.0715.079-.139.167-.2055.2565-.035.047-.0685.0945-.1015.144a4.9339,4.9339,0,0,0-.603,1.311c-.006.02-.013.04-.019.06a6.74,6.74,0,0,0-.1625.7205c-.013.076-.0305.149-.041.227a6.909,6.909,0,0,0-.0655.865c-.0005.041-.007.08-.007.121h.01c0,2.438,1.1535,4.414,2.576,4.414a1.6005,1.6005,0,0,0,.705-.1735c.036-.018.0715-.0365.107-.057a2.0845,2.0845,0,0,0,.272-.1825c.0485-.039.094-.086.1405-.13a2.9408,2.9408,0,0,0,.324-.3595c.071-.0935.141-.187.206-.2915.0415-.0665.0795-.1385.118-.21a4.6317,4.6317,0,0,0,.2015-.4185c.023-.053.0465-.1045.0675-.159a5.8666,5.8666,0,0,0,.205-.647,6.8668,6.8668,0,0,0,.1435-.7575Zm-2.41-1.5945c-.5335,0-.966-.7415-.966-1.6555s.4325-1.655.966-1.655.9655.7415.9655,1.655-.432,1.6555-.9655,1.6555Z"/><path d="M83.797,104.08a12.41,12.41,0,0,1-1.4725-1.462c-.193-.222-.392-.4595-.5985-.73-.1555-.2025-.313-.419-.4705-.6485q-.1575-.23-.313-.476a14.3257,14.3257,0,0,1-.8875-1.629,13.1462,13.1462,0,0,1-.7135-1.9185,12.3661,12.3661,0,0,1-.4705-3.7955,12.84,12.84,0,0,1,.13-1.41,13.9761,13.9761,0,0,1,.2785-1.4195,17.0665,17.0665,0,0,1,1.97-4.63q.4837-.8055.9445-1.582c4.2815-7.2265,6.9775-12.72,5.8475-21.1335q-.1215-.9015-.301-1.8485c.0154.0809.0275.1591.0423.2394-.0437.2581-.1961.685-.2393.8891-.0065.031-.013.0595-.02.09-.0425.1935-.0865.3655-.13.496-1.8605,5.505-4.953,9.784-9.1655,14.3565-.571.62-1.1695,1.248-1.781,1.8825-1.03,1.0675-2.11,2.158-3.253,3.295q-.6833.68-1.394,1.3825c-.434.43-1.005,1.016-1.65,1.6935-.398,1.1145-.85,2.3715-1.233,3.6935-.1725-.0655-.337-.124-.5125-.192A59.9039,59.9039,0,0,1,54.74,81.8275,59.9116,59.9116,0,0,0,66.059,92.47a23.0322,23.0322,0,0,0,2.0295,1.314c-.293,4.638,1.753,9.09,10.9885,10.4185a18.75,18.75,0,0,0,4.771.0325c-.016-.048-.029-.087-.0375-.1135Z"/><path d="M87.5225,62.615c.007-.03.0135-.0585.02-.09.0432-.2041.1956-.631.2393-.8891-.0148-.08-.0269-.1585-.0423-.2394a51.1055,51.1055,0,0,0-2.209-7.1045c-.154-.1455-.3145-.2815-.4705-.4245q-.71-.6562-1.446-1.277a38.6447,38.6447,0,0,0-4.6405-3.3725c.082,1.347.1345,2.6925.1485,4.0365.002.151-.002.3015-.002.452.0025.5215.004,1.0435-.006,1.565q-.02,1.0073-.071,2.0145-.0383.744-.0955,1.4865c-.004.0515-.01.103-.0135.1545a55.0435,55.0435,0,0,1-.7285,5.59l-.592,2.7995c-1.2365,5.013-3.748,9.56-5.813,14.255-.5475,1.245-1.067,2.504-1.5225,3.7865-.0415.1175-.086.241-.129.362.645-.6775,1.216-1.2635,1.65-1.6935q.71-.7028,1.394-1.3825c1.143-1.137,2.223-2.2275,3.253-3.295.6115-.6345,1.21-1.263,1.781-1.8825C82.44,72.895,85.532,68.616,87.3925,63.111,87.436,62.9805,87.48,62.8085,87.5225,62.615Z" opacity="0.3"/></svg>