<svg id="aee0bfaa-96fe-4908-b408-85b43cb95e9e" data-name="svg2" xmlns="http://www.w3.org/2000/svg" viewBox="0 0 3889.448 2166.949"><g id="ef892545-1844-4622-aa3a-6691089751be" data-name="g5"><path id="bc3be91f-b168-4fa0-ace5-04ddc50e9739" data-name="path14" d="M2889.39,6.348l-2.04-4.07a5.287,5.287,0,0,0-4.06-2.04l-4.08,1.03c-2.03,2.03-3.05,3.05-3.05,5.08L2789.64,1572.7l13.24-2.035,83.46-1523.7,99.75,163.88h-1.02q112.98,332.82,94.66,708.41l6.11,9.16,98.73,175.06,6.1,6.11q227.49,200,509.94,268.707l45.8,74.309,6.11,2.031,1.02-2.031L2887.35,35.768l2.04-29.52" transform="translate(-0.472 -0.238)" fill="#ccc"/><path id="b95ae38c-5357-4307-ab2f-f939b759a66d" data-name="path18" d="M2858.86,559.028q160.3,328.26,117.05,992.392l416.29-50.894Z" transform="translate(-0.472 -0.238)" fill="#ccc"/><path id="b7f8ff52-0270-41c0-b979-dec1872f6324" data-name="path20" d="M3807.48,1520.881q64.11-7.629,82.44-27.476L1711.76,1759.061h-1.02c1.02,90.586,41.73,161.836,121.12,212.723a259.764,259.764,0,0,0,64.12,33.59c19.34-22.387,40.72-38.676,66.17-53.946h1.01q342-207.633,1014.78-65.136l5.09,1.011c48.86,10.18,97.71,22.4,143.52,36.645,13.22,2.035,24.42-2.035,33.58-10.18,16.29-12.215,36.65-21.375,64.13-27.476v-1.02c72.27-128.25,169.97-222.906,292.12-285,84.48-41.727,182.19-69.215,291.1-79.395" transform="translate(-0.472 -0.238)" fill="#ccc"/><path id="bead6fd7-b414-44b2-a70c-4f727c4a8cbb" data-name="path22" d="M2761.15,1560.585,2860.89,31.8Q2644.1,868.453,2165.71,1594.167l595.44-33.582" transform="translate(-0.472 -0.238)" fill="#ccc"/><path id="b4d66cbc-5a97-4f05-b68c-b8a7352bf8c6" data-name="path24" d="M2200.32,329.008l-4.07-2.04-4.07,1.02-2.04,5.08L2107.7,1656.256l12.21-1.019,82.45-1322.169-2.04-4.06" transform="translate(-0.472 -0.238)" fill="#ccc"/><path id="a8a6ff37-4cd1-449f-922a-1c6957071400" data-name="path26" d="M2084.29,1627.756h0l87.53-1290.608L1710.74,1667.456l373.55-39.7" transform="translate(-0.472 -0.238)" fill="#ccc"/></g><g id="b8edd873-6a6d-4710-b547-908b14819bb3" data-name="g13"><path id="ba9fe020-269a-4453-a474-dde456de89f2" data-name="path34" d="M2102.61,2057.953c-115.02,54.961-198.48,64.121-251.41,30.539q-79.4-53.437-244.28,24.422" transform="translate(-0.472 -0.238)" fill="none" stroke="#ccc" stroke-linecap="round" stroke-linejoin="round" stroke-width="12"/><path id="ea9105b5-684f-4b7b-9b26-710388cd361c" data-name="path36" d="M2372.33,2066.093a298.2,298.2,0,0,0-69.21-14.25c-49.87-4.066-109.93,15.27-180.16,57-70.23,42.746-154.71,59.035-255.48,49.871" transform="translate(-0.472 -0.238)" fill="none" stroke="#ccc" stroke-linecap="round" stroke-linejoin="round" stroke-width="12"/><path id="baebe72d-f03a-4c75-a661-3fdbe29a03e4" data-name="path38" d="M3000.34,1962.273q-726.75-149.613-1047.35,71.25" transform="translate(-0.472 -0.238)" fill="none" stroke="#ccc" stroke-linecap="round" stroke-linejoin="round" stroke-width="12"/><path id="b52b749c-e296-4ae2-8393-7b015714a57c" data-name="path40" d="M3305.69,2010.117a220.579,220.579,0,0,0-69.22-14.254c-49.87-4.067-109.92,15.269-180.15,57s-154.71,58.011-255.48,49.871" transform="translate(-0.472 -0.238)" fill="none" stroke="#ccc" stroke-linecap="round" stroke-linejoin="round" stroke-width="12"/><path id="f3bc81c4-141e-419a-ac36-be2f6c8dd226" data-name="path42" d="M2655.29,341.218c-49.88-30.54-101.78-22.39-155.73,25.44-46.82-47.83-95.67-55.98-146.57-25.44" transform="translate(-0.472 -0.238)" fill="none" stroke="#ccc" stroke-linecap="round" stroke-linejoin="round" stroke-width="29"/><path id="aebc9efa-f795-4d60-8eef-d4a287846b49" data-name="path44" d="M2542.31,170.218c-50.89-30.53-100.76-18.32-151.66,36.64-49.88-54.96-100.76-67.17-151.66-36.64" transform="translate(-0.472 -0.238)" fill="none" stroke="#ccc" stroke-linecap="round" stroke-linejoin="round" stroke-width="29"/></g><g id="aa26410e-ecc5-4411-a1c9-366b1e8e2a55" data-name="g33"><path id="a52cb886-8ed3-4128-8442-f8d07fbca4d2" data-name="path66" d="M56.77,1763.86H191.685q60.807,0,89.3,34.615t18.485,96.488a162.241,162.241,0,0,1-14.637,46.593,150,150,0,0,1-27.846,38.758q-20.577,21.1-46.078,30.23t-65.23,9.123H85.588l-14.952,92.516H.472l56.3-348.323Zm61.253,55.105-23.613,146.1h42.675q42.431,0,62.9-17.338T226.974,1890q6.3-38.952-7.3-54.994T166.1,1818.965H118.023" transform="translate(-0.472 -0.238)" fill="#6c78af"/><path id="a1d41fed-b50c-490a-a53d-ce51f5ec4118" data-name="path68" d="M378.242,1671.345h69.635l-14.952,92.515h61.95q58.485,0,81.076,22.157t14.643,71.433l-26.221,162.217H493.684l24.953-154.389q4.263-26.326-4.124-35.815t-35.069-9.487H423.865l-32.274,199.692H321.944l56.3-348.323" transform="translate(-0.472 -0.238)" fill="#6c78af"/><path id="b47749ca-6b13-46f1-8dfa-db7215d84835" data-name="path70" d="M666.438,1763.86H801.351q60.821,0,89.3,34.615t18.49,96.488a162.486,162.486,0,0,1-14.633,46.593,150.329,150.329,0,0,1-27.851,38.758q-20.583,21.1-46.081,30.23t-65.235,9.123H695.26l-14.952,92.516H610.147l56.291-348.323Zm61.26,55.105-23.613,146.1H746.76q42.431,0,62.889-17.338t27-57.735q6.291-38.952-7.3-54.994t-53.568-16.036H727.7" transform="translate(-0.472 -0.238)" fill="#6c78af"/></g><g id="addcfad2-831e-4b19-87df-7faff391a7a7" data-name="g65"><path id="bebf7e87-6fdd-4a78-8829-f5c94c544ffd" data-name="path72" d="M1027.749,1597.324H1162.7l59.281,323.869,163.973-323.869h134.433l-68.2,422.055h-90.1l60.562-328.744-165.335,328.744h-97.63L1097.59,1687.19l-44.469,332.189H959.537l68.212-422.055" transform="translate(-0.472 -0.238)" fill="#f89c0e"/><path id="f585da52-7c87-47ac-aaf9-4c791a0721ea" data-name="path74" d="M1682.335,1951.079h68.129l39.048-241.656h84.693l-48.747,301.634q-9.927,61.513-44.451,91.124t-95.751,29.6H1519.179L1529.33,2069h151.5q24.386,0,39.322-11.39,14.916-11.406,18.427-33.034l.844-5.194h-74.965q-71.927,0-98.093-27.421t-15.83-91.453l30.891-191.082h83.737L1635.3,1894.188q-5.663,35.059,3.434,45.975t43.6,10.916" transform="translate(-0.472 -0.238)" fill="#f89c0e"/><path id="b7b7650b-154d-4da3-96d6-4001bd9cf83a" data-name="path76" d="M2102.3,1597.324h97.52l118.188,422.055H2215.738l-23.907-100.46H2001.876l-55.187,100.46h-97.532L2102.3,1597.324Zm31.651,83.806-90.181,162.444h130.219l-40.038-162.444" transform="translate(-0.472 -0.238)" fill="#f89c0e"/><path id="b2e6a77d-5c09-42df-938f-a2d5c0e69eaf" data-name="path78" d="M2637.3,2019.379h-162.7q-73.747,0-108.32-41.941t-22.431-116.913a196.449,196.449,0,0,1,17.751-56.446,181.884,181.884,0,0,1,33.76-46.972q24.942-25.561,56.03-36.623t78.96-11.061h72.662l18.113-112.1h84.387L2637.3,2019.379Zm-73.638-66.463,28.57-176.724h-51.223q-51.528,0-76.487,20.832-24.933,20.84-32.8,69.4-7.619,47.134,9.006,66.813t64.865,19.683h58.071" transform="translate(-0.472 -0.238)" fill="#f89c0e"/><path id="fe95f55e-ff17-47e7-a0cc-53efff472d73" data-name="path80" d="M2761.023,1709.423h325.233q70.733,0,97.626,26.7,26.87,26.7,17.19,86.7L3169.3,2019.379h-85.33l30.043-185.926q5.535-34.191-3.383-45.115-8.949-10.917-42.181-10.92h-47.51l-39.107,241.961h-86.6l39.107-241.961h-98.978l-39.107,241.961h-85.33l50.1-309.956" transform="translate(-0.472 -0.238)" fill="#f89c0e"/><path id="aa9976c7-696f-4d7c-87a4-bd43c441f410" data-name="path82" d="M3389.652,1674.2H3300.83l12.423-76.877h88.821Zm-55.793,345.178h-88.821l50.089-309.956h88.822l-50.09,309.956" transform="translate(-0.472 -0.238)" fill="#f89c0e"/><path id="b68c8857-89a9-4a5c-bc31-267a381ceab0" data-name="path84" d="M3457.211,1709.423h159.352q72.24,0,98.912,26.269t16.836,87.132l-31.76,196.555h-84.7l30.152-186.5q5.613-34.773-3.873-45.111t-43.087-10.351h-68.117l-39.107,241.962h-84.693l50.09-309.956" transform="translate(-0.472 -0.238)" fill="#f89c0e"/></g></svg>