<svg xmlns="http://www.w3.org/2000/svg" viewBox="0 0 677.243 207.495"><path d="M30.125,128.322c14.814,2.062,27.667-1.373,38.262-10.791l17.659.981-9.614,28.157c-10.694,16.973-26.1,20.5-41.99,19.523l-4.317-37.771Z" fill="#7eaab9"/><path d="M36.7,134.7l2.943,25.8c13.146-.1,23.742-4.416,31.59-16.385l6.966-20.21-7.751-.392A49.371,49.371,0,0,1,36.8,134.7Z" fill="#d3e8ef"/><path d="M36.7,134.7l1.765,15.305c18.15-2.158,32.278-9.613,39.636-26.1l-7.751-.392A49.373,49.373,0,0,1,36.7,134.7Z" fill="#fff"/><path d="M34.442,106.151a30.021,30.021,0,1,1-30.02,30.02A30.02,30.02,0,0,1,34.442,106.151Z" fill="#7eaab9"/><path d="M34.442,112.037a24.037,24.037,0,1,0,24.036,24.038A24.012,24.012,0,0,0,34.442,112.037Z" fill="#d3e8ef"/><path d="M34.442,112.037a23.856,23.856,0,0,0-19.719,10.3A24.136,24.136,0,0,0,38.759,144.9a23.86,23.86,0,0,0,19.719-10.3A24.137,24.137,0,0,0,34.442,112.037Z" fill="#fff"/><path d="M31.3,110.468A22.369,22.369,0,1,1,8.935,132.837,22.359,22.359,0,0,1,31.3,110.468Z" fill="#7eaab9"/><path d="M29.733,104.483A22.467,22.467,0,1,1,7.267,126.949,22.526,22.526,0,0,1,29.733,104.483Z" fill="#7f401c"/><path d="M31.892,113.116a17.856,17.856,0,1,0,17.855,17.856A17.857,17.857,0,0,0,31.892,113.116Z" fill="#b85c28"/><path d="M18.451,86.334c.393-12.559,19.131-13.344,19.621,0,5.495-9.223,22.662-4.121,17.267,10.3.3,1.178.491,2.257.686,3.432,9.321.492,12.362,15.11-.391,19.622a28.009,28.009,0,0,1-5,10.3c-10.988,9.42-14.52,1.67-20.406-4.707-5.69.2-21.387-3.925-16.973,10.793C3.244,129.794-3.231,116.845,1.675,97.813c-6.77-15.306,11.086-21,16.776-11.577Z" fill="#7f401c"/><path d="M7.66,99.971c-2.355,9.221-2.454,19.62,4.12,27.078,9.222,10.5,27.862,10.007,35.024-3.238,3.826-7.164,3.629-16.091,1.962-23.939-13.638-2.943-27.568-2.453-41.2.195Z" fill="#b85c28"/><path d="M7.66,99.971c-2.355,9.221-2.454,19.62,4.12,27.078a22.246,22.246,0,0,0,16.481,7.356V97.813A122.073,122.073,0,0,0,7.66,99.971Z" fill="#e1762e"/><path d="M16.685,107.034c-1.275,5.1-1.374,10.988,2.355,15.108,5.1,5.887,15.5,5.593,19.523-1.865,2.158-4.02,2.06-8.926,1.079-13.341A56.538,56.538,0,0,0,16.685,107.034Z" fill="#7f401c"/><path d="M47,86.334a5.2,5.2,0,1,1-5.2,5.2A5.234,5.234,0,0,1,47,86.334ZM28.164,92.906a5.2,5.2,0,0,0,0-10.4v10.4Z" fill="#b85c28"/><path d="M28.164,92.906v-10.3a5.2,5.2,0,1,0,0,10.4ZM10.406,86.922a5.2,5.2,0,1,1-5.2,5.2A5.234,5.234,0,0,1,10.406,86.922Z" fill="#e1762e"/><path d="M52.788,105.169a5.2,5.2,0,1,1-5.2,5.2A5.235,5.235,0,0,1,52.788,105.169Z" fill="#b85c28"/><path d="M231.243,166.585c-1.178-15.6-8.241-26.783-22.172-32.865l2.748-10.793,22.368-5.984c19.522,5.885,27.175,18.347,30.9,34.042l-33.749,15.7Z" fill="#7eaab9"/><path d="M235.854,158.05l22.27-10.4c-3.924-13.048-10.4-21.487-24.133-24.823l-17.463,4.71-.785,2.943c10.888,6.18,17.365,15.6,20.013,27.471Z" fill="#fff"/><path d="M209.661,169.233a29.132,29.132,0,1,1,36.789,18.541A29.114,29.114,0,0,1,209.661,169.233Z" fill="#7eaab9"/><path d="M214.467,167.565a24.074,24.074,0,1,0,15.3-30.412A23.977,23.977,0,0,0,214.467,167.565Z" fill="#d3e8ef"/><path d="M261.165,156.774a22.788,22.788,0,0,0-.981-4.318,23.978,23.978,0,0,0-30.412-15.3,23.042,23.042,0,0,0-9.811,6.18,22.831,22.831,0,0,0,.981,4.318,24.018,24.018,0,0,0,30.413,15.3A22.979,22.979,0,0,0,261.165,156.774Z" fill="#fff"/><path d="M204.166,176.69A27.488,27.488,0,1,1,238.9,194.153,27.421,27.421,0,0,1,204.166,176.69Z" fill="#7f401c"/><path d="M209.758,174.923a21.593,21.593,0,1,1,27.274,13.736A21.605,21.605,0,0,1,209.758,174.923Z" fill="#b85c28"/><path d="M208.875,164.72a21.629,21.629,0,0,1,41.891-3.432,21.089,21.089,0,0,1,1.08,5.395c-13.932,8.83-32.18,6.867-42.971-2.061Z" fill="#e1762e"/><path d="M109.1,0c10.988,0,19.817,9.418,19.817,21S120.089,41.989,109.1,41.989,89.284,32.572,89.284,21,98.113,0,109.1,0Z" fill="#7f401c"/><path d="M109.1,5.789c-8.143,0-14.029,7.26-14.029,15.206,0,7.848,5.886,15.207,14.029,15.207S123.13,28.942,123.13,21C123.13,13.146,117.244,5.789,109.1,5.789Z" fill="#b85c28"/><path d="M109.1,11.577c-5,0-8.241,4.709-8.241,9.418,0,4.611,3.335,9.419,8.241,9.419,5,0,8.241-4.709,8.241-9.419C117.342,16.383,114.006,11.577,109.1,11.577Z" fill="#623214"/><path d="M193.373,0c10.989,0,19.819,9.418,19.819,21s-8.83,20.994-19.819,20.994S173.557,32.572,173.557,21,182.386,0,193.373,0Z" fill="#7f401c"/><path d="M193.373,5.789c-8.142,0-14.028,7.26-14.028,15.206,0,7.848,5.886,15.207,14.028,15.207S207.4,28.942,207.4,21C207.4,13.146,201.517,5.789,193.373,5.789Z" fill="#b85c28"/><path d="M193.373,11.577c-5,0-8.24,4.709-8.24,9.418,0,4.611,3.336,9.419,8.24,9.419,5,0,8.243-4.709,8.243-9.419C201.616,16.383,198.28,11.577,193.373,11.577Z" fill="#4d2c11"/><path d="M143.243,9.811a6.279,6.279,0,1,1-6.28,6.278A6.322,6.322,0,0,1,143.243,9.811Zm15.99,0a6.279,6.279,0,1,1-6.278,6.278A6.323,6.323,0,0,1,159.233,9.811Z" fill="#7f401c"/><path d="M224.473,36.005V75.052l.393.1a14.451,14.451,0,0,1,9.321,13.637v28.058l-82.9,27.371-82.9-26.685V88.787a14.452,14.452,0,0,1,9.32-13.637l.393-.1V35.906c0-26.979,146.373-26.979,146.373,0Z" fill="#7f401c"/><path d="M84.673,37.477V79.564l-3.434,1.373a9.573,9.573,0,0,0-6.181,9.124v29.628l76.229,24.527L227.516,119.1V90.061a9.667,9.667,0,0,0-6.182-9.124L217.9,79.564V37.477c0-20.015-133.13-20.015-133.13,0Z" fill="#b85c28"/><path d="M84.673,37.477V79.564l-3.434,1.373a9.573,9.573,0,0,0-6.181,9.124v29.628l76.229,24.527V128.127c-26.391.1-52.781-17.169-45.816-51.408h45.816V22.564c-33.258,0-66.614,5-66.614,15.011Z" fill="#e1762e"/><path d="M101.841,67.792h99.087C214.957,142.157,86.732,141.567,101.841,67.792Z" fill="#e5895b"/><path d="M106.747,73.58c-1.374,11.478,1.079,22.564,9.614,31.2,9.026,9.026,22.663,12.95,35.219,12.852,12.069-.1,24.92-3.923,33.848-12.46,8.927-8.633,11.674-19.817,10.5-31.589Z" fill="#e5895b"/><path d="M167.867,108.31c6.671,8.633,26.1,5.1,20.307-13.147Z" fill="#f9d395"/><path d="M161.784,106.446c7.457,9.613,31.787,3.924,26.2-16.874Z" fill="#4d2c11"/><path d="M168.259,101.442a3.01,3.01,0,1,1-1.864,3.63A2.918,2.918,0,0,1,168.259,101.442Zm15.894-10.988a2.87,2.87,0,0,1,3.433,2.158,2.936,2.936,0,0,1-1.864,3.63,2.87,2.87,0,0,1-3.434-2.158A2.936,2.936,0,0,1,184.153,90.454Z" fill="#fff"/><path d="M178.071,110.075c5.3-1.765,9.908-5.985,10.692-12.754C184.446,96.733,176.991,103.011,178.071,110.075Z" fill="#ae6252"/><path d="M112.044,67.792h78.583C201.713,120.867,100.075,120.377,112.044,67.792Z" fill="#f9d395"/><path d="M151.287,98.008a18.6,18.6,0,0,1,3.728-8.829c9.418-1.471,17.561-8.633,15.01-21.486a56.506,56.506,0,0,0-18.64-3.237l-3.826,12.165,3.826,21.485Z" fill="#4d2c11"/><path d="M151.287,98.008a18.6,18.6,0,0,0-3.728-8.829c-9.418-1.471-17.562-8.633-15.011-21.486a56.507,56.507,0,0,1,18.641-3.237V98.008Z" fill="#623214"/><path d="M137.356,69.558a53.66,53.66,0,0,1,27.861,0C169.141,79.27,133.137,79.171,137.356,69.558Z" fill="#ae6252"/><path d="M136.276,42.578a10.5,10.5,0,1,1-10.5,10.5A10.51,10.51,0,0,1,136.276,42.578Z" fill="#fff"/><path d="M137.061,46.209a7.848,7.848,0,1,1-7.848,7.847A7.872,7.872,0,0,1,137.061,46.209Z" fill="#1b1d23"/><path d="M166.493,42.578a10.5,10.5,0,1,0,10.5,10.5A10.51,10.51,0,0,0,166.493,42.578Z" fill="#fff"/><path d="M165.707,46.209a7.848,7.848,0,1,0,7.85,7.847A7.87,7.87,0,0,0,165.707,46.209Z" fill="#1b1d23"/><path d="M143.928,39.144c-8.339-1.569-15.5-.1-21.779,3.827C119.893,30.118,141.575,26.293,143.928,39.144Z" fill="#623214"/><path d="M156.682,32.669c8.34-1.568,15.5-.1,21.78,3.827C180.718,23.643,159.038,19.817,156.682,32.669Z" fill="#4d2c11"/><path d="M234.088,116.943v80.742a9.838,9.838,0,0,1-9.81,9.81H78.1a9.839,9.839,0,0,1-9.811-9.81V117.629l82.9,19.819Z" fill="#7eaab9"/><path d="M227.516,125.38l-76.229,18.836L74.96,125.969v69.95a4.858,4.858,0,0,0,4.905,4.9H222.61a4.857,4.857,0,0,0,4.906-4.9Z" fill="#d3e8ef"/><path d="M151.287,144.216,75.058,125.969v69.95a4.858,4.858,0,0,0,4.906,4.9h71.323Z" fill="#fff"/><path d="M151.287,164.034H215.35v8.633H151.287Zm0,17.758H215.35v8.633H151.287Z" fill="#086bab"/><path d="M87.223,164.034h64.064v8.633H87.223v-8.633Zm64.064,26.391v-8.633H87.223v8.633Z" fill="#3c94d1"/><polygon points="113.222 158.442 121.267 158.442 121.267 197.585 113.222 197.585 113.222 158.442" fill="#fff"/><path d="M90.657,122.927c20.21,4.808,40.42,9.713,60.532,14.521L129.6,157.853C115.576,149.612,101.743,140.487,90.657,122.927Z" fill="#7eaab9"/><path d="M107.826,133.817a113.453,113.453,0,0,0,20.9,15.795l9.124-8.632C127.839,138.626,117.833,136.171,107.826,133.817Z" fill="#fff"/><path d="M211.819,122.927c-20.211,4.808-40.42,9.713-60.532,14.521l21.584,20.405C186.9,149.612,200.733,140.487,211.819,122.927Z" fill="#7eaab9"/><path d="M194.65,133.817a113.46,113.46,0,0,1-20.9,15.795l-9.124-8.632C174.636,138.626,184.643,136.171,194.65,133.817Z" fill="#fff"/><path d="M304.2,149.965a2.813,2.813,0,0,0-.216.575,2.915,2.915,0,0,1-.215.575l.143-.143a17.362,17.362,0,0,1-1.15,2.948,3.762,3.762,0,0,1-2.157,1.654,21.8,21.8,0,0,1-2.805.215q-2.085.072-6.112.36a13.716,13.716,0,0,1-2.8-3.236,12.766,12.766,0,0,1-1.8-3.81q-1.008-3.594-2.229-8.126t-2.588-9.492q-1.37-4.961-2.805-10.211t-2.732-10.138q-2.448-9.06-3.955-14.525a50.2,50.2,0,0,0-2.229-6.9q1-1.726,4.315-2.661a39.194,39.194,0,0,1,9.923-.935,5.909,5.909,0,0,1,1.8,2.23,12.748,12.748,0,0,1,.935,2.66q1.868,8.342,4.17,17.545.718,2.879,1.223,5.753t1.079,5.321q.571,3.164,1.006,5.106t.719,3.378q.287,1.44.5,2.517t.648,2.517q.717-2.73,1.653-6.9t2.086-8.772q.285-1.294,1.223-4.89t1.869-7.694q.933-4.1,1.8-7.694t1.15-4.89a3.34,3.34,0,0,0,.287-1.15v-1.87a8.4,8.4,0,0,1,1.654-.647,26.935,26.935,0,0,1,3.38-.863c1.244-.238,2.517-.431,3.811-.575a8.147,8.147,0,0,1,2.948.072,7.423,7.423,0,0,1,1.654,2.373,27.287,27.287,0,0,1,1.078,3.523q1.15,5.178,2.661,11.362t3.092,12.943q.573,2.447,1.006,4.745t1.007,4.459q.432,1.87.648,2.732c.143.576.262,1.006.359,1.294a6.03,6.03,0,0,1,.216.864,14.354,14.354,0,0,0,.359,1.437q1.435-5.176,2.805-11.721t2.948-13.734q1.293-5.318,2.3-9.851t1.725-8.269a1.913,1.913,0,0,0,.144-1.006,4.994,4.994,0,0,1,.72-1.438,3.065,3.065,0,0,1,1.582-.791c.478-.048,1.006-.073,1.581-.073s1.366.05,2.373.144,2.013.216,3.02.36,1.892.265,2.66.36a5.939,5.939,0,0,1,1.439.287,1.867,1.867,0,0,1,.647.719c.144.288.263.528.36.719a5.022,5.022,0,0,1-.073,1.87q-.214,1.008-.647,2.588l-.575,1.438.144-.143q-1.295,4.314-2.732,9.635t-3.021,11.073q-2.445,8.919-4.961,18.192t-4.818,16.611a2.813,2.813,0,0,0-.216.575,2.915,2.915,0,0,1-.215.575l.144-.143a12.351,12.351,0,0,1-1.007,2.948,3.762,3.762,0,0,1-2.157,1.654,22.439,22.439,0,0,1-2.876.215q-2.157.072-6.041.36a13.716,13.716,0,0,1-2.8-3.236,16.717,16.717,0,0,1-1.941-3.81q-.432-1.581-.935-3.38c-.338-1.2-.647-2.324-.935-3.38-.194-.766-.36-1.46-.5-2.085a11.564,11.564,0,0,0-.5-1.654q-1.293-5.463-2.733-11.792t-2.587-11.793q-1.3,5.752-3.021,12.44t-3.308,12.583Z" fill="#b85a1b"/><path d="M372.366,182.467a9.226,9.226,0,0,1-3.092,1.007,26.283,26.283,0,0,1-4.962.431,27.671,27.671,0,0,1-5.752-.719,44.178,44.178,0,0,1-.36-5.465q-.073-3.6-.072-9.06v-66.3a36.221,36.221,0,0,0-.431-5.9,31.367,31.367,0,0,0-1.151-4.746,5.619,5.619,0,0,1,2.229-1.941q1.51-.789,3.811-1.8a12.18,12.18,0,0,1,1.294-.288h.575a5.518,5.518,0,0,1,3.308.935,7.572,7.572,0,0,1,2.014,2.085,45.554,45.554,0,0,1,8.629-4.314,37.239,37.239,0,0,1,4.242-1.15,23.114,23.114,0,0,1,4.674-.432,28.644,28.644,0,0,1,10,1.726,20.962,20.962,0,0,1,8.2,5.537,26.839,26.839,0,0,1,5.537,9.779,45.028,45.028,0,0,1,2.013,14.309q0,13.521-3.6,22a32.635,32.635,0,0,1-9.348,13.087,20.441,20.441,0,0,1-7.91,4.386,29.981,29.981,0,0,1-7.765,1.079q-7.048,0-11.218-2.446v24.88a14.779,14.779,0,0,1-.287,2.876Zm9.922-36.672a11.471,11.471,0,0,0,4.89-1.223,12.153,12.153,0,0,0,4.746-4.458,29.144,29.144,0,0,0,3.6-8.772,57.8,57.8,0,0,0,1.438-14.166q0-11.073-3.307-15.82a10.734,10.734,0,0,0-9.348-4.745,12.809,12.809,0,0,0-6.04,1.51,26.371,26.371,0,0,0-5.034,3.379v40.412a14.093,14.093,0,0,0,4.027,2.733A11.694,11.694,0,0,0,382.288,145.795Z" fill="#b85a1b"/><path d="M459.082,55.768a2.754,2.754,0,0,1,.647,1.366,13.861,13.861,0,0,1,.072,1.511c-.1.48-.193.934-.288,1.366a14.547,14.547,0,0,1-.575,1.8,9.221,9.221,0,0,1-1.582,2.733,4.116,4.116,0,0,1-3.451.431,2.592,2.592,0,0,0-1.294-.431,18.659,18.659,0,0,0-2.517-.432,25.978,25.978,0,0,0-2.661-.144,14.419,14.419,0,0,0-4.1.576,8.011,8.011,0,0,0-3.523,2.229,12.384,12.384,0,0,0-2.588,4.458,23.635,23.635,0,0,0-1.151,7.119q-.145,2.157-.144,4.1v4.387h6.185q2.444,0,5.32-.072t4.171-.216q-.145,2.878-.432,4.746a14.022,14.022,0,0,1-.718,2.948,3.935,3.935,0,0,1-1.151,1.654,7.488,7.488,0,0,1-1.725,1.006l.143-.144c-.193.1-.481.216-.863.36s-.672.265-.862.36a32.117,32.117,0,0,1-4.531.287h-5.68v13.015q0,6.978.072,14.094T436,138.748q.071,6.762.072,12.367a9.517,9.517,0,0,1-.215,1.8,2.014,2.014,0,0,1-1.511,1.51,38.265,38.265,0,0,1-4.961.576q-2.662.141-3.955.144a24.874,24.874,0,0,1-4.6-.432,8.915,8.915,0,0,1-.144-1.726V142.343q0-2.011.072-4.242t.072-4.531v-17.4q0-4.745-.072-9.132t-.072-9.276q-6.039-.287-8.772-2.3.287-2.157.575-3.451A5.641,5.641,0,0,1,413.278,90a3.961,3.961,0,0,1,1.222-1.151,6.924,6.924,0,0,1,1.87-.719,7.608,7.608,0,0,1,1.654-.432q.933-.141,2.66-.575,0-2.874.144-5.465t.431-4.889v.144A28.684,28.684,0,0,1,424.5,64.9a22.4,22.4,0,0,1,6.4-7.334,23.626,23.626,0,0,1,8.125-3.739,34.648,34.648,0,0,1,8.269-1.079,25.385,25.385,0,0,1,7.623.935,10.358,10.358,0,0,1,4.026,2.085Z" fill="#5f5e5e"/><path d="M503.375,120.2a52.837,52.837,0,0,1-2.157,15.891,32.809,32.809,0,0,1-6.04,11.434,24.945,24.945,0,0,1-9.132,6.9,28.19,28.19,0,0,1-11.433,2.3q-13.806,0-21.284-8.413t-7.478-27.253a53.481,53.481,0,0,1,2.156-16.036,31.338,31.338,0,0,1,6.041-11.289,24.076,24.076,0,0,1,9.2-6.615,31.117,31.117,0,0,1,11.793-2.157q14.238,0,21.285,8.916T503.375,120.2Zm-41.561.287a61.054,61.054,0,0,0,1.007,12.08,27.034,27.034,0,0,0,2.732,7.911,10.112,10.112,0,0,0,9.348,5.608,9.832,9.832,0,0,0,4.889-1.294,11.053,11.053,0,0,0,4.027-4.314,27.1,27.1,0,0,0,2.732-7.838,60.114,60.114,0,0,0,1.007-12.009q0-13.516-3.451-19.127t-9.492-5.608a9.429,9.429,0,0,0-4.89,1.366A11.9,11.9,0,0,0,465.7,101.5a26.286,26.286,0,0,0-2.805,7.622A51.946,51.946,0,0,0,461.814,120.483Z" fill="#5f5e5e"/><path d="M532.856,98.336a15.874,15.874,0,0,0-5.321.863,11.858,11.858,0,0,0-4.458,2.876v45.3a20.061,20.061,0,0,1-.216,3.092,6.779,6.779,0,0,1-1.223,2.8,6.331,6.331,0,0,1-1.8,1.08,9.452,9.452,0,0,1-2.444.5q-1.51.143-3.812.216t-5.752.073q.143-5.751.216-12.944t.072-15.531l.144-24.017a28.175,28.175,0,0,0-.575-6.04,48.693,48.693,0,0,0-1.3-4.746,11.915,11.915,0,0,1,2.3-1.726,29.669,29.669,0,0,1,3.883-1.869,3.323,3.323,0,0,1,1.15-.288h.862a6.8,6.8,0,0,1,3.38.647,4.827,4.827,0,0,1,1.8,2.229,25.011,25.011,0,0,1,4.242-2.444q2.227-1.005,4.242-1.726a20.561,20.561,0,0,1,4.1-1.079,14.143,14.143,0,0,1,4.243-.072q6.472.721,7.191,4.027a24.152,24.152,0,0,1-.5,4.243,11.759,11.759,0,0,1-2.085,4.817,3.283,3.283,0,0,1-1.007.288H538.9c-.769,0-1.51-.023-2.23-.072s-1.366-.119-1.941-.216a3.333,3.333,0,0,0-1.15-.288Z" fill="#5f5e5e"/><path d="M592.106,155a11.037,11.037,0,0,1-2.014.144h-10.5q.288-5.465.287-12.3v-32q0-7.91-1.8-11.075t-6.4-3.163a12.267,12.267,0,0,0-6.04,1.51,18.965,18.965,0,0,0-4.745,3.667v46.02a14.092,14.092,0,0,1-.288,3.02,5.56,5.56,0,0,1-1.294,2.444,6.074,6.074,0,0,1-1.87,1.08,13.2,13.2,0,0,1-2.445.575,25.642,25.642,0,0,1-3.667.216h-5.68q.14-5.465.143-12.369V102.363a32.108,32.108,0,0,0-.5-6.04,38.635,38.635,0,0,0-1.222-4.746q1.435-1.725,6.183-3.595a3.338,3.338,0,0,1,1.151-.288h.719a5.522,5.522,0,0,1,3.308.935,7.582,7.582,0,0,1,2.013,2.085,30.869,30.869,0,0,1,8.485-4.314,29.428,29.428,0,0,1,9.348-1.438h1.366a7.783,7.783,0,0,1,1.51.144,20.582,20.582,0,0,1,7.622,2.013,16.165,16.165,0,0,1,5.034,4.027,21.664,21.664,0,0,1,4.6-2.732q2.589-1.15,4.747-1.87a27.625,27.625,0,0,1,9.059-1.438h1.654a5.756,5.756,0,0,1,1.367.144H612.1a20.431,20.431,0,0,1,8.341,2.3,13.6,13.6,0,0,1,5.177,5.105,22.463,22.463,0,0,1,2.589,7.694,62.793,62.793,0,0,1,.718,9.922v34.012q0,4.821.288,8.558a7.583,7.583,0,0,1-1.869,1.15,10.214,10.214,0,0,1-2.589.647q-1.584.216-3.882.36t-5.9.144a13.4,13.4,0,0,1-.935-2.446,10.669,10.669,0,0,1-.36-2.876V110.992q0-7.907-1.725-11.074t-6.328-3.164a11.826,11.826,0,0,0-6.112,1.654,22.38,22.38,0,0,0-4.962,3.955l.432-.431v50.047Q594.982,154.282,592.106,155Z" fill="#5f5e5e"/><path d="M657.109,84.962q1.147,0,2.3.072a14.9,14.9,0,0,1,1.869.216q6.9.576,10.211,2.732t3.739,3.739a10.117,10.117,0,0,1-.863,3.595,17.248,17.248,0,0,1-2.013,3.74,9.417,9.417,0,0,0-1.366-.288c-.625-.094-1.129-.191-1.511-.288q-1.154-.285-2.373-.5a13.255,13.255,0,0,1-2.372-.647,17.7,17.7,0,0,0-6.472-1.294,8.994,8.994,0,0,0-5.969,1.869,5.924,5.924,0,0,0-2.228,4.746,7.3,7.3,0,0,0,.791,3.308,11.353,11.353,0,0,0,3.092,3.451q1.147.863,2.732,2.014t3.308,2.3q2.013,1.583,4.242,3.164t4.1,3.019a27.081,27.081,0,0,1,6.759,7.622,17.188,17.188,0,0,1,2.158,8.486A19.552,19.552,0,0,1,675.3,145a18.265,18.265,0,0,1-5.392,6.4,24.2,24.2,0,0,1-8.054,3.883,35.963,35.963,0,0,1-9.779,1.294,36.623,36.623,0,0,1-12.44-1.941q-5.394-1.941-6.687-4.961a11.714,11.714,0,0,1,.791-3.812,14.725,14.725,0,0,1,2.086-3.954h1.437a9.488,9.488,0,0,1,4.315,1.294v-.143a30.068,30.068,0,0,0,4.961,1.653,22.174,22.174,0,0,0,5.249.647,10.635,10.635,0,0,0,1.223-.072c.431-.047.885-.119,1.366-.216a7.244,7.244,0,0,0,5.105-2.373,7.96,7.96,0,0,0,1.8-5.392,8.82,8.82,0,0,0-1.223-4.531,13.416,13.416,0,0,0-4.242-4.1c-.287-.191-.7-.479-1.223-.863s-.7-.478-.5-.288q-2.447-1.725-5.105-3.81t-4.674-3.812l-3.595-2.876q-6.617-6.613-6.616-13.95,0-8.628,6.328-13.374T657.109,84.962Z" fill="#5f5e5e"/></svg>