<svg xmlns="http://www.w3.org/2000/svg" viewBox="0 0 18 18"><path d="M5.109 11.847c-.324-.034-.386-.1-.389-.425V9.975h.012V8.484c0-.176-.08-.22-.248-.15-.364.15-.735.288-1.1.44a.364.364 0 0 0-.191.152c-.045.107.029.191.13.243a.345.345 0 0 1 .19.324c0 .662.01 1.322 0 1.984 0 .3-.063.342-.367.371-.141.014-.162.09-.162.207s.071.142.177.142h1.933c.106 0 .175-.016.178-.142s-.019-.193-.163-.208zM2.177 11.079A1.091 1.091 0 0 0 1.1 9.975h-.01a1.109 1.109 0 0 0 0 2.218 1.094 1.094 0 0 0 1.088-1.1v-.017zM4.024 7.481h.066a.681.681 0 0 0 .733-.624.5.5 0 0 0 0-.067.647.647 0 0 0-.6-.688h-.07a.687.687 0 0 0-.724.65v.038a.647.647 0 0 0 .595.691zM13.53 8.549c-.236.009-.474 0-.712 0-.162 0-.232-.06-.228-.227 0-.356-.01-.712 0-1.068a3.994 3.994 0 0 1 .1-.785c.071-.287.282-.332.486-.125.144.143.27.3.4.457a.532.532 0 0 0 .648.1.475.475 0 0 0 .237-.563.753.753 0 0 0-.569-.544 1.823 1.823 0 0 0-2.133.84 3.332 3.332 0 0 0-.359 1.622.322.322 0 0 1-.192.323 2 2 0 0 0-.324.177.211.211 0 0 0-.071.179c.011.047.092.1.15.112a.668.668 0 0 0 .236 0c.151-.016.2.058.2.2 0 .724 0 1.447-.012 2.17 0 .34-.053.387-.383.439-.133.021-.151.088-.149.2s.084.136.183.134c.356-.009.71-.022 1.066-.022s.679.011 1.017.024c.115 0 .15-.052.152-.152s-.013-.17-.132-.17c-.057 0-.112-.021-.162-.019-.258 0-.371-.057-.376-.417s-.008-.712-.008-1.068V9.245c0-.148.057-.2.2-.191.242.009.485 0 .729 0 .148 0 .234-.136.228-.324-.002-.15-.086-.186-.222-.181zM10.269 11.832c-.361-.052-.4-.1-.4-.466 0-.611 0-1.221-.008-1.833A1.056 1.056 0 0 0 8.884 8.4a1.082 1.082 0 0 0-.161 0 2 2 0 0 0-.942.3l-.3.145v-.372c0-.162-.079-.225-.228-.162-.382.162-.766.3-1.147.455a.3.3 0 0 0-.162.138c-.037.1.027.162.106.239s.208.2.208.3q.022 1.024 0 2.051c0 .272-.07.315-.343.338-.143.013-.178.081-.175.21s.09.143.194.141h1.8c.107 0 .191 0 .2-.141s-.033-.2-.174-.21c-.195-.016-.265-.086-.267-.28V9.5a.356.356 0 0 1 .189-.323.61.61 0 0 1 .979.477c.023.615.01 1.232 0 1.849 0 .254-.042.283-.291.323-.131.023-.141.107-.138.211s.057.14.162.14h1.865c.107 0 .162-.033.162-.144s-.011-.182-.152-.201zM17.5 8.989a2.246 2.246 0 0 0-2.444-.4 1.925 1.925 0 0 0-1.133 2.153 1.668 1.668 0 0 0 1.323 1.458 2.866 2.866 0 0 0 .82.082A1.842 1.842 0 0 0 18 10.35a1.838 1.838 0 0 0-.5-1.361zm-1.555 2.86c-.4 0-.729-.674-.729-1.508s.209-1.5.729-1.509c.4 0 .729.677.729 1.509s-.074 1.508-.732 1.508z" fill="#0d2c89"/></svg>