<svg xmlns="http://www.w3.org/2000/svg" viewBox="0 0 18 18"><path d="M16.273 5.386a1.011 1.011 0 0 1 .189.087.476.476 0 0 1 .168.414v.939h.89a.8.8 0 0 1 .29.063.29.29 0 0 1 .19.289q-.007.385 0 .772a.3.3 0 0 1-.189.307.77.77 0 0 1-.283.062c-.269.008-.54 0-.809 0h-.095v2.128a1.412 1.412 0 0 0 .022.268.531.531 0 0 0 .528.434c.109.01.219.012.33.013a.457.457 0 0 1 .459.456v.4a.532.532 0 0 1-.434.546 3.287 3.287 0 0 1-1.669-.119 1.442 1.442 0 0 1-.973-1.2 4.383 4.383 0 0 1-.056-.676V8.32h-.189a3.179 3.179 0 0 1-.4-.016.388.388 0 0 1-.356-.389 3.717 3.717 0 0 1 0-.472.372.372 0 0 1 .243-.349c.191-.072.389-.123.579-.182h.022c.084 0 .1-.053.1-.134v-.723a.392.392 0 0 1 .266-.381c.192-.072.394-.127.592-.185.133-.039.269-.071.4-.107zM4.183 7.235a2.9 2.9 0 0 1 .29-.145 3.762 3.762 0 0 1 2.042-.4 1.925 1.925 0 0 1 .967.327 1.461 1.461 0 0 1 .579 1 3.5 3.5 0 0 1 .047.559v3.334a1.164 1.164 0 0 1-.009.145.414.414 0 0 1-.422.407h-.013c-.3.006-.6.006-.907 0a.418.418 0 0 1-.433-.4V8.889a1.563 1.563 0 0 0-.035-.348.484.484 0 0 0-.46-.393 1.824 1.824 0 0 0-1.1.268.12.12 0 0 0-.037.094v3.4a1.514 1.514 0 0 1 0 .165.412.412 0 0 1-.434.388c-.3.008-.605 0-.905 0a.433.433 0 0 1-.456-.411V7.4a1.194 1.194 0 0 1-.006-.189.4.4 0 0 1 .4-.364c.131-.009.265 0 .4 0a.4.4 0 0 1 .356.184 2.476 2.476 0 0 1 .136.204zM10.415 10.245a.7.7 0 0 0 .421.837 2.052 2.052 0 0 0 .526.1 4.52 4.52 0 0 0 1.5-.145.826.826 0 0 1 .332-.014.454.454 0 0 1 .391.415 2.246 2.246 0 0 1 0 .449.52.52 0 0 1-.411.463 5.77 5.77 0 0 1-2.425.223 2.461 2.461 0 0 1-1.182-.449 2.192 2.192 0 0 1-.785-1.2 4.956 4.956 0 0 1-.145-1.618A3.761 3.761 0 0 1 8.9 8.039a2.045 2.045 0 0 1 1.528-1.274 3.693 3.693 0 0 1 1.8.03 1.853 1.853 0 0 1 1.322 1.281 4.624 4.624 0 0 1 .18 1.524v.18a.435.435 0 0 1-.394.472.421.421 0 0 1-.071 0h-2.85zm-.009-1.112a.109.109 0 0 0 .023.009h1.529c.044 0 .056-.02.058-.059 0-.132.02-.265.013-.4a.62.62 0 0 0-.513-.641 1.324 1.324 0 0 0-.327-.02.726.726 0 0 0-.647.4 1.517 1.517 0 0 0-.136.7z"/><circle cx="1.19" cy="11.36" r="1.19" fill="#fdcc0f"/></svg>