<svg xmlns="http://www.w3.org/2000/svg" viewBox="0 0 31.367 32"><path d="M31.367,16.368a18.825,18.825,0,0,0-.276-3.251H16v6.161h8.642a7.4,7.4,0,0,1-3.2,4.862v4H26.6A15.626,15.626,0,0,0,31.367,16.368Z" fill="#4285f4"/><path d="M16,32a15.317,15.317,0,0,0,10.606-3.862l-5.156-4A9.7,9.7,0,0,1,7.022,19.066H1.7v4.122A16,16,0,0,0,16,32Z" fill="#34a853"/><path d="M7.016,19.066a9.583,9.583,0,0,1,0-6.125V8.819H1.7a16.017,16.017,0,0,0,0,14.369Z" fill="#fbbc04"/><path d="M16,6.333a8.694,8.694,0,0,1,6.138,2.4h0l4.568-4.568A15.376,15.376,0,0,0,16,0,16,16,0,0,0,1.7,8.819l5.314,4.122A9.57,9.57,0,0,1,16,6.333Z" fill="#ea4335"/></svg>