<svg xmlns="http://www.w3.org/2000/svg" viewBox="0 0 32 32"><g><path fill="#40BA00" d="M17.67,12.01c1.46,0.73,2.66,1.89,3.43,3.32l4.67-1.98c-0.88-1.79-2.17-3.34-3.73-4.55L17.67,12.01z"/><path fill="#40BA00" d="M6.28,19.07c0-2.86,1.53-5.37,3.82-6.75L6.86,8.39c-3.4,2.33-5.64,6.24-5.64,10.68c0,1.54,0.27,3.01,0.76,4.38 l4.67-1.98C6.41,20.71,6.28,19.9,6.28,19.07z"/><path fill="#40BA00" d="M21.64,16.58c0.26,0.78,0.4,1.62,0.4,2.49c0,3.03-1.71,5.66-4.21,6.98l2.05,4.63 c4.27-2.11,7.21-6.51,7.21-11.6c0-1.57-0.28-3.07-0.79-4.47L21.64,16.58z"/><path fill="#40BA00" d="M14.16,26.95c-3.03,0-5.67-1.72-6.98-4.23L2.51,24.7C4.61,29.02,9.03,32,14.16,32c1.64,0,3.2-0.3,4.64-0.86 l-1.98-4.66C15.99,26.78,15.09,26.95,14.16,26.95z"/><path fill="#40BA00" d="M13.87,12.18c0,0,4.43-3.98,8.4-6.69c2.28-1.55,8.5-5.39,8.5-5.39s-3.12-0.72-9.18,1.71 C17.43,3.48,14.01,7,14.01,7s-1.68-1.47-4.57-2.81C6.84,2.98,5.23,3.13,5.23,3.13s2.13,1.84,4.26,3.95 C11.54,9.11,13.87,12.18,13.87,12.18z"/></g></svg>