<svg xmlns="http://www.w3.org/2000/svg" viewBox="0 0 32 31.09"><path d="M16.44,10.22a6.25,6.25,0,1,1-6.24,6.23A6.26,6.26,0,0,1,16.44,10.22Z" fill="#8f764d"/><path d="M10,16.3l.14,1.63-1,.19c-1,.19-2,.39-2.93.57-.48.08-1,.13-1.47.18a3.21,3.21,0,0,1-2.44-.95,12.24,12.24,0,0,1-1.15-1.24A1.2,1.2,0,0,1,1,16.45l1.7.31,0-.06A7.06,7.06,0,0,1,0,14.43c.67-.24,1.29-.5,1.94-.7a8.27,8.27,0,0,1,2.8-.32,1.07,1.07,0,0,1,.31.06,22.85,22.85,0,0,0,4.76,1.69l.28.08c0,.22-.05.45-.1.67a.31.31,0,0,1-.19.18c-.72.21-1.43.45-2.16.59a12.22,12.22,0,0,1-3,.17c-.5,0-1-.09-1.5-.14a1.12,1.12,0,0,0-.23.06c.06.05.12.13.18.14.75.07,1.5.18,2.24.18a12,12,0,0,0,3.38-.4C9.17,16.58,9.57,16.43,10,16.3Z" fill="#ffc300"/><path d="M13.33,0a7.65,7.65,0,0,1,2.08,2.93,1.53,1.53,0,0,0,.11.27,3.65,3.65,0,0,1,.23,2.12,22.25,22.25,0,0,0-.13,2.83c0,.62.05,1.25.08,1.89a3.75,3.75,0,0,1-.6.11.43.43,0,0,1-.29-.16,10.55,10.55,0,0,1-1.42-2.31,11.6,11.6,0,0,1-1.07-3.06,6,6,0,0,1,.9-4.48A.92.92,0,0,1,13.33,0Z" fill="#ffc300"/><path d="M4.21,27.92a5.69,5.69,0,0,1,.93-2.4c.44-.63,1-1.22,1.46-1.81a1.35,1.35,0,0,1,.48-.32,24.81,24.81,0,0,0,4.41-2.48l.16-.08c.5.45.5.45.23,1A16.69,16.69,0,0,1,9.26,26,6.14,6.14,0,0,1,6,27.83,9.91,9.91,0,0,1,4.43,28,1,1,0,0,1,4.21,27.92Z" fill="#ffc300"/><path d="M22.41,14l-.26-.56a11,11,0,0,1,4-3,7.38,7.38,0,0,1,3.61-.63,6,6,0,0,1,2.22.6,4.29,4.29,0,0,1-1.16,1.44,9.87,9.87,0,0,1-2.7,1.53.73.73,0,0,1-.33,0A20.12,20.12,0,0,0,22.41,14Z" fill="#ffc300"/><path d="M25.16,30.27A5,5,0,0,1,23,29.11c-.56-.51-1.06-1.09-1.57-1.65a.66.66,0,0,1-.15-.3,19.79,19.79,0,0,0-1.34-3.88c-.15-.37-.31-.73-.48-1.1.23-.13.44-.28.67-.39a.23.23,0,0,1,.24,0,14.46,14.46,0,0,1,3.1,2.63A7.31,7.31,0,0,1,25.25,28,4.68,4.68,0,0,1,25.16,30.27Z" fill="#ffc300"/><path d="M26.76,5.58c-.38.66-.74,1.33-1.12,2a11.06,11.06,0,0,1-2.63,3A8,8,0,0,1,21,11.78l-1.78-1.22c.35-.45.72-.94,1.11-1.42.69-.83,1.36-1.67,2.08-2.47A4,4,0,0,1,24.7,5.44a4.24,4.24,0,0,1,2,.11Z" fill="#ffc300"/><path d="M15.58,22.94c-.09.41-.18.88-.3,1.33-.31,1.13-.59,2.27-1,3.37a3.85,3.85,0,0,1-3.05,2.6l-.42.05-.23,0c.08-.42.15-.84.23-1.25.17-.84.29-1.7.54-2.52a11.73,11.73,0,0,1,2.07-4,.33.33,0,0,1,.46-.11C14.44,22.61,15,22.76,15.58,22.94Z" fill="#ffc300"/><path d="M10.53,13.72a13.8,13.8,0,0,1-2.88-2.46A11.14,11.14,0,0,1,6.38,9.55a3.34,3.34,0,0,1-.47-2,1.89,1.89,0,0,1,1-1.7c0,.05.09.08.1.12A4.45,4.45,0,0,0,8.6,7.71c.36.31.74.58,1.11.87a4.13,4.13,0,0,1,1.17,1.71c.24.58.44,1.18.65,1.78a.3.3,0,0,1,0,.21Z" fill="#ffc300"/><path d="M15.85,23l2-.12c0,.33.09.68.09,1a13.26,13.26,0,0,1-.47,4.25A5.17,5.17,0,0,1,16.41,30a2.05,2.05,0,0,1-2.27.36c.11-.43.23-.84.33-1.25a1.65,1.65,0,0,0,0-.58,4.15,4.15,0,0,1,.3-1.78C15.17,25.51,15.51,24.23,15.85,23Z" fill="#ffc300"/><path d="M17.28,10a17.92,17.92,0,0,1,1.93-4.56,4.47,4.47,0,0,1,2.34-1.9A1.84,1.84,0,0,1,23.63,4a5.28,5.28,0,0,0-1.42,2.38,3.34,3.34,0,0,1-.67.86l-2.61,3.23Z" fill="#ffc300"/><path d="M28.72,23.85c-2.65-.74-5.12-1.64-7-3.55l1-2.2c1.38.68,2.82,1.35,4.22,2.08a3.37,3.37,0,0,1,1.58,2.34A10.8,10.8,0,0,1,28.72,23.85Z" fill="#ffc300"/><path d="M16,10a21.43,21.43,0,0,1-.07-3.92,9.43,9.43,0,0,1,.23-1.75,3.21,3.21,0,0,1,3.35-2.67c0,.65-.09,1.3-.11,2,0,.33,0,.67,0,1a.45.45,0,0,1-.07.3A14.74,14.74,0,0,0,17.37,9c-.09.27-.18.54-.25.81s-.1.22-.27.21S16.27,10,16,10Z" fill="#ffc300"/><path d="M29.23,21.27A5.71,5.71,0,0,0,27.3,20.1l-4-1.92-.53-.25.1-2.47c.36.08.76.14,1.14.23a12.25,12.25,0,0,1,3.7,1.52,3.71,3.71,0,0,1,1.84,3.08A1.2,1.2,0,0,1,29.23,21.27Z" fill="#ffc300"/><path d="M18.09,22.74l1.18-.44c.24.57.51,1.12.72,1.7a25.42,25.42,0,0,1,1,3,3.86,3.86,0,0,1-1.32,3.61c-.27.17-.57.29-.91.46,0-.21-.06-.36-.09-.51a9.29,9.29,0,0,0-.83-2.22.86.86,0,0,1,0-.5A15.43,15.43,0,0,0,18.09,22.74Z" fill="#ffc300"/><path d="M3.46,9a7.82,7.82,0,0,0,2.72,1.05.72.72,0,0,1,.4.26,15.39,15.39,0,0,0,3.66,3.45l.23.16L10.12,15l-1.69-.48a16.36,16.36,0,0,1-3.29-1.27,4.26,4.26,0,0,1-1.09-1,3.17,3.17,0,0,1-.79-2.16A6.72,6.72,0,0,1,3.46,9Z" fill="#ffc300"/><path d="M22.49,14.22a21.84,21.84,0,0,1,4.75-.55,4.25,4.25,0,0,1,3,1.2,2.67,2.67,0,0,1,.78,1.93,12,12,0,0,0-1.2,0c-.53.05-1.05.16-1.57.22a.85.85,0,0,1-.5-.07,13.59,13.59,0,0,0-4.31-1.6c-.54-.09-.84-.25-.89-.81A1.34,1.34,0,0,0,22.49,14.22Z" fill="#ffc300"/><path d="M11.51,20.7c-.71.43-1.39.88-2.11,1.27a29.41,29.41,0,0,1-2.82,1.38,3.37,3.37,0,0,1-4-1.54s0,0,0-.11L3,21.53a6.14,6.14,0,0,1,1.7-.36,20.18,20.18,0,0,0,4-1c.62-.2,1.25-.38,1.87-.59a.24.24,0,0,1,.33.13C11.05,20,11.26,20.33,11.51,20.7Z" fill="#ffc300"/><path d="M11.73,12c-.11-.32-.24-.67-.36-1A5.68,5.68,0,0,0,9.06,7.78c-.45-.29-.82-.7-1.24-1A.68.68,0,0,1,7.56,6c.13-.52.29-1,.45-1.63l1.07.85a17.5,17.5,0,0,1,2.44,2.27,9.91,9.91,0,0,1,1.87,3c.08.2,0,.3-.15.42C12.72,11.22,12.24,11.59,11.73,12Z" fill="#ffc300"/><path d="M26.21,27c0-.31-.08-.57-.13-.83a1.42,1.42,0,0,0-1.49-1.32,1,1,0,0,1-.77-.38,15,15,0,0,0-3.35-2.9s0,0,0,0l1.15-1.11a12.73,12.73,0,0,0,4.31,2.69.51.51,0,0,1,.2.12,3,3,0,0,1,1,2.5A1.61,1.61,0,0,1,26.21,27Z" fill="#ffc300"/><path d="M10.62,19.33c-.75.23-1.51.49-2.28.7-1.15.32-2.31.61-3.47.88A3.7,3.7,0,0,1,3.68,21,1.81,1.81,0,0,1,2.1,18.94c.14.1.27.2.41.28a1.69,1.69,0,0,0,1.83.11A2,2,0,0,1,5.21,19l3.59-.63c.4-.07.79-.16,1.19-.22.08,0,.22,0,.24.12C10.38,18.63,10.49,19,10.62,19.33Z" fill="#ffc300"/><path d="M29.09,8.81c-.39,0-.71-.06-1-.07A1.42,1.42,0,0,0,26.5,9.92a.42.42,0,0,1-.21.27,11.17,11.17,0,0,0-4.15,2.94l-.1.08L21.11,12c.27-.14.55-.27.82-.43A11.08,11.08,0,0,0,25.62,8c.05-.06.09-.14.16-.16a2.8,2.8,0,0,1,2.35-.11A1.83,1.83,0,0,1,29.09,8.81Z" fill="#ffc300"/><path d="M7.29,28.21c.46-.19.91-.35,1.33-.57a1.07,1.07,0,0,0,.59-1.12.31.31,0,0,1,.06-.21,18.22,18.22,0,0,0,3-4.85l1.13.75a10.37,10.37,0,0,0-1.86,3.16c-.26.66-.44,1.35-.68,2a1.67,1.67,0,0,1-.34.63,2.54,2.54,0,0,1-2,.89A1.58,1.58,0,0,1,7.29,28.21Z" fill="#ffc300"/><path d="M11.54,2.51c-.07.39-.15.75-.19,1.11a1.27,1.27,0,0,0,.73,1.44c.09,0,.15.18.18.29a15.27,15.27,0,0,0,2.05,4.36c.11.17.25.33.38.51l-1,.41A7.75,7.75,0,0,0,12.24,8c-.58-.69-1.2-1.34-1.84-2A1.63,1.63,0,0,1,10,5,2.28,2.28,0,0,1,10.52,3,1.52,1.52,0,0,1,11.54,2.51Z" fill="#ffc300"/></svg>