<svg xmlns="http://www.w3.org/2000/svg" viewBox="0 0 32 32"><path fill="#E21518" d="M16.8,10.97c-0.67,0.29-1.82,0.29-2.5,0L1.92,6.07c-0.67-0.29-0.67-0.67,0-0.96l12.39-4.9 c0.67-0.29,1.82-0.29,2.5,0l12.39,4.8c0.67,0.29,0.67,0.67,0,0.96L16.8,10.97z"/><path fill="#9D9FA2" d="M16.23,31.04c0,0.77,0.58,1.15,1.25,0.86L29.87,27c0.67-0.29,1.25-1.06,1.25-1.82V7.99 c0-0.77-0.58-1.15-1.25-0.86l-12.39,4.9c-0.67,0.29-1.25,1.06-1.25,1.82C16.23,13.85,16.23,31.04,16.23,31.04z"/><path fill="#2E2E2D" d="M14.89,31.04c0,0.77-0.59,1.15-1.26,0.86L1.24,27C0.58,26.72,0,25.95,0,25.18V7.99c0-0.77,0.58-1.15,1.25-0.86 l12.39,4.9c0.67,0.29,1.25,1.06,1.25,1.82V31.04L14.89,31.04z"/></svg>