<svg xmlns="http://www.w3.org/2000/svg" viewBox="0 0 18 18"><path d="M6,10H1V2L7.4,6.8l.6.45.6-.45L15,2V6h1V0H0V11H6Zm8.667-9L8,6,1.333,1Z"/><path d="M12.5,18a5.461,5.461,0,0,1-.629-.039l-.328-.037-.477-1.59c-.089-.033-.176-.069-.262-.107l-1.461.785-.258-.2a5.7,5.7,0,0,1-.892-.892l-.205-.258L8.775,14.2c-.038-.085-.074-.173-.108-.262l-1.589-.477-.037-.328a5.092,5.092,0,0,1,0-1.258l.037-.328,1.59-.478c.033-.088.069-.176.108-.262L7.99,9.345,8.2,9.086a5.568,5.568,0,0,1,.891-.892l.258-.205,1.46.787c.086-.039.174-.075.263-.109l.477-1.589.328-.037a5.513,5.513,0,0,1,1.258,0l.328.037.477,1.59c.089.033.176.069.262.107l1.461-.786.258.205a5.645,5.645,0,0,1,.891.891l.206.258-.786,1.462c.039.085.075.173.107.261l1.59.478.037.328a5.092,5.092,0,0,1,0,1.258l-.037.328-1.59.477c-.033.089-.069.176-.107.262l.785,1.46-.205.258a5.61,5.61,0,0,1-.891.892l-.258.206L14.2,16.227c-.086.038-.173.074-.262.107l-.477,1.59-.328.037A5.447,5.447,0,0,1,12.5,18Zm-.191-1a3.744,3.744,0,0,0,.382,0l.437-1.454.258-.077a3.077,3.077,0,0,0,.582-.24l.237-.128,1.334.717c.094-.087.186-.178.273-.273L15.1,14.206l.128-.237a3.077,3.077,0,0,0,.24-.582l.077-.258L17,12.692c0-.063,0-.127,0-.191s0-.128,0-.192l-1.454-.437-.077-.259a3.091,3.091,0,0,0-.24-.58L15.1,10.8l.717-1.335c-.087-.094-.178-.186-.273-.273l-1.334.718-.237-.128a3.043,3.043,0,0,0-.581-.239l-.259-.077-.437-1.455a3.477,3.477,0,0,0-.382,0l-.437,1.455-.26.077a3.05,3.05,0,0,0-.578.238l-.238.131-1.335-.72c-.095.087-.186.179-.273.273L9.907,10.8l-.128.237a3.073,3.073,0,0,0-.24.581l-.077.259-1.455.437c0,.064,0,.128,0,.192s0,.128,0,.191l1.455.437.077.259a2.99,2.99,0,0,0,.239.581l.128.238L9.188,15.54c.087.1.179.187.274.273L10.8,15.1l.237.128a3.077,3.077,0,0,0,.582.24l.258.077Zm.191-2.524a1.97,1.97,0,1,1,1.97-1.97A1.973,1.973,0,0,1,12.5,14.471Zm0-2.94a.97.97,0,1,0,.97.97A.971.971,0,0,0,12.5,11.531Z"/></svg>