<svg xmlns="http://www.w3.org/2000/svg" viewBox="0 0 17 17"><path d="M14,1H3L0,6V7.5a2.6,2.6,0,0,0,1,2V16H6v1H5v1h7V17H11V16h5V9.5a2.6,2.6,0,0,0,1-2V6Zm-.6,1,1.8,3H12.5L12,2ZM11,2l.5,3H9V2Zm1,5.5a1.5,1.5,0,0,1-3,0V6h2.7ZM5.3,6H8V7.5A1.5,1.5,0,0,1,6.5,9,1.5,1.5,0,0,1,5,7.5ZM8,2V5H5.5L6,2ZM3.6,2H5L4.5,5H1.8ZM1,6H4.3L4,7.5A1.5,1.5,0,0,1,2.5,9,1.5,1.5,0,0,1,1,7.5Zm9,11H7V16h3Zm5-2H2V9.9h.5a2.6,2.6,0,0,0,2-1A2.5,2.5,0,0,0,8,9.5L8.5,9a2.5,2.5,0,0,0,3.5.5l.5-.5a2.5,2.5,0,0,0,2.5.9Zm-.5-6A1.5,1.5,0,0,1,13,7.5L12.7,6H16V7.5A1.5,1.5,0,0,1,14.5,9Z" transform="translate(0 -1)"/></svg>