<svg id="a47485e0-e2de-44fa-b562-e5166fb9517e" data-name="Layer 1" xmlns="http://www.w3.org/2000/svg" viewBox="0 0 18 18"><path d="M8.762,18A8.749,8.749,0,0,1,.008,8.859a8.92,8.92,0,0,1,5.84-7.832A8.389,8.389,0,0,1,9.057.506a1.664,1.664,0,0,1,1.475,2.271,3.648,3.648,0,0,0-.111,2.332,3.594,3.594,0,0,0,2.47,2.47h0a3.625,3.625,0,0,0,2.433-.155,1.5,1.5,0,0,1,1.4.112,1.6,1.6,0,0,1,.76,1.274,8.324,8.324,0,0,1-.515,3.342,8.92,8.92,0,0,1-7.832,5.84C9.015,18,8.888,18,8.762,18ZM8.751,1.5a7.361,7.361,0,0,0-2.558.465A7.913,7.913,0,0,0,1.008,8.9a7.753,7.753,0,0,0,8.09,8.09,7.913,7.913,0,0,0,6.937-5.185,7.364,7.364,0,0,0,.455-2.945.6.6,0,0,0-.289-.476.517.517,0,0,0-.478-.044,4.629,4.629,0,0,1-3.1.2h0a4.558,4.558,0,0,1-3.17-3.17A4.643,4.643,0,0,1,9.6,2.407a.666.666,0,0,0-.584-.9C8.93,1.5,8.841,1.5,8.751,1.5Z"/><path d="M5.5,7A1.5,1.5,0,1,1,7,5.5,1.5,1.5,0,0,1,5.5,7Zm0-2a.5.5,0,1,0,.5.5A.5.5,0,0,0,5.5,5Z"/><path d="M4,10.5A1.5,1.5,0,1,1,5.5,9,1.5,1.5,0,0,1,4,10.5Zm0-2a.5.5,0,1,0,.5.5A.5.5,0,0,0,4,8.5Z"/><path d="M5.5,14A1.5,1.5,0,1,1,7,12.5,1.5,1.5,0,0,1,5.5,14Zm0-2a.5.5,0,1,0,.5.5A.5.5,0,0,0,5.5,12Z"/><path d="M9.5,15A1.5,1.5,0,1,1,11,13.5,1.5,1.5,0,0,1,9.5,15Zm0-2a.5.5,0,1,0,.5.5A.5.5,0,0,0,9.5,13Z"/><path d="M12.5,13A1.5,1.5,0,1,1,14,11.5,1.5,1.5,0,0,1,12.5,13Zm0-2a.5.5,0,1,0,.5.5A.5.5,0,0,0,12.5,11Z"/></svg>