<svg xmlns="http://www.w3.org/2000/svg" viewBox="0 0 64 64"><g opacity="0"><rect width="64" height="64" fill="#fff"/></g><g opacity="0"><rect width="64" height="64" fill="#fff"/></g><path d="M48.538,15.3h-9.37V7.5a1,1,0,0,0-1-1H12.548a1,1,0,0,0-1,1v7.8H2.178a1,1,0,0,0-1,1v35.73a1,1,0,0,0,1,1h46.36a1,1,0,0,0,1-1V16.3A1,1,0,0,0,48.538,15.3ZM13.548,8.5h23.62v6.8H13.548Zm32.74,8.8-21.14,19.59L4.638,17.3Zm1.25,33.73H3.178V18.667l21.27,20.31a.968.968,0,0,0,.69.28,1.013,1.013,0,0,0,.68-.27l21.72-20.12Z"/><path d="M63.328,8.857a1.5,1.5,0,0,1-1.5,1.5h-5.39v5.39a1.5,1.5,0,0,1-3,0v-5.39h-5.39a1.5,1.5,0,0,1,0-3h5.39V1.977a1.5,1.5,0,1,1,3,0v5.38h5.39A1.5,1.5,0,0,1,63.328,8.857Z"/></svg>