<svg xmlns="http://www.w3.org/2000/svg" viewBox="0 0 109.55 104.35"><title>presentational-email-forwarder</title><path d="M85.9,60.4,71.7,46a1.284,1.284,0,0,0-1-.4,1.473,1.473,0,0,0-1.5,1.5h0v6.1A19.722,19.722,0,0,0,50.9,74.3a18.88,18.88,0,0,0,2.7,8.6l1.5,2.5,1-2.7A20.522,20.522,0,0,1,69.2,70.1v5.8a1.538,1.538,0,0,0,1.5,1.5h0a1.528,1.528,0,0,0,1-.4L86,62.6A1.672,1.672,0,0,0,85.9,60.4Z" transform="translate(-9.25 -11.85)" fill="#f5eac4"/><path d="M50.9,85.1l-3.2-5.4a22.25,22.25,0,0,1,7.8-30.4,21.764,21.764,0,0,1,8.2-2.9V41.3a3.009,3.009,0,0,1,3-3,2.723,2.723,0,0,1,2.1.9L83.7,54.3a3.018,3.018,0,0,1,0,4.3L69,73.7a2.878,2.878,0,0,1-2.1.9,3.009,3.009,0,0,1-3-3V67.7A20.042,20.042,0,0,0,53.1,79.2ZM66.8,41.3h0v7.9l-1.4.1A19.175,19.175,0,0,0,47.7,69.9a19.61,19.61,0,0,0,2.5,8.2A22.918,22.918,0,0,1,64.8,64.2l1.9-.6v8.1l15-15.1Z" transform="translate(-9.25 -11.85)" fill="#eca03e"/><path d="M118.8,81.8a4.878,4.878,0,0,0-4.9-4.3H77.7a4.878,4.878,0,0,0-4.9,4.3v23.6a4.878,4.878,0,0,0,4.9,4.3h36.1a4.878,4.878,0,0,0,4.9-4.3V82C118.8,81.9,118.8,81.9,118.8,81.8ZM77.7,80.5h36.1a1.852,1.852,0,0,1,1.7.9L96.4,95.5a1.715,1.715,0,0,1-1.7,0L76,81.4A1.766,1.766,0,0,1,77.7,80.5Zm38.1,24.4a1.96,1.96,0,0,1-2,1.7H77.7a1.947,1.947,0,0,1-2-1.7V85L93,98c.1,0,.1.1.2.1a5.025,5.025,0,0,0,2.4.6,5.325,5.325,0,0,0,2.4-.6c.1,0,.1-.1.2-.1l17.7-13.1-.1,20Z" transform="translate(-9.25 -11.85)" fill="#eca03e"/><path d="M61.4,116.2a8.625,8.625,0,0,1-6.1-2.5L11.8,70.1a8.571,8.571,0,0,1,0-12.2L55.3,14.4a8.571,8.571,0,0,1,12.2,0L111,57.9a8.571,8.571,0,0,1,0,12.2h0l-1.2,1.2a1.485,1.485,0,0,1-2.1-2.1h0l1.2-1.2a5.673,5.673,0,0,0,0-8h0L65.4,16.5a5.673,5.673,0,0,0-8,0L13.9,60a5.673,5.673,0,0,0,0,8l43.5,43.5a5.673,5.673,0,0,0,8,0l1.9-1.9a1.485,1.485,0,0,1,2.1,2.1h0l-1.9,1.9A8.317,8.317,0,0,1,61.4,116.2Z" transform="translate(-9.25 -11.85)" fill="#eca03e"/></svg>