<svg xmlns="http://www.w3.org/2000/svg" viewBox="0 0 116.813 107.2"><title>presentational-file-manager</title><path d="M109.1,39.5a1.538,1.538,0,0,0-1.5,1.5V61.4H96a.9.9,0,0,0,.1-.5V31.3a6.659,6.659,0,0,0-6.6-6.6H26.7a6.659,6.659,0,0,0-6.6,6.6V61a.749.749,0,0,0,.1.5H8.6V41a1.538,1.538,0,0,0-1.5-1.5A1.538,1.538,0,0,0,5.6,41V89a6.552,6.552,0,0,0,6.5,6.5H81a1.5,1.5,0,0,0,0-3H12A3.478,3.478,0,0,1,8.5,89V64.4H36.3a3.433,3.433,0,0,1,3.1,1.9l2.2,4.4a6.786,6.786,0,0,0,6.1,3.8h23a6.719,6.719,0,0,0,6.1-3.8L79,66.3a3.433,3.433,0,0,1,3.1-1.9h25.6v6.3a1.5,1.5,0,0,0,3,0V41A1.63,1.63,0,0,0,109.1,39.5ZM76.2,65,74,69.4a3.774,3.774,0,0,1-3.4,2.1H47.7a3.774,3.774,0,0,1-3.4-2.1L42.1,65a6.446,6.446,0,0,0-5.8-3.6H23a.9.9,0,0,0,.1-.5V31.3a3.585,3.585,0,0,1,3.6-3.6H89.5a3.585,3.585,0,0,1,3.6,3.6V61a.749.749,0,0,0,.1.5H82A6.465,6.465,0,0,0,76.2,65Z" transform="translate(-5.6 -10.4)" fill="#3fc798"/><path d="M29.2,20.6H87a1.5,1.5,0,0,0,0-3H29.2a1.5,1.5,0,1,0,0,3Z" transform="translate(-5.6 -10.4)" fill="#3fc798"/><path d="M34.1,13.4H82.2a1.5,1.5,0,0,0,0-3H34.1a1.538,1.538,0,0,0-1.5,1.5A1.473,1.473,0,0,0,34.1,13.4Z" transform="translate(-5.6 -10.4)" fill="#3fc798"/><path d="M120.9,87.2l-3.6-3.6a4.951,4.951,0,0,0-7.1,0h0L88.7,105.1,87,117.6l12.5-1.8L121,94.3A5.041,5.041,0,0,0,120.9,87.2Z" transform="translate(-5.6 -10.4)" fill="#cdf9e4"/><path d="M117.5,82.7l-3.6-3.6a6.519,6.519,0,0,0-9.3,0L83.1,100.6a1.234,1.234,0,0,0-.4.8L81,113.9v.2a1.538,1.538,0,0,0,1.5,1.5h.2l12.5-1.8a1.234,1.234,0,0,0,.8-.4L110.4,99h0l4.8-4.8h0l2.2-2.2A6.434,6.434,0,0,0,117.5,82.7Zm-8.1,13.2-8.7-8.5,2.7-2.7,8.7,8.5Zm-15.1,15-10,1.4,1.4-10L98.6,89.4l8.7,8.5Zm21.1-21.1L114.2,91l-8.7-8.5,1.3-1.3a3.5,3.5,0,0,1,5,0l3.6,3.6A3.5,3.5,0,0,1,115.4,89.8Z" transform="translate(-5.6 -10.4)" fill="#3fc798"/></svg>