<svg xmlns="http://www.w3.org/2000/svg" viewBox="0 0 29 32"><path d="M27.737,9.065a5.5,5.5,0,0,0,1.284-3.509A5.565,5.565,0,0,0,18.383,3.278,14.6,14.6,0,0,0,16,3.069,14.466,14.466,0,1,0,26.251,27.761a14.4,14.4,0,0,0,1.486-18.7ZM20.961,4.841H22.9V2.889H24V4.841h1.942v1.1H24V7.864H22.9V5.937H20.961ZM16.316,3.818l.427.095a3.969,3.969,0,0,1,1.251.535,5.611,5.611,0,0,0-.112,1.108A5.533,5.533,0,0,0,20.593,10.3a14.006,14.006,0,0,1-3.908.774l-.369.018Zm-.625,0v7.275l-.369-.018a13.908,13.908,0,0,1-4.633-1.037l-.307-.126.11-.313a15.617,15.617,0,0,1,.782-1.838c1.107-2.184,2.487-3.515,3.989-3.848ZM6.864,7.136a13.918,13.918,0,0,1,5.392-2.922l1.3-.364L12.6,4.8a10.46,10.46,0,0,0-1.886,2.692,17.526,17.526,0,0,0-.765,1.776l-.14.379-.356-.191A14.145,14.145,0,0,1,6.864,7.662l-.3-.262Zm5.392,23.723a13.949,13.949,0,0,1-5.367-2.9l-.3-.264.3-.263a13.875,13.875,0,0,1,2.574-1.78l.356-.191.14.377a15.519,15.519,0,0,0,.753,1.74,10.512,10.512,0,0,0,1.888,2.7l.949.946Zm3.435.391-.428-.095c-1.5-.334-2.882-1.664-3.989-3.848a15.581,15.581,0,0,1-.768-1.8l-.113-.313.309-.128a13.722,13.722,0,0,1,4.621-1.03l.368-.016Zm.631,0V24.018l.369.018a13.877,13.877,0,0,1,4.62,1.03l.309.128-.113.313a15.991,15.991,0,0,1-.769,1.8c-1.107,2.184-2.486,3.514-3.989,3.848Zm8.8-3.3a13.82,13.82,0,0,1-5.368,2.905l-1.3.359.956-.945a10.348,10.348,0,0,0,1.886-2.7,15.614,15.614,0,0,0,.754-1.741l.14-.377.355.191a13.883,13.883,0,0,1,2.575,1.78l.3.263Zm.988-.942-.234.249-.255-.227a14.516,14.516,0,0,0-2.977-2.044l-.256-.132.08-.276a23.348,23.348,0,0,0,.7-3.4h-.633a22.857,22.857,0,0,1-.619,3.039l-.105.376-.364-.146a14.627,14.627,0,0,0-4.8-1.039l-.335-.016V21.175h-.625V23.39l-.336.015a14.311,14.311,0,0,0-4.793,1.039l-.364.148-.106-.378a22.792,22.792,0,0,1-.619-3.039H8.848a23.474,23.474,0,0,0,.7,3.4l.08.276-.256.132A14.38,14.38,0,0,0,6.4,27.029l-.255.228-.234-.249A13.815,13.815,0,0,1,2.15,18.217l-.018-.367h2.01l-.178-.631H2.132l.018-.368A13.829,13.829,0,0,1,5.882,8.085l.234-.249.255.227a14.692,14.692,0,0,0,2.99,2.055l.254.133-.079.274a23.58,23.58,0,0,0-.688,3.368h.617a22.616,22.616,0,0,1,.609-3l.105-.378.365.147a14.347,14.347,0,0,0,4.8,1.04l.336.014v2.179h.637V11.727l.335-.015A14.684,14.684,0,0,0,21.36,10.7a5.713,5.713,0,0,0,.553.171l.008.028a22.576,22.576,0,0,1,.607,3h.628a24.1,24.1,0,0,0-.564-2.868,5.3,5.3,0,0,0,4.716-1.473,13.813,13.813,0,0,1,2.548,7.3l.018.368h-2.2l-.18.631h2.4l-.019.368A13.876,13.876,0,0,1,26.112,27.008Z" transform="translate(-1.5)" fill="#cdb184"></path><path d="M10.063,17.285a5.987,5.987,0,0,0-.112.66q-.051.411-.072.686H9.857a12.369,12.369,0,0,0-.211-1.245L9.3,15.712H7.732l-.381,1.653a9.476,9.476,0,0,0-.2,1.266H7.13a9.5,9.5,0,0,0-.185-1.346l-.333-1.573h-1.4l1.12,4.1h1.49l.417-1.739c.041-.176.121-.6.24-1.278H8.5l.073.474.109.59L9.15,19.81h1.515l1.128-4.1H10.426Z" transform="translate(-1.5)" fill="#cdb184"></path><path d="M17.379,17.285a5.757,5.757,0,0,0-.112.66q-.051.411-.073.686h-.022a12.6,12.6,0,0,0-.21-1.245l-.348-1.674H15.048l-.381,1.653a9.307,9.307,0,0,0-.2,1.266h-.022a9.649,9.649,0,0,0-.185-1.346l-.334-1.573h-1.4l1.121,4.1h1.49l.417-1.739c.041-.176.121-.6.239-1.278h.022l.072.474.109.59.464,1.953h1.516l1.127-4.1H17.742Z" transform="translate(-1.5)" fill="#cdb184"></path><path d="M24.694,17.285a5.757,5.757,0,0,0-.112.66q-.051.411-.073.686h-.022a12.6,12.6,0,0,0-.21-1.245l-.348-1.674H22.363l-.381,1.653a9.534,9.534,0,0,0-.2,1.266h-.021a9.649,9.649,0,0,0-.185-1.346l-.334-1.573h-1.4l1.121,4.1h1.49l.417-1.739c.041-.176.121-.6.239-1.278h.022l.072.474.109.59.464,1.953H25.3l1.127-4.1H25.057Z" transform="translate(-1.5)" fill="#cdb184"></path></svg>