<svg xmlns="http://www.w3.org/2000/svg" viewBox="0 0 64 64"><path fill="#9A8774" d="M60.7 12.5l-24.4-.2c-1.9 0-3.4 1.4-3.4 3.2l-.2 16.4c0 1.8 1.5 3.3 3.3 3.3h4.6l-.8 7.3c0 .3.2.7.5.8.3.1.7.1.9-.1l8.3-7.9 11 .1c1.9 0 3.4-1.4 3.4-3.2l.1-16.4c0-1.8-1.5-3.3-3.3-3.3zm1.5 19.6c0 .9-.8 1.6-1.7 1.6l-11.3-.1c-.2 0-.4.1-.6.2l-6.8 6.5.7-5.9c0-.5-.4-.9-.8-.9H36c-.9 0-1.7-.7-1.7-1.7l.2-16.4c0-.9.8-1.6 1.7-1.6l24.4.2c.9 0 1.7.7 1.7 1.7l-.1 16.4zM23 27.9c-.1-.1-.4-.1-.5-.1-.2 0-.6.1-.7.4-.1.2-.1.4-.1.6s.2.4.3.5c5.5 3.7 6.9 11.1 3.2 16.6-1.8 2.7-4.5 4.5-7.7 5.1-3.1.6-6.3-.1-9-1.9-.2-.1-.5-.2-.7-.1-.1.1-.4.2-.4.4-.1.2-.1.4-.1.6s.2.4.3.5c2.3 1.5 5 2.4 7.6 2.4.9 0 1.8-.1 2.6-.3 3.6-.7 6.7-2.8 8.7-5.8 2-3 2.8-6.7 2.1-10.3C28 33 26 29.9 23 27.9z"></path><path fill="#9A8774" d="M10.1 45.6c-.2.1-.4.2-.5.3-.1.2-.1.4-.1.6s.2.4.3.5c1.6 1.1 3.5 1.7 5.4 1.7.6 0 1.3-.1 1.9-.2 2.5-.4 4.7-1.9 6.2-4.1 1.5-2.2 2-4.8 1.5-7.3-.4-2.5-1.9-4.7-4-6.2-.1-.1-.4-.1-.5-.1-.2 0-.4.1-.7.4-.1.2-.1.4-.1.6s.2.4.3.5c1.8 1.3 3 3.1 3.4 5.2.4 2.1-.1 4.2-1.3 6-1.3 1.8-3.1 3-5.2 3.4-2.1.4-4.2-.1-6.1-1.3h-.5z"></path><path fill="#9A8774" d="M12.8 42.6c-.2-.1-.4-.1-.6-.1-.2.1-.4.2-.5.3-.2.4-.1.9.3 1.1 1 .7 2.1 1 3.2 1 1.9 0 3.7-.9 4.8-2.5.9-1.3 1.2-2.8.9-4.3-.3-1.5-1.2-2.9-2.4-3.7-.1-.1-.4-.1-.5-.1-.2 0-.6.1-.7.4-.2.4-.1.9.3 1.1.9.6 1.5 1.6 1.6 2.7.2 1.1 0 2.2-.7 3.1-1.3 1.7-3.8 2.2-5.7 1zM32.8 4.2c-.1-.9-.6-1.7-1.5-2.3-.2-.1-.4-.2-.7-.4l-.6-.3-.5-.2C27.8.3 25.9-.1 24-.1c-1.1 0-2 .2-2.9.4-3 .8-5.7 2.7-7.3 5.2L2 23.2C.2 25.8-.5 28.9 0 32c.3 2.8 1.7 5.5 3.8 7.5l.4.3.6.5c.1.1.2.2.3.2.1.1.2.2.4.3.6.4 1.3.6 1.9.6.2 0 .4 0 .7-.1.9-.1 1.7-.6 2.3-1.4l4.3-6.5c1.1-1.6.6-3.8-1-4.8l-.9-.6s0-.1-.1-.1c-.1-.2-.2-.6-.3-.9 0-.4.2-.9.4-1.3l7.4-11c.1-.1.3-.3.4-.5l.3-.3c.2-.2.4-.2.6-.2h.6c.1 0 .1.1.1.1s.1 0 .1.1c1.3.9 2.6 1.3 3.7 1.1.7-.2 1.4-.7 1.9-1.4l4.3-6.5c.7-1.2.8-2.1.6-2.9zM31 5.8l-4.3 6.5c-.2.4-.5.6-.9.7-.6.2-1.4 0-2.2-.6L27.8 6l2.1-3 .6.3c.5.3.7.8.8 1.1.1.5 0 1-.3 1.4zM10.7 27c-.1.5.1 1 .3 1.4L4.5 38c-1.6-1.6-2.7-3.8-3-6.1-.4-2.7.2-5.5 1.7-7.7L15.1 6.3c1.5-2.2 3.7-3.8 6.4-4.5.9-.3 1.9-.4 2.9-.4 1.4 0 2.7.3 4 .8l-3.9 6-2.4 3.6c-.2-.1-.5 0-.7 0-.5 0-.9.2-1.3.5l-.1.1c-.1.1-.3.3-.5.6-.1.1-.4.5-.5.7l-7.3 11c-.8.7-1 1.5-1 2.3zM5.8 39.1l4.3-6.5 2-3 .6.4c.4.2.7.6.8 1.1.1.5 0 1-.2 1.4L8.8 39c-.2.3-.6.6-1.1.7-.5.1-1 0-1.3-.3-.3-.1-.5-.2-.6-.3zM57.6 19.4h-19c-.4 0-.8.4-.8.8s.4.8.8.8h18.9c.4 0 .8-.4.8-.8s-.3-.8-.7-.8zM57.6 25.7h-19c-.4 0-.8.4-.8.8s.4.8.8.8h18.9c.4 0 .8-.4.8-.8s-.3-.8-.7-.8z"></path></svg>