<svg xmlns="http://www.w3.org/2000/svg" viewBox="0 0 144 144"><g id="b73ac9da-af5f-4184-8f54-1081af85406c"><rect x="-0.165" width="144" height="144" fill="#fff" opacity="0"/></g><g id="e7a4fa49-76e8-4bec-a6bb-da1318ad07c7"><circle cx="71.078" cy="93.921" r="19.087" class="sgmaincolor"/><path d="M13.572,42.574V61.958H129.85V42.574Z" class="sgmaincolor"/><circle cx="22.936" cy="52.808" r="3.098" /><circle cx="32.23" cy="52.808" r="3.098" /><circle cx="41.525" cy="52.808" r="3.098" /><path d="M129.85,41.517H13.572a1,1,0,0,0-1,1v84.276a1,1,0,0,0,1,1H129.85a1,1,0,0,0,1-1V42.517A1,1,0,0,0,129.85,41.517ZM71.917,124.768c-21.209-.016-41.892-11.163-56.829-30.592C30.01,75.024,50.551,64.059,71.6,64.059h.049c20.981.018,40.841,10.879,55.98,30.59-15.114,19.43-34.844,30.119-55.668,30.119ZM82.406,63H128.85V92.958C115.985,76.408,99.813,66.043,82.406,63ZM14.572,91.6V63H60.763C43.5,65.991,27.169,76.024,14.572,91.6ZM128.85,43.517V61H14.572V43.517ZM14.572,96.766c12.6,15.787,29,25.97,46.372,29.027H14.572Zm68.371,29.027c17.171-3.05,33.14-13.232,45.907-29.453v29.453Z" /><path d="M70.8,114.008A20.087,20.087,0,1,1,90.882,93.922,20.11,20.11,0,0,1,70.8,114.008Zm0-38.173A18.087,18.087,0,1,0,88.882,93.922,18.106,18.106,0,0,0,70.8,75.835Z" /><path d="M70.8,102.44a8.519,8.519,0,1,1,8.518-8.518A8.529,8.529,0,0,1,70.8,102.44Zm0-15.038a6.519,6.519,0,1,0,6.518,6.52A6.528,6.528,0,0,0,70.8,87.4Z" /><path d="M33.7,27.593a1.012,1.012,0,0,1-.419-.092L17.946,20.428a1,1,0,0,1-.154-1.728L31.519,9.1a1,1,0,0,1,1.568.723L34.7,26.5a1,1,0,0,1-.995,1.1ZM20.366,19.341,32.54,24.955,31.261,11.723Z" /><path d="M109.217,30.942a8.04,8.04,0,1,1,8.039-8.039A8.048,8.048,0,0,1,109.217,30.942Zm0-14.079a6.04,6.04,0,1,0,6.039,6.04A6.047,6.047,0,0,0,109.217,16.863Z" /></g></svg>
