<svg xmlns="http://www.w3.org/2000/svg" viewBox="0 0 30.38 32"><path d="M29.87,32H2A1.25,1.25,0,0,1,.73,30.75V12.88A1.25,1.25,0,0,1,2,11.63H29.87a1.25,1.25,0,0,1,1.24,1.25V30.75A1.25,1.25,0,0,1,29.87,32ZM2,12.58a.3.3,0,0,0-.3.3V30.75a.3.3,0,0,0,.3.3H29.87a.31.31,0,0,0,.3-.3V12.88a.31.31,0,0,0-.3-.3Z" transform="translate(-0.73)" fill="#cdb084"></path><rect x="4.28" y="7.36" width="21.82" height="0.95" fill="#cdb084"></rect><rect x="6.99" y="3.68" width="16.39" height="0.95" fill="#cdb084"></rect><rect x="11" width="8.39" height="0.95" fill="#cdb084"></rect><path d="M20.11,18.57,16.28,14.8a.45.45,0,0,0-.36-.13.46.46,0,0,0-.36.13l-3.82,3.77a.46.46,0,0,0,0,.67.44.44,0,0,0,.33.15.48.48,0,0,0,.34-.14l3-2.93V28h.94V16.17l3.12,3.08a.47.47,0,0,0,.33.14.45.45,0,0,0,.34-.15A.47.47,0,0,0,20.11,18.57Z" transform="translate(-0.73)" fill="#cdb084"></path></svg>