<svg xmlns="http://www.w3.org/2000/svg" viewBox="0 0 96 96"><rect opacity="0" width="96" height="96" fill="#fff"/><path d="M21.889,91.884l46-4L76.992,70l17.4.382-6-55L24.722,18.921l-7.765,7.946Z" class="sgmaincolor"/><path d="M30.942,30.1c-.21-.447-1.036-.506-1.987-.2l-5.519-5.519-1.415,1.414,5.124,5.124c-.508.465-.756.96-.593,1.307.26.551,1.452.522,2.664-.065S31.2,30.648,30.942,30.1Z"/><path d="M89.145,14.449,28.286,17.83l1.62-1.62-3.158-3.158-2.27.87L13.829,6.448l-.5-1.734L12.538,2-.094,14.631l4.448,1.293,7.474,10.65-.87,2.269L14.116,32l1.936-1.936,4.781,63.02,47.26-4.11L95.313,71ZM14.116,29.172l-.826-.825.406-1.056.381-.994-.612-.872L5.99,14.775l-.4-.575L4.912,14l-1.2-.349L11.562,5.8,11.908,7l.2.678.577.405,10.649,7.474.87.611.994-.38,1.058-.406.826.826L25.291,18l-.043,0-9.4,9.4,0,.039Zm3.8-.973,8.248-8.248,61.2-3.4L93.083,69,76.129,69,67.353,87.031,22.675,90.916ZM91.681,71,70.605,84.918,77.379,71Z"/><path d="M62.2,43.47a7.615,7.615,0,0,1-.818,4.31A8.584,8.584,0,0,1,58.375,51a9.491,9.491,0,0,1,4.034,2.815,8.094,8.094,0,0,1,1.8,4.588,8.567,8.567,0,0,1-2.355,7.117,12.018,12.018,0,0,1-7.811,3.219,12.077,12.077,0,0,1-8.277-1.823,8.551,8.551,0,0,1-3.575-6.586,8.14,8.14,0,0,1,.975-4.844,9.33,9.33,0,0,1,3.462-3.458,8.482,8.482,0,0,1-3.511-2.647,7.654,7.654,0,0,1-1.544-4.1,8.478,8.478,0,0,1,2.2-6.877,10.963,10.963,0,0,1,7.324-3.132,11.032,11.032,0,0,1,7.743,1.792A8.437,8.437,0,0,1,62.2,43.47Zm-6.439.879a4.494,4.494,0,0,0-1.275-2.966,4.112,4.112,0,0,0-5.664.461,4.469,4.469,0,0,0-.736,3.176,4.694,4.694,0,0,0,1.281,3.044,4,4,0,0,0,5.672-.5A4.729,4.729,0,0,0,55.765,44.349ZM57.679,58.5a4.705,4.705,0,0,0-1.529-3.293,4.941,4.941,0,0,0-6.6.566,5.327,5.327,0,0,0,.57,6.771A5.068,5.068,0,0,0,56.779,62,4.69,4.69,0,0,0,57.679,58.5Z"/></svg>