<svg xmlns="http://www.w3.org/2000/svg" viewBox="0 0 128 128"><path d="M85.516 83.508l2.32-4.847a1.106 1.106 0 0 1 1.9-.448l7.431 7.573a1.106 1.106 0 0 0 1.672-.02l3.3-3.784a1.1 1.1 0 0 0-.051-1.482l-7.209-7.439a1.105 1.105 0 0 1 .412-1.806l5.245-2.63a1.105 1.105 0 0 0 .136-2.014L76.849 55.319a1.105 1.105 0 0 0-1.562 1.338l8.5 26.915a.9.9 0 0 0 1.729-.064z" fill="#edddc5"></path><path d="M112.153 27.4a9.575 9.575 0 0 0-9.565-9.564 1.218 1.218 0 1 1 0-2.435 9.576 9.576 0 0 0 9.565-9.566 1.217 1.217 0 1 1 2.434 0 9.577 9.577 0 0 0 9.566 9.566 1.218 1.218 0 0 1 0 2.435 9.576 9.576 0 0 0-9.566 9.564 1.217 1.217 0 1 1-2.434 0zm1.217-16.3a12.086 12.086 0 0 1-5.518 5.519 12.086 12.086 0 0 1 5.518 5.519 12.084 12.084 0 0 1 5.519-5.519 12.084 12.084 0 0 1-5.519-5.519zM13.691 120.919a4 4 0 1 1-4-4 4 4 0 0 1 4 4m18.6.2a3 3 0 1 1-3-3 3 3 0 0 1 3 3" fill="#e4cdac"></path><path d="M73.984 66.488H25.843a1.5 1.5 0 0 1-1.5-1.5V15.063a1.5 1.5 0 0 1 1.5-1.5h60.623a1.5 1.5 0 0 1 1.5 1.5v41.01a1.5 1.5 0 0 1-3 0v-39.51H27.343v46.925h46.641a1.5 1.5 0 0 1 0 3z" fill="#c1aa95"></path><path d="M45.293 38.1a7.957 7.957 0 1 1 7.957-7.957 7.966 7.966 0 0 1-7.957 7.957zm0-12.914a4.957 4.957 0 1 0 4.957 4.957 4.962 4.962 0 0 0-4.957-4.957zm-17.667 34.17a1.5 1.5 0 0 1-1.061-2.56L40.83 42.531a1.546 1.546 0 0 1 1.144-.437 1.5 1.5 0 0 1 1.088.56L49.1 50.2l18.43-20.1a1.5 1.5 0 0 1 1.074-.487 1.529 1.529 0 0 1 1.092.44L85.743 46.1a1.5 1.5 0 1 1-2.121 2.121L68.683 33.279 50.128 53.521a1.417 1.417 0 0 1-1.156.485 1.5 1.5 0 0 1-1.12-.562l-6.085-7.606-13.08 13.079a1.5 1.5 0 0 1-1.061.439z" fill="#c1aa95"></path><path d="M95.381 82.535a1.5 1.5 0 0 1-1.061-.435l-9.09-9.09-2.721 6.8a1.5 1.5 0 0 1-1.393.942H81.1a1.5 1.5 0 0 1-1.388-.974L69.015 51.25a1.5 1.5 0 0 1 1.93-1.931l28.528 10.7a1.5 1.5 0 0 1 .031 2.8l-6.8 2.722 9.09 9.09a1.5 1.5 0 0 1 0 2.121L96.441 82.1a1.493 1.493 0 0 1-1.06.435zm-10.7-13.7a1.5 1.5 0 0 1 1.06.439l9.638 9.638 3.227-3.227-9.637-9.638a1.5 1.5 0 0 1 .5-2.453l5.331-2.127-21.813-8.18L81.161 75.1l2.129-5.322a1.5 1.5 0 0 1 1.091-.912 1.539 1.539 0 0 1 .302-.029z" fill="#c1aa95"></path><path d="M120.343 109.284H9.8a1.5 1.5 0 0 1-1.5-1.5v-73.1a1.5 1.5 0 0 1 1.5-1.5h16.043a1.5 1.5 0 1 1 0 3H11.3v70.1h107.543v-70.1H93.6a1.5 1.5 0 0 1 0-3h26.745a1.5 1.5 0 0 1 1.5 1.5v73.1a1.5 1.5 0 0 1-1.502 1.5z" fill="#c1aa95"></path></svg>