<svg xmlns="http://www.w3.org/2000/svg" viewBox="0 0 116 89.804"><title>presentational-caching</title><circle cx="71.6" cy="69.802" r="16.2" fill="#f9dac3"/><path d="M16.1,92.6a1.538,1.538,0,0,1-1.5-1.5V36.8a8.839,8.839,0,0,1,9.1-8.6h78.6a1.5,1.5,0,0,1,0,3H23.6a5.961,5.961,0,0,0-6.1,5.6V91.1a1.391,1.391,0,0,1-1.4,1.5Z" transform="translate(-5.2 -19.298)" fill="#d45e2a"/><path d="M6.7,83.7a1.538,1.538,0,0,1-1.5-1.5V27.9a8.814,8.814,0,0,1,9-8.6H92.8a1.5,1.5,0,0,1,0,3H14.3a5.961,5.961,0,0,0-6.1,5.6V82.2a1.473,1.473,0,0,1-1.5,1.5Z" transform="translate(-5.2 -19.298)" fill="#d45e2a"/><path d="M112.2,37.6H33.5a8.9,8.9,0,0,0-9.1,8.6v54.3a8.839,8.839,0,0,0,9.1,8.6h78.6a8.9,8.9,0,0,0,9.1-8.6V46.2A8.752,8.752,0,0,0,112.2,37.6Zm-78.7,3h78.6a5.961,5.961,0,0,1,6.1,5.6v8H27.5v-8A5.808,5.808,0,0,1,33.5,40.6Zm78.7,65.5H33.5a5.961,5.961,0,0,1-6.1-5.6V57.2h90.7v43.3A5.66,5.66,0,0,1,112.2,106.1Z" transform="translate(-5.2 -19.298)" fill="#d45e2a"/><circle cx="31.2" cy="27.902" r="2.7" fill="#d45e2a"/><circle cx="39.3" cy="27.902" r="2.7" fill="#d45e2a"/><circle cx="47.3" cy="27.902" r="2.7" fill="#d45e2a"/><path d="M89,73.9Z" transform="translate(-5.2 -19.298)" fill="#d45e2a"/><path d="M90.1,71.4l-3.4-3.5A1.485,1.485,0,0,0,84.6,70l.6.6-1.3,1.3a16.753,16.753,0,0,0-9.6-3.8V65.6H77a1.5,1.5,0,1,0,0-3H68.5a1.5,1.5,0,0,0,0,3h2.7v2.5A16.639,16.639,0,0,0,61,73a1.485,1.485,0,1,0,2.1,2.1A14.087,14.087,0,0,1,73,71a13.9,13.9,0,1,1-9.7,23.9A1.485,1.485,0,0,0,61.2,97,16.9,16.9,0,0,0,89.8,84.8a16.655,16.655,0,0,0-4-10.9l1.3-1.3.8.8a1.5,1.5,0,0,0,1.1.4,2.1,2.1,0,0,0,1.1-.4A1.335,1.335,0,0,0,90.1,71.4Z" transform="translate(-5.2 -19.298)" fill="#d45e2a"/><path d="M63.5,80.3H54.7a1.5,1.5,0,0,1,0-3h8.8a1.5,1.5,0,1,1,0,3Z" transform="translate(-5.2 -19.298)" fill="#d45e2a"/><path d="M63.5,92.9H54.7a1.5,1.5,0,0,1,0-3h8.8a1.5,1.5,0,0,1,0,3Z" transform="translate(-5.2 -19.298)" fill="#d45e2a"/><path d="M65.5,86.6H56.7a1.5,1.5,0,0,1,0-3h8.8a1.5,1.5,0,0,1,0,3Z" transform="translate(-5.2 -19.298)" fill="#d45e2a"/><path d="M81.1,76.5a1.45,1.45,0,0,0-2.1,0l-5,5a4.253,4.253,0,0,0-1.1-.2A3.842,3.842,0,0,0,69,85.2a3.9,3.9,0,1,0,7.8,0,3.453,3.453,0,0,0-.5-1.8l4.8-4.8A1.45,1.45,0,0,0,81.1,76.5Zm-8.2,9.6a.9.9,0,1,1,.9-.9A.9.9,0,0,1,72.9,86.1Z" transform="translate(-5.2 -19.298)" fill="#d45e2a"/></svg>