<svg xmlns="http://www.w3.org/2000/svg" viewBox="0 0 144 144"><line x1="96.369" y1="26.041" x2="103.447" y2="15.056" class="sgmaincolor"/><path d="M96.368,27.041a1,1,0,0,1-.84-1.542l7.079-10.984a1,1,0,1,1,1.681,1.083L97.209,26.582A1,1,0,0,1,96.368,27.041Z"/><line x1="57.859" y1="26.041" x2="55.704" y2="12.853" class="sgmaincolor"/><path d="M57.859,27.041a1,1,0,0,1-.987-.839L54.716,13.015a1,1,0,0,1,1.975-.323l2.156,13.187a1.006,1.006,0,0,1-.988,1.162Z"/><line x1="40.305" y1="27.533" x2="31.958" y2="16.549" class="sgmaincolor"/><path d="M40.306,28.533a1,1,0,0,1-.8-.395L31.161,17.154a1,1,0,1,1,1.592-1.21L41.1,26.928a1,1,0,0,1-.8,1.605Z"/><polygon points="28.122 68.063 69.772 111.525 106.567 71.486 117.24 55.906 99.962 41.78 83.189 37.06 58.341 35.819 40.06 39.736 21.907 51.452 28.122 68.063" class="sgmaincolor"/><rect width="144" height="144" fill="#fff" opacity="0"/><path d="M17.273,130.411a1,1,0,0,1-.779-1.627L33.272,107.91a1,1,0,1,1,1.558,1.253L18.053,130.037A1,1,0,0,1,17.273,130.411Z"/><path d="M118.782,42.017a1,1,0,0,1-.932-1.363l5.821-14.976a1,1,0,0,1,1.712-.263l10.059,12.529a1,1,0,0,1-.628,1.614l-15.88,2.447A.983.983,0,0,1,118.782,42.017Zm6.126-14-4.567,11.748,12.456-1.92Z"/><path d="M17.119,90.976a1,1,0,0,1-.76-.351L6.61,79.2a1,1,0,0,1,.579-1.632l14.771-2.73a1,1,0,0,1,1.124,1.318L18.062,90.311a1,1,0,0,1-.761.648A.927.927,0,0,1,17.119,90.976ZM9.255,79.217l7.5,8.792L20.62,77.117Z"/><path d="M14.594,32.43a9.155,9.155,0,1,1,9.155-9.155A9.165,9.165,0,0,1,14.594,32.43Zm0-16.31a7.155,7.155,0,1,0,7.155,7.155A7.163,7.163,0,0,0,14.594,16.12Z"/><polygon points="113.245 138.383 137.878 123.61 138.866 111.295 127.417 92.204 123.476 91.218 118.55 94.173 122.612 100.947 118.55 94.173 114.609 93.187 109.683 96.141 113.376 102.3 109.683 96.141 105.742 95.155 100.815 98.11 106.355 107.347 92.69 84.562 88.75 83.576 86.286 85.053 85.3 88.994 105.613 122.864 105.613 122.864 98.965 111.779 95.025 110.793 92.561 112.271 91.575 116.211 103.394 135.918 113.245 138.383" class="sgmaincolor"/><path d="M139.723,110.781,128.275,91.69a1,1,0,0,0-.615-.456l-3.942-.986a1.006,1.006,0,0,0-.757.113l-4.57,2.741-3.54-.885a1,1,0,0,0-.757.113l-4.57,2.741-3.539-.886a1,1,0,0,0-.758.113l-4.068,2.44L94.665,85.912,107.3,72.163a1.181,1.181,0,0,0,.089-.112l10.673-15.58a1,1,0,0,0-.193-1.339l-3.16-2.584-.008-.006L100.593,41.005c-.019-.015-.045-.019-.065-.034a1.046,1.046,0,0,0-.185-.1.99.99,0,0,0-.112-.058L83.457,36.1a.9.9,0,0,0-.22-.036L58.388,34.821a.952.952,0,0,0-.26.02l-18.28,3.917a.988.988,0,0,0-.332.138L21.363,50.612a1,1,0,0,0-.107.1.915.915,0,0,0-.086.079.992.992,0,0,0-.216.354l0,.005a.974.974,0,0,0-.043.287c0,.026,0,.051,0,.076a.985.985,0,0,0,.048.252c0,.013,0,.027.007.04l6.216,16.611c0,.013.017.023.023.036a.956.956,0,0,0,.12.191.842.842,0,0,0,.072.114l41.649,43.462.013.009c.008.008.014.018.023.026l.016.012c.016.014.034.024.051.037l.011.008c.011.009.017.022.029.031s.027.012.04.02a.974.974,0,0,0,.118.065.493.493,0,0,0,.046.023.179.179,0,0,0,.024.012l.006,0c.008,0,.015,0,.023,0l.047.015a.968.968,0,0,0,.263.04l.012,0h.015c.036,0,.071,0,.108-.006.017,0,.029-.013.045-.016a.481.481,0,0,0,.195-.054c.022-.009.044-.015.066-.025l.041-.021c.012-.007.025-.01.037-.017l.008,0c.008,0,.011-.011.018-.016a.882.882,0,0,0,.149-.125c.017-.015.039-.022.054-.038L87.175,94.063l9.691,16.16-1.6-.4a1.007,1.007,0,0,0-.758.113l-2.464,1.477a1,1,0,0,0-.455.615l-.985,3.94a.993.993,0,0,0,.112.757l11.818,19.707a1,1,0,0,0,.615.456L113,139.353a1,1,0,0,0,.758-.113l24.633-14.773a1,1,0,0,0,.482-.777l.988-12.315A1,1,0,0,0,139.723,110.781ZM93.593,84.124l-.046-.076a1,1,0,0,0-.614-.456l-1.76-.441,11.07-15.569,3.012,3.852Zm9.084-19.234.137-6.695,2.514,10.085ZM115.894,56.1l-8.462,12.352-4.336-17.4,10.492,3.163Zm-6.353-5.194-6.724-2.027-1.129-4.394ZM100.7,63.654l-17.52-8.379,17.78-4.323ZM51.443,54.52,48.751,75.929,32.817,62.3ZM31.578,60.649,34.2,50.012l14.69,3.408Zm21.667-4.424,9.808,12.733-12.3,7.069Zm1.032-1.937,23.528,1.524L64.672,67.783ZM79.428,57.04l2.056,19.772-15.2-7.791Zm1.97-.4,18.245,8.726-16.224,10.7ZM41.578,40.433l16.841-3.608,24.606,1.228,16.11,4.533,1.633,6.355L80.131,53.958l-27.85-1.8-17.6-4.083Zm-5.4,3L33.2,46.73l-4.3,1.4Zm-3.817,5.675L29.634,60.182l-6.1-8.209ZM28.1,65.142l-2.774-7.413,3.656,4.922Zm1.174,2.674,1.609-4.543L48.739,78.55l15.544,25.8ZM50.9,78.253l12.841-7.382L68.2,106.982ZM70.255,107.3l-4.488-36.3,14.99,7.681Zm12.57-28.447L99.677,67.738,89.089,82.63l-.1-.025a1.006,1.006,0,0,0-.758.113L85.772,84.2a.993.993,0,0,0-.455.615l-.987,3.94a.988.988,0,0,0,.031.528L73.28,104.862ZM79.841,99.088l5.613-7.894.648,1.081Zm57.081,23.929-23.836,14.3-9.048-2.264-11.392-19,.784-3.137,1.754-1.051,3.137.785,6.434,10.729a1,1,0,1,0,1.715-1.028l-6.647-11.085-.012-.019L86.37,88.834l.786-3.136,1.753-1.052,3.136.786L105.5,107.861a1,1,0,1,0,1.715-1.028l-5.024-8.38,3.713-2.227,3.137.785,3.48,5.8a1,1,0,0,0,1.715-1.028l-3.178-5.3,3.713-2.227,3.138.784,3.849,6.419a1,1,0,0,0,1.858-.515.988.988,0,0,0-.143-.513l-3.548-5.917,3.713-2.227,3.138.785,11.07,18.46Z"/></svg>