<svg xmlns="http://www.w3.org/2000/svg" viewBox="0 0 96 96"><rect opacity="0" width="96" height="96" fill="#fff"/><path d="M21.889,91.884l46-4L76.992,70l17.4.382-6-55L24.722,18.921l-7.765,7.946Z" class="sgmaincolor"/><path d="M89.144,14.449,28.286,17.83l1.619-1.62-3.158-3.158-2.27.87L13.829,6.448l-.5-1.734L12.538,2-.095,14.631l4.448,1.293,7.475,10.65-.871,2.269L14.116,32l1.936-1.936,4.781,63.02,47.259-4.11L95.313,71ZM14.116,29.171l-.826-.824.406-1.056.381-1-.612-.871L5.99,14.775l-.4-.575L4.912,14l-1.2-.348L11.562,5.8,11.908,7l.2.678.577.405,10.648,7.474.872.611.993-.38,1.058-.406.826.826L25.291,18l-.043,0-9.4,9.4,0,.039Zm3.8-.971,8.248-8.249,61.2-3.4L93.084,69H76.128L67.353,87.03,22.675,90.917ZM91.681,71,70.605,84.917,77.378,71Z"/><path d="M30.942,30.1c-.21-.447-1.036-.506-1.987-.2l-5.519-5.52-1.414,1.415,5.124,5.124c-.509.465-.757.96-.594,1.307.259.55,1.452.522,2.664-.065S31.2,30.648,30.942,30.1Z"/><path d="M46.546,68.96l-6.467.567L37.9,44.6l-7.51,3.068-.46-5.257L43,36.4l.694-.061Z"/><path d="M76.046,52.806q.592,6.759-1.892,10.582t-7.876,4.3q-5.325.466-8.453-2.8t-3.767-9.816l-.525-6q-.6-6.827,1.924-10.608t7.847-4.25q5.325-.465,8.451,2.791t3.767,9.805ZM69,46.779q-.355-4.055-1.623-5.805a3.761,3.761,0,0,0-3.62-1.545,3.694,3.694,0,0,0-3.214,2.053,11.22,11.22,0,0,0-.671,5.6l.7,7.927a12.561,12.561,0,0,0,1.6,5.83,3.71,3.71,0,0,0,3.649,1.633,3.649,3.649,0,0,0,3.261-2.16,12.285,12.285,0,0,0,.6-5.785Z"/></svg>