<svg xmlns="http://www.w3.org/2000/svg" viewBox="0 0 114 96.007"><title>presentational-wordpress-real-time-backup</title><circle cx="92.6" cy="76.007" r="20" fill="#c8ebf0"/><path d="M99.7,16H16.5A9.266,9.266,0,0,0,7,25V82.5a9.266,9.266,0,0,0,9.5,9H66.7a1.5,1.5,0,0,0,0-3H16.5a6.324,6.324,0,0,1-6.5-6v-46h96.3V60.2a1.5,1.5,0,0,0,3,0V25A9.35,9.35,0,0,0,99.7,16ZM10,33.5V25a6.324,6.324,0,0,1,6.5-6H99.8a6.324,6.324,0,0,1,6.5,6v8.5Z" transform="translate(-7 -15.993)" fill="#25b8d2"/><circle cx="12.9" cy="10.007" r="2.8" fill="#25b8d2"/><circle cx="21.4" cy="10.007" r="2.8" fill="#25b8d2"/><circle cx="30" cy="10.007" r="2.8" fill="#25b8d2"/><path d="M77.1,99a1.568,1.568,0,0,1-1.4-.9c-.4-1-.8-1.9-1.1-2.9a1.584,1.584,0,0,1,1-1.9,1.5,1.5,0,0,1,1.9,1c.3.9.6,1.8.9,2.6a1.541,1.541,0,0,1-.8,2A.749.749,0,0,1,77.1,99Zm-1.9-8.6a1.538,1.538,0,0,1-1.5-1.5v-.3a26.2,26.2,0,0,1,.1-2.8,1.458,1.458,0,0,1,2.9.3,20.9,20.9,0,0,0-.1,2.5v.3a1.338,1.338,0,0,1-1.4,1.5Z" transform="translate(-7 -15.993)" fill="#25b8d2"/><path d="M80.8,105.4a1.425,1.425,0,0,1-1.2-.6,7.328,7.328,0,0,1-.9-1.2,1.512,1.512,0,1,1,2.5-1.7c.4.6.7,1,.7,1a1.55,1.55,0,0,1-.2,2.1A1.222,1.222,0,0,1,80.8,105.4Z" transform="translate(-7 -15.993)" fill="#25b8d2"/><path d="M119.5,105.1h-5.2A23.619,23.619,0,0,0,97.4,65c-9.6,0-17.5,4.8-21.3,12.7a1,1,0,0,0-.4.5,7.838,7.838,0,0,0-.5,1.4,1.446,1.446,0,0,0,.9,1.9.9.9,0,0,0,.5.1,1.5,1.5,0,0,0,1.4-1,4.875,4.875,0,0,0,.3-.7.85.85,0,0,0,.3-.5C81.8,72.3,88.8,68,97.4,68a20.527,20.527,0,0,1,13.9,35.7V96.8a1.5,1.5,0,0,0-3,0v9.7a1.538,1.538,0,0,0,1.5,1.5h9.7a1.538,1.538,0,0,0,1.5-1.5A1.394,1.394,0,0,0,119.5,105.1Z" transform="translate(-7 -15.993)" fill="#25b8d2"/><path d="M98.8,91.5h-11a1.5,1.5,0,0,1,0-3h9.6V74.8a1.5,1.5,0,1,1,3,0V90A1.63,1.63,0,0,1,98.8,91.5Z" transform="translate(-7 -15.993)" fill="#25b8d2"/><path d="M85.8,47.5a5.8,5.8,0,0,0-8.1,0,5.606,5.606,0,0,0-1.7,4,5.281,5.281,0,0,0,1.7,4c-3.4,4.5-7,9.3-8.2,10.6a5.809,5.809,0,0,0-5.3-.3C59.1,61.2,53.7,56.2,53,55.4a1.205,1.205,0,0,0-.5-.5,5.5,5.5,0,0,0,1.2-3.5A5.7,5.7,0,0,0,48,45.7a5.726,5.726,0,0,0-4.6,9.1C39.9,59.5,36,64.5,34.7,66a5.376,5.376,0,0,0-2.8-.8,5.7,5.7,0,0,0-5.7,5.7,5.763,5.763,0,0,0,5.7,5.7,5.7,5.7,0,0,0,5.7-5.7,6.026,6.026,0,0,0-.8-2.9c1.7-1.9,5.6-7,8.9-11.4a5.54,5.54,0,0,0,4.6,0c0,.1,0,.1.1.2.2.3.5,1,11.5,10.9a5.779,5.779,0,0,0-1,3.2,5.7,5.7,0,1,0,11.4,0,6.812,6.812,0,0,0-.7-2.8c1.6-1.7,5.5-6.8,8.7-11.2a5.9,5.9,0,0,0,1.4.2,5.7,5.7,0,0,0,4.1-9.6ZM31.9,73.8a2.7,2.7,0,1,1,2.7-2.7A2.689,2.689,0,0,1,31.9,73.8ZM46.1,53.5a2.732,2.732,0,0,1-.8-1.9A2.689,2.689,0,0,1,48,48.9a2.732,2.732,0,0,1,1.9.8,2.6,2.6,0,0,1,0,3.8A2.782,2.782,0,0,1,46.1,53.5ZM66.6,73.8a2.7,2.7,0,1,1,2.7-2.7A2.689,2.689,0,0,1,66.6,73.8ZM83.7,53.5a2.781,2.781,0,0,1-3.8,0,2.6,2.6,0,0,1,0-3.8,2.687,2.687,0,1,1,3.8,3.8Z" transform="translate(-7 -15.993)" fill="#25b8d2"/></svg>