<svg xmlns="http://www.w3.org/2000/svg" viewBox="0 0 96 96"><g opacity="0"><rect width="96" height="96" fill="#fff"/></g><rect x="2" y="46" width="91" height="40" class="sgmaincolor"/><path d="M28.528,70.014H26.4V75.8H22.452V59.446h6.435a7.185,7.185,0,0,1,4.549,1.29,4.372,4.372,0,0,1,1.639,3.646,5.313,5.313,0,0,1-.69,2.827,4.912,4.912,0,0,1-2.162,1.818l3.414,6.6V75.8H31.414ZM26.4,66.982h2.492a2.237,2.237,0,0,0,1.69-.591,2.288,2.288,0,0,0,.568-1.65,2.314,2.314,0,0,0-.573-1.66,2.216,2.216,0,0,0-1.685-.6H26.4Z"/><path d="M46.744,72.743h-5.4L40.4,75.8H36.188l6-16.352h3.707L51.932,75.8H47.7ZM42.285,69.7H45.8l-1.764-5.671Z"/><path d="M58.3,59.446l3.65,11.376,3.639-11.376h5.189V75.8H66.823V71.979l.382-7.816L63.252,75.8H60.647L56.682,64.152l.383,7.827V75.8H53.122V59.446Z"/><path d="M93,44.872H83.234V40a1,1,0,0,0-2,0v4.872H74.426V40a1,1,0,0,0-2,0v4.872H65.617V40a1,1,0,0,0-2,0v4.872H56.809V40a1,1,0,0,0-2,0v4.872H48V40a1,1,0,0,0-2,0v4.872H39.192V40a1,1,0,0,0-2,0v4.872H30.383V40a1,1,0,0,0-2,0v4.872H21.574V40a1,1,0,0,0-2,0v4.872H12.766V40a1,1,0,0,0-2,0v4.872H1.979a1,1,0,0,0-1,1V86a1,1,0,0,0,1,1h8.787v4.872a1,1,0,0,0,2,0V87h6.808v4.872a1,1,0,0,0,2,0V87h6.809v4.872a1,1,0,0,0,2,0V87h6.809v4.872a1,1,0,0,0,2,0V87H46v4.872a1,1,0,1,0,2,0V87h6.809v4.872a1,1,0,0,0,2,0V87h6.808v4.872a1,1,0,1,0,2,0V87h6.809v4.872a1,1,0,0,0,2,0V87h6.808v4.872a1,1,0,0,0,2,0V87H93a1,1,0,0,0,1-1V45.872A1,1,0,0,0,93,44.872ZM92,85H2.979V46.872H92Z"/><path d="M25,27.632H11a1,1,0,0,1,0-2H25a1,1,0,0,1,0,2Z"/><path d="M18,34.579a1,1,0,0,1-1-1V19.684a1,1,0,1,1,2,0v13.9A1,1,0,0,1,18,34.579Z"/><path d="M70,11.842H53.561a1,1,0,0,1,0-2H70a1,1,0,0,1,0,2Z"/><path d="M61.78,20a1,1,0,0,1-1-1V2.684a1,1,0,1,1,2,0V19A1,1,0,0,1,61.78,20Z"/><path d="M81.5,32A7.5,7.5,0,1,1,89,24.5,7.508,7.508,0,0,1,81.5,32Zm0-13A5.5,5.5,0,1,0,87,24.5,5.507,5.507,0,0,0,81.5,19Z"/><path d="M44.225,18.5a.984.984,0,0,1-.407-.087L30.791,12.6a1,1,0,0,1-.179-1.722L42.153,2.5a1,1,0,0,1,1.582.705l1.484,14.185a1,1,0,0,1-.994,1.1ZM33.188,11.481l9.862,4.4L41.926,5.138Z"/></svg>