<svg xmlns="http://www.w3.org/2000/svg" viewBox="0 0 128 128"><title>128x128</title><circle cx="90.403" cy="92.857" r="14.28" fill="#c8ebf0"/><path d="M32.019,55.121a1.5,1.5,0,0,1-1.061-.44l-6.34-6.339a1.5,1.5,0,0,1,0-2.122l6.736-6.735a1.5,1.5,0,0,1,2.122,2.121L27.8,47.281l5.279,5.279a1.5,1.5,0,0,1-1.06,2.561Z" fill="#25b8d2"/><path d="M46.106,55.121a1.5,1.5,0,0,1-1.06-2.561l5.675-5.674-5.28-5.28a1.5,1.5,0,0,1,2.121-2.121l6.34,6.34a1.5,1.5,0,0,1,0,2.121l-6.735,6.735A1.5,1.5,0,0,1,46.106,55.121Z" fill="#25b8d2"/><path d="M36.29,57.5a1.471,1.471,0,0,1-.437-.066,1.5,1.5,0,0,1-1-1.871L40.4,37.336a1.5,1.5,0,0,1,2.87.873L37.724,56.435A1.5,1.5,0,0,1,36.29,57.5Z" fill="#25b8d2"/><path d="M116.352,110H57.525a6.985,6.985,0,0,1-7.147-6.8V62.59A6.985,6.985,0,0,1,57.525,55.8h58.827A6.985,6.985,0,0,1,123.5,62.59v40.616A6.985,6.985,0,0,1,116.352,110ZM57.525,58.8a3.987,3.987,0,0,0-4.147,3.794v40.616a3.987,3.987,0,0,0,4.147,3.8h58.827a3.987,3.987,0,0,0,4.147-3.8V62.59a3.987,3.987,0,0,0-4.147-3.794Z" fill="#25b8d2"/><path d="M44.875,74.814H10.948A6.986,6.986,0,0,1,3.8,68.019V27.4a6.986,6.986,0,0,1,7.148-6.795H69.773A6.986,6.986,0,0,1,76.921,27.4V50.511a1.5,1.5,0,1,1-3,0V27.4a3.987,3.987,0,0,0-4.148-3.795H10.948A3.988,3.988,0,0,0,6.8,27.4V68.019a3.988,3.988,0,0,0,4.148,3.795H44.875a1.5,1.5,0,0,1,0,3Z" fill="#25b8d2"/><path d="M121.908,71.175h-69.5a1.5,1.5,0,1,1,0-3h69.5a1.5,1.5,0,0,1,0,3Z" fill="#25b8d2"/><circle cx="59.659" cy="63.149" r="2.008" fill="#25b8d2"/><circle cx="65.683" cy="63.149" r="2.008" fill="#25b8d2"/><circle cx="71.707" cy="63.149" r="2.008" fill="#25b8d2"/><path d="M102.215,48.685a1.5,1.5,0,0,1-1.333-2.186A12.3,12.3,0,0,0,84.318,29.936a1.5,1.5,0,0,1-1.373-2.668,15.3,15.3,0,0,1,20.605,20.6A1.5,1.5,0,0,1,102.215,48.685Z" fill="#25b8d2"/><path d="M102.106,49.07a1.523,1.523,0,0,1-.335-.038,1.5,1.5,0,0,1-.935-.665L96.5,41.448a1.5,1.5,0,0,1,2.541-1.594L102.58,45.5l5.8-3.636a1.5,1.5,0,0,1,1.594,2.541L102.9,48.841A1.5,1.5,0,0,1,102.106,49.07Z" fill="#25b8d2"/><path d="M35.261,105.254A15.312,15.312,0,0,1,21.673,82.942a1.5,1.5,0,0,1,2.668,1.373A12.3,12.3,0,0,0,40.9,100.879a1.5,1.5,0,1,1,1.373,2.668A15.316,15.316,0,0,1,35.261,105.254Z" fill="#25b8d2"/><path d="M27.454,91.664a1.5,1.5,0,0,1-1.271-.7l-3.541-5.648-5.8,3.636a1.5,1.5,0,1,1-1.594-2.541l7.067-4.434a1.5,1.5,0,0,1,2.068.474l4.338,6.919a1.5,1.5,0,0,1-1.27,2.3Z" fill="#25b8d2"/><path d="M86.8,74.593A14.578,14.578,0,1,0,101.38,89.17,14.594,14.594,0,0,0,86.8,74.593ZM73.695,89.17a13.061,13.061,0,0,1,1.135-5.334l6.252,17.13A13.108,13.108,0,0,1,73.695,89.17ZM86.8,102.278a13.113,13.113,0,0,1-3.7-.534l3.933-11.427,4.028,11.037a1.235,1.235,0,0,0,.094.181A13.092,13.092,0,0,1,86.8,102.278Zm1.806-19.253c.789-.041,1.5-.124,1.5-.124a.542.542,0,0,0-.084-1.081s-2.122.167-3.493.167c-1.288,0-3.452-.167-3.452-.167A.542.542,0,0,0,83,82.9s.669.083,1.375.124l2.042,5.595-2.869,8.6-4.773-14.2c.79-.041,1.5-.124,1.5-.124a.542.542,0,0,0-.084-1.081s-2.122.167-3.493.167c-.246,0-.536-.006-.843-.016a13.1,13.1,0,0,1,19.8-2.466c-.056,0-.111-.011-.169-.011a2.269,2.269,0,0,0-2.2,2.326A6.143,6.143,0,0,0,94.569,84.9a6.894,6.894,0,0,1,1.081,3.614,15.861,15.861,0,0,1-1,4.237l-1.307,4.368Zm9.695-.143A13.11,13.11,0,0,1,93.391,100.5l4-11.574a12.373,12.373,0,0,0,1-4.695A10.13,10.13,0,0,0,98.3,82.882Z" fill="#25b8d2"/></svg>
