<svg xmlns="http://www.w3.org/2000/svg" viewBox="0 0 96 96"><rect opacity="0" width="96" height="96" fill="#fff"/><path d="M21.889,91.884l46-4L76.992,70l17.4.382-6-55L24.722,18.921l-7.765,7.946Z" class="sgmaincolor"/><path d="M89.144,14.449,28.286,17.83l1.619-1.62-3.158-3.158-2.27.87L13.829,6.448l-.5-1.734L12.538,2-.095,14.631l4.448,1.293,7.475,10.65-.871,2.269L14.116,32l1.936-1.936,4.781,63.02,47.259-4.11L95.313,71ZM14.116,29.171l-.826-.824.406-1.056.381-1-.612-.871L5.99,14.775l-.4-.575L4.912,14l-1.2-.348L11.562,5.8,11.908,7l.2.678.577.405,10.648,7.474.872.611.993-.38,1.058-.406.826.826L25.291,18l-.043,0-9.4,9.4,0,.039Zm3.8-.971,8.248-8.249,61.2-3.4L93.084,69H76.128L67.353,87.03,22.675,90.917ZM91.681,71,70.605,84.917,77.378,71Z"/><path d="M30.942,30.1c-.21-.447-1.036-.506-1.987-.2l-5.519-5.52-1.414,1.415,5.124,5.124c-.509.465-.757.96-.594,1.307.259.55,1.452.522,2.664-.065S31.2,30.648,30.942,30.1Z"/><path d="M57.055,54.919a8.2,8.2,0,0,1-5.69,3,8.77,8.77,0,0,1-7.173-2.359,11.752,11.752,0,0,1-3.3-7.773,12.5,12.5,0,0,1,.884-5.995,10.3,10.3,0,0,1,3.541-4.5,10.87,10.87,0,0,1,5.508-1.983,10.405,10.405,0,0,1,5.869,1.11A10.63,10.63,0,0,1,61,40.708a16.642,16.642,0,0,1,2.016,6.79l.209,2.394q.714,8.145-2.93,13.154T49.248,69.017l-1.588.162-.47-5.392,1.429-.149Q57.022,62.519,57.055,54.919Zm-4.533-2.084a4.539,4.539,0,0,0,2.627-1.041A5.415,5.415,0,0,0,56.688,49.7l-.233-2.664a8.919,8.919,0,0,0-1.7-4.993,3.905,3.905,0,0,0-3.516-1.517A3.787,3.787,0,0,0,48.2,42.583a7.582,7.582,0,0,0-.861,4.575,7.358,7.358,0,0,0,1.6,4.265A3.984,3.984,0,0,0,52.522,52.835Z"/></svg>