<svg xmlns="http://www.w3.org/2000/svg" viewBox="0 0 120.1 98.202"><title>presentational-domain-parked</title><path d="M77.9,75.9h28.2a17.989,17.989,0,0,1,18,18v1.2a17.989,17.989,0,0,1-18,18H77.9a17.989,17.989,0,0,1-18-18V93.9A17.925,17.925,0,0,1,77.9,75.9Z" transform="translate(-4 -14.898)" fill="#e4f1c9"/><path d="M34,69.8H17.8a5.015,5.015,0,0,1-5-5V48.7a5.015,5.015,0,0,1,5-5H34a5.015,5.015,0,0,1,5,5V64.9A4.93,4.93,0,0,1,34,69.8ZM17.8,46.7a2.006,2.006,0,0,0-2,2V64.9a2.006,2.006,0,0,0,2,2H34a2.006,2.006,0,0,0,2-2V48.7a2.006,2.006,0,0,0-2-2Z" transform="translate(-4 -14.898)" fill="#96cb4c"/><path d="M57.3,69.8H50.1a4.975,4.975,0,0,1-4.8-5V48.7a5.015,5.015,0,0,1,5-5H89.6a5.015,5.015,0,0,1,5,5V63.2a1.5,1.5,0,1,1-3,0V48.7a2.006,2.006,0,0,0-2-2H50.3a2.006,2.006,0,0,0-2,2V64.9a1.985,1.985,0,0,0,1.9,2h7.1a1.538,1.538,0,0,1,1.5,1.5A1.394,1.394,0,0,1,57.3,69.8Z" transform="translate(-4 -14.898)" fill="#96cb4c"/><path d="M99.2,69a1.5,1.5,0,1,0,0,3,16.255,16.255,0,0,1,14.5,10H103.1A19.367,19.367,0,0,0,85.3,69a1.5,1.5,0,0,0,0,3A16.656,16.656,0,0,1,100,82H89.9a19.5,19.5,0,1,0,0,13h10.2a16.481,16.481,0,0,1-15.7,10,1.5,1.5,0,0,0,0,3H85a19.511,19.511,0,0,0,18.2-13h10.5a16.492,16.492,0,0,1-15.6,10,1.5,1.5,0,0,0,0,3h.6a19.507,19.507,0,0,0,.5-39ZM86.7,82H80.5a25.13,25.13,0,0,0-3-8.9A16.41,16.41,0,0,1,86.7,82ZM88,88.5a13.425,13.425,0,0,1-.4,3.5H80.8c.1-1.1.1-2.3.1-3.5s.1-2.4,0-3.5h6.8A19.827,19.827,0,0,1,88,88.5ZM71.5,105c-2.3,0-4.9-3.9-5.9-10H77.5C76.4,101.1,73.9,105,71.5,105ZM65.2,92c-.1-1.1-.2-2.3-.2-3.5s.1-2.4.2-3.5H77.9c.1,1.1.2,2.3.2,3.5s-.1,2.4-.2,3.5ZM55,88.5a13.425,13.425,0,0,1,.4-3.5h6.7c-.1,1.1-.1,2.3-.1,3.5s.1,2.4.1,3.5H55.3C55.2,90.9,55,89.7,55,88.5ZM71.5,72c2.3,0,4.8,3.9,5.9,10H65.6C66.7,75.9,69.2,72,71.5,72Zm-5.9,1.1a24.446,24.446,0,0,0-3,8.9H56.4A16.41,16.41,0,0,1,65.6,73.1ZM56.4,95h6.2a25.13,25.13,0,0,0,3,8.9A16.41,16.41,0,0,1,56.4,95Zm21.1,8.9a24.446,24.446,0,0,0,3-8.9h6.2A16.41,16.41,0,0,1,77.5,103.9ZM90.7,92a20.567,20.567,0,0,0,0-7H101a17.518,17.518,0,0,1,.4,4,15.438,15.438,0,0,1-.4,3Zm13.4,0a13.576,13.576,0,0,0,.3-2.9,27.277,27.277,0,0,0-.3-4.1h10.7a17.223,17.223,0,0,1,.4,3.9,15.458,15.458,0,0,1-.4,3.1Z" transform="translate(-4 -14.898)" fill="#96cb4c"/><path d="M96.8,14.9H13.5a9.266,9.266,0,0,0-9.5,9V81.4a9.266,9.266,0,0,0,9.5,9H47a1.453,1.453,0,0,0,1.4-1.5,1.538,1.538,0,0,0-1.5-1.5H13.5a6.2,6.2,0,0,1-6.5-6v-46h96.3V63a1.5,1.5,0,1,0,3,0V23.9A9.329,9.329,0,0,0,96.8,14.9ZM7,32.4V23.9a6.324,6.324,0,0,1,6.5-6H96.8a6.324,6.324,0,0,1,6.5,6v8.5Z" transform="translate(-4 -14.898)" fill="#96cb4c"/><circle cx="12.5" cy="9.802" r="2.8" fill="#96cb4c"/><circle cx="21" cy="9.802" r="2.8" fill="#96cb4c"/><circle cx="29.5" cy="9.802" r="2.8" fill="#96cb4c"/></svg>