<svg xmlns="http://www.w3.org/2000/svg" viewBox="0 0 119.6 89.405"><title>presentational-app-staging</title><circle cx="86.6" cy="72.302" r="14.3" fill="#c8ebf0"/><path d="M32,55.9a2.1,2.1,0,0,1-1.1-.4l-6.3-6.3a1.45,1.45,0,0,1,0-2.1h0l6.7-6.7a1.485,1.485,0,0,1,2.1,2.1l-5.7,5.7L33,53.5a1.45,1.45,0,0,1,0,2.1A1.493,1.493,0,0,1,32,55.9Z" transform="translate(-3.8 -20.598)" fill="#25b8d2"/><path d="M46.1,55.9a1.538,1.538,0,0,1-1.5-1.5,2.1,2.1,0,0,1,.4-1.1l5.7-5.7-5.3-5.3a1.485,1.485,0,0,1,2.1-2.1l6.3,6.3a1.45,1.45,0,0,1,0,2.1l-6.7,6.7A.95.95,0,0,1,46.1,55.9Z" transform="translate(-3.8 -20.598)" fill="#25b8d2"/><path d="M36.3,58.3a.6.6,0,0,1-.4-.1,1.538,1.538,0,0,1-1-1.9h0l5.5-18.2a1.518,1.518,0,1,1,2.9.9L37.8,57.2A1.588,1.588,0,0,1,36.3,58.3Z" transform="translate(-3.8 -20.598)" fill="#25b8d2"/><path d="M44.9,74.8h-34A6.935,6.935,0,0,1,3.8,68V27.4a7,7,0,0,1,7.1-6.8H69.7a6.935,6.935,0,0,1,7.1,6.8V50.5a1.5,1.5,0,0,1-3,0V27.4a3.99,3.99,0,0,0-4.1-3.8H10.9a3.929,3.929,0,0,0-4.1,3.8V68a3.99,3.99,0,0,0,4.1,3.8H44.8a1.538,1.538,0,0,1,1.5,1.5A1.453,1.453,0,0,1,44.9,74.8Z" transform="translate(-3.8 -20.598)" fill="#25b8d2"/><path d="M116.4,55.8H57.5a6.935,6.935,0,0,0-7.1,6.8v40.6a7,7,0,0,0,7.1,6.8h58.8a6.935,6.935,0,0,0,7.1-6.8V62.6A6.789,6.789,0,0,0,116.4,55.8Zm-58.9,3h58.8a3.929,3.929,0,0,1,4.1,3.8v5.6h-67V62.6A3.929,3.929,0,0,1,57.5,58.8ZM116.4,107H57.5a3.929,3.929,0,0,1-4.1-3.8v-32h67.1v32A3.99,3.99,0,0,1,116.4,107Z" transform="translate(-3.8 -20.598)" fill="#25b8d2"/><circle cx="55.9" cy="42.502" r="2" fill="#25b8d2"/><circle cx="61.9" cy="42.502" r="2" fill="#25b8d2"/><circle cx="67.9" cy="42.502" r="2" fill="#25b8d2"/><path d="M110.4,42.4a1.577,1.577,0,0,0-2.1-.5l-3.5,2.2a15.71,15.71,0,0,0-1.3-10.2,15.288,15.288,0,0,0-20.6-6.6,1.476,1.476,0,1,0,1.4,2.6,12.5,12.5,0,0,1,11.3,0,12.273,12.273,0,0,1,6.2,14.3L99,39.9a1.456,1.456,0,0,0-2-.5,1.577,1.577,0,0,0-.5,2.1l4.3,6.9a1.6,1.6,0,0,0,.9.7h.3a1.884,1.884,0,0,0,.8-.2l7.1-4.4A1.43,1.43,0,0,0,110.4,42.4Z" transform="translate(-3.8 -20.598)" fill="#25b8d2"/><path d="M42.9,101.5a1.489,1.489,0,0,0-2-.6A12.274,12.274,0,0,1,23.5,86.6L26.2,91a1.709,1.709,0,0,0,1.3.7h0a1.884,1.884,0,0,0,.8-.2,1.577,1.577,0,0,0,.5-2.1l-4.3-6.9h0a1.577,1.577,0,0,0-2.1-.5l-7.1,4.4h0A1.512,1.512,0,0,0,17,88.9l3.5-2.2a16.455,16.455,0,0,0-.4,3.1,15.236,15.236,0,0,0,15.3,15.3,15.706,15.706,0,0,0,7-1.7A1.347,1.347,0,0,0,42.9,101.5Z" transform="translate(-3.8 -20.598)" fill="#25b8d2"/><path d="M86.8,74.6a14.6,14.6,0,1,0,14.6,14.6A14.553,14.553,0,0,0,86.8,74.6ZM73.7,89.2a13.587,13.587,0,0,1,1.1-5.3L81.1,101A13.2,13.2,0,0,1,73.7,89.2Zm13.1,13.1a15.012,15.012,0,0,1-3.7-.5L87,90.3l4,11c0,.1.1.1.1.2A12.169,12.169,0,0,1,86.8,102.3ZM88.6,83a11.925,11.925,0,0,0,1.5-.1.552.552,0,1,0-.1-1.1s-2.1.2-3.5.2c-1.3,0-3.5-.2-3.5-.2a.552.552,0,0,0-.1,1.1,11.346,11.346,0,0,0,1.4.1l2,5.6-2.9,8.6L78.8,83a11.925,11.925,0,0,0,1.5-.1.552.552,0,1,0-.1-1.1s-2.1.2-3.5.2h-.8A13.183,13.183,0,0,1,94,78.2a19.225,19.225,0,0,1,1.7,1.3h-.2a2.308,2.308,0,0,0-2.2,2.3,6.09,6.09,0,0,0,1.3,3.1,6.626,6.626,0,0,1,1.1,3.6,14.346,14.346,0,0,1-1,4.2l-1.3,4.4Zm9.7-.1a13.143,13.143,0,0,1-4.9,17.6l4-11.6a12.779,12.779,0,0,0,1-4.7,5.7,5.7,0,0,0-.1-1.3Z" transform="translate(-3.8 -20.598)" fill="#25b8d2"/></svg>