<svg xmlns="http://www.w3.org/2000/svg" viewBox="0 0 31.999 27.17"><circle cx="25.096" cy="20.285" r="6.488" fill="#edddc6"></circle><path d="M22.873 17.432v1.174l.77.057a4.11 4.11 0 0 1 3.638 5.244 5.959 5.959 0 0 0-3.327-2.63l-1.08-.338v1.446l-2.448-2.474 2.447-2.473m.463-1.5a.359.359 0 0 0-.257.109l-3.569 3.606a.366.366 0 0 0 0 .515l3.569 3.605a.358.358 0 0 0 .258.11.365.365 0 0 0 .368-.367v-1.44a5.123 5.123 0 0 1 3.276 3.138l.243.68.367-.621a4.939 4.939 0 0 0-3.886-7.435v-1.533a.366.366 0 0 0-.369-.367zm-6.979-5.735h.832v.832h-.832zm-6.21 0h.832v.832h-.832zm0 5.988h.832v.832h-.832z" fill="#c1ab96"></path><path d="M24.4 11.928a7.6 7.6 0 1 0 7.6 7.6 7.61 7.61 0 0 0-7.6-7.6zm0 14.372a6.771 6.771 0 1 1 6.77-6.77 6.778 6.778 0 0 1-6.77 6.77z" fill="#c1ab96"></path><path d="M17.827 25.61a12.682 12.682 0 0 1-1.543.439 6.922 6.922 0 0 0 1.063-1.022q-.258-.343-.485-.714A4.56 4.56 0 0 1 14 26.171v-4.869a1.94 1.94 0 0 0 0-3.79v-3.511h3.37a8.928 8.928 0 0 1 .718-.832H14V7.894a14.858 14.858 0 0 0 3.488-.487 1.937 1.937 0 0 0 1.641.91c.039 0 .076 0 .114-.006a23 23 0 0 1 .517 3.532 8.365 8.365 0 0 1 .8-.429 23.406 23.406 0 0 0-.512-3.33 1.943 1.943 0 0 0 1.018-1.707A1.914 1.914 0 0 0 21 5.861a9.369 9.369 0 0 0 1.6-1.291 12.736 12.736 0 0 1 3.464 6.358 8.225 8.225 0 0 1 .9.3 13.58 13.58 0 0 0-4.043-7.5.406.406 0 0 0-.082-.089c-.01-.008-.02-.012-.03-.019a13.553 13.553 0 0 0-18.442 0l-.029.018a.419.419 0 0 0-.079.084 13.576 13.576 0 0 0 14.213 22.535 8.56 8.56 0 0 1-.645-.647zM6.931 12.476a1.109 1.109 0 1 1-1.109 1.109 1.11 1.11 0 0 1 1.109-1.109zm1.9 1.525h4.343v3.511a1.946 1.946 0 0 0-1.512 1.681 13.616 13.616 0 0 0-3.423.858 21.944 21.944 0 0 1-.814-4.59 1.944 1.944 0 0 0 1.401-1.46zm0-.832a1.944 1.944 0 0 0-1.407-1.46 21.839 21.839 0 0 1 .866-4.76 14.166 14.166 0 0 0 4.884.945v5.275zm4.338-12.168v6.061a13.239 13.239 0 0 1-4.616-.916c1.059-2.922 2.723-4.891 4.616-5.145zm-5.384 4.8a9.735 9.735 0 0 1-2.6-1.8 12.726 12.726 0 0 1 5.69-2.872 10.318 10.318 0 0 0-3.09 4.675zM14 7.062V1.001c1.579.212 3 1.615 4.04 3.77a1.943 1.943 0 0 0-.852 1.606 1.865 1.865 0 0 0 .017.238A13.89 13.89 0 0 1 14 7.062zm5.13.423a1.109 1.109 0 1 1 1.109-1.109 1.111 1.111 0 0 1-1.109 1.109zm1.47-2.37a1.935 1.935 0 0 0-1.472-.679 2.01 2.01 0 0 0-.312.027 9.166 9.166 0 0 0-2.525-3.338 12.718 12.718 0 0 1 5.693 2.876A8.834 8.834 0 0 1 20.6 5.115zM4.578 4.572a10.276 10.276 0 0 0 2.934 2.042 22.4 22.4 0 0 0-.926 5.063 1.942 1.942 0 0 0-1.549 1.492H.842a12.708 12.708 0 0 1 3.736-8.597zm-.1 17.933a12.706 12.706 0 0 1-3.641-8.5h4.2a1.943 1.943 0 0 0 1.55 1.492 22.555 22.555 0 0 0 .873 4.9 10.146 10.146 0 0 0-2.977 2.108zm.6.578a9.542 9.542 0 0 1 2.643-1.88 10.436 10.436 0 0 0 3.159 4.845 12.736 12.736 0 0 1-5.795-2.963zm8.084 3.086c-1.929-.259-3.621-2.3-4.676-5.31a12.776 12.776 0 0 1 3.253-.837 1.948 1.948 0 0 0 1.423 1.28zm-.693-6.762a1.109 1.109 0 1 1 1.109 1.109 1.111 1.111 0 0 1-1.102-1.109z" fill="#c1ab96"></path></svg>