<svg xmlns="http://www.w3.org/2000/svg" viewBox="0 0 144 144"><g opacity="0"><rect width="144" height="144" fill="#fff"/></g><path d="M135.426,46.944c-.041,0-.081,0-.123-.007L116.58,44.624a1,1,0,0,1-.681-1.587l11.218-15.168a1,1,0,0,1,1.723.2l7.5,17.481a1,1,0,0,1-.919,1.394Zm-16.9-4.094,15.294,1.888-6.13-14.279Z"/><path d="M15.989,36.931a7.638,7.638,0,0,1-4.441-1.436,8,8,0,0,1-3.235-5.113,7.871,7.871,0,0,1,6.195-9.224,7.6,7.6,0,0,1,5.824,1.31,7.994,7.994,0,0,1,3.234,5.113A7.869,7.869,0,0,1,17.373,36.8,7.647,7.647,0,0,1,15.989,36.931Zm-.1-13.9a5.564,5.564,0,0,0-1.018.093,5.869,5.869,0,0,0-4.589,6.9,6.007,6.007,0,0,0,2.428,3.843,5.611,5.611,0,0,0,4.3.972,5.869,5.869,0,0,0,4.588-6.9A6.016,6.016,0,0,0,19.173,24.1,5.643,5.643,0,0,0,15.887,23.032Z"/><polygon points="53.887 42.621 53.887 55.446 63.924 42.621 102.961 42.621 102.961 12.482 53.887 12.482 53.887 42.621" class="sgmaincolor"/><path d="M53.888,56.446a1,1,0,0,1-1-1V12.481a1,1,0,0,1,1-1h49.073a1,1,0,0,1,1,1v30.14a1,1,0,0,1-1,1H64.411L54.675,56.062A1,1,0,0,1,53.888,56.446Zm1-42.965V52.546l8.249-10.541a1,1,0,0,1,.787-.384h38.037V13.481Z"/><circle cx="32.997" cy="70.286" r="16.448" transform="translate(-44.566 73.874) rotate(-67.5)" class="sgmaincolor"/><polygon points="38.034 88.04 20.322 88.04 20.322 129.859 49.842 129.859 49.842 98.726 38.034 88.04" class="sgmaincolor"/><circle cx="104.385" cy="70.286" r="16.448" transform="translate(-0.497 139.828) rotate(-67.5)" class="sgmaincolor"/><polygon points="86.79 98.726 86.79 129.859 116.31 129.859 116.31 88.04 98.598 88.04 86.79 98.726" class="sgmaincolor"/><path d="M38.705,87.3a1,1,0,0,0-.671-.259h-.209a17.448,17.448,0,1,0-9.656,0H20.322a1,1,0,0,0-1,1v41.819a1,1,0,0,0,1,1h29.52a1,1,0,0,0,1-1V98.727a1,1,0,0,0-.329-.742ZM17.549,70.286A15.448,15.448,0,1,1,33,85.734,15.466,15.466,0,0,1,17.549,70.286Zm31.293,58.573H21.322V89.04H37.648L48.842,99.17Z"/><path d="M116.31,87.04h-7.1a17.447,17.447,0,1,0-9.656,0H98.6a1,1,0,0,0-.671.259L86.119,97.985a1,1,0,0,0-.329.742v31.132a1,1,0,0,0,1,1h29.52a1,1,0,0,0,1-1V88.04A1,1,0,0,0,116.31,87.04ZM88.938,70.286a15.448,15.448,0,1,1,15.447,15.448A15.465,15.465,0,0,1,88.938,70.286Zm26.372,58.573H87.79V99.17L98.983,89.04H115.31Z"/><path d="M93.506,24.5H64.953a1,1,0,0,1,0-2H93.506a1,1,0,0,1,0,2Z"/><path d="M93.506,32.505H64.953a1,1,0,1,1,0-2H93.506a1,1,0,1,1,0,2Z"/></svg>