<svg xmlns="http://www.w3.org/2000/svg" viewBox="0 0 144 144"><g opacity="0"><rect width="144" height="144" fill="#fff"/></g><path d="M127.249,84.8l-5.3-16.031H104.276V40.257H20.948V68.765H35.306c3.952-.014,7.611,3.9,7.624,7.852l.008,2.133a4.635,4.635,0,0,0,3.98,4.378,2.594,2.594,0,0,1,.932,4.781,3.537,3.537,0,0,1-1.5.736H25.366c-1.851-.026-3.378-1.8-4.418-3.491v23.371h14.36l0,.027a7.731,7.731,0,0,0,15.461-.027h62.346v.027a7.731,7.731,0,0,0,15.461-.027H135.2V93.063Z" class="sgmaincolor"/><path d="M135.908,92.356l-7.564-7.564L122.9,68.448a1,1,0,0,0-.948-.683H105.276V40.257a1,1,0,0,0-1-1H20.948a1,1,0,0,0-1,1V67.765H8.8a1,1,0,0,0-.953,1.3c.388,1.224,2.48,7.324,5.617,7.324h.125c.551,1.594,2.109,5.273,5.026,6.353a19.338,19.338,0,0,0,1.334,2.717v23.065a1,1,0,0,0,1,1H34.367a8.74,8.74,0,0,0,8.67,7.732h.031a8.72,8.72,0,0,0,8.638-7.732h60.466a8.741,8.741,0,0,0,8.67,7.732h.032a8.718,8.718,0,0,0,8.637-7.732h5.69a1,1,0,0,0,1-1V93.063A1,1,0,0,0,135.908,92.356ZM20.92,83.019h7.759a1,1,0,1,0,0-2H19.908c-2.024-.283-3.465-2.817-4.191-4.629l7.44,0a1,1,0,0,0,0-2l-9.689,0h0c-.928,0-2.3-2.207-3.251-4.625H35.327A6.463,6.463,0,0,1,39.873,71.9a7.033,7.033,0,0,1,2.057,4.725l.008,2.133a5.606,5.606,0,0,0,4.826,5.362,1.629,1.629,0,0,1,1.339,1.6,1.754,1.754,0,0,1-.42,1.353,2.184,2.184,0,0,1-1.332.575H25.379C23.536,87.62,21.824,84.893,20.92,83.019Zm26.894,30.25a6.688,6.688,0,0,1-4.754,1.988h-.023a6.732,6.732,0,0,1-.023-13.463h.024a6.732,6.732,0,0,1,4.776,11.475ZM43.037,99.794h-.031a8.741,8.741,0,0,0-8.637,7.731H21.948V88.042a5.109,5.109,0,0,0,3.418,1.6H46.355a4.122,4.122,0,0,0,2.771-1.191A3.739,3.739,0,0,0,50.1,85.64a3.606,3.606,0,0,0-3.029-3.5,3.64,3.64,0,0,1-3.134-3.394l-.008-2.133a9.043,9.043,0,0,0-2.613-6.1,8.464,8.464,0,0,0-5.987-2.747H21.948V41.257h81.328v66.268H51.708A8.742,8.742,0,0,0,43.037,99.794Zm82.583,13.475a6.688,6.688,0,0,1-4.754,1.988h-.024a6.732,6.732,0,0,1-.022-13.463h.023a6.732,6.732,0,0,1,4.777,11.475Zm8.581-5.744h-4.688a8.724,8.724,0,0,0-8.67-7.731h-.031a8.741,8.741,0,0,0-8.637,7.731h-6.9V69.765h15.951l4.856,14.567H112.007a1,1,0,0,0,0,2h15.049l7.145,7.145Z"/><path d="M74.693,46.44A22.768,22.768,0,1,0,97.461,69.207,22.792,22.792,0,0,0,74.693,46.44ZM54.224,69.207A20.389,20.389,0,0,1,56,60.876L65.761,87.63A20.473,20.473,0,0,1,54.224,69.207ZM74.693,89.678a20.448,20.448,0,0,1-5.783-.834L75.053,71l6.292,17.238a1.921,1.921,0,0,0,.146.282A20.431,20.431,0,0,1,74.693,89.678ZM77.515,59.61c1.232-.065,2.342-.2,2.342-.2a.846.846,0,0,0-.13-1.687s-3.316.26-5.456.26c-2.012,0-5.391-.26-5.391-.26a.846.846,0,0,0-.13,1.687s1.044.13,2.147.2l3.189,8.738-4.48,13.435L62.152,59.61c1.233-.065,2.342-.2,2.342-.2a.846.846,0,0,0-.131-1.687s-3.315.26-5.455.26c-.384,0-.837-.009-1.318-.025a20.464,20.464,0,0,1,30.926-3.851c-.088-.006-.174-.017-.265-.017a3.545,3.545,0,0,0-3.437,3.633c0,1.687.973,3.114,2.011,4.8a10.787,10.787,0,0,1,1.687,5.646c0,1.751-.674,3.784-1.557,6.617l-2.043,6.822Zm15.141-.223A20.473,20.473,0,0,1,84.985,86.9l6.252-18.077a19.322,19.322,0,0,0,1.557-7.331A15.7,15.7,0,0,0,92.656,59.387Z"/><path d="M19.1,35.317a6.958,6.958,0,1,1,5.592-2.8A6.917,6.917,0,0,1,19.1,35.317ZM19.114,23.4a4.958,4.958,0,1,0,2.956.98A4.959,4.959,0,0,0,19.114,23.4Z"/><path d="M9.034,21.443a1,1,0,0,1-.857-1.514,10.861,10.861,0,0,1,10.4-5.118,1,1,0,0,1,.878,1.108.99.99,0,0,1-1.109.878,8.957,8.957,0,0,0-8.457,4.161A1,1,0,0,1,9.034,21.443Z"/><path d="M134.048,57.328a.959.959,0,0,1-.308-.049L119.2,52.558a1,1,0,0,1-.358-1.7l11.316-10.094a1,1,0,0,1,1.643.533l3.229,14.816a1,1,0,0,1-.977,1.213Zm-12.579-6.135L132.7,54.839,130.207,43.4Z"/></svg>