<svg xmlns="http://www.w3.org/2000/svg" viewBox="0 0 96 96"><g opacity="0"><rect width="96" height="96" fill="#fff"/></g><rect x="3" y="30" width="91" height="40" class="sgmaincolor"/><path d="M94,28.872H84.234V24a1,1,0,0,0-2,0v4.872H75.426V24a1,1,0,0,0-2,0v4.872H66.617V24a1,1,0,0,0-2,0v4.872H57.809V24a1,1,0,0,0-2,0v4.872H49V24a1,1,0,0,0-2,0v4.872H40.192V24a1,1,0,0,0-2,0v4.872H31.383V24a1,1,0,0,0-2,0v4.872H22.574V24a1,1,0,0,0-2,0v4.872H13.766V24a1,1,0,0,0-2,0v4.872H2.979a1,1,0,0,0-1,1V70a1,1,0,0,0,1,1h8.787v4.872a1,1,0,0,0,2,0V71h6.808v4.872a1,1,0,0,0,2,0V71h6.809v4.872a1,1,0,0,0,2,0V71h6.809v4.872a1,1,0,0,0,2,0V71H47v4.872a1,1,0,0,0,2,0V71h6.809v4.872a1,1,0,0,0,2,0V71h6.808v4.872a1,1,0,0,0,2,0V71h6.809v4.872a1,1,0,0,0,2,0V71h6.808v4.872a1,1,0,0,0,2,0V71H94a1,1,0,0,0,1-1V29.872A1,1,0,0,0,94,28.872ZM93,69H3.979V30.872H93Z"/><path d="M21.348,50.923h3.829v3.245H21.348v4.391H17.81V54.168H13.97V50.923h3.84V46.655h3.538Z"/><path d="M43.505,48.216a3.773,3.773,0,0,1-.589,2.1,4.289,4.289,0,0,1-1.623,1.46,4.724,4.724,0,0,1,1.853,1.567,4.041,4.041,0,0,1,.685,2.352,4.282,4.282,0,0,1-1.51,3.459,6.269,6.269,0,0,1-4.162,1.27,6.386,6.386,0,0,1-4.2-1.275A4.25,4.25,0,0,1,32.421,55.7a4.093,4.093,0,0,1,.674-2.324A4.581,4.581,0,0,1,35,51.776a4.32,4.32,0,0,1-1.64-1.46,3.753,3.753,0,0,1-.595-2.1,4.2,4.2,0,0,1,1.449-3.37,5.827,5.827,0,0,1,3.908-1.235,5.865,5.865,0,0,1,3.931,1.235A4.2,4.2,0,0,1,43.505,48.216Zm-3.47,7.176a2.153,2.153,0,0,0-.522-1.555,1.815,1.815,0,0,0-1.375-.545,1.835,1.835,0,0,0-1.382.545,2.526,2.526,0,0,0,.006,3.1,1.829,1.829,0,0,0,1.4.568,1.762,1.762,0,0,0,1.36-.562A2.205,2.205,0,0,0,40.035,55.392Zm-1.909-8.861a1.4,1.4,0,0,0-1.162.5,2.168,2.168,0,0,0-.4,1.387,2.3,2.3,0,0,0,.4,1.415,1.394,1.394,0,0,0,1.189.539,1.338,1.338,0,0,0,1.163-.539,2.375,2.375,0,0,0,.388-1.415,2.177,2.177,0,0,0-.4-1.381A1.417,1.417,0,0,0,38.126,46.531Z"/><path d="M65.147,58.177a6.329,6.329,0,0,1-2.661,1.628,11.459,11.459,0,0,1-3.842.619,6.849,6.849,0,0,1-5.132-1.966,7.957,7.957,0,0,1-2.056-5.469l-.01-1.415a9.755,9.755,0,0,1,.853-4.217,6.334,6.334,0,0,1,2.442-2.774,6.909,6.909,0,0,1,3.678-.972,7.244,7.244,0,0,1,4.745,1.4,5.927,5.927,0,0,1,1.972,4.171h-3.8a3.1,3.1,0,0,0-.875-1.954,2.834,2.834,0,0,0-1.91-.584A2.574,2.574,0,0,0,56.263,47.9a6.715,6.715,0,0,0-.819,3.594v.988a6.584,6.584,0,0,0,.836,3.679,2.961,2.961,0,0,0,2.633,1.229,3.308,3.308,0,0,0,2.291-.685V54.168h-2.74V51.462h6.683Z"/><path d="M67.438,60.2V43.847h5.874A8.32,8.32,0,0,1,78.113,45a4.273,4.273,0,0,1,1.06,5.525,3.393,3.393,0,0,1-1.718,1.325,3.454,3.454,0,0,1,1.966,1.258,3.662,3.662,0,0,1,.685,2.246,4.328,4.328,0,0,1-1.522,3.611,7.245,7.245,0,0,1-4.509,1.23Zm3.942-9.535h2.055a2.919,2.919,0,0,0,1.842-.473,1.678,1.678,0,0,0,.55-1.363,1.762,1.762,0,0,0-.595-1.492,3.187,3.187,0,0,0-1.92-.456H71.38Zm0,2.583v3.92h2.582a2.46,2.46,0,0,0,1.641-.489,1.713,1.713,0,0,0,.572-1.376,1.813,1.813,0,0,0-2.033-2.055Z"/></svg>