<svg xmlns="http://www.w3.org/2000/svg" viewBox="0 0 125.9 76.5"><title>presentational-wordpress-transfer</title><path d="M43.8,43.7H7.1v2.8a7.34,7.34,0,0,0,6.4,7.3l.8.1v1.5a7.294,7.294,0,0,0,6,7.2l.8.1v.8a7.383,7.383,0,0,0,7.4,7.4H57.9a4.7,4.7,0,0,0,4.7-4.7C62.5,63.8,54.5,43.7,43.8,43.7Z" transform="translate(-1 -27.7)" fill="#c8ebf0"/><path d="M125.2,68.6l-8.7-6.9-6-18.3a4.291,4.291,0,0,0-4.1-3H89.8a5.067,5.067,0,0,0-1.3.2V31.8a4.294,4.294,0,0,0-4.3-4.1H18.6A4.268,4.268,0,0,0,14.3,32a1.5,1.5,0,0,0,3,0h0a1.324,1.324,0,0,1,1.3-1.3H84.2A1.324,1.324,0,0,1,85.5,32V90.1H54.2a12.06,12.06,0,0,0-23.8,0H18.7a1.367,1.367,0,0,1-1.4-1.4V71a1.5,1.5,0,0,0-3,0V88.7a4.439,4.439,0,0,0,4.4,4.4H30.2a12.107,12.107,0,0,0,12.1,11.1A12.25,12.25,0,0,0,54.4,93.1H87a1.538,1.538,0,0,0,1.5-1.5V44.7a1.324,1.324,0,0,1,1.3-1.3h16.7a1.424,1.424,0,0,1,1.3.9l5.7,17.5H95.8a1.5,1.5,0,0,0,0,3h19.8l7.7,6.2a1.231,1.231,0,0,1,.5,1V88.9a1.324,1.324,0,0,1-1.3,1.3h-4.6a12.077,12.077,0,1,0-11.9,14,12.25,12.25,0,0,0,12.1-11.1h4.5a4.268,4.268,0,0,0,4.3-4.3V71.9A4.032,4.032,0,0,0,125.2,68.6ZM51.4,92.1A9.1,9.1,0,1,1,42.3,83a9.133,9.133,0,0,1,9.1,9.1Zm63.7,0A9.1,9.1,0,1,1,106,83a9.133,9.133,0,0,1,9.1,9.1Z" transform="translate(-1 -27.7)" fill="#25b8d2"/><path d="M55.2,67.5H23.9a7.984,7.984,0,0,1-8-7.8v-.9a8.027,8.027,0,0,1-7.2-8V49.3a8.031,8.031,0,0,1-7.7-8V39.7a1.538,1.538,0,0,1,1.5-1.5H40.3A11.5,11.5,0,0,1,51.8,49.7v3.9a3.846,3.846,0,0,0,3.8,3.7,5.128,5.128,0,0,1,4.8,5.4,5.071,5.071,0,0,1-2.5,4.1A4.228,4.228,0,0,1,55.2,67.5ZM18.9,58.8v.8a5.061,5.061,0,0,0,5,4.9H55.2a2.663,2.663,0,0,0,1.2-.3,2.072,2.072,0,0,0-.9-3.9,6.746,6.746,0,0,1-6.6-6.7V49.7a8.493,8.493,0,0,0-8.5-8.5H4v.1a4.951,4.951,0,0,0,5,5H23.1a1.5,1.5,0,1,1,0,3H11.7v1.5a5.015,5.015,0,0,0,5,5H30.8a1.5,1.5,0,0,1,0,3Z" transform="translate(-1 -27.7)" fill="#25b8d2"/></svg>