<svg xmlns="http://www.w3.org/2000/svg" viewBox="0 0 120.2 99.107"><title>presentational-autoinstaller</title><path d="M33.8,68H17.3a5.015,5.015,0,0,1-5-5V46.4a5.015,5.015,0,0,1,5-5H33.8a5.015,5.015,0,0,1,5,5V62.9A5.037,5.037,0,0,1,33.8,68ZM17.3,44.4a2.006,2.006,0,0,0-2,2V62.9a2.006,2.006,0,0,0,2,2H33.8a2.006,2.006,0,0,0,2-2V46.4a2.006,2.006,0,0,0-2-2Z" transform="translate(-3.9 -14.393)" fill="#3fc798"/><path d="M73.1,68H50.4a5.015,5.015,0,0,1-5-5V46.4a5.015,5.015,0,0,1,5-5H90.5a5.015,5.015,0,0,1,5,5V57.2a1.5,1.5,0,0,1-3,0h0V46.4a2.006,2.006,0,0,0-2-2h-40a2.006,2.006,0,0,0-2,2V62.9a2.006,2.006,0,0,0,2,2H73.2a1.538,1.538,0,0,1,1.5,1.5A1.721,1.721,0,0,1,73.1,68Z" transform="translate(-3.9 -14.393)" fill="#3fc798"/><path d="M96.3,14.4H13.4a9.329,9.329,0,0,0-9.5,9V80.7a9.266,9.266,0,0,0,9.5,9H68a1.5,1.5,0,0,0,0-3H13.4a6.319,6.319,0,0,1-6.5-6V34.8h95.9V58.7a1.5,1.5,0,0,0,3,0V23.3A9.179,9.179,0,0,0,96.3,14.4ZM6.9,31.8V23.3a6.261,6.261,0,0,1,6.5-6H96.3a6.319,6.319,0,0,1,6.5,6v8.5Z" transform="translate(-3.9 -14.393)" fill="#3fc798"/><path d="M124.1,88.1l-2.6-7.5-4.5.6a32.691,32.691,0,0,0-3-3.5l1.2-4.5-7.1-3.5-2.7,3.8c-1.5-.2-3-.3-4.5-.4l-2.2-3.9-7.5,2.6.6,4.5a25.17,25.17,0,0,0-3.5,3l-4.5-1.2-3.5,7.1,3.8,2.7a22.823,22.823,0,0,0-.4,4.5l-3.9,2.2,2.6,7.5,4.5-.6a25.17,25.17,0,0,0,3,3.5l-1.2,4.5,7.1,3.5,2.7-3.8a22.823,22.823,0,0,0,4.5.4l2.2,3.9,7.5-2.6-.6-4.5a32.691,32.691,0,0,0,3.5-3l4.5,1.2,3.5-7.1-3.8-2.7a17,17,0,0,0,.2-4.5Z" transform="translate(-3.9 -14.393)" fill="#cdf9e4"/><path d="M99.9,110.8l-2.4-4.3c-1,0-2-.1-3-.2l-2.9,4-9.3-4.7,1.3-4.9-.5-.5c-.6-.6-1.1-1.2-1.6-1.8l-4.8.6-3.4-9.9,4.3-2.4c0-1,.1-2,.2-3l-4-2.9,4.7-9.3,4.9,1.3.5-.5c.6-.6,1.2-1.1,1.8-1.6L85.2,66l9.9-3.4,2.4,4.3c1,0,2,.2,3,.3l3-4.1,9.3,4.7-1.3,5c.2.2.3.4.5.6l1.5,1.8,4.9-.6,3.4,9.9-4.4,2.3a15.137,15.137,0,0,1-.2,3l4.1,3-4.7,9.3-5-1.3c-.2.2-.4.3-.6.5l-1.8,1.5.6,4.9ZM93.3,103l1,.2a14.887,14.887,0,0,0,4.2.3h.9l2,3.6,5.1-1.8-.6-4.2.8-.5c.8-.6,1.5-1.2,2.2-1.8.4-.4.8-.7,1.2-1.1l.6-.5,4.1,1.1,2.4-4.9-3.4-2.5.1-1.1a17.023,17.023,0,0,0,.2-3.9l-.1-1,3.9-2.1-1.8-5.1-4.2.6-.5-.8c-.6-.8-1.2-1.5-1.8-2.2-.4-.4-.7-.8-1.1-1.2l-.5-.6,1.1-4.1L104.2,67l-2.5,3.4-1.3-.2a25.613,25.613,0,0,0-3.9-.3h-.9l-2-3.6L88.5,68l.6,4.3-.9.5a11.984,11.984,0,0,0-2.1,1.7c-.4.4-.8.7-1.2,1.1l-.6.5L80.2,75l-2.5,5,3.5,2.6-.2,1a14.887,14.887,0,0,0-.3,4.2v.9l-3.6,2,1.8,5.1,4.3-.6.5.9a11.984,11.984,0,0,0,1.7,2.1c.4.4.7.8,1.1,1.2l.5.6-1.1,4.1,4.9,2.4Z" transform="translate(-3.9 -14.393)" fill="#3fc798"/><path d="M97.5,95.4a8.7,8.7,0,1,1,8.7-8.7h0A8.837,8.837,0,0,1,97.5,95.4Zm0-14.3a5.7,5.7,0,1,0,5.7,5.7h0A5.762,5.762,0,0,0,97.5,81.1Z" transform="translate(-3.9 -14.393)" fill="#3fc798"/><path d="M16.6,21.4a2.7,2.7,0,1,1-2.7,2.7h0a2.689,2.689,0,0,1,2.7-2.7" transform="translate(-3.9 -14.393)" fill="#3fc798"/><path d="M24.9,21.4a2.7,2.7,0,1,1-2.7,2.7,2.571,2.571,0,0,1,2.7-2.7" transform="translate(-3.9 -14.393)" fill="#3fc798"/><path d="M33.1,21.4a2.7,2.7,0,1,1-2.7,2.7,2.628,2.628,0,0,1,2.7-2.7h0" transform="translate(-3.9 -14.393)" fill="#3fc798"/></svg>