<svg xmlns="http://www.w3.org/2000/svg" viewBox="0 0 111.451 105.2"><title>presentational-dns-zone</title><path d="M35.8,65.9V50.3a1.012,1.012,0,0,1,.4-.7,1.689,1.689,0,0,1,1-.3h4.2a6.1,6.1,0,0,1,4.1,1.3A5.022,5.022,0,0,1,47,54.8v6.6a5.35,5.35,0,0,1-1.5,4.2,6.1,6.1,0,0,1-4.1,1.3H37.2a1.689,1.689,0,0,1-1-.3A.755.755,0,0,1,35.8,65.9Zm3.1-1.8h2.5c1.7,0,2.5-.9,2.5-2.8V54.7c0-1.8-.8-2.8-2.5-2.8H38.9Z" transform="translate(-8.3 -11.4)" fill="#96cb4c"/><path d="M49.7,65.9V50.3a.752.752,0,0,1,.5-.7,2.016,2.016,0,0,1,1.1-.3,2.768,2.768,0,0,1,1.3.3,4.125,4.125,0,0,1,1,1.3l4.6,9V50.3a.752.752,0,0,1,.5-.7,2.8,2.8,0,0,1,2.2,0,.752.752,0,0,1,.5.7V65.9a.752.752,0,0,1-.5.7,2.016,2.016,0,0,1-1.1.3,1.828,1.828,0,0,1-1.8-1l-5.2-9.6v9.6a.752.752,0,0,1-.5.7,2.167,2.167,0,0,1-2.2,0A1.012,1.012,0,0,1,49.7,65.9Z" transform="translate(-8.3 -11.4)" fill="#96cb4c"/><path d="M63.4,64.1a2.1,2.1,0,0,1,.4-1.1,1.8,1.8,0,0,1,.9-.6.908.908,0,0,1,.7.3,5.008,5.008,0,0,1,.8.7,4.129,4.129,0,0,0,1.1.7,4.013,4.013,0,0,0,1.5.3,4.136,4.136,0,0,0,1.9-.5,1.943,1.943,0,0,0,.8-1.6,2.01,2.01,0,0,0-.4-1.3,3.126,3.126,0,0,0-1.1-.9c-.5-.2-1-.5-1.5-.7a11.938,11.938,0,0,1-1.6-.8,13.029,13.029,0,0,1-1.5-1,3.6,3.6,0,0,1-1.1-1.4,4.638,4.638,0,0,1-.4-2.1,5.932,5.932,0,0,1,.5-2.3,3.389,3.389,0,0,1,1.4-1.5,7.1,7.1,0,0,1,1.8-.8,7.613,7.613,0,0,1,2.1-.3,5.7,5.7,0,0,1,1.3.1l1.5.3a3.1,3.1,0,0,1,1.3.6,1.231,1.231,0,0,1,.5,1,2.016,2.016,0,0,1-.3,1.1,1.149,1.149,0,0,1-.9.6,3.08,3.08,0,0,1-1.2-.5,5.374,5.374,0,0,0-2.1-.5,3.513,3.513,0,0,0-2,.5,1.513,1.513,0,0,0-.7,1.4,1.425,1.425,0,0,0,.6,1.2,2.851,2.851,0,0,0,1.4.8,14.167,14.167,0,0,1,1.8.8,10.814,10.814,0,0,1,1.8,1.1,3.907,3.907,0,0,1,1.4,1.7,5.834,5.834,0,0,1,.6,2.6,4.728,4.728,0,0,1-1.6,3.8A6.1,6.1,0,0,1,69,67.1a8.6,8.6,0,0,1-3.9-.9C63.9,65.5,63.4,64.8,63.4,64.1Z" transform="translate(-8.3 -11.4)" fill="#96cb4c"/><path d="M118.1,86.2l-3.6-3.6a5.07,5.07,0,0,0-7.2,0h0L86,104.1l-1.8,12.5,12.5-1.8,21.5-21.5a4.952,4.952,0,0,0,.1-7.1Z" transform="translate(-8.3 -11.4)" fill="#e4f1c9"/><path d="M114.7,81.7l-3.6-3.6a6.519,6.519,0,0,0-9.3,0L80.4,99.5a1.234,1.234,0,0,0-.4.8l-1.8,12.5v.2a1.538,1.538,0,0,0,1.5,1.5h.2l12.5-1.8a1.234,1.234,0,0,0,.8-.4l19.2-19.2h0l2.2-2.2A6.318,6.318,0,0,0,114.7,81.7Zm-8.2,13.1-8.7-8.5,2.7-2.7,8.7,8.5Zm-15,15.1-10,1.4,1.4-10L95.8,88.4l8.7,8.5Zm21.1-21.1L111.4,90l-8.7-8.5,1.3-1.3a3.5,3.5,0,0,1,5,0l3.6,3.6A3.5,3.5,0,0,1,112.6,88.8Z" transform="translate(-8.3 -11.4)" fill="#96cb4c"/><path d="M86.8,24.2l-.3-.3a.1.1,0,0,1-.1-.1,46.5,46.5,0,1,0-31.6,80.6,45.441,45.441,0,0,0,19.5-4.3A1.5,1.5,0,1,0,73,97.4a45.678,45.678,0,0,1-8.8,3c4.3-3.4,7.9-9,10.6-16.4a41.173,41.173,0,0,1,6.9,4.9l.1.1a1.492,1.492,0,0,0,1.9-2.3,53.2,53.2,0,0,0-7.9-5.5,67.552,67.552,0,0,0,1.7-6.8h0a1.53,1.53,0,0,0-3-.6c-.4,2.2-1,4.3-1.5,6.3a47.741,47.741,0,0,0-16.7-3.3V72.7a1.5,1.5,0,0,0-3,0v4.1a47.471,47.471,0,0,0-16.7,3.3c-.5-1.6-.9-3.2-1.3-5V75a1.492,1.492,0,1,0-2.9.7c.4,1.9.9,3.8,1.4,5.5a34.262,34.262,0,0,0-10.1,7.2A43.414,43.414,0,0,1,11.4,59.5H26.2a1.5,1.5,0,1,0,0-3H11.4A43.508,43.508,0,0,1,24,27.3a34.2,34.2,0,0,0,10,6.9c-.5,1.6-1,3.3-1.4,5A1.491,1.491,0,0,0,33.7,41H34a1.593,1.593,0,0,0,1.5-1.2l1.2-4.5a49.8,49.8,0,0,0,16.5,3.2v5.2a1.5,1.5,0,0,0,3,0V38.5a48.753,48.753,0,0,0,16.5-3.2q.6,2.1,1.2,4.5a1.492,1.492,0,1,0,2.9-.7c-.4-1.7-.9-3.4-1.4-5a37.984,37.984,0,0,0,10-6.9A43.4,43.4,0,0,1,98.1,56.4H82.8a1.5,1.5,0,0,0,0,3H98.3v.7a42.888,42.888,0,0,1-2.6,12.8,1.458,1.458,0,0,0,.9,1.8,1.541,1.541,0,0,0,2-.8,45.792,45.792,0,0,0,2.8-13.7V57.9A46.334,46.334,0,0,0,86.8,24.2ZM56.3,79.6a45.437,45.437,0,0,1,15.8,3.2c-3.7,10.3-9.5,17.1-15.8,18Zm-3,0v21.2c-6.3-.9-12.1-7.7-15.8-18.1A48.049,48.049,0,0,1,53.3,79.6ZM34.8,84c2.6,7.3,6.3,13,10.6,16.4a42.309,42.309,0,0,1-19.5-10A31.424,31.424,0,0,1,34.8,84ZM35,31.2a35.017,35.017,0,0,1-8.7-6,43.409,43.409,0,0,1,19.1-9.7C41.2,18.8,37.6,24.3,35,31.2Zm18.3,4.3a44.4,44.4,0,0,1-15.6-3.1c3.7-10.1,9.4-16.6,15.6-17.5Zm3,0V15c6.2.9,11.9,7.4,15.6,17.5A44.554,44.554,0,0,1,56.3,35.5Zm18.3-4.2c-2.6-7-6.2-12.4-10.3-15.7a43.409,43.409,0,0,1,19.1,9.7A34.165,34.165,0,0,1,74.6,31.3Z" transform="translate(-8.3 -11.4)" fill="#96cb4c"/></svg>