<svg xmlns="http://www.w3.org/2000/svg" viewBox="0 0 210 208.7"><path d="M102.02,93.681l1.286-1.479-1.286-1.479L100.733,92.2Zm0-8.263,1.286-1.479L102.02,82.46l-1.287,1.479Zm0-8.264,1.286-1.478L102.02,74.2l-1.287,1.48Zm0-8.263,1.286-1.478-1.286-1.48-1.287,1.48Zm0-8.263,1.286-1.479L102.02,57.67l-1.287,1.479Zm7.191,30.1L107.924,92.2l1.287,1.479L110.5,92.2Zm0-8.263-1.287,1.479,1.287,1.479,1.286-1.479Zm0-8.264-1.287,1.48,1.287,1.478,1.286-1.478Zm0-8.263-1.287,1.48,1.287,1.478,1.286-1.478Zm0-8.263-1.287,1.479,1.287,1.479,1.286-1.479ZM116.4,90.723,115.115,92.2l1.287,1.479,1.289-1.479Zm0-8.263-1.287,1.479,1.287,1.479,1.289-1.479Zm0-8.264-1.287,1.48,1.287,1.478,1.289-1.478Zm0-8.263-1.287,1.48,1.287,1.478,1.289-1.478Zm1.288-6.784L116.4,57.67l-1.287,1.479,1.287,1.479Zm5.9,31.574L122.307,92.2l1.287,1.479,1.287-1.479Zm0-8.263-1.287,1.479,1.287,1.479,1.287-1.479Zm0-8.264-1.287,1.48,1.287,1.478,1.287-1.478Zm0-8.263-1.287,1.48,1.287,1.478,1.287-1.478Zm0-8.263-1.287,1.479,1.287,1.479,1.287-1.479Zm7.191,33.053L129.5,92.2l1.287,1.479,1.287-1.479Zm0-8.263L129.5,83.939l1.287,1.479,1.287-1.479Zm0-8.264-1.287,1.48,1.287,1.478,1.287-1.478Zm0-8.263-1.287,1.48,1.287,1.478,1.287-1.478Zm0-8.263L129.5,59.149l1.287,1.479,1.287-1.479Zm7.192,33.053L136.688,92.2l1.289,1.479,1.287-1.479Zm0-8.263-1.289,1.479,1.289,1.479,1.287-1.479Zm0-8.264-1.289,1.48,1.289,1.478,1.287-1.478Zm0-8.263-1.289,1.48,1.289,1.478,1.287-1.478Zm0-8.263-1.288,1.479,1.288,1.479,1.287-1.479Zm7.191,33.053L143.881,92.2l1.287,1.479,1.287-1.479Zm0-8.263-1.287,1.479,1.287,1.479,1.287-1.479Zm0-8.264-1.287,1.48,1.287,1.478,1.287-1.478Zm0-8.263-1.287,1.48,1.287,1.478,1.287-1.478Zm0-8.263-1.287,1.479,1.287,1.479,1.287-1.479Zm7.191,33.053L151.072,92.2l1.287,1.479,1.289-1.479Zm0-8.263-1.287,1.479,1.287,1.479,1.289-1.479Zm0-8.264-1.287,1.48,1.287,1.478,1.289-1.478Zm0-8.263-1.287,1.48,1.287,1.478,1.289-1.478Zm1.288-6.784-1.288-1.479-1.287,1.479,1.287,1.479Zm5.9,31.574L158.264,92.2l1.287,1.479,1.287-1.479Zm0-8.263-1.287,1.479,1.287,1.479,1.287-1.479Zm0-8.264-1.287,1.48,1.287,1.478,1.287-1.478Zm0-8.263-1.287,1.48,1.287,1.478,1.287-1.478Zm0-8.263-1.287,1.479,1.287,1.479,1.287-1.479Zm7.191,33.053L165.455,92.2l1.287,1.479,1.287-1.479Zm0-8.263-1.287,1.479,1.287,1.479,1.287-1.479Zm0-8.264-1.287,1.48,1.287,1.478,1.287-1.478Zm0-8.263-1.287,1.48,1.287,1.478,1.287-1.478Zm0-8.263-1.287,1.479,1.287,1.479,1.287-1.479Zm7.192,36.011,1.287-1.479-1.287-1.479L172.645,92.2Zm0-8.263,1.287-1.479-1.287-1.479-1.289,1.479Zm0-8.264,1.287-1.478-1.287-1.48-1.289,1.48Zm0-8.263,1.287-1.478-1.287-1.48-1.289,1.48Zm-1.288-9.742,1.288,1.479,1.287-1.479-1.287-1.479Zm8.479,31.574L179.839,92.2l1.286,1.479,1.287-1.479Zm0-8.263-1.286,1.479,1.286,1.479,1.287-1.479Zm0-8.264-1.286,1.48,1.286,1.478,1.287-1.478Zm0-8.263-1.286,1.48,1.286,1.478,1.287-1.478Zm0-8.263-1.286,1.479,1.286,1.479,1.287-1.479Zm7.191,33.053L187.03,92.2l1.286,1.479,1.29-1.479Zm0-8.263-1.286,1.479,1.286,1.479,1.29-1.479Zm0-8.264-1.286,1.48,1.286,1.478,1.29-1.478Zm0-8.263-1.286,1.48,1.286,1.478,1.29-1.478Zm1.288-6.784-1.288-1.479-1.286,1.479,1.286,1.479ZM102.02,52.538l1.286-1.479L102.02,49.58l-1.287,1.479Zm0-8.264,1.286-1.478-1.286-1.48-1.287,1.48Zm0-8.262,1.286-1.48-1.286-1.479-1.287,1.479Zm0-8.263,1.286-1.48L102.02,24.79l-1.287,1.479Zm0-8.264,1.286-1.479-1.286-1.48-1.287,1.48Zm1.286-9.742-1.286-1.48-1.287,1.48,1.287,1.479Zm-2.573-8.264,1.287,1.48,1.286-1.48L102.02,0Zm8.478,48.1-1.287,1.479,1.287,1.479,1.286-1.479Zm0-8.264-1.287,1.48,1.287,1.478L110.5,42.8Zm0-8.263-1.287,1.479,1.287,1.48,1.286-1.48Zm0-8.263-1.287,1.479,1.287,1.48,1.286-1.48Zm0-8.264-1.287,1.48,1.287,1.479,1.286-1.479Zm0-8.263-1.287,1.48,1.287,1.479L110.5,9.743Zm0-8.263-1.287,1.479,1.287,1.48,1.286-1.48ZM116.4,49.58l-1.287,1.479,1.287,1.479,1.289-1.479Zm0-8.264-1.287,1.48,1.287,1.478,1.289-1.478Zm0-8.263-1.287,1.479,1.287,1.48,1.289-1.48Zm0-8.263-1.287,1.479,1.287,1.48,1.289-1.48Zm0-8.264-1.287,1.48,1.287,1.479,1.289-1.479Zm0-8.263-1.287,1.48,1.287,1.479,1.289-1.479ZM116.4,0l-1.287,1.479,1.287,1.48,1.289-1.48Zm7.192,49.58-1.287,1.479,1.287,1.479,1.287-1.479Zm0-8.264-1.287,1.48,1.287,1.478,1.287-1.478Zm0-8.263-1.287,1.479,1.287,1.48,1.287-1.48Zm0-8.263-1.287,1.479,1.287,1.48,1.287-1.48Zm0-8.264-1.287,1.48,1.287,1.479,1.287-1.479Zm0-8.263-1.287,1.48,1.287,1.479,1.287-1.479Zm0-8.263-1.287,1.479,1.287,1.48,1.287-1.48Zm7.191,49.58L129.5,51.059l1.287,1.479,1.287-1.479Zm0-8.264L129.5,42.8l1.287,1.478,1.287-1.478Zm0-8.263L129.5,34.532l1.287,1.48,1.287-1.48Zm0-8.263L129.5,26.269l1.287,1.48,1.287-1.48Zm0-8.264-1.287,1.48,1.287,1.479,1.287-1.479Zm0-8.263L129.5,9.743l1.287,1.479,1.287-1.479Zm0-5.3,1.287-1.48-.217-.249c-.578-.157-1.156-.315-1.738-.462l-.619.711Zm7.192,46.617-1.289,1.479,1.289,1.479,1.287-1.479Zm0-8.264-1.289,1.48,1.289,1.478,1.287-1.478Zm0-8.263-1.289,1.479,1.289,1.48,1.287-1.48Zm0-8.263-1.289,1.479,1.289,1.48,1.287-1.48Zm0-8.264-1.289,1.48,1.289,1.479,1.287-1.479Zm0-8.263-1.289,1.48,1.289,1.479,1.287-1.479Zm7.191,41.317-1.287,1.479,1.287,1.479,1.287-1.479Zm0-8.264-1.287,1.48,1.287,1.478,1.287-1.478Zm0-8.263-1.287,1.479,1.287,1.48,1.287-1.48Zm0-8.263-1.287,1.479,1.287,1.48,1.287-1.48Zm0-8.264-1.287,1.48,1.287,1.479,1.287-1.479Zm0-8.263-1.287,1.48,1.287,1.479,1.287-1.479Zm7.191,41.317-1.287,1.479,1.287,1.479,1.289-1.479Zm0-8.264-1.287,1.48,1.287,1.478,1.289-1.478Zm0-8.263-1.287,1.479,1.287,1.48,1.289-1.48Zm0-8.263-1.287,1.479,1.287,1.48,1.289-1.48Zm0-8.264-1.287,1.48,1.287,1.479,1.289-1.479Zm0-5.3,1.227-1.408c-.589-.312-1.179-.621-1.774-.922l-.74.851Zm7.192,38.358-1.287,1.479,1.287,1.479,1.287-1.479Zm0-8.264-1.287,1.48,1.287,1.478,1.287-1.478Zm0-8.263-1.287,1.479,1.287,1.48,1.287-1.48Zm0-8.263-1.287,1.479,1.287,1.48,1.287-1.48Zm0-8.264-1.287,1.48,1.287,1.479,1.287-1.479Zm7.191,33.054-1.287,1.479,1.287,1.479,1.287-1.479Zm0-8.264-1.287,1.48,1.287,1.478,1.287-1.478Zm0-8.263-1.287,1.479,1.287,1.48,1.287-1.48Zm0-8.263-1.287,1.479,1.287,1.48,1.287-1.48Zm-1.287-6.784,1.287,1.479.759-.871c-.521-.389-1.047-.77-1.575-1.149Zm8.479,34.532,1.287-1.479-1.287-1.479-1.289,1.479Zm0-8.264,1.287-1.478-1.287-1.48-1.289,1.48Zm1.287-9.742-1.287-1.479-1.289,1.479,1.289,1.48Zm-2.576-8.263,1.289,1.48,1.287-1.48-1.287-1.479Zm8.48,23.311-1.286,1.479,1.286,1.479,1.287-1.479Zm0-8.264-1.286,1.48,1.286,1.478,1.287-1.478Zm0-8.263-1.286,1.479,1.286,1.48,1.287-1.48Zm7.191,16.527-1.286,1.479,1.286,1.479,1.29-1.479Zm0-8.264L187.03,42.8l1.286,1.478,1.29-1.478Zm7.3,49.407L194.325,92.2l1.287,1.479L196.9,92.2Zm0-8.263-1.287,1.479,1.287,1.479,1.287-1.479Zm0-8.264-1.287,1.48,1.287,1.478,1.287-1.478Zm0-8.263-1.287,1.48,1.287,1.478,1.287-1.478Zm0-8.263-1.287,1.479,1.287,1.479,1.287-1.479ZM202.8,90.723,201.516,92.2l1.287,1.479,1.289-1.479Zm0-8.263-1.287,1.479,1.287,1.479,1.289-1.479Zm0-8.264-1.287,1.48,1.287,1.478,1.289-1.478Zm-1.287-6.783,1.287,1.478,1.06-1.216c-.106-.3-.207-.593-.316-.887l-.744-.855Zm7.849,24.039-.657.754.834.958Q209.461,92.3,209.365,91.452ZM195.612,52.538l.868-1q-.5-.9-1.026-1.779l-1.129,1.3ZM1.287,90.723,0,92.2l1.287,1.479L2.574,92.2Zm0-8.263L0,83.939l1.287,1.479,1.287-1.479Zm0-5.307,1.287-1.478L1.5,74.441q-.318,1.122-.613,2.253Zm7.192,13.57L7.19,92.2l1.289,1.479L9.766,92.2Zm0-8.263L7.19,83.939l1.289,1.479,1.287-1.479Zm0-8.264L7.19,75.676l1.289,1.478,1.287-1.478Zm0-8.263L7.19,67.413l1.289,1.478,1.287-1.478Zm0-8.263L7.191,59.149l1.288,1.479,1.287-1.479Zm7.294,33.053L14.486,92.2l1.287,1.479L17.06,92.2Zm0-8.263-1.287,1.479,1.287,1.479,1.287-1.479Zm0-8.264-1.287,1.48,1.287,1.478,1.287-1.478Zm0-8.263-1.287,1.48,1.287,1.478,1.287-1.478Zm0-8.263-1.287,1.479,1.287,1.479,1.287-1.479Zm7.192,33.053L21.676,92.2l1.289,1.479L24.252,92.2Zm0-8.263-1.289,1.479,1.289,1.479,1.287-1.479Zm0-8.264-1.289,1.48,1.289,1.478,1.287-1.478Zm0-8.263-1.289,1.48,1.289,1.478,1.287-1.478Zm0-8.263-1.288,1.479,1.288,1.479,1.287-1.479Zm7.191,33.053L28.869,92.2l1.287,1.479L31.443,92.2Zm0-8.263-1.287,1.479,1.287,1.479,1.287-1.479Zm0-8.264-1.287,1.48,1.287,1.478,1.287-1.478Zm0-8.263-1.287,1.48,1.287,1.478,1.287-1.478Zm0-8.263-1.287,1.479,1.287,1.479,1.287-1.479Zm7.191,33.053L36.06,92.2l1.287,1.479L38.636,92.2Zm0-8.263L36.06,83.939l1.287,1.479,1.289-1.479Zm0-8.264-1.287,1.48,1.287,1.478,1.289-1.478Zm0-8.263-1.287,1.48,1.287,1.478,1.289-1.478Zm1.288-6.784L37.347,57.67,36.06,59.149l1.287,1.479Zm5.9,31.574L43.253,92.2l1.286,1.479L45.826,92.2Zm0-8.263-1.286,1.479,1.286,1.479,1.287-1.479Zm0-8.264-1.286,1.48,1.286,1.478,1.287-1.478Zm0-8.263-1.286,1.48,1.286,1.478,1.287-1.478Zm0-8.263-1.286,1.479,1.286,1.479,1.287-1.479ZM51.73,90.723,50.444,92.2l1.286,1.479L53.017,92.2Zm0-8.263-1.286,1.479,1.286,1.479,1.287-1.479Zm0-8.264-1.286,1.48,1.286,1.478,1.287-1.478Zm0-8.263-1.286,1.48,1.286,1.478,1.287-1.478Zm0-8.263-1.286,1.479,1.286,1.479,1.287-1.479Zm7.192,33.053L57.635,92.2l1.287,1.479L60.211,92.2Zm0-8.263-1.287,1.479,1.287,1.479,1.289-1.479Zm0-8.264-1.287,1.48,1.287,1.478,1.289-1.478Zm0-8.263-1.287,1.48,1.287,1.478,1.289-1.478Zm1.288-6.784L58.922,57.67l-1.287,1.479,1.287,1.479Zm5.9,31.574L64.827,92.2l1.287,1.479L67.4,92.2Zm0-8.263-1.287,1.479,1.287,1.479L67.4,83.939Zm0-8.264-1.287,1.48,1.287,1.478L67.4,75.676Zm0-8.263-1.287,1.48,1.287,1.478L67.4,67.413Zm0-8.263-1.287,1.479,1.287,1.479L67.4,59.149Zm7.191,33.053L72.018,92.2l1.287,1.479L74.592,92.2Zm0-8.263-1.287,1.479,1.287,1.479,1.287-1.479Zm0-8.264-1.287,1.48,1.287,1.478,1.287-1.478Zm0-8.263-1.287,1.48,1.287,1.478,1.287-1.478Zm0-8.263-1.287,1.479,1.287,1.479,1.287-1.479ZM80.5,90.723,79.208,92.2,80.5,93.681,81.784,92.2Zm0-8.263-1.289,1.479L80.5,85.418l1.287-1.479Zm0-8.264-1.289,1.48L80.5,77.154l1.287-1.478Zm0-8.263-1.289,1.48L80.5,68.891l1.287-1.478Zm0-8.263-1.288,1.479L80.5,60.628l1.287-1.479Zm7.191,36.011L88.975,92.2l-1.287-1.479L86.4,92.2Zm0-8.263,1.287-1.479L87.688,82.46,86.4,83.939Zm0-8.264,1.287-1.478L87.688,74.2,86.4,75.676Zm0-8.263,1.287-1.478-1.287-1.48L86.4,67.413Zm0-8.263,1.287-1.479L87.688,57.67,86.4,59.149Zm7.191,33.053L96.168,92.2l-1.289-1.479L93.592,92.2Zm0-8.263,1.289-1.479L94.879,82.46l-1.287,1.479Zm0-8.264,1.289-1.478L94.879,74.2l-1.287,1.48Zm0-8.263,1.289-1.478-1.289-1.48-1.287,1.48Zm0-8.263,1.288-1.479L94.879,57.67l-1.287,1.479ZM15.773,49.58l-1.287,1.479,1.287,1.479,1.287-1.479Zm0-5.306L17.06,42.8l-.271-.312c-.385.545-.769,1.091-1.144,1.644Zm7.192,5.306-1.289,1.479,1.289,1.479,1.287-1.479Zm0-8.264L21.676,42.8l1.289,1.478L24.252,42.8Zm0-5.3,1.287-1.48-.631-.726c-.432.493-.855.992-1.277,1.492ZM30.156,49.58l-1.287,1.479,1.287,1.479,1.287-1.479Zm0-8.264L28.869,42.8l1.287,1.478L31.443,42.8Zm0-8.263-1.287,1.479,1.287,1.48,1.287-1.48Zm0-5.3,1.287-1.48-.239-.275q-.711.663-1.411,1.337ZM37.347,49.58,36.06,51.059l1.287,1.479,1.289-1.479Zm0-8.264L36.06,42.8l1.287,1.478L38.636,42.8Zm0-8.263L36.06,34.532l1.287,1.48,1.289-1.48Zm0-8.263L36.06,26.269l1.287,1.48,1.289-1.48Zm7.192,24.79-1.286,1.479,1.286,1.479,1.287-1.479Zm0-8.264L43.253,42.8l1.286,1.478L45.826,42.8Zm0-8.263-1.286,1.479,1.286,1.48,1.287-1.48Zm0-8.263-1.286,1.479,1.286,1.48,1.287-1.48Zm0-8.264-1.286,1.48,1.286,1.479,1.287-1.479ZM51.73,49.58l-1.286,1.479,1.286,1.479,1.287-1.479Zm0-8.264L50.444,42.8l1.286,1.478L53.017,42.8Zm0-8.263-1.286,1.479,1.286,1.48,1.287-1.48Zm0-8.263-1.286,1.479,1.286,1.48,1.287-1.48Zm0-8.264-1.286,1.48,1.286,1.479,1.287-1.479Zm0-5.3.334-.383c-.15.082-.3.166-.449.25ZM58.922,49.58l-1.287,1.479,1.287,1.479,1.289-1.479Zm0-8.264L57.635,42.8l1.287,1.478L60.211,42.8Zm0-8.263-1.287,1.479,1.287,1.48,1.289-1.48Zm0-8.263-1.287,1.479,1.287,1.48,1.289-1.48Zm0-8.264-1.287,1.48,1.287,1.479,1.289-1.479Zm0-8.263-1.287,1.48,1.287,1.479,1.289-1.479ZM66.114,49.58l-1.287,1.479,1.287,1.479L67.4,51.059Zm0-8.264L64.827,42.8l1.287,1.478L67.4,42.8Zm0-8.263-1.287,1.479,1.287,1.48,1.287-1.48Zm0-8.263-1.287,1.479,1.287,1.48,1.287-1.48Zm0-8.264-1.287,1.48,1.287,1.479L67.4,18.006Zm0-8.263-1.287,1.48,1.287,1.479L67.4,9.743ZM73.305,49.58l-1.287,1.479,1.287,1.479,1.287-1.479Zm0-8.264L72.018,42.8l1.287,1.478L74.592,42.8Zm0-8.263-1.287,1.479,1.287,1.48,1.287-1.48Zm0-8.263-1.287,1.479,1.287,1.48,1.287-1.48Zm0-8.264-1.287,1.48,1.287,1.479,1.287-1.479Zm0-8.263-1.287,1.48,1.287,1.479,1.287-1.479Zm0-5.3,1.231-1.416c-.656.186-1.308.381-1.958.58ZM80.5,49.58l-1.289,1.479L80.5,52.538l1.287-1.479Zm0-8.264L79.208,42.8,80.5,44.274,81.784,42.8Zm0-8.263-1.289,1.479,1.289,1.48,1.287-1.48Zm0-8.263-1.289,1.479,1.289,1.48,1.287-1.48Zm0-8.264-1.289,1.48L80.5,19.485l1.287-1.479Zm0-8.263-1.289,1.48L80.5,11.222l1.287-1.479ZM79.208,1.479,80.5,2.963l1.287-1.48L80.529.037l-.072.016Zm8.48,51.059,1.287-1.479L87.688,49.58,86.4,51.059Zm0-8.264L88.975,42.8l-1.287-1.48L86.4,42.8Zm0-8.262,1.287-1.48-1.287-1.479L86.4,34.532Zm0-8.263,1.287-1.48L87.688,24.79,86.4,26.269Zm0-8.264,1.287-1.479-1.287-1.48L86.4,18.006Zm0-8.263,1.287-1.479-1.287-1.48L86.4,9.743Zm1.287-9.743L87.688,0,86.4,1.479l1.287,1.48Zm5.9,51.059,1.289-1.479L94.879,49.58l-1.287,1.479Zm0-8.264L96.168,42.8l-1.289-1.48L93.592,42.8Zm0-8.262,1.289-1.48-1.289-1.479-1.287,1.479Zm0-8.263,1.289-1.48L94.879,24.79l-1.287,1.479Zm0-8.264,1.289-1.479-1.289-1.48-1.287,1.48Zm0-8.263,1.289-1.479-1.289-1.48-1.287,1.48Zm1.289-9.743L94.879,0,93.592,1.479l1.287,1.48Zm5.852,198.939,1.286-1.48-1.286-1.479-1.287,1.479Zm0-8.263,1.286-1.48L102.02,189.2l-1.287,1.479Zm0-8.264,1.286-1.479-1.286-1.479-1.287,1.479Zm0-8.263,1.286-1.48-1.286-1.479-1.287,1.479Zm0-8.263,1.286-1.479-1.286-1.479-1.287,1.479Zm5.9,31.573,1.287,1.48,1.286-1.48-1.286-1.479Zm1.287-9.742-1.287,1.479,1.287,1.48,1.286-1.48Zm0-8.263-1.287,1.479,1.287,1.479,1.286-1.479Zm0-8.264-1.287,1.479,1.287,1.48,1.286-1.48Zm0-8.262-1.287,1.479,1.287,1.479,1.286-1.479Zm5.9,34.531,1.287,1.48,1.289-1.48-1.289-1.479ZM116.4,189.2l-1.287,1.479,1.287,1.48,1.289-1.48Zm0-8.263-1.287,1.479,1.287,1.479,1.289-1.479Zm0-8.264-1.287,1.479,1.287,1.48,1.289-1.48Zm0-8.262-1.287,1.479,1.287,1.479,1.289-1.479Zm5.905,34.531,1.287,1.48,1.287-1.48-1.287-1.479Zm1.287-9.742-1.287,1.479,1.287,1.48,1.287-1.48Zm0-8.263-1.287,1.479,1.287,1.479,1.287-1.479Zm0-8.264-1.287,1.479,1.287,1.48,1.287-1.48Zm0-8.262-1.287,1.479,1.287,1.479,1.287-1.479Zm5.9,34.531,1.287,1.48,1.287-1.48-1.287-1.479Zm1.287-9.742-1.287,1.479,1.287,1.48,1.287-1.48Zm0-8.263-1.287,1.479,1.287,1.479,1.287-1.479Zm0-8.264-1.287,1.479,1.287,1.48,1.287-1.48Zm0-8.262-1.287,1.479,1.287,1.479,1.287-1.479Zm5.9,34.531,1.289,1.48,1.287-1.48-1.287-1.479Zm1.289-9.742-1.289,1.479,1.289,1.48,1.287-1.48Zm0-8.263-1.289,1.479,1.289,1.479,1.287-1.479Zm0-8.264-1.289,1.479,1.289,1.48,1.287-1.48Zm0-8.262-1.289,1.479,1.289,1.479,1.287-1.479Zm5.9,34.531,1.287,1.48,1.287-1.48-1.287-1.479Zm1.287-9.742-1.287,1.479,1.287,1.48,1.287-1.48Zm0-8.263-1.287,1.479,1.287,1.479,1.287-1.479Zm0-8.264-1.287,1.479,1.287,1.48,1.287-1.48Zm0-8.262-1.287,1.479,1.287,1.479,1.287-1.479Zm5.9,26.268,1.287,1.48,1.289-1.48-1.289-1.479Zm1.287-9.742-1.287,1.479,1.287,1.479,1.289-1.479Zm0-8.264-1.287,1.479,1.287,1.48,1.289-1.48Zm0-8.262-1.287,1.479,1.287,1.479,1.289-1.479Zm5.905,26.268,1.287,1.48,1.287-1.48-1.287-1.479Zm1.287-9.742-1.287,1.479,1.287,1.479,1.287-1.479Zm0-8.264-1.287,1.479,1.287,1.48,1.287-1.48Zm0-8.262-1.287,1.479,1.287,1.479,1.287-1.479Zm5.9,18,1.287,1.479,1.287-1.479-1.287-1.479Zm1.287-9.743-1.287,1.479,1.287,1.48,1.287-1.48Zm0-8.262-1.287,1.479,1.287,1.479,1.287-1.479Zm7.192,16.526-1.289,1.479.651.747c.49-.423.973-.854,1.456-1.286Zm0-5.305,1.287-1.48-1.287-1.479-1.289,1.479Zm0-8.263,1.287-1.479-1.287-1.479-1.289,1.479Zm8.478,6.783-1.287-1.479-1.286,1.479,1.286,1.48Zm-2.573-8.262,1.286,1.479,1.287-1.479-1.287-1.479Zm8.477-1.479-1.286,1.479,1.236,1.421q.6-.789,1.2-1.588Zm-86.3-5.132,1.286-1.48-1.286-1.479-1.287,1.479Zm0-8.263,1.286-1.48-1.286-1.478-1.287,1.478Zm0-8.264,1.286-1.48-1.286-1.478-1.287,1.478Zm0-8.263,1.286-1.48-1.286-1.478-1.287,1.478Zm0-8.264,1.286-1.479-1.286-1.478-1.287,1.478Zm0-8.263,1.286-1.48L102.02,115l-1.287,1.478Zm0-8.263,1.286-1.478-1.286-1.48-1.287,1.48Zm0-8.264,1.286-1.478-1.286-1.48-1.287,1.48Zm7.191,54.885-1.287,1.479,1.287,1.48,1.286-1.48Zm0-8.262-1.287,1.478,1.287,1.48,1.286-1.48Zm0-8.264-1.287,1.478,1.287,1.48,1.286-1.48Zm0-8.263-1.287,1.478,1.287,1.48,1.286-1.48Zm0-8.263-1.287,1.478,1.287,1.479,1.286-1.479Zm0-8.264-1.287,1.478,1.287,1.48,1.286-1.48Zm0-8.263-1.287,1.48,1.287,1.478,1.286-1.478Zm0-8.264-1.287,1.48,1.287,1.478,1.286-1.478Zm8.479,59.322-1.288-1.479-1.287,1.479,1.287,1.48Zm-1.288-9.741-1.287,1.478,1.287,1.48,1.289-1.48Zm0-8.264-1.287,1.478,1.287,1.48,1.289-1.48Zm0-8.263-1.287,1.478,1.287,1.48,1.289-1.48Zm0-8.263-1.287,1.478,1.287,1.479,1.289-1.479Zm0-8.264-1.287,1.478,1.287,1.48,1.289-1.48Zm0-8.263-1.287,1.48L116.4,109.7l1.289-1.478Zm0-8.264-1.287,1.48,1.287,1.478,1.289-1.478Zm7.192,57.843-1.287,1.479,1.287,1.48,1.287-1.48Zm0-8.262-1.287,1.478,1.287,1.48,1.287-1.48Zm0-8.264-1.287,1.478,1.287,1.48,1.287-1.48Zm0-8.263-1.287,1.478,1.287,1.48,1.287-1.48Zm0-8.263-1.287,1.478,1.287,1.479,1.287-1.479Zm0-8.264-1.287,1.478,1.287,1.48,1.287-1.48Zm0-8.263-1.287,1.48,1.287,1.478,1.287-1.478Zm0-8.264-1.287,1.48,1.287,1.478,1.287-1.478Zm7.191,57.843-1.287,1.479,1.287,1.48,1.287-1.48Zm0-8.262-1.287,1.478,1.287,1.48,1.287-1.48Zm0-8.264-1.287,1.478,1.287,1.48,1.287-1.48Zm0-8.263-1.287,1.478,1.287,1.48,1.287-1.48Zm0-8.263-1.287,1.478,1.287,1.479,1.287-1.479Zm0-8.264-1.287,1.478,1.287,1.48,1.287-1.48Zm0-8.263-1.287,1.48,1.287,1.478,1.287-1.478Zm0-8.264-1.287,1.48,1.287,1.478,1.287-1.478Zm7.192,57.843-1.288,1.479,1.288,1.48,1.287-1.48Zm0-8.262-1.289,1.478,1.289,1.48,1.287-1.48Zm0-8.264-1.289,1.478,1.289,1.48,1.287-1.48Zm0-8.263-1.289,1.478,1.289,1.48,1.287-1.48Zm0-8.263-1.289,1.478,1.289,1.479,1.287-1.479Zm0-8.264-1.289,1.478,1.289,1.48,1.287-1.48Zm0-8.263-1.289,1.48,1.289,1.478,1.287-1.478Zm0-8.264-1.289,1.48,1.289,1.478,1.287-1.478Zm7.191,57.843-1.287,1.479,1.287,1.48,1.287-1.48Zm0-8.262-1.287,1.478,1.287,1.48,1.287-1.48Zm0-8.264-1.287,1.478,1.287,1.48,1.287-1.48Zm0-8.263-1.287,1.478,1.287,1.48,1.287-1.48Zm0-8.263-1.287,1.478,1.287,1.479,1.287-1.479Zm0-8.264-1.287,1.478,1.287,1.48,1.287-1.48Zm0-8.263-1.287,1.48,1.287,1.478,1.287-1.478Zm0-8.264-1.287,1.48,1.287,1.478,1.287-1.478Zm8.479,59.322-1.288-1.479-1.287,1.479,1.287,1.48Zm-1.288-9.741-1.287,1.478,1.287,1.48,1.289-1.48Zm0-8.264-1.287,1.478,1.287,1.48,1.289-1.48Zm0-8.263-1.287,1.478,1.287,1.48,1.289-1.48Zm0-8.263-1.287,1.478,1.287,1.479,1.289-1.479Zm0-8.264-1.287,1.478,1.287,1.48,1.289-1.48Zm0-8.263-1.287,1.48,1.287,1.478,1.289-1.478Zm0-8.264-1.287,1.48,1.287,1.478,1.289-1.478Zm7.192,57.843-1.287,1.479,1.287,1.48,1.287-1.48Zm0-8.262-1.287,1.478,1.287,1.48,1.287-1.48Zm0-8.264-1.287,1.478,1.287,1.48,1.287-1.48Zm0-8.263-1.287,1.478,1.287,1.48,1.287-1.48Zm0-8.263-1.287,1.478,1.287,1.479,1.287-1.479Zm0-8.264-1.287,1.478,1.287,1.48,1.287-1.48Zm0-8.263-1.287,1.48,1.287,1.478,1.287-1.478Zm0-8.264-1.287,1.48,1.287,1.478,1.287-1.478Zm7.191,57.843-1.287,1.479,1.287,1.48,1.287-1.48Zm0-8.262-1.287,1.478,1.287,1.48,1.287-1.48Zm0-8.264-1.287,1.478,1.287,1.48,1.287-1.48Zm0-8.263-1.287,1.478,1.287,1.48,1.287-1.48Zm0-8.263-1.287,1.478,1.287,1.479,1.287-1.479Zm0-8.264-1.287,1.478,1.287,1.48,1.287-1.48Zm0-8.263-1.287,1.48,1.287,1.478,1.287-1.478Zm0-8.264-1.287,1.48,1.287,1.478,1.287-1.478Zm5.9,59.322,1.288,1.48,1.287-1.48-1.287-1.479Zm1.288-6.783,1.287-1.48-1.287-1.478-1.289,1.478Zm0-8.264,1.287-1.48-1.287-1.478-1.289,1.478Zm0-8.263,1.287-1.48-1.287-1.478-1.289,1.478Zm0-8.264,1.287-1.479-1.287-1.478-1.289,1.478Zm0-8.263,1.287-1.48L173.934,115l-1.289,1.478Zm0-8.263,1.287-1.478-1.287-1.48-1.289,1.48Zm0-8.264,1.287-1.478-1.287-1.48-1.289,1.48Zm7.191,54.885-1.286,1.479,1.286,1.48,1.287-1.48Zm0-8.262-1.286,1.478,1.286,1.48,1.287-1.48Zm0-8.264-1.286,1.478,1.286,1.48,1.287-1.48Zm0-8.263-1.286,1.478,1.286,1.48,1.287-1.48Zm0-8.263-1.286,1.478,1.286,1.479,1.287-1.479Zm0-8.264-1.286,1.478,1.286,1.48,1.287-1.48Zm0-8.263-1.286,1.48,1.286,1.478,1.287-1.478Zm0-8.264-1.286,1.48,1.286,1.478,1.287-1.478Zm5.905,59.322,1.286,1.48,1.288-1.48-1.288-1.479Zm1.286-9.741-1.286,1.478,1.286,1.48,1.29-1.48Zm0-8.264-1.286,1.478,1.286,1.48,1.29-1.48Zm0-8.263-1.286,1.478,1.286,1.48,1.29-1.48Zm0-8.263-1.286,1.478,1.286,1.479,1.29-1.479Zm0-8.264-1.286,1.478,1.286,1.48,1.29-1.48Zm0-8.263-1.286,1.48,1.286,1.478,1.29-1.478Zm0-8.264-1.286,1.48,1.286,1.478,1.29-1.478Zm7.3,57.843-1.287,1.479.269.309c.355-.581.7-1.168,1.046-1.755Zm-1.287-6.784,1.287,1.48,1.287-1.48-1.287-1.478Zm1.287-9.742-1.287,1.478,1.287,1.48,1.287-1.48Zm0-8.263-1.287,1.478,1.287,1.48,1.287-1.48Zm0-8.263-1.287,1.478,1.287,1.479,1.287-1.479Zm0-8.264-1.287,1.478,1.287,1.48,1.287-1.48Zm0-8.263-1.287,1.48,1.287,1.478,1.287-1.478Zm0-8.264-1.287,1.48,1.287,1.478,1.287-1.478ZM202.8,139.79l-1.287,1.478.969,1.115c.273-.678.536-1.362.794-2.046Zm-1.284-6.785,1.287,1.48,1.289-1.48-1.289-1.478Zm1.287-9.741-1.287,1.478,1.287,1.479,1.289-1.479Zm0-8.264-1.287,1.478,1.287,1.48,1.289-1.48Zm0-8.263-1.287,1.48L202.8,109.7l1.289-1.478Zm0-8.264-1.287,1.48,1.287,1.478,1.289-1.478Zm5.905,18,.421.484c.048-.374.091-.748.136-1.123Zm0-8.261,1.122,1.288q.079-1.358.126-2.723Zm0-8.266,1.292,1.48v0q-.024-1.434-.085-2.86ZM1.417,131.676c.187.667.383,1.329.582,1.99l.575-.661Zm1.157-6.934-1.287-1.478L0,124.742l1.287,1.479ZM0,116.478l1.287,1.48,1.287-1.48L1.287,115Zm1.287-9.741L0,108.217,1.287,109.7l1.287-1.478Zm0-8.264L0,99.953l1.287,1.478,1.287-1.478Zm7.192,49.581-.618.708c.3.633.617,1.261.934,1.887l.971-1.117ZM7.19,141.268l1.289,1.48,1.287-1.48L8.479,139.79Zm1.289-9.741L7.19,133.005l1.289,1.48,1.287-1.48Zm0-8.263L7.19,124.742l1.289,1.479,1.287-1.479Zm0-8.264L7.19,116.478l1.289,1.48,1.287-1.48Zm0-8.263-1.289,1.48L8.479,109.7l1.287-1.478Zm0-8.264L7.19,99.953l1.289,1.478,1.287-1.478Zm13.2,67.413,1.289,1.479,1.287-1.479-1.287-1.479Zm9.767,8.262-1.287-1.479-1.287,1.479,1.287,1.48Zm-2.574-8.262,1.287,1.479,1.287-1.479-1.287-1.479Zm7.191,16.526,1.287,1.479,1.289-1.479-1.289-1.479Zm1.287-9.743-1.287,1.479,1.287,1.48,1.289-1.48Zm0-8.262-1.287,1.479,1.287,1.479,1.289-1.479ZM44.539,189.2l-.98,1.127q.807.552,1.624,1.091l.643-.739Zm-1.286-6.784,1.286,1.479,1.287-1.479-1.287-1.479Zm1.286-9.743-1.286,1.479,1.286,1.48,1.287-1.48Zm0-8.262-1.286,1.479,1.286,1.479,1.287-1.479Zm5.905,26.268,1.286,1.48,1.287-1.48L51.73,189.2Zm1.286-9.742-1.286,1.479,1.286,1.479,1.287-1.479Zm0-8.264-1.286,1.479,1.286,1.48,1.287-1.48Zm0-8.262-1.286,1.479,1.286,1.479,1.287-1.479Zm7.192,33.052-1,1.149q.912.435,1.834.852l.455-.522Zm-1.287-6.784,1.287,1.48,1.289-1.48L58.922,189.2Zm1.287-9.742-1.287,1.479,1.287,1.479,1.289-1.479Zm0-8.264-1.287,1.479,1.287,1.48,1.289-1.48Zm0-8.262-1.287,1.479,1.287,1.479,1.289-1.479Zm5.905,34.531,1.287,1.48,1.287-1.48-1.287-1.479Zm1.287-9.742-1.287,1.479,1.287,1.48,1.287-1.48Zm0-8.263-1.287,1.479,1.287,1.479,1.287-1.479Zm0-8.264-1.287,1.479,1.287,1.48,1.287-1.48Zm0-8.262-1.287,1.479,1.287,1.479,1.287-1.479Zm5.9,34.531,1.287,1.48,1.287-1.48-1.287-1.479Zm1.287-9.742-1.287,1.479,1.287,1.48,1.287-1.48Zm0-8.263-1.287,1.479,1.287,1.479,1.287-1.479Zm0-8.264-1.287,1.479,1.287,1.48,1.287-1.48Zm0-8.262-1.287,1.479,1.287,1.479,1.287-1.479Zm5.9,34.531,1.289,1.48,1.287-1.48L80.5,197.459ZM80.5,189.2l-1.289,1.479,1.289,1.48,1.287-1.48Zm0-8.263-1.289,1.479,1.289,1.479,1.287-1.479Zm0-8.264-1.289,1.479,1.289,1.48,1.287-1.48Zm0-8.262-1.289,1.479,1.289,1.479,1.287-1.479Zm7.191,36.011,1.287-1.48-1.287-1.479L86.4,198.938Zm0-8.263,1.287-1.48L87.688,189.2,86.4,190.675Zm0-8.264,1.287-1.479-1.287-1.479L86.4,182.412Zm0-8.263,1.287-1.48-1.287-1.479L86.4,174.148Zm0-8.263,1.287-1.479-1.287-1.479L86.4,165.886Zm7.191,33.053,1.289-1.48-1.289-1.479-1.287,1.479Zm0-8.263,1.289-1.48L94.879,189.2l-1.287,1.479Zm0-8.264,1.289-1.479-1.289-1.479-1.287,1.479Zm0-8.263,1.289-1.48-1.289-1.479-1.287,1.479Zm0-8.263,1.289-1.479-1.289-1.479-1.287,1.479Zm-80.393-9.57,1.287,1.48,1.287-1.48-1.287-1.479Zm1.287-9.741-1.287,1.478,1.287,1.48,1.287-1.48Zm0-8.264-1.287,1.478,1.287,1.48,1.287-1.48Zm0-8.263-1.287,1.478,1.287,1.48,1.287-1.48Zm0-8.263-1.287,1.478,1.287,1.479,1.287-1.479Zm0-8.264-1.287,1.478,1.287,1.48,1.287-1.48Zm0-8.263-1.287,1.48,1.287,1.478,1.287-1.478Zm0-8.264-1.287,1.48,1.287,1.478,1.287-1.478Zm7.192,57.843-1.288,1.479,1.288,1.48,1.287-1.48Zm0-8.262-1.289,1.478,1.289,1.48,1.287-1.48Zm0-8.264-1.289,1.478,1.289,1.48,1.287-1.48Zm0-8.263-1.289,1.478,1.289,1.48,1.287-1.48Zm0-8.263-1.289,1.478,1.289,1.479,1.287-1.479Zm0-8.264-1.289,1.478,1.289,1.48,1.287-1.48Zm0-8.263-1.289,1.48,1.289,1.478,1.287-1.478Zm0-8.264-1.289,1.48,1.289,1.478,1.287-1.478Zm7.191,57.843-1.287,1.479,1.287,1.48,1.287-1.48Zm0-8.262-1.287,1.478,1.287,1.48,1.287-1.48Zm0-8.264-1.287,1.478,1.287,1.48,1.287-1.48Zm0-8.263-1.287,1.478,1.287,1.48,1.287-1.48Zm0-8.263-1.287,1.478,1.287,1.479,1.287-1.479Zm0-8.264-1.287,1.478,1.287,1.48,1.287-1.48Zm0-8.263-1.287,1.48,1.287,1.478,1.287-1.478Zm0-8.264-1.287,1.48,1.287,1.478,1.287-1.478Zm8.479,59.322-1.288-1.479-1.287,1.479,1.287,1.48Zm-1.288-9.741-1.287,1.478,1.287,1.48,1.289-1.48Zm0-8.264-1.287,1.478,1.287,1.48,1.289-1.48Zm0-8.263-1.287,1.478,1.287,1.48,1.289-1.48Zm0-8.263-1.287,1.478,1.287,1.479,1.289-1.479Zm0-8.264-1.287,1.478,1.287,1.48,1.289-1.48Zm0-8.263-1.287,1.48,1.287,1.478,1.289-1.478Zm0-8.264-1.287,1.48,1.287,1.478,1.289-1.478Zm7.192,57.843-1.286,1.479,1.286,1.48,1.287-1.48Zm0-8.262-1.286,1.478,1.286,1.48,1.287-1.48Zm0-8.264-1.286,1.478,1.286,1.48,1.287-1.48Zm0-8.263-1.286,1.478,1.286,1.48,1.287-1.48Zm0-8.263-1.286,1.478,1.286,1.479,1.287-1.479Zm0-8.264-1.286,1.478,1.286,1.48,1.287-1.48Zm0-8.263-1.286,1.48,1.286,1.478,1.287-1.478Zm0-8.264-1.286,1.48,1.286,1.478,1.287-1.478Zm7.191,57.843-1.286,1.479,1.286,1.48,1.287-1.48Zm0-8.262-1.286,1.478,1.286,1.48,1.287-1.48Zm0-8.264-1.286,1.478,1.286,1.48,1.287-1.48Zm0-8.263-1.286,1.478,1.286,1.48,1.287-1.48Zm0-8.263-1.286,1.478,1.286,1.479,1.287-1.479Zm0-8.264-1.286,1.478,1.286,1.48,1.287-1.48Zm0-8.263-1.286,1.48L51.73,109.7l1.287-1.478Zm0-8.264-1.286,1.48,1.286,1.478,1.287-1.478Zm8.48,59.322-1.288-1.479-1.287,1.479,1.287,1.48Zm-1.288-9.741-1.287,1.478,1.287,1.48,1.289-1.48Zm0-8.264-1.287,1.478,1.287,1.48,1.289-1.48Zm0-8.263-1.287,1.478,1.287,1.48,1.289-1.48Zm0-8.263-1.287,1.478,1.287,1.479,1.289-1.479Zm0-8.264-1.287,1.478,1.287,1.48,1.289-1.48Zm0-8.263-1.287,1.48,1.287,1.478,1.289-1.478Zm0-8.264-1.287,1.48,1.287,1.478,1.289-1.478Zm7.192,57.843-1.287,1.479,1.287,1.48,1.287-1.48Zm0-8.262-1.287,1.478,1.287,1.48,1.287-1.48Zm0-8.264-1.287,1.478,1.287,1.48,1.287-1.48Zm0-8.263-1.287,1.478,1.287,1.48,1.287-1.48Zm0-8.263-1.287,1.478,1.287,1.479,1.287-1.479Zm0-8.264-1.287,1.478,1.287,1.48,1.287-1.48Zm0-8.263-1.287,1.48,1.287,1.478,1.287-1.478Zm0-8.264-1.287,1.48,1.287,1.478L67.4,99.953Zm7.191,57.843-1.287,1.479,1.287,1.48,1.287-1.48Zm0-8.262-1.287,1.478,1.287,1.48,1.287-1.48Zm0-8.264-1.287,1.478,1.287,1.48,1.287-1.48Zm0-8.263-1.287,1.478,1.287,1.48,1.287-1.48Zm0-8.263-1.287,1.478,1.287,1.479,1.287-1.479Zm0-8.264-1.287,1.478,1.287,1.48,1.287-1.48Zm0-8.263-1.287,1.48,1.287,1.478,1.287-1.478Zm0-8.264-1.287,1.48,1.287,1.478,1.287-1.478ZM80.5,156.316l-1.288,1.479,1.288,1.48,1.287-1.48Zm0-8.262-1.289,1.478,1.289,1.48,1.287-1.48Zm0-8.264-1.289,1.478,1.289,1.48,1.287-1.48Zm0-8.263-1.289,1.478,1.289,1.48,1.287-1.48Zm0-8.263-1.289,1.478,1.289,1.479,1.287-1.479Zm0-8.264-1.289,1.478,1.289,1.48,1.287-1.48Zm0-8.263-1.289,1.48L80.5,109.7l1.287-1.478Zm0-8.264-1.289,1.48,1.289,1.478,1.287-1.478Zm7.191,60.8,1.287-1.48-1.287-1.479L86.4,157.795Zm0-8.263,1.287-1.48-1.287-1.478L86.4,149.532Zm0-8.264,1.287-1.48-1.287-1.478L86.4,141.268Zm0-8.263,1.287-1.48-1.287-1.478L86.4,133.005Zm0-8.264,1.287-1.479-1.287-1.478L86.4,124.742Zm0-8.263,1.287-1.48L87.688,115,86.4,116.478Zm0-8.263,1.287-1.478-1.287-1.48-1.287,1.48Zm0-8.264,1.287-1.478-1.287-1.48L86.4,99.953Zm7.191,57.844,1.288-1.48-1.288-1.479-1.287,1.479Zm0-8.263,1.289-1.48-1.289-1.478-1.287,1.478Zm0-8.264,1.289-1.48-1.289-1.478-1.287,1.478Zm0-8.263,1.289-1.48-1.289-1.478-1.287,1.478Zm0-8.264,1.289-1.479-1.289-1.478-1.287,1.478Zm0-8.263,1.289-1.48L94.879,115l-1.287,1.478Zm0-8.263,1.289-1.478-1.289-1.48-1.287,1.48Zm0-8.264,1.289-1.478-1.289-1.48-1.287,1.48ZM102.02,208.7l1.286-1.479-1.286-1.479-1.287,1.479Zm8.477-1.479-1.286-1.479-1.287,1.479,1.287,1.479Zm5.9-1.479-1.287,1.479.879,1.011c.3-.035.6-.067.906-.1l.791-.907Zm7.194,0-1.287,1.479.079.091c.74-.13,1.477-.271,2.211-.416Zm-43.094,0-.469.538c.383.087.769.167,1.154.25Zm7.188,0L86.4,207.221l.3.347q.867.139,1.74.265l.532-.612Zm7.191,0-1.287,1.479,1.155,1.328.245.022,1.176-1.35Z" fill="#dcdcdc"/><ellipse cx="105.389" cy="103.207" rx="35.059" ry="35.249" fill="#edf4db"/><path d="M105.4,155.2a51.786,51.786,0,1,1,51.787-51.786A51.845,51.845,0,0,1,105.4,155.2Zm0-101.572a49.786,49.786,0,1,0,49.787,49.786A49.843,49.843,0,0,0,105.4,53.628Z" fill="#577635"/><path d="M128.954,161.217a1,1,0,0,1-.384-1.924A60.812,60.812,0,0,0,164.2,117.64a1,1,0,0,1,1.944.473,62.83,62.83,0,0,1-36.8,43.028A1,1,0,0,1,128.954,161.217Z" fill="#577635"/><path d="M129.315,90.661a1,1,0,0,0-1.409-.113l-28.9,24.638L82.9,100.5a1,1,0,1,0-1.347,1.479l16.761,15.282a.922.922,0,0,0,.181.112,1.007,1.007,0,0,0,.108.066.989.989,0,0,0,.384.083,1.015,1.015,0,0,0,.37-.076,1.194,1.194,0,0,0,.109-.064.966.966,0,0,0,.17-.1L129.2,92.07A1,1,0,0,0,129.315,90.661Z" fill="#577635"/><path d="M105.39,139.457A36.258,36.258,0,1,1,141.448,103.2,36.2,36.2,0,0,1,105.39,139.457Zm0-70.514A34.258,34.258,0,1,0,139.448,103.2,34.2,34.2,0,0,0,105.39,68.943Z" fill="#577635"/><path d="M171.049,60.588a.983.983,0,0,1-.273-.038l-20.217-5.718a1,1,0,0,1-.425-1.678L165.2,38.5a1,1,0,0,1,1.667.472l5.157,20.368a1,1,0,0,1-.97,1.245ZM152.77,53.379l16.884,4.776-4.305-17.01Z" fill="#577635"/><path d="M57.831,168.22a10,10,0,1,1,10-10A10.011,10.011,0,0,1,57.831,168.22Zm0-18a8,8,0,1,0,8,8A8.009,8.009,0,0,0,57.831,150.22Z" fill="#577635"/></svg>