<svg xmlns="http://www.w3.org/2000/svg" viewBox="0 0 128 128"><path d="M28.3,21.1a9.2,9.2,0,0,0,2-5.3,6.1,6.1,0,0,0-1.7-4.3,6,6,0,0,0-4.3-1.7c-3.2,0-6.3,2.3-9.2,6.9L6,11.3a27.9,27.9,0,0,1,7.9-8.4A19,19,0,0,1,24.8,0,17.6,17.6,0,0,1,36.4,4.2c3.3,2.8,5,6.6,5,11.5a15.6,15.6,0,0,1-2,7.5A54.2,54.2,0,0,1,32,32.5l-9.3,9.6H42.9V52.3H6.9V43.8l15-15.3A60.8,60.8,0,0,0,28.3,21.1Z" fill="#f2a989"></path><path d="M123.4,95.2a3.4,3.4,0,0,0-.1-1,23.4,23.4,0,1,0-38.3,21,23.9,23.9,0,0,0,13.9,4.4A24.5,24.5,0,0,0,123.4,95.2Z" fill="#edddc5"></path><path d="M94.7,104a2.3,2.3,0,0,1-1.7-.7l-5.9-5.9a1.5,1.5,0,0,1,2.1-2.1l5.5,5.5,14-13.9a1.5,1.5,0,0,1,2.1,2.1L96.5,103.3A2.4,2.4,0,0,1,94.7,104Z" fill="#c1aa95"></path><path d="M37.3,109.7a6,6,0,0,1-9.6-7.3,6.1,6.1,0,0,1,8.5-1.1,6,6,0,0,1,1.1,8.4" fill="#e4cdac"></path><path d="M25.3,94a3.9,3.9,0,0,1-5.6.7,4,4,0,0,1-.8-5.6,4.2,4.2,0,0,1,5.7-.7,4.1,4.1,0,0,1,.7,5.6" fill="#e4cdac"></path><path d="M21.3,77.6a3,3,0,0,1-4.8-3.7,2.9,2.9,0,0,1,4.2-.5,3,3,0,0,1,.6,4.2" fill="#e4cdac"></path><path d="M68.5,96.4a10.6,10.6,0,0,1-1.9.6V79.7a34.4,34.4,0,0,1,5.8.6,26.1,26.1,0,0,1,1.7-2.8,40.6,40.6,0,0,0-7.5-.9v-14H82.7a53.9,53.9,0,0,1-.5,7.1,21.1,21.1,0,0,1,3.3-1.8c.1-1.7.2-3.5.2-5.3h15.8c-.1.8-.1,1.5-.2,2.2l3,.4c.1-1.3.2-2.7.2-4.1A38.9,38.9,0,0,0,92.2,32.6l-.3-.3h-.1a39.5,39.5,0,0,0-53.4,0h-.1c-.1.1-.2.2-.2.3A37.2,37.2,0,0,0,32.6,39h3.7c.9-1.2,1.9-2.3,2.9-3.4a27.9,27.9,0,0,0,8.1,5.6,65.2,65.2,0,0,0-2.8,18.4H28.8c0-1.2.2-2.4.3-3.6h-3a43.6,43.6,0,0,0-.3,5.1,39.4,39.4,0,0,0,39.3,39.4l3.8-.2A25.8,25.8,0,0,1,68.5,96.4Zm33-36.8H85.7A69.1,69.1,0,0,0,83,41.2a27.1,27.1,0,0,0,8-5.6A36.3,36.3,0,0,1,101.5,59.6Zm-12.7-26A27,27,0,0,1,82,38.3a32,32,0,0,0-7.9-12.4A36.4,36.4,0,0,1,88.8,33.6ZM66.6,25.3c5.1.9,9.6,6.4,12.5,14.3A36.1,36.1,0,0,1,66.6,42Zm0,19.8a44.3,44.3,0,0,0,13.5-2.6,60.2,60.2,0,0,1,2.6,17.1H66.6ZM41.4,33.6a36.8,36.8,0,0,1,14.8-7.7C53,28.7,50.3,33,48.3,38.3A30.3,30.3,0,0,1,41.4,33.6Zm-12.6,29H44.5a68.9,68.9,0,0,0,2.6,17.9,31.7,31.7,0,0,0-8.2,5.8A36.6,36.6,0,0,1,28.8,62.6ZM41.1,88.4a29.9,29.9,0,0,1,7-4.9c2,5.5,4.8,10,8.1,12.9A36.7,36.7,0,0,1,41.1,88.4ZM63.6,97c-5.1-1-9.7-6.6-12.7-14.8a37.1,37.1,0,0,1,12.7-2.5Zm0-20.4A42,42,0,0,0,50,79.3a62.2,62.2,0,0,1-2.5-16.7H63.6Zm0-17H47.5a63.9,63.9,0,0,1,2.6-17.1,44.9,44.9,0,0,0,13.5,2.6Zm0-17.6a36.5,36.5,0,0,1-12.5-2.4c3-7.9,7.5-13.4,12.5-14.3Z" fill="#c1aa95"></path><path d="M111.1,29.3a1.2,1.2,0,0,1-1.2-1.3,9.6,9.6,0,0,0-9.6-9.5,1.3,1.3,0,0,1-1.2-1.2,1.3,1.3,0,0,1,1.2-1.3,9.6,9.6,0,0,0,9.6-9.5,1.2,1.2,0,1,1,2.4,0,9.6,9.6,0,0,0,9.6,9.5,1.2,1.2,0,0,1,1.2,1.3,1.2,1.2,0,0,1-1.2,1.2,9.6,9.6,0,0,0-9.6,9.5A1.2,1.2,0,0,1,111.1,29.3Zm-5.5-12a11.7,11.7,0,0,1,5.5,5.5,11.7,11.7,0,0,1,5.5-5.5,12.4,12.4,0,0,1-5.5-5.6A12.4,12.4,0,0,1,105.6,17.3Z" fill="#e4cdac"></path><path d="M98.9,122.6a27.4,27.4,0,1,1,27.5-27.4A27.4,27.4,0,0,1,98.9,122.6Zm0-51.8a24.4,24.4,0,1,0,24.5,24.4A24.5,24.5,0,0,0,98.9,70.8Z" fill="#c1aa95"></path></svg>