<svg xmlns="http://www.w3.org/2000/svg" viewBox="0 0 105.8 99.205"><title>presentational-ftp</title><circle cx="90.8" cy="56.102" r="10.1" fill="#cdf9e4"/><path d="M101.9,84.2A15.151,15.151,0,0,0,86.8,99.3a5.015,5.015,0,0,0,5,5h20.1a5.015,5.015,0,0,0,5-5A15,15,0,0,0,101.9,84.2Z" transform="translate(-11.1 -14.498)" fill="#cdf9e4"/><path d="M99.1,74.4a11.55,11.55,0,1,0-3.3,0,16.542,16.542,0,0,0-15,16.9,6.487,6.487,0,0,0,6.5,6.5h20.1a6.487,6.487,0,0,0,6.5-6.5v-.7A16.378,16.378,0,0,0,99.1,74.4ZM88.9,63a8.6,8.6,0,1,1,17.2,0h0a8.6,8.6,0,0,1-17.2,0Zm18.6,31.8H87.4a3.478,3.478,0,0,1-3.5-3.5,13.6,13.6,0,0,1,27.2,0A3.631,3.631,0,0,1,107.5,94.8Z" transform="translate(-11.1 -14.498)" fill="#3fc798"/><path d="M96.1,26.9H70.3a9.843,9.843,0,0,1-6-2L52.7,17.2a13.163,13.163,0,0,0-8.1-2.7H19.9a8.6,8.6,0,0,0-8.8,8.4V75.6A8.667,8.667,0,0,0,19.9,84H53.7v16.7H49.8a6.542,6.542,0,0,0-6.3,5H30.9a1.5,1.5,0,1,0,0,3H43.5a6.444,6.444,0,0,0,6.4,5H60.3a6.542,6.542,0,0,0,6.3-5H79.3a1.5,1.5,0,0,0,0-3H66.6a6.542,6.542,0,0,0-6.3-5H56.6V83.8H74.7a1.5,1.5,0,0,0,0-3H19.9a5.6,5.6,0,0,1-5.8-5.4V22.8a5.6,5.6,0,0,1,5.8-5.4H44.7a10.772,10.772,0,0,1,6.4,2.2l11.6,7.7a12.552,12.552,0,0,0,7.7,2.6H96.2a5.6,5.6,0,0,1,5.8,5.4v9.3a1.5,1.5,0,0,0,3,0V35.3A8.756,8.756,0,0,0,96.1,26.9ZM63.8,107a3.629,3.629,0,0,1-3.5,3.6H49.8a3.487,3.487,0,0,1-3.4-3.3v-.6a3.446,3.446,0,0,1,3.6-3.2H60.4A3.525,3.525,0,0,1,63.8,107Z" transform="translate(-11.1 -14.498)" fill="#3fc798"/></svg>