<svg xmlns="http://www.w3.org/2000/svg" viewBox="0 0 105.45 105.35"><title>presentational-domain-redirect</title><path d="M82.9,58.5,68.6,44.1a1.284,1.284,0,0,0-1-.4,1.473,1.473,0,0,0-1.5,1.5h0v6.1A19.666,19.666,0,0,0,47.9,72.5a18.88,18.88,0,0,0,2.7,8.6h0a1.429,1.429,0,0,0,1.9.5,1.344,1.344,0,0,0,.6-.7h0A20.76,20.76,0,0,1,66.2,68.3V74a1.538,1.538,0,0,0,1.5,1.5h0a1.528,1.528,0,0,0,1-.4L83,60.7A1.672,1.672,0,0,0,82.9,58.5Z" transform="translate(-11.25 -11.35)" fill="#e4f1c9"/><path d="M48.2,82.7a1.709,1.709,0,0,1-1.3-.7l-1.5-2.6A22.25,22.25,0,0,1,53.2,49a21.764,21.764,0,0,1,8.2-2.9V41a3.009,3.009,0,0,1,3-3,2.723,2.723,0,0,1,2.1.9L81.5,54a3.018,3.018,0,0,1,0,4.3l-15,15.1a2.878,2.878,0,0,1-2.1.9,3.009,3.009,0,0,1-3-3V67.4A20.042,20.042,0,0,0,50.6,78.9l-1,2.8a1.7,1.7,0,0,1-1.3,1ZM64.5,41h0v6.5A1.52,1.52,0,0,1,63.1,49,19.175,19.175,0,0,0,45.4,69.6a19.61,19.61,0,0,0,2.5,8.2A22.918,22.918,0,0,1,62.5,63.9a1.584,1.584,0,0,1,1.9,1c0,.1.1.3.1.4v6l15-15.1Zm-1.6,6.4Z" transform="translate(-11.25 -11.35)" fill="#96cb4c"/><path d="M116.3,99a21.192,21.192,0,0,0,.4-4.4,23.637,23.637,0,0,0-1.3-7.5h0a1.777,1.777,0,0,0-.4-1,22.071,22.071,0,1,0,1.1,13.7,1.2,1.2,0,0,0,.2-.8ZM95.7,113.6c-.4,0-.7.1-1.1.1a4.1,4.1,0,0,1-1.1-.1c-2.6-1.1-5.2-6-6.2-13h14.6C100.9,107.7,98.3,112.5,95.7,113.6ZM87,97.6c-.1-1-.1-2-.1-3a38.593,38.593,0,0,1,.4-6h14.6a38.593,38.593,0,0,1,.4,6c0,1,0,2-.1,3Zm-11.2.1a15.526,15.526,0,0,1-.3-3.1,19.857,19.857,0,0,1,1-6h8.2a56.635,56.635,0,0,0-.4,6c0,1,0,2,.1,3H76.3A.9.9,0,0,0,75.8,97.7ZM93.5,75.5c.4,0,.7-.1,1.1-.1a4.1,4.1,0,0,1,1.1.1c2.3.9,4.5,4.6,5.6,10H87.9C89.1,80.1,91.3,76.5,93.5,75.5Zm11.1,13.1h8.2a19.807,19.807,0,0,1,.9,6,15.263,15.263,0,0,1-.3,3h-8.5c.1-1,.1-2,.1-3A38.593,38.593,0,0,0,104.6,88.6Zm6.9-3h-7.4a27.17,27.17,0,0,0-3.6-9.2A18.622,18.622,0,0,1,111.5,85.6ZM88.8,76.4a25.257,25.257,0,0,0-3.6,9.2H77.8A18.622,18.622,0,0,1,88.8,76.4ZM76.5,100.6h8.2c.7,5.1,2.1,9.4,4.1,12.2A19.173,19.173,0,0,1,76.5,100.6Zm24,12.2c2-2.8,3.5-7.1,4.1-12.2h8.1A19.245,19.245,0,0,1,100.5,112.8Z" transform="translate(-11.25 -11.35)" fill="#96cb4c"/><path d="M63.4,115.7a8.625,8.625,0,0,1-6.1-2.5L13.8,69.6a8.571,8.571,0,0,1,0-12.2L57.3,13.9a8.571,8.571,0,0,1,12.2,0h0L113,57.4a8.571,8.571,0,0,1,0,12.2l-1.2,1.2a1.485,1.485,0,0,1-2.1-2.1l1.2-1.2a5.673,5.673,0,0,0,0-8L67.4,16a5.673,5.673,0,0,0-8,0h0L15.9,59.5a5.673,5.673,0,0,0,0,8L59.4,111a5.673,5.673,0,0,0,8,0l1.9-1.9a1.485,1.485,0,0,1,2.1,2.1l-1.9,1.9A8.317,8.317,0,0,1,63.4,115.7Z" transform="translate(-11.25 -11.35)" fill="#96cb4c"/></svg>