<svg xmlns="http://www.w3.org/2000/svg" viewBox="0 0 128 128"><path d="M20.8,0H41.9V52H30.7V9.9H20.8Z" fill="#f2a989"></path><path d="M112.6,115.1a1.2,1.2,0,0,1-1.2-1.2,9.6,9.6,0,0,0-9.5-9.6,1.2,1.2,0,1,1,0-2.4,9.6,9.6,0,0,0,9.5-9.6,1.2,1.2,0,0,1,1.2-1.2,1.2,1.2,0,0,1,1.3,1.2,9.5,9.5,0,0,0,9.5,9.6,1.2,1.2,0,0,1,0,2.4,9.5,9.5,0,0,0-9.5,9.6A1.2,1.2,0,0,1,112.6,115.1Zm-5.5-12a11.7,11.7,0,0,1,5.5,5.5,12.4,12.4,0,0,1,5.6-5.5,12.4,12.4,0,0,1-5.6-5.5A11.7,11.7,0,0,1,107.1,103.1Z" fill="#e4cdac"></path><path d="M90.7,93.1a24.7,24.7,0,0,0-1.9-9.4A23.4,23.4,0,0,0,45.4,95.8a23.2,23.2,0,0,0,9.7,19,23.8,23.8,0,0,0,11.2,2.7A24.4,24.4,0,0,0,90.7,93.1Z" fill="#edddc5"></path><path d="M66.3,120.5A27.4,27.4,0,1,1,93.7,93.1,27.5,27.5,0,0,1,66.3,120.5Zm0-51.8A24.4,24.4,0,1,0,90.7,93.1,24.5,24.5,0,0,0,66.3,68.7Z" fill="#c1aa95"></path><path d="M35.1,84.6c-12.6,0-18.9-6.6-18.9-19.5,0-6.1,3.6-11.6,9.8-15.3V46.4c-8.1,4.2-12.8,11.1-12.8,18.7,0,14.5,7.7,22.5,21.9,22.5a1.5,1.5,0,0,0,1.5-1.5A1.5,1.5,0,0,0,35.1,84.6Z" fill="#c1aa95"></path><path d="M103.4,49.9a18.7,18.7,0,0,0,.4-4c0-15.1-14.2-27.3-31.5-27.3A33.4,33.4,0,0,0,48,28.5v4.6l.4-.5c5.3-6.9,14.2-11,23.9-11,15.7,0,28.5,10.9,28.5,24.3a19.5,19.5,0,0,1-.6,4.7L99.9,52l1.4.4c9,2.2,15.1,8.5,15.1,15.7s-2.2,16.5-16.5,16.5a1.4,1.4,0,0,0-1.5,1.5,1.5,1.5,0,0,0,1.5,1.5c12.4,0,19.5-7.2,19.5-19.5C119.4,59.9,113,52.7,103.4,49.9Z" fill="#c1aa95"></path><path d="M40.9,119.4a6,6,0,1,1-11.3-4,6,6,0,0,1,11.3,4" fill="#e4cdac"></path><path d="M24.6,108.2a4.1,4.1,0,0,1-5.1,2.4,4,4,0,0,1-2.4-5.1,4,4,0,0,1,7.5,2.7" fill="#e4cdac"></path><path d="M118.6,35.2a4.1,4.1,0,0,1-5.1,2.4,4,4,0,0,1-2.4-5.1,4,4,0,1,1,7.5,2.7" fill="#e4cdac"></path><path d="M15.7,93.8a3,3,0,0,1-3.8,1.8,2.9,2.9,0,0,1-1.8-3.8,3,3,0,1,1,5.6,2" fill="#e4cdac"></path><path d="M66.3,82.3a4,4,0,0,1,3.9,3.9,3.9,3.9,0,0,1-3.9,3.9,3.8,3.8,0,0,1-3.9-3.9,3.9,3.9,0,0,1,3.9-3.9m0-3a6.9,6.9,0,1,0,6.9,6.9,6.9,6.9,0,0,0-6.9-6.9Z" fill="#c1aa95"></path><path d="M66.3,96.1a7.4,7.4,0,0,1,7.3,7.4.4.4,0,0,1-.4.4H59.4a.5.5,0,0,1-.5-.4,7.4,7.4,0,0,1,7.4-7.4m0-3a10.4,10.4,0,0,0-10.4,10.4h0a3.4,3.4,0,0,0,3.5,3.4H73.2a3.4,3.4,0,0,0,3.4-3.4h0A10.4,10.4,0,0,0,66.3,93.1Z" fill="#c1aa95"></path></svg>