<svg xmlns="http://www.w3.org/2000/svg" viewBox="0 0 103.826 103.8"><title>presentational-email-spam-expert</title><ellipse cx="57.3" cy="55.4" rx="14.7" ry="25.1" fill="#f5eac4"/><path d="M115.5,42,86,12.5a1.5,1.5,0,0,0-1.1-.4H43.1a2.1,2.1,0,0,0-1.1.4L12.5,42a1.5,1.5,0,0,0-.4,1.1V84.9a2.1,2.1,0,0,0,.4,1.1l16.9,16.9h0L42,115.5a1.5,1.5,0,0,0,1.1.4H84.9a2.1,2.1,0,0,0,1.1-.4L115.5,86a1.5,1.5,0,0,0,.4-1.1V43.1A1.19,1.19,0,0,0,115.5,42ZM15,43.7,43.7,15H84.3L99.7,30.4l-24,24a14.2,14.2,0,0,0-4.5-4.3A9.9,9.9,0,1,0,54.9,50a14.3,14.3,0,0,0-6.7,9.8L42,56.2V46.8a1.5,1.5,0,0,0-3,0V57.1a1.561,1.561,0,0,0,.8,1.3l8.3,4.7V66H37.9a1.425,1.425,0,0,0-1.2.6L31.5,73a1.613,1.613,0,0,0-.3.9,1.538,1.538,0,0,0,1.5,1.5,1.425,1.425,0,0,0,1.2-.6l4.7-5.9H48V73l-8.3,4.7a1.561,1.561,0,0,0-.8,1.3V89.3a1.29,1.29,0,0,0,.5,1.1l-9.1,9.1L15,84.3ZM77.8,59.9a26.808,26.808,0,0,0-.7-2.7l7-7v6.1ZM48.2,76.4a11.734,11.734,0,0,0,1.4,4.1L42,88.1V80ZM51,74V62.3A11.35,11.35,0,0,1,61.5,51V68.6l-9.7,9.7A12.169,12.169,0,0,1,51,74Zm7.1-34.4a6.821,6.821,0,0,1,9.7,0,6.9,6.9,0,0,1,.5,9.2,14.486,14.486,0,0,0-4.7-.8H62.2a14.961,14.961,0,0,0-4.7.8A7.136,7.136,0,0,1,58.1,39.6ZM64.5,51a11.455,11.455,0,0,1,9,5.6l-9,9Zm-3,21.8V85.3a11.424,11.424,0,0,1-8.2-4.4Zm3-3L74.7,59.6a12.413,12.413,0,0,1,.3,2.7V74A11.35,11.35,0,0,1,64.5,85.3ZM113,84.3,84.3,113H43.7L32.5,101.8,51.2,83.1a14.3,14.3,0,0,0,11.1,5.3h1.4A14.307,14.307,0,0,0,77.8,76.5L84,80.1v9.4a1.5,1.5,0,0,0,3,0V79.1a1.561,1.561,0,0,0-.8-1.3L78,73.1V69h9.4l4.7,5.9a1.425,1.425,0,0,0,1.2.6,1.4,1.4,0,0,0,.9-.3,1.458,1.458,0,0,0,.2-2.1l-5.2-6.4a1.041,1.041,0,0,0-1-.7H78V63.2l8.3-4.7a1.561,1.561,0,0,0,.8-1.3v-10l14.7-14.7L113,43.7Z" transform="translate(-12.1 -12.1)" fill="#eca03e"/></svg>