<svg xmlns="http://www.w3.org/2000/svg" viewBox="0 0 92.923 112.8"><title>presentational-ssh</title><path d="M35.4,61.5a2.1,2.1,0,0,1,.4-1.1,1.7,1.7,0,0,1,1-.6.908.908,0,0,1,.7.3,5.008,5.008,0,0,1,.8.7,4.129,4.129,0,0,0,1.1.7,4.013,4.013,0,0,0,1.5.3,3.83,3.83,0,0,0,1.9-.5,1.943,1.943,0,0,0,.8-1.6,2.01,2.01,0,0,0-.4-1.3,3.126,3.126,0,0,0-1.1-.9c-.5-.2-1-.5-1.5-.7s-1.1-.5-1.7-.8a13.029,13.029,0,0,1-1.5-1,3.269,3.269,0,0,1-1.1-1.5,5.222,5.222,0,0,1-.4-2.1,5.932,5.932,0,0,1,.5-2.3,3.389,3.389,0,0,1,1.4-1.5,6.391,6.391,0,0,1,1.9-.8,7.613,7.613,0,0,1,2.1-.3,5.7,5.7,0,0,1,1.3.1l1.5.3a3.1,3.1,0,0,1,1.3.6,1.231,1.231,0,0,1,.5,1,2.016,2.016,0,0,1-.3,1.1.961.961,0,0,1-.9.6,6.117,6.117,0,0,1-1.2-.5,5.45,5.45,0,0,0-2.2-.5,3.513,3.513,0,0,0-2,.5,1.723,1.723,0,0,0-.8,1.4,1.425,1.425,0,0,0,.6,1.2,2.851,2.851,0,0,0,1.4.8c.6.2,1.2.5,1.9.8A18.576,18.576,0,0,1,44.8,55a3.907,3.907,0,0,1,1.4,1.7,5.834,5.834,0,0,1,.6,2.6,4.483,4.483,0,0,1-1.6,3.8A6.368,6.368,0,0,1,41,64.4a8.6,8.6,0,0,1-3.9-.9C36,62.9,35.4,62.3,35.4,61.5Z" transform="translate(-17.498 -7.7)" fill="#343230"/><path d="M48.1,61.5a2.1,2.1,0,0,1,.4-1.1,1.7,1.7,0,0,1,1-.6.908.908,0,0,1,.7.3,5.008,5.008,0,0,1,.8.7,4.129,4.129,0,0,0,1.1.7,4.013,4.013,0,0,0,1.5.3,3.83,3.83,0,0,0,1.9-.5,1.943,1.943,0,0,0,.8-1.6,2.01,2.01,0,0,0-.4-1.3,3.126,3.126,0,0,0-1.1-.9c-.5-.2-1-.5-1.5-.7s-1.1-.5-1.7-.8a13.029,13.029,0,0,1-1.5-1A3.6,3.6,0,0,1,49,53.6a5.212,5.212,0,0,1,.1-4.4,3.389,3.389,0,0,1,1.4-1.5,6.391,6.391,0,0,1,1.9-.8,7.613,7.613,0,0,1,2.1-.3,5.7,5.7,0,0,1,1.3.1l1.5.3a3.1,3.1,0,0,1,1.3.6,1.231,1.231,0,0,1,.5,1,2.016,2.016,0,0,1-.3,1.1.961.961,0,0,1-.9.6,6.117,6.117,0,0,1-1.2-.5,5.45,5.45,0,0,0-2.2-.5,3.513,3.513,0,0,0-2,.5,1.513,1.513,0,0,0-.7,1.4,1.425,1.425,0,0,0,.6,1.2,2.851,2.851,0,0,0,1.4.8c.6.2,1.2.5,1.9.8a18.576,18.576,0,0,1,1.9,1.1A3.907,3.907,0,0,1,59,56.8a5.834,5.834,0,0,1,.6,2.6A4.483,4.483,0,0,1,58,63.2a6.368,6.368,0,0,1-4.2,1.3,8.6,8.6,0,0,1-3.9-.9C48.6,62.9,48.1,62.3,48.1,61.5Z" transform="translate(-17.498 -7.7)" fill="#343230"/><path d="M61.6,63.3V47.6a.752.752,0,0,1,.5-.7,2.8,2.8,0,0,1,2.2,0,.752.752,0,0,1,.5.7v6.3h5.4V47.6a.752.752,0,0,1,.5-.7,2.8,2.8,0,0,1,2.2,0,.752.752,0,0,1,.5.7V63.3a.752.752,0,0,1-.5.7,2.167,2.167,0,0,1-2.2,0,.752.752,0,0,1-.5-.7v-7H64.8v7a.752.752,0,0,1-.5.7,2.167,2.167,0,0,1-2.2,0A.752.752,0,0,1,61.6,63.3Z" transform="translate(-17.498 -7.7)" fill="#343230"/><path d="M108.8,90.9A15.585,15.585,0,0,0,80.9,77a15.462,15.462,0,0,0,0,13.9v.2l-7,14.2a11.161,11.161,0,0,0,.3,10.5L75,117a5.751,5.751,0,0,0,5.7,2.8l.9-.1A12.167,12.167,0,0,0,91,113l6.7-13.7a.1.1,0,0,1,.1-.1A14.91,14.91,0,0,0,108.8,90.9Z" transform="translate(-17.498 -7.7)" fill="#e2dbd5"/><path d="M71.9,120.3a1.709,1.709,0,0,1-1.3-.7L65,109.9a1.2,1.2,0,0,1,0-1.4l9.4-19a17.035,17.035,0,1,1,30.8.7h0a16.529,16.529,0,0,1-11.4,9l-1.1,2.2a1.765,1.765,0,0,1-.9.8l-2.8.9.9,2.8a1.376,1.376,0,0,1-.1,1.1l-1.4,2.8a1.765,1.765,0,0,1-.9.8l-2.8.9.9,2.8a1.376,1.376,0,0,1-.1,1.1l-1.4,2.8a1.482,1.482,0,0,1-1.2.8l-11.1,1.5C72,120.2,72,120.3,71.9,120.3ZM68,109l4.7,8.2L82,116l.7-1.5-1.2-3.6a1.528,1.528,0,0,1,.9-1.9l3.6-1.2.8-1.7-1.2-3.6a1.528,1.528,0,0,1,.9-1.9l3.6-1.2,1.1-2.3a1.548,1.548,0,0,1,1.1-.8,14.217,14.217,0,0,0,10-7.5h0A14.087,14.087,0,0,0,77.1,76.2a14.191,14.191,0,0,0,0,12.7,1.483,1.483,0,0,1,0,1.3Zm23.3-8.5Z" transform="translate(-17.498 -7.7)" fill="#343230"/><path d="M90.3,87.4a5.76,5.76,0,1,1,5.2-3.2h0A5.951,5.951,0,0,1,90.3,87.4Zm0-8.7a2.92,2.92,0,0,0-.9.2A2.846,2.846,0,1,0,93,80.7,2.882,2.882,0,0,0,90.3,78.7Zm3.9,4.8Z" transform="translate(-17.498 -7.7)" fill="#343230"/><path d="M91.5,33.3a2.118,2.118,0,0,0-.3-.7,8.008,8.008,0,0,0-1.5-2.1L70.1,10.3A8.317,8.317,0,0,0,64,7.7H26.4a9.289,9.289,0,0,0-8.9,9.4V90.6a9.161,9.161,0,0,0,8.9,9.4h39a1.453,1.453,0,0,0,1.4-1.5A1.538,1.538,0,0,0,65.3,97H26.4a6.215,6.215,0,0,1-5.9-6.4V17.1a6.153,6.153,0,0,1,5.9-6.4H64a7.719,7.719,0,0,1,1.5.2V25.7c0,6.5,2.9,9.4,9.5,9.4L88.9,35a6.753,6.753,0,0,1,.2,1.4V59.7a1.5,1.5,0,1,0,3,0V36.4A7.79,7.79,0,0,0,91.5,33.3Zm-23-7.6V12.9L86.9,32,75,32.1C70.1,32.1,68.5,30.5,68.5,25.7Z" transform="translate(-17.498 -7.7)" fill="#343230"/></svg>