<svg xmlns="http://www.w3.org/2000/svg" viewBox="0 0 96 96"><rect opacity="0" width="96" height="96" fill="#fff"/><path d="M21.889,91.884l46-4L76.992,70l17.4.382-6-55L24.722,18.921l-7.765,7.946Z" class="sgmaincolor"/><path d="M30.942,30.1c-.21-.447-1.037-.506-1.987-.2l-5.52-5.519-1.414,1.414,5.124,5.124c-.508.465-.756.96-.593,1.307.259.551,1.452.522,2.664-.065S31.2,30.649,30.942,30.1Z"/><path d="M89.144,14.449,28.285,17.83l1.62-1.62-3.158-3.158-2.27.87L13.829,6.448l-.5-1.734L12.538,2-.095,14.631l4.448,1.293,7.475,10.65-.871,2.269L14.116,32l1.936-1.936,4.781,63.02,47.259-4.11L95.313,71ZM14.116,29.172l-.826-.825.406-1.056.381-.994-.612-.872L5.99,14.775l-.4-.575L4.912,14l-1.2-.349L11.562,5.8,11.908,7l.2.678.577.405,10.648,7.474.871.612.994-.381,1.058-.406.826.826L25.291,18l-.043,0-9.4,9.4,0,.039Zm3.8-.973,8.248-8.248,61.2-3.4L93.084,69,76.129,69,67.352,87.031,22.675,90.916ZM91.682,71,70.605,84.919,77.379,71Z"/><path d="M58.769,68.584,52.3,69.15l-2.18-24.927-7.511,3.07-.46-5.258,13.069-6.013.694-.061Z"/></svg>