<svg xmlns="http://www.w3.org/2000/svg" viewBox="0 0 110.4 75.815"><title>presentational-email-authentication</title><path d="M86.5,74.3A14.732,14.732,0,1,0,62,64.5c0,.1,0,.1-.1.1l-11.1,10A10.742,10.742,0,0,0,47.4,84l.2,1.3a5.469,5.469,0,0,0,4,4.5l.8.2A11.461,11.461,0,0,0,63,87.4l10.7-9.6s.1-.1.1,0A14.722,14.722,0,0,0,86.5,74.3Z" transform="translate(-8.8 -26.093)" fill="#f5eac4"/><path d="M119.2,34.9a9.907,9.907,0,0,0-10.1-8.8H18.9A9.918,9.918,0,0,0,8.8,34.9V93.1a9.907,9.907,0,0,0,10.1,8.8h90.2a9.918,9.918,0,0,0,10.1-8.8V34.9Zm-3,57.6v.2a6.911,6.911,0,0,1-7.1,6.3H18.9a6.846,6.846,0,0,1-7.1-6.3V38.3L45.3,63.1a1.689,1.689,0,0,0,1,.3,2.1,2.1,0,0,0,1.4-.7,1.55,1.55,0,0,0-.4-2.3L13,35a2.016,2.016,0,0,0-1.1-.3,6.908,6.908,0,0,1,7-5.6h90.2a6.989,6.989,0,0,1,7,5.4c-.1,0-.2.1-.3.2l-23,17a1.425,1.425,0,0,0-.6,1.2,1.538,1.538,0,0,0,1.5,1.5,1.613,1.613,0,0,0,.9-.3l21.6-16Z" transform="translate(-8.8 -26.093)" fill="#eca03e"/><path d="M72.7,44.6A13.451,13.451,0,0,1,73,71.5h-.2a14.919,14.919,0,0,1-2.1-.2h-.5a3.227,3.227,0,0,0-2.1.8l-1.5,1.5-3.4-.1h0a3.009,3.009,0,0,0-3,3L60.1,80l-.6.6-3.4-.1h0a3.009,3.009,0,0,0-3,3L53,86.9l-.3.3-8.1-1.8L43,77.3l15.5-15a3.021,3.021,0,0,0,.9-2.5A13.425,13.425,0,0,1,71,44.7a10.284,10.284,0,0,1,1.7-.1h0m0-3A16.5,16.5,0,0,0,56.2,58a14.769,14.769,0,0,0,.1,2.1L39.8,76.3,41.9,88l11.6,2.5,2.4-2.3.1-4.7,4.7.1,2.4-2.3.1-4.7,4.7.1,2.4-2.4a22.752,22.752,0,0,0,2.6.2,16.024,16.024,0,0,0,11.4-4.6,16.541,16.541,0,0,0,.4-23.3A16.958,16.958,0,0,0,72.7,41.6Z" transform="translate(-8.8 -26.093)" fill="#eca03e"/><path d="M73.5,63.5h0a6.145,6.145,0,0,1-6.1-6.2A6.224,6.224,0,0,1,69.2,53a5.727,5.727,0,0,1,4.3-1.7,6.125,6.125,0,0,1,6,6.2,6.224,6.224,0,0,1-1.8,4.3h0A6.348,6.348,0,0,1,73.5,63.5Zm0-9.2a3.1,3.1,0,1,0,2.1,5.3h0a3.139,3.139,0,0,0,.1-4.4,2.792,2.792,0,0,0-2.2-.9Z" transform="translate(-8.8 -26.093)" fill="#eca03e"/></svg>