<svg xmlns="http://www.w3.org/2000/svg" viewBox="0 0 144 144"><g opacity="0"><rect width="144" height="144" fill="#fff"/></g><path d="M83.677,29.884H54.108L33.2,50.792V80.361l20.908,20.908H83.677l20.908-20.908V50.792Z" class="sgmaincolor"/><path d="M89.312,17.28a1,1,0,0,0-.708-.293H49.181a1,1,0,0,0-.707.293L20.6,45.157a1,1,0,0,0-.293.707V85.289A1,1,0,0,0,20.6,86l27.878,27.877a1,1,0,0,0,.707.293H88.6a1,1,0,0,0,.708-.293L117.189,86a1,1,0,0,0,.293-.707V45.864a1,1,0,0,0-.293-.707Zm26.17,67.6L88.19,112.166H49.6L22.3,84.875v-38.6L49.6,18.987h38.6l27.292,27.291Z"/><path d="M83.677,28.884H54.108a1,1,0,0,0-.707.293L32.493,50.085a1,1,0,0,0-.293.707V80.36a1,1,0,0,0,.293.707L53.4,101.976a1,1,0,0,0,.707.293H83.677a1,1,0,0,0,.707-.293l20.908-20.909a1,1,0,0,0,.293-.707V50.792a1,1,0,0,0-.293-.707L84.384,29.177A1,1,0,0,0,83.677,28.884ZM34.2,51.206,54.522,30.884H83.263l9.454,9.454L79.475,53.58l-3.668-3.669a1,1,0,0,0-.707-.293H75a7.206,7.206,0,1,0-12.21,0h-.1a1,1,0,0,0-.707.293l-6.208,6.208a1,1,0,0,0-.293.707v2.937L48.629,55.85V46.709a1,1,0,0,0-2,0V56.43a1,1,0,0,0,.5.868l8.345,4.768V65.15H45.2a1,1,0,0,0-.781.375L39.558,71.6a1,1,0,0,0,1.562,1.25l4.56-5.7h9.8v4.3l-8.345,4.768a1,1,0,0,0-.5.868v9.34L43.654,89.4,34.2,79.946ZM80.308,57.24V76.275L74.686,81.9H69.893V65.99l9.582-9.582ZM55.726,77.329l-7.1,7.1v-6.76l6.849-3.913v2.936A.988.988,0,0,0,55.726,77.329ZM65.2,49.464a5.208,5.208,0,1,1,7.392,0,.921.921,0,0,0-.1.155H65.3A.955.955,0,0,0,65.2,49.464Zm9.49,2.154,3.375,3.376-8.168,8.168V51.618Zm-6.793,0V65.162L57.478,75.577V57.24L63.1,51.618Zm0,16.372V81.9H63.1L58.543,77.34ZM82.015,56.119l-1.126-1.125,8.267-8.267V55.85l-6.848,3.913V56.826A1,1,0,0,0,82.015,56.119Zm21.57,23.827L83.263,100.269H54.522l-9.454-9.455,12.061-12.06,4.85,4.85a1,1,0,0,0,.707.293H75.1a1,1,0,0,0,.707-.293L82.015,77.4a1,1,0,0,0,.293-.708V73.753l6.848,3.913v9.14a1,1,0,0,0,2,0v-9.72a1,1,0,0,0-.5-.868L82.308,71.45v-4.3h9.8l4.56,5.7a1,1,0,0,0,1.563-1.25l-4.861-6.076a1,1,0,0,0-.781-.375H82.308V62.066L90.652,57.3a1,1,0,0,0,.5-.868V46.709a1,1,0,0,0-.985-1l3.96-3.96,9.454,9.454Z"/><path d="M118.861,15.8A8.139,8.139,0,1,0,127,23.936,8.148,8.148,0,0,0,118.861,15.8Zm0,14.277A6.139,6.139,0,1,1,125,23.936,6.146,6.146,0,0,1,118.861,30.074Z"/><path d="M31.707,110.165,15.79,113.844a1,1,0,0,0-.506,1.657l11.145,11.945a1,1,0,0,0,.731.318,1.025,1.025,0,0,0,.226-.026,1,1,0,0,0,.73-.682l4.773-15.624a1,1,0,0,0-1.182-1.267Zm-5,14.649L17.929,115.4l12.541-2.9Z"/></svg>