<svg xmlns="http://www.w3.org/2000/svg" viewBox="0 0 64 64"><path fill="#F0A99B" d="M47.7 61.7H24.2c-9 0-16.3-7.3-16.3-16.3V21.9c0-9 7.3-16.3 16.3-16.3h23.4c9 0 16.3 7.3 16.3 16.3v23.4c.1 9-7.2 16.4-16.2 16.4z"></path><path fill="#474340" d="M6.4 55.5c-2.3 0-4.2-1.9-4.2-4.2v-38H56v24.5h1.5l.1-31.9C57.7 2.6 55 0 51.8 0H6.4C3.2 0 .5 2.6.5 5.9v45.4c0 3.2 2.6 5.9 5.9 5.9h37.1v-1.6H6.4zM2.2 5.9c0-2.3 1.9-4.2 4.2-4.2h45.4c2.3 0 4.2 1.9 4.2 4.2v5.8H2.2V5.9z"></path><path fill="#474340" d="M7.9 5.8c-.2 0-.4.1-.6.2-.1.2-.2.4-.2.6s.1.4.2.6c.3.3.9.3 1.2 0 .2-.2.2-.4.2-.6s-.1-.4-.2-.5c-.2-.2-.4-.3-.6-.3zM13.8 5.8c-.2 0-.4.1-.6.2-.2.2-.2.4-.2.6s.1.4.2.6c.3.3.9.3 1.2 0 .2-.2.2-.4.2-.6s-.1-.4-.2-.6c-.2-.1-.4-.2-.6-.2zM19.6 5.8c-.2 0-.4.1-.6.2-.2.2-.2.4-.2.6 0 .2.1.4.2.6.3.3.9.3 1.2 0 .2-.2.2-.4.2-.6s-.1-.4-.2-.6c-.1-.1-.4-.2-.6-.2zM9 17.6c-1.5 0-2.7 1.2-2.7 2.7v27.3c0 1.5 1.2 2.7 2.7 2.7h19.8c1.5 0 2.7-1.2 2.7-2.7V20.3c0-1.5-1.2-2.7-2.7-2.7H9zm20.8 2.7v27.3c0 .6-.5 1-1 1H9c-.6 0-1-.5-1-1V20.3c0-.6.5-1 1-1h19.8c.6 0 1 .5 1 1zM51.8 20.3c0-1.5-1.2-2.7-2.6-2.7H37c-1.4 0-2.6 1.2-2.6 2.7v4.8c0 1.5 1.2 2.7 2.6 2.7h12.2c1.4 0 2.6-1.2 2.6-2.7v-4.8zm-1.6 4.9c0 .6-.4 1-.9 1H37c-.5 0-.9-.5-.9-1v-4.8c0-.6.4-1 .9-1h12.2c.5 0 .9.5.9 1v4.8zM37 32.4h12.2c.5 0 .9.4.9.9l.1 4.5h1.6v-4.5c0-1.4-1.2-2.6-2.6-2.6H37c-1.4 0-2.6 1.2-2.6 2.6v14.4c0 1.4 1 2.5 2.4 2.6-.4-.6-.8-1.4-.7-2.1V33.4c0-.6.4-1 .9-1z"></path><path fill="#474340" d="M54.2 49.1l6.7-6.7c.3-.3.3-.8 0-1.1-.3-.3-.8-.3-1.1 0L53 48l-6.7-6.7c-.3-.3-.8-.3-1.1 0-.3.3-.3.8 0 1.1l6.7 6.7-6.7 6.7c-.3.3-.3.8 0 1.1.2.2.4.2.6.2s.4-.1.6-.2l6.7-6.7 6.7 6.7c.2.2.4.2.6.2s.4-.1.6-.2c.3-.3.3-.8 0-1.1l-6.8-6.7z"></path></svg>