<svg xmlns="http://www.w3.org/2000/svg" viewBox="0 0 144 144"><g opacity="0"><rect width="144" height="144" fill="#fff"/></g><path d="M73.54,32.947l4.74-2.483-2.934-8.576-5.191.677c-.9-1.354-2.257-2.708-3.385-4.062l1.354-5.191L60,9.25,56.84,13.538a40.252,40.252,0,0,0-5.191-.451L49.166,8.573,40.59,11.507l.677,5.19a29.4,29.4,0,0,0-4.062,3.386l-5.191-1.354-4.062,8.124,4.288,3.16a21.105,21.105,0,0,0-.451,5.191l-4.514,2.482,2.934,8.576,5.19-.677a29.412,29.412,0,0,0,3.386,4.063l-1.354,5.19L45.555,58.9l3.16-4.288a20.222,20.222,0,0,0,5.191.451l2.482,4.514,8.576-2.934-.677-5.191c1.354-.9,2.708-2.257,4.063-3.385l5.19,1.354L77.6,41.3l-4.288-3.159A20.058,20.058,0,0,0,73.54,32.947ZM52.777,42.259a8.184,8.184,0,1,1,8.184-8.184A8.184,8.184,0,0,1,52.777,42.259Z" class="sgmaincolor"/><path d="M127.543,89.359l6.824-3.574-4.224-12.348-7.474.975c-1.3-1.95-3.25-3.9-4.874-5.85l1.949-7.473-11.7-5.85L103.5,61.414a58,58,0,0,0-7.474-.65l-3.574-6.5L80.1,58.489l.975,7.474c-2.274,1.3-3.9,3.249-5.849,4.874l-7.474-1.95L61.9,80.586l6.174,4.549a30.362,30.362,0,0,0-.65,7.474l-6.5,3.574,4.225,12.348,7.473-.974c1.3,2.274,3.25,3.9,4.875,5.849l-1.95,7.474,11.7,5.849,4.55-6.174a29.128,29.128,0,0,0,7.473.649l3.575,6.5,12.348-4.225-.975-7.474c1.95-1.3,3.9-3.249,5.849-4.874l7.474,1.95,5.849-11.7-6.174-4.55A28.847,28.847,0,0,0,127.543,89.359Zm-29.9,13.409a11.784,11.784,0,1,1,11.783-11.784A11.784,11.784,0,0,1,97.648,102.768Z" class="sgmaincolor"/><path d="M16.9,89.665a1,1,0,0,0,1-.116L36.454,75.712a1,1,0,0,0-.207-1.722l-21.13-8.978a1,1,0,0,0-1.384,1.032L16.3,88.858A1,1,0,0,0,16.9,89.665ZM33.862,75.149,18.093,86.9,15.912,67.521Z"/><path d="M98.47,47.018l.18,0a6.947,6.947,0,1,0-.18,0ZM95.222,36.443a4.942,4.942,0,0,1,3.422-1.368l.13,0a4.971,4.971,0,1,1-3.552,1.366Z"/><path d="M52.777,24.892a9.184,9.184,0,1,0,9.184,9.183A9.194,9.194,0,0,0,52.777,24.892Zm0,16.368a7.184,7.184,0,1,1,7.184-7.185A7.193,7.193,0,0,1,52.777,41.26Z"/><path d="M65.955,56.515l-.6-4.592c.784-.578,1.553-1.263,2.3-1.93.314-.278.627-.556.94-.827l4.687,1.224a1,1,0,0,0,1.148-.521L78.5,41.744a1,1,0,0,0-.3-1.252L74.38,37.681a20.992,20.992,0,0,0,.221-4.16l4.142-2.171a1,1,0,0,0,.483-1.209l-2.934-8.576a1,1,0,0,0-1.075-.668l-4.592.6c-.578-.784-1.264-1.554-1.93-2.3-.278-.313-.556-.627-.827-.939l1.224-4.688a1,1,0,0,0-.521-1.147L60.446,8.355a1,1,0,0,0-1.252.3l-2.811,3.816a40.556,40.556,0,0,0-4.139-.378l-2.2-4a1,1,0,0,0-1.2-.465l-8.576,2.934a1,1,0,0,0-.668,1.076l.593,4.551a18.579,18.579,0,0,0-2.372,1.991c-.287.27-.575.542-.87.8l-4.683-1.222a1,1,0,0,0-1.148.52l-4.061,8.125a1,1,0,0,0,.3,1.252l3.763,2.774a21.728,21.728,0,0,0-.333,4.18l-4,2.2a1,1,0,0,0-.465,1.2l2.935,8.576a.993.993,0,0,0,1.076.667l4.552-.594a18.355,18.355,0,0,0,1.99,2.372c.27.287.542.575.8.87l-1.223,4.684a1,1,0,0,0,.52,1.147L45.108,59.8a1,1,0,0,0,1.252-.3l2.773-3.762a20.805,20.805,0,0,0,4.181.332l2.2,4a1,1,0,0,0,1.2.464l8.576-2.934A1,1,0,0,0,65.955,56.515Zm-9.1,1.845-2.078-3.777a1,1,0,0,0-.876-.519,19.417,19.417,0,0,1-4.947-.421.964.964,0,0,0-.243-.031,1,1,0,0,0-.805.408l-2.66,3.61L38.6,54.307l1.15-4.407a1,1,0,0,0-.2-.893c-.388-.466-.8-.906-1.216-1.346a13.923,13.923,0,0,1-2.069-2.572,1,1,0,0,0-1-.495l-4.379.571-2.4-7.007L32.27,36.08a1,1,0,0,0,.518-.876,20.246,20.246,0,0,1,.422-4.948,1,1,0,0,0-.377-1.048l-3.61-2.66L32.546,19.9l4.406,1.151a1,1,0,0,0,.894-.2c.466-.388.906-.8,1.345-1.216a14.009,14.009,0,0,1,2.573-2.07,1,1,0,0,0,.495-1l-.571-4.379,7.006-2.4,2.079,3.777a1,1,0,0,0,.876.519,34.786,34.786,0,0,1,4.525.375l.542.068a.993.993,0,0,0,.929-.4l2.66-3.61,6.647,3.324-1.15,4.4a1.006,1.006,0,0,0,.2.894c.383.459.791.918,1.2,1.377a25.618,25.618,0,0,1,2.122,2.6,1,1,0,0,0,.961.437l4.38-.571,2.392,6.991-3.98,2.085a1,1,0,0,0-.528,1.009,18.047,18.047,0,0,1-.188,4.641l-.038.3a1,1,0,0,0,.4.928l3.61,2.661L73.008,48.25,68.6,47.1a1,1,0,0,0-.894.2c-.459.384-.919.792-1.378,1.2a25.476,25.476,0,0,1-2.6,2.122,1,1,0,0,0-.437.961l.57,4.38Z"/><path d="M97.648,78.2a12.784,12.784,0,1,0,12.784,12.784A12.8,12.8,0,0,0,97.648,78.2Zm0,23.568a10.784,10.784,0,1,1,10.784-10.784A10.8,10.8,0,0,1,97.648,101.768Z"/><path d="M135.314,85.462l-4.225-12.349a.994.994,0,0,0-1.076-.668l-6.869.9a45.016,45.016,0,0,0-2.9-3.488c-.456-.513-.913-1.027-1.35-1.541l1.818-6.972a1,1,0,0,0-.521-1.147l-11.7-5.849a1,1,0,0,0-1.252.3l-4.2,5.7-.194-.025a56.689,56.689,0,0,0-6.229-.554l-3.293-5.987a1,1,0,0,0-1.2-.465L79.777,57.543a1,1,0,0,0-.668,1.075L80,65.446a25.012,25.012,0,0,0-3.581,2.966c-.49.461-.96.9-1.444,1.325L68,67.92a1,1,0,0,0-1.146.52l-5.849,11.7a1,1,0,0,0,.3,1.252l5.644,4.159a31.02,31.02,0,0,0-.528,6.467l-5.982,3.291a1,1,0,0,0-.463,1.2l4.224,12.347a1,1,0,0,0,1.075.668l6.828-.889a25.13,25.13,0,0,0,2.965,3.58c.463.491.905.96,1.327,1.445l-1.818,6.969a1,1,0,0,0,.521,1.147l11.7,5.849a1,1,0,0,0,1.252-.3l4.16-5.643a29.591,29.591,0,0,0,6.467.526l3.29,5.981a1,1,0,0,0,.876.518.982.982,0,0,0,.323-.054l12.349-4.224a1,1,0,0,0,.668-1.076l-.9-6.87a44.7,44.7,0,0,0,3.494-2.9c.511-.455,1.023-.909,1.534-1.346l6.972,1.82a1,1,0,0,0,1.148-.521l5.849-11.7a1,1,0,0,0-.3-1.252l-5.7-4.2a29.718,29.718,0,0,0,.325-6.445l6.223-3.26A1,1,0,0,0,135.314,85.462Zm-8.235,3.012a1,1,0,0,0-.528,1.009,26.2,26.2,0,0,1-.271,6.791l-.054.435a1,1,0,0,0,.4.929l5.5,4.05-5.111,10.221-6.689-1.746a1.006,1.006,0,0,0-.893.2c-.657.549-1.316,1.133-1.974,1.718a37.2,37.2,0,0,1-3.79,3.093,1,1,0,0,0-.436.962l.869,6.662-10.78,3.688-3.169-5.762a1,1,0,0,0-.876-.519,28.322,28.322,0,0,1-7.232-.619.955.955,0,0,0-.242-.03,1,1,0,0,0-.805.407l-4.051,5.5-10.22-5.11,1.746-6.689a1,1,0,0,0-.2-.893c-.562-.673-1.161-1.309-1.739-1.924a20.4,20.4,0,0,1-3.037-3.781,1,1,0,0,0-1-.5l-6.663.869L62.146,96.655l5.763-3.171a1,1,0,0,0,.518-.876,29.527,29.527,0,0,1,.62-7.23,1,1,0,0,0-.377-1.048l-5.5-4.05,5.11-10.22,6.69,1.745a1,1,0,0,0,.892-.2c.673-.561,1.308-1.159,1.923-1.737a20.406,20.406,0,0,1,3.782-3.037,1,1,0,0,0,.5-1L81.2,59.171l10.779-3.689,3.17,5.763a1,1,0,0,0,.876.519,50.306,50.306,0,0,1,6.571.544l.779.1a1.006,1.006,0,0,0,.929-.4l4.05-5.5,10.22,5.111-1.745,6.69a1,1,0,0,0,.2.891c.55.66,1.136,1.32,1.723,1.981a37.216,37.216,0,0,1,3.088,3.784,1,1,0,0,0,.962.436l6.662-.869L133.144,85.3Z"/><path d="M19.483,105.911a1,1,0,0,0,1.4.194l29.051-21.96a1,1,0,0,0-1.207-1.6L19.677,104.51A1,1,0,0,0,19.483,105.911Z"/><path d="M49.519,96.519l-38.47,27.312a1,1,0,0,0,1.158,1.631l38.47-27.313a1,1,0,0,0-1.158-1.63Z"/></svg>