<svg xmlns="http://www.w3.org/2000/svg" viewBox="0 0 115.9 74.811"><title>presentational-traffic-statistics</title><path d="M46,101.4V82.2a3.372,3.372,0,0,0-3.4-3.4h-7A3.222,3.222,0,0,0,32.4,82h0v19.4Z" transform="translate(-6 -26.589)" fill="#f2e7d6"/><path d="M66.4,101.4V70.9A3.372,3.372,0,0,0,63,67.5H56a3.222,3.222,0,0,0-3.2,3.2h0v30.7Z" transform="translate(-6 -26.589)" fill="#f2e7d6"/><path d="M86.7,101.4V82.2a3.372,3.372,0,0,0-3.4-3.4h-7A3.222,3.222,0,0,0,73.1,82h0v19.4Z" transform="translate(-6 -26.589)" fill="#f2e7d6"/><path d="M107,101.4V59.6a3.372,3.372,0,0,0-3.4-3.4h-7a3.222,3.222,0,0,0-3.2,3.2h0v42Z" transform="translate(-6 -26.589)" fill="#f2e7d6"/><path d="M111.3,27.6l-8.5-1h0a1.458,1.458,0,1,0-.3,2.9l4.8.6L73.8,53.8,57.7,44.1a1.583,1.583,0,0,0-1.5-.1l-40,20.4a1.561,1.561,0,0,0-.8,1.3,1.538,1.538,0,0,0,1.5,1.5,1.854,1.854,0,0,0,.7-.2L57,47l16.2,9.7a1.347,1.347,0,0,0,1.6-.1l34.5-24.4-.6,4.9a1.553,1.553,0,0,0,1.3,1.7h.2a1.514,1.514,0,0,0,1.5-1.3l1-8.3h0A1.537,1.537,0,0,0,111.3,27.6Z" transform="translate(-6 -26.589)" fill="#c0a26d"/><path d="M120.5,95.9H104.2V55.6a4.908,4.908,0,0,0-4.9-4.9h-7a4.7,4.7,0,0,0-4.7,4.7V95.9H83.8V78.2a4.908,4.908,0,0,0-4.9-4.9h-7A4.7,4.7,0,0,0,67.2,78V95.9H63.4v-29A4.908,4.908,0,0,0,58.5,62h-7a4.7,4.7,0,0,0-4.7,4.7V95.9H43V78.2a4.908,4.908,0,0,0-4.9-4.9h-7A4.7,4.7,0,0,0,26.4,78V95.9H7.5a1.5,1.5,0,0,0,0,3H120.4a1.538,1.538,0,0,0,1.5-1.5A1.453,1.453,0,0,0,120.5,95.9ZM90.6,55.4a1.685,1.685,0,0,1,1.7-1.7h7a1.9,1.9,0,0,1,1.9,1.9V95.9H90.6ZM70.3,78A1.685,1.685,0,0,1,72,76.3h7a1.9,1.9,0,0,1,1.9,1.9V95.9H70.3ZM50,66.7A1.685,1.685,0,0,1,51.7,65h7a1.9,1.9,0,0,1,1.9,1.9v29H50ZM29.6,78a1.685,1.685,0,0,1,1.7-1.7h7a1.9,1.9,0,0,1,1.9,1.9V95.9H29.6Z" transform="translate(-6 -26.589)" fill="#c0a26d"/></svg>