<svg xmlns="http://www.w3.org/2000/svg" viewBox="0 0 122.7 105.1"><title>presentational-subdomain</title><circle cx="100.2" cy="82.6" r="22.5" fill="#e4f1c9"/><path d="M98.8,112.8a24,24,0,1,1,24-24h0A24.07,24.07,0,0,1,98.8,112.8Zm0-44.9a21,21,0,1,0,21,21h0A21.127,21.127,0,0,0,98.8,67.9Z" transform="translate(-2.7 -11.5)" fill="#96cb4c"/><path d="M82.1,94.1a1.086,1.086,0,0,1,.4-.9,1.02,1.02,0,0,1,.8-.5.864.864,0,0,1,.6.3l.6.6.9.6a2.768,2.768,0,0,0,1.3.3,2.934,2.934,0,0,0,1.6-.4,1.371,1.371,0,0,0,.6-1.3,1.5,1.5,0,0,0-.4-1.1,3.45,3.45,0,0,0-.9-.8c-.4-.2-.8-.4-1.3-.6a17.571,17.571,0,0,1-2.7-1.5,2.73,2.73,0,0,1-.9-1.2,4.128,4.128,0,0,1,.1-3.6A3.745,3.745,0,0,1,84,82.7a7.741,7.741,0,0,1,1.6-.7,11.019,11.019,0,0,1,1.8-.2,4.1,4.1,0,0,1,1.1.1c.4.1.8.1,1.2.2a3.7,3.7,0,0,1,1.1.5.909.909,0,0,1,.4.8,1.4,1.4,0,0,1-.3.9.792.792,0,0,1-.8.5,4.179,4.179,0,0,1-1-.4,3.922,3.922,0,0,0-1.8-.4,3.287,3.287,0,0,0-1.7.4,1.255,1.255,0,0,0-.6,1.1,1.231,1.231,0,0,0,.5,1,7.459,7.459,0,0,0,1.2.7c.5.2,1,.4,1.6.7.5.3,1.1.6,1.6.9a4.071,4.071,0,0,1,1.2,1.4,5.45,5.45,0,0,1,.5,2.2,3.894,3.894,0,0,1-1.3,3.2,4.908,4.908,0,0,1-3.5,1.1,6.448,6.448,0,0,1-3.3-.8C82.5,95.3,82.1,94.7,82.1,94.1Z" transform="translate(-2.7 -11.5)" fill="#96cb4c"/><path d="M93.3,91.9V82.4a.548.548,0,0,1,.4-.6,2.118,2.118,0,0,1,1.9,0,.675.675,0,0,1,.4.6v9.5c0,1.5.7,2.3,2.2,2.3s2.2-.8,2.2-2.3V82.4a.548.548,0,0,1,.4-.6,2.118,2.118,0,0,1,1.9,0,.675.675,0,0,1,.4.6v9.5a4.517,4.517,0,0,1-1.3,3.5,6.007,6.007,0,0,1-7,0A4.069,4.069,0,0,1,93.3,91.9Z" transform="translate(-2.7 -11.5)" fill="#96cb4c"/><path d="M105.3,95.6V82.5a.713.713,0,0,1,.3-.6,1.077,1.077,0,0,1,.8-.2h3.9c2.7,0,4.1,1.2,4.1,3.6a3.2,3.2,0,0,1-1.7,3.2,3.553,3.553,0,0,1,1.6,1.1,3.287,3.287,0,0,1,.5,2.2v.4a4.429,4.429,0,0,1-1.1,3.3,3.971,3.971,0,0,1-2.9,1h-4.3a1.884,1.884,0,0,1-.8-.2C105.5,96,105.3,95.8,105.3,95.6Zm2.6-8.2h2.3a1.457,1.457,0,0,0,1.2-.5,2.01,2.01,0,0,0,.4-1.3,1.594,1.594,0,0,0-.4-1.2,1.845,1.845,0,0,0-1.2-.5H108Zm0,6.7h2.3c1.3,0,2-.7,2-2.2v-.3a1.845,1.845,0,0,0-.5-1.6,1.964,1.964,0,0,0-1.5-.5h-2.3Z" transform="translate(-2.7 -11.5)" fill="#96cb4c"/><path d="M81.1,24.1l-.2-.2h0a46.465,46.465,0,0,0-63.2,0h0c-.1.1-.2.1-.2.2A45.825,45.825,0,0,0,2.7,58a46.476,46.476,0,0,0,46.5,46.5,45.441,45.441,0,0,0,19.5-4.3,1.5,1.5,0,0,0-1.3-2.7,45.678,45.678,0,0,1-8.8,3C63.1,97,66.8,91,69.5,83.2c.1-.2.2-.6.5-1.5q1.05-3.45,1.8-7.2a68.1,68.1,0,0,0,1.7-14.9H94.1a1.538,1.538,0,0,0,1.5-1.5A46.375,46.375,0,0,0,81.1,24.1ZM92.6,56.5H73.5a92.048,92.048,0,0,0-2.2-17.3c-.4-1.7-.9-3.4-1.4-5a37.984,37.984,0,0,0,10-6.9A42.948,42.948,0,0,1,92.6,56.5ZM31.9,82.8a44.531,44.531,0,0,1,15.8-3.2v21.2C41.4,99.9,35.6,93.1,31.9,82.8Zm7.8,17.6a42.8,42.8,0,0,1-19.5-10,29.292,29.292,0,0,1,6.5-5.1c.8-.5,1.6-.9,2.4-1.3C31.8,91.4,35.5,97,39.7,100.4Zm8-23.7A47.471,47.471,0,0,0,31,80c-.5-1.6-.9-3.2-1.3-5A89.671,89.671,0,0,1,28,59.5H47.7ZM28,56.5a102.934,102.934,0,0,1,1.9-16.6l1.2-4.5a49.8,49.8,0,0,0,16.5,3.2V56.5ZM50.7,15c6.2.9,11.9,7.4,15.6,17.5a46.769,46.769,0,0,1-15.6,3.1Zm8,.6a43.409,43.409,0,0,1,19.1,9.7A33.175,33.175,0,0,1,69,31.4C66.4,24.3,62.8,18.9,58.7,15.6Zm-11-.5V35.6a44.4,44.4,0,0,1-15.6-3.1C35.8,22.4,41.5,16,47.7,15.1ZM29.4,31.3a35.017,35.017,0,0,1-8.7-6,43.587,43.587,0,0,1,19-9.7C35.6,18.9,32,24.3,29.4,31.3Zm21.3,7.3a48.753,48.753,0,0,0,16.5-3.2q.6,2.1,1.2,4.5a91.936,91.936,0,0,1,2.1,16.6H50.7ZM18.4,27.3a34.82,34.82,0,0,0,9.9,6.9c-.5,1.6-1,3.3-1.4,5a110.544,110.544,0,0,0-2,17.2H5.8A43.261,43.261,0,0,1,18.4,27.3ZM5.8,59.5H25a87.243,87.243,0,0,0,1.8,16.1c.4,1.9.9,3.8,1.4,5.5a34.262,34.262,0,0,0-10.1,7.2A42.9,42.9,0,0,1,5.8,59.5Zm44.9,41.4V79.7a45.437,45.437,0,0,1,15.8,3.2C62.8,93.2,57,99.9,50.7,100.9ZM68.9,73.6v.1c-.4,2.2-1,4.3-1.5,6.3a47.741,47.741,0,0,0-16.7-3.3V59.5H70.6A67.1,67.1,0,0,1,68.9,73.6Z" transform="translate(-2.7 -11.5)" fill="#96cb4c"/></svg>