<svg xmlns="http://www.w3.org/2000/svg" viewBox="0 0 104.09 118.863"><title>presentational-email-filter</title><path d="M74.1,114.2a15.714,15.714,0,0,1,3.6-10L92.3,86.5a2.254,2.254,0,0,0-.4-3.2,2.947,2.947,0,0,0-1.3-.5H48.3a2.4,2.4,0,0,0-2.2,2.4,2.106,2.106,0,0,0,.5,1.3l14.6,17.7a15.92,15.92,0,0,1,3.6,10v7a2.138,2.138,0,0,0,2,2.3,2.1,2.1,0,0,0,1.5-.5l5-3.3a2.342,2.342,0,0,0,.8-1.8Z" transform="translate(-11.874 -4.637)" fill="#f5eac4"/><path d="M87.4,79.7a.9.9,0,0,1,.9.9.764.764,0,0,1-.2.5L67.9,104.5v11a.713.713,0,0,1-.3.6l-5.4,3.4-.1.1a.764.764,0,0,1-.5.2.6.6,0,0,1-.4-.1.792.792,0,0,1-.5-.8V104.5L40.5,81.1a.83.83,0,0,1,.2-1.2c.2-.1.3-.2.5-.2H87.4M68.5,117.3h0M87.4,76.7H41.1a3.9,3.9,0,0,0-3.9,3.9A4.069,4.069,0,0,0,38,83v.1l.1.1,19.4,22.5V119a3.838,3.838,0,0,0,2.2,3.5,3.287,3.287,0,0,0,1.7.4,4.006,4.006,0,0,0,2.3-.8h0l4.6-2.9v0l.7-.4.2-.1.2-.2a3.888,3.888,0,0,0,1.3-2.8v-9.9L90.1,83.3l.1-.1v-.1a3.833,3.833,0,0,0-.7-5.4,2.393,2.393,0,0,0-2.1-1Z" transform="translate(-11.874 -4.637)" fill="#eca03e"/><path d="M114.3,35.9,93.5,15.2a6.251,6.251,0,0,0-8.7.2L49.6,50.7a6.156,6.156,0,0,0-.2,8.7L63.2,73.2a1.5,1.5,0,0,0,1.1.4,2.1,2.1,0,0,0,1.1-.4,1.45,1.45,0,0,0,0-2.1L52,57.7l30.7-4.3h.2a6.209,6.209,0,0,0,4.3-4.3v-.2l4.5-31.3L112.2,38a2.456,2.456,0,0,1,.8,2.1,3.255,3.255,0,0,1-1,2.3L83.8,70.7a1.485,1.485,0,1,0,2.1,2.1l28.2-28.2A6.249,6.249,0,0,0,114.3,35.9Zm-30,12.5a3.155,3.155,0,0,1-2.1,2.1L50.8,54.9a3.456,3.456,0,0,1,1-2.1L87,17.5a3.521,3.521,0,0,1,1.9-1Z" transform="translate(-11.874 -4.637)" fill="#eca03e"/><path d="M54.7,28.2,32.5,6a4.436,4.436,0,0,0-6.3-.1l-13.1,13a4.4,4.4,0,0,0,.1,6.2L35.4,47.3a4.48,4.48,0,0,0,3.2,1.4,4.234,4.234,0,0,0,3-1.2l13.1-13A4.269,4.269,0,0,0,54.7,28.2Zm-2.1,2.1c.1,0,.1.1.1.2L34,27.9a1.352,1.352,0,0,1-.9-.9L30.2,7.9c.1.1.2.1.2.2ZM39.7,45.4a1.418,1.418,0,0,1-2-.1L15.5,23a1.418,1.418,0,0,1-.1-2l12-12,2.8,18.5v.2a4.41,4.41,0,0,0,3.1,3.1h.2l18.3,2.5Z" transform="translate(-11.874 -4.637)" fill="#eca03e"/></svg>