<svg xmlns="http://www.w3.org/2000/svg" width="241.131" height="216.619" viewBox="0 0 241.131 216.619"><g id="illustration-v1" transform="translate(-102.97 -68.084)"><rect id="Rectangle_9" data-name="Rectangle 9" width="129.262" height="20.765" transform="translate(196.888 151.059)" fill="#e4f5fa"/><rect id="Rectangle_10" data-name="Rectangle 10" width="129.262" height="47.344" transform="translate(196.888 196.741)" fill="#e4f5fa"/><g id="presentational-banner-promo-materials"><g id="Group_11" data-name="Group 11"><g id="Group_10" data-name="Group 10"><rect id="Rectangle_11" data-name="Rectangle 11" width="129.017" height="24.31" transform="translate(197.132 172.062)" fill="none" stroke="#226d7a" stroke-linecap="round" stroke-linejoin="round" stroke-width="2.003"/><path id="Path_19" data-name="Path 19" d="M304.991,118.174l6.806,12.344-14.7.224Z" fill="none" stroke="#226d7a" stroke-linecap="round" stroke-linejoin="round" stroke-width="2.003"/><path id="Path_20" data-name="Path 20" d="M211.781,162.144a3.353,3.353,0,1,1-3.353-3.34,3.348,3.348,0,0,1,3.353,3.34" fill="#226d7a"/><path id="Path_21" data-name="Path 21" d="M221.838,162.144a3.353,3.353,0,1,1-3.353-3.34,3.347,3.347,0,0,1,3.353,3.34" fill="#226d7a"/><path id="Path_22" data-name="Path 22" d="M231.9,162.144a3.353,3.353,0,1,1-3.352-3.34,3.347,3.347,0,0,1,3.352,3.34" fill="#226d7a"/><path id="Path_23" data-name="Path 23" d="M237.751,243.835H197.132l-.023-92.783,129.04.172v92.611H234.327" fill="none" stroke="#226d7a" stroke-linecap="round" stroke-linejoin="round" stroke-width="2.003"/><g id="Group_9" data-name="Group 9"><path id="Path_24" data-name="Path 24" d="M291.958,200.79l27.895,27.783L343.1,205.421l-27.9-27.783H291.958ZM308.335,185.8c5.263,5.092-2.885,13.208-8,7.965C295.075,188.673,303.224,180.556,308.335,185.8Z" fill="#f8eae0" stroke="#226d7a" stroke-miterlimit="10" stroke-width="1.001"/><path id="Path_25" data-name="Path 25" d="M291.958,200.79l27.895,27.783L343.1,205.421l-27.9-27.783H291.958ZM308.335,185.8c5.263,5.092-2.885,13.208-8,7.965C295.075,188.673,303.224,180.556,308.335,185.8Z" fill="none" stroke="#b35227" stroke-linecap="round" stroke-linejoin="round" stroke-width="2.003"/></g></g></g></g><g id="presentational-holiday-themed-website_sale_promotion_discount" data-name="presentational-holiday-themed-website,sale,promotion,discount"><g id="Group_13" data-name="Group 13"><g id="Group_12" data-name="Group 12"><path id="Path_26" data-name="Path 26" d="M206.252,108.015a2.507,2.507,0,1,1-3.366-1.113A2.5,2.5,0,0,1,206.252,108.015Z" fill="none" stroke="#226d7a" stroke-linecap="round" stroke-linejoin="round" stroke-width="2.003"/><path id="Path_27" data-name="Path 27" d="M220.5,112.33a2.507,2.507,0,1,1-3.366-1.113A2.5,2.5,0,0,1,220.5,112.33Z" fill="none" stroke="#226d7a" stroke-linecap="round" stroke-linejoin="round" stroke-width="2.003"/><line id="Line_6" data-name="Line 6" y1="21.714" x2="5.636" transform="translate(208.048 100.807)" fill="none" stroke="#226d7a" stroke-linecap="round" stroke-linejoin="round" stroke-width="2.003"/></g></g></g><g id="presentational-holiday-themed-website_sale_promotion_discount-2" data-name="presentational-holiday-themed-website,sale,promotion,discount"><g id="Group_15" data-name="Group 15"><g id="Group_14" data-name="Group 14"><path id="Path_28" data-name="Path 28" d="M309.307,76.013a2.508,2.508,0,1,1-3.278-1.35A2.5,2.5,0,0,1,309.307,76.013Z" fill="none" stroke="#226d7a" stroke-linecap="round" stroke-linejoin="round" stroke-width="2.003"/><path id="Path_29" data-name="Path 29" d="M323.209,81.334a2.508,2.508,0,1,1-3.278-1.351A2.5,2.5,0,0,1,323.209,81.334Z" fill="none" stroke="#226d7a" stroke-linecap="round" stroke-linejoin="round" stroke-width="2.003"/><line id="Line_7" data-name="Line 7" y1="21.257" x2="7.182" transform="translate(310.056 69.353)" fill="none" stroke="#226d7a" stroke-linecap="round" stroke-linejoin="round" stroke-width="2.003"/></g></g></g><g id="presentational-holiday-themed-website_sale_promotion_discount-3" data-name="presentational-holiday-themed-website,sale,promotion,discount"><g id="Group_17" data-name="Group 17"><g id="Group_16" data-name="Group 16"><path id="Path_30" data-name="Path 30" d="M254.6,104.707a4.693,4.693,0,1,1-3.757-5.447A4.7,4.7,0,0,1,254.6,104.707Z" fill="none" stroke="#226d7a" stroke-linecap="round" stroke-linejoin="round" stroke-width="2.003"/><path id="Path_31" data-name="Path 31" d="M270.953,127.171a4.693,4.693,0,1,1-3.757-5.448A4.7,4.7,0,0,1,270.953,127.171Z" fill="none" stroke="#226d7a" stroke-linecap="round" stroke-linejoin="round" stroke-width="2.003"/><line id="Line_8" data-name="Line 8" y1="26.033" x2="33.027" transform="translate(240.83 102.321)" fill="none" stroke="#226d7a" stroke-linecap="round" stroke-linejoin="round" stroke-width="2.003"/></g></g></g><g id="Group_20" data-name="Group 20"><g id="Group_19" data-name="Group 19"><g id="product-loudspeaker-invite"><g id="Group_18" data-name="Group 18"><path id="Path_32" data-name="Path 32" d="M126.69,250.71l89.715,6.177,8.655-19.759-58.728-73.538Z" fill="#f8eae0"/><line id="Line_9" data-name="Line 9" x1="16.884" y2="34.963" transform="translate(225.293 237.022)" fill="none" stroke="#b35227" stroke-linecap="round" stroke-linejoin="round" stroke-width="2.003"/><line id="Line_10" data-name="Line 10" x2="8.888" y2="15.099" transform="translate(216.405 256.887)" fill="none" stroke="#b35227" stroke-linecap="round" stroke-linejoin="round" stroke-width="2.003"/><line id="Line_11" data-name="Line 11" y1="0.106" x2="17.117" transform="translate(225.06 237.022)" fill="none" stroke="#b35227" stroke-linecap="round" stroke-linejoin="round" stroke-width="2.003"/><line id="Line_12" data-name="Line 12" x1="20.09" y2="42.13" transform="translate(156.605 176.568)" fill="none" stroke="#b35227" stroke-linecap="round" stroke-linejoin="round" stroke-width="2.003"/><line id="Line_13" data-name="Line 13" x2="10.034" y2="17.989" transform="translate(138.222 157.155)" fill="none" stroke="#b35227" stroke-linecap="round" stroke-linejoin="round" stroke-width="2.003"/><line id="Line_14" data-name="Line 14" x2="17.654" y2="9.874" transform="translate(115.815 190.934)" fill="none" stroke="#b35227" stroke-linecap="round" stroke-linejoin="round" stroke-width="2.003"/><line id="Line_15" data-name="Line 15" x2="18.325" y2="2.679" transform="translate(104.106 220.115)" fill="none" stroke="#b35227" stroke-linecap="round" stroke-linejoin="round" stroke-width="2.003"/><path id="Path_33" data-name="Path 33" d="M126.69,250.71l89.715,6.177,8.655-19.759-58.728-73.538Z" fill="none" stroke="#b35227" stroke-linecap="round" stroke-linejoin="round" stroke-width="2.003"/><line id="Line_16" data-name="Line 16" x1="13.064" y2="26.975" transform="translate(194.407 256.38)" fill="none" stroke="#b35227" stroke-linecap="round" stroke-linejoin="round" stroke-width="2.003"/><line id="Line_17" data-name="Line 17" x1="4.032" y2="9.468" transform="translate(154.064 253.173)" fill="none" stroke="#b35227" stroke-linecap="round" stroke-linejoin="round" stroke-width="2.003"/><line id="Line_18" data-name="Line 18" x1="40.343" y1="20.713" transform="translate(154.064 262.641)" fill="none" stroke="#b35227" stroke-linecap="round" stroke-linejoin="round" stroke-width="2.003"/></g></g></g></g><line id="Line_19" data-name="Line 19" x2="51.174" transform="translate(285.723 261.09)" fill="none" stroke="#b35227" stroke-linecap="round" stroke-linejoin="round" stroke-width="2.003"/></g></svg>