<svg xmlns="http://www.w3.org/2000/svg" viewBox="0 0 96.201 110.201"><title>presentational-ip-deny-manager</title><path d="M47.9,53.5a12,12,0,1,1,12-12h0A12.035,12.035,0,0,1,47.9,53.5Zm0-20.9a9,9,0,1,0,9,9A9.026,9.026,0,0,0,47.9,32.6Z" transform="translate(-15.899 -8.899)" fill="#834ba2"/><circle cx="75.301" cy="89.301" r="20.9" fill="#eddcf1"/><path d="M87.6,118.7A23.7,23.7,0,1,1,111.3,95h0A23.815,23.815,0,0,1,87.6,118.7Zm0-44.4a20.786,20.786,0,1,0,15.9,7.5A20.981,20.981,0,0,0,87.6,74.3Z" transform="translate(-15.899 -8.899)" fill="#834ba2"/><path d="M97.3,96.5H77.8a1.5,1.5,0,0,1,0-3H97.4A1.538,1.538,0,0,1,98.9,95,1.561,1.561,0,0,1,97.3,96.5Z" transform="translate(-15.899 -8.899)" fill="#834ba2"/><path d="M80,40.7a32.051,32.051,0,0,0-64.1.4c0,15.8,10.1,31.6,19,41.9-5.7.8-17.5,3.1-17.5,9,0,6.5,14.9,9.8,29.7,9.8a85.442,85.442,0,0,0,13.4-1h.1a1.471,1.471,0,0,0-.5-2.9,79.952,79.952,0,0,1-12.9.9c-16.3,0-26.7-4-26.7-6.8,0-1.6,4.2-4.6,15.4-6.1a12.542,12.542,0,0,0,1.5-.2c4.4,4.7,8.2,7.9,9.9,8.6l.7.3.7-.4c1.4-.8,5-3.8,9.3-8.4a30.618,30.618,0,0,1,3.2.5h.3A1.508,1.508,0,0,0,63,85.1a1.48,1.48,0,0,0-1.2-1.7c-.4-.1-.9-.1-1.3-.2C69.3,72.8,80,56.9,80,41.1ZM47.8,91.2c-6-3.8-28.9-27.4-28.9-50.1a29,29,0,0,1,58,0C77,63.5,53.5,87.1,47.8,91.2Z" transform="translate(-15.899 -8.899)" fill="#834ba2"/></svg>