<svg xmlns="http://www.w3.org/2000/svg" viewBox="0 0 102.048 105.2"><title>presentational-error-logs</title><path d="M65.7,112.6,88,79.1a2.48,2.48,0,0,1,3.5-.7,2.336,2.336,0,0,1,.7.7l22.3,33.6a2.448,2.448,0,0,1-.7,3.5,2.3,2.3,0,0,1-1.4.4H67.8a2.582,2.582,0,0,1-2.6-2.6A3.36,3.36,0,0,1,65.7,112.6Z" transform="translate(-12.898 -11.4)" fill="#f2e7d6"/><path d="M86.6,102.5h0a1.324,1.324,0,0,1-1.3-1.3h0l.1-16.3a1.324,1.324,0,0,1,1.3-1.3h0A1.324,1.324,0,0,1,88,84.9h0l-.1,16.3A1.321,1.321,0,0,1,86.6,102.5Z" transform="translate(-12.898 -11.4)" fill="#c0a26d"/><circle cx="73.702" cy="94.6" r="2.1" fill="#c0a26d"/><path d="M109.6,113.3h-46a3.372,3.372,0,0,1-3.4-3.4,3.292,3.292,0,0,1,.6-1.9l23-34.7h0a3.4,3.4,0,0,1,4.7-1,4.741,4.741,0,0,1,1,1l23,34.7a3.385,3.385,0,0,1-1,4.7,2.308,2.308,0,0,1-1.9.6Zm-23-38.5c-.1,0-.3.1-.3.2h0l-23,34.7a.471.471,0,0,0,.1.6c.1,0,.1.1.2.1h46a.43.43,0,0,0,.4-.4c0-.1,0-.2-.1-.2L86.9,75C86.8,74.9,86.7,74.8,86.6,74.8ZM85,74.2Z" transform="translate(-12.898 -11.4)" fill="#c0a26d"/><path d="M86.9,36.9a1.234,1.234,0,0,0-.4-.8,14.29,14.29,0,0,0-1.4-2L65.5,14a8.72,8.72,0,0,0-6.1-2.6H21.8a9.161,9.161,0,0,0-8.9,9.4V94.3a9.289,9.289,0,0,0,8.9,9.4H57.7a1.5,1.5,0,0,0,0-3H21.8a6.153,6.153,0,0,1-5.9-6.4V20.8a6.215,6.215,0,0,1,5.9-6.4H59.4a7.719,7.719,0,0,1,1.5.2V29.3c0,6.5,2.9,9.4,9.5,9.4l13.9-.1a7.719,7.719,0,0,1,.2,1.5V65.6a1.5,1.5,0,0,0,3,0V40.1A8.662,8.662,0,0,0,86.9,36.9ZM70.4,35.7c-4.9,0-6.5-1.6-6.5-6.4V16.6l18.5,19Z" transform="translate(-12.898 -11.4)" fill="#c0a26d"/><path d="M72.2,55.9H27.1a1.645,1.645,0,0,1-1.6-1.6,1.718,1.718,0,0,1,1.6-1.6H72.2a1.6,1.6,0,0,1,0,3.2Z" transform="translate(-12.898 -11.4)" fill="#c0a26d"/><path d="M72.2,66.4H27.1a1.645,1.645,0,0,1-1.6-1.6,1.718,1.718,0,0,1,1.6-1.6H72.2a1.6,1.6,0,0,1,0,3.2Z" transform="translate(-12.898 -11.4)" fill="#c0a26d"/><path d="M72.2,76.9H27.1a1.645,1.645,0,0,1-1.6-1.6,1.718,1.718,0,0,1,1.6-1.6H72.2a1.645,1.645,0,0,1,1.6,1.6A1.721,1.721,0,0,1,72.2,76.9Z" transform="translate(-12.898 -11.4)" fill="#c0a26d"/><path d="M66.6,87.3H27.1a1.645,1.645,0,0,1-1.6-1.6,1.718,1.718,0,0,1,1.6-1.6H66.5a1.645,1.645,0,0,1,1.6,1.6A1.561,1.561,0,0,1,66.6,87.3Z" transform="translate(-12.898 -11.4)" fill="#c0a26d"/></svg>