<svg xmlns="http://www.w3.org/2000/svg" viewBox="0 0 144 144"><g opacity="0"><rect width="144" height="144" fill="#fff"/></g><rect x="21.488" y="18.328" width="101.662" height="100.819" class="sgmaincolor"/><path d="M83.211,54.534H60.217a1,1,0,0,0-1,1V78.339a1,1,0,0,0,1,1H83.211a1,1,0,0,0,1-1v-22.8A1,1,0,0,0,83.211,54.534Zm-1,22.805H61.217v-20.8H82.211Z"/><path d="M113.468,54.534h-23a1,1,0,0,0-1,1V78.339a1,1,0,0,0,1,1h23a1,1,0,0,0,1-1v-22.8A1,1,0,0,0,113.468,54.534Zm-1,22.805h-21v-20.8h21Z"/><path d="M52.955,85.74H29.96a1,1,0,0,0-1,1v22.805a1,1,0,0,0,1,1H52.955a1,1,0,0,0,1-1V86.74A1,1,0,0,0,52.955,85.74Zm-1,22.805H30.96V87.74H51.955Z"/><path d="M83.211,85.74H60.217a1,1,0,0,0-1,1v22.805a1,1,0,0,0,1,1H83.211a1,1,0,0,0,1-1V86.74A1,1,0,0,0,83.211,85.74Zm-1,22.805H61.217V87.74H82.211Z"/><path d="M113.468,85.74h-23a1,1,0,0,0-1,1v22.805a1,1,0,0,0,1,1h23a1,1,0,0,0,1-1V86.74A1,1,0,0,0,113.468,85.74Zm-1,22.805h-21V87.74h21Z"/><path d="M124.149,119.147V18.327a1,1,0,0,0-1-1H21.488a1,1,0,0,0-1,1v100.82a1,1,0,0,0,1,1H123.149A1,1,0,0,0,124.149,119.147Zm-2-99.82v20.8H22.488v-20.8Zm-99.661,98.82V42.132h99.661v76.015Z"/><path d="M55.841,48.649a1,1,0,0,0-1.351.419l-2.876,5.466H29.96a1,1,0,0,0-1,1V78.339a1,1,0,0,0,1,1H52.955a1,1,0,0,0,1-1v-22.8a.99.99,0,0,0-.26-.659L56.26,50A1,1,0,0,0,55.841,48.649ZM30.96,56.534h19.6L40.914,74.873,35.71,63.52a1,1,0,0,0-1.819.834l5.953,12.985H30.96ZM51.955,77.339H41.877L51.955,58.182Z"/><path d="M55.375,34.931a5.8,5.8,0,1,0-5.841-5.8A5.829,5.829,0,0,0,55.375,34.931Zm0-9.6a3.8,3.8,0,1,1-3.841,3.8A3.826,3.826,0,0,1,55.375,25.329Z"/><path d="M86.842,34.931A5.8,5.8,0,1,0,81,29.13,5.828,5.828,0,0,0,86.842,34.931Zm0-9.6A3.8,3.8,0,1,1,83,29.13,3.825,3.825,0,0,1,86.842,25.329Z"/><path d="M11.536,123.04a7.406,7.406,0,1,0,6.006,7.272A7.5,7.5,0,0,0,11.536,123.04Zm.412,12.365a5.4,5.4,0,1,1-1.8-10.5,5.4,5.4,0,0,1,5.393,5.4A5.484,5.484,0,0,1,11.948,135.405Z"/><path d="M140.838,6.465a1,1,0,0,0-1-.087l-13.471,6.293a1,1,0,0,0-.15,1.726l12.184,8.518a1,1,0,0,0,1.569-.732l1.287-14.812A1,1,0,0,0,140.838,6.465Zm-2.706,13.818-9.345-6.533,10.331-4.826Z"/><path d="M138.523,127.276H47.807a1,1,0,0,0,0,2h90.716a1,1,0,0,0,0-2Z"/></svg>