<svg xmlns="http://www.w3.org/2000/svg" viewBox="0 0 128 128"><path fill="#F2A989" d="M16.5,11.6V1.9h31.1v7.9L37.2,21.6c3.7,0.5,7.1,2.3,9.5,5.2c2.2,2.7,3.4,6,3.3,9.5c0,5.3-1.8,9.5-5.4,12.5 s-8.2,4.6-13.9,4.6s-11.3-2-17.1-6l4.7-9c4.8,3.4,9.1,5.1,12.9,5.1c2,0.1,4-0.5,5.6-1.7c1.5-1.2,2.3-3,2.2-4.9c0.1-2-0.9-3.9-2.5-5 c-2.1-1.3-4.6-1.9-7.1-1.8c-2.3,0.1-4.6,0.6-6.7,1.4v-8.4l9.7-11.5H16.5z"></path><path fill="#EDDDC5" d="M92.4,93.2c0-0.3,0-0.7-0.1-1C90.6,79.4,78.8,70.4,66,72.1c-12.8,1.7-21.8,13.5-20.1,26.3 c0.8,5.7,3.7,11,8.1,14.7c4.1,2.9,8.9,4.4,13.9,4.4C81.4,117.6,92.3,106.7,92.4,93.2z"></path><path fill="#C1AA95" d="M67.9,120.6c-15.1-0.1-27.4-12.4-27.3-27.5S53,65.7,68.1,65.8c15.1,0.1,27.3,12.3,27.3,27.4 c0,15.1-12.3,27.4-27.4,27.4C68,120.6,67.9,120.6,67.9,120.6z M67.9,68.8c-13.5,0.1-24.4,11-24.3,24.5s11,24.4,24.5,24.3 c13.4-0.1,24.3-11,24.3-24.4C92.3,79.7,81.4,68.8,67.9,68.8z"></path><path fill="#C1AA95" d="M70.3,109.9l-7.7-0.7l-0.4-3.4l-1.3-0.7l-3,1.8l-5-6l2.2-2.8v-0.2l-0.4-1.3l-3.3-1l0.6-7.8l3.4-0.3l0.7-1.3 l-1.7-3l6-5l2.8,2.2h0.2l1.3-0.4l1-3.3l7.7,0.6l0.4,3.4l1.3,0.8l3-1.8l5,6l-2.2,2.8v0.2l0.4,1.3l3.3,0.9l-0.7,7.9L80.5,99 c-0.2,0.5-0.4,0.9-0.7,1.3l1.8,3.1l-6,5l-2.8-2.2h-0.3l-1.2,0.4L70.3,109.9z M65.3,106.4l2.8,0.3l0.8-2.7l0.9-0.2l1.8-0.5l1.1-0.3 l0.7-0.2l2.1,1.6l2.2-1.8l-1.4-2.4l0.6-0.9c0.4-0.7,0.8-1.4,1.1-2.2l0.3-1l2.9-0.3l0.2-2.8l-2.7-0.7l-0.2-0.9 c-0.1-0.6-0.3-1.2-0.5-1.8l-0.3-1.1l-0.2-0.7l1.7-2.2l-1.9-2.1l-2.4,1.3l-1-0.6L71.7,83l-0.9-0.3L70.6,80l-2.8-0.2L67,82.5h-1 L64.3,83l-1.1,0.4l-0.7,0.2L60.4,82l-2.2,1.9l1.4,2.4L59,87.1c-0.5,0.8-0.9,1.6-1.3,2.4l-0.3,0.8l-2.7,0.3l-0.2,2.8l2.8,0.8v1 c0,0.6,0.2,1.2,0.4,1.7c0.2,0.3,0.3,0.7,0.4,1l0.2,0.8l-1.7,2.1l1.9,2.2l2.5-1.4l0.8,0.6c0.7,0.5,1.5,0.9,2.3,1.2l0.9,0.4 L65.3,106.4z"></path><path fill="#C1AA95" d="M67.9,99.7c-0.9,0-1.7-0.1-2.5-0.5c-3.3-1.5-4.8-5.3-3.4-8.6c1.5-3.2,5.2-4.7,8.5-3.3c1.6,0.6,2.9,1.9,3.5,3.5 c0.6,1.6,0.6,3.4-0.1,5l0,0C72.9,98.2,70.5,99.8,67.9,99.7z M68,89.7c-0.5,0-0.9,0.1-1.3,0.3c-1.8,0.6-2.7,2.5-2.1,4.3 c0.3,1,1.1,1.7,2,2.1c0.8,0.4,1.8,0.4,2.6,0.1c0.9-0.4,1.6-1,2-1.9l0,0c0.3-0.9,0.3-1.8,0-2.7c-0.4-0.9-1-1.5-1.9-1.9 C68.9,89.8,68.4,89.7,68,89.7z"></path><path fill="#C1AA95" d="M104.2,52.9c0.2-1.3,0.3-2.7,0.3-4c0-15.1-14.1-27.3-31.5-27.3c-7.4-0.1-14.6,2.3-20.6,6.6 c0.5,0.9,0.9,1.8,1.2,2.8c5.6-4.2,12.4-6.5,19.4-6.4c15.7,0,28.5,10.9,28.5,24.3c0,1.6-0.2,3.2-0.5,4.7l-0.4,1.4l1.5,0.4 c9,2.2,15,8.5,15,15.7s-2.1,16.5-16.5,16.5c-0.8,0-1.5,0.7-1.5,1.5s0.7,1.5,1.5,1.5c12.4,0,19.5-7.2,19.5-19.5 C120.1,62.9,113.8,55.7,104.2,52.9z"></path><path fill="#C1AA95" d="M35.8,87.6c-12.5,0-18.9-6.6-18.9-19.5c0-2.9,0.8-5.8,2.4-8.2c-0.9-0.5-1.8-1-2.6-1.6c-1.8,2.9-2.8,6.3-2.8,9.8 c0,14.5,7.8,22.5,21.9,22.5c0.8,0,1.5-0.7,1.5-1.5S36.6,87.6,35.8,87.6z"></path><path fill="#E4CDAC" d="M40.9,119.4c-1,3.2-4.3,5-7.5,4c-3.2-1-5-4.3-4-7.5c0.1-0.2,0.1-0.4,0.2-0.5c1.2-3.1,4.8-4.5,7.8-3.3 C40.3,113.3,41.8,116.4,40.9,119.4"></path><path fill="#E4CDAC" d="M24.6,108.2c-0.8,2-3,3.1-5.1,2.4c-2.1-0.8-3.1-3-2.4-5.1c0.9-2,3.3-2.9,5.3-2 C24.2,104.3,25.1,106.3,24.6,108.2"></path><path fill="#E4CDAC" d="M15.7,93.8c-0.6,1.5-2.3,2.3-3.8,1.8c-1.5-0.5-2.3-2.1-1.8-3.7c0,0,0-0.1,0-0.1c0.3-1.6,1.9-2.7,3.6-2.3 s2.7,1.9,2.3,3.6C15.9,93.3,15.8,93.6,15.7,93.8"></path><path fill="#E4CDAC" d="M111.1,29.3c-0.7,0-1.2-0.5-1.2-1.2c0,0,0-0.1,0-0.1c-0.1-5.3-4.3-9.5-9.6-9.5c-0.6,0-1.2-0.6-1.2-1.2 c0-0.7,0.5-1.2,1.2-1.3c5.3,0,9.5-4.2,9.6-9.5c0-0.7,0.5-1.2,1.2-1.2c0.7,0,1.2,0.5,1.2,1.2l0,0c0.1,5.3,4.3,9.5,9.6,9.5 c0.7,0,1.2,0.5,1.2,1.2c0,0,0,0.1,0,0.1c0,0.7-0.5,1.2-1.2,1.2c-5.3,0-9.5,4.2-9.6,9.5c0.1,0.7-0.4,1.2-1.1,1.3 C111.2,29.3,111.1,29.3,111.1,29.3z M105.6,17.3c2.4,1.2,4.3,3.1,5.5,5.5c1.2-2.4,3.1-4.3,5.5-5.5c-2.4-1.2-4.3-3.2-5.5-5.6 C109.9,14.1,108,16.1,105.6,17.3z"></path><path fill="#E4CDAC" d="M114.6,106.2c-0.8,2-3,3.1-5.1,2.4c-2.1-0.8-3.1-3-2.4-5.1c0.6-2.1,2.8-3.4,4.9-2.8c2.1,0.6,3.4,2.8,2.8,4.9 C114.8,105.8,114.7,106,114.6,106.2"></path></svg>