<svg xmlns="http://www.w3.org/2000/svg" viewBox="0 0 117 107"><title>presentational-cron-job</title><circle cx="94.4" cy="84.4" r="22.6" fill="#e2dbd5"/><path d="M89.1,99.1a2.1,2.1,0,0,1-1.1-.4l-6.8-6.8a1.45,1.45,0,0,1,0-2.1l7.2-7.2a1.485,1.485,0,0,1,2.1,2.1h0l-6.2,6.2L90,96.6a1.45,1.45,0,0,1,0,2.1c-.1.3-.6.4-.9.4Z" transform="translate(-5.5 -10.5)" fill="#343230"/><path d="M101.9,99.1a1.538,1.538,0,0,1-1.5-1.5,2.1,2.1,0,0,1,.4-1.1l6.2-6.2-5.7-5.7a1.485,1.485,0,1,1,2.1-2.1h0l6.8,6.8a1.45,1.45,0,0,1,0,2.1L103,98.6A1.533,1.533,0,0,1,101.9,99.1Z" transform="translate(-5.5 -10.5)" fill="#343230"/><path d="M92.4,101.7a.6.6,0,0,1-.4-.1,1.538,1.538,0,0,1-1-1.9h0l6-19.6a1.518,1.518,0,0,1,2.9.9l-6,19.6A1.736,1.736,0,0,1,92.4,101.7Z" transform="translate(-5.5 -10.5)" fill="#343230"/><path d="M32.5,60.5H23.3a3.8,3.8,0,0,1-3.8-3.8V50.3a3.8,3.8,0,0,1,3.8-3.8h9.2a3.8,3.8,0,0,1,3.8,3.8v6.4A3.933,3.933,0,0,1,32.5,60.5Zm-9.3-11a.86.86,0,0,0-.8.8v6.4a.86.86,0,0,0,.8.8h9.2a.86.86,0,0,0,.8-.8V50.3a.86.86,0,0,0-.8-.8Z" transform="translate(-5.5 -10.5)" fill="#343230"/><path d="M60,60.5H50.8A3.8,3.8,0,0,1,47,56.7V50.3a3.8,3.8,0,0,1,3.8-3.8H60a3.8,3.8,0,0,1,3.8,3.8v6.4A3.864,3.864,0,0,1,60,60.5Zm-9.2-11a.86.86,0,0,0-.8.8v6.4a.86.86,0,0,0,.8.8H60a.86.86,0,0,0,.8-.8V50.3a.86.86,0,0,0-.8-.8Z" transform="translate(-5.5 -10.5)" fill="#343230"/><path d="M87.6,60.5H78.4a3.8,3.8,0,0,1-3.8-3.8h0V50.3a3.8,3.8,0,0,1,3.8-3.8h9.2a3.8,3.8,0,0,1,3.8,3.8h0v6.4A3.864,3.864,0,0,1,87.6,60.5Zm-9.2-11a.86.86,0,0,0-.8.8v6.4a.86.86,0,0,0,.8.8h9.2a.86.86,0,0,0,.8-.8V50.3a.86.86,0,0,0-.8-.8Z" transform="translate(-5.5 -10.5)" fill="#343230"/><path d="M32.5,81.2H23.3a3.8,3.8,0,0,1-3.8-3.8h0V71a3.8,3.8,0,0,1,3.8-3.8h9.2A3.8,3.8,0,0,1,36.3,71h0v6.4A3.933,3.933,0,0,1,32.5,81.2Zm-9.3-11a.86.86,0,0,0-.8.8v6.4a.86.86,0,0,0,.8.8h9.2a.86.86,0,0,0,.8-.8V71a.86.86,0,0,0-.8-.8Z" transform="translate(-5.5 -10.5)" fill="#343230"/><path d="M60,81.2H50.8A3.8,3.8,0,0,1,47,77.4h0V71a3.8,3.8,0,0,1,3.8-3.8H60A3.8,3.8,0,0,1,63.8,71h0v6.4A3.864,3.864,0,0,1,60,81.2Zm-9.2-11a.86.86,0,0,0-.8.8v6.4a.86.86,0,0,0,.8.8H60a.86.86,0,0,0,.8-.8V71a.86.86,0,0,0-.8-.8Z" transform="translate(-5.5 -10.5)" fill="#343230"/><path d="M95.7,21.1H79.8a1.884,1.884,0,0,0,.2-.8V12a1.5,1.5,0,0,0-3,0v8.3a1.884,1.884,0,0,0,.2.8h-44a1.077,1.077,0,0,0,.2-.8V12a1.5,1.5,0,0,0-3,0v8.3a1.884,1.884,0,0,0,.2.8H14.8A9.136,9.136,0,0,0,5.5,30V85.7a9.115,9.115,0,0,0,9.3,8.8H66.4a1.367,1.367,0,0,0,1.4-1.4,1.538,1.538,0,0,0-1.5-1.5H14.8a6.048,6.048,0,0,1-6.3-5.8V37H102V61.2a1.5,1.5,0,0,0,3,0V30A9.2,9.2,0,0,0,95.7,21.1ZM8.5,34V30a6.175,6.175,0,0,1,6.3-5.8H95.6a6.048,6.048,0,0,1,6.3,5.8v4Z" transform="translate(-5.5 -10.5)" fill="#343230"/><path d="M95.6,113.7A23.7,23.7,0,1,1,119.3,90h0A23.559,23.559,0,0,1,95.6,113.7Zm0-44.5a20.786,20.786,0,1,0,15.9,7.5,21.7,21.7,0,0,0-15.9-7.5Z" transform="translate(-5.5 -10.5)" fill="#343230"/></svg>