<svg xmlns="http://www.w3.org/2000/svg" viewBox="0 0 144 144"><g opacity="0"><rect width="144" height="144" fill="#fff"/></g><ellipse cx="67.222" cy="72.287" rx="35.059" ry="35.249" class="sgmaincolor"/><path d="M119.019,72.493a51.786,51.786,0,1,0-51.786,51.786A51.845,51.845,0,0,0,119.019,72.493ZM67.233,122.279a49.786,49.786,0,1,1,49.786-49.786A49.843,49.843,0,0,1,67.233,122.279Z"/><path d="M127.234,85.984a1,1,0,0,0-1.206.737A60.66,60.66,0,0,1,90.4,128.373a1,1,0,0,0,.768,1.848,62.666,62.666,0,0,0,36.8-43.031A1,1,0,0,0,127.234,85.984Z"/><path d="M91.148,59.739a1,1,0,0,0-1.409-.112L60.84,84.265,44.73,69.577a1,1,0,1,0-1.347,1.479L60.144,86.337a.922.922,0,0,0,.181.112,1.007,1.007,0,0,0,.108.066.929.929,0,0,0,.754.006.862.862,0,0,0,.109-.064.935.935,0,0,0,.17-.1l29.57-25.21A1,1,0,0,0,91.148,59.739Z"/><path d="M67.222,36.023a36.257,36.257,0,1,0,36.059,36.256A36.2,36.2,0,0,0,67.222,36.023Zm0,70.513a34.257,34.257,0,1,1,34.059-34.257A34.2,34.2,0,0,1,67.222,106.536Z"/><path d="M133.9,28.479,128.739,8.11a1,1,0,0,0-1.667-.472l-15.061,14.65a1,1,0,0,0,.425,1.679l20.218,5.719a1.022,1.022,0,0,0,.273.038,1,1,0,0,0,.969-1.245Zm-19.25-5.965,12.58-12.235,4.306,17.011Z"/><path d="M20,117a10,10,0,1,0,10,10A10.012,10.012,0,0,0,20,117Zm0,18a8,8,0,1,1,8-8A8.009,8.009,0,0,1,20,135Z"/></svg>