<svg xmlns="http://www.w3.org/2000/svg" viewBox="0 0 144 144"><rect width="144" height="144" fill="#fff" opacity="0"/><polygon points="23.335 24.038 31.423 76.813 69.778 126.882 108.106 76.813 114.696 24.038 69.778 10.149 23.335 24.038" class="sgmaincolor"/><path d="M31.44,105.9a7.886,7.886,0,1,0,3.955,4.558A7.829,7.829,0,0,0,31.44,105.9Zm1.741,9.683a5.89,5.89,0,1,1-2.635-7.894A5.845,5.845,0,0,1,33.181,115.587Z" /><path d="M25.636,98.752a1.007,1.007,0,0,0-1.059-.938,12.546,12.546,0,0,0-10.653,7.831,1,1,0,0,0,.578,1.291,1.012,1.012,0,0,0,.356.065,1,1,0,0,0,.935-.644A10.487,10.487,0,0,1,24.7,99.811,1,1,0,0,0,25.636,98.752Z" /><path d="M137.77,75.092l-7.414-17.614a1,1,0,0,0-1.713-.225l-11.7,15.114a1,1,0,0,0,.661,1.6l19.11,2.5a.95.95,0,0,0,.129.008,1,1,0,0,0,.922-1.387ZM119.6,72.214l9.582-12.382,6.073,14.43Z" /><path d="M110.841,88.2l-27.325,36a1,1,0,1,0,1.594,1.209l27.324-36a1,1,0,1,0-1.593-1.209Z" /><path d="M110.6,100.752,92.531,124.2a1,1,0,1,0,1.584,1.221l18.064-23.444a1,1,0,1,0-1.584-1.221Z" /><path d="M115.671,23.816a1.023,1.023,0,0,0-.152-.34s0-.012-.008-.018c-.018-.025-.045-.037-.064-.059a.949.949,0,0,0-.193-.181.833.833,0,0,0-.133-.068.876.876,0,0,0-.129-.067L70.074,9.193a1,1,0,0,0-.3-.044h-.006a1.025,1.025,0,0,0-.28.041L23.05,23.08a.962.962,0,0,0-.143.073.885.885,0,0,0-.144.073.972.972,0,0,0-.191.188c-.02.024-.048.039-.066.065l-.006.014a.978.978,0,0,0-.142.343.9.9,0,0,0,0,.147,1.012,1.012,0,0,0-.005.206l.005.04h0l8.08,52.734,0,.009c0,.011.007.021.009.032a1,1,0,0,0,.117.3c.008.013.008.029.017.043s.019.02.027.032.013.026.022.037L68.984,127.49c.012.016.032.022.045.037a1,1,0,0,0,.23.189,1.013,1.013,0,0,0,.1.069.99.99,0,0,0,.417.1.977.977,0,0,0,.418-.1.918.918,0,0,0,.1-.067.978.978,0,0,0,.233-.192c.012-.014.031-.02.043-.036L108.9,77.42c.009-.011.013-.025.021-.036s.019-.02.027-.032.009-.031.018-.045a.991.991,0,0,0,.11-.285c0-.02.012-.039.015-.058s.006-.018.007-.027l6.59-52.775a.978.978,0,0,0-.014-.276C115.671,23.863,115.676,23.839,115.671,23.816ZM68.778,81.7v42.233l-35.9-46.863,14-8.953A26.1,26.1,0,0,0,68.778,81.7Zm2,0A26.1,26.1,0,0,0,92.672,68.117l13.979,8.951L70.778,123.931Zm-1-1.974A24.075,24.075,0,1,1,93.851,55.65,24.1,24.1,0,0,1,69.777,79.725Zm-1-50.123A26.056,26.056,0,0,0,48.894,40.055L25.647,24.391l43.13-12.9Zm2,0V11.5L112.47,24.4,90.6,39.98A26.051,26.051,0,0,0,70.777,29.6ZM24.67,26.143,47.763,41.7A25.98,25.98,0,0,0,45.991,66.31L32.178,75.142Zm82.64,48.973-13.748-8.8A25.98,25.98,0,0,0,91.74,41.625l21.682-15.451Z" /><path d="M79.477,47.582l-12.913,14-6.5-6.834a1,1,0,1,0-1.449,1.379L65.85,63.73c.008.009.02.011.028.019s.011.019.019.027a1.012,1.012,0,0,0,.194.121,1.207,1.207,0,0,0,.112.069.962.962,0,0,0,.752,0,49.373,49.373,0,0,1,.31-.2c.008-.009.011-.02.019-.029s.019-.01.026-.018L80.948,48.938a1,1,0,1,0-1.471-1.356Z" /></svg>
