<svg xmlns="http://www.w3.org/2000/svg" viewBox="0 0 108.051 105.3"><title>presentational-mysql-database</title><path d="M92.7,27.5c0-9.1-18.1-16.2-41.3-16.2S10.1,18.4,10.1,27.5a4.1,4.1,0,0,0,.1,1.1V49.7a1.388,1.388,0,0,0,0,.9V69.2a1.388,1.388,0,0,0,0,.9v18a1.884,1.884,0,0,0,.2.8c.3.5,7.3,11.9,38.9,11.9,5.7,0,9.5-.3,9.6-.3a1.5,1.5,0,0,0-.2-3c-.1,0-3.8.3-9.4.3-26.8,0-34.8-8.4-36.1-10.1V73.3c4.6,3.6,15.5,9.4,38.2,9.4a1.473,1.473,0,0,0,1.5-1.5,1.538,1.538,0,0,0-1.5-1.5c-27.2,0-36.5-8.6-38.2-10.5V53.8c4.2,3.3,13.6,8.4,32.4,9.3a1.63,1.63,0,0,0,1.6-1.5,1.538,1.538,0,0,0-1.5-1.5c-13.5-.7-21.7-3.6-26.2-5.9a21.638,21.638,0,0,1-6.3-4.5V33.8c6.1,5.9,20.8,9.9,38.2,9.9,17.6,0,32.2-4.1,38.3-10V49.6a17.551,17.551,0,0,1-5.6,4.2,1.34,1.34,0,0,0-.8,1.3,1.538,1.538,0,0,0,1.5,1.5,1.445,1.445,0,0,0,.7-.2,31.051,31.051,0,0,0,4.2-2.7v7.1a1.538,1.538,0,0,0,1.5,1.5,1.473,1.473,0,0,0,1.5-1.5V27.5ZM51.4,40.8c-17.4,0-36.7-5-38.2-12.3v-.7c0-.2,0-.3-.1-.4.4-7.7,20.4-13,38.3-13,18.2,0,38.3,5.4,38.3,13.2S69.5,40.8,51.4,40.8Z" transform="translate(-10.1 -11.3)" fill="#3fc798"/><path d="M88.9,109.1C81,106.4,68.6,87.9,68.5,87.3c-.7-5.5.5-10.7-1.9-16.5C61.5,59,54.4,52.8,69,55.7c10.9,2.2,19,11.9,25.8,24.2,4,7.2,5.7,14.7,12.8,18.8,7.7,4.4,2.6,5.5,2.4,7.7-.3,1.6,6.3,9.5,7.2,10.2" transform="translate(-10.1 -11.3)" fill="#cdf9e4"/><path d="M113.4,116.2a.6.6,0,0,1-.4-.1c-6.2-1.9-9.8-11.7-9.6-13,.2-1.5,1.7-1.9,2.4-2.1.2,0,.3-.1.5-.1l.2-.1a61.681,61.681,0,0,1,7.3-1.2,3.473,3.473,0,0,0-.9-.6c-.2-.1-.3-.2-.5-.3-1-.7-13.3-5.9-14.1-7-1.4-1.9-6.9-15.2-7.2-15.8A43.644,43.644,0,0,0,75.9,59.2,31.188,31.188,0,0,0,69,55.9a35.318,35.318,0,0,0-5.6-.5h-.3c-.9-.3-5.6-3.5-7.5-4.3a6.637,6.637,0,0,0-2-.6c-.1,0-.2.1-.3.2a2.679,2.679,0,0,0,.2.9A12.54,12.54,0,0,0,55.1,54a51.423,51.423,0,0,1,3.7,5.4,46.809,46.809,0,0,1,1.8,4.8c.4,1.3.9,2.7,1.4,3.9a22.8,22.8,0,0,0,1.7,3l.6.6a5.223,5.223,0,0,1,1.4,1.9c.6,1.3,0,3.2-.9,5.5a6.89,6.89,0,0,1-.3.8,20.526,20.526,0,0,0,.4,12.5l.9,1.8c.1-.5.1-.9.2-1.3a18.619,18.619,0,0,1,.9-4.7,8.989,8.989,0,0,1,1.7-2.6c.3-.4.6-.7.8-1l.7-1,1.1.6A2.653,2.653,0,0,1,72.3,86c0,.2.1.3.2.5l.2.4a34.889,34.889,0,0,0,2,4.4,69.943,69.943,0,0,0,5.5,9,22.581,22.581,0,0,0,2.5,2.9,1.439,1.439,0,0,1,.3.2,5.241,5.241,0,0,1,1.1,1,1.3,1.3,0,0,1-2.2,1.4h0c-.1-.1-.3-.3-.4-.3a2.181,2.181,0,0,1-.5-.4,27.892,27.892,0,0,1-2.8-3.2,55.173,55.173,0,0,1-5.7-9.3A46.875,46.875,0,0,1,70.4,88l-.1-.2a4.2,4.2,0,0,0-.9,1.4,13.364,13.364,0,0,0-.7,3.9c-.3,2.4-.4,3.6-1.3,4.3l-.3.2a1.7,1.7,0,0,1-1.4,0q-1.5-.6-3-4.2a22.585,22.585,0,0,1-.5-14.3,4.649,4.649,0,0,0,.3-.9,14.039,14.039,0,0,0,1-3.5l-.1-.2a1.765,1.765,0,0,0-.8-.9,9.016,9.016,0,0,1-.9-1,17.036,17.036,0,0,1-1.9-3.5,35.232,35.232,0,0,1-1.5-4.2,40.379,40.379,0,0,0-1.6-4.5,52.5,52.5,0,0,0-3.3-4.9,13.158,13.158,0,0,1-1.9-2.9,3.749,3.749,0,0,1-.2-3.1,2.037,2.037,0,0,1,1.4-1.3c1.2-.7,3.2,0,4.3.5a61.012,61.012,0,0,1,7,4.1,30.779,30.779,0,0,1,6.1.6A35.275,35.275,0,0,1,77.7,57,45.685,45.685,0,0,1,93.8,74.7c.4.7,5.8,13.8,7,15.4.3.4,12.5,5.7,13.6,6.5.1.1.3.2.4.3,1.7,1.2,3.1,2.3,3.3,3.6a1.225,1.225,0,0,1-.9,1.5h-.3a77.744,77.744,0,0,0-9.5,1.4,6.373,6.373,0,0,1-.7.2c-.1,0-.2.1-.3.1.7,2.1,3.2,8.7,7.6,10.1a1.284,1.284,0,0,1,.9,1.6,2.778,2.778,0,0,1-1.5.8Z" transform="translate(-10.1 -11.3)" fill="#3fc798"/><path d="M66.7,58.9l-2.1.3a46.145,46.145,0,0,0,2.9,4.6c2-2.2.8-3.3-.8-4.9Z" transform="translate(-10.1 -11.3)" fill="#3fc798"/></svg>