<svg xmlns="http://www.w3.org/2000/svg" viewBox="0 0 113.33 112.52"><path fill="#edddc5" d="M105.72 11.47c-1.18-.23-16.25-.13-29.95 6.89-9.66 4.94-14.92 8.53-22.46 17.91C52 37.9 45 47.69 37.78 57.81a1.27 1.27 0 0 0-.52-.09l-20.47.48-10.72 14 15.47 4.62-.86 5.08-.12.17-.27.38v.48c.14 3.24 1.93 6.67 5.17 9.91a21.83 21.83 0 0 0 9.69 5.79l.57.13.49-.32.93-.6 4.62-.78 4.62 15.47 14-10.72.47-19.88C70 75.64 79.16 69 83.72 65c11.13-9.8 13.11-13.46 17.22-22.6 5.43-12.09 5.9-28.82 5.92-29.53v-1.19z"></path><path fill="#e4cdac" d="M10.78 27.18a9.57 9.57 0 0 0-9.56-9.57 1.22 1.22 0 1 1 0-2.43 9.57 9.57 0 0 0 9.56-9.57 1.22 1.22 0 0 1 2.44 0 9.57 9.57 0 0 0 9.56 9.57 1.22 1.22 0 1 1 0 2.43 9.57 9.57 0 0 0-9.56 9.57 1.22 1.22 0 1 1-2.44 0zM12 10.88a12.14 12.14 0 0 1-5.52 5.52A12.05 12.05 0 0 1 12 21.92a12 12 0 0 1 5.52-5.52A12.1 12.1 0 0 1 12 10.88zm73.4 95.64a4 4 0 1 0 4-4 4 4 0 0 0-4 4m-18.6.2a3 3 0 1 0 3-3 3 3 0 0 0-3 3m34.53-9.01a6 6 0 1 0 6-6 6 6 0 0 0-6 6"></path><g data-name="HHVM Ready Performance Booster"><path fill="none" stroke="#c1aa95" stroke-linecap="round" stroke-miterlimit="10" stroke-width="3px" d="M19.16 77.07S51.42 31.5 54.43 27.76c7.76-9.66 13-13.42 23.73-18.93 14.46-7.4 30.43-7.46 31.36-7.29 0 0-.45 18.36-6.25 31.27-4.35 9.67-6.27 13.38-18.2 23.89C73.64 66.79 34 92.61 34 92.61a22.26 22.26 0 0 1-9.72-5.85c-4.67-4.68-5.06-8.42-5.12-9.69zm.36-.64l1.16-6.94-15.86-4.74 9.8-12.8 21.36-.5"></path><path fill="none" stroke="#c1aa95" stroke-linecap="round" stroke-miterlimit="10" stroke-width="3px" d="M35.28 91.79l6.6-1.11 4.74 15.87 12.8-9.81.49-21.36M10.34 87.22L3.36 108.5l21.07-6.57"></path><circle fill="none" stroke="#c1aa95" stroke-linecap="round" stroke-miterlimit="10" stroke-width="3px" cx="77.71" cy="34.26" r="10.16"></circle><circle fill="none" stroke="#c1aa95" stroke-linecap="round" stroke-miterlimit="10" stroke-width="3px" cx="58.36" cy="53.6" r="4.42"></circle></g></svg>