<svg xmlns="http://www.w3.org/2000/svg" viewBox="0 0 95.9 97.2"><title>presentational-git</title><path d="M22.9,63a5.855,5.855,0,0,0,0,8.3l39.6,39.6a5.855,5.855,0,0,0,8.3,0h0l39.4-39.4a5.855,5.855,0,0,0,0-8.3L70.6,23.5a5.855,5.855,0,0,0-8.3,0Z" transform="translate(-16.025 -15.425)" fill="#e2dbd5"/><path d="M107.6,57.2,68,17.6a7.3,7.3,0,0,0-10.4,0l-9.1,9.1h0l-2.1,2.1h0L18.2,57a7.3,7.3,0,0,0,0,10.4L57.8,107a7.245,7.245,0,0,0,10.4,0l39.4-39.4A7.3,7.3,0,0,0,107.6,57.2Zm-2.2,8.2L66,104.8a4.286,4.286,0,0,1-6.1,0L20.3,65.2a4.286,4.286,0,0,1,0-6.1L48.5,30.9l9.4,9.4a6.322,6.322,0,0,0,3.6,10l.1,25a6.516,6.516,0,0,0-5,6.2,6.4,6.4,0,1,0,8-6.2l-.1-25a5.482,5.482,0,0,0,2.3-1.1l10,10a6.742,6.742,0,0,0-1,3.4,6.4,6.4,0,1,0,6.4-6.4,6.294,6.294,0,0,0-3.3.9L68.8,47a6.812,6.812,0,0,0,.7-2.8,6.445,6.445,0,0,0-6.4-6.4,6.71,6.71,0,0,0-2.8.6l-9.6-9.6,9.1-9.1a4.286,4.286,0,0,1,6.1,0l39.5,39.6A4.286,4.286,0,0,1,105.4,65.4Z" transform="translate(-16.025 -15.425)" fill="#343230"/></svg>