<svg id="bea9c377-9499-45ea-8b9a-bfa44845bff1" data-name="Icons" xmlns="http://www.w3.org/2000/svg" viewBox="0 0 144 144"><polyline points="125 47.002 119 86.002 107 96.002 49 96.002 40 47.002 125 47.002" class="sgmaincolor"/><rect x="-93.669" width="96" height="96" fill="#fff" opacity="0"/><g opacity="0"><rect width="144" height="144" fill="#fff"/></g><path d="M55.931,132a1.02,1.02,0,0,1-.281-.04,10.925,10.925,0,0,1-7.64-8.816,1,1,0,1,1,1.98-.281,9.015,9.015,0,0,0,6.221,7.177,1,1,0,0,1-.28,1.96Z"/><path d="M60,127a6,6,0,1,1,6-6A6.009,6.009,0,0,1,60,127Zm0-10a4,4,0,1,0,4,4A4,4,0,0,0,60,117Z"/><path d="M105.175,126.749a6,6,0,1,1,6-6A6.009,6.009,0,0,1,105.175,126.749Zm0-10a4,4,0,1,0,4,4A4,4,0,0,0,105.175,116.749Z"/><path d="M33,79H7a1,1,0,0,1,0-2H33a1,1,0,0,1,0,2Z"/><path d="M33,69H18a1,1,0,0,1,0-2H33a1,1,0,0,1,0,2Z"/><path d="M126,47a24.741,24.741,0,0,0-.064-.316.9.9,0,0,0-.081-.172.954.954,0,0,0-.1-.155,1.021,1.021,0,0,0-.141-.13.811.811,0,0,0-.343-.174,1.125,1.125,0,0,0-.115-.042c-.026,0-.05.006-.076,0S125.027,46,125,46h-7.026a34.9,34.9,0,0,0-11.021-24.485.929.929,0,0,0-.116-.135c-.017-.014-.038-.016-.055-.028a34.915,34.915,0,0,0-47.565,0c-.016.011-.037.014-.053.027a.857.857,0,0,0-.111.13A34.9,34.9,0,0,0,48.026,46h-7.24l-2.8-15.182a1,1,0,0,0-.715-.782l-18-5a1,1,0,0,0-.536,1.928L36.13,31.8,47.921,95.666,44.293,99.3A1,1,0,0,0,44,100v10a1,1,0,0,0,1,1h71a1,1,0,0,0,0-2H46v-8.586L49.414,97H107a1,1,0,0,0,.641-.232l12-10a1.006,1.006,0,0,0,.347-.616l6-39c0-.026,0-.05,0-.077S126,47.029,126,47Zm-10.025-1H101.166a60.186,60.186,0,0,0-2.572-17.054,26.483,26.483,0,0,0,7.667-5.33A32.9,32.9,0,0,1,115.975,46ZM67.913,66.575C69.95,72.334,72.882,76.8,76.356,79.33a32.935,32.935,0,0,1-15.407-7.8A24.714,24.714,0,0,1,67.913,66.575ZM59.5,70.141A32.892,32.892,0,0,1,50.025,48H64.834a60.561,60.561,0,0,0,2.442,16.62A26.111,26.111,0,0,0,59.5,70.141Zm10.266-4.4A34.244,34.244,0,0,1,82,63.287V79.576C76.947,78.95,72.516,73.625,69.766,65.744Zm-.631-1.939a58.833,58.833,0,0,1-2.3-15.8H82V61.287A36.475,36.475,0,0,0,69.135,63.805ZM82,46H66.834a58.434,58.434,0,0,1,2.438-16.245A36.512,36.512,0,0,0,82,32.22Zm2,2H99.166a58.825,58.825,0,0,1-2.3,15.8A36.472,36.472,0,0,0,84,61.287Zm0,15.285a34.241,34.241,0,0,1,12.234,2.456C93.484,73.625,89.053,78.95,84,79.576Zm14.087,3.287a24.69,24.69,0,0,1,6.965,4.953,32.935,32.935,0,0,1-15.408,7.8C93.119,76.8,96.05,72.333,98.087,66.574Zm.637-1.953A60.516,60.516,0,0,0,101.166,48h14.809A32.891,32.891,0,0,1,106.5,70.14,26.1,26.1,0,0,0,98.724,64.621Zm6.069-42.369a24.988,24.988,0,0,1-6.859,4.766c-2.03-5.56-4.9-9.878-8.291-12.345A32.929,32.929,0,0,1,104.793,22.252ZM84,14.428c4.962.614,9.324,5.759,12.084,13.407A34.353,34.353,0,0,1,84,30.22ZM84,32.22a36.512,36.512,0,0,0,12.728-2.463A58.434,58.434,0,0,1,99.166,46H84Zm-2-2a34.31,34.31,0,0,1-12.081-2.395c2.76-7.642,7.121-12.783,12.081-13.4ZM76.357,14.673c-3.388,2.466-6.257,6.78-8.287,12.334a25.2,25.2,0,0,1-6.859-4.758A32.92,32.92,0,0,1,76.357,14.673ZM59.739,23.618a26.523,26.523,0,0,0,7.667,5.33A60.186,60.186,0,0,0,64.834,46H50.025A32.9,32.9,0,0,1,59.739,23.618Zm58.33,61.857L106.638,95H49.832L41.155,48h6.87a34.989,34.989,0,0,0,69.95,0h5.859Z"/><path d="M132.063,31a1,1,0,0,1-.745-.333L120.692,18.8a1,1,0,0,1,.531-1.644l15.562-3.418a1,1,0,0,1,1.166,1.284l-4.936,15.291a1,1,0,0,1-.744.671A.974.974,0,0,1,132.063,31Zm-8.738-12.264,8.321,9.3,3.867-11.976Z"/></svg>