<svg xmlns="http://www.w3.org/2000/svg" viewBox="0 0 32 22.2"><path fill="#cdb184" d="M18.7 20.97a3.23 3.23 0 0 1-.7-1.87h-6a3.23 3.23 0 0 1-.68 1.9c-.65.67-1.67 1.23.1 1.23h7.18c1.77-.03.75-.59.1-1.26zm9.76-14.13v9.37H1.29V1.1h27.17l.93-.94a.9.9 0 0 0-.52-.17H1a.9.9 0 0 0-1 .85v16.94a.94.94 0 0 0 1 .83h27.87a.87.87 0 0 0 .88-.83V5.55z"></path><path fill="#cdb184" d="M31.78.65a.73.73 0 0 0-1 0L25.39 6a1.54 1.54 0 0 0-.3 0 1.4 1.4 0 0 0-1.39 1.4c0 .77-1.08 1.7-.31 1.7s3.09-.13 3.09-1.7a1.12 1.12 0 0 0 0-.32l5.3-5.38a.74.74 0 0 0 0-1.05z"></path></svg>