<svg xmlns="http://www.w3.org/2000/svg" viewBox="0 0 144 144"><rect opacity="0" x="-0.488" width="144" height="144" fill="#fff"/><path d="M39.871,23.232H89.464l19.407,19.407V113.8h-69Z" class="sgmaincolor"/><path d="M120.632,42.539a.689.689,0,0,0-.177-.465.971.971,0,0,0-.078-.122l-.015-.016-.006-.007L102.049,22.546l-.01-.007a.971.971,0,0,0-.23-.161.771.771,0,0,0-.1-.065.13.13,0,0,0-.021,0,.991.991,0,0,0-.369-.077H39.871a1,1,0,0,0-1,1V113.8a1,1,0,0,0,1,1h79.78a1,1,0,0,0,1-1V42.639C120.652,42.6,120.635,42.573,120.632,42.539ZM102.324,25.748l15.007,15.891h-8.046l-6.961-6.961Zm-2-1.516v8.446l-8.446-8.446Zm-9.86,1.414,10.145,10.146.018.017,5.83,5.83H90.464Zm-2-1.414V42.639a1,1,0,0,0,1,1h18.407V90.156h-67V24.232ZM40.871,112.8V92.156h67V112.8Zm77.78,0h-8.78V43.639h8.78Z"/><path d="M69.213,97.435H71.37v7.246a3.459,3.459,0,0,1-.443,1.764,2.989,2.989,0,0,1-1.247,1.182,3.893,3.893,0,0,1-1.818.417,3.7,3.7,0,0,1-2.588-.845,3.069,3.069,0,0,1-.927-2.389h2.171a1.679,1.679,0,0,0,.323,1.135,1.3,1.3,0,0,0,1.021.367,1.233,1.233,0,0,0,.984-.424,1.8,1.8,0,0,0,.367-1.207Z"/><path d="M79.012,105.154a1.106,1.106,0,0,0-.431-.937,5.688,5.688,0,0,0-1.553-.691,10.99,10.99,0,0,1-1.776-.714,2.9,2.9,0,0,1-1.783-2.595,2.522,2.522,0,0,1,.479-1.513,3.113,3.113,0,0,1,1.373-1.039,5.161,5.161,0,0,1,2.009-.374,4.717,4.717,0,0,1,2,.406,3.189,3.189,0,0,1,1.362,1.147,3,3,0,0,1,.485,1.681H79.018a1.411,1.411,0,0,0-.452-1.117,1.867,1.867,0,0,0-1.273-.4,1.977,1.977,0,0,0-1.228.335,1.051,1.051,0,0,0-.44.88,1.009,1.009,0,0,0,.515.855,5.835,5.835,0,0,0,1.513.648,6.529,6.529,0,0,1,2.681,1.372,2.735,2.735,0,0,1,.841,2.042,2.514,2.514,0,0,1-1.028,2.13,4.5,4.5,0,0,1-2.768.773,5.375,5.375,0,0,1-2.2-.441,3.488,3.488,0,0,1-1.513-1.212,3.105,3.105,0,0,1-.52-1.783H75.31q0,1.734,2.069,1.733a2.021,2.021,0,0,0,1.2-.313A1.02,1.02,0,0,0,79.012,105.154Z"/><path d="M68.764,68.139a5.961,5.961,0,0,1-3.193-1.971A5.722,5.722,0,0,1,64.5,62.544V60.16q0-2.91-2.54-2.911V55.512q2.541,0,2.54-2.9V50.121a5.7,5.7,0,0,1,1.072-3.54,5.968,5.968,0,0,1,3.193-1.959L69.219,46q-2.5.8-2.5,4.181V52.6a3.916,3.916,0,0,1-2,3.786,3.961,3.961,0,0,1,2,3.821v2.468q.036,3.294,2.5,4.085Z"/><path d="M73.7,67.228l-1.258-.863a5.777,5.777,0,0,0,1.174-3.234v-2h2.169v1.736a5.463,5.463,0,0,1-.594,2.42A5.668,5.668,0,0,1,73.7,67.228Zm-.419-15.214a1.382,1.382,0,0,1,.342-.958,1.3,1.3,0,0,1,1.023-.384,1.338,1.338,0,0,1,1.036.384,1.359,1.359,0,0,1,.354.958,1.289,1.289,0,0,1-.354.923,1.365,1.365,0,0,1-1.036.371,1.232,1.232,0,0,1-1.365-1.294Z"/><path d="M79.816,66.761q2.432-.78,2.516-3.965V60.16A3.77,3.77,0,0,1,84.5,56.387a3.745,3.745,0,0,1-2.168-3.774V50.181q0-3.378-2.5-4.181l.455-1.378a5.988,5.988,0,0,1,3.185,1.947,5.624,5.624,0,0,1,1.078,3.564v2.515q0,2.865,2.54,2.864v1.737q-2.538,0-2.54,2.911v2.42a5.6,5.6,0,0,1-1.084,3.606,6.069,6.069,0,0,1-3.179,1.953Z"/><path d="M68.764,68.139a5.961,5.961,0,0,1-3.193-1.971A5.722,5.722,0,0,1,64.5,62.544V60.16q0-2.91-2.54-2.911V55.512q2.541,0,2.54-2.9V50.121a5.7,5.7,0,0,1,1.072-3.54,5.968,5.968,0,0,1,3.193-1.959L69.219,46q-2.5.8-2.5,4.181V52.6a3.916,3.916,0,0,1-2,3.786,3.961,3.961,0,0,1,2,3.821v2.468q.036,3.294,2.5,4.085Z" fill="none"/><path d="M73.7,67.228l-1.258-.863a5.777,5.777,0,0,0,1.174-3.234v-2h2.169v1.736a5.463,5.463,0,0,1-.594,2.42A5.668,5.668,0,0,1,73.7,67.228Zm-.419-15.214a1.382,1.382,0,0,1,.342-.958,1.3,1.3,0,0,1,1.023-.384,1.338,1.338,0,0,1,1.036.384,1.359,1.359,0,0,1,.354.958,1.289,1.289,0,0,1-.354.923,1.365,1.365,0,0,1-1.036.371,1.232,1.232,0,0,1-1.365-1.294Z" fill="none"/><path d="M79.816,66.761q2.432-.78,2.516-3.965V60.16A3.77,3.77,0,0,1,84.5,56.387a3.745,3.745,0,0,1-2.168-3.774V50.181q0-3.378-2.5-4.181l.455-1.378a5.988,5.988,0,0,1,3.185,1.947,5.624,5.624,0,0,1,1.078,3.564v2.515q0,2.865,2.54,2.864v1.737q-2.538,0-2.54,2.911v2.42a5.6,5.6,0,0,1-1.084,3.606,6.069,6.069,0,0,1-3.179,1.953Z" fill="none"/><path d="M19.808,29.98a7.427,7.427,0,1,1,7.427-7.426A7.436,7.436,0,0,1,19.808,29.98Zm0-12.853a5.427,5.427,0,1,0,5.427,5.427A5.434,5.434,0,0,0,19.808,17.127Z"/><path d="M7.582,17.126a1,1,0,0,1-.931-1.365,11.776,11.776,0,0,1,9.941-7.393,1,1,0,0,1,.162,1.994,9.761,9.761,0,0,0-8.242,6.129A1,1,0,0,1,7.582,17.126Z"/><path d="M30.222,90.77H9.738a1,1,0,0,1,0-2H30.222a1,1,0,0,1,0,2Z"/><path d="M18.363,82.145a1,1,0,0,1,0-2l11.863-.006h0a1,1,0,0,1,0,2l-11.863.006Z"/><path d="M131.574,136A7.427,7.427,0,1,1,139,128.573,7.436,7.436,0,0,1,131.574,136Zm0-12.854A5.427,5.427,0,1,0,137,128.573,5.434,5.434,0,0,0,131.574,123.146Z"/><path d="M24.923,131.254a.976.976,0,0,1-.132-.009L8.449,129.079a1,1,0,0,1-.658-1.6l10.027-12.913a1,1,0,0,1,1.713.226l6.314,15.079a1,1,0,0,1-.922,1.387Zm-14.484-3.929,12.889,1.709-4.981-11.893Z"/></svg>