<svg xmlns="http://www.w3.org/2000/svg" viewBox="0 0 128 128"><circle cx="65.169" cy="86.216" r="23.4" fill="#edddc5"></circle><path d="M63.649,113.15a27.42,27.42,0,1,1,27.42-27.42A27.451,27.451,0,0,1,63.649,113.15Zm0-51.84a24.42,24.42,0,1,0,24.42,24.42A24.448,24.448,0,0,0,63.649,61.31Z" fill="#c1aa95"></path><path d="M95.87,87.554a1.5,1.5,0,0,1,0-3c14.356,0,16.5-10.338,16.5-16.5,0-7.125-6.048-13.419-15.048-15.663l-1.432-.357.334-1.438a21.014,21.014,0,0,0,.546-4.742c0-13.4-12.786-24.3-28.5-24.3-9.678,0-18.615,4.143-23.907,11.083l-.668.876-1.035-.375a12.833,12.833,0,0,0-17.175,13.75l.14,1.091-1,.46c-7.8,3.592-12.456,9.8-12.456,16.615,0,12.939,6.359,19.5,18.9,19.5a1.5,1.5,0,1,1,0,3c-14.122,0-21.9-7.991-21.9-22.5,0-7.719,4.925-14.71,13.232-18.874-.021-.32-.031-.624-.031-.926a15.917,15.917,0,0,1,15.9-15.9,15.706,15.706,0,0,1,4.373.625c5.918-7.173,15.411-11.425,25.627-11.425,17.369,0,31.5,12.247,31.5,27.3a23.858,23.858,0,0,1-.34,4.005c9.593,2.88,15.94,10.053,15.94,18.2C115.37,80.446,108.262,87.554,95.87,87.554Z" fill="#c1aa95"></path><path d="M18.636,122.1a1.217,1.217,0,0,1-1.217-1.218,9.576,9.576,0,0,0-9.566-9.565,1.217,1.217,0,0,1,0-2.434,9.577,9.577,0,0,0,9.566-9.566,1.218,1.218,0,0,1,2.435,0,9.576,9.576,0,0,0,9.564,9.566,1.217,1.217,0,1,1,0,2.434,9.575,9.575,0,0,0-9.564,9.565A1.218,1.218,0,0,1,18.636,122.1Zm-5.519-12a12.086,12.086,0,0,1,5.519,5.518,12.086,12.086,0,0,1,5.519-5.518,12.084,12.084,0,0,1-5.519-5.519A12.084,12.084,0,0,1,13.117,110.1Z" fill="#e4cdac"></path><path d="M119.543,21.565a6,6,0,1,1-7.885-3.136,6,6,0,0,1,7.885,3.136" fill="#e4cdac"></path><path d="M117.947,106.032a4,4,0,1,1-5.257-2.09,4,4,0,0,1,5.257,2.09" fill="#e4cdac"></path><path d="M26.947,15.032a4,4,0,1,1-5.257-2.09,4,4,0,0,1,5.257,2.09" fill="#e4cdac"></path><path d="M102.732,116.327a3,3,0,1,1-3.943-1.568,3,3,0,0,1,3.943,1.568" fill="#e4cdac"></path><path d="M51.731,82.217a1.528,1.528,0,0,1-.458-.071A1.5,1.5,0,0,1,50.3,80.26a14.048,14.048,0,0,1,26.759,0,1.5,1.5,0,1,1-2.857.914,11.048,11.048,0,0,0-21.044,0A1.5,1.5,0,0,1,51.731,82.217Z" fill="#c1aa95"></path><path d="M76.937,82.832l-8.7-2a1.5,1.5,0,1,1,.671-2.924l5.776,1.324,1.36-5.933a1.5,1.5,0,1,1,2.923.67Z" fill="#c1aa95"></path><path d="M63.617,100.965A14,14,0,0,1,50.238,91.2a1.5,1.5,0,1,1,2.857-.914,11.048,11.048,0,0,0,21.044,0A1.5,1.5,0,0,1,77,91.2,14,14,0,0,1,63.617,100.965Z" fill="#c1aa95"></path><path d="M49.8,99.322a1.443,1.443,0,0,1-.336-.038,1.5,1.5,0,0,1-1.127-1.8l2.028-8.857,8.7,1.994a1.5,1.5,0,0,1-.669,2.924l-5.777-1.324-1.359,5.933A1.5,1.5,0,0,1,49.8,99.322Z" fill="#c1aa95"></path></svg>