<svg id="b43b388c-2a8a-4f80-93ec-12c6936a46b4" data-name="Layer 1" xmlns="http://www.w3.org/2000/svg" viewBox="0 0 300 240"><polygon points="147.02 109.33 148.306 107.85 147.02 106.371 145.733 107.85 147.02 109.33" fill="#dcdcdc"/><polygon points="147.02 101.066 148.306 99.586 147.02 98.107 145.733 99.586 147.02 101.066" fill="#dcdcdc"/><polygon points="147.02 92.801 148.306 91.322 147.02 89.842 145.733 91.322 147.02 92.801" fill="#dcdcdc"/><polygon points="147.02 84.537 148.306 83.058 147.02 81.578 145.733 83.058 147.02 84.537" fill="#dcdcdc"/><polygon points="147.02 76.273 148.306 74.793 147.02 73.314 145.733 74.793 147.02 76.273" fill="#dcdcdc"/><polygon points="154.211 106.371 152.924 107.85 154.211 109.33 155.497 107.85 154.211 106.371" fill="#dcdcdc"/><polygon points="154.211 98.107 152.924 99.586 154.211 101.066 155.497 99.586 154.211 98.107" fill="#dcdcdc"/><polygon points="154.211 89.842 152.924 91.322 154.211 92.801 155.497 91.322 154.211 89.842" fill="#dcdcdc"/><polygon points="154.211 81.578 152.924 83.058 154.211 84.537 155.497 83.058 154.211 81.578" fill="#dcdcdc"/><polygon points="154.211 73.314 152.924 74.793 154.211 76.273 155.497 74.793 154.211 73.314" fill="#dcdcdc"/><polygon points="161.402 106.371 160.115 107.85 161.402 109.33 162.691 107.85 161.402 106.371" fill="#dcdcdc"/><polygon points="161.402 98.107 160.115 99.586 161.402 101.066 162.691 99.586 161.402 98.107" fill="#dcdcdc"/><polygon points="161.402 89.842 160.115 91.322 161.402 92.801 162.691 91.322 161.402 89.842" fill="#dcdcdc"/><polygon points="161.402 81.578 160.115 83.058 161.402 84.537 162.691 83.058 161.402 81.578" fill="#dcdcdc"/><polygon points="162.69 74.793 161.402 73.314 160.115 74.793 161.402 76.273 162.69 74.793" fill="#dcdcdc"/><polygon points="168.594 106.371 167.307 107.85 168.594 109.33 169.881 107.85 168.594 106.371" fill="#dcdcdc"/><polygon points="168.594 98.107 167.307 99.586 168.594 101.066 169.881 99.586 168.594 98.107" fill="#dcdcdc"/><polygon points="168.594 89.842 167.307 91.322 168.594 92.801 169.881 91.322 168.594 89.842" fill="#dcdcdc"/><polygon points="168.594 81.578 167.307 83.058 168.594 84.537 169.881 83.058 168.594 81.578" fill="#dcdcdc"/><polygon points="168.594 73.314 167.307 74.793 168.594 76.273 169.881 74.793 168.594 73.314" fill="#dcdcdc"/><polygon points="175.785 106.371 174.498 107.85 175.785 109.33 177.072 107.85 175.785 106.371" fill="#dcdcdc"/><polygon points="175.785 98.107 174.498 99.586 175.785 101.066 177.072 99.586 175.785 98.107" fill="#dcdcdc"/><polygon points="175.785 89.842 174.498 91.322 175.785 92.801 177.072 91.322 175.785 89.842" fill="#dcdcdc"/><polygon points="175.785 81.578 174.498 83.058 175.785 84.537 177.072 83.058 175.785 81.578" fill="#dcdcdc"/><polygon points="175.785 73.314 174.498 74.793 175.785 76.273 177.072 74.793 175.785 73.314" fill="#dcdcdc"/><polygon points="182.977 106.371 181.688 107.85 182.977 109.33 184.264 107.85 182.977 106.371" fill="#dcdcdc"/><polygon points="182.977 98.107 181.688 99.586 182.977 101.066 184.264 99.586 182.977 98.107" fill="#dcdcdc"/><polygon points="182.977 89.842 181.688 91.322 182.977 92.801 184.264 91.322 182.977 89.842" fill="#dcdcdc"/><polygon points="182.977 81.578 181.688 83.058 182.977 84.537 184.264 83.058 182.977 81.578" fill="#dcdcdc"/><polygon points="182.977 73.314 181.689 74.793 182.977 76.273 184.264 74.793 182.977 73.314" fill="#dcdcdc"/><polygon points="190.168 106.371 188.881 107.85 190.168 109.33 191.455 107.85 190.168 106.371" fill="#dcdcdc"/><polygon points="190.168 98.107 188.881 99.586 190.168 101.066 191.455 99.586 190.168 98.107" fill="#dcdcdc"/><polygon points="190.168 89.842 188.881 91.322 190.168 92.801 191.455 91.322 190.168 89.842" fill="#dcdcdc"/><polygon points="190.168 81.578 188.881 83.058 190.168 84.537 191.455 83.058 190.168 81.578" fill="#dcdcdc"/><polygon points="190.168 73.314 188.881 74.793 190.168 76.273 191.455 74.793 190.168 73.314" fill="#dcdcdc"/><polygon points="197.359 106.371 196.072 107.85 197.359 109.33 198.648 107.85 197.359 106.371" fill="#dcdcdc"/><polygon points="197.359 98.107 196.072 99.586 197.359 101.066 198.648 99.586 197.359 98.107" fill="#dcdcdc"/><polygon points="197.359 89.842 196.072 91.322 197.359 92.801 198.648 91.322 197.359 89.842" fill="#dcdcdc"/><polygon points="197.359 81.578 196.072 83.058 197.359 84.537 198.648 83.058 197.359 81.578" fill="#dcdcdc"/><polygon points="198.647 74.793 197.359 73.314 196.072 74.793 197.359 76.273 198.647 74.793" fill="#dcdcdc"/><polygon points="204.551 106.371 203.264 107.85 204.551 109.33 205.838 107.85 204.551 106.371" fill="#dcdcdc"/><polygon points="204.551 98.107 203.264 99.586 204.551 101.066 205.838 99.586 204.551 98.107" fill="#dcdcdc"/><polygon points="204.551 89.842 203.264 91.322 204.551 92.801 205.838 91.322 204.551 89.842" fill="#dcdcdc"/><polygon points="204.551 81.578 203.264 83.058 204.551 84.537 205.838 83.058 204.551 81.578" fill="#dcdcdc"/><polygon points="204.551 73.314 203.264 74.793 204.551 76.273 205.838 74.793 204.551 73.314" fill="#dcdcdc"/><polygon points="211.742 106.371 210.455 107.85 211.742 109.33 213.029 107.85 211.742 106.371" fill="#dcdcdc"/><polygon points="211.742 98.107 210.455 99.586 211.742 101.066 213.029 99.586 211.742 98.107" fill="#dcdcdc"/><polygon points="211.742 89.842 210.455 91.322 211.742 92.801 213.029 91.322 211.742 89.842" fill="#dcdcdc"/><polygon points="211.742 81.578 210.455 83.058 211.742 84.537 213.029 83.058 211.742 81.578" fill="#dcdcdc"/><polygon points="211.742 73.314 210.455 74.793 211.742 76.273 213.029 74.793 211.742 73.314" fill="#dcdcdc"/><polygon points="218.934 109.33 220.221 107.85 218.934 106.371 217.645 107.85 218.934 109.33" fill="#dcdcdc"/><polygon points="218.934 101.066 220.221 99.586 218.934 98.107 217.645 99.586 218.934 101.066" fill="#dcdcdc"/><polygon points="218.934 92.801 220.221 91.322 218.934 89.842 217.645 91.322 218.934 92.801" fill="#dcdcdc"/><polygon points="218.934 84.537 220.221 83.058 218.934 81.578 217.645 83.058 218.934 84.537" fill="#dcdcdc"/><polygon points="217.646 74.793 218.934 76.273 220.221 74.793 218.934 73.314 217.646 74.793" fill="#dcdcdc"/><polygon points="226.125 106.371 224.839 107.85 226.125 109.33 227.412 107.85 226.125 106.371" fill="#dcdcdc"/><polygon points="226.125 98.107 224.839 99.586 226.125 101.066 227.412 99.586 226.125 98.107" fill="#dcdcdc"/><polygon points="226.125 89.842 224.839 91.322 226.125 92.801 227.412 91.322 226.125 89.842" fill="#dcdcdc"/><polygon points="226.125 81.578 224.839 83.058 226.125 84.537 227.412 83.058 226.125 81.578" fill="#dcdcdc"/><polygon points="226.125 73.314 224.839 74.793 226.125 76.273 227.412 74.793 226.125 73.314" fill="#dcdcdc"/><polygon points="233.316 106.371 232.03 107.85 233.316 109.33 234.606 107.85 233.316 106.371" fill="#dcdcdc"/><polygon points="233.316 98.107 232.03 99.586 233.316 101.066 234.606 99.586 233.316 98.107" fill="#dcdcdc"/><polygon points="233.316 89.842 232.03 91.322 233.316 92.801 234.606 91.322 233.316 89.842" fill="#dcdcdc"/><polygon points="233.316 81.578 232.03 83.058 233.316 84.537 234.606 83.058 233.316 81.578" fill="#dcdcdc"/><polygon points="234.604 74.793 233.316 73.314 232.03 74.793 233.316 76.273 234.604 74.793" fill="#dcdcdc"/><polygon points="147.02 68.182 148.306 66.702 147.02 65.223 145.733 66.702 147.02 68.182" fill="#dcdcdc"/><polygon points="147.02 59.917 148.306 58.438 147.02 56.958 145.733 58.438 147.02 59.917" fill="#dcdcdc"/><polygon points="147.02 51.653 148.306 50.173 147.02 48.694 145.733 50.173 147.02 51.653" fill="#dcdcdc"/><polygon points="147.02 43.389 148.306 41.909 147.02 40.43 145.733 41.909 147.02 43.389" fill="#dcdcdc"/><polygon points="147.02 35.124 148.306 33.645 147.02 32.165 145.733 33.645 147.02 35.124" fill="#dcdcdc"/><polygon points="148.306 25.381 147.02 23.901 145.733 25.381 147.02 26.86 148.306 25.381" fill="#dcdcdc"/><polygon points="145.733 17.116 147.02 18.596 148.306 17.116 147.02 15.637 145.733 17.116" fill="#dcdcdc"/><polygon points="154.211 65.223 152.924 66.702 154.211 68.182 155.497 66.702 154.211 65.223" fill="#dcdcdc"/><polygon points="154.211 56.958 152.924 58.438 154.211 59.917 155.497 58.438 154.211 56.958" fill="#dcdcdc"/><polygon points="154.211 48.694 152.924 50.173 154.211 51.653 155.497 50.173 154.211 48.694" fill="#dcdcdc"/><polygon points="154.211 40.43 152.924 41.909 154.211 43.389 155.497 41.909 154.211 40.43" fill="#dcdcdc"/><polygon points="154.211 32.165 152.924 33.645 154.211 35.124 155.497 33.645 154.211 32.165" fill="#dcdcdc"/><polygon points="154.211 23.901 152.924 25.381 154.211 26.86 155.497 25.381 154.211 23.901" fill="#dcdcdc"/><polygon points="154.211 15.637 152.924 17.116 154.211 18.596 155.497 17.116 154.211 15.637" fill="#dcdcdc"/><polygon points="161.402 65.223 160.115 66.702 161.402 68.182 162.691 66.702 161.402 65.223" fill="#dcdcdc"/><polygon points="161.402 56.958 160.115 58.438 161.402 59.917 162.691 58.438 161.402 56.958" fill="#dcdcdc"/><polygon points="161.402 48.694 160.115 50.173 161.402 51.653 162.691 50.173 161.402 48.694" fill="#dcdcdc"/><polygon points="161.402 40.43 160.115 41.909 161.402 43.389 162.691 41.909 161.402 40.43" fill="#dcdcdc"/><polygon points="161.402 32.165 160.115 33.645 161.402 35.124 162.691 33.645 161.402 32.165" fill="#dcdcdc"/><polygon points="161.402 23.901 160.115 25.381 161.402 26.86 162.691 25.381 161.402 23.901" fill="#dcdcdc"/><polygon points="161.402 15.637 160.115 17.116 161.402 18.596 162.691 17.116 161.402 15.637" fill="#dcdcdc"/><polygon points="168.594 65.223 167.307 66.702 168.594 68.182 169.881 66.702 168.594 65.223" fill="#dcdcdc"/><polygon points="168.594 56.958 167.307 58.438 168.594 59.917 169.881 58.438 168.594 56.958" fill="#dcdcdc"/><polygon points="168.594 48.694 167.307 50.173 168.594 51.653 169.881 50.173 168.594 48.694" fill="#dcdcdc"/><polygon points="168.594 40.43 167.307 41.909 168.594 43.389 169.881 41.909 168.594 40.43" fill="#dcdcdc"/><polygon points="168.594 32.165 167.307 33.645 168.594 35.124 169.881 33.645 168.594 32.165" fill="#dcdcdc"/><polygon points="168.594 23.901 167.307 25.381 168.594 26.86 169.881 25.381 168.594 23.901" fill="#dcdcdc"/><polygon points="168.594 15.637 167.307 17.116 168.594 18.596 169.881 17.116 168.594 15.637" fill="#dcdcdc"/><polygon points="175.785 65.223 174.498 66.702 175.785 68.182 177.072 66.702 175.785 65.223" fill="#dcdcdc"/><polygon points="175.785 56.958 174.498 58.438 175.785 59.917 177.072 58.438 175.785 56.958" fill="#dcdcdc"/><polygon points="175.785 48.694 174.498 50.173 175.785 51.653 177.072 50.173 175.785 48.694" fill="#dcdcdc"/><polygon points="175.785 40.43 174.498 41.909 175.785 43.389 177.072 41.909 175.785 40.43" fill="#dcdcdc"/><polygon points="175.785 32.165 174.498 33.645 175.785 35.124 177.072 33.645 175.785 32.165" fill="#dcdcdc"/><polygon points="175.785 23.901 174.498 25.381 175.785 26.86 177.072 25.381 175.785 23.901" fill="#dcdcdc"/><path d="M175.785,18.6l1.287-1.48-.217-.249c-.578-.157-1.156-.315-1.738-.462l-.619.711Z" fill="#dcdcdc"/><polygon points="182.977 65.223 181.688 66.702 182.977 68.182 184.264 66.702 182.977 65.223" fill="#dcdcdc"/><polygon points="182.977 56.958 181.688 58.438 182.977 59.917 184.264 58.438 182.977 56.958" fill="#dcdcdc"/><polygon points="182.977 48.694 181.688 50.173 182.977 51.653 184.264 50.173 182.977 48.694" fill="#dcdcdc"/><polygon points="182.977 40.43 181.688 41.909 182.977 43.389 184.264 41.909 182.977 40.43" fill="#dcdcdc"/><polygon points="182.977 32.165 181.688 33.645 182.977 35.124 184.264 33.645 182.977 32.165" fill="#dcdcdc"/><polygon points="182.977 23.901 181.688 25.381 182.977 26.86 184.264 25.381 182.977 23.901" fill="#dcdcdc"/><polygon points="190.168 65.223 188.881 66.702 190.168 68.182 191.455 66.702 190.168 65.223" fill="#dcdcdc"/><polygon points="190.168 56.958 188.881 58.438 190.168 59.917 191.455 58.438 190.168 56.958" fill="#dcdcdc"/><polygon points="190.168 48.694 188.881 50.173 190.168 51.653 191.455 50.173 190.168 48.694" fill="#dcdcdc"/><polygon points="190.168 40.43 188.881 41.909 190.168 43.389 191.455 41.909 190.168 40.43" fill="#dcdcdc"/><polygon points="190.168 32.165 188.881 33.645 190.168 35.124 191.455 33.645 190.168 32.165" fill="#dcdcdc"/><polygon points="190.168 23.901 188.881 25.381 190.168 26.86 191.455 25.381 190.168 23.901" fill="#dcdcdc"/><polygon points="197.359 65.223 196.072 66.702 197.359 68.182 198.648 66.702 197.359 65.223" fill="#dcdcdc"/><polygon points="197.359 56.958 196.072 58.438 197.359 59.917 198.648 58.438 197.359 56.958" fill="#dcdcdc"/><polygon points="197.359 48.694 196.072 50.173 197.359 51.653 198.648 50.173 197.359 48.694" fill="#dcdcdc"/><polygon points="197.359 40.43 196.072 41.909 197.359 43.389 198.648 41.909 197.359 40.43" fill="#dcdcdc"/><polygon points="197.359 32.165 196.072 33.645 197.359 35.124 198.648 33.645 197.359 32.165" fill="#dcdcdc"/><path d="M197.359,26.86l1.227-1.408c-.589-.312-1.179-.621-1.774-.922l-.74.851Z" fill="#dcdcdc"/><polygon points="204.551 65.223 203.264 66.702 204.551 68.182 205.838 66.702 204.551 65.223" fill="#dcdcdc"/><polygon points="204.551 56.958 203.264 58.438 204.551 59.917 205.838 58.438 204.551 56.958" fill="#dcdcdc"/><polygon points="204.551 48.694 203.264 50.173 204.551 51.653 205.838 50.173 204.551 48.694" fill="#dcdcdc"/><polygon points="204.551 40.43 203.264 41.909 204.551 43.389 205.838 41.909 204.551 40.43" fill="#dcdcdc"/><polygon points="204.551 32.165 203.264 33.645 204.551 35.124 205.838 33.645 204.551 32.165" fill="#dcdcdc"/><polygon points="211.742 65.223 210.455 66.702 211.742 68.182 213.029 66.702 211.742 65.223" fill="#dcdcdc"/><polygon points="211.742 56.958 210.455 58.438 211.742 59.917 213.029 58.438 211.742 56.958" fill="#dcdcdc"/><polygon points="211.742 48.694 210.455 50.173 211.742 51.653 213.029 50.173 211.742 48.694" fill="#dcdcdc"/><polygon points="211.742 40.43 210.455 41.909 211.742 43.389 213.029 41.909 211.742 40.43" fill="#dcdcdc"/><path d="M210.455,33.645l1.287,1.479.759-.871c-.521-.389-1.047-.77-1.575-1.149Z" fill="#dcdcdc"/><polygon points="218.934 68.182 220.221 66.702 218.934 65.223 217.645 66.702 218.934 68.182" fill="#dcdcdc"/><polygon points="218.934 59.917 220.221 58.438 218.934 56.958 217.645 58.438 218.934 59.917" fill="#dcdcdc"/><polygon points="220.221 50.173 218.934 48.694 217.645 50.173 218.934 51.653 220.221 50.173" fill="#dcdcdc"/><polygon points="217.645 41.909 218.934 43.389 220.221 41.909 218.934 40.43 217.645 41.909" fill="#dcdcdc"/><polygon points="226.125 65.223 224.839 66.702 226.125 68.182 227.412 66.702 226.125 65.223" fill="#dcdcdc"/><polygon points="226.125 56.958 224.839 58.438 226.125 59.917 227.412 58.438 226.125 56.958" fill="#dcdcdc"/><polygon points="226.125 48.694 224.839 50.173 226.125 51.653 227.412 50.173 226.125 48.694" fill="#dcdcdc"/><polygon points="233.316 65.223 232.03 66.702 233.316 68.182 234.606 66.702 233.316 65.223" fill="#dcdcdc"/><polygon points="233.316 56.958 232.03 58.438 233.316 59.917 234.606 58.438 233.316 56.958" fill="#dcdcdc"/><polygon points="240.612 106.371 239.325 107.85 240.612 109.33 241.899 107.85 240.612 106.371" fill="#dcdcdc"/><polygon points="240.612 98.107 239.325 99.586 240.612 101.066 241.899 99.586 240.612 98.107" fill="#dcdcdc"/><polygon points="240.612 89.842 239.325 91.322 240.612 92.801 241.899 91.322 240.612 89.842" fill="#dcdcdc"/><polygon points="240.612 81.578 239.325 83.058 240.612 84.537 241.899 83.058 240.612 81.578" fill="#dcdcdc"/><polygon points="240.612 73.314 239.325 74.793 240.612 76.273 241.899 74.793 240.612 73.314" fill="#dcdcdc"/><polygon points="247.803 106.371 246.516 107.85 247.803 109.33 249.092 107.85 247.803 106.371" fill="#dcdcdc"/><polygon points="247.803 98.107 246.516 99.586 247.803 101.066 249.092 99.586 247.803 98.107" fill="#dcdcdc"/><polygon points="247.803 89.842 246.516 91.322 247.803 92.801 249.092 91.322 247.803 89.842" fill="#dcdcdc"/><path d="M246.516,83.058l1.287,1.479,1.06-1.217c-.106-.3-.207-.593-.316-.887l-.744-.855Z" fill="#dcdcdc"/><path d="M254.365,107.1l-.657.754.834.959Q254.461,107.95,254.365,107.1Z" fill="#dcdcdc"/><path d="M240.612,68.182l.868-1q-.5-.9-1.026-1.779l-1.129,1.3Z" fill="#dcdcdc"/><polygon points="46.287 106.371 45 107.85 46.287 109.33 47.574 107.85 46.287 106.371" fill="#dcdcdc"/><polygon points="46.287 98.107 45 99.586 46.287 101.066 47.574 99.586 46.287 98.107" fill="#dcdcdc"/><path d="M46.287,92.8l1.287-1.479L46.5,90.087q-.318,1.122-.613,2.254Z" fill="#dcdcdc"/><polygon points="53.479 106.371 52.19 107.85 53.479 109.33 54.766 107.85 53.479 106.371" fill="#dcdcdc"/><polygon points="53.479 98.107 52.19 99.586 53.479 101.066 54.766 99.586 53.479 98.107" fill="#dcdcdc"/><polygon points="53.479 89.842 52.19 91.322 53.479 92.801 54.766 91.322 53.479 89.842" fill="#dcdcdc"/><polygon points="53.479 81.578 52.19 83.058 53.479 84.537 54.766 83.058 53.479 81.578" fill="#dcdcdc"/><polygon points="53.479 73.314 52.191 74.793 53.479 76.273 54.766 74.793 53.479 73.314" fill="#dcdcdc"/><polygon points="60.773 106.371 59.486 107.85 60.773 109.33 62.06 107.85 60.773 106.371" fill="#dcdcdc"/><polygon points="60.773 98.107 59.486 99.586 60.773 101.066 62.06 99.586 60.773 98.107" fill="#dcdcdc"/><polygon points="60.773 89.842 59.486 91.322 60.773 92.801 62.06 91.322 60.773 89.842" fill="#dcdcdc"/><polygon points="60.773 81.578 59.486 83.058 60.773 84.537 62.06 83.058 60.773 81.578" fill="#dcdcdc"/><polygon points="60.773 73.314 59.486 74.793 60.773 76.273 62.06 74.793 60.773 73.314" fill="#dcdcdc"/><polygon points="67.965 106.371 66.676 107.85 67.965 109.33 69.252 107.85 67.965 106.371" fill="#dcdcdc"/><polygon points="67.965 98.107 66.676 99.586 67.965 101.066 69.252 99.586 67.965 98.107" fill="#dcdcdc"/><polygon points="67.965 89.842 66.676 91.322 67.965 92.801 69.252 91.322 67.965 89.842" fill="#dcdcdc"/><polygon points="67.965 81.578 66.676 83.058 67.965 84.537 69.252 83.058 67.965 81.578" fill="#dcdcdc"/><polygon points="67.965 73.314 66.677 74.793 67.965 76.273 69.252 74.793 67.965 73.314" fill="#dcdcdc"/><polygon points="75.156 106.371 73.869 107.85 75.156 109.33 76.443 107.85 75.156 106.371" fill="#dcdcdc"/><polygon points="75.156 98.107 73.869 99.586 75.156 101.066 76.443 99.586 75.156 98.107" fill="#dcdcdc"/><polygon points="75.156 89.842 73.869 91.322 75.156 92.801 76.443 91.322 75.156 89.842" fill="#dcdcdc"/><polygon points="75.156 81.578 73.869 83.058 75.156 84.537 76.443 83.058 75.156 81.578" fill="#dcdcdc"/><polygon points="75.156 73.314 73.869 74.793 75.156 76.273 76.443 74.793 75.156 73.314" fill="#dcdcdc"/><polygon points="82.347 106.371 81.06 107.85 82.347 109.33 83.636 107.85 82.347 106.371" fill="#dcdcdc"/><polygon points="82.347 98.107 81.06 99.586 82.347 101.066 83.636 99.586 82.347 98.107" fill="#dcdcdc"/><polygon points="82.347 89.842 81.06 91.322 82.347 92.801 83.636 91.322 82.347 89.842" fill="#dcdcdc"/><polygon points="82.347 81.578 81.06 83.058 82.347 84.537 83.636 83.058 82.347 81.578" fill="#dcdcdc"/><polygon points="83.635 74.793 82.347 73.314 81.06 74.793 82.347 76.273 83.635 74.793" fill="#dcdcdc"/><polygon points="89.539 106.371 88.253 107.85 89.539 109.33 90.826 107.85 89.539 106.371" fill="#dcdcdc"/><polygon points="89.539 98.107 88.253 99.586 89.539 101.066 90.826 99.586 89.539 98.107" fill="#dcdcdc"/><polygon points="89.539 89.842 88.253 91.322 89.539 92.801 90.826 91.322 89.539 89.842" fill="#dcdcdc"/><polygon points="89.539 81.578 88.253 83.058 89.539 84.537 90.826 83.058 89.539 81.578" fill="#dcdcdc"/><polygon points="89.539 73.314 88.253 74.793 89.539 76.273 90.826 74.793 89.539 73.314" fill="#dcdcdc"/><polygon points="96.73 106.371 95.444 107.85 96.73 109.33 98.017 107.85 96.73 106.371" fill="#dcdcdc"/><polygon points="96.73 98.107 95.444 99.586 96.73 101.066 98.017 99.586 96.73 98.107" fill="#dcdcdc"/><polygon points="96.73 89.842 95.444 91.322 96.73 92.801 98.017 91.322 96.73 89.842" fill="#dcdcdc"/><polygon points="96.73 81.578 95.444 83.058 96.73 84.537 98.017 83.058 96.73 81.578" fill="#dcdcdc"/><polygon points="96.73 73.314 95.444 74.793 96.73 76.273 98.017 74.793 96.73 73.314" fill="#dcdcdc"/><polygon points="103.922 106.371 102.635 107.85 103.922 109.33 105.211 107.85 103.922 106.371" fill="#dcdcdc"/><polygon points="103.922 98.107 102.635 99.586 103.922 101.066 105.211 99.586 103.922 98.107" fill="#dcdcdc"/><polygon points="103.922 89.842 102.635 91.322 103.922 92.801 105.211 91.322 103.922 89.842" fill="#dcdcdc"/><polygon points="103.922 81.578 102.635 83.058 103.922 84.537 105.211 83.058 103.922 81.578" fill="#dcdcdc"/><polygon points="105.21 74.793 103.922 73.314 102.635 74.793 103.922 76.273 105.21 74.793" fill="#dcdcdc"/><polygon points="111.114 106.371 109.827 107.85 111.114 109.33 112.401 107.85 111.114 106.371" fill="#dcdcdc"/><polygon points="111.114 98.107 109.827 99.586 111.114 101.066 112.401 99.586 111.114 98.107" fill="#dcdcdc"/><polygon points="111.114 89.842 109.827 91.322 111.114 92.801 112.401 91.322 111.114 89.842" fill="#dcdcdc"/><polygon points="111.114 81.578 109.827 83.058 111.114 84.537 112.401 83.058 111.114 81.578" fill="#dcdcdc"/><polygon points="111.114 73.314 109.827 74.793 111.114 76.273 112.401 74.793 111.114 73.314" fill="#dcdcdc"/><polygon points="118.305 106.371 117.018 107.85 118.305 109.33 119.592 107.85 118.305 106.371" fill="#dcdcdc"/><polygon points="118.305 98.107 117.018 99.586 118.305 101.066 119.592 99.586 118.305 98.107" fill="#dcdcdc"/><polygon points="118.305 89.842 117.018 91.322 118.305 92.801 119.592 91.322 118.305 89.842" fill="#dcdcdc"/><polygon points="118.305 81.578 117.018 83.058 118.305 84.537 119.592 83.058 118.305 81.578" fill="#dcdcdc"/><polygon points="118.305 73.314 117.018 74.793 118.305 76.273 119.592 74.793 118.305 73.314" fill="#dcdcdc"/><polygon points="125.497 106.371 124.208 107.85 125.497 109.33 126.784 107.85 125.497 106.371" fill="#dcdcdc"/><polygon points="125.497 98.107 124.208 99.586 125.497 101.066 126.784 99.586 125.497 98.107" fill="#dcdcdc"/><polygon points="125.497 89.842 124.208 91.322 125.497 92.801 126.784 91.322 125.497 89.842" fill="#dcdcdc"/><polygon points="125.497 81.578 124.208 83.058 125.497 84.537 126.784 83.058 125.497 81.578" fill="#dcdcdc"/><polygon points="125.497 73.314 124.209 74.793 125.497 76.273 126.784 74.793 125.497 73.314" fill="#dcdcdc"/><polygon points="132.688 109.33 133.975 107.85 132.688 106.371 131.401 107.85 132.688 109.33" fill="#dcdcdc"/><polygon points="132.688 101.066 133.975 99.586 132.688 98.107 131.401 99.586 132.688 101.066" fill="#dcdcdc"/><polygon points="132.688 92.801 133.975 91.322 132.688 89.842 131.401 91.322 132.688 92.801" fill="#dcdcdc"/><polygon points="132.688 84.537 133.975 83.058 132.688 81.578 131.401 83.058 132.688 84.537" fill="#dcdcdc"/><polygon points="132.688 76.273 133.975 74.793 132.688 73.314 131.401 74.793 132.688 76.273" fill="#dcdcdc"/><polygon points="139.879 109.33 141.168 107.85 139.879 106.371 138.592 107.85 139.879 109.33" fill="#dcdcdc"/><polygon points="139.879 101.066 141.168 99.586 139.879 98.107 138.592 99.586 139.879 101.066" fill="#dcdcdc"/><polygon points="139.879 92.801 141.168 91.322 139.879 89.842 138.592 91.322 139.879 92.801" fill="#dcdcdc"/><polygon points="139.879 84.537 141.168 83.058 139.879 81.578 138.592 83.058 139.879 84.537" fill="#dcdcdc"/><polygon points="139.879 76.273 141.167 74.793 139.879 73.314 138.592 74.793 139.879 76.273" fill="#dcdcdc"/><polygon points="60.773 65.223 59.486 66.702 60.773 68.182 62.06 66.702 60.773 65.223" fill="#dcdcdc"/><path d="M60.773,59.917l1.287-1.479-.271-.312c-.385.545-.769,1.091-1.144,1.644Z" fill="#dcdcdc"/><polygon points="67.965 65.223 66.676 66.702 67.965 68.182 69.252 66.702 67.965 65.223" fill="#dcdcdc"/><polygon points="67.965 56.958 66.676 58.438 67.965 59.917 69.252 58.438 67.965 56.958" fill="#dcdcdc"/><path d="M67.965,51.653l1.287-1.48-.631-.726c-.432.493-.855.992-1.277,1.492Z" fill="#dcdcdc"/><polygon points="75.156 65.223 73.869 66.702 75.156 68.182 76.443 66.702 75.156 65.223" fill="#dcdcdc"/><polygon points="75.156 56.958 73.869 58.438 75.156 59.917 76.443 58.438 75.156 56.958" fill="#dcdcdc"/><polygon points="75.156 48.694 73.869 50.173 75.156 51.653 76.443 50.173 75.156 48.694" fill="#dcdcdc"/><path d="M75.156,43.389l1.287-1.48-.239-.275q-.711.663-1.411,1.337Z" fill="#dcdcdc"/><polygon points="82.347 65.223 81.06 66.702 82.347 68.182 83.636 66.702 82.347 65.223" fill="#dcdcdc"/><polygon points="82.347 56.958 81.06 58.438 82.347 59.917 83.636 58.438 82.347 56.958" fill="#dcdcdc"/><polygon points="82.347 48.694 81.06 50.173 82.347 51.653 83.636 50.173 82.347 48.694" fill="#dcdcdc"/><polygon points="82.347 40.43 81.06 41.909 82.347 43.389 83.636 41.909 82.347 40.43" fill="#dcdcdc"/><polygon points="89.539 65.223 88.253 66.702 89.539 68.182 90.826 66.702 89.539 65.223" fill="#dcdcdc"/><polygon points="89.539 56.958 88.253 58.438 89.539 59.917 90.826 58.438 89.539 56.958" fill="#dcdcdc"/><polygon points="89.539 48.694 88.253 50.173 89.539 51.653 90.826 50.173 89.539 48.694" fill="#dcdcdc"/><polygon points="89.539 40.43 88.253 41.909 89.539 43.389 90.826 41.909 89.539 40.43" fill="#dcdcdc"/><polygon points="89.539 32.165 88.253 33.645 89.539 35.124 90.826 33.645 89.539 32.165" fill="#dcdcdc"/><polygon points="96.73 65.223 95.444 66.702 96.73 68.182 98.017 66.702 96.73 65.223" fill="#dcdcdc"/><polygon points="96.73 56.958 95.444 58.438 96.73 59.917 98.017 58.438 96.73 56.958" fill="#dcdcdc"/><polygon points="96.73 48.694 95.444 50.173 96.73 51.653 98.017 50.173 96.73 48.694" fill="#dcdcdc"/><polygon points="96.73 40.43 95.444 41.909 96.73 43.389 98.017 41.909 96.73 40.43" fill="#dcdcdc"/><polygon points="96.73 32.165 95.444 33.645 96.73 35.124 98.017 33.645 96.73 32.165" fill="#dcdcdc"/><path d="M96.73,26.86l.334-.383q-.225.124-.449.25Z" fill="#dcdcdc"/><polygon points="103.922 65.223 102.635 66.702 103.922 68.182 105.211 66.702 103.922 65.223" fill="#dcdcdc"/><polygon points="103.922 56.958 102.635 58.438 103.922 59.917 105.211 58.438 103.922 56.958" fill="#dcdcdc"/><polygon points="103.922 48.694 102.635 50.173 103.922 51.653 105.211 50.173 103.922 48.694" fill="#dcdcdc"/><polygon points="103.922 40.43 102.635 41.909 103.922 43.389 105.211 41.909 103.922 40.43" fill="#dcdcdc"/><polygon points="103.922 32.165 102.635 33.645 103.922 35.124 105.211 33.645 103.922 32.165" fill="#dcdcdc"/><polygon points="103.922 23.901 102.635 25.381 103.922 26.86 105.211 25.381 103.922 23.901" fill="#dcdcdc"/><polygon points="111.114 65.223 109.827 66.702 111.114 68.182 112.401 66.702 111.114 65.223" fill="#dcdcdc"/><polygon points="111.114 56.958 109.827 58.438 111.114 59.917 112.401 58.438 111.114 56.958" fill="#dcdcdc"/><polygon points="111.114 48.694 109.827 50.173 111.114 51.653 112.401 50.173 111.114 48.694" fill="#dcdcdc"/><polygon points="111.114 40.43 109.827 41.909 111.114 43.389 112.401 41.909 111.114 40.43" fill="#dcdcdc"/><polygon points="111.114 32.165 109.827 33.645 111.114 35.124 112.401 33.645 111.114 32.165" fill="#dcdcdc"/><polygon points="111.114 23.901 109.827 25.381 111.114 26.86 112.401 25.381 111.114 23.901" fill="#dcdcdc"/><polygon points="118.305 65.223 117.018 66.702 118.305 68.182 119.592 66.702 118.305 65.223" fill="#dcdcdc"/><polygon points="118.305 56.958 117.018 58.438 118.305 59.917 119.592 58.438 118.305 56.958" fill="#dcdcdc"/><polygon points="118.305 48.694 117.018 50.173 118.305 51.653 119.592 50.173 118.305 48.694" fill="#dcdcdc"/><polygon points="118.305 40.43 117.018 41.909 118.305 43.389 119.592 41.909 118.305 40.43" fill="#dcdcdc"/><polygon points="118.305 32.165 117.018 33.645 118.305 35.124 119.592 33.645 118.305 32.165" fill="#dcdcdc"/><polygon points="118.305 23.901 117.018 25.381 118.305 26.86 119.592 25.381 118.305 23.901" fill="#dcdcdc"/><path d="M118.305,18.6l1.231-1.416c-.656.186-1.308.381-1.958.58Z" fill="#dcdcdc"/><polygon points="125.497 65.223 124.208 66.702 125.497 68.182 126.784 66.702 125.497 65.223" fill="#dcdcdc"/><polygon points="125.497 56.958 124.208 58.438 125.497 59.917 126.784 58.438 125.497 56.958" fill="#dcdcdc"/><polygon points="125.497 48.694 124.208 50.173 125.497 51.653 126.784 50.173 125.497 48.694" fill="#dcdcdc"/><polygon points="125.497 40.43 124.208 41.909 125.497 43.389 126.784 41.909 125.497 40.43" fill="#dcdcdc"/><polygon points="125.497 32.165 124.208 33.645 125.497 35.124 126.784 33.645 125.497 32.165" fill="#dcdcdc"/><polygon points="125.497 23.901 124.208 25.381 125.497 26.86 126.784 25.381 125.497 23.901" fill="#dcdcdc"/><path d="M124.208,17.116,125.5,18.6l1.287-1.48-1.258-1.446-.072.016Z" fill="#dcdcdc"/><polygon points="132.688 68.182 133.975 66.702 132.688 65.223 131.401 66.702 132.688 68.182" fill="#dcdcdc"/><polygon points="132.688 59.917 133.975 58.438 132.688 56.958 131.401 58.438 132.688 59.917" fill="#dcdcdc"/><polygon points="132.688 51.653 133.975 50.173 132.688 48.694 131.401 50.173 132.688 51.653" fill="#dcdcdc"/><polygon points="132.688 43.389 133.975 41.909 132.688 40.43 131.401 41.909 132.688 43.389" fill="#dcdcdc"/><polygon points="132.688 35.124 133.975 33.645 132.688 32.165 131.401 33.645 132.688 35.124" fill="#dcdcdc"/><polygon points="132.688 26.86 133.975 25.381 132.688 23.901 131.401 25.381 132.688 26.86" fill="#dcdcdc"/><polygon points="133.975 17.116 132.688 15.637 131.401 17.116 132.688 18.596 133.975 17.116" fill="#dcdcdc"/><polygon points="139.879 68.182 141.168 66.702 139.879 65.223 138.592 66.702 139.879 68.182" fill="#dcdcdc"/><polygon points="139.879 59.917 141.168 58.438 139.879 56.958 138.592 58.438 139.879 59.917" fill="#dcdcdc"/><polygon points="139.879 51.653 141.168 50.173 139.879 48.694 138.592 50.173 139.879 51.653" fill="#dcdcdc"/><polygon points="139.879 43.389 141.168 41.909 139.879 40.43 138.592 41.909 139.879 43.389" fill="#dcdcdc"/><polygon points="139.879 35.124 141.168 33.645 139.879 32.165 138.592 33.645 139.879 35.124" fill="#dcdcdc"/><polygon points="139.879 26.86 141.168 25.381 139.879 23.901 138.592 25.381 139.879 26.86" fill="#dcdcdc"/><polygon points="141.168 17.116 139.879 15.637 138.592 17.116 139.879 18.596 141.168 17.116" fill="#dcdcdc"/><polygon points="147.02 216.08 148.306 214.6 147.02 213.121 145.733 214.6 147.02 216.08" fill="#dcdcdc"/><polygon points="147.02 207.816 148.306 206.336 147.02 204.857 145.733 206.336 147.02 207.816" fill="#dcdcdc"/><polygon points="147.02 199.551 148.306 198.072 147.02 196.593 145.733 198.072 147.02 199.551" fill="#dcdcdc"/><polygon points="147.02 191.287 148.306 189.807 147.02 188.328 145.733 189.807 147.02 191.287" fill="#dcdcdc"/><polygon points="147.02 183.023 148.306 181.544 147.02 180.064 145.733 181.544 147.02 183.023" fill="#dcdcdc"/><polygon points="152.924 214.6 154.211 216.08 155.497 214.6 154.211 213.121 152.924 214.6" fill="#dcdcdc"/><polygon points="154.211 204.857 152.924 206.336 154.211 207.816 155.497 206.336 154.211 204.857" fill="#dcdcdc"/><polygon points="154.211 196.593 152.924 198.072 154.211 199.551 155.497 198.072 154.211 196.593" fill="#dcdcdc"/><polygon points="154.211 188.328 152.924 189.807 154.211 191.287 155.497 189.807 154.211 188.328" fill="#dcdcdc"/><polygon points="154.211 180.064 152.924 181.544 154.211 183.023 155.497 181.544 154.211 180.064" fill="#dcdcdc"/><polygon points="160.115 214.6 161.402 216.08 162.691 214.6 161.402 213.121 160.115 214.6" fill="#dcdcdc"/><polygon points="161.402 204.857 160.115 206.336 161.402 207.816 162.691 206.336 161.402 204.857" fill="#dcdcdc"/><polygon points="161.402 196.593 160.115 198.072 161.402 199.551 162.691 198.072 161.402 196.593" fill="#dcdcdc"/><polygon points="161.402 188.328 160.115 189.807 161.402 191.287 162.691 189.807 161.402 188.328" fill="#dcdcdc"/><polygon points="161.402 180.064 160.115 181.544 161.402 183.023 162.691 181.544 161.402 180.064" fill="#dcdcdc"/><polygon points="167.307 214.6 168.594 216.08 169.881 214.6 168.594 213.121 167.307 214.6" fill="#dcdcdc"/><polygon points="168.594 204.857 167.307 206.336 168.594 207.816 169.881 206.336 168.594 204.857" fill="#dcdcdc"/><polygon points="168.594 196.593 167.307 198.072 168.594 199.551 169.881 198.072 168.594 196.593" fill="#dcdcdc"/><polygon points="168.594 188.328 167.307 189.807 168.594 191.287 169.881 189.807 168.594 188.328" fill="#dcdcdc"/><polygon points="168.594 180.064 167.307 181.544 168.594 183.023 169.881 181.544 168.594 180.064" fill="#dcdcdc"/><polygon points="174.498 214.6 175.785 216.08 177.072 214.6 175.785 213.121 174.498 214.6" fill="#dcdcdc"/><polygon points="175.785 204.857 174.498 206.336 175.785 207.816 177.072 206.336 175.785 204.857" fill="#dcdcdc"/><polygon points="175.785 196.593 174.498 198.072 175.785 199.551 177.072 198.072 175.785 196.593" fill="#dcdcdc"/><polygon points="175.785 188.328 174.498 189.807 175.785 191.287 177.072 189.807 175.785 188.328" fill="#dcdcdc"/><polygon points="175.785 180.064 174.498 181.544 175.785 183.023 177.072 181.544 175.785 180.064" fill="#dcdcdc"/><polygon points="181.688 214.6 182.977 216.08 184.264 214.6 182.977 213.121 181.688 214.6" fill="#dcdcdc"/><polygon points="182.977 204.857 181.688 206.336 182.977 207.816 184.264 206.336 182.977 204.857" fill="#dcdcdc"/><polygon points="182.977 196.593 181.688 198.072 182.977 199.551 184.264 198.072 182.977 196.593" fill="#dcdcdc"/><polygon points="182.977 188.328 181.688 189.807 182.977 191.287 184.264 189.807 182.977 188.328" fill="#dcdcdc"/><polygon points="182.977 180.064 181.688 181.544 182.977 183.023 184.264 181.544 182.977 180.064" fill="#dcdcdc"/><polygon points="188.881 214.6 190.168 216.08 191.455 214.6 190.168 213.121 188.881 214.6" fill="#dcdcdc"/><polygon points="190.168 204.857 188.881 206.336 190.168 207.816 191.455 206.336 190.168 204.857" fill="#dcdcdc"/><polygon points="190.168 196.593 188.881 198.072 190.168 199.551 191.455 198.072 190.168 196.593" fill="#dcdcdc"/><polygon points="190.168 188.328 188.881 189.807 190.168 191.287 191.455 189.807 190.168 188.328" fill="#dcdcdc"/><polygon points="190.168 180.064 188.881 181.544 190.168 183.023 191.455 181.544 190.168 180.064" fill="#dcdcdc"/><polygon points="196.072 206.336 197.359 207.816 198.648 206.336 197.359 204.857 196.072 206.336" fill="#dcdcdc"/><polygon points="197.359 196.593 196.072 198.072 197.359 199.551 198.648 198.072 197.359 196.593" fill="#dcdcdc"/><polygon points="197.359 188.328 196.072 189.807 197.359 191.287 198.648 189.807 197.359 188.328" fill="#dcdcdc"/><polygon points="197.359 180.064 196.072 181.544 197.359 183.023 198.648 181.544 197.359 180.064" fill="#dcdcdc"/><polygon points="203.264 206.336 204.551 207.816 205.838 206.336 204.551 204.857 203.264 206.336" fill="#dcdcdc"/><polygon points="204.551 196.593 203.264 198.072 204.551 199.551 205.838 198.072 204.551 196.593" fill="#dcdcdc"/><polygon points="204.551 188.328 203.264 189.807 204.551 191.287 205.838 189.807 204.551 188.328" fill="#dcdcdc"/><polygon points="204.551 180.064 203.264 181.544 204.551 183.023 205.838 181.544 204.551 180.064" fill="#dcdcdc"/><polygon points="210.455 198.072 211.742 199.551 213.029 198.072 211.742 196.593 210.455 198.072" fill="#dcdcdc"/><polygon points="211.742 188.328 210.455 189.807 211.742 191.287 213.029 189.807 211.742 188.328" fill="#dcdcdc"/><polygon points="211.742 180.064 210.455 181.544 211.742 183.023 213.029 181.544 211.742 180.064" fill="#dcdcdc"/><path d="M218.934,196.593l-1.289,1.479.651.747c.49-.423.973-.854,1.456-1.286Z" fill="#dcdcdc"/><polygon points="218.934 191.287 220.221 189.807 218.934 188.328 217.645 189.807 218.934 191.287" fill="#dcdcdc"/><polygon points="218.934 183.023 220.221 181.544 218.934 180.064 217.645 181.544 218.934 183.023" fill="#dcdcdc"/><polygon points="227.412 189.807 226.125 188.328 224.839 189.807 226.125 191.287 227.412 189.807" fill="#dcdcdc"/><polygon points="224.839 181.544 226.125 183.023 227.412 181.544 226.125 180.064 224.839 181.544" fill="#dcdcdc"/><path d="M233.316,180.064l-1.286,1.48,1.236,1.421q.6-.789,1.2-1.588Z" fill="#dcdcdc"/><polygon points="147.02 174.932 148.306 173.452 147.02 171.972 145.733 173.452 147.02 174.932" fill="#dcdcdc"/><polygon points="147.02 166.668 148.306 165.188 147.02 163.709 145.733 165.188 147.02 166.668" fill="#dcdcdc"/><polygon points="147.02 158.403 148.306 156.923 147.02 155.444 145.733 156.923 147.02 158.403" fill="#dcdcdc"/><polygon points="147.02 150.139 148.306 148.659 147.02 147.18 145.733 148.659 147.02 150.139" fill="#dcdcdc"/><polygon points="147.02 141.874 148.306 140.395 147.02 138.916 145.733 140.395 147.02 141.874" fill="#dcdcdc"/><polygon points="147.02 133.61 148.306 132.13 147.02 130.651 145.733 132.13 147.02 133.61" fill="#dcdcdc"/><polygon points="147.02 125.346 148.306 123.867 147.02 122.387 145.733 123.867 147.02 125.346" fill="#dcdcdc"/><polygon points="147.02 117.081 148.306 115.602 147.02 114.122 145.733 115.602 147.02 117.081" fill="#dcdcdc"/><polygon points="154.211 171.972 152.924 173.452 154.211 174.932 155.497 173.452 154.211 171.972" fill="#dcdcdc"/><polygon points="154.211 163.709 152.924 165.188 154.211 166.668 155.497 165.188 154.211 163.709" fill="#dcdcdc"/><polygon points="154.211 155.444 152.924 156.923 154.211 158.403 155.497 156.923 154.211 155.444" fill="#dcdcdc"/><polygon points="154.211 147.18 152.924 148.659 154.211 150.139 155.497 148.659 154.211 147.18" fill="#dcdcdc"/><polygon points="154.211 138.916 152.924 140.395 154.211 141.874 155.497 140.395 154.211 138.916" fill="#dcdcdc"/><polygon points="154.211 130.651 152.924 132.13 154.211 133.61 155.497 132.13 154.211 130.651" fill="#dcdcdc"/><polygon points="154.211 122.387 152.924 123.867 154.211 125.346 155.497 123.867 154.211 122.387" fill="#dcdcdc"/><polygon points="154.211 114.122 152.924 115.602 154.211 117.081 155.497 115.602 154.211 114.122" fill="#dcdcdc"/><polygon points="162.69 173.452 161.402 171.972 160.115 173.452 161.402 174.932 162.69 173.452" fill="#dcdcdc"/><polygon points="161.402 163.709 160.115 165.188 161.402 166.668 162.691 165.188 161.402 163.709" fill="#dcdcdc"/><polygon points="161.402 155.444 160.115 156.923 161.402 158.403 162.691 156.923 161.402 155.444" fill="#dcdcdc"/><polygon points="161.402 147.18 160.115 148.659 161.402 150.139 162.691 148.659 161.402 147.18" fill="#dcdcdc"/><polygon points="161.402 138.916 160.115 140.395 161.402 141.874 162.691 140.395 161.402 138.916" fill="#dcdcdc"/><polygon points="161.402 130.651 160.115 132.13 161.402 133.61 162.691 132.13 161.402 130.651" fill="#dcdcdc"/><polygon points="161.402 122.387 160.115 123.867 161.402 125.346 162.691 123.867 161.402 122.387" fill="#dcdcdc"/><polygon points="161.402 114.122 160.115 115.602 161.402 117.081 162.691 115.602 161.402 114.122" fill="#dcdcdc"/><polygon points="168.594 171.972 167.307 173.452 168.594 174.932 169.881 173.452 168.594 171.972" fill="#dcdcdc"/><polygon points="168.594 163.709 167.307 165.188 168.594 166.668 169.881 165.188 168.594 163.709" fill="#dcdcdc"/><polygon points="168.594 155.444 167.307 156.923 168.594 158.403 169.881 156.923 168.594 155.444" fill="#dcdcdc"/><polygon points="168.594 147.18 167.307 148.659 168.594 150.139 169.881 148.659 168.594 147.18" fill="#dcdcdc"/><polygon points="168.594 138.916 167.307 140.395 168.594 141.874 169.881 140.395 168.594 138.916" fill="#dcdcdc"/><polygon points="168.594 130.651 167.307 132.13 168.594 133.61 169.881 132.13 168.594 130.651" fill="#dcdcdc"/><polygon points="168.594 122.387 167.307 123.867 168.594 125.346 169.881 123.867 168.594 122.387" fill="#dcdcdc"/><polygon points="168.594 114.122 167.307 115.602 168.594 117.081 169.881 115.602 168.594 114.122" fill="#dcdcdc"/><polygon points="175.785 171.972 174.498 173.452 175.785 174.932 177.072 173.452 175.785 171.972" fill="#dcdcdc"/><polygon points="175.785 163.709 174.498 165.188 175.785 166.668 177.072 165.188 175.785 163.709" fill="#dcdcdc"/><polygon points="175.785 155.444 174.498 156.923 175.785 158.403 177.072 156.923 175.785 155.444" fill="#dcdcdc"/><polygon points="175.785 147.18 174.498 148.659 175.785 150.139 177.072 148.659 175.785 147.18" fill="#dcdcdc"/><polygon points="175.785 138.916 174.498 140.395 175.785 141.874 177.072 140.395 175.785 138.916" fill="#dcdcdc"/><polygon points="175.785 130.651 174.498 132.13 175.785 133.61 177.072 132.13 175.785 130.651" fill="#dcdcdc"/><polygon points="175.785 122.387 174.498 123.867 175.785 125.346 177.072 123.867 175.785 122.387" fill="#dcdcdc"/><polygon points="175.785 114.122 174.498 115.602 175.785 117.081 177.072 115.602 175.785 114.122" fill="#dcdcdc"/><polygon points="182.977 171.972 181.689 173.452 182.977 174.932 184.264 173.452 182.977 171.972" fill="#dcdcdc"/><polygon points="182.977 163.709 181.688 165.188 182.977 166.668 184.264 165.188 182.977 163.709" fill="#dcdcdc"/><polygon points="182.977 155.444 181.688 156.923 182.977 158.403 184.264 156.923 182.977 155.444" fill="#dcdcdc"/><polygon points="182.977 147.18 181.688 148.659 182.977 150.139 184.264 148.659 182.977 147.18" fill="#dcdcdc"/><polygon points="182.977 138.916 181.688 140.395 182.977 141.874 184.264 140.395 182.977 138.916" fill="#dcdcdc"/><polygon points="182.977 130.651 181.688 132.13 182.977 133.61 184.264 132.13 182.977 130.651" fill="#dcdcdc"/><polygon points="182.977 122.387 181.688 123.867 182.977 125.346 184.264 123.867 182.977 122.387" fill="#dcdcdc"/><polygon points="182.977 114.122 181.688 115.602 182.977 117.081 184.264 115.602 182.977 114.122" fill="#dcdcdc"/><polygon points="190.168 171.972 188.881 173.452 190.168 174.932 191.455 173.452 190.168 171.972" fill="#dcdcdc"/><polygon points="190.168 163.709 188.881 165.188 190.168 166.668 191.455 165.188 190.168 163.709" fill="#dcdcdc"/><polygon points="190.168 155.444 188.881 156.923 190.168 158.403 191.455 156.923 190.168 155.444" fill="#dcdcdc"/><polygon points="190.168 147.18 188.881 148.659 190.168 150.139 191.455 148.659 190.168 147.18" fill="#dcdcdc"/><polygon points="190.168 138.916 188.881 140.395 190.168 141.874 191.455 140.395 190.168 138.916" fill="#dcdcdc"/><polygon points="190.168 130.651 188.881 132.13 190.168 133.61 191.455 132.13 190.168 130.651" fill="#dcdcdc"/><polygon points="190.168 122.387 188.881 123.867 190.168 125.346 191.455 123.867 190.168 122.387" fill="#dcdcdc"/><polygon points="190.168 114.122 188.881 115.602 190.168 117.081 191.455 115.602 190.168 114.122" fill="#dcdcdc"/><polygon points="198.647 173.452 197.359 171.972 196.072 173.452 197.359 174.932 198.647 173.452" fill="#dcdcdc"/><polygon points="197.359 163.709 196.072 165.188 197.359 166.668 198.648 165.188 197.359 163.709" fill="#dcdcdc"/><polygon points="197.359 155.444 196.072 156.923 197.359 158.403 198.648 156.923 197.359 155.444" fill="#dcdcdc"/><polygon points="197.359 147.18 196.072 148.659 197.359 150.139 198.648 148.659 197.359 147.18" fill="#dcdcdc"/><polygon points="197.359 138.916 196.072 140.395 197.359 141.874 198.648 140.395 197.359 138.916" fill="#dcdcdc"/><polygon points="197.359 130.651 196.072 132.13 197.359 133.61 198.648 132.13 197.359 130.651" fill="#dcdcdc"/><polygon points="197.359 122.387 196.072 123.867 197.359 125.346 198.648 123.867 197.359 122.387" fill="#dcdcdc"/><polygon points="197.359 114.122 196.072 115.602 197.359 117.081 198.648 115.602 197.359 114.122" fill="#dcdcdc"/><polygon points="204.551 171.972 203.264 173.452 204.551 174.932 205.838 173.452 204.551 171.972" fill="#dcdcdc"/><polygon points="204.551 163.709 203.264 165.188 204.551 166.668 205.838 165.188 204.551 163.709" fill="#dcdcdc"/><polygon points="204.551 155.444 203.264 156.923 204.551 158.403 205.838 156.923 204.551 155.444" fill="#dcdcdc"/><polygon points="204.551 147.18 203.264 148.659 204.551 150.139 205.838 148.659 204.551 147.18" fill="#dcdcdc"/><polygon points="204.551 138.916 203.264 140.395 204.551 141.874 205.838 140.395 204.551 138.916" fill="#dcdcdc"/><polygon points="204.551 130.651 203.264 132.13 204.551 133.61 205.838 132.13 204.551 130.651" fill="#dcdcdc"/><polygon points="204.551 122.387 203.264 123.867 204.551 125.346 205.838 123.867 204.551 122.387" fill="#dcdcdc"/><polygon points="204.551 114.122 203.264 115.602 204.551 117.081 205.838 115.602 204.551 114.122" fill="#dcdcdc"/><polygon points="211.742 171.972 210.455 173.452 211.742 174.932 213.029 173.452 211.742 171.972" fill="#dcdcdc"/><polygon points="211.742 163.709 210.455 165.188 211.742 166.668 213.029 165.188 211.742 163.709" fill="#dcdcdc"/><polygon points="211.742 155.444 210.455 156.923 211.742 158.403 213.029 156.923 211.742 155.444" fill="#dcdcdc"/><polygon points="211.742 147.18 210.455 148.659 211.742 150.139 213.029 148.659 211.742 147.18" fill="#dcdcdc"/><polygon points="211.742 138.916 210.455 140.395 211.742 141.874 213.029 140.395 211.742 138.916" fill="#dcdcdc"/><polygon points="211.742 130.651 210.455 132.13 211.742 133.61 213.029 132.13 211.742 130.651" fill="#dcdcdc"/><polygon points="211.742 122.387 210.455 123.867 211.742 125.346 213.029 123.867 211.742 122.387" fill="#dcdcdc"/><polygon points="211.742 114.122 210.455 115.602 211.742 117.081 213.029 115.602 211.742 114.122" fill="#dcdcdc"/><polygon points="217.646 173.452 218.934 174.932 220.221 173.452 218.934 171.972 217.646 173.452" fill="#dcdcdc"/><polygon points="218.934 166.668 220.221 165.188 218.934 163.709 217.645 165.188 218.934 166.668" fill="#dcdcdc"/><polygon points="218.934 158.403 220.221 156.923 218.934 155.444 217.645 156.923 218.934 158.403" fill="#dcdcdc"/><polygon points="218.934 150.139 220.221 148.659 218.934 147.18 217.645 148.659 218.934 150.139" fill="#dcdcdc"/><polygon points="218.934 141.874 220.221 140.395 218.934 138.916 217.645 140.395 218.934 141.874" fill="#dcdcdc"/><polygon points="218.934 133.61 220.221 132.13 218.934 130.651 217.645 132.13 218.934 133.61" fill="#dcdcdc"/><polygon points="218.934 125.346 220.221 123.867 218.934 122.387 217.645 123.867 218.934 125.346" fill="#dcdcdc"/><polygon points="218.934 117.081 220.221 115.602 218.934 114.122 217.645 115.602 218.934 117.081" fill="#dcdcdc"/><polygon points="226.125 171.972 224.839 173.452 226.125 174.932 227.412 173.452 226.125 171.972" fill="#dcdcdc"/><polygon points="226.125 163.709 224.839 165.188 226.125 166.668 227.412 165.188 226.125 163.709" fill="#dcdcdc"/><polygon points="226.125 155.444 224.839 156.923 226.125 158.403 227.412 156.923 226.125 155.444" fill="#dcdcdc"/><polygon points="226.125 147.18 224.839 148.659 226.125 150.139 227.412 148.659 226.125 147.18" fill="#dcdcdc"/><polygon points="226.125 138.916 224.839 140.395 226.125 141.874 227.412 140.395 226.125 138.916" fill="#dcdcdc"/><polygon points="226.125 130.651 224.839 132.13 226.125 133.61 227.412 132.13 226.125 130.651" fill="#dcdcdc"/><polygon points="226.125 122.387 224.839 123.867 226.125 125.346 227.412 123.867 226.125 122.387" fill="#dcdcdc"/><polygon points="226.125 114.122 224.839 115.602 226.125 117.081 227.412 115.602 226.125 114.122" fill="#dcdcdc"/><polygon points="232.03 173.452 233.316 174.932 234.604 173.452 233.316 171.972 232.03 173.452" fill="#dcdcdc"/><polygon points="233.316 163.709 232.03 165.188 233.316 166.668 234.606 165.188 233.316 163.709" fill="#dcdcdc"/><polygon points="233.316 155.444 232.03 156.923 233.316 158.403 234.606 156.923 233.316 155.444" fill="#dcdcdc"/><polygon points="233.316 147.18 232.03 148.659 233.316 150.139 234.606 148.659 233.316 147.18" fill="#dcdcdc"/><polygon points="233.316 138.916 232.03 140.395 233.316 141.874 234.606 140.395 233.316 138.916" fill="#dcdcdc"/><polygon points="233.316 130.651 232.03 132.13 233.316 133.61 234.606 132.13 233.316 130.651" fill="#dcdcdc"/><polygon points="233.316 122.387 232.03 123.867 233.316 125.346 234.606 123.867 233.316 122.387" fill="#dcdcdc"/><polygon points="233.316 114.122 232.03 115.602 233.316 117.081 234.606 115.602 233.316 114.122" fill="#dcdcdc"/><path d="M240.612,171.972l-1.287,1.48.269.309c.355-.581.7-1.168,1.046-1.756Z" fill="#dcdcdc"/><polygon points="239.325 165.188 240.612 166.668 241.899 165.188 240.612 163.709 239.325 165.188" fill="#dcdcdc"/><polygon points="240.612 155.444 239.325 156.923 240.612 158.403 241.899 156.923 240.612 155.444" fill="#dcdcdc"/><polygon points="240.612 147.18 239.325 148.659 240.612 150.139 241.899 148.659 240.612 147.18" fill="#dcdcdc"/><polygon points="240.612 138.916 239.325 140.395 240.612 141.874 241.899 140.395 240.612 138.916" fill="#dcdcdc"/><polygon points="240.612 130.651 239.325 132.13 240.612 133.61 241.899 132.13 240.612 130.651" fill="#dcdcdc"/><polygon points="240.612 122.387 239.325 123.867 240.612 125.346 241.899 123.867 240.612 122.387" fill="#dcdcdc"/><polygon points="240.612 114.122 239.325 115.602 240.612 117.081 241.899 115.602 240.612 114.122" fill="#dcdcdc"/><path d="M247.8,155.444l-1.287,1.479.969,1.115c.273-.678.536-1.362.794-2.047Z" fill="#dcdcdc"/><polygon points="246.516 148.659 247.803 150.139 249.092 148.659 247.803 147.18 246.516 148.659" fill="#dcdcdc"/><polygon points="247.803 138.916 246.516 140.395 247.803 141.874 249.092 140.395 247.803 138.916" fill="#dcdcdc"/><polygon points="247.803 130.651 246.516 132.13 247.803 133.61 249.092 132.13 247.803 130.651" fill="#dcdcdc"/><polygon points="247.803 122.387 246.516 123.867 247.803 125.346 249.092 123.867 247.803 122.387" fill="#dcdcdc"/><polygon points="247.803 114.122 246.516 115.602 247.803 117.081 249.092 115.602 247.803 114.122" fill="#dcdcdc"/><path d="M253.708,132.13l.421.484c.048-.374.091-.749.136-1.124Z" fill="#dcdcdc"/><path d="M253.708,123.867l1.122,1.289q.079-1.358.126-2.724Z" fill="#dcdcdc"/><path d="M253.708,115.6,255,117.081l0-.005q-.024-1.435-.085-2.861Z" fill="#dcdcdc"/><path d="M46.417,147.329c.187.667.383,1.33.582,1.991l.575-.661Z" fill="#dcdcdc"/><polygon points="47.574 140.395 46.287 138.916 45 140.395 46.287 141.874 47.574 140.395" fill="#dcdcdc"/><polygon points="45 132.13 46.287 133.61 47.574 132.13 46.287 130.651 45 132.13" fill="#dcdcdc"/><polygon points="46.287 122.387 45 123.867 46.287 125.346 47.574 123.867 46.287 122.387" fill="#dcdcdc"/><polygon points="46.287 114.122 45 115.602 46.287 117.081 47.574 115.602 46.287 114.122" fill="#dcdcdc"/><path d="M53.479,163.709l-.618.709c.3.633.617,1.261.934,1.887l.971-1.117Z" fill="#dcdcdc"/><polygon points="52.19 156.923 53.479 158.403 54.766 156.923 53.479 155.444 52.19 156.923" fill="#dcdcdc"/><polygon points="53.479 147.18 52.19 148.659 53.479 150.139 54.766 148.659 53.479 147.18" fill="#dcdcdc"/><polygon points="53.479 138.916 52.19 140.395 53.479 141.874 54.766 140.395 53.479 138.916" fill="#dcdcdc"/><polygon points="53.479 130.651 52.19 132.13 53.479 133.61 54.766 132.13 53.479 130.651" fill="#dcdcdc"/><polygon points="53.479 122.387 52.19 123.867 53.479 125.346 54.766 123.867 53.479 122.387" fill="#dcdcdc"/><polygon points="53.479 114.122 52.19 115.602 53.479 117.081 54.766 115.602 53.479 114.122" fill="#dcdcdc"/><polygon points="66.676 181.544 67.965 183.023 69.252 181.544 67.965 180.064 66.676 181.544" fill="#dcdcdc"/><polygon points="76.443 189.807 75.156 188.328 73.869 189.807 75.156 191.287 76.443 189.807" fill="#dcdcdc"/><polygon points="73.869 181.544 75.156 183.023 76.443 181.544 75.156 180.064 73.869 181.544" fill="#dcdcdc"/><polygon points="81.06 198.072 82.347 199.551 83.636 198.072 82.347 196.593 81.06 198.072" fill="#dcdcdc"/><polygon points="82.347 188.328 81.06 189.807 82.347 191.287 83.636 189.807 82.347 188.328" fill="#dcdcdc"/><polygon points="82.347 180.064 81.06 181.544 82.347 183.023 83.636 181.544 82.347 180.064" fill="#dcdcdc"/><path d="M89.539,204.857l-.98,1.127q.807.552,1.624,1.091l.643-.739Z" fill="#dcdcdc"/><polygon points="88.253 198.072 89.539 199.551 90.826 198.072 89.539 196.593 88.253 198.072" fill="#dcdcdc"/><polygon points="89.539 188.328 88.253 189.807 89.539 191.287 90.826 189.807 89.539 188.328" fill="#dcdcdc"/><polygon points="89.539 180.064 88.253 181.544 89.539 183.023 90.826 181.544 89.539 180.064" fill="#dcdcdc"/><polygon points="95.444 206.336 96.73 207.816 98.017 206.336 96.73 204.857 95.444 206.336" fill="#dcdcdc"/><polygon points="96.73 196.593 95.444 198.072 96.73 199.551 98.017 198.072 96.73 196.593" fill="#dcdcdc"/><polygon points="96.73 188.328 95.444 189.807 96.73 191.287 98.017 189.807 96.73 188.328" fill="#dcdcdc"/><polygon points="96.73 180.064 95.444 181.544 96.73 183.023 98.017 181.544 96.73 180.064" fill="#dcdcdc"/><path d="M103.922,213.121l-1,1.149q.912.435,1.834.852l.455-.522Z" fill="#dcdcdc"/><polygon points="102.635 206.336 103.922 207.816 105.211 206.336 103.922 204.857 102.635 206.336" fill="#dcdcdc"/><polygon points="103.922 196.593 102.635 198.072 103.922 199.551 105.211 198.072 103.922 196.593" fill="#dcdcdc"/><polygon points="103.922 188.328 102.635 189.807 103.922 191.287 105.211 189.807 103.922 188.328" fill="#dcdcdc"/><polygon points="103.922 180.064 102.635 181.544 103.922 183.023 105.211 181.544 103.922 180.064" fill="#dcdcdc"/><polygon points="109.827 214.6 111.114 216.08 112.401 214.6 111.114 213.121 109.827 214.6" fill="#dcdcdc"/><polygon points="111.114 204.857 109.827 206.336 111.114 207.816 112.401 206.336 111.114 204.857" fill="#dcdcdc"/><polygon points="111.114 196.593 109.827 198.072 111.114 199.551 112.401 198.072 111.114 196.593" fill="#dcdcdc"/><polygon points="111.114 188.328 109.827 189.807 111.114 191.287 112.401 189.807 111.114 188.328" fill="#dcdcdc"/><polygon points="111.114 180.064 109.827 181.544 111.114 183.023 112.401 181.544 111.114 180.064" fill="#dcdcdc"/><polygon points="117.018 214.6 118.305 216.08 119.592 214.6 118.305 213.121 117.018 214.6" fill="#dcdcdc"/><polygon points="118.305 204.857 117.018 206.336 118.305 207.816 119.592 206.336 118.305 204.857" fill="#dcdcdc"/><polygon points="118.305 196.593 117.018 198.072 118.305 199.551 119.592 198.072 118.305 196.593" fill="#dcdcdc"/><polygon points="118.305 188.328 117.018 189.807 118.305 191.287 119.592 189.807 118.305 188.328" fill="#dcdcdc"/><polygon points="118.305 180.064 117.018 181.544 118.305 183.023 119.592 181.544 118.305 180.064" fill="#dcdcdc"/><polygon points="124.208 214.6 125.497 216.08 126.784 214.6 125.497 213.121 124.208 214.6" fill="#dcdcdc"/><polygon points="125.497 204.857 124.208 206.336 125.497 207.816 126.784 206.336 125.497 204.857" fill="#dcdcdc"/><polygon points="125.497 196.593 124.208 198.072 125.497 199.551 126.784 198.072 125.497 196.593" fill="#dcdcdc"/><polygon points="125.497 188.328 124.208 189.807 125.497 191.287 126.784 189.807 125.497 188.328" fill="#dcdcdc"/><polygon points="125.497 180.064 124.208 181.544 125.497 183.023 126.784 181.544 125.497 180.064" fill="#dcdcdc"/><polygon points="132.688 216.08 133.975 214.6 132.688 213.121 131.401 214.6 132.688 216.08" fill="#dcdcdc"/><polygon points="132.688 207.816 133.975 206.336 132.688 204.857 131.401 206.336 132.688 207.816" fill="#dcdcdc"/><polygon points="132.688 199.551 133.975 198.072 132.688 196.593 131.401 198.072 132.688 199.551" fill="#dcdcdc"/><polygon points="132.688 191.287 133.975 189.807 132.688 188.328 131.401 189.807 132.688 191.287" fill="#dcdcdc"/><polygon points="132.688 183.023 133.975 181.544 132.688 180.064 131.401 181.544 132.688 183.023" fill="#dcdcdc"/><polygon points="139.879 216.08 141.168 214.6 139.879 213.121 138.592 214.6 139.879 216.08" fill="#dcdcdc"/><polygon points="139.879 207.816 141.168 206.336 139.879 204.857 138.592 206.336 139.879 207.816" fill="#dcdcdc"/><polygon points="139.879 199.551 141.168 198.072 139.879 196.593 138.592 198.072 139.879 199.551" fill="#dcdcdc"/><polygon points="139.879 191.287 141.168 189.807 139.879 188.328 138.592 189.807 139.879 191.287" fill="#dcdcdc"/><polygon points="139.879 183.023 141.168 181.544 139.879 180.064 138.592 181.544 139.879 183.023" fill="#dcdcdc"/><polygon points="59.486 173.452 60.773 174.932 62.06 173.452 60.773 171.972 59.486 173.452" fill="#dcdcdc"/><polygon points="60.773 163.709 59.486 165.188 60.773 166.668 62.06 165.188 60.773 163.709" fill="#dcdcdc"/><polygon points="60.773 155.444 59.486 156.923 60.773 158.403 62.06 156.923 60.773 155.444" fill="#dcdcdc"/><polygon points="60.773 147.18 59.486 148.659 60.773 150.139 62.06 148.659 60.773 147.18" fill="#dcdcdc"/><polygon points="60.773 138.916 59.486 140.395 60.773 141.874 62.06 140.395 60.773 138.916" fill="#dcdcdc"/><polygon points="60.773 130.651 59.486 132.13 60.773 133.61 62.06 132.13 60.773 130.651" fill="#dcdcdc"/><polygon points="60.773 122.387 59.486 123.867 60.773 125.346 62.06 123.867 60.773 122.387" fill="#dcdcdc"/><polygon points="60.773 114.122 59.486 115.602 60.773 117.081 62.06 115.602 60.773 114.122" fill="#dcdcdc"/><polygon points="67.965 171.972 66.677 173.452 67.965 174.932 69.252 173.452 67.965 171.972" fill="#dcdcdc"/><polygon points="67.965 163.709 66.676 165.188 67.965 166.668 69.252 165.188 67.965 163.709" fill="#dcdcdc"/><polygon points="67.965 155.444 66.676 156.923 67.965 158.403 69.252 156.923 67.965 155.444" fill="#dcdcdc"/><polygon points="67.965 147.18 66.676 148.659 67.965 150.139 69.252 148.659 67.965 147.18" fill="#dcdcdc"/><polygon points="67.965 138.916 66.676 140.395 67.965 141.874 69.252 140.395 67.965 138.916" fill="#dcdcdc"/><polygon points="67.965 130.651 66.676 132.13 67.965 133.61 69.252 132.13 67.965 130.651" fill="#dcdcdc"/><polygon points="67.965 122.387 66.676 123.867 67.965 125.346 69.252 123.867 67.965 122.387" fill="#dcdcdc"/><polygon points="67.965 114.122 66.676 115.602 67.965 117.081 69.252 115.602 67.965 114.122" fill="#dcdcdc"/><polygon points="75.156 171.972 73.869 173.452 75.156 174.932 76.443 173.452 75.156 171.972" fill="#dcdcdc"/><polygon points="75.156 163.709 73.869 165.188 75.156 166.668 76.443 165.188 75.156 163.709" fill="#dcdcdc"/><polygon points="75.156 155.444 73.869 156.923 75.156 158.403 76.443 156.923 75.156 155.444" fill="#dcdcdc"/><polygon points="75.156 147.18 73.869 148.659 75.156 150.139 76.443 148.659 75.156 147.18" fill="#dcdcdc"/><polygon points="75.156 138.916 73.869 140.395 75.156 141.874 76.443 140.395 75.156 138.916" fill="#dcdcdc"/><polygon points="75.156 130.651 73.869 132.13 75.156 133.61 76.443 132.13 75.156 130.651" fill="#dcdcdc"/><polygon points="75.156 122.387 73.869 123.867 75.156 125.346 76.443 123.867 75.156 122.387" fill="#dcdcdc"/><polygon points="75.156 114.122 73.869 115.602 75.156 117.081 76.443 115.602 75.156 114.122" fill="#dcdcdc"/><polygon points="83.635 173.452 82.347 171.972 81.06 173.452 82.347 174.932 83.635 173.452" fill="#dcdcdc"/><polygon points="82.347 163.709 81.06 165.188 82.347 166.668 83.636 165.188 82.347 163.709" fill="#dcdcdc"/><polygon points="82.347 155.444 81.06 156.923 82.347 158.403 83.636 156.923 82.347 155.444" fill="#dcdcdc"/><polygon points="82.347 147.18 81.06 148.659 82.347 150.139 83.636 148.659 82.347 147.18" fill="#dcdcdc"/><polygon points="82.347 138.916 81.06 140.395 82.347 141.874 83.636 140.395 82.347 138.916" fill="#dcdcdc"/><polygon points="82.347 130.651 81.06 132.13 82.347 133.61 83.636 132.13 82.347 130.651" fill="#dcdcdc"/><polygon points="82.347 122.387 81.06 123.867 82.347 125.346 83.636 123.867 82.347 122.387" fill="#dcdcdc"/><polygon points="82.347 114.122 81.06 115.602 82.347 117.081 83.636 115.602 82.347 114.122" fill="#dcdcdc"/><polygon points="89.539 171.972 88.253 173.452 89.539 174.932 90.826 173.452 89.539 171.972" fill="#dcdcdc"/><polygon points="89.539 163.709 88.253 165.188 89.539 166.668 90.826 165.188 89.539 163.709" fill="#dcdcdc"/><polygon points="89.539 155.444 88.253 156.923 89.539 158.403 90.826 156.923 89.539 155.444" fill="#dcdcdc"/><polygon points="89.539 147.18 88.253 148.659 89.539 150.139 90.826 148.659 89.539 147.18" fill="#dcdcdc"/><polygon points="89.539 138.916 88.253 140.395 89.539 141.874 90.826 140.395 89.539 138.916" fill="#dcdcdc"/><polygon points="89.539 130.651 88.253 132.13 89.539 133.61 90.826 132.13 89.539 130.651" fill="#dcdcdc"/><polygon points="89.539 122.387 88.253 123.867 89.539 125.346 90.826 123.867 89.539 122.387" fill="#dcdcdc"/><polygon points="89.539 114.122 88.253 115.602 89.539 117.081 90.826 115.602 89.539 114.122" fill="#dcdcdc"/><polygon points="96.73 171.972 95.444 173.452 96.73 174.932 98.017 173.452 96.73 171.972" fill="#dcdcdc"/><polygon points="96.73 163.709 95.444 165.188 96.73 166.668 98.017 165.188 96.73 163.709" fill="#dcdcdc"/><polygon points="96.73 155.444 95.444 156.923 96.73 158.403 98.017 156.923 96.73 155.444" fill="#dcdcdc"/><polygon points="96.73 147.18 95.444 148.659 96.73 150.139 98.017 148.659 96.73 147.18" fill="#dcdcdc"/><polygon points="96.73 138.916 95.444 140.395 96.73 141.874 98.017 140.395 96.73 138.916" fill="#dcdcdc"/><polygon points="96.73 130.651 95.444 132.13 96.73 133.61 98.017 132.13 96.73 130.651" fill="#dcdcdc"/><polygon points="96.73 122.387 95.444 123.867 96.73 125.346 98.017 123.867 96.73 122.387" fill="#dcdcdc"/><polygon points="96.73 114.122 95.444 115.602 96.73 117.081 98.017 115.602 96.73 114.122" fill="#dcdcdc"/><polygon points="105.21 173.452 103.922 171.972 102.635 173.452 103.922 174.932 105.21 173.452" fill="#dcdcdc"/><polygon points="103.922 163.709 102.635 165.188 103.922 166.668 105.211 165.188 103.922 163.709" fill="#dcdcdc"/><polygon points="103.922 155.444 102.635 156.923 103.922 158.403 105.211 156.923 103.922 155.444" fill="#dcdcdc"/><polygon points="103.922 147.18 102.635 148.659 103.922 150.139 105.211 148.659 103.922 147.18" fill="#dcdcdc"/><polygon points="103.922 138.916 102.635 140.395 103.922 141.874 105.211 140.395 103.922 138.916" fill="#dcdcdc"/><polygon points="103.922 130.651 102.635 132.13 103.922 133.61 105.211 132.13 103.922 130.651" fill="#dcdcdc"/><polygon points="103.922 122.387 102.635 123.867 103.922 125.346 105.211 123.867 103.922 122.387" fill="#dcdcdc"/><polygon points="103.922 114.122 102.635 115.602 103.922 117.081 105.211 115.602 103.922 114.122" fill="#dcdcdc"/><polygon points="111.114 171.972 109.827 173.452 111.114 174.932 112.401 173.452 111.114 171.972" fill="#dcdcdc"/><polygon points="111.114 163.709 109.827 165.188 111.114 166.668 112.401 165.188 111.114 163.709" fill="#dcdcdc"/><polygon points="111.114 155.444 109.827 156.923 111.114 158.403 112.401 156.923 111.114 155.444" fill="#dcdcdc"/><polygon points="111.114 147.18 109.827 148.659 111.114 150.139 112.401 148.659 111.114 147.18" fill="#dcdcdc"/><polygon points="111.114 138.916 109.827 140.395 111.114 141.874 112.401 140.395 111.114 138.916" fill="#dcdcdc"/><polygon points="111.114 130.651 109.827 132.13 111.114 133.61 112.401 132.13 111.114 130.651" fill="#dcdcdc"/><polygon points="111.114 122.387 109.827 123.867 111.114 125.346 112.401 123.867 111.114 122.387" fill="#dcdcdc"/><polygon points="111.114 114.122 109.827 115.602 111.114 117.081 112.401 115.602 111.114 114.122" fill="#dcdcdc"/><polygon points="118.305 171.972 117.018 173.452 118.305 174.932 119.592 173.452 118.305 171.972" fill="#dcdcdc"/><polygon points="118.305 163.709 117.018 165.188 118.305 166.668 119.592 165.188 118.305 163.709" fill="#dcdcdc"/><polygon points="118.305 155.444 117.018 156.923 118.305 158.403 119.592 156.923 118.305 155.444" fill="#dcdcdc"/><polygon points="118.305 147.18 117.018 148.659 118.305 150.139 119.592 148.659 118.305 147.18" fill="#dcdcdc"/><polygon points="118.305 138.916 117.018 140.395 118.305 141.874 119.592 140.395 118.305 138.916" fill="#dcdcdc"/><polygon points="118.305 130.651 117.018 132.13 118.305 133.61 119.592 132.13 118.305 130.651" fill="#dcdcdc"/><polygon points="118.305 122.387 117.018 123.867 118.305 125.346 119.592 123.867 118.305 122.387" fill="#dcdcdc"/><polygon points="118.305 114.122 117.018 115.602 118.305 117.081 119.592 115.602 118.305 114.122" fill="#dcdcdc"/><polygon points="125.497 171.972 124.209 173.452 125.497 174.932 126.784 173.452 125.497 171.972" fill="#dcdcdc"/><polygon points="125.497 163.709 124.208 165.188 125.497 166.668 126.784 165.188 125.497 163.709" fill="#dcdcdc"/><polygon points="125.497 155.444 124.208 156.923 125.497 158.403 126.784 156.923 125.497 155.444" fill="#dcdcdc"/><polygon points="125.497 147.18 124.208 148.659 125.497 150.139 126.784 148.659 125.497 147.18" fill="#dcdcdc"/><polygon points="125.497 138.916 124.208 140.395 125.497 141.874 126.784 140.395 125.497 138.916" fill="#dcdcdc"/><polygon points="125.497 130.651 124.208 132.13 125.497 133.61 126.784 132.13 125.497 130.651" fill="#dcdcdc"/><polygon points="125.497 122.387 124.208 123.867 125.497 125.346 126.784 123.867 125.497 122.387" fill="#dcdcdc"/><polygon points="125.497 114.122 124.208 115.602 125.497 117.081 126.784 115.602 125.497 114.122" fill="#dcdcdc"/><polygon points="132.688 174.932 133.975 173.452 132.688 171.972 131.401 173.452 132.688 174.932" fill="#dcdcdc"/><polygon points="132.688 166.668 133.975 165.188 132.688 163.709 131.401 165.188 132.688 166.668" fill="#dcdcdc"/><polygon points="132.688 158.403 133.975 156.923 132.688 155.444 131.401 156.923 132.688 158.403" fill="#dcdcdc"/><polygon points="132.688 150.139 133.975 148.659 132.688 147.18 131.401 148.659 132.688 150.139" fill="#dcdcdc"/><polygon points="132.688 141.874 133.975 140.395 132.688 138.916 131.401 140.395 132.688 141.874" fill="#dcdcdc"/><polygon points="132.688 133.61 133.975 132.13 132.688 130.651 131.401 132.13 132.688 133.61" fill="#dcdcdc"/><polygon points="132.688 125.346 133.975 123.867 132.688 122.387 131.401 123.867 132.688 125.346" fill="#dcdcdc"/><polygon points="132.688 117.081 133.975 115.602 132.688 114.122 131.401 115.602 132.688 117.081" fill="#dcdcdc"/><polygon points="139.879 174.932 141.167 173.452 139.879 171.972 138.592 173.452 139.879 174.932" fill="#dcdcdc"/><polygon points="139.879 166.668 141.168 165.188 139.879 163.709 138.592 165.188 139.879 166.668" fill="#dcdcdc"/><polygon points="139.879 158.403 141.168 156.923 139.879 155.444 138.592 156.923 139.879 158.403" fill="#dcdcdc"/><polygon points="139.879 150.139 141.168 148.659 139.879 147.18 138.592 148.659 139.879 150.139" fill="#dcdcdc"/><polygon points="139.879 141.874 141.168 140.395 139.879 138.916 138.592 140.395 139.879 141.874" fill="#dcdcdc"/><polygon points="139.879 133.61 141.168 132.13 139.879 130.651 138.592 132.13 139.879 133.61" fill="#dcdcdc"/><polygon points="139.879 125.346 141.168 123.867 139.879 122.387 138.592 123.867 139.879 125.346" fill="#dcdcdc"/><polygon points="139.879 117.081 141.168 115.602 139.879 114.122 138.592 115.602 139.879 117.081" fill="#dcdcdc"/><polygon points="147.02 224.363 148.306 222.884 147.02 221.405 145.733 222.884 147.02 224.363" fill="#dcdcdc"/><polygon points="155.497 222.884 154.211 221.405 152.924 222.884 154.211 224.363 155.497 222.884" fill="#dcdcdc"/><path d="M161.4,221.405l-1.287,1.479.879,1.011c.3-.035.6-.067.906-.1l.791-.907Z" fill="#dcdcdc"/><path d="M168.594,221.405l-1.287,1.479.079.091c.74-.13,1.477-.271,2.211-.416Z" fill="#dcdcdc"/><path d="M125.5,221.405l-.469.538c.383.087.769.167,1.154.25Z" fill="#dcdcdc"/><path d="M132.688,221.405l-1.287,1.479.3.347q.867.14,1.74.265l.532-.612Z" fill="#dcdcdc"/><path d="M139.879,221.405l-1.287,1.479,1.155,1.328.245.022,1.176-1.35Z" fill="#dcdcdc"/><polygon points="184.287 134.238 166.972 151.348 166.972 151.348 155.497 151.299 163.512 161.384 168.102 157.957 173.586 163.376 162.824 173.952 184.288 173.952 204.382 154.095 184.287 134.238" fill="#e4f5fa"/><polygon points="174.389 144.019 184.287 134.238 163.712 134.465 174.389 144.019" fill="#e4f5fa"/><path d="M204.843,154.288a.5.5,0,0,0,0-.386.514.514,0,0,0-.109-.162h0l-20.094-19.856a.517.517,0,0,0-.069-.046.439.439,0,0,0-.239-.091c-.017,0-.032-.007-.048-.007h0l-20.574.227a.5.5,0,0,0-.327.873l10.28,9.2-6.891,6.81L155.5,150.8h0a.5.5,0,0,0-.392.811L163.12,161.7a.5.5,0,0,0,.392.189.493.493,0,0,0,.3-.1l4.245-3.169,4.817,4.76-10.4,10.221a.5.5,0,0,0,.35.856h21.5a.539.539,0,0,0,.1-.024.491.491,0,0,0,.063-.017.482.482,0,0,0,.126-.083c.009-.008.021-.011.03-.019l20.093-19.858h0A.5.5,0,0,0,204.843,154.288Zm-10.977,9.5-8.44-9.189h17.739ZM165.41,154.6h18.378v18.16l-9.85-9.734h0ZM182,137.2l1.786-1.765V153.6H165.41Zm2.786-1.766,8.693,8.59-8.692,8.848Zm0,19.942,8.367,9.11-8.367,8.268Zm.692-1.782,8.711-8.868,8.974,8.868Zm-2.424-18.843-8.684,8.581-9.367-8.383ZM163.6,160.693l-7.065-8.888,9.223.039-1.918,1.9h0a.514.514,0,0,0-.109.162.5.5,0,0,0,0,.386.5.5,0,0,0,.109.161h0l3.5,3.455Zm9.983,3.385,9.486,9.374H164.046Z" fill="#226d7a"/><path d="M228.258,100.2l-14.192-8a.5.5,0,0,0-.49,0l-13.945,7.862L185.7,92.2a.5.5,0,0,0-.492,0l-13.939,7.862L157.329,92.2a.5.5,0,0,0-.492,0l-13.516,7.623V55.63a.5.5,0,1,0-1,0v44.1L128.961,92.2a.5.5,0,0,0-.491,0l-13.937,7.862L100.6,92.2a.5.5,0,0,0-.492,0L86.169,100.06,72.233,92.2a.5.5,0,0,0-.491.871l14.181,8a.5.5,0,0,0,.492,0l13.937-7.861,13.936,7.861a.5.5,0,0,0,.491,0l13.937-7.861,13.6,7.674v23.6a2.99,2.99,0,0,0,0,5.9v19.228a8.163,8.163,0,1,1-16.325,0V145.9l2.112,2.618a.5.5,0,0,0,.778-.629l-3-3.718a.507.507,0,0,0-.556-.157.5.5,0,0,0-.333.471v5.121a9.163,9.163,0,1,0,18.325,0V130.381a2.99,2.99,0,0,0,0-5.9V100.97l13.762-7.762,13.935,7.861a.5.5,0,0,0,.492,0l13.939-7.861,13.936,7.861a.5.5,0,0,0,.491,0l13.945-7.861,13.947,7.861a.491.491,0,0,0,.245.065.5.5,0,0,0,.245-.936Zm-83.437,27.234a2,2,0,1,1-2-2A2,2,0,0,1,144.821,127.432Z" fill="#226d7a"/><path d="M114.265,111.422a.5.5,0,0,1-.241-.062l-13.771-7.6-13.77,7.352a.5.5,0,1,1-.47-.882l14.008-7.48a.506.506,0,0,1,.478,0l14.008,7.73a.5.5,0,0,1-.242.938Z" fill="#226d7a"/><path d="M171.036,91.524a.5.5,0,0,1-.259-.928l14.009-8.48a.5.5,0,0,1,.5-.01l14.009,7.73a.5.5,0,0,1-.483.876l-13.755-7.59L171.3,91.452A.507.507,0,0,1,171.036,91.524Z" fill="#226d7a"/></svg>