<svg xmlns="http://www.w3.org/2000/svg" viewBox="0 0 144 144"><rect width="144" height="144" fill="#fff" opacity="0"/><polygon points="123 38 123 30 80 30 72 36 64 30 21 30 21 38 14 38 14 114 63 114 63 118 72 122 81 118 81 114 130 114 130 38 123 38" class="sgmaincolor"/><path d="M126,17a1,1,0,0,1-.976-1.217l2-9a1,1,0,0,1,1.627-.543l7,6a1,1,0,0,1-.335,1.708l-9,3A.983.983,0,0,1,126,17Zm2.615-8.157-1.256,5.649,5.649-1.882Z"/><path d="M36,138a5,5,0,1,1,5-5A5.006,5.006,0,0,1,36,138Zm0-8a3,3,0,1,0,3,3A3,3,0,0,0,36,130Z"/><path d="M130,37h-6V30a1,1,0,0,0-1-1H80a1,1,0,0,0-.6.2L72,34.75,64.6,29.2A1,1,0,0,0,64,29H21a1,1,0,0,0-1,1v7H14a1,1,0,0,0-1,1v76a1,1,0,0,0,1,1H62v3a1,1,0,0,0,.594.914l9,4a1,1,0,0,0,.812,0l9-4A1,1,0,0,0,82,118v-3h48a1,1,0,0,0,1-1V38A1,1,0,0,0,130,37ZM22,106H62a1,1,0,0,0,0-2H22v-2H63.586L71,109.414V113l-6.4-4.8a1,1,0,0,0-.6-.2H22Zm51,3.414L80.414,102H122v2H82a1,1,0,0,0,0,2h40v2H80a1,1,0,0,0-.6.2L73,113ZM80.333,31H122v69H80a1,1,0,0,0-.707.293L73,106.586V36.5ZM63.667,31,71,36.5v70.086l-6.293-6.293A1,1,0,0,0,64,100H22V31ZM129,113H81a1,1,0,0,0-1,1v3.35l-8,3.556-8-3.556V114a1,1,0,0,0-1-1H15V39h5v70a1,1,0,0,0,1,1H63.667l7.733,5.8c.019.014.043.02.063.033s.057.045.09.062c.016.008.035.005.052.012a.885.885,0,0,0,.79,0c.017-.007.036,0,.052-.012.033-.017.059-.042.09-.062s.044-.019.063-.033l7.733-5.8H123a1,1,0,0,0,1-1V39h5Z"/><path d="M127,25H107a1,1,0,0,1,0-2h20a1,1,0,0,1,0,2Z"/><path d="M29,121H9a1,1,0,0,1,0-2H29a1,1,0,0,1,0,2Z"/><path d="M63,74H30a1,1,0,0,1,0-2H63a1,1,0,0,1,0,2Z"/><path d="M63,82H30a1,1,0,0,1,0-2H63a1,1,0,0,1,0,2Z"/><path d="M51,90H30a1,1,0,0,1,0-2H51a1,1,0,0,1,0,2Z"/><path d="M63,40H30a1,1,0,0,0-1,1V63a1,1,0,0,0,1,1H63a1,1,0,0,0,1-1V41A1,1,0,0,0,63,40ZM62,62H31V55.48L39.853,48.4l8.373,10.234a1,1,0,0,0,1.548-1.266l-3.927-4.8,2.11-2.11,7.3,8.208a1,1,0,1,0,1.5-1.33l-8-9A1,1,0,0,0,48.029,48a1.022,1.022,0,0,0-.736.293l-2.719,2.719-3.8-4.645a1,1,0,0,0-1.4-.148L31,52.92V42H62Z"/><path d="M56.5,52A3.5,3.5,0,1,1,60,48.5,3.5,3.5,0,0,1,56.5,52Zm0-5A1.5,1.5,0,1,0,58,48.5,1.5,1.5,0,0,0,56.5,47Z"/><path d="M94.827,71.169a8.764,8.764,0,0,1,.516-3.315,8.672,8.672,0,0,1,2.039-2.714,15.665,15.665,0,0,0,1.93-2.1,3.684,3.684,0,0,0,.625-2.059,3.15,3.15,0,0,0-.727-2.239,2.792,2.792,0,0,0-2.133-.772,3.071,3.071,0,0,0-2.164.755,2.647,2.647,0,0,0-.82,2.048H90.3a5.588,5.588,0,0,1,1.883-4.379,7.191,7.191,0,0,1,4.9-1.612,7.024,7.024,0,0,1,4.9,1.6,5.714,5.714,0,0,1,1.757,4.457,7.3,7.3,0,0,1-2.375,5.021l-1.921,1.891a5.155,5.155,0,0,0-1.063,3.426Zm-.265,4.852a1.989,1.989,0,0,1,.578-1.487,2.428,2.428,0,0,1,3.14.016,2,2,0,0,1,.578,1.471,1.967,1.967,0,0,1-.562,1.431,2.122,2.122,0,0,1-1.594.576,2.1,2.1,0,0,1-1.586-.576A1.981,1.981,0,0,1,94.562,76.021Z"/></svg>