<svg xmlns="http://www.w3.org/2000/svg" viewBox="0 0 144 144"><polygon points="98 47 98 37 26 37 26 105 41 85 46 85 46 95 103 95 118 115 118 47 98 47" class="sgmaincolor"/><path d="M118,46H99V37a1,1,0,0,0-1-1H26a1,1,0,0,0-1,1v68a1.014,1.014,0,0,0,.68.95A1.185,1.185,0,0,0,26,106a.985.985,0,0,0,.8-.4L41.5,86H45v9a1,1,0,0,0,1,1h56.5l14.7,19.6a.985.985,0,0,0,.8.4,1.185,1.185,0,0,0,.32-.05A1.014,1.014,0,0,0,119,115V47A1,1,0,0,0,118,46ZM45,47V84H41a1.014,1.014,0,0,0-.8.4L27,102V38H97v8H46A1,1,0,0,0,45,47Zm72,65L103.8,94.4a1.014,1.014,0,0,0-.8-.4H47V48h70Z"/><path d="M109,65H55a1,1,0,0,1,0-2h54a1,1,0,0,1,0,2Z"/><path d="M88,78H55a1,1,0,0,1,0-2H88a1,1,0,0,1,0,2Z"/><path d="M9.51,30.459a1,1,0,0,1-1-.982L8.178,10.421a1,1,0,0,1,1.476-.9L26.412,18.6a1,1,0,0,1,.043,1.733L10.029,30.313A1,1,0,0,1,9.51,30.459Zm.7-18.36.272,15.6,13.449-8.169Z"/><path d="M21.219,140.086a7.9,7.9,0,1,1,7.894-8.311h0a7.894,7.894,0,0,1-7.471,8.3C21.5,140.082,21.359,140.086,21.219,140.086Zm.012-13.793c-.1,0-.207,0-.311.009a5.9,5.9,0,1,0,6.195,5.579h0A5.9,5.9,0,0,0,21.231,126.293Z"/><path d="M9.92,127.282a.983.983,0,0,1-.4-.085,1,1,0,0,1-.513-1.317,12.561,12.561,0,0,1,10.917-7.449,1,1,0,0,1,.082,2,10.551,10.551,0,0,0-9.169,6.256A1,1,0,0,1,9.92,127.282Z"/><path d="M135,16H119a1,1,0,0,1,0-2h16a1,1,0,0,1,0,2Z"/></svg>
