<svg xmlns="http://www.w3.org/2000/svg" viewBox="0 0 117.303 100.102"><title>presentational-backup-manager</title><path d="M20.448,35.9a6.2,6.2,0,1,1,6.2-6.2h0A6.1,6.1,0,0,1,20.448,35.9Zm0-9.5a3.2,3.2,0,1,0,3.2,3.2h0A3.158,3.158,0,0,0,20.448,26.4Z" transform="translate(-5.348 -17.098)" fill="#834ba2"/><path d="M20.448,58.4a6.2,6.2,0,1,1,6.2-6.2h0A6.1,6.1,0,0,1,20.448,58.4Zm0-9.5a3.2,3.2,0,1,0,3.2,3.2h0A3.158,3.158,0,0,0,20.448,48.9Z" transform="translate(-5.348 -17.098)" fill="#834ba2"/><path d="M20.448,81.2a6.2,6.2,0,1,1,6.2-6.2h0A6.1,6.1,0,0,1,20.448,81.2Zm0-9.4a3.2,3.2,0,1,0,3.2,3.2h0A3.1,3.1,0,0,0,20.448,71.8Z" transform="translate(-5.348 -17.098)" fill="#834ba2"/><circle cx="62.4" cy="13.202" r="1.9" fill="#834ba2"/><circle cx="68.2" cy="13.202" r="1.9" fill="#834ba2"/><circle cx="74.1" cy="13.202" r="1.9" fill="#834ba2"/><circle cx="79.9" cy="13.202" r="1.9" fill="#834ba2"/><circle cx="85.7" cy="13.202" r="1.9" fill="#834ba2"/><circle cx="62.4" cy="35.702" r="1.9" fill="#834ba2"/><circle cx="68.2" cy="35.702" r="1.9" fill="#834ba2"/><circle cx="74.1" cy="35.702" r="1.9" fill="#834ba2"/><circle cx="79.9" cy="35.702" r="1.9" fill="#834ba2"/><circle cx="85.7" cy="35.702" r="1.9" fill="#834ba2"/><circle cx="95.403" cy="73.802" r="21.9" fill="#eddcf1"/><path d="M98.352,82.3l-5.9-5.8a1.712,1.712,0,0,0-2.2,0l-5.9,5.8a1.5,1.5,0,0,0-.4,1.1,1.538,1.538,0,0,0,1.5,1.5,2.1,2.1,0,0,0,1.1-.4l3.3-3.2V97.5a1.5,1.5,0,0,0,3,0V80.9l3.5,3.5a1.5,1.5,0,0,0,1.1.4,2.1,2.1,0,0,0,1.1-.4A1.675,1.675,0,0,0,98.352,82.3Z" transform="translate(-5.348 -17.098)" fill="#834ba2"/><path d="M97.352,84.8Z" transform="translate(-5.348 -17.098)" fill="#834ba2"/><path d="M110.552,90.4a1.45,1.45,0,0,0-2.1,0l-3.3,3.2V77.5a1.5,1.5,0,0,0-3,0V93.9l-3.5-3.5a1.485,1.485,0,0,0-2.1,2.1l5.9,5.8a1.5,1.5,0,0,0,1.1.4h0a2.1,2.1,0,0,0,1.1-.4l5.9-5.8h0A1.45,1.45,0,0,0,110.552,90.4Z" transform="translate(-5.348 -17.098)" fill="#834ba2"/><path d="M102.448,33.9V25.7a8.838,8.838,0,0,0-9.1-8.6h-78.9a8.9,8.9,0,0,0-9.1,8.6v8.2a8.746,8.746,0,0,0,3.9,7.1,8.746,8.746,0,0,0-3.9,7.1v8.2a8.746,8.746,0,0,0,3.9,7.1,8.746,8.746,0,0,0-3.9,7.1v8.2a8.839,8.839,0,0,0,9.1,8.6h38v17.3h-3.5a6.242,6.242,0,0,0-6.1,4.8h-12.2a1.5,1.5,0,1,0,0,3h12.2a6.308,6.308,0,0,0,6.1,4.8h10a6.244,6.244,0,0,0,6.1-4.8h12.1a1.5,1.5,0,0,0,0-3h-12a6.308,6.308,0,0,0-6.1-4.8h-3.5V87.3h11.3a1.5,1.5,0,0,0,0-3h-52.4a5.961,5.961,0,0,1-6.1-5.6V70.5a5.9,5.9,0,0,1,6.1-5.6h59.1a1.5,1.5,0,1,0,0-3h-59.1a5.961,5.961,0,0,1-6.1-5.6V48.1a5.9,5.9,0,0,1,6.1-5.6h78.9a5.96,5.96,0,0,1,6.1,5.6v9.1a1.5,1.5,0,0,0,3,0V48.1a8.741,8.741,0,0,0-3.9-7.1A8.886,8.886,0,0,0,102.448,33.9Zm-43.5,73.6a3.3,3.3,0,1,1,0,6.6h-10a3.329,3.329,0,0,1-3.3-3.3h0a3.329,3.329,0,0,1,3.3-3.3Zm40.5-73.6a5.807,5.807,0,0,1-6,5.6h-79a5.808,5.808,0,0,1-6-5.6V25.7a5.9,5.9,0,0,1,6.1-5.6h78.9a5.961,5.961,0,0,1,6.1,5.6l-.1,8.2Z" transform="translate(-5.348 -17.098)" fill="#834ba2"/><path d="M97.452,110.2a23.8,23.8,0,1,1,23.8-23.8h0A23.793,23.793,0,0,1,97.452,110.2Zm0-44.6a20.8,20.8,0,1,0,20.8,20.8,20.784,20.784,0,0,0-20.8-20.8Z" transform="translate(-5.348 -17.098)" fill="#834ba2"/></svg>