<svg xmlns="http://www.w3.org/2000/svg" viewBox="0 0 144 144"><g opacity="0"><rect width="144" height="144" fill="#fff"/></g><path d="M54.685,132.324h-36a1,1,0,0,1,0-2h36a1,1,0,0,1,0,2Z"/><path d="M127.556,51.605a8.87,8.87,0,0,1-3.958-.935A9.058,9.058,0,0,1,119.519,38.6h0a8.939,8.939,0,0,1,12.009-4.106A9.059,9.059,0,0,1,135.6,46.565a8.972,8.972,0,0,1-8.049,5.04Zm-6.24-12.131a7.054,7.054,0,0,0,3.17,9.405,6.94,6.94,0,0,0,9.322-3.192,7.056,7.056,0,0,0-3.168-9.407,6.944,6.944,0,0,0-9.324,3.194Z"/><path d="M74.944,30.425a1.066,1.066,0,0,1-.126-.008,1,1,0,0,1-.8-.61l-5.543-13.4a1,1,0,0,1,1.059-1.373L83.7,16.952a1,1,0,0,1,.665,1.592L75.744,30.025A1,1,0,0,1,74.944,30.425ZM70.99,17.248,75.2,27.422,81.745,18.7Z"/><rect x="18.686" y="59.823" width="52.121" height="58.41" class="sgmaincolor"/><rect x="63.686" y="73.922" width="53" height="58.41" class="sgmaincolor"/><path d="M116.685,72.922h-6.12V59.849c0-12.058-9.142-21.868-20.38-21.868-10.916,0-19.853,9.259-20.354,20.842h-5.9V45.754c0-12.059-9.142-21.868-20.379-21.868S23.172,33.7,23.172,45.754V58.823H18.685a1,1,0,0,0-1,1v13.1h-2a1,1,0,0,0-1,1v5.035a1,1,0,0,0,1,1h2v3.035h-2a1,1,0,0,0-1,1v5.035a1,1,0,0,0,1,1h2v3.036h-2a1,1,0,0,0-1,1V99.1a1,1,0,0,0,1,1h2v3.035h-2a1,1,0,0,0-1,1v5.035a1,1,0,0,0,1,1h2v8.063a1,1,0,0,0,1,1h44v13.1a1,1,0,0,0,1,1h53a1,1,0,0,0,1-1V73.922A1,1,0,0,0,116.685,72.922Zm-99,35.247h-1v-3.035h1Zm0-10.07h-1V95.063h1Zm0-10.072h-1V84.992h1Zm0-10.07h-1V74.922h1ZM71.807,59.849c0-10.955,8.245-19.868,18.378-19.868s18.38,8.913,18.38,19.868V72.922h-3.182V59.849c0-8.981-6.818-16.287-15.2-16.287s-15.2,7.306-15.2,16.287V72.922H71.807Zm31.576,0V72.922H76.989V59.849c0-7.878,5.92-14.287,13.2-14.287S103.383,51.971,103.383,59.849ZM25.172,45.754c0-10.955,8.245-19.868,18.38-19.868S61.931,34.8,61.931,45.754V58.823H58.748V45.754c0-8.982-6.817-16.288-15.2-16.288s-15.2,7.306-15.2,16.288V58.823H25.172Zm31.576,0V58.823H30.354V45.754c0-7.879,5.92-14.288,13.2-14.288S56.748,37.875,56.748,45.754ZM19.685,74.922h16v3.035h-16Zm0,10.07h16v3.035h-16Zm0,10.071h16V98.1h-16Zm0,10.071h16v3.035h-16Zm0,12.1v-7.063h17a1,1,0,0,0,1-1v-5.035a1,1,0,0,0-1-1h-17V100.1h17a1,1,0,0,0,1-1V94.063a1,1,0,0,0-1-1h-17V90.027h17a1,1,0,0,0,1-1V83.992a1,1,0,0,0-1-1h-17V79.957h17a1,1,0,0,0,1-1V73.922a1,1,0,0,0-1-1h-17v-12.1h4.489l.014,0h5.2l.014,0H57.7l.015,0h5.2l.015,0h6.878v12.1H63.685a1,1,0,0,0-1,1v43.31Zm45-29.218h19v3.035h-19Zm0,10.07h19v3.035h-19Zm0,10.071h19v3.035h-19Zm0,10.071h19v3.035h-19Zm51,13.106h-51v-8.071h20a1,1,0,0,0,1-1v-5.035a1,1,0,0,0-1-1h-20V113.19h20a1,1,0,0,0,1-1v-5.035a1,1,0,0,0-1-1h-20v-3.036h20a1,1,0,0,0,1-1V97.084a1,1,0,0,0-1-1h-20V93.049h20a1,1,0,0,0,1-1V87.014a1,1,0,0,0-1-1h-20V74.922h51Z"/></svg>