<svg xmlns="http://www.w3.org/2000/svg" viewBox="0 0 144 144"><g opacity="0"><rect x="24" width="96" height="96" fill="#fff"/><rect width="144" height="144" fill="#07fc00"/></g><path d="M54.685,132.324h-36a1,1,0,0,1,0-2h36a1,1,0,0,1,0,2Z"/><path d="M127.556,36.025a8.87,8.87,0,0,1-3.958-.935,9.058,9.058,0,0,1-4.079-12.075h0a8.939,8.939,0,0,1,12.009-4.106A9.059,9.059,0,0,1,135.6,30.985a8.972,8.972,0,0,1-8.049,5.04Zm-6.24-12.131a7.054,7.054,0,0,0,3.17,9.405,6.94,6.94,0,0,0,9.322-3.192A7.056,7.056,0,0,0,130.64,20.7a6.944,6.944,0,0,0-9.324,3.194Z"/><path d="M20.772,22.724a1.066,1.066,0,0,1-.126-.008,1,1,0,0,1-.8-.61L14.305,8.7a1,1,0,0,1,1.059-1.373l14.167,1.92a1,1,0,0,1,.665,1.592L21.572,22.325A1,1,0,0,1,20.772,22.724ZM16.818,9.547l4.208,10.174L27.573,11Z"/><path d="M71.994,22.315A49.688,49.688,0,1,0,121.688,72,49.687,49.687,0,0,0,71.994,22.315ZM78.967,68.7q2.641,15.023,5.2,30.07c.468,2.767.324,2.9-2.444,2.9H71.6c-3.642,0-7.284.012-10.926,0-1.593,0-2.013-.515-1.749-2.049Q61.6,84.08,64.291,68.547A1.293,1.293,0,0,0,63.608,67a14.572,14.572,0,1,1,16.15-.083A1.516,1.516,0,0,0,78.967,68.7Z" class="sgmaincolor"/><path d="M72,122.888A50.888,50.888,0,1,1,122.888,72,50.946,50.946,0,0,1,72,122.888Zm0-99.38A48.492,48.492,0,1,0,120.492,72,48.547,48.547,0,0,0,72,23.508Z"/><path d="M65.349,102.875q-2.34,0-4.682,0a3.1,3.1,0,0,1-2.488-.881,3.06,3.06,0,0,1-.44-2.57l.84-4.872q2.259-13.1,4.535-26.2a1.071,1.071,0,0,0,.022-.218c-.013,0-.066-.052-.185-.131a15.767,15.767,0,1,1,17.475-.086,1.021,1.021,0,0,0-.3.25h0a.989.989,0,0,0,.023.333c1.574,8.96,3.225,18.52,5.194,30.083.24,1.4.445,2.607-.271,3.455s-1.866.826-3.355.843H65.349Zm-5.3-2.452a2.951,2.951,0,0,0,.626.052q3.9.009,7.8,0l13.242,0a12.026,12.026,0,0,0,1.456-.051,13.6,13.6,0,0,0-.191-1.447c-1.969-11.559-3.619-21.115-5.194-30.073a2.691,2.691,0,0,1,1.3-2.986,13.24,13.24,0,0,0,4.947-16.056A13.373,13.373,0,1,0,64.27,66a2.5,2.5,0,0,1,1.2,2.762q-2.286,13.1-4.535,26.2l-.84,4.872A2.8,2.8,0,0,0,60.046,100.423Z"/><path d="M65.349,102.875q-2.34,0-4.682,0a3.1,3.1,0,0,1-2.488-.881,3.06,3.06,0,0,1-.44-2.57l.84-4.872q2.259-13.1,4.535-26.2a1.071,1.071,0,0,0,.022-.218c-.013,0-.066-.052-.185-.131a15.767,15.767,0,1,1,17.475-.086,1.021,1.021,0,0,0-.3.25h0a.989.989,0,0,0,.023.333c1.574,8.96,3.225,18.52,5.194,30.083.24,1.4.445,2.607-.271,3.455s-1.866.826-3.355.843H65.349Zm-5.3-2.452a2.951,2.951,0,0,0,.626.052q3.9.009,7.8,0l13.242,0a12.026,12.026,0,0,0,1.456-.051,13.6,13.6,0,0,0-.191-1.447c-1.969-11.559-3.619-21.115-5.194-30.073a2.691,2.691,0,0,1,1.3-2.986,13.24,13.24,0,0,0,4.947-16.056A13.373,13.373,0,1,0,64.27,66a2.5,2.5,0,0,1,1.2,2.762q-2.286,13.1-4.535,26.2l-.84,4.872A2.8,2.8,0,0,0,60.046,100.423Z"/></svg>