<svg id="b8197b21-06fb-40dc-ad5b-e40d82a8355c" data-name="Icons" xmlns="http://www.w3.org/2000/svg" viewBox="0 0 144 144"><rect width="144" height="144" fill="#fff" opacity="0"/><path d="M9.533,52.062v57.121H33.588a32.633,32.633,0,1,1,58.43,0h26.807V52.062Z" class="sgmaincolor"/><path d="M135.39,18.244a1,1,0,0,0-.789-.606l-14.167-1.907a1,1,0,0,0-1.057,1.376l5.543,13.306a1,1,0,0,0,.8.608,1.064,1.064,0,0,0,.126.007,1,1,0,0,0,.8-.4l8.624-11.4A1,1,0,0,0,135.39,18.244ZM126.1,28.036l-4.2-10.091,10.743,1.447Z"/><path d="M18.794,44.289a3.065,3.065,0,1,0-3.064-3.065A3.064,3.064,0,0,0,18.794,44.289Z"/><path d="M27.987,44.289a3.065,3.065,0,1,0-3.065-3.065A3.064,3.064,0,0,0,27.987,44.289Z"/><path d="M37.179,44.289a3.065,3.065,0,1,0-3.064-3.065A3.064,3.064,0,0,0,37.179,44.289Z"/><path d="M118.825,30.046H9.533a1,1,0,0,0-1,1v78.137a1,1,0,0,0,1,1H32.989a33.61,33.61,0,0,0,59.628,0h26.208a1,1,0,0,0,1-1V31.046A1,1,0,0,0,118.825,30.046Zm-1,2V51.062H10.533V32.046Zm-82.56,78.137h12.01q.186.685.389,1.352a25.1,25.1,0,0,0-7.416,5.26A31.869,31.869,0,0,1,35.265,110.183Zm5.211-37.926a25.519,25.519,0,0,0,7.312,5.081,57.78,57.78,0,0,0-2.461,16.307H31.2A31.536,31.536,0,0,1,40.476,72.257ZM94.41,93.645H80.278a57.817,57.817,0,0,0-2.46-16.307,25.537,25.537,0,0,0,7.312-5.08A31.533,31.533,0,0,1,94.41,93.645ZM63.8,80.5a35.113,35.113,0,0,0,12.152-2.35,56.144,56.144,0,0,1,2.324,15.5H63.8Zm0-2V63.427c4.72.611,8.87,5.51,11.506,12.788A32.887,32.887,0,0,1,63.8,78.5Zm-2,0A32.877,32.877,0,0,1,50.3,76.215c2.635-7.278,6.786-12.177,11.506-12.788Zm0,2V93.645H47.327a56.1,56.1,0,0,1,2.324-15.5A35.113,35.113,0,0,0,61.8,80.5Zm0,15.149v12.538H48.841a58.327,58.327,0,0,1-1.514-12.538ZM50.948,110.183c-.5.171-.966.351-1.427.536-.053-.176-.1-.357-.153-.536Zm10.855.134v15.544c-4.81-.622-9.027-5.7-11.653-13.2A32.838,32.838,0,0,1,61.8,110.317Zm-5.554,15.274A31.565,31.565,0,0,1,41.7,118.182a23.63,23.63,0,0,1,6.6-4.7C50.229,118.915,52.984,123.146,56.249,125.591Zm7.554.27V110.317a32.817,32.817,0,0,1,11.653,2.339C72.83,120.163,68.612,125.239,63.8,125.861Zm13.5-12.376a23.651,23.651,0,0,1,6.6,4.7,31.555,31.555,0,0,1-14.553,7.41C72.622,123.146,75.377,118.914,77.305,113.485Zm-2.645-3.3h1.578c-.051.178-.1.359-.153.536C75.625,110.534,75.155,110.354,74.66,110.183Zm-10.857-2V95.645H78.279a58.39,58.39,0,0,1-1.514,12.538ZM80.278,95.645H94.41a31.416,31.416,0,0,1-3.024,12.538H78.83A60.678,60.678,0,0,0,80.278,95.645ZM77.154,75.4c-1.919-5.234-4.615-9.318-7.8-11.7a31.551,31.551,0,0,1,14.3,7.191A24.21,24.21,0,0,1,77.154,75.4Zm-28.7,0a24.205,24.205,0,0,1-6.5-4.51A31.556,31.556,0,0,1,56.25,63.7C53.067,66.081,50.371,70.165,48.451,75.4ZM45.327,95.645a60.745,60.745,0,0,0,1.449,12.538H34.22A31.417,31.417,0,0,1,31.2,95.645Zm40.031,21.149a25.1,25.1,0,0,0-7.416-5.26q.2-.666.389-1.351H90.34A31.8,31.8,0,0,1,85.358,116.794Zm32.467-8.611H93.58a33.543,33.543,0,0,0-7.771-38.039.89.89,0,0,0-.1-.119c-.015-.012-.034-.015-.049-.025a33.55,33.55,0,0,0-45.707,0c-.016.011-.035.014-.05.026a.806.806,0,0,0-.105.122,33.547,33.547,0,0,0-7.771,38.038H10.533V53.062H117.825Z"/></svg>