<svg xmlns="http://www.w3.org/2000/svg" viewBox="0 0 128 128"><g id="Protected_URL_Users" data-name="Protected URL Users"><path d="M55.1,79.4H12a8.1,8.1,0,0,1-8.3-7.8V23A8.1,8.1,0,0,1,12,15.2H82.3A8,8,0,0,1,90.5,23V49A1.5,1.5,0,0,1,89,50.5,1.5,1.5,0,0,1,87.5,49V23a5,5,0,0,0-5.2-4.8H12A5.1,5.1,0,0,0,6.7,23V71.6A5.1,5.1,0,0,0,12,76.4H55.1a1.5,1.5,0,0,1,0,3Z" fill="#c1aa95"></path><rect x="4.9" y="30" width="84" height="3" fill="#c1aa95"></rect><circle cx="14.5" cy="23.7" r="2.4" fill="#c1aa95"></circle><circle cx="21.7" cy="23.7" r="2.4" fill="#c1aa95"></circle><circle cx="28.9" cy="23.7" r="2.4" fill="#c1aa95"></circle><path d="M29.9,116.5a1.2,1.2,0,0,1-1.2-1.2,9.5,9.5,0,0,0-9.6-9.5,1.2,1.2,0,0,1-1.2-1.3,1.2,1.2,0,0,1,1.2-1.2,9.6,9.6,0,0,0,9.6-9.5,1.2,1.2,0,1,1,2.4,0,9.6,9.6,0,0,0,9.6,9.5,1.3,1.3,0,0,1,1.2,1.2,1.3,1.3,0,0,1-1.2,1.3,9.5,9.5,0,0,0-9.6,9.5A1.2,1.2,0,0,1,29.9,116.5Zm-5.5-12a12.4,12.4,0,0,1,5.5,5.6,12.4,12.4,0,0,1,5.5-5.6A11.7,11.7,0,0,1,29.9,99,11.7,11.7,0,0,1,24.4,104.5Z" fill="#e4cdac"></path><path d="M118.1,101.4a6,6,0,1,1-6-6,6,6,0,0,1,6,6" fill="#e4cdac"></path><path d="M124,82.2a3.9,3.9,0,0,1-4,4,4,4,0,0,1,0-8,3.9,3.9,0,0,1,4,4" fill="#e4cdac"></path><path d="M120.8,62.6a2.9,2.9,0,0,1-3,3,3,3,0,0,1-3-3,3.1,3.1,0,0,1,3-3,3,3,0,0,1,3,3" fill="#e4cdac"></path><path d="M97.7,77.6A18,18,0,1,0,66,83.2l-7.1,24.3,8.4,9.9,12.4-3.9,1-3.4-2.5-4.5,4.5-2.4,1-3.5-2.4-4.5,4.4-2.4,1.1-3.5A17.9,17.9,0,0,0,97.7,77.6Z" fill="#edddc5"></path><path d="M80.4,57.5a15.4,15.4,0,0,1,4.3.6,15,15,0,0,1,1,28.4l-1.4.5-.4,1.4-.7,2.4-3.4,1.8L77.2,94l1.4,2.7,1.9,3.4-.3,1L76.8,103l-2.6,1.4,1.4,2.6,1.8,3.4-.2.7-8.9,2.8-6-7.1L68.9,84l.4-1.4-.8-1.2A14.7,14.7,0,0,1,66,68.3,15.1,15.1,0,0,1,80.4,57.5m0-3A18,18,0,0,0,66,83.2l-7.1,24.3,8.4,9.9,12.4-3.9,1-3.4-2.5-4.5,4.5-2.4,1-3.5-2.4-4.5,4.4-2.4,1.1-3.5a18,18,0,0,0-6.4-34.8Z" fill="#c1aa95"></path><path d="M81.4,75.5a5.5,5.5,0,0,1-1.8-.2,6.6,6.6,0,0,1-4.4-8.1,6.4,6.4,0,0,1,8.1-4.4,6.5,6.5,0,0,1,3.8,3.1,6.2,6.2,0,0,1,.6,5h0A6.5,6.5,0,0,1,81.4,75.5Zm0-10a3.3,3.3,0,0,0-1.6.5,3.3,3.3,0,0,0-1.7,2.1,3.4,3.4,0,0,0,2.4,4.3,3,3,0,0,0,2.6-.3A3.6,3.6,0,0,0,84.8,70a3.5,3.5,0,0,0-2.4-4.3Z" fill="#c1aa95"></path><path d="M46.9,41.2a5,5,0,0,1,5,5,5,5,0,0,1-5,5,5.1,5.1,0,0,1-5-5,5,5,0,0,1,5-5m0-3a8,8,0,1,0,8,8,8,8,0,0,0-8-8Z" fill="#c1aa95"></path><path d="M46.9,57.2a9,9,0,0,1,9,9,1,1,0,0,1-1,1h-16a1.1,1.1,0,0,1-1-1,9,9,0,0,1,9-9m0-3a12,12,0,0,0-12,12h0a4,4,0,0,0,4,4h16a4,4,0,0,0,4-4h0a12,12,0,0,0-12-12Z" fill="#c1aa95"></path></g></svg>