<svg xmlns="http://www.w3.org/2000/svg" viewBox="0 0 144 144"><g opacity="0"><rect width="144" height="144" fill="#fff"/></g><path d="M22.655,134.437a7.848,7.848,0,0,1-4.119-1.171h0a7.838,7.838,0,1,1,4.119,1.172Zm-3.073-2.876a5.9,5.9,0,1,0-1.937-8.11,5.9,5.9,0,0,0,1.937,8.11Z"/><path d="M16.177,138.521a1,1,0,0,1-.435-.1A12.4,12.4,0,0,1,8.861,127.1a1,1,0,0,1,1-.973h.027a1,1,0,0,1,.974,1.026,10.511,10.511,0,0,0,5.754,9.464,1,1,0,0,1-.438,1.9Z"/><path d="M32.96,35.666a.976.976,0,0,1-.132-.009L16.439,33.484a1,1,0,0,1-.658-1.6L25.837,18.931a1,1,0,0,1,1.713.227L33.882,34.28a1,1,0,0,1-.922,1.386ZM18.429,31.731l12.936,1.715-5-11.935Z"/><path d="M110.276,38.23c-.07-.047-70.966,7.637-71.008,7.664-.026.018-25.047,27.729-25.047,27.729l13.065-1.2.13,37.457L68.79,122.453c.122.035,52.481-12.521,53.358-12.73l.077-34.113s13.479-1.871,14.329-1.987C137.2,73.535,110.353,38.282,110.276,38.23Z" class="sgmaincolor"/><path d="M137.611,73.344c-6.695-8.991-26.279-35.393-26.279-35.393a.973.973,0,0,0-.162-.146.99.99,0,0,0-1-.569L39.161,44.9a.965.965,0,0,0-.141.045c-.027.007-.054.011-.081.02-.012,0-.022.012-.033.016a1,1,0,0,0-.18.087.247.247,0,0,0-.061.03.829.829,0,0,0-.062.071.688.688,0,0,0-.075.055L13.479,72.953s-.006.012-.011.018a6.987,6.987,0,0,0-.194.337,1.127,1.127,0,0,0-.022.156,1.05,1.05,0,0,0-.025.229c0,.008,0,.014,0,.021a.94.94,0,0,0,.054.19,1.009,1.009,0,0,0,.045.154,1,1,0,0,0,.226.306h0c.017.015.038.02.055.034a.9.9,0,0,0,.592.22c.008,0,.014,0,.022,0h0c.03,0,.061,0,.092,0l11.976-1.1.126,36.366a1,1,0,0,0,.709.953L68.5,123.409a1.046,1.046,0,0,0,.288.043h0a1.016,1.016,0,0,0,.233-.027L122.38,110.7a1,1,0,0,0,.768-.97l.075-33.267,12.959-1.775c.749-.1,1.287-.157,1.487-.483A.707.707,0,0,0,137.611,73.344ZM26.777,71.466l-10.1.927L39.2,47.462l3.45,4.554Zm10.191,3.756c-.016,0-.03-.009-.047-.009h0a.919.919,0,0,0-.156.032.939.939,0,0,0-.184.038.92.92,0,0,0-.172.093.642.642,0,0,0-.27.245.924.924,0,0,0-.111.166,1,1,0,0,0-.054.179.888.888,0,0,0-.046.152.443.443,0,0,0,.006.051c0,.016-.01.03-.01.047l.109,35.237-7.618-2.314-.125-36.36L43.9,53.656,62.043,77.61,37.015,75.217C37,75.216,36.984,75.223,36.968,75.222Zm13.483,40.613-12.42-3.774-.106-34.747,12.539,1.2ZM67.789,121.1l-15.338-4.66L52.464,78.7l11.22,1.072,2.967,3.916c.015.021.04.028.057.047a1,1,0,0,0,.239.2,1.165,1.165,0,0,0,.1.06.98.98,0,0,0,.4.092h0a.991.991,0,0,0,.133-.009l.206-.029Zm53.361-12.17L69.789,121.186V83.776l51.433-7.044ZM67.891,82.018,41.133,46.7l68.7-7.415L134.76,72.859Z"/></svg>