<svg enable-background="new 0 0 128 128" viewBox="0 0 128 128" xml:space="preserve" xmlns="http://www.w3.org/2000/svg"><polygon points="80.7 92 74.9 94.9 88.3 109.1 99.3 98.8"/><polygon points="65.8 123.7 73 112.9 65.7 108.6 57.9 114.2"/><polygon points="37.3 47.2 22.1 45.8 29.6 35.1"/><polygon points="93.8 74.3 80.1 81.1 80.8 68.2"/><path d="m67.5 69.1h-0.4c-3.2-0.8-6.3-2.1-9.2-3.7-0.4-0.2-0.7-0.6-0.7-1.1v-0.1-0.7c0.5-1.7 1-3.4 1.5-5.2 0.2-0.5 0.3-1.1 0.5-1.6l-0.2-0.1c-0.3-0.2-0.6-0.5-0.9-0.7-1-0.9-2-1.9-2.8-3 0 0-0.1-0.1-0.1-0.2-2.2 0.7-4.4 1.4-6.9 2.1-0.6 0.2-1.3-0.1-1.7-0.6-0.7-1-1.3-2.2-1.7-3.3-0.3-0.6-0.6-1.2-0.8-1.8-0.5-1.2-1-2.5-1.3-3.7l-0.1-0.2c-0.2-0.7 0.1-1.4 0.7-1.7 2.4-1.4 4.4-2.5 6.4-3.6v-0.2c-0.2-1.2-0.2-2.4-0.2-3.6 0-0.7 0.1-1.4 0.2-2.1-1-0.5-2-1-2.9-1.5-1.2-0.6-2.4-1.2-3.5-1.8-0.7-0.4-1-1.2-0.7-1.9l0.3-0.9c0-0.1 0.1-0.3 0.1-0.4 0.3-1 0.6-2 1-3 0.7-1.6 1.5-3.2 2.4-4.7 0.3-0.6 1-0.8 1.7-0.7 2.1 0.5 4 1.1 6.1 1.8l0.9 0.3 0.1-0.1c0.2-0.3 0.5-0.6 0.7-0.9l0.1-0.1c0.9-0.9 1.9-1.8 2.5-2.4 0.1-0.1 0.2-0.2 0.4-0.2-0.3-1-0.6-1.9-0.9-2.9-0.4-1.3-0.8-2.7-1.3-4-0.2-0.7 0-1.4 0.7-1.8 1.1-0.7 2.3-1.3 3.5-1.8 0.3-0.1 0.6-0.3 1-0.5 0-0.4 0.2-0.5 0.3-0.5s0.2-0.1 0.3-0.1c0.1-0.1 0.3-0.2 0.4-0.2 0.4-0.1 0.9-0.3 1.3-0.4 0.8-0.3 1.6-0.5 2.4-0.7 0.6-0.1 1.3 0.1 1.6 0.7 0.9 1.5 1.8 3.1 2.6 4.6l0.9 1.8h0.1c1.3-0.2 2.6-0.3 3.9-0.2 0.6 0 1.2 0 1.8 0.1 1-2 2.1-4.1 3.3-6.2 0.1-0.2 0.2-0.4 0.4-0.6 0.4-0.3 0.9-0.5 1.4-0.4 3.2 0.6 6.3 1.9 9.2 3.7 0.6 0.3 0.8 1 0.7 1.7-0.6 2.3-1.3 4.6-2 6.9l1.5 1.2c0.9 0.8 1.6 1.6 2.3 2.5l0.2 0.2 3-0.9c1.3-0.4 2.7-0.8 4-1.2 0.7-0.2 1.4 0.1 1.7 0.7 0.8 1.4 1.4 2.5 1.9 3.6 0.2 0.3 0.3 0.6 0.4 1 0.2 0.3 0.4 0.7 0.5 1.1 0.5 1.1 0.8 2.3 1.2 3.3 0.2 0.7-0.1 1.4-0.7 1.8-2.2 1.3-4.3 2.4-6.3 3.4l0.1 0.7v0.1c0.1 1.2 0.1 2.3 0.1 3.5 0 0.6 0 1.2-0.1 1.8 1.6 0.8 3.2 1.7 4.8 2.5l1.5 0.8c0.1 0 0.1 0.1 0.2 0.1l0.1 0.1c0.4 0.3 0.7 0.9 0.6 1.5-0.1 0.7-0.3 1.3-0.5 1.9-0.3 1-0.6 2-1.1 3-0.5 1.6-1.3 3.1-2.2 4.4-0.2 0.4-0.6 0.6-1 0.6h-0.8c-1.3-0.4-2.7-0.8-4-1.2-0.9-0.3-1.8-0.5-2.7-0.8-0.4 0.5-0.8 0.9-1.2 1.4-0.8 1-1.6 1.8-2.6 2.6-0.6 0.5-1.6 0.4-2.1-0.2l-7.9-9.5c-0.5-0.6-0.4-1.6 0.2-2.1 3.4-2.9 4.6-7.6 2.9-11.8-1-2.5-3-4.5-5.6-5.4-5.2-2.1-11.1 0.4-13.2 5.6-1.1 2.5-1 5.3 0.1 7.8 1 2.5 3 4.5 5.5 5.5 1 0.4 2.1 0.6 3.1 0.7 0.7 0.1 1.2 0.5 1.4 1.2l2.4 12.4c0.2 0.8-0.4 1.6-1.2 1.8h-0.1c-0.9 0.1-1.8 0.1-2.7 0-0.7 0-1.4 0-2.1-0.1-1.2 2.3-2.3 4.5-3.3 6.3-0.3 0.2-0.9 0.5-1.4 0.5zm-7-5.8c2 1.1 4.1 1.9 6.3 2.5 1-1.8 2.1-4 3.2-6.2 0.3-0.6 0.9-0.9 1.6-0.8 0.9 0.2 1.8 0.2 2.7 0.2h0.2 0.5l-2-9.5c-4.5-0.7-8.3-3.7-10-7.9-1.4-3.2-1.5-6.8-0.1-10 2.7-6.7 10.3-10 17.1-7.3 3.3 1.2 5.9 3.8 7.2 7 1.4 3.2 1.4 6.8 0.1 10-0.6 1.6-1.6 3-2.7 4.2l6 7.2c0.4-0.4 0.7-0.7 1-1.1 0-0.1 0.1-0.1 0.1-0.2 0.6-0.6 1.1-1.3 1.6-2 0.4-0.5 1-0.7 1.7-0.5 1.2 0.4 2.5 0.7 3.7 1.1l3 0.9c0.5-0.9 1-1.9 1.3-2.9 0-0.1 0-0.1 0.1-0.2 0.4-0.8 0.7-1.7 0.9-2.6 0-0.1 0-0.2 0.1-0.2 0-0.1 0.1-0.2 0.1-0.4l-0.6-0.3-5.7-3c-0.6-0.3-0.9-1-0.8-1.6 0.2-0.8 0.3-1.6 0.3-2.4 0-1.1 0-2.1-0.1-3.2l-0.2-1.7c-0.1-0.6 0.2-1.3 0.8-1.6 2-1 4-2.1 6.1-3.3-0.2-0.7-0.5-1.4-0.8-2.1 0-0.1-0.1-0.2-0.1-0.4-0.1-0.1-0.1-0.2-0.2-0.3l-0.3-0.6c0-0.2-0.1-0.3-0.2-0.5-0.4-0.7-0.8-1.5-1.2-2.4-1 0.3-1.9 0.6-2.8 0.9l-3.9 1.2c-0.6 0.2-1.2 0-1.5-0.4-0.1-0.1-0.2-0.2-0.2-0.3-0.1-0.1-0.2-0.3-0.4-0.4l-0.3-0.3c-0.6-0.8-1.3-1.5-2-2.2-0.6-0.5-1.4-1.1-2.1-1.6-0.5-0.4-0.7-1-0.5-1.6v-0.1c0.7-2.1 1.4-4.3 2-6.5-2-1.1-4.1-2-6.3-2.6-1.2 2.2-2.3 4.3-3.3 6.3-0.3 0.5-0.8 0.9-1.4 0.8-0.3 0-0.6-0.1-1-0.1-0.5-0.1-1-0.1-1.6-0.1h-0.2c-1.1-0.1-2.2 0-3.3 0.1l-1.1 0.2c-0.6 0.1-1.2-0.2-1.5-0.7l-1.5-2.7c-0.6-1.2-1.3-2.3-1.9-3.5-0.3 0.1-0.7 0.2-1 0.3-0.4 0.1-0.8 0.3-1.2 0.4-0.2 0.1-0.5 0.3-0.7 0.3-0.1 0-0.1 0-0.1 0.1-0.4 0.2-0.7 0.3-0.9 0.4-0.9 0.4-1.6 0.8-2.3 1.1 0.3 1 0.6 1.9 0.9 2.9 0.4 1.3 0.8 2.6 1.2 3.8 0.2 0.6 0 1.2-0.4 1.6-0.2 0.1-0.3 0.3-0.5 0.4-0.1 0.1-0.3 0.2-0.4 0.3s-0.2 0.2-0.4 0.2h-0.1c-0.6 0.5-1.4 1.3-2.1 2-0.3 0.3-0.5 0.6-0.8 1-0.2 0.3-0.5 0.6-0.7 0.9-0.4 0.5-1 0.7-1.6 0.5l-1.9-0.6c-1.7-0.5-3.3-1-4.9-1.4-0.6 1.1-1.2 2.2-1.6 3.3l-0.9 2.7v0.1l-0.1 0.2 2.4 1.2c1.3 0.6 2.5 1.3 3.8 1.9 0.1 0 0.2 0.1 0.3 0.2s0.2 0.1 0.2 0.2c0.3 0.3 0.5 0.8 0.4 1.3-0.1 1-0.3 1.9-0.3 2.9s0 2 0.2 3l0.2 1.2c0.1 0.6-0.2 1.3-0.8 1.6-1.9 1-3.9 2-6.2 3.4 0.3 0.9 0.6 1.7 0.9 2.5v0.1c0.2 0.5 0.4 1.1 0.7 1.6v0.1c0.3 0.7 0.6 1.3 0.9 1.9 2.4-0.7 4.6-1.4 6.6-2.1 0.5-0.2 1.2 0 1.6 0.4 0.2 0.3 0.5 0.5 0.6 0.7 0.1 0.1 0.2 0.2 0.2 0.3 0.7 1 1.5 1.8 2.4 2.6 0.3 0.2 0.6 0.5 0.9 0.7s0.6 0.5 0.9 0.7c0.5 0.4 0.7 1 0.5 1.6-0.3 0.9-0.5 1.7-0.8 2.6-0.2 1.9-0.6 3.3-1 4.6zm-9.3-31.7z"/><path d="m39.1 102.2h-0.2c-0.6-0.1-1.2-0.2-1.7-0.4-0.2-0.1-0.5-0.1-0.7-0.2h-0.1l-0.6-0.2c-0.1 0-0.2-0.1-0.4-0.1l-0.2-0.1h-0.1c-0.2-0.1-0.5-0.2-0.7-0.3-0.6-0.2-1.2-0.5-1.8-0.8s-0.8-1-0.7-1.6c0.3-1.5 0.6-3 0.9-4.4-0.6-0.4-1.2-0.9-1.7-1.5l-0.6-0.6-3.9 1.5c-0.2 0.1-0.3 0.2-0.5 0.2-0.6 0.1-1.1-0.1-1.5-0.6-1.3-1.8-2.3-3.9-3.1-6-0.1-0.3-0.1-0.6 0-0.9 0.1-0.4 0.3-0.7 0.6-0.9l1.2-0.8c0.9-0.5 1.7-1.1 2.5-1.6 0-0.3-0.1-0.6-0.1-0.8-0.1-0.8-0.1-1.6-0.1-2.4-1.4-0.6-2.7-1.2-4-1.8-0.6-0.3-1-0.9-0.9-1.6 0.1-0.6 0.2-1.2 0.4-1.8 0.1-0.3 0.1-0.5 0.2-0.8v-0.1l0.4-1.3s0-0.1 0.1-0.1c0.1-0.2 0.2-0.5 0.3-0.7 0.2-0.6 0.5-1.2 0.8-1.7 0.3-0.6 1-0.9 1.6-0.7 1.3 0.3 2.6 0.6 3.9 0.9l0.4 0.1c0.3-0.4 0.6-0.8 1-1.2 0.1-0.2 0.3-0.3 0.4-0.5l0.1-0.1 0.5-0.5c-0.6-1.4-1.1-2.8-1.6-4.2-0.2-0.6 0-1.4 0.5-1.8 0.9-0.7 1.9-1.3 3-1.8 0.6-0.4 1.3-0.7 2-1 0.5-0.2 0.8-0.3 1.1-0.3 0.6-0.2 1.3 0.1 1.6 0.6 0.8 1.2 1.6 2.5 2.4 3.8 0.4-0.1 0.8-0.1 1.1-0.2 0.7-0.1 1.4-0.1 2.2-0.1 0.6-1.4 1.2-2.8 1.8-4.1 0.3-0.6 0.9-1 1.6-0.9 1 0.1 2 0.4 3 0.7l1.2 0.4c0.8 0.3 1.6 0.6 2.3 1 0.6 0.3 1 1 0.8 1.6-0.3 1.5-0.6 3-0.9 4.4 0.5 0.4 1.1 0.8 1.6 1.2 0.6 0.5 0.7 1.5 0.1 2.1l-5.6 6c-0.5 0.6-1.5 0.6-2.1 0.1s-1.3-0.9-2.1-1.2c-3.2-1.1-6.8 0.6-7.9 3.9v0.1c-0.5 1.6-0.4 3.3 0.3 4.7 0.7 1.5 2 2.7 3.6 3.1h0.1c1.5 0.6 3.2 0.5 4.6-0.4 2.5-1.2 3.8-3.9 3.4-6.6-0.1-0.8 0.4-1.6 1.2-1.7h0.2l8.3-0.4c0.8 0 1.5 0.6 1.6 1.4 0.1 0.7 0.1 1.4 0 2v0.1c1 0.4 2 0.9 2.9 1.3l1 0.4c0.6 0.3 1 0.9 0.9 1.5-0.2 1.3-0.5 2.6-0.9 3.9-0.3 0.9-0.7 1.8-1.2 2.7-0.3 0.6-0.9 0.8-1.6 0.7-1.5-0.3-3-0.6-4.4-0.9-0.4 0.7-0.9 1.3-1.5 1.9l-0.6 0.6c0.1 0.2 0.2 0.4 0.2 0.6 0.4 1.1 0.9 2.2 1.3 3.3 0.1 0.2 0.2 0.3 0.2 0.5 0.1 0.6-0.1 1.2-0.6 1.5l-0.6 0.4c-0.7 0.5-1.4 0.9-2.2 1.3-0.6 0.4-1.3 0.7-2 0.9-0.4 0.2-0.8 0.3-1.2 0.4-0.7 0.2-1.5-0.1-1.8-0.7-0.4-0.7-0.9-1.4-1.3-2.1-0.3-0.5-0.6-1-1-1.5-0.3 0-0.6 0.1-0.9 0.1-0.7 0.1-1.4 0.2-2.1 0.2h-0.4c-0.6 1.4-1.2 2.7-1.8 4-0.4 0.6-1 0.9-1.5 0.9zm-1.9-3.4c0.3 0.1 0.5 0.1 0.7 0.2l0.3 0.1c0.6-1.2 1.1-2.5 1.6-3.8 0.3-0.8 1.1-1.1 1.9-0.9h0.4 0.2 0.2c0.6 0 1.2 0 1.8-0.1h0.1c0.5 0 1-0.1 1.5-0.2 0.6-0.2 1.3 0.1 1.7 0.6l1.5 2.4c0.3 0.4 0.5 0.8 0.8 1.2 0.5-0.2 1-0.4 1.5-0.7 0.1 0 0.1-0.1 0.2-0.1 0.5-0.2 0.9-0.5 1.4-0.8-0.3-0.8-0.6-1.6-0.9-2.4-0.2-0.5-0.4-1.1-0.6-1.6-0.2-0.6 0-1.3 0.5-1.7 0.4-0.3 0.8-0.7 1.2-1.1l1.2-1.5c0.1-0.1 0.1-0.2 0.2-0.3l0.2-0.2c0.2-0.7 1-1.2 1.8-1 1.2 0.3 2.7 0.6 4.2 0.9 0.2-0.4 0.3-0.8 0.5-1.2 0.2-0.7 0.4-1.5 0.6-2.2-1.3-0.6-2.5-1.1-3.9-1.7-0.7-0.3-1.1-1.1-0.8-1.8v-0.1c0-0.2-0.1-0.3 0-0.5v-0.3l-5.2 0.2c0 0.9-0.2 1.9-0.5 2.8-0.7 2.3-2.4 4.2-4.6 5.3-2.1 1.2-4.7 1.4-7 0.5-2.4-0.7-4.3-2.4-5.4-4.6s-1.3-4.7-0.5-7c1.6-4.9 6.8-7.5 11.7-5.9 0.7 0.2 1.3 0.5 1.9 0.9l3.6-3.8s-0.1 0-0.1-0.1c-0.4-0.2-0.6-0.4-0.9-0.6-0.5-0.4-0.7-1-0.6-1.5l0.1-0.6c0.3-1.2 0.5-2.4 0.8-3.6-0.3-0.1-0.6-0.2-0.9-0.4l-1.2-0.4c-0.4-0.1-0.9-0.3-1.3-0.4-0.6 1.3-1.1 2.6-1.7 3.9-0.2 0.5-0.8 0.9-1.4 0.9h-0.8-0.1c-0.6-0.1-1.2 0-1.9 0.1l-1.8 0.3c-0.7 0.2-1.5-0.1-1.8-0.8-0.7-1.2-1.5-2.4-2.2-3.5-0.5 0.2-0.9 0.4-1.4 0.7 0 0-0.1 0-0.1 0.1-0.6 0.3-1.2 0.6-1.7 0.9 0.5 1.3 1 2.6 1.6 3.9 0.1 0.3 0.2 0.7 0 1-0.1 0.3-0.3 0.5-0.5 0.8-0.3 0.3-0.7 0.6-1 1-0.1 0.2-0.3 0.3-0.4 0.5-0.2 0.3-0.5 0.5-0.7 0.8-0.1 0.1-0.1 0.3-0.2 0.4-0.1 0.3-0.3 0.5-0.6 0.8-0.4 0.4-0.9 0.5-1.4 0.4l-1.4-0.3-2.7-0.6c0 0.1-0.1 0.2-0.2 0.4s-0.2 0.5-0.3 0.7l-0.4 1.3c-0.1 0.3-0.1 0.5-0.2 0.8 0 0.1-0.1 0.3-0.1 0.4 1.1 0.5 2.2 1 3.4 1.5l0.5 0.2c0.5 0.2 0.9 0.8 0.9 1.4 0 0.3 0 0.6-0.1 1 0 0.7 0 1.4 0.1 2 0 0.2 0.1 0.5 0.1 0.8s0.1 0.6 0.1 0.9c0.1 0.6-0.2 1.2-0.7 1.5-1.1 0.7-2.2 1.4-3.4 2.1l-0.2 0.1c0.5 1.1 1 2.2 1.6 3.2l3.9-1.5c0.6-0.3 1.3-0.1 1.7 0.4s0.8 0.8 1.1 1.2c0.4 0.5 0.9 0.9 1.5 1.3l0.1 0.1c0.1 0.1 0.2 0.1 0.3 0.2 0.7 0.2 1.1 1 1 1.8-0.3 1.3-0.6 2.8-0.9 4.2 0.2 0.1 0.3 0.1 0.5 0.2s0.5 0.2 0.7 0.3l1.3 0.2zm-7.4-29.3c-0.2 0-0.4 0-0.6 0.1 0.3-0.1 0.7-0.2 1-0.1h-0.4z"/></svg>