<svg xmlns="http://www.w3.org/2000/svg" viewBox="0 0 144 144"><g opacity="0"><rect width="144" height="144" fill="#fff"/></g><polygon points="116.036 114.191 22.669 113.923 22.669 42.037 115.289 42.037 115.321 70.154 95.332 70.21 95.332 85.471 116.022 85.498 116.036 114.191" class="sgmaincolor"/><path d="M134.732,118.217a7.434,7.434,0,0,0-5.236-2.326,7.52,7.52,0,0,0-5.346,2.057,7.485,7.485,0,0,0,4.966,12.909l.195,0a7.485,7.485,0,0,0,5.421-12.642Zm-5.424,10.642c-.047,0-.094,0-.141,0a5.485,5.485,0,0,1,.136-10.968c.047,0,.095,0,.143,0a5.485,5.485,0,0,1-.138,10.968Z"/><path d="M117.03,101l8.434-.012a1,1,0,0,0,1-1L126.456,34.3a1,1,0,0,0-1-1L31.5,33.266a1,1,0,0,0-.143.028,1.056,1.056,0,0,0-.207.042,72.811,72.811,0,0,1-.311.179l-8.827,7.771c-.008.008-.011.018-.019.026a.964.964,0,0,0-.131.172,1.021,1.021,0,0,0-.1.143.909.909,0,0,0-.043.165.945.945,0,0,0-.043.214c0,.011-.007.02-.007.031v71.886a1,1,0,0,0,1,1l93.367.268h0a1.008,1.008,0,0,0,.389-.078.985.985,0,0,0,.253-.17c.02-.017.046-.026.064-.044a.957.957,0,0,0,.158-.233.776.776,0,0,0,.057-.084,1.091,1.091,0,0,0,.043-.209.962.962,0,0,0,.036-.179h0v0Zm7.426-29.791V84.471H96.332V71.21ZM117.029,99l-.006-12.53h7.439V98.99ZM124.46,69.21h-8.172V42.037a1,1,0,0,0-1-1H25.319l6.556-5.771,92.581.036ZM23.669,43.037h90.619V69.21H95.332a1,1,0,0,0-1,1V85.471a1,1,0,0,0,1,1h19.691l.007,13.362A.9.9,0,0,0,115,100a1.056,1.056,0,0,0,.035.169l.006,13.015-91.367-.262Z"/><path d="M18.065,39.093a.988.988,0,0,0,.439-.1,1,1,0,0,0,.559-.832L20.149,21.81a1,1,0,0,0-1.445-.962L4.16,28.092a1,1,0,0,0-.114,1.723L17.5,38.921A1,1,0,0,0,18.065,39.093ZM6.585,29.119l11.452-5.7-.855,12.873Z"/><path d="M81.476,125.081h-69.6a1,1,0,0,0,0,2h69.6a1,1,0,0,0,0-2Z"/></svg>