<svg xmlns="http://www.w3.org/2000/svg" viewBox="0 0 144 144"><g opacity="0"><rect width="144" height="144" fill="#fff"/></g><path d="M121.948,133.39a7.9,7.9,0,1,1,7.889-8.456h0a7.9,7.9,0,0,1-7.316,8.434C122.329,133.383,122.139,133.39,121.948,133.39Zm.016-13.792c-.14,0-.28,0-.422.014a5.91,5.91,0,1,0,.422-.014Z"/><path d="M129.906,136.558a1,1,0,0,1-.561-1.829,10.5,10.5,0,0,0,4.339-10.188,1,1,0,0,1,1.97-.34,12.4,12.4,0,0,1-5.188,12.185A1,1,0,0,1,129.906,136.558Z"/><path d="M28.7,48.822a.95.95,0,0,1-.131-.009L12.178,46.64a1,1,0,0,1-.658-1.605L21.575,32.087a1.01,1.01,0,0,1,.922-.378,1,1,0,0,1,.79.6l6.335,15.123a1,1,0,0,1-.923,1.386ZM14.168,44.886,27.1,46.6l-5-11.936Z"/><line x1="107.759" y1="86.334" x2="54.892" y2="93.575" class="sgmaincolor"/><line x1="33.801" y1="65.586" x2="54.892" y2="93.575" class="sgmaincolor"/><line x1="36.896" y1="69.822" x2="24.167" y2="85.417" class="sgmaincolor"/><line x1="31.624" y1="116.014" x2="31.538" y2="88.315" class="sgmaincolor"/><line x1="42.653" y1="119.659" x2="42.664" y2="89.379" class="sgmaincolor"/><path d="M123.49,82.171,73.427,34.257s5.634-12.3-2-19.468c-4.476-4.2-10.516-4.932-18.079-1.908L63.936,23.465l-2.091,8.247-8.5,3.848L41.25,24.976c-1.123,5.865-1.786,14.329,3.025,18.144,8.024,6.364,18.587,1.7,18.587,1.7l15.252,14.6c-9.422.651-44.458,5.019-44.49,5.04S14.48,85.769,14.48,85.769l9.985-.922.1,28.791L56.188,123.3c.093.028,40.113-9.624,40.783-9.785l.06-26.22s8.2-1.034,8.852-1.123l7.042,6.56c4.167,4.166,8.849,5.64,12.567,1.2C129.061,89.674,127.609,86.288,123.49,82.171Z" class="sgmaincolor"/><line x1="68.122" y1="73.439" x2="78.974" y2="61.653" class="sgmaincolor"/><line x1="90.084" y1="50.903" x2="115.151" y2="26.576" class="sgmaincolor"/><path d="M124.32,81.59,91.884,50.536l23.7-23,2.467,2.466a1,1,0,0,0,.707.293.864.864,0,0,0,.088,0,1,1,0,0,0,.732-.424l8.485-12.153a1,1,0,0,0-.114-1.279l-3.5-3.505a1,1,0,0,0-1.279-.114l-12.153,8.486a1,1,0,0,0-.135,1.527l3.293,3.292L90.439,49.152,75.007,34.377c1.092-2.75,4.58-13.218-2.493-19.859C67.7,10,61.293,9.292,53.47,12.42a1,1,0,0,0-.336,1.636L63.266,24.188l-1.824,7.191-7.427,3.365L42.461,24.634a1,1,0,0,0-1.641.565c-1.8,9.421-.669,15.825,3.371,19.03,7.31,5.8,16.416,3,18.889,2.076L76.416,59.072,33.667,63.687a.66.66,0,0,0-.063.02.6.6,0,0,0-.072.022.982.982,0,0,0-.267.109c-.011.007-.023.01-.033.016s-.042.015-.061.03a.409.409,0,0,0-.062.07.85.85,0,0,0-.077.057L13.87,85.224s-.006.012-.011.018a.991.991,0,0,0-.107.181,1.016,1.016,0,0,0-.087.158,1,1,0,0,0-.017.124,1.013,1.013,0,0,0-.029.262.11.11,0,0,1,0,.018.965.965,0,0,0,.049.169.917.917,0,0,0,.051.177.991.991,0,0,0,.224.3v0c.027.024.061.033.089.054a.868.868,0,0,0,.581.2c.031,0,.062,0,.093,0l8.906-.817.1,27.562a1,1,0,0,0,.709.953l31.651,9.618a1.036,1.036,0,0,0,.291.043,1.016,1.016,0,0,0,.233-.027l40.819-9.739a1,1,0,0,0,.768-.97l.057-25.245,7.591-1.039,6.583,6.3c2.74,2.74,5.533,4.179,8.1,4.179.1,0,.2,0,.3-.007a7.644,7.644,0,0,0,5.577-3.041C130.795,89.4,128.006,85.275,124.32,81.59Zm-.7-66.65,2.32,2.32-7.322,10.488-2.308-2.307h0l-3.176-3.176ZM78.3,60.88l.031.029-9.8,10.641L62.4,65.412a1,1,0,0,0-1.411,0l-14.369,14.2c-.054.053-.1.115-.153.171L35.638,65.485ZM24.1,84.019l-7.028.645L33.707,66.247l2.357,3.111Zm18,33.851-9.032-2.745-.08-26.15,9.121.872ZM32.072,86.88c-.017,0-.032.005-.049,0s-.029-.009-.044-.009h0a.912.912,0,0,0-.1.021.94.94,0,0,0-.266.055c-.025.01-.046.026-.07.038a.716.716,0,0,0-.321.263.951.951,0,0,0-.134.2.919.919,0,0,0-.052.176,1,1,0,0,0-.047.153c0,.018.007.034.006.051s-.009.031-.009.047l.081,26.638L25.7,112.889l-.095-27.558L37.307,71l7.906,10.435a11.856,11.856,0,0,0-1.63,5.888c0,.222.011.44.018.66ZM55.358,121.9l-11.264-3.423L44.1,91.039a9.637,9.637,0,0,0,2.339,4.032,10.013,10.013,0,0,0,7.125,2.952,10.138,10.138,0,0,0,1.791-.166ZM53.567,96.023a8.027,8.027,0,0,1-5.711-2.366c-3.086-3.086-3-9.463.173-12.633l13.659-13.5L67.862,73.7c.009.009.012.022.022.03s.015.008.022.014l5.228,5.229L59.278,93.657A8.02,8.02,0,0,1,53.567,96.023Zm42.613,16.7-38.822,9.262v-24.7a10.143,10.143,0,0,0,3.355-2.232l1.781-1.887,33.741-4.622Zm-31.5-21.877,10.573-11.2a1,1,0,0,0-.021-1.394l-5.283-5.283L79.78,62.293l24.2,23.169Zm60.171,2.535a5.739,5.739,0,0,1-4.132,2.326c-2.076.086-4.459-1.149-6.914-3.6L64,44.414a1,1,0,0,0-1.095-.192c-.1.043-10.066,4.311-17.468-1.56-3.845-3.051-3.831-9.714-2.953-15.351l10.7,9.363a1,1,0,0,0,1.071.158L62.707,33a1,1,0,0,0,.557-.665l2.081-8.209a1,1,0,0,0-.263-.953l-9.433-9.432c6.379-2.187,11.586-1.437,15.5,2.234,6.972,6.546,1.817,18.116,1.764,18.232a1,1,0,0,0,.218,1.138l49.8,47.673C127.184,87.281,127.689,89.992,124.854,93.379Z"/></svg>