<svg xmlns="http://www.w3.org/2000/svg" viewBox="0 0 104.24 105.01"><path fill="#e4cdac" d="M89.6 32.6a1.21 1.21 0 0 1-1.21-1.21 9.58 9.58 0 0 0-9.57-9.57 1.22 1.22 0 1 1 0-2.43 9.58 9.58 0 0 0 9.57-9.57 1.22 1.22 0 1 1 2.43 0 9.58 9.58 0 0 0 9.57 9.57 1.22 1.22 0 0 1 0 2.43 9.58 9.58 0 0 0-9.57 9.57 1.21 1.21 0 0 1-1.22 1.21zm-5.51-12a12.12 12.12 0 0 1 5.51 5.52 12.19 12.19 0 0 1 5.52-5.52 12.1 12.1 0 0 1-5.52-5.52 12 12 0 0 1-5.51 5.52zM11.51 96.06a6 6 0 1 1-7.88-3.13 6 6 0 0 1 7.88 3.13m92.41-5.53a4 4 0 1 1-5.26-2.09 4 4 0 0 1 5.26 2.09m-96-77a4 4 0 1 1-5.26-2.09 4 4 0 0 1 5.26 2.09m80.78 87.3a3 3 0 1 1-3.94-1.57 3 3 0 0 1 3.94 1.57"></path><path fill="#edddc5" d="M52.9 65a8.35 8.35 0 1 0 8.35 8.35A8.35 8.35 0 0 0 52.9 65z"></path><path fill="#edddc5" d="M68.37 45.52h.06V19.68a15.53 15.53 0 0 0-31.06 0v25.88a31.07 31.07 0 1 0 31 0zM46.69 42V19.68a6.21 6.21 0 0 1 12.42 0V42a31.32 31.32 0 0 0-12.5 0zm6.21 50.53a19.21 19.21 0 1 1 19.21-19.21A19.21 19.21 0 0 1 52.9 92.53z"></path><circle fill="none" stroke="#c1aa95" stroke-linecap="round" stroke-linejoin="round" stroke-width="3px" cx="46.99" cy="69.85" r="31.07"></circle><circle fill="none" stroke="#c1aa95" stroke-linecap="round" stroke-linejoin="round" stroke-width="3px" cx="46.99" cy="69.85" r="21.75"></circle><path fill="none" stroke="#c1aa95" stroke-linecap="round" stroke-linejoin="round" stroke-width="3px" d="M53.21 69.85A6.22 6.22 0 1 1 47 63.64a6.21 6.21 0 0 1 6.21 6.21zM47 85.38zm0-37.28zm15.53 21.75zm-37.28 0zM54.76 83.3l3.11 5.38zM36.12 51l3.11 5.38zm24.32 11.08L65.83 59zM28.16 80.72l5.38-3.11zm32.28-3.11l5.39 3.11zM28.16 59l5.38 3.11zm26.6-2.6l3.11-5.4zM36.12 88.68l3.11-5.38zm4.66-49.28V17a6.22 6.22 0 0 1 12.43 0v22.4a31.12 31.12 0 0 1 9.32 3.6V17a15.54 15.54 0 0 0-31.07 0v26a30.91 30.91 0 0 1 9.32-3.6z"></path></svg>