<svg xmlns="http://www.w3.org/2000/svg" viewBox="0 0 108.2 106.7"><title>presentational-https</title><circle cx="87.1" cy="85.6" r="21.1" fill="#eddcf1"/><path d="M90.6,100.6A2.452,2.452,0,0,1,89,100l-5.3-5.3,1.9-1.9,5,5,12.6-12.6,1.9,1.9-13,13a2.456,2.456,0,0,1-1.5.5Z" transform="translate(-9.9 -10.7)" fill="#834ba2"/><path d="M90.5,51.8A11.63,11.63,0,0,0,78.8,40.2H71.9V29.8A19.12,19.12,0,0,0,52.7,10.7H47.5A19.142,19.142,0,0,0,28.4,30V40.4H21.5A11.694,11.694,0,0,0,9.9,52.1L10,87.2A11.63,11.63,0,0,0,21.7,98.8h0l40.6-.1a1.5,1.5,0,0,0,0-3l-40.6.1h0A8.751,8.751,0,0,1,13,87.2l-.1-35.1a8.686,8.686,0,0,1,8.6-8.7l57.2-.2h0a8.751,8.751,0,0,1,8.7,8.6l.1,12.7a1.5,1.5,0,0,0,3,0ZM31.4,29.9h0A16.282,16.282,0,0,1,47.6,13.6h5.1A16.326,16.326,0,0,1,69,29.7V40.1l-37.5.1Z" transform="translate(-9.9 -10.7)" fill="#834ba2"/><path d="M21.2,71.3V57.4a.675.675,0,0,1,.4-.6,2.332,2.332,0,0,1,2,0,.822.822,0,0,1,.4.6V63h4.8V57.4a.675.675,0,0,1,.4-.6,2.332,2.332,0,0,1,2,0,.622.622,0,0,1,.4.6V71.3a.675.675,0,0,1-.4.6,2.332,2.332,0,0,1-2,0,.822.822,0,0,1-.4-.6V65.2H24v6.1a.675.675,0,0,1-.4.6,2.332,2.332,0,0,1-2,0A.548.548,0,0,1,21.2,71.3Z" transform="translate(-9.9 -10.7)" fill="#834ba2"/><path d="M33.1,57.8a1.884,1.884,0,0,1,.2-.8.842.842,0,0,1,.7-.4h9a.755.755,0,0,1,.7.4,1.718,1.718,0,0,1,0,1.7,1.08,1.08,0,0,1-.7.3H39.9V71.3a.675.675,0,0,1-.4.6,1.645,1.645,0,0,1-1,.2,3.553,3.553,0,0,1-1-.2.822.822,0,0,1-.4-.6V59H34a.548.548,0,0,1-.6-.4A.67.67,0,0,1,33.1,57.8Z" transform="translate(-9.9 -10.7)" fill="#834ba2"/><path d="M44.3,57.8a1.884,1.884,0,0,1,.2-.8.842.842,0,0,1,.7-.4h9a.755.755,0,0,1,.7.4,1.718,1.718,0,0,1,0,1.7.822.822,0,0,1-.6.4H51.2V71.4a.675.675,0,0,1-.4.6,2.332,2.332,0,0,1-2,0,.822.822,0,0,1-.4-.6V59H45.3a.548.548,0,0,1-.6-.4A.909.909,0,0,1,44.3,57.8Z" transform="translate(-9.9 -10.7)" fill="#834ba2"/><path d="M56.6,71.3V57.4a.713.713,0,0,1,.3-.6,1.135,1.135,0,0,1,.8-.3H62a4.988,4.988,0,0,1,3.5,1.2,4.509,4.509,0,0,1,1.3,3.6v.1a4.677,4.677,0,0,1-1.4,3.7,5.782,5.782,0,0,1-3.6,1.2H59.4v5a.675.675,0,0,1-.4.6,2.332,2.332,0,0,1-2,0A.675.675,0,0,1,56.6,71.3Zm2.8-7.1h2.4a2.716,2.716,0,0,0,1.7-.6,3,3,0,0,0,.6-1.8v-.3a2.792,2.792,0,0,0-.6-1.8,2,2,0,0,0-1.7-.6H59.4Z" transform="translate(-9.9 -10.7)" fill="#834ba2"/><path d="M67.7,69.7a1.284,1.284,0,0,1,.4-1,1.02,1.02,0,0,1,.8-.5.713.713,0,0,1,.6.3c.2.2.5.4.7.6a4.7,4.7,0,0,0,.9.6,3.194,3.194,0,0,0,1.4.3,2.618,2.618,0,0,0,1.7-.5,1.734,1.734,0,0,0,.3-2.5,3.915,3.915,0,0,0-1-.8c-.4-.2-.8-.4-1.3-.6a10.092,10.092,0,0,1-1.5-.7,3.805,3.805,0,0,1-1.3-.9,3.249,3.249,0,0,1-1-1.3,5.252,5.252,0,0,1,.2-3.9,4.071,4.071,0,0,1,1.2-1.4,5.576,5.576,0,0,1,1.6-.7,5.845,5.845,0,0,1,1.9-.2,4.869,4.869,0,0,1,1.2.1,6.107,6.107,0,0,1,1.3.3,3.7,3.7,0,0,1,1.1.5.975.975,0,0,1,.4.9,1.929,1.929,0,0,1-.3,1,1.02,1.02,0,0,1-.8.5,3,3,0,0,1-1-.4,4.058,4.058,0,0,0-1.9-.4,3.922,3.922,0,0,0-1.8.4,1.432,1.432,0,0,0-.4,2l.3.3a3.293,3.293,0,0,0,1.3.7,11.111,11.111,0,0,1,1.6.7,8.636,8.636,0,0,1,1.6,1,4.708,4.708,0,0,1,1.3,1.5,4.558,4.558,0,0,1,.5,2.3,4.073,4.073,0,0,1-1.4,3.4,5.494,5.494,0,0,1-3.7,1.2,7.19,7.19,0,0,1-3.5-.8C68.2,71,67.7,70.4,67.7,69.7Z" transform="translate(-9.9 -10.7)" fill="#834ba2"/><path d="M93.4,117a23.7,23.7,0,1,1,23.7-23.7h0A23.75,23.75,0,0,1,93.4,117Zm0-44.3a20.629,20.629,0,1,0,15.9,7.4A20.741,20.741,0,0,0,93.4,72.7Z" transform="translate(-9.9 -10.7)" fill="#834ba2"/></svg>