<svg xmlns="http://www.w3.org/2000/svg" viewBox="0 0 106.609 105.4"><title>presentational-pgsql-database</title><path d="M93.3,27.6c0-9.1-18.2-16.2-41.3-16.2s-41.3,7-41.3,16.1a4.1,4.1,0,0,0,.1,1.1V49.7a1.388,1.388,0,0,0,0,.9V69.2a1.388,1.388,0,0,0,0,.9v18a1.884,1.884,0,0,0,.2.8c.3.5,7.3,11.9,38.9,11.9,5.7,0,9.5-.3,9.6-.3a1.5,1.5,0,1,0-.2-3c-.1,0-3.8.3-9.4.3-26.8,0-34.8-8.4-36.1-10.1V73.3c4.6,3.6,15.5,9.4,38.2,9.4a1.473,1.473,0,0,0,1.5-1.5A1.538,1.538,0,0,0,52,79.7c-27.2,0-36.5-8.6-38.2-10.5V53.8c4.1,3.3,13.4,8.4,32,9.3.7,0,2.5.1,4.7.1h2.9a1.5,1.5,0,1,0-.2-3,70.305,70.305,0,0,1-7.2-.1c-22.6-1.2-30.6-8.7-32.2-10.5V33.8c6.1,5.9,20.8,9.9,38.2,9.9,17.6,0,32.2-4,38.3-9.9V49.7a14.128,14.128,0,0,1-2.9,2.5,1.309,1.309,0,0,0-.6,1.2,1.538,1.538,0,0,0,1.5,1.5,1.884,1.884,0,0,0,.8-.2A14.438,14.438,0,0,0,93,51.2c.1-.1.1-.2.2-.3a1.268,1.268,0,0,0,.1-.6V27.6ZM52,40.7c-17.4,0-36.7-4.9-38.2-12.2v-.7c0-.2,0-.3-.1-.4.4-7.7,20.4-13,38.3-13,18.1,0,38.3,5.3,38.3,13.1S70.1,40.7,52,40.7Z" transform="translate(-10.7 -11.4)" fill="#3fc798"/><path d="M115.9,81.4c2.8-8.3,2-14.4-7.7-17.3-7.8-2.4-22-.8-29.4-.3-15.7,1.2-15.3,7-11.9,22.8,3.4,15.6,15.7,9.4,16.3,14.3,2.6,19.6,16.1,21.1,24.2,2C111,94.3,113.9,87.2,115.9,81.4Z" transform="translate(-10.7 -11.4)" fill="#cdf9e4"/><path d="M114.6,93.5h0c-.2-.7-.9-1.5-3-1-3.3.7-4.8.4-5.5.2a59.57,59.57,0,0,0,7.2-16.3,35.868,35.868,0,0,0,1.1-7.2,8.717,8.717,0,0,0-1.2-5.1,16.68,16.68,0,0,0-13.6-6.3A25.271,25.271,0,0,0,91.9,59a20.236,20.236,0,0,0-4.3-.5,12.908,12.908,0,0,0-7.4,2A30.039,30.039,0,0,0,74.3,59c-5-.8-8.9-.2-11.8,1.8-3.4,2.4-5,6.7-4.7,12.7a85.226,85.226,0,0,0,3,14q3.6,11.7,7.8,13.2c1.7.6,3.4-.1,4.9-1.9.1-.2.3-.3.4-.5a.6.6,0,0,1-.1.4c0,1.8,2.4,2.5,2.9,2.7a9.2,9.2,0,0,0,7.9-1.2c0,3.4.1,9.7.9,11.7.5,1.3,1.9,4.9,6.4,4.9h0a14.919,14.919,0,0,0,2.1-.2c4.5-1,6.5-3,7.2-7.4.4-2.2,1-7.1,1.3-10a14.919,14.919,0,0,0,2.1.2h0a16.037,16.037,0,0,0,5.7-1.1C111,97.9,115.3,95.8,114.6,93.5ZM87.5,95.6c0-.2-.1-.4-.1-.6a4.027,4.027,0,0,0-2.1-2.5,3.079,3.079,0,0,0-1.3-.3c.2-.5.4-1,.6-1.6l.1-.3a6.117,6.117,0,0,1,.5-1.2c1.1-2.3,2.5-5.6.9-12.8-.6-2.8-2.7-4.3-5.9-4a14.843,14.843,0,0,0-4.1,1.2c.3-2.7,1.2-7,4-9.8a9.928,9.928,0,0,1,7.5-2.8,15.848,15.848,0,0,1,12.3,5.9,21.422,21.422,0,0,1,3.2,5.2c-3-.2-5.1.5-6.2,2.1-2.6,3.6,1.2,10.5,3.1,13.8.3.5.6,1.1.7,1.2a10.288,10.288,0,0,0,2,3.1l.1.1c-1.2.5-2.4,1.5-2.3,4.3-.1,1.6-1,9.2-1.5,11.8-.6,3.4-1.8,4.6-5.2,5.3-3.3.7-4.6-.7-5.5-3.1-.5-1.4-.8-7.9-.6-14.8C87.5,95.9,87.5,95.7,87.5,95.6ZM75.8,84.4a37.634,37.634,0,0,0,.2-7.5v-.2c.9-.7,3.8-2.1,5.9-1.7a2.238,2.238,0,0,1,1.7,1.9c1.4,6.4.2,9.1-.8,11.2-.2.5-.4.9-.6,1.3l-.1.3c-.3.7-.5,1.5-.7,2.1A5.683,5.683,0,0,1,77.6,90h0A6.435,6.435,0,0,1,75.8,84.4Zm1.9,14.3c3.2-.7,3.8-1.2,4.9-2.6a7.3,7.3,0,0,1,.9-1c.4-.4.4-.4.8-.2a1.6,1.6,0,0,1,.7.9.854.854,0,0,1,0,.7,6.4,6.4,0,0,1-7.3,2.2Zm28-16.2a28.252,28.252,0,0,1-.2-2.9,11.529,11.529,0,0,1,.3-2.6,18.413,18.413,0,0,0,.3-3.3v-.5c-.1-1.2-1.5-4.8-4.3-8.1a18.537,18.537,0,0,0-5.6-4.5,14.523,14.523,0,0,1,3.6-.2,13.879,13.879,0,0,1,11.3,5.4c1.8,2.3,0,12.9-5.5,22.8A15.689,15.689,0,0,0,105.7,82.5ZM103,88.2a12.015,12.015,0,0,0-.8-1.5c-1.3-2.4-4.8-8.7-3.2-11,.5-.7,1.6-1.1,3.2-1.1a6.151,6.151,0,0,1,1.3.1,13.552,13.552,0,0,1-.2,2,14.279,14.279,0,0,0-.3,2.9c0,1.1.1,2.2.2,3.3a11.93,11.93,0,0,1-.2,5.3Zm1.1,6.4h0c.1,0,.2,0,.2.1,1.2.8,3.2,1,6,.7-.3.2-.6.3-.9.5a11.5,11.5,0,0,1-4.1.8,6.522,6.522,0,0,1-2.4-.2C102.9,95,103.4,94.8,104.1,94.6ZM73.4,76.2v.9a32.8,32.8,0,0,1-.2,7,9.417,9.417,0,0,0,2.5,7.8l.3.3c-1,1-2.6,2.8-4.3,4.9-1.2,1.4-1.9,1.2-2.2,1.1-1.9-.6-4.2-4.9-6.2-11.5a76.175,76.175,0,0,1-2.9-13.4c-.3-5.1,1-8.6,3.6-10.5a10.9,10.9,0,0,1,6.3-1.7,32.557,32.557,0,0,1,7.6,1.2C73.3,67.5,73.4,75.8,73.4,76.2Zm7.3,18.2-.2.2c-.8,1-.9,1.1-3.4,1.6a6.033,6.033,0,0,0-1.9.6c1.2-1.4,2.3-2.6,2.9-3.2A8.651,8.651,0,0,0,80.7,94.4Z" transform="translate(-10.7 -11.4)" fill="#3fc798"/><path d="M81.7,75.4a2.622,2.622,0,0,0-1.5.2.52.52,0,0,0-.2.4.908.908,0,0,0,.3.7,1.991,1.991,0,0,0,1.2.8h.2a1.539,1.539,0,0,0,1.5-1c0-.6-.8-1-1.5-1.1" transform="translate(-10.7 -11.4)" fill="#3fc798"/><path d="M102.3,75.4h0c-.1-.4-.8-.5-1.5-.4s-1.4.4-1.4.9a1.568,1.568,0,0,0,1.4.9h.2a3.128,3.128,0,0,0,1-.5,1.613,1.613,0,0,0,.3-.9" transform="translate(-10.7 -11.4)" fill="#3fc798"/></svg>