<svg xmlns="http://www.w3.org/2000/svg" viewBox="0 0 53.01 44.01"><path d="M42,0H5A3.75,3.75,0,0,0,1,4V29a3.75,3.75,0,0,0,4,4H26a1,1,0,0,0,0-2H5a1.79,1.79,0,0,1-2-2V9H44v7a1,1,0,0,0,2,0V4A3.75,3.75,0,0,0,42,0ZM3,7V4A1.79,1.79,0,0,1,5,2H42a1.79,1.79,0,0,1,2,2V7Z" transform="translate(-1)" fill="#c1aa95"/><circle cx="5.5" cy="4.5" r="1.5" fill="#c1aa95"/><circle cx="9.5" cy="4.5" r="1.5" fill="#c1aa95"/><circle cx="13.5" cy="4.5" r="1.5" fill="#c1aa95"/><path d="M28,24H21a1.75,1.75,0,0,1-2-2V14a1.75,1.75,0,0,1,2-2H38a1.75,1.75,0,0,1,2,2v2a1,1,0,0,1-2,0V14H21v8h7a1,1,0,0,1,0,2Z" transform="translate(-1)" fill="#c1aa95"/><path d="M15,12H7a1.75,1.75,0,0,0-2,2v8a1.75,1.75,0,0,0,2,2h8a1.75,1.75,0,0,0,2-2V14A1.75,1.75,0,0,0,15,12Zm0,3.41v5.18L12.41,18Zm-4,1.18L8.41,14h5.18ZM9.59,18,7,20.59V15.41ZM11,19.41,13.59,22H8.41Z" transform="translate(-1)" fill="#c1aa95"/><path d="M50.59,34.09l2.4-.37V29.6l-2.33-.47c-.19-.72-.57-1.5-.85-2.25l1.35-2-2.89-3-2,1.38a17.39,17.39,0,0,0-2.16-1l-.4-2.3H39.6l-.47,2.33a13.2,13.2,0,0,0-2.25.85l-2-1.35-3,2.89,1.38,2a9.94,9.94,0,0,0-1,2.16l-2.3.4V33.4l2.33.47a13.2,13.2,0,0,0,.85,2.25l-1.35,2,2.89,3,2-1.38a9.29,9.29,0,0,0,2.16,1l.4,2.3H43.4l.47-2.33c.72-.19,1.5-.57,2.25-.85l2,1.35,3-2.89-1.38-2A8.78,8.78,0,0,0,50.59,34.09Zm-5.75.46A4.54,4.54,0,0,1,41.7,36,4.66,4.66,0,0,1,40,35.78a4.53,4.53,0,1,1,4.81-1.23Z" transform="translate(-1)" fill="#edddc5"/><path d="M44.22,44H38.43L38,41.44a10.76,10.76,0,0,1-1.23-.52L34.6,42.41l-4.06-4.14L32.05,36a2,2,0,0,1-.1-.21c-.15-.33-.3-.68-.43-1.06L29,34.22V28.43L31.56,28a11.26,11.26,0,0,1,.52-1.23L30.59,24.6l4.14-4.06L37,22.05l.21-.1c.33-.15.68-.3,1.06-.43L38.78,19h5.79L45,21.57c.42.17.8.35,1.19.54l2.2-1.52,4.06,4.14L51,27l.1.25c.14.33.28.67.4,1l2.56.52v5.81L51.39,35a11.11,11.11,0,0,1-.5,1.22l1.52,2.2-4.14,4.06L46,41l-.25.1c-.33.14-.67.28-1,.4Zm-4.09-2h2.45L43,39.85l.61-.15A10.07,10.07,0,0,0,45,39.19l.79-.32.49-.18L48,39.87l1.76-1.72-1.23-1.78.32-.66a7.38,7.38,0,0,0,.72-1.83l.15-.68L52,32.86V30.42L49.85,30l-.15-.61A10.07,10.07,0,0,0,49.19,28c-.11-.27-.22-.53-.32-.79l-.18-.49L49.87,25l-1.72-1.76-1.78,1.23-.77-.37a13.68,13.68,0,0,0-1.81-.8l-.56-.2L42.87,21H40.42L40,23.19l-.67.13a5.87,5.87,0,0,0-1.28.47l-.79.34-.49.18L35,23.13l-1.76,1.72,1.28,1.85-.37.56a9,9,0,0,0-.85,1.94l-.19.56L31,30.13v2.45l2.18.44.13.67A5.87,5.87,0,0,0,33.79,35c.12.26.23.52.34.79l.18.49L33.13,38l1.72,1.76,1.85-1.28.56.37a8.76,8.76,0,0,0,1.94.85l.57.19ZM53,33.72h0Z" transform="translate(-1)" fill="#c1aa95"/><path d="M41.44,36.54a5,5,0,0,1-1.6-.26,5,5,0,1,1,6.38-3.18h0A5,5,0,0,1,41.44,36.54Zm0-8a3,3,0,1,0,.94.16A3.09,3.09,0,0,0,41.44,28.54Zm3.79,4.23h0Z" transform="translate(-1)" fill="#c1aa95"/></svg>
