<svg xmlns="http://www.w3.org/2000/svg" viewBox="0 0 114.2 95.802"><title>presentational-password-protected-urls</title><path d="M86.4,61h-57a8.6,8.6,0,0,1,0-17.2h57A8.6,8.6,0,0,1,95,52.4,8.475,8.475,0,0,1,86.4,61Zm-57-14.2a5.6,5.6,0,1,0,0,11.2h57a5.6,5.6,0,0,0,0-11.2Z" transform="translate(-6.9 -16.098)" fill="#834ba2"/><path d="M36,51.6a.713.713,0,0,1,.3-.6.864.864,0,0,1,.6-.3c.1,0,.2,0,.2.1l2.1.7-.1-2.1a.864.864,0,0,1,.3-.6.91.91,0,0,1,1.2,0,.713.713,0,0,1,.3.6l-.1,2.1,2.1-.7a.349.349,0,0,0,.2-.1.713.713,0,0,1,.6.3.844.844,0,0,1,.2.7c0,.4-.2.7-.6.7l-2.1.5,1.4,2a.749.749,0,0,1,.1.5.713.713,0,0,1-.3.6.908.908,0,0,1-.7.3.6.6,0,0,1-.6-.3l-1.3-2-1.3,2a.6.6,0,0,1-.6.3,1.854,1.854,0,0,1-.7-.2.713.713,0,0,1-.3-.6.764.764,0,0,1,.2-.5l1.3-1.9-2.1-.6A1.9,1.9,0,0,1,36,51.6Z" transform="translate(-6.9 -16.098)" fill="#834ba2"/><path d="M45,51.6a.713.713,0,0,1,.3-.6.864.864,0,0,1,.6-.3c.1,0,.2,0,.2.1l2.1.7-.1-2.1a.864.864,0,0,1,.3-.6.91.91,0,0,1,1.2,0,.713.713,0,0,1,.3.6l-.1,2.1,2.1-.7a.349.349,0,0,0,.2-.1.713.713,0,0,1,.6.3.844.844,0,0,1,.2.7c0,.4-.2.7-.6.7l-2.1.5,1.4,2a.749.749,0,0,1,.1.5.713.713,0,0,1-.3.6.908.908,0,0,1-.7.3.6.6,0,0,1-.6-.3L49,54l-1.3,2a.6.6,0,0,1-.6.3,1.854,1.854,0,0,1-.7-.2c-.2-.1-.3-.4-.4-.6a.764.764,0,0,1,.2-.5l1.3-1.9-2.1-.6A1.268,1.268,0,0,1,45,51.6Z" transform="translate(-6.9 -16.098)" fill="#834ba2"/><path d="M53.9,51.6a.713.713,0,0,1,.3-.6.864.864,0,0,1,.6-.3c.1,0,.2,0,.2.1l2.1.7L57,49.3a.864.864,0,0,1,.3-.6.91.91,0,0,1,1.2,0,.713.713,0,0,1,.3.6l-.1,2.1,2.1-.7a.349.349,0,0,0,.2-.1.713.713,0,0,1,.6.3.844.844,0,0,1,.2.7c0,.4-.2.7-.6.7l-2.1.5,1.4,2a.749.749,0,0,1,.1.5.713.713,0,0,1-.3.6.908.908,0,0,1-.7.3.6.6,0,0,1-.6-.3l-1.3-2-1.3,2a.6.6,0,0,1-.6.3,1.854,1.854,0,0,1-.7-.2.713.713,0,0,1-.3-.6.764.764,0,0,1,.2-.5L56.3,53l-2.1-.6A1.207,1.207,0,0,1,53.9,51.6Z" transform="translate(-6.9 -16.098)" fill="#834ba2"/><path d="M62.8,51.6a.713.713,0,0,1,.3-.6.864.864,0,0,1,.6-.3c.1,0,.2,0,.2.1l2.1.7V49.3a.864.864,0,0,1,.3-.6.91.91,0,0,1,1.2,0,.713.713,0,0,1,.3.6l-.1,2.1,2.1-.7a.349.349,0,0,0,.2-.1.713.713,0,0,1,.6.3.844.844,0,0,1,.2.7c0,.4-.2.7-.6.7l-2.1.5,1.4,2a.749.749,0,0,1,.1.5.713.713,0,0,1-.3.6.908.908,0,0,1-.7.3.6.6,0,0,1-.6-.3l-1.3-2-1.3,2a.6.6,0,0,1-.6.3,1.854,1.854,0,0,1-.7-.2.713.713,0,0,1-.3-.6.764.764,0,0,1,.2-.5L65.3,53l-2.1-.6A.894.894,0,0,1,62.8,51.6Z" transform="translate(-6.9 -16.098)" fill="#834ba2"/><path d="M71.8,51.6a.713.713,0,0,1,.3-.6.864.864,0,0,1,.6-.3c.1,0,.2,0,.2.1l2.1.7-.1-2.1a.864.864,0,0,1,.3-.6,1,1,0,0,1,1.2,0,.713.713,0,0,1,.3.6l-.1,2.1,2.1-.7a.349.349,0,0,0,.2-.1.713.713,0,0,1,.6.3.844.844,0,0,1,.2.7c0,.4-.2.7-.6.7l-2.1.5,1.4,2a.749.749,0,0,1,.1.5.713.713,0,0,1-.3.6.908.908,0,0,1-.7.3.6.6,0,0,1-.6-.3l-1.3-2-1.3,2a.6.6,0,0,1-.6.3,1.854,1.854,0,0,1-.7-.2c-.2-.1-.3-.4-.4-.6a.764.764,0,0,1,.2-.5l1.3-1.9L72,52.5A6.374,6.374,0,0,1,71.8,51.6Z" transform="translate(-6.9 -16.098)" fill="#834ba2"/><path d="M19.7,23.3a2.6,2.6,0,1,1-2.6,2.6,2.647,2.647,0,0,1,2.6-2.6h0" transform="translate(-6.9 -16.098)" fill="#834ba2"/><path d="M27.4,23.3a2.6,2.6,0,1,1-2.6,2.6,2.647,2.647,0,0,1,2.6-2.6h0" transform="translate(-6.9 -16.098)" fill="#834ba2"/><path d="M35.1,23.3a2.6,2.6,0,1,1-2.6,2.6,2.647,2.647,0,0,1,2.6-2.6h0" transform="translate(-6.9 -16.098)" fill="#834ba2"/><path d="M90.6,85.15h21.1a9.176,9.176,0,0,1,9.2,9.2v8.1a9.176,9.176,0,0,1-9.2,9.2H90.6a9.176,9.176,0,0,1-9.2-9.2v-8.1A9.176,9.176,0,0,1,90.6,85.15Z" transform="translate(-6.9 -16.098)" fill="#eddcf1"/><path d="M69.2,88.8H16.4a6.261,6.261,0,0,1-6.5-6V36.7h96.6V58.6a1.5,1.5,0,0,0,3,0V25.1a9.266,9.266,0,0,0-9.5-9H16.4a9.266,9.266,0,0,0-9.5,9V82.8a9.266,9.266,0,0,0,9.5,9H69.2a1.5,1.5,0,0,0,0-3ZM16.4,19.1H99.9a6.261,6.261,0,0,1,6.5,6v8.6H9.9V25.1A6.191,6.191,0,0,1,16.4,19.1Z" transform="translate(-6.9 -16.098)" fill="#834ba2"/><path d="M111,78.6V73.5A11.182,11.182,0,0,0,99.8,62.3H97A11.182,11.182,0,0,0,85.8,73.5v5.1A10.663,10.663,0,0,0,75.7,89.3v11.9a10.712,10.712,0,0,0,10.7,10.7h24a10.712,10.712,0,0,0,10.7-10.7V89.3A10.805,10.805,0,0,0,111,78.6ZM97,65.4h2.8a8.237,8.237,0,0,1,8.2,8.2v5H88.8v-5A8.237,8.237,0,0,1,97,65.4Zm21.1,35.8a7.7,7.7,0,0,1-7.7,7.7h-24a7.7,7.7,0,0,1-7.7-7.7V89.3a7.7,7.7,0,0,1,7.7-7.7h24a7.7,7.7,0,0,1,7.7,7.7Z" transform="translate(-6.9 -16.098)" fill="#834ba2"/><path d="M98.4,86.3a6.061,6.061,0,0,0-6.1,6.1,6.28,6.28,0,0,0,1.8,4.4v5.1a3.329,3.329,0,0,0,3.3,3.3h1.8a3.329,3.329,0,0,0,3.3-3.3V96.8a6.28,6.28,0,0,0,1.8-4.4h0A5.777,5.777,0,0,0,98.4,86.3Zm0,3a3.1,3.1,0,1,1-3.1,3.1A3.116,3.116,0,0,1,98.4,89.3Zm1.3,12.6a.319.319,0,0,1-.3.3H97.6a.319.319,0,0,1-.3-.3V98.4a5.283,5.283,0,0,0,1.3.1,5.7,5.7,0,0,0,1.3-.1v3.5Z" transform="translate(-6.9 -16.098)" fill="#834ba2"/></svg>