<svg xmlns="http://www.w3.org/2000/svg" viewBox="0 0 64 64"><path fill="#CBAAD1" d="M60.6 5.9H9.8C8 5.9 6.4 7.5 6.4 9.4v33.4c0 1.9 1.5 3.4 3.4 3.4h19.9V54h-3.4c-.4 0-.7.4-.7.8 0 .2.1.4.3.5.1.1.3.2.5.2h17.4c.2 0 .4-.1.6-.2.2-.2.2-.3.2-.5s-.1-.4-.2-.5c-.1-.1-.3-.2-.6-.2h-3.2v-7.8h19.9c1.9 0 3.4-1.5 3.4-3.4V9.4c.1-1.9-1.4-3.5-3.3-3.5z"></path><path fill="#474340" d="M56.6.3h-53C1.6.3 0 1.9 0 3.9v34.8c0 2 1.6 3.6 3.6 3.6h20.8v8.1h-3.5c-.4 0-.7.4-.7.8 0 .2.1.4.3.6.2.1.3.2.5.2h18.1c.2 0 .4-.1.6-.2.2-.2.3-.4.3-.6 0-.2-.1-.4-.3-.6-.2-.2-.3-.2-.6-.2h-3.4v-8.1h20.8c2 0 3.6-1.6 3.6-3.6V3.9c.1-2-1.6-3.6-3.5-3.6zM34.2 42.4v8.1H26v-8.1h8.2zM58.5 3.9v34.8c0 1.1-.9 2-2 2h-53c-1.1 0-2-.9-2-2V3.9c0-1.1.9-2 2-2h53c1.2 0 2 .9 2 2z"></path><path fill="#474340" d="M43.2 11.4c-.2 0-.3.1-.5.2L25.1 29.3l-7.8-6.5c-.1-.1-.4-.2-.6-.2-.2 0-.4.1-.6.3-.1.1-.2.4-.2.6 0 .2.1.4.3.5l8.4 7c.1.1.3.2.5.2s.4-.1.6-.2l18.1-18.1c.3-.2.3-.7.2-1-.1-.3-.4-.5-.8-.5z"></path></svg>