<svg xmlns="http://www.w3.org/2000/svg" viewBox="0 0 96 96"><rect opacity="0" width="96" height="96" fill="#fff"/><path d="M21.889,91.884l46-4L76.992,70l17.4.382-6-55L24.722,18.921l-7.765,7.946Z" class="sgmaincolor"/><path d="M30.942,30.1c-.21-.447-1.036-.506-1.987-.2l-5.519-5.519-1.415,1.414,5.124,5.124c-.508.465-.756.96-.593,1.307.26.551,1.452.522,2.664-.065S31.2,30.648,30.942,30.1Z"/><path d="M89.145,14.449,28.286,17.83l1.62-1.62-3.158-3.158-2.27.87L13.829,6.448l-.5-1.734L12.538,2-.094,14.631l4.448,1.293,7.474,10.65-.87,2.269L14.116,32l1.936-1.936,4.781,63.02,47.26-4.11L95.313,71ZM14.116,29.172l-.826-.825.406-1.056.381-.994-.612-.872L5.99,14.775l-.4-.575L4.912,14l-1.2-.349L11.562,5.8,11.908,7l.2.678.577.405,10.649,7.474.87.611.994-.38,1.058-.406.826.826L25.291,18l-.043,0-9.4,9.4,0,.039Zm3.8-.973,8.248-8.248,61.2-3.4L93.083,69,76.129,69,67.353,87.031,22.675,90.916ZM91.681,71,70.605,84.918,77.379,71Z"/><path d="M62.679,38.339,52.616,68.411l-6.824.6,10.226-28.47-16.2,1.418-.456-5.214,23-2.013Z"/></svg>