<svg xmlns="http://www.w3.org/2000/svg" viewBox="0 0 96 96"><rect opacity="0" width="96" height="96" fill="#fff"/><path d="M21.889,91.884l46-4L76.992,70l17.4.382-6-55L24.722,18.921l-7.765,7.946Z" class="sgmaincolor"/><path d="M30.942,30.1c-.21-.447-1.036-.506-1.987-.2l-5.519-5.519-1.415,1.414,5.124,5.124c-.508.465-.756.96-.593,1.307.26.551,1.452.522,2.664-.065S31.2,30.648,30.942,30.1Z"/><path d="M89.145,14.449,28.285,17.83l1.62-1.62-3.157-3.158-2.27.87L13.83,6.448l-.5-1.734L12.539,2-.095,14.631l4.449,1.293,7.475,10.65-.871,2.269L14.116,32l1.936-1.936,4.781,63.02,47.259-4.11L95.313,71ZM14.116,29.172l-.826-.825.406-1.056.381-.994-.612-.872L5.99,14.775l-.4-.575L4.912,14l-1.2-.349L11.562,5.8,11.908,7l.2.678.577.405,10.648,7.474.871.611.994-.38,1.058-.406.826.826L25.291,18l-.043,0-9.4,9.4,0,.039Zm3.8-.972,8.248-8.249,61.2-3.4L93.083,69,76.129,69,67.353,87.031,22.675,90.916ZM91.681,71,70.605,84.918,77.379,71Z"/><path d="M42.623,53.142l.431-16.723,18.258-1.6.471,5.393L48.828,41.348l-.192,7.074a10.289,10.289,0,0,1,4.792-1.659,9.422,9.422,0,0,1,7.547,2.248q2.89,2.655,3.347,7.846a11.842,11.842,0,0,1-.837,5.766,9.442,9.442,0,0,1-3.476,4.206,11.957,11.957,0,0,1-5.742,1.888A12.7,12.7,0,0,1,48.68,68a9.747,9.747,0,0,1-4.288-3.019A9.2,9.2,0,0,1,42.4,60.173l6.4-.561a4.8,4.8,0,0,0,1.7,3.043,4.517,4.517,0,0,0,3.286.851,4,4,0,0,0,3.241-1.872,7.344,7.344,0,0,0,.795-4.57,6.066,6.066,0,0,0-1.736-4.13,5.024,5.024,0,0,0-4-1.138,5.617,5.617,0,0,0-3.631,1.534l-.575.637Z"/></svg>