<svg xmlns="http://www.w3.org/2000/svg" viewBox="0 0 144 144"><g opacity="0"><rect width="144" height="144" fill="#fff"/></g><polygon points="133.926 108.758 123.854 88.457 116.02 88.457 87.278 28.684 75.732 28.684 74.613 28.684 60.829 28.684 32.619 88.457 24.254 88.457 15.301 108.758 50.076 108.758 63.422 123.419 85.804 123.419 100.352 108.758 102.591 108.758 133.926 108.758" class="sgmaincolor"/><path d="M27.749,34.978a8.99,8.99,0,0,0,8.986-9,9,9,0,0,0-16.72-4.628,9,9,0,0,0,7.734,13.628Zm-6.02-12.6a7.043,7.043,0,0,1,6.022-3.4,6.93,6.93,0,0,1,1.309.124,7,7,0,1,1-7.331,3.275Z"/><path d="M134.775,109.285a1,1,0,0,0,.046-.972l-10.072-20.3a1,1,0,0,0-.9-.555h-7.2L88.18,28.25a1,1,0,0,0-.9-.567H60.829a1,1,0,0,0-.9.574l-27.94,59.2H24.254a1,1,0,0,0-.915.6l-8.953,20.3a1,1,0,0,0,.915,1.4H49.634l13.049,14.334a1,1,0,0,0,.739.328H85.8a1,1,0,0,0,.71-.3l14.254-14.366h33.158A1,1,0,0,0,134.775,109.285Zm-20.331-21.8H75.255v-57.8H86.649Zm-52.981-57.8H73.255V87.488H34.182Zm-9.116,80.084,20.987,0,.034,12.654h-9.5Zm33.041,12.652H75.368l-.034-12.654,22.612,0Zm14.964-14.662c-.008,0-.016,0-.024,0l-50.206,0c-.016,0-.03-.01-.046-.01H16.835l8.071-18.3h7.027a1.013,1.013,0,0,0,.155.031H116.02a.989.989,0,0,0,.155-.031h7.058l9.08,18.3Z"/><path d="M28.227,73.4a1,1,0,0,0-1-1H4.138a1,1,0,0,0,0,2H27.227A1,1,0,0,0,28.227,73.4Z"/><path d="M109.66,46.754h23.089a1,1,0,0,0,0-2H109.66a1,1,0,0,0,0,2Z"/><path d="M136.31,123.059a1,1,0,0,0-1-.087l-13.469,6.292a1,1,0,0,0-.151,1.726l12.185,8.519a1,1,0,0,0,1.569-.732l1.285-14.811A1,1,0,0,0,136.31,123.059ZM133.6,136.878l-9.345-6.535,10.332-4.826Z"/></svg>