<svg xmlns="http://www.w3.org/2000/svg" viewBox="0 0 32 31"><polygon points="25.826 15.62 19.943 19.184 20.088 26.061 26.116 29.375 32 25.811 31.855 18.933 25.826 15.62" fill="#f4efe3"></polygon><polygon points="9.211 15.62 3.327 19.184 3.472 26.061 9.501 29.375 15.385 25.811 15.239 18.933 9.211 15.62" fill="#f4efe3"></polygon><polygon points="17.651 0.863 11.768 4.427 11.913 11.304 17.941 14.617 23.825 11.053 23.68 4.176 17.651 0.863" fill="#f4efe3"></polygon><path d="M2491.905,1226.975a.426.426,0,0,0-.581-.161l-2.878,1.629a.271.271,0,0,0-.037.021l-.015.008-.006.006a.376.376,0,0,0-.113.1.328.328,0,0,0-.02.031.39.39,0,0,0-.05.1.4.4,0,0,0-.016.076.323.323,0,0,0-.011.054l-.054,3.24c0,.236.184.529.42.529h.007c.232,0,.422-.281.426-.515l.05-2.949,2.716-1.561A.454.454,0,0,0,2491.905,1226.975Z" transform="translate(-2477.345 -1222.666)" fill="#c29f6a"></path><path d="M2483.552,1241.3a.427.427,0,0,0-.581-.161l-2.878,1.629c-.014,0-.024.015-.037.021l-.015.008-.006.006a.391.391,0,0,0-.113.1c-.008.01-.013.021-.02.031a.39.39,0,0,0-.05.1.4.4,0,0,0-.016.076.469.469,0,0,0-.011.054l-.053,3.025c0,.236.183.314.419.314h.005c.234,0,.424-.066.428-.3l.05-2.841,2.717-1.508A.392.392,0,0,0,2483.552,1241.3Z" transform="translate(-2477.345 -1222.666)" fill="#c29f6a"></path><path d="M2501.77,1250.045a.427.427,0,0,0,.588.134l2.8-1.759a.216.216,0,0,0,.036-.022l.014-.009.006-.006a.4.4,0,0,0,.109-.1c.007-.01.012-.02.019-.031a.413.413,0,0,0,.045-.1.326.326,0,0,0,.012-.076.35.35,0,0,0,.009-.055l-.089-3.153a.438.438,0,0,0-.437-.423h-.007a.43.43,0,0,0-.409.448l.083,2.9-2.644,1.663A.429.429,0,0,0,2501.77,1250.045Z" transform="translate(-2477.345 -1222.666)" fill="#c29f6a"></path><path d="M2493.026,1238.8l-7.07-3.885-.17-8.065,6.9-4.18,7.069,3.885.171,8.065Zm-6.054-4.5,6.029,3.314,5.883-3.565-.145-6.877-6.028-3.313-5.884,3.564Z" transform="translate(-2477.345 -1222.666)" fill="#c29f6a"></path><path d="M2484.586,1253.666l-7.07-4-.171-8.065,6.9-4.18,7.07,3.884.17,8.066Zm-6.054-4.613,6.028,3.425,5.884-3.676-.145-6.878-6.029-3.312-5.884,3.564Z" transform="translate(-2477.345 -1222.666)" fill="#c29f6a"></path><path d="M2501.2,1253.666l-7.07-4-.17-8.065,6.9-4.18,7.069,3.884.171,8.066Zm-6.054-4.613,6.029,3.425,5.883-3.676-.145-6.878-6.028-3.312-5.884,3.564Z" transform="translate(-2477.345 -1222.666)" fill="#c29f6a"></path></svg>