<svg xmlns="http://www.w3.org/2000/svg" width="144" height="144" viewBox="0 0 144 144" ><rect width="144" height="144" fill="#fff" opacity="0"/><path d="M16,66v48H128V66Z" class="sgmaincolor"/><path d="M27.939,25a.99.99,0,0,1-.354-.065L15.93,20.521a1,1,0,0,1-.286-1.7l9.572-7.98a1,1,0,0,1,1.627.6l2.082,12.394A1,1,0,0,1,27.939,25Zm-9.7-5.743,8.424,3.191L25.159,13.49Zm100.917,4.377a7.826,7.826,0,1,1,7.826-7.825A7.834,7.834,0,0,1,119.157,23.634Zm0-13.651a5.826,5.826,0,1,0,5.826,5.826A5.832,5.832,0,0,0,119.157,9.983ZM128,32H16a1,1,0,0,0-1,1v81a1,1,0,0,0,1,1H128a1,1,0,0,0,1-1V33A1,1,0,0,0,128,32Zm-1,2V64H17V34ZM17,113V66H127v47Zm5-37H52V72H22Zm26,6h4V78H48ZM31,84H22v4h9Zm5,4V84H32v4ZM47,78H22v4H47Zm61,16H92v5h16Zm-3,12h6v-5h-6Zm4-7h13V94H109Zm-17,7h12v-5H92Zm0-34v3h30V72Zm22,8h8V77h-8Zm-5-3v3h4V77Zm-8,5H92v3h9Zm5,3V82h-4v3Zm2-8H92v3h16ZM57,74H87V72H57Zm22,4h8V76H79ZM61,76H57v2h4Zm5,4H57v2h9Zm12-4H62v2H78ZM22,96H52V94H22Zm13,4H52V98H35Zm-8,4h9v-2H27Zm-5,0h4v-2H22Zm12-6H22v2H34Zm23-1H87V94H57Zm8,2H57v3h8Zm1,3H87V99H66Zm-9,5h9v-3H57Zm58-59H87.815a2.964,2.964,0,0,0-5.605,0H73a1,1,0,0,0,0,2h9.2a2.963,2.963,0,0,0,5.615,0H115a1,1,0,0,0,0-2ZM39,42H27v2h5V57h2V44h5Zm-1,6v2h3v7h2V50h3V48Zm58,76.111a1,1,0,0,0-1-1H44.8a1,1,0,1,0,0,2H95A1,1,0,0,0,96,124.111Z"/></svg>