<svg id="b52293b9-bcd7-4d39-bce0-46617a824edc" data-name="Layer 1" xmlns="http://www.w3.org/2000/svg" viewBox="0 0 142 85"><polygon points="10.837 33.62 87.716 4.483 71.242 66.694 46.923 51.732 38.293 58.819 38.019 58.031 32.802 43.069 10.837 33.62" fill="#b7dd7a"/><polygon points="45.761 7.384 44.947 5.551 15.988 18.529 16.802 20.361 45.761 7.384" fill="#7e9460"/><polygon points="25.396 7.777 40.112 1.863 39.368 0 24.652 5.914 25.396 7.777" fill="#7e9460"/><path d="M76.392,65.782,101.25,81.076l17.317-65.4L37.548,46.383,61.39,56.64l5.817,16.686ZM89.185,45.768l26.019-25.2L100.469,76.209Zm-7.353,4.114-.552-6.1,25.366-17.714L87.382,44.735l-2.58,2.5ZM79.89,42.308c-2.794.184-22.461,1.785-32.885,2.636l63.659-24.126Zm-.5,2.793.613,6.775-9.246,8.95-3.147,7.581L63.384,56.28ZM76.226,63.325l-6.582,5.407,2.8-6.75L86.051,48.8l1.6-1.425L98.68,77.141ZM44.448,47.167c9.382-.767,25.161-2.052,32.214-2.605L62.073,54.75Z" transform="translate(-29.386 -12.822)" fill="#7e9460"/><path d="M73,81.953c1.121,1.152,2.291,2.264,3.476,3.3L77.8,83.746c-1.147-1-2.277-2.08-3.361-3.195Z" transform="translate(-29.386 -12.822)" fill="#7e9460"/><path d="M80.21,88.27c1.3.958,2.635,1.862,3.979,2.685l1.041-1.713c-1.3-.793-2.585-1.664-3.832-2.587Z" transform="translate(-29.386 -12.822)" fill="#7e9460"/><path d="M168.22,48.221a11.557,11.557,0,0,0-1.85-4.783l-1.635,1.156a9.548,9.548,0,0,1,1.512,3.958Z" transform="translate(-29.386 -12.822)" fill="#7e9460"/><path d="M117.472,52.9c-.01.219-.015.437-.015.657a16.761,16.761,0,0,0,.59,4.315l1.931-.519a14.83,14.83,0,0,1-.521-3.8c0-.19.005-.38.013-.569Z" transform="translate(-29.386 -12.822)" fill="#7e9460"/><path d="M166.313,54.229a20.311,20.311,0,0,1-.559,3.289l1.938.5a22.3,22.3,0,0,0,.613-3.613c.031-.357.066-.775.1-1.239l-2-.129C166.377,53.482,166.342,53.885,166.313,54.229Z" transform="translate(-29.386 -12.822)" fill="#7e9460"/><path d="M88.393,93.273c1.438.707,2.92,1.35,4.406,1.912l.7-1.879c-1.428-.539-2.85-1.157-4.23-1.836Z" transform="translate(-29.386 -12.822)" fill="#7e9460"/><path d="M122.668,44.948l-1.544-1.275a16.894,16.894,0,0,0-2.554,4.306l1.854.756A14.847,14.847,0,0,1,122.668,44.948Z" transform="translate(-29.386 -12.822)" fill="#7e9460"/><path d="M161.523,42.074l.751-1.861a12.175,12.175,0,0,0-5.021-.832l.07,2.007A10.186,10.186,0,0,1,161.523,42.074Z" transform="translate(-29.386 -12.822)" fill="#7e9460"/><path d="M66.866,74.586c.938,1.321,1.9,2.565,2.929,3.8L71.328,77.1c-1-1.2-1.926-2.4-2.834-3.679Z" transform="translate(-29.386 -12.822)" fill="#7e9460"/><path d="M149.21,79.242l1.3,1.525c1.187-1.02,2.374-2.1,3.527-3.207l-1.382-1.451C151.529,77.192,150.37,78.246,149.21,79.242Z" transform="translate(-29.386 -12.822)" fill="#7e9460"/><path d="M148.43,87.221c1.449.723,2.906,1.4,4.329,2l.783-1.848c-1.388-.592-2.809-1.249-4.222-1.955Z" transform="translate(-29.386 -12.822)" fill="#7e9460"/><path d="M153.06,42.272l-.722-1.872a12.722,12.722,0,0,0-4.3,2.7l1.4,1.434A10.745,10.745,0,0,1,153.06,42.272Z" transform="translate(-29.386 -12.822)" fill="#7e9460"/><path d="M144.6,50.048a13.816,13.816,0,0,0-1.534-4.114c-.09-.154-.185-.307-.283-.459l-1.679,1.089c.082.127.161.256.236.384a12.05,12.05,0,0,1,1.335,3.656l1.893-.406c-.087.4-.16.778-.225,1.114-.062.317-.118.607-.174.86l1.951.438c.06-.269.12-.577.185-.914a23.024,23.024,0,0,1,.907-3.547l-1.878-.69A20.49,20.49,0,0,0,144.6,50.048Z" transform="translate(-29.386 -12.822)" fill="#7e9460"/><path d="M161.9,65.688l1.64,1.149A30.446,30.446,0,0,0,166,62.629l-1.8-.87A28.445,28.445,0,0,1,161.9,65.688Z" transform="translate(-29.386 -12.822)" fill="#7e9460"/><path d="M97.89,94.723l-.519,1.938c.481.13.967.253,1.452.368a28.568,28.568,0,0,0,3.324.521l.213-2a26.988,26.988,0,0,1-3.072-.478C98.817,94.965,98.35,94.847,97.89,94.723Z" transform="translate(-29.386 -12.822)" fill="#7e9460"/><path d="M144.628,82.9c-1.149-.665-2.293-1.362-3.407-2.077l-1.076,1.692c.884.567,1.787,1.124,2.7,1.663q-.513.355-1.028.7l1.107,1.671c1.307-.873,2.614-1.806,3.884-2.775l-1.209-1.6Q145.115,82.537,144.628,82.9Z" transform="translate(-29.386 -12.822)" fill="#7e9460"/><path d="M160.56,70.617l-1.519-1.3c-1.017,1.193-2.063,2.364-3.109,3.48l1.455,1.376C158.456,73.03,159.523,71.835,160.56,70.617Z" transform="translate(-29.386 -12.822)" fill="#7e9460"/><path d="M157.213,90.956c1.49.521,3.023,1,4.557,1.426l.531-1.934c-1.491-.413-2.981-.881-4.43-1.388Z" transform="translate(-29.386 -12.822)" fill="#7e9460"/><path d="M166.812,91.536l-.4,1.966c1.543.319,3.125.593,4.7.814l.277-1.988C169.852,92.113,168.314,91.846,166.812,91.536Z" transform="translate(-29.386 -12.822)" fill="#7e9460"/><path d="M134.221,41.433a13.987,13.987,0,0,1,3.885,2.011l1.184-1.618a16,16,0,0,0-4.448-2.3Z" transform="translate(-29.386 -12.822)" fill="#7e9460"/><path d="M126.931,69l-1.484,1.346c1.029,1.143,2.161,2.3,3.364,3.426l1.367-1.465C129.015,71.212,127.922,70.1,126.931,69Z" transform="translate(-29.386 -12.822)" fill="#7e9460"/><path d="M128.33,41.115a9.186,9.186,0,0,1,1.631-.259l-.137-2a11.143,11.143,0,0,0-1.986.315,11.328,11.328,0,0,0-2.9,1.2l1,1.736A9.327,9.327,0,0,1,128.33,41.115Z" transform="translate(-29.386 -12.822)" fill="#7e9460"/><path d="M107.432,95.815l-.47,0-.02,2.008.488,0c1.415,0,2.863-.056,4.3-.166l-.153-2C110.192,95.761,108.8,95.815,107.432,95.815Z" transform="translate(-29.386 -12.822)" fill="#7e9460"/><path d="M116.177,95.116l.311,1.983c1.566-.248,3.145-.56,4.692-.93l-.462-1.953C119.22,94.574,117.692,94.877,116.177,95.116Z" transform="translate(-29.386 -12.822)" fill="#7e9460"/><path d="M119.849,62.458A33.214,33.214,0,0,0,122.41,66.6l1.62-1.175a31.027,31.027,0,0,1-2.4-3.884Z" transform="translate(-29.386 -12.822)" fill="#7e9460"/><path d="M133.773,89.507l.875,1.8c1.412-.69,2.831-1.446,4.217-2.245l-1-1.741C136.522,88.1,135.144,88.837,133.773,89.507Z" transform="translate(-29.386 -12.822)" fill="#7e9460"/><path d="M125.179,92.971l.607,1.912c1.5-.482,3.016-1.029,4.5-1.626l-.746-1.863C128.1,91.974,126.636,92.5,125.179,92.971Z" transform="translate(-29.386 -12.822)" fill="#7e9460"/><path d="M137.367,78.2c-1.279-.923-2.521-1.877-3.691-2.833l-1.263,1.556c1.2.982,2.475,1.96,3.786,2.907Z" transform="translate(-29.386 -12.822)" fill="#7e9460"/><path d="M42.582,64.257a8.517,8.517,0,0,0-6.36,14.372,8.4,8.4,0,0,0,5.93,2.646l.221,0a8.512,8.512,0,0,0,.209-17.02Zm4.25,13.223a6.461,6.461,0,0,1-9.161-.234,6.5,6.5,0,0,1,4.693-10.985l.168,0a6.51,6.51,0,0,1,4.3,11.216Z" transform="translate(-29.386 -12.822)" fill="#7e9460"/><path d="M31.646,71.575a1,1,0,1,0-1.918-.567,8.876,8.876,0,0,0,2.661,9.072,1,1,0,0,0,1.41-.105,1.006,1.006,0,0,0-.1-1.415A6.928,6.928,0,0,1,31.646,71.575Z" transform="translate(-29.386 -12.822)" fill="#7e9460"/></svg>