<svg xmlns="http://www.w3.org/2000/svg" viewBox="0 0 144 144"><g opacity="0"><rect width="144" height="144" fill="#fff"/></g><path d="M117.14,56.377a1,1,0,0,1-.99-1.142l2.492-17.4a1,1,0,0,1,1.611-.642l13.889,11.019a1,1,0,0,1-.258,1.714L117.5,56.308A1,1,0,0,1,117.14,56.377Zm3.235-16.538-2,13.984,13.163-5.13Z"/><polygon points="17.944 65.019 5.66 67.195 48.06 110.069 74.797 104.374 113.242 108.487 138.872 100.893 96.685 58.398 90.986 61.505 87.957 67.795 78.95 86.496 70.452 68.733 69.24 66.2 32.873 60.214 25.024 62.291 20.859 71.11 17.944 65.019" class="sgmaincolor"/><path d="M139.581,100.189,97.4,57.694a1,1,0,0,0-1.189-.174l-2.97,1.62,2.16-4.485a1.064,1.064,0,0,0,.053-.136l.592-1.9a.994.994,0,0,0,.015-.546l-3.5-13.646a1,1,0,0,0-.617-.688L79.3,32.995a1,1,0,0,0-.762.024l-11.865,5.34a1,1,0,0,0-.554.647L62.2,53.244a1,1,0,0,0,.062.7L67.51,64.9,33.035,59.227c-.021,0-.042.005-.063,0a.981.981,0,0,0-.236.011.939.939,0,0,0-.119.006l-5.655,1.5,5.792-12.027a1.1,1.1,0,0,0,.053-.134l.42-1.343a1.007,1.007,0,0,0,.015-.547L30.765,37.04a1,1,0,0,0-.617-.689L21.21,32.995a1,1,0,0,0-.761.024L12.056,36.8a1,1,0,0,0-.554.646L8.733,47.513a1,1,0,0,0,.061.7l7.68,16.052L5.485,66.211A1,1,0,0,0,4.949,67.9l42.4,42.874a1,1,0,0,0,.711.3.98.98,0,0,0,.208-.022l26.581-5.662,38.286,4.1c.018,0,.035-.006.052,0s.036.011.055.011a.967.967,0,0,0,.148-.029,1.026,1.026,0,0,0,.136-.012l25.63-7.594a1,1,0,0,0,.425-1.663ZM67.924,39.99l11.06-4.978L90.748,39.43l3.3,12.867-.486,1.556L90.086,61.07h0L78.952,84.186l-8.81-18.418,0,0L64.232,53.415ZM78.047,86.928a1,1,0,0,0,.9.569h0a1,1,0,0,0,.9-.567L83.288,79.8l27.255,27.4L75.27,103.419,35.647,61.684,68.562,67.1Zm-64.741-48.5,7.587-3.414,8.064,3.029,2.277,8.872-.314,1-6.584,13.67a1,1,0,0,0-.216.279l-3.267,6.917-2.006-4.194,0,0-8.084-16.9ZM7.711,67.847l9.659-1.712,2.586,5.407a1,1,0,0,0,.834.558c.023,0,.044.01.068.01h0a1.059,1.059,0,0,0,.124-.018,1.142,1.142,0,0,0,.154-.022,1.225,1.225,0,0,0,.128-.058.873.873,0,0,0,.124-.057.946.946,0,0,0,.1-.082,1.072,1.072,0,0,0,.115-.1c.023-.026.037-.059.058-.087a1.018,1.018,0,0,0,.1-.145l3.48-7.224.58-1.206,6.735-1.782,40.287,42.435-24.456,5.21Zm105.818,39.512L84.208,77.884l7.54-15.656L96.5,59.635l40.479,40.775Z"/><path d="M79.276,55.163a6.844,6.844,0,1,1,6.843-6.844A6.852,6.852,0,0,1,79.276,55.163Zm0-11.688a4.844,4.844,0,1,0,4.843,4.844A4.849,4.849,0,0,0,79.276,43.475Z"/><path d="M21.217,50.878a5.414,5.414,0,1,1,5.414-5.414A5.421,5.421,0,0,1,21.217,50.878Zm0-8.828a3.414,3.414,0,1,0,3.414,3.414A3.418,3.418,0,0,0,21.217,42.05Z"/><path d="M39.041,111.069H3.128a1,1,0,0,1,0-2H39.041a1,1,0,1,1,0,2Z"/><path d="M32.282,105.848h-15.1a1,1,0,1,1,0-2h15.1a1,1,0,0,1,0,2Z"/></svg>