<svg xmlns="http://www.w3.org/2000/svg" viewBox="0 0 144 144"><rect width="144" height="144" fill="#fff" opacity="0"/><path d="M89.79,100.391c-.183-.144-22.155-82.86-22.155-82.86-.043-.165-1.465-5.492-1.465-5.492L45.508,98.705,21.521,116.026,36.642,123.7l-4.32,6.332,22.825,1.929,9.721-9.588,3.274,5.88,4.2-7.279,18.2,8.55L122.479,126Z" class="sgmaincolor"/><path d="M125.049,94.839a7.824,7.824,0,1,0,2.921,5.228A7.763,7.763,0,0,0,125.049,94.839Zm-.279,9.749a5.824,5.824,0,1,1-5.25-9.393,5.957,5.957,0,0,1,.691-.041,5.824,5.824,0,0,1,4.559,9.434Z"/><path d="M130.127,88.868a1,1,0,1,0-1.078,1.685,10.388,10.388,0,0,1,4.55,9.957,1,1,0,0,0,1.98.287A12.284,12.284,0,0,0,130.127,88.868Z"/><path d="M25.037,86.077a1,1,0,0,0,.922-1.386L19.878,70.173a1,1,0,0,0-1.712-.227L8.512,82.378a1,1,0,0,0,.658,1.6l15.736,2.086A.961.961,0,0,0,25.037,86.077ZM11.159,82.229l7.536-9.7,4.747,11.332Z"/><path d="M91.577,99.76,68.1,11.959a1,1,0,0,0-.931-.924.966.966,0,0,0-.4.063.874.874,0,0,0-.1.048.978.978,0,0,0-.156.076c-.007.005-.01.014-.017.019a.984.984,0,0,0-.263.282c-.014.022-.019.049-.031.073a1.01,1.01,0,0,0-.092.216L45.543,98.118l-23.686,17.1a1,1,0,0,0,.133,1.7l14.1,7.155-3.671,5.4a1,1,0,0,0,.743,1.559l22.825,1.929a.781.781,0,0,0,.083,0h0a1,1,0,0,0,.367-.071c.021-.008.037-.026.057-.035a1.01,1.01,0,0,0,.26-.171c.005,0,.012-.006.017-.011l8.785-8.666,2.634,4.731a1,1,0,0,0,.866.514h.008a1,1,0,0,0,.866-.5l3.731-6.469,17.354,8.147a1.019,1.019,0,0,0,.535.089L123.511,127a1,1,0,0,0,.507-1.781ZM88.957,97.7l-3.838-3.012L74.983,45.434Zm-41.55,1.222,15.139-63.5-9.72,64.04L45,110.981ZM62.971,45.951l-4.1,44.63L55.43,95.636ZM24.358,115.882,44.95,101.013l-2.844,14.216-4.884,7.182Zm30.806,15-20.131-1.7,3.325-4.889a.9.9,0,0,0,.1-.138l0-.007L54.6,100.422l.027-.041,3.869-5.688Zm9.922-9.219h0l-7.77,7.664,3.508-38.168a.988.988,0,0,0,.031-.337l5.593-60.847,1.683,88.67Zm3.993,4.562-2.046-3.674,2.321-2.289,2.49,1.168Zm4.616-6.151-.012-.007-.266-.124L70.125,118.4,68.314,22.947,89.866,127.682Zm18.372,8.376L85.747,97.74l4.345,3.44a1,1,0,0,0,.23.137l30.535,23.967Z"/></svg>