<svg xmlns="http://www.w3.org/2000/svg" viewBox="0 0 144 144"><g opacity="0"><rect width="144" height="144" fill="#fff"/></g><rect x="28.166" y="22.457" width="85.548" height="106.197" class="sgmaincolor"/><path d="M46.492,79.035a1,1,0,0,0,.848.47H60.614a1,1,0,0,0,.848-.47l7.375-11.8a1,1,0,0,0,0-1.061l-7.375-11.8a1,1,0,0,0-.848-.47H47.34a1,1,0,0,0-.848.47l-7.375,11.8a1,1,0,0,0,0,1.061Zm1.4-23.129H60.06l6.75,10.8-6.75,10.8H47.9l-6.75-10.8Z"/><path d="M68.837,101.574l-7.375-11.8a1,1,0,0,0-.848-.47H47.34a1,1,0,0,0-.848.47l-7.375,11.8a1,1,0,0,0,0,1.06l7.375,11.8a1,1,0,0,0,.848.47H60.614a1,1,0,0,0,.848-.47l7.375-11.8A1,1,0,0,0,68.837,101.574ZM60.06,112.9H47.9l-6.75-10.8L47.9,91.3H60.06l6.75,10.8Z"/><path d="M52.533,70.362a1,1,0,0,0,1.414,0l5.9-5.9a1,1,0,0,0-1.414-1.414L53.24,68.241,51,66a1,1,0,1,0-1.414,1.414Z"/><path d="M126.5,51.09l-11.787-6.806V22.457a1,1,0,0,0-1-1H94.042v-10.8a1,1,0,1,0-2,0v10.8h-44v-10.8a1,1,0,1,0-2,0v10.8H28.166a1,1,0,0,0-1,1v106.2a1,1,0,0,0,1,1h39.3l-.479,7.97a1,1,0,0,0,1.549.894l13.426-8.864h31.747a1,1,0,0,0,1-1V73.506l12.153-21.05A1,1,0,0,0,126.5,51.09ZM69.879,122.9l8.238,4.756H69.594Zm.465-2.042,35.862-62.114,6.507,3.757V72.97L81.385,127.231ZM107.206,57.01l5.507-9.539V60.189Zm5.507-33.553V40.631H29.166V23.457Zm-83.547,104.2V42.631h83.547v1.11a.98.98,0,0,0-.352.34l-2.45,4.243-4.244-2.45a1,1,0,0,0-1.366.366L92.5,66.678a1,1,0,0,0,1.733,1l11.3-19.572,3.378,1.95-40.8,70.666a.986.986,0,0,0-.124.415c0,.009-.008.016-.008.026l-.39,6.491Zm39.942,8.093.366-6.093h8.862Zm43.6-8.093H83.451L112.713,76.97Zm2-64,2.534,1.463-2.534,4.389Zm3.534-.27-3.534-2.04V46.594l9.921,5.728Z"/><path d="M134.7,16.162A9,9,0,1,0,133.014,34,8.993,8.993,0,0,0,142,25,9.118,9.118,0,0,0,134.7,16.162Zm.645,15.435A7,7,0,1,1,133.016,18a6.92,6.92,0,0,1,1.308.124,7,7,0,0,1,1.021,13.47Z"/><path d="M21.02,100.384l-18,1.086a1,1,0,0,0-.774,1.55c.534.806,4.675,7.076,7.723,11.689l2.219,3.358a1,1,0,0,0,.834.449l.06,0a1,1,0,0,0,.834-.55l8.061-16.134a1,1,0,0,0-.061-1A1.02,1.02,0,0,0,21.02,100.384ZM12.9,115.52l-1.264-1.913c-2.31-3.5-5.248-7.945-6.769-10.245l14.544-.877Z"/></svg>