<svg xmlns="http://www.w3.org/2000/svg" viewBox="0 0 320 170.5"><defs><linearGradient id="a" x1="158.31" y1="550.51" x2="158.31" y2="555.825" gradientTransform="matrix(1, 0, 0, -1, -22.5, 569.954)" gradientUnits="userSpaceOnUse"><stop offset="0" stop-color="#009cdd"></stop><stop offset="1" stop-color="#88cef2"></stop></linearGradient></defs><title>domain-order-comp</title><rect x="169.5" y="109.3" width="3" height="3" fill="#c1aa95"></rect><rect x="147.1" y="109.3" width="3" height="3" fill="#c1aa95"></rect><rect x="147.1" y="130.9" width="3" height="3" fill="#c1aa95"></rect><circle cx="183.06" cy="165.126" r="3.44" fill="#edddc5"></circle><circle cx="204.06" cy="165.126" r="3.44" fill="#edddc5"></circle><path d="M228.838,173.454h-23.1a5.252,5.252,0,0,1-5.212-4.6l-2.186-17.5a5.252,5.252,0,0,1,5.212-5.9h33.425l-2.925,23.4A5.252,5.252,0,0,1,228.838,173.454Z" transform="translate(-22.5 -19.954)" fill="#edddc5"></path><path d="M225,190.454a7,7,0,1,1,7-7A7.008,7.008,0,0,1,225,190.454Zm0-11a4,4,0,1,0,4,4A4,4,0,0,0,225,179.454Z" transform="translate(-22.5 -19.954)" fill="#c1aa95"></path><path d="M204,190.454a7,7,0,1,1,7-7A7.008,7.008,0,0,1,204,190.454Zm0-11a4,4,0,1,0,4,4A4,4,0,0,0,204,179.454Z" transform="translate(-22.5 -19.954)" fill="#c1aa95"></path><path d="M224.061,151.394a1.5,1.5,0,0,0-2.122,0l-8.439,8.439-4.439-4.439a1.5,1.5,0,0,0-2.122,2.121l5.5,5.5a1.5,1.5,0,0,0,2.122,0l9.5-9.5A1.5,1.5,0,0,0,224.061,151.394Z" transform="translate(-22.5 -19.954)" fill="#c1aa95"></path><path d="M247.5,129.454h-3.083a7.517,7.517,0,0,0-7.352,6.028l-.794,3.972H199.3a7.5,7.5,0,0,0-7.445,8.434l2.5,19.994a7.515,7.515,0,0,0,7.445,6.572h26.4a7.515,7.515,0,0,0,7.445-6.572l3.336-26.69,1.024-5.122a4.51,4.51,0,0,1,4.411-3.616H247.5a1.5,1.5,0,0,0,0-3ZM232.669,167.51a4.509,4.509,0,0,1-4.468,3.944H201.8a4.509,4.509,0,0,1-4.468-3.944l-2.5-19.994a4.5,4.5,0,0,1,4.468-5.062h36.5Z" transform="translate(-22.5 -19.954)" fill="#c1aa95"></path><path d="M215.663,105.9a1.466,1.466,0,0,0-.3-.323,1.33,1.33,0,0,0-.146-.093,48.867,48.867,0,0,0-66.479.027c-.034.023-.071.04-.1.066a1.481,1.481,0,0,0-.284.3,48.977,48.977,0,0,0,45.541,83.1,23.667,23.667,0,0,1-1.373-2.761l-.131-.34a22.684,22.684,0,0,1-.989-3.109,14.511,14.511,0,0,1-7.9,4.066V169.288a7,7,0,0,0,0-13.668V142.954h4.121a9.805,9.805,0,0,1,1.39-3H183.5V120.93a53.517,53.517,0,0,0,12.579-1.759A6.993,6.993,0,0,0,202,122.454c.136,0,.27-.012.4-.02a82.694,82.694,0,0,1,1.911,13.283h3.01a85.5,85.5,0,0,0-2.01-14.1,6.963,6.963,0,0,0,3.427-8.021,34.362,34.362,0,0,0,5.747-4.652,45.9,45.9,0,0,1,13.14,26.772h3.024A48.923,48.923,0,0,0,215.663,105.9Zm-40.618,55.778a49.07,49.07,0,0,0-12.345,3.1,79.2,79.2,0,0,1-2.941-16.555,7.015,7.015,0,0,0,5.075-5.268H180.5V155.62A7.013,7.013,0,0,0,175.045,161.681ZM162,141.454a4,4,0,1,1-4-4A4,4,0,0,1,162,141.454Zm-2.241-6.767a78.72,78.72,0,0,1,3.124-17.167,51.232,51.232,0,0,0,17.617,3.4v19.035H164.834A7.015,7.015,0,0,0,159.759,134.687ZM180.5,117.918a47.89,47.89,0,0,1-16.649-3.3c3.817-10.542,9.819-17.647,16.649-18.562Zm-8.208-21.424c-4.564,3.487-8.438,9.372-11.2,16.9a35.182,35.182,0,0,1-9.38-6.515A45.9,45.9,0,0,1,172.292,96.494ZM149.5,108.933a37.088,37.088,0,0,0,10.6,7.378,80.906,80.906,0,0,0-3.341,18.261,7.013,7.013,0,0,0-5.587,5.382H136.038A45.853,45.853,0,0,1,149.5,108.933Zm-13.461,34.021h15.128a7.013,7.013,0,0,0,5.587,5.383A81.273,81.273,0,0,0,159.918,166a36.6,36.6,0,0,0-10.747,7.623A45.851,45.851,0,0,1,136.038,142.954ZM151.35,175.7a34.411,34.411,0,0,1,9.526-6.772c2.774,7.795,6.72,13.9,11.4,17.48A45.888,45.888,0,0,1,151.35,175.7Zm12.287-8.013a45.971,45.971,0,0,1,11.729-3.017,7.018,7.018,0,0,0,5.134,4.616v17.554C173.542,185.91,167.443,178.555,163.637,167.689ZM186,162.454a4,4,0,1,1-4-4A4,4,0,0,1,186,162.454Zm9-47a7,7,0,0,0,.059.862A50.181,50.181,0,0,1,183.5,117.93V96.067c5.693.764,10.808,5.829,14.566,13.6A7,7,0,0,0,195,115.454Zm7,4a4,4,0,1,1,4-4A4,4,0,0,1,202,119.454Zm5.309-8.549a6.885,6.885,0,0,0-6.437-2.351A32.955,32.955,0,0,0,191.717,96.5a45.857,45.857,0,0,1,20.576,10.381A31.692,31.692,0,0,1,207.309,110.905Z" transform="translate(-22.5 -19.954)" fill="#c1aa95"></path><rect x="125.472" y="0.5" width="70" height="32" rx="3.999" ry="3.999" fill="#fff" stroke="#c1aa95" stroke-miterlimit="10"></rect><rect x="20.5" y="39.002" width="70" height="32" rx="3.999" ry="3.999" fill="#fff" stroke="#c1aa95" stroke-miterlimit="10"></rect><rect x="228.153" y="39.002" width="70" height="32" rx="3.999" ry="3.999" fill="#fff" stroke="#c1aa95" stroke-miterlimit="10"></rect><rect x="0.5" y="123.5" width="70" height="32" rx="3.999" ry="3.999" fill="#fff" stroke="#c1aa95" stroke-miterlimit="10"></rect><rect x="249.5" y="123.5" width="70" height="32" rx="3.999" ry="3.999" fill="#fff" stroke="#c1aa95" stroke-miterlimit="10"></rect><path d="M76.923,157.6c-1.533-2.582-22.242-16.19-31.347-9.368a19.314,19.314,0,0,0-7.324,13.885,2.893,2.893,0,0,1,2.439,2.783c0,.055,0,.111,0,.166a2.911,2.911,0,0,1-1.563,2.694,7.423,7.423,0,0,0,1.2,1.974c6.754,7.636,29.814-1.879,35.55-7.631C76.923,161.048,77.909,159.259,76.923,157.6Z" transform="translate(-22.5 -19.954)" fill="#173f63"></path><path d="M41.54,150.983h3.149v4.4c.687-.084,1.312-.194,1.936-.23a7.258,7.258,0,0,1,3.464.577,4.722,4.722,0,0,1,2.745,3.674,9.488,9.488,0,0,1-.157,4.4,5.1,5.1,0,0,1-4.566,3.9,18.573,18.573,0,0,1-6.088-.383c-.394-.073-.525-.236-.525-.624V155.737C41.54,154.205,41.54,152.63,41.54,150.983Zm3.191,13.939a25.518,25.518,0,0,0,2.624,0A2.473,2.473,0,0,0,49.68,162.8a9.881,9.881,0,0,0,.1-2.671,2.1,2.1,0,0,0-1.942-2,15.16,15.16,0,0,0-2.823.2.468.468,0,0,0-.294.342C44.726,160.676,44.731,162.7,44.731,164.922Z" transform="translate(-22.5 -19.954)" fill="#fff"></path><path d="M70.384,167.687l-11.866.048,6.586-9.447H59.431v-3.034H70.772L64.243,164.8h6.141Z" transform="translate(-22.5 -19.954)" fill="#fff"></path><path d="M54.073,155.218a3.382,3.382,0,0,0,3.259,0v12.506H54.073Z" transform="translate(-22.5 -19.954)" fill="#fff"></path><path d="M57.694,152.447a1.968,1.968,0,0,1-1.887,2.046c-.046,0-.093,0-.139,0a2.032,2.032,0,0,1,.026-4.063h0a1.953,1.953,0,0,1,2,1.9C57.7,152.372,57.7,152.409,57.694,152.447Z" transform="translate(-22.5 -19.954)" fill="#fff"></path><path d="M39.714,165.068a1.968,1.968,0,0,1-1.887,2.047c-.046,0-.093,0-.139,0a2.031,2.031,0,0,1,.026-4.062,1.953,1.953,0,0,1,2,1.9Q39.716,165.013,39.714,165.068Z" transform="translate(-22.5 -19.954)" fill="#173f63"></path><circle cx="135.81" cy="16.787" r="2.657" fill="url(#a)"></circle><path d="M182.771,30.42a6.355,6.355,0,1,0,6.347,6.362v-.008A6.355,6.355,0,0,0,182.771,30.42Zm0,9.51a3.156,3.156,0,1,1,3.155-3.156h0A3.156,3.156,0,0,1,182.771,39.93Z" transform="translate(-22.5 -19.954)" fill="#0061a3"></path><path d="M172.415,38.218a3.154,3.154,0,1,1,0-2.89H175.8a6.354,6.354,0,1,0,0,2.89Z" transform="translate(-22.5 -19.954)" fill="#0061a3"></path><path d="M203.848,30.351a4.133,4.133,0,0,0-3.623,2.143,4.135,4.135,0,0,0-6.782-.684v-.9h-3.355V42.6h3.429l-.028-7.044a1.935,1.935,0,0,1,3.869,0V42.6h3.357l.023-7.044a1.935,1.935,0,0,1,3.869,0V42.6H208V34.932s-.015-.289-.015-.437a4.137,4.137,0,0,0-4.129-4.144Z" transform="translate(-22.5 -19.954)" fill="#0061a3"></path><path d="M294.883,166.453c-.977-.1-1.163-.289-1.172-1.28-.015-1.476,0-2.9,0-4.368h.034v-4.5c0-.532-.239-.664-.747-.454-1.1.454-2.218.87-3.317,1.329a1.094,1.094,0,0,0-.577.459c-.137.322.088.576.391.733a1.04,1.04,0,0,1,.576.977c0,2,.03,3.991,0,5.989,0,.918-.19,1.031-1.109,1.119-.425.044-.488.273-.488.625s.215.43.532.43h5.833c.318,0,.528-.049.538-.43S295.318,166.5,294.883,166.453Z" transform="translate(-22.5 -19.954)" fill="#0d2c89"></path><path d="M286.036,164.137a3.292,3.292,0,0,0-3.253-3.331h-.03a3.347,3.347,0,0,0,0,6.693,3.3,3.3,0,0,0,3.284-3.311v-.05Z" transform="translate(-22.5 -19.954)" fill="#0d2c89"></path><path d="M291.609,153.278a1.832,1.832,0,0,0,.2,0,2.055,2.055,0,0,0,2.212-1.888,1.721,1.721,0,0,0,.006-.2,1.954,1.954,0,0,0-1.821-2.078,1.857,1.857,0,0,0-.211,0,2.076,2.076,0,0,0-2.185,1.961c0,.039,0,.077,0,.116A1.954,1.954,0,0,0,291.609,153.278Z" transform="translate(-22.5 -19.954)" fill="#0d2c89"></path><path d="M320.3,156.5c-.713.029-1.431,0-2.149,0-.489,0-.7-.181-.689-.684,0-1.075-.029-2.15,0-3.224a12.04,12.04,0,0,1,.293-2.37c.215-.864.85-1,1.466-.376.435.43.816.918,1.221,1.378a1.6,1.6,0,0,0,1.954.312,1.435,1.435,0,0,0,.718-1.7,2.27,2.27,0,0,0-1.719-1.641,5.5,5.5,0,0,0-6.439,2.535,10.065,10.065,0,0,0-1.1,4.885.978.978,0,0,1-.581.977,6.164,6.164,0,0,0-.977.533.643.643,0,0,0-.215.542c.034.142.278.293.454.337a2.033,2.033,0,0,0,.713,0c.454-.049.611.176.611.6,0,2.184,0,4.367-.034,6.551,0,1.026-.162,1.168-1.158,1.324-.4.063-.454.264-.45.591s.254.41.552.405c1.075-.029,2.145-.068,3.22-.068s2.047.034,3.068.073c.346,0,.454-.156.459-.459s-.039-.513-.4-.513c-.171,0-.337-.063-.488-.058-.777,0-1.119-.171-1.134-1.256s-.024-2.149-.024-3.224V158.6c0-.444.171-.6.611-.576.732.029,1.465,0,2.2,0,.449,0,.708-.41.689-.977C320.965,156.594,320.711,156.487,320.3,156.5Z" transform="translate(-22.5 -19.954)" fill="#0d2c89"></path><path d="M310.457,166.409c-1.09-.157-1.217-.3-1.222-1.407,0-1.842,0-3.684-.024-5.53a3.186,3.186,0,0,0-3.419-3.42,6.044,6.044,0,0,0-2.844.894c-.332.161-.6.288-.913.44v-1.114c0-.489-.24-.679-.689-.489-1.153.489-2.311.9-3.463,1.373a.92.92,0,0,0-.489.415c-.112.294.083.489.322.723s.626.6.626.914q.067,3.092,0,6.189c0,.821-.21.953-1.036,1.021-.43.039-.537.245-.528.635s.274.43.587.425h5.422c.323,0,.577,0,.591-.425s-.1-.6-.527-.635c-.587-.048-.8-.259-.806-.845v-6.189a1.083,1.083,0,0,1,.571-.977,1.845,1.845,0,0,1,2.956,1.441c.068,1.856.029,3.717,0,5.579,0,.767-.127.855-.88.977-.395.068-.425.322-.415.635s.171.425.489.425h5.627c.323,0,.489-.1.489-.435S310.882,166.467,310.457,166.409Z" transform="translate(-22.5 -19.954)" fill="#0d2c89"></path><path d="M332.274,157.83a6.78,6.78,0,0,0-7.377-1.2,5.809,5.809,0,0,0-3.419,6.5,5.032,5.032,0,0,0,4,4.4,8.718,8.718,0,0,0,2.477.245c3.312-.093,5.892-2.218,5.828-5.838A5.551,5.551,0,0,0,332.274,157.83Zm-4.695,8.632c-1.216,0-2.2-2.037-2.2-4.553s.63-4.533,2.2-4.553c1.216-.009,2.2,2.042,2.2,4.553S329.553,166.462,327.579,166.462Z" transform="translate(-22.5 -19.954)" fill="#0d2c89"></path><path d="M90.057,66.277a2.193,2.193,0,0,1,.4.184,1.007,1.007,0,0,1,.356.877v1.991H92.7a1.657,1.657,0,0,1,.613.132.613.613,0,0,1,.4.613q-.015.816,0,1.635a.632.632,0,0,1-.4.65,1.6,1.6,0,0,1-.6.132c-.57.018-1.144,0-1.714,0h-.2V77a2.929,2.929,0,0,0,.046.568,1.125,1.125,0,0,0,1.119.92c.23.021.463.024.7.027a.969.969,0,0,1,.972.966h0v.841a1.127,1.127,0,0,1-.92,1.156,6.943,6.943,0,0,1-3.536-.251,3.048,3.048,0,0,1-2.061-2.534A8.948,8.948,0,0,1,87,77.26V72.494H86.6a7.148,7.148,0,0,1-.853-.034.824.824,0,0,1-.754-.825,8.341,8.341,0,0,1,0-1,.791.791,0,0,1,.515-.739c.405-.153.825-.261,1.227-.386h.046c.178,0,.221-.111.218-.283V67.694a.832.832,0,0,1,.564-.807c.408-.153.834-.269,1.254-.392.282-.083.571-.15.856-.227Z" transform="translate(-22.5 -19.954)"></path><path d="M64.442,70.194a6.375,6.375,0,0,1,.613-.307,7.969,7.969,0,0,1,4.328-.84,4.066,4.066,0,0,1,2.049.693,3.093,3.093,0,0,1,1.226,2.122,7.448,7.448,0,0,1,.1,1.184V80.1a2.635,2.635,0,0,1-.019.307.879.879,0,0,1-.9.862h-.023q-.96.02-1.92,0a.885.885,0,0,1-.919-.851c0-.017,0-.034,0-.05V73.7a3.339,3.339,0,0,0-.073-.739,1.025,1.025,0,0,0-.976-.831,3.85,3.85,0,0,0-2.334.567.259.259,0,0,0-.079.2V80.1a2.541,2.541,0,0,1,0,.349.872.872,0,0,1-.918.823h0c-.641.016-1.282,0-1.919,0a.92.92,0,0,1-.966-.872c0-.022,0-.044,0-.066v-9.8a2.569,2.569,0,0,1-.012-.4.854.854,0,0,1,.847-.773c.279-.018.561,0,.84,0a.865.865,0,0,1,.754.39A5.324,5.324,0,0,1,64.442,70.194Z" transform="translate(-22.5 -19.954)"></path><path d="M77.645,76.573a1.492,1.492,0,0,0,.893,1.773,4.312,4.312,0,0,0,1.113.217,9.594,9.594,0,0,0,3.178-.306,1.781,1.781,0,0,1,.705-.031.963.963,0,0,1,.828.88,4.722,4.722,0,0,1,0,.951,1.1,1.1,0,0,1-.871.981,12.206,12.206,0,0,1-5.137.473,5.211,5.211,0,0,1-2.506-.951,4.653,4.653,0,0,1-1.662-2.543,10.475,10.475,0,0,1-.307-3.428,7.924,7.924,0,0,1,.549-2.69,4.329,4.329,0,0,1,3.236-2.7,7.82,7.82,0,0,1,3.815.064,3.922,3.922,0,0,1,2.8,2.714,9.8,9.8,0,0,1,.39,3.221v.38a.921.921,0,0,1-.834,1,.952.952,0,0,1-.151,0H77.645Zm-.018-2.356a.226.226,0,0,0,.049.019h3.239c.092,0,.119-.043.122-.126,0-.279.043-.561.028-.84a1.311,1.311,0,0,0-1.086-1.356,2.729,2.729,0,0,0-.693-.043,1.534,1.534,0,0,0-1.371.856,3.2,3.2,0,0,0-.288,1.481Z" transform="translate(-22.5 -19.954)"></path><circle cx="35.6" cy="58.98" r="2.521" fill="#fdcc0f"></circle><path d="M292.6,69.649a3.572,3.572,0,0,1,3.821-1.356c.224.04.339.071.3.366-.187.987-.339,1.983-.5,2.977-.041.261-.075.386-.421.305a2.568,2.568,0,0,0-3.2,2.57c0,1.949-.02,3.9,0,5.845,0,.458-.132.546-.552.532-.923-.03-1.848-.02-2.774,0-.285,0-.359-.088-.356-.366V68.734c0-.262.068-.34.339-.34.973,0,1.95.024,2.923,0,.339,0,.468.1.424.441A7.894,7.894,0,0,0,292.6,69.649Z" transform="translate(-22.5 -19.954)" fill="#163b4f"></path><path d="M309.785,68.557c0-.291-.061-.4-.38-.4-.956.02-1.916.02-2.875,0-.316,0-.455.071-.424.41s0,.607,0,1.017l-.393-.3A5.159,5.159,0,0,0,299.9,68.9a6.336,6.336,0,0,0-2.174,8.313,5.274,5.274,0,0,0,8.182,1.76c.054-.044.108-.071.173-.024a2.433,2.433,0,0,1-2.136,2.882,7.25,7.25,0,0,1-1.126.149,6.892,6.892,0,0,1-3.814-1.017c-.224-.122-.339-.156-.489.119-.362.7-.756,1.39-1.156,2.075-.142.24-.105.359.132.5a10.609,10.609,0,0,0,2.73,1.132,16.6,16.6,0,0,0,3.678.207c3.815-.261,5.856-2.437,5.859-6.252v-5C309.778,72,309.771,70.276,309.785,68.557Zm-3.54,5.808a2.983,2.983,0,0,1-2.126,2.75,2.783,2.783,0,0,1-3.35-2.374,2.812,2.812,0,1,1,5.476-.376Z" transform="translate(-22.5 -19.954)" fill="#163b4f"></path><path d="M287.716,73.033a6.623,6.623,0,0,0-5.506-4.95c-.38-.014-1.411-.038-1.74-.014-3.709.3-6.475,4.343-5.563,8.137a6.6,6.6,0,0,0,12.809-3.173Zm-4.91,4.407a2.131,2.131,0,0,1-3.015.036l-.036-.036a4.094,4.094,0,0,1-.02-5.557,2.143,2.143,0,0,1,3.028-.111c.038.036.076.073.111.111a3.873,3.873,0,0,1,1.058,2.774A3.729,3.729,0,0,1,282.806,77.44Z" transform="translate(-22.5 -19.954)" fill="#163b4f"></path><path d="M261.846,74.653a1.446,1.446,0,0,1,.428-1.071c.8-.807,1.6-1.617,2.417-2.411a1.5,1.5,0,0,1,2.114-.059c.02.019.04.039.059.059q1.211,1.17,2.374,2.374a1.5,1.5,0,0,1,.049,2.123c-.016.017-.032.034-.049.05q-1.17,1.207-2.374,2.373a1.491,1.491,0,0,1-2.107.1c-.035-.032-.068-.065-.1-.1-.8-.783-1.59-1.583-2.373-2.373A1.446,1.446,0,0,1,261.846,74.653Z" transform="translate(-22.5 -19.954)" fill="#f48320"></path><path d="M270.251,77.847c.085-2.149.065-4.235,0-6.35.085-.041.14.091.207.159.441.417.872.821,1.265,1.268a2.434,2.434,0,0,1,.464,2.713A8.037,8.037,0,0,1,270.251,77.847Z" transform="translate(-22.5 -19.954)" fill="#f48421"></path><path d="M259.165,74.942a3.385,3.385,0,0,1,0-.6,2.718,2.718,0,0,1,.823-1.594c.434-.42.858-.851,1.285-1.285-.037,2.15-.067,4.262.021,6.412C260.524,76.949,259.338,76.328,259.165,74.942Z" transform="translate(-22.5 -19.954)" fill="#f48421"></path><path d="M268.814,79.122a17.356,17.356,0,0,1-1.5,1.61,2.4,2.4,0,0,1-3.143-.054,19.65,19.65,0,0,1-1.435-1.536C264.718,79.207,266.83,79.258,268.814,79.122Z" transform="translate(-22.5 -19.954)" fill="#f48420"></path><path d="M265.315,68.069a2.627,2.627,0,0,1,.919,0,2.353,2.353,0,0,1,1.3.678c.461.437.922.882,1.454,1.39-2.237,0-4.343-.112-6.4.068A5.275,5.275,0,0,1,265.315,68.069Z" transform="translate(-22.5 -19.954)" fill="#f48420"></path></svg>