<svg xmlns="http://www.w3.org/2000/svg" viewBox="0 0 98.802 106.6"><title>presentational-wordpress-autoupdate</title><circle cx="78.202" cy="86" r="20.6" fill="#c8ebf0"/><path d="M100.4,79.7h0a1.372,1.372,0,0,0-1.6-1.4,1.424,1.424,0,0,0-1.4,1.6l.1,2.5a12.3,12.3,0,0,0-20,9h0A1.617,1.617,0,0,0,78.9,93H79a1.453,1.453,0,0,0,1.5-1.4,9.06,9.06,0,0,1,4.3-7.4,9.158,9.158,0,0,1,11.1.9L92.7,85a1.5,1.5,0,1,0,0,3h.1l6.4-.2a1.424,1.424,0,0,0,1.4-1.6Z" transform="translate(-14.598 -10.7)" fill="#25b8d2"/><path d="M99.2,91.6A1.617,1.617,0,0,0,97.6,93a9.06,9.06,0,0,1-4.3,7.4,9.158,9.158,0,0,1-11.1-.9l3.3-.1a1.5,1.5,0,0,0,0-3l-6.5.3a1.424,1.424,0,0,0-1.4,1.6l.2,6.5a1.453,1.453,0,0,0,1.5,1.4h0a1.391,1.391,0,0,0,1.4-1.5l-.1-2.5a12.222,12.222,0,0,0,7.7,2.7h0a12.239,12.239,0,0,0,12.3-11.7A1.424,1.424,0,0,0,99.2,91.6Z" transform="translate(-14.598 -10.7)" fill="#25b8d2"/><path d="M89.1,115.9a23.3,23.3,0,1,1,23.3-23.3h0A23.453,23.453,0,0,1,89.1,115.9Zm0-43.6a20.3,20.3,0,1,0,20.3,20.3h0A20.51,20.51,0,0,0,89.1,72.3Z" transform="translate(-14.598 -10.7)" fill="#25b8d2"/><path d="M88.5,36.2a1.493,1.493,0,0,0-.3-.7,14.29,14.29,0,0,0-1.4-2L67.2,13.3a8.72,8.72,0,0,0-6.1-2.6H23.5a9.161,9.161,0,0,0-8.9,9.4V93.6a9.289,9.289,0,0,0,8.9,9.4H62.4a1.5,1.5,0,1,0,0-3H23.5a6.153,6.153,0,0,1-5.9-6.4V20.1a6.215,6.215,0,0,1,5.9-6.4h3.3v2.7h3.5v3.5H26.8v3.5h3.5v3.5H26.8v3.5h3.5v3.5H26.8v3.5h3.5v3.5H26.8v3.5h3.5v3.5a3.543,3.543,0,0,0-3.5,3.5v3.5A3.433,3.433,0,0,0,28.7,58c-.7,2.6-1.9,7.3-1.9,9.2A5.228,5.228,0,0,0,32,72.4a5.164,5.164,0,0,0,5.2-5.2c0-1.9-1.2-6.5-1.9-9.2a3.433,3.433,0,0,0,1.9-3.1V51.4a3.543,3.543,0,0,0-3.5-3.5h3.5V44.4H33.7V40.9h3.5V37.4H33.7V33.9h3.5V30.4H33.7V26.9h3.5V23.4H33.7V19.9h3.5V16.4H33.7V13.7H61a7.719,7.719,0,0,1,1.5.2V28.6c0,6.5,2.9,9.4,9.5,9.4l13.9-.1a7.719,7.719,0,0,1,.2,1.5V62.7a1.5,1.5,0,1,0,3,0V39.4A5.924,5.924,0,0,0,88.5,36.2ZM32,68.9a1.793,1.793,0,0,1-1.8-1.8,74.493,74.493,0,0,1,1.7-8.2,45.942,45.942,0,0,1,1.7,8.2h0A1.531,1.531,0,0,1,32,68.9Zm1.8-17.5v3.5H30.3V51.4ZM72,35c-4.9,0-6.5-1.6-6.5-6.4V15.9L84,34.9Z" transform="translate(-14.598 -10.7)" fill="#25b8d2"/></svg>