<svg xmlns="http://www.w3.org/2000/svg" viewBox="0 0 144 144"><rect y="0.001" width="144" height="144" fill="#fff" opacity="0"/><path d="M128,34.182H16V108l68.856.112,14.376,13.1c3.362,3.362,7.135,4.551,10.135.971,2.878-3.438,1.709-6.169-1.613-9.507l-4.977-4.536,25.223.041Z" class="sgmaincolor"/><ellipse cx="25.524" cy="43.545" rx="3.161" ry="3.182"/><ellipse cx="34.433" cy="43.545" rx="3.161" ry="3.182"/><ellipse cx="43.326" cy="43.545" rx="3.219" ry="3.182"/><path d="M122.825,23.651a7.826,7.826,0,1,1,7.826-7.826A7.834,7.834,0,0,1,122.825,23.651Zm0-13.651a5.826,5.826,0,1,0,5.826,5.825A5.831,5.831,0,0,0,122.825,10Z"/><path d="M37,17H10a1,1,0,0,1,0-2H37a1,1,0,0,1,0,2Z"/><path d="M61,24H10a1,1,0,0,1,0-2H61a1,1,0,0,1,0,2Z"/><path d="M43.655,132.394a1.012,1.012,0,0,1-.354-.065l-11.655-4.413a1,1,0,0,1-.287-1.7l9.573-7.981a1,1,0,0,1,1.627.6l2.083,12.394a1,1,0,0,1-.987,1.166Zm-9.7-5.742,8.425,3.19-1.506-8.958Z"/><path d="M128,33H16a1,1,0,0,0-1,1v74a1,1,0,0,0,1,1H84.347l14.178,12.921c2.257,2.257,4.568,3.442,6.7,3.442.084,0,.167,0,.25,0a6.383,6.383,0,0,0,4.659-2.532h0c3.677-4.391,1.219-7.95-1.706-10.887L105.2,109H128a1,1,0,0,0,1-1V34A1,1,0,0,0,128,33Zm-5.713,47.332-8.909-7.637c-.011-.009-.024-.011-.035-.019s-.015-.022-.027-.03a.9.9,0,0,0-.123-.054.965.965,0,0,0-.224-.1,1.059,1.059,0,0,0-.16-.019.987.987,0,0,0-.249.007c-.025,0-.05,0-.075,0L93.653,77.192,97.162,59.65a1,1,0,0,0-.533-1.09L87.523,54H127V96.209l-12.046-4.38-1.07-16.068,7.1,6.089a1,1,0,1,0,1.3-1.518ZM127,35V52H83.426a.992.992,0,0,0-.5,0H17V35ZM17,68.644l11.815,5.371L23.943,92.288a1,1,0,0,0,.624,1.2l12.946,4.708L33.109,107H17Zm91.6,52.9a4.467,4.467,0,0,1-3.214,1.818c-1.615.073-3.51-.914-5.481-2.884L61.672,85.63A1,1,0,0,0,61,85.369a.991.991,0,0,0-.4.085c-.081.034-8.058,3.447-13.968-1.247-2.969-2.354-3.025-7.485-2.373-11.933l8.414,7.362a1,1,0,0,0,1.07.158l6.851-3.1a1,1,0,0,0,.557-.665l1.687-6.655a1,1,0,0,0-.263-.953l-7.428-7.43c4.964-1.628,9.024-1,12.08,1.865,5.55,5.213,1.43,14.469,1.387,14.562a1,1,0,0,0,.237,1.154l38.2,34.813C110.451,116.8,110.843,118.862,108.6,121.541ZM103.009,107l-32.3-29.436c.949-2.449,3.586-10.808-2.121-16.168-3.962-3.72-9.224-4.3-15.636-1.738a1,1,0,0,0-.336,1.636l8.135,8.137-1.429,5.638L53.5,77.706l-9.275-8.114a1,1,0,0,0-1.641.565c-1.474,7.72-.532,12.974,2.8,15.616,5.909,4.694,13.236,2.548,15.4,1.755L82.152,107H35.346L39.8,98.084a1,1,0,0,0-.553-1.387l-13.14-4.778,4.855-18.207a1,1,0,0,0-.552-1.168L17,66.447V54H83.055l12,6.007L91.383,78.35a1,1,0,0,0,1.222,1.166l19.2-4.8L113,92.612a1,1,0,0,0,.656.873L127,98.337V107Z"/></svg>