<svg xmlns="http://www.w3.org/2000/svg" viewBox="0 0 144 144"><g opacity="0"><rect width="144" height="144" fill="#fff"/></g><path d="M128.937,76.379l-4.905-14.857H107.681V41.59H31.6V61.522H44.886c3.656-.013,7.042,3.615,7.054,7.277l.007,1.977a4.293,4.293,0,0,0,3.683,4.057,2.405,2.405,0,0,1,.862,4.431,3.278,3.278,0,0,1-1.387.682H35.689c-1.713-.024-3.126-1.67-4.088-3.235V98.37H44.887V98.4a7.153,7.153,0,0,0,14.306-.025h56.666V98.4a7.153,7.153,0,0,0,14.306-.025h6.132V84.04Z" class="sgmaincolor"/><path d="M137,83.333l-7-7-5.043-15.129a1,1,0,0,0-.948-.684H108.681V41.59a1,1,0,0,0-1-1H31.6a1,1,0,0,0-1,1V60.522H20.36a1,1,0,0,0-.953,1.3c.508,1.605,2.388,6.838,5.267,6.838h.063c.527,1.507,1.969,4.856,4.646,5.871A18.191,18.191,0,0,0,30.6,77.01V98.37a1,1,0,0,0,1,1H43.953a8.145,8.145,0,0,0,8.086,7.164h.029a8.163,8.163,0,0,0,8.056-7.164h54.767a8.154,8.154,0,0,0,8.1,7.164h.029a8.149,8.149,0,0,0,8.068-7.164h5.209a1,1,0,0,0,1-1V84.04A1,1,0,0,0,137,83.333ZM38.754,72.805H30.643c-1.8-.256-3.1-2.49-3.772-4.143l6.774,0a1,1,0,0,0,0-2l-8.966,0h0c-.8,0-2.035-1.988-2.9-4.14H44.89a6.086,6.086,0,0,1,4.167,1.952A6.442,6.442,0,0,1,50.94,68.8l.007,1.978a5.27,5.27,0,0,0,4.529,5.042,1.434,1.434,0,0,1,1.176,1.414,1.569,1.569,0,0,1-.368,1.2,1.934,1.934,0,0,1-1.179.509H35.7c-1.639-.023-3.171-2.425-4.01-4.141h7.061a1,1,0,0,0,0-2ZM52.06,104.534h-.021a6.161,6.161,0,0,1-6.153-6.143,6.167,6.167,0,0,1,6.132-6.186h.022a6.165,6.165,0,0,1,.02,12.329ZM106.681,61.3a.575.575,0,0,0,0,.446V97.37H60.126a8.145,8.145,0,0,0-8.086-7.165h-.03a8.163,8.163,0,0,0-8.055,7.165H32.6V79.557a4.7,4.7,0,0,0,3.088,1.389H55.108a3.892,3.892,0,0,0,2.617-1.123,3.511,3.511,0,0,0,.925-2.665,3.413,3.413,0,0,0-2.865-3.313,3.3,3.3,0,0,1-2.838-3.072L52.94,68.8a8.459,8.459,0,0,0-2.439-5.7,7.9,7.9,0,0,0-5.592-2.569H32.6V42.59h74.08Zm20.683,41.415a6.126,6.126,0,0,1-4.354,1.82h-.021a6.165,6.165,0,0,1-.021-12.329h.022a6.165,6.165,0,0,1,4.374,10.509Zm7.931-5.344h-4.208a8.1,8.1,0,0,0-2.344-4.794,8.324,8.324,0,0,0-5.783-2.371,8.149,8.149,0,0,0-8.067,7.165h-6.212V62.522h14.612l4.45,13.353H114.8a1,1,0,1,0,0,2h13.915l6.579,6.579Z"/><path d="M14.387,39.181A6.961,6.961,0,0,1,8.154,29.144h0a6.961,6.961,0,1,1,6.233,10.037ZM9.949,30.027a4.961,4.961,0,1,0,6.641-2.256,4.929,4.929,0,0,0-6.641,2.256Z"/><path d="M3.058,27.259a1,1,0,0,1-.936-1.351,10.854,10.854,0,0,1,9.3-6.917,1,1,0,1,1,.133,2A8.943,8.943,0,0,0,4,26.61,1,1,0,0,1,3.058,27.259Z"/><path d="M23.778,95.439H4.206a1,1,0,1,1,0-2H23.778a1,1,0,1,1,0,2Z"/><path d="M23.778,87.518H13.006a1,1,0,0,1,0-2H23.778a1,1,0,0,1,0,2Z"/><path d="M128.828,36.523a.974.974,0,0,1-.132-.008l-15.159-2.01a1,1,0,0,1-.659-1.605l9.3-11.976a1.01,1.01,0,0,1,.922-.378,1,1,0,0,1,.79.605l5.86,13.986a1,1,0,0,1-.923,1.386Zm-13.3-3.772L127.233,34.3l-4.524-10.8Z"/></svg>