<svg xmlns="http://www.w3.org/2000/svg" viewBox="0 0 144 144"><g opacity="0"><rect x="0.5" y="0.5" width="143" height="143" fill="#fff"/><path d="M143,1V143H1V1H143m1-1H0V144H144V0Z"/></g><path d="M121.622,27.816a1,1,0,0,1-.979-1.206l3.007-14.269a1,1,0,0,1,1.639-.545l10.948,9.633a1,1,0,0,1-.345,1.7l-13.955,4.637A1.007,1.007,0,0,1,121.622,27.816Zm3.632-13.387L122.96,25.318l10.649-3.538Z"/><path d="M16.635,27.334a7.665,7.665,0,1,1,2.466-.41A7.688,7.688,0,0,1,16.635,27.334Zm.011-13.3a5.663,5.663,0,0,0-1.82.3,5.612,5.612,0,1,0,1.82-.3Z"/><path d="M4,14.038a1.015,1.015,0,0,1-.352-.063,1,1,0,0,1-.585-1.288A11.991,11.991,0,0,1,13.337,5.05a1,1,0,0,1,.133,2A10.089,10.089,0,0,0,4.936,13.39,1,1,0,0,1,4,14.038Z"/><path d="M128.445,79.945l-7.7-23.295H95.065V33.987H13.219V56.65s1.511.042,0-2.413v60.187H34.084c0,.013,0,.026,0,.039a11.233,11.233,0,0,0,22.466-.039h51.358c0,.013,0,.026,0,.039a11.233,11.233,0,0,0,22.465-.039H140V91.956Z" class="sgmaincolor"/><path d="M140.707,91.249,129.641,80.183,121.69,56.334a1,1,0,0,0-.948-.684H96.065V33.987a1,1,0,0,0-1-1H13.22a1,1,0,0,0-1,1v80.437a1,1,0,0,0,1,1H33.134a12.241,12.241,0,0,0,12.181,11.233h.044A12.245,12.245,0,0,0,57.5,115.424h49.453a12.213,12.213,0,0,0,12.183,11.233h.044a12.221,12.221,0,0,0,12.143-11.233H140a1,1,0,0,0,1-1V91.956A1,1,0,0,0,140.707,91.249ZM14.22,56.65V34.987H94.065v78.437H57.5A12.217,12.217,0,0,0,45.316,102.19h-.044a12.223,12.223,0,0,0-12.143,11.234H14.22Zm38.358,64.985a10.168,10.168,0,0,1-7.227,3.022h-.036a10.234,10.234,0,0,1-.035-20.467h.036a10.234,10.234,0,0,1,7.262,17.445Zm73.821,0a10.166,10.166,0,0,1-7.226,3.022h-.036a10.234,10.234,0,0,1-.035-20.467h.037a10.234,10.234,0,0,1,7.26,17.445Zm12.6-8.211h-7.679a12.215,12.215,0,0,0-12.182-11.234H119.1a12.223,12.223,0,0,0-12.144,11.234H96.065V57.65h23.956l7.358,22.073H106.3a1,1,0,0,0,0,2h22.053L139,92.37Z"/><path d="M55.492,97.534h0A27.091,27.091,0,0,0,74.028,50.668a.921.921,0,0,0-.087-.1c-.012-.01-.028-.011-.041-.02a27.006,27.006,0,0,0-18.407-7.232h0a27.007,27.007,0,0,0-18.409,7.233c-.012.009-.026.01-.038.019a1.042,1.042,0,0,0-.081.095A27.091,27.091,0,0,0,55.492,97.534ZM41.313,71.424a46.572,46.572,0,0,0,1.831,12.407,20.44,20.44,0,0,0-5.7,4.027,25.024,25.024,0,0,1-7.038-16.434Zm13.18,23.741c-3.576-.624-6.769-4.549-8.82-10.234a26.082,26.082,0,0,1,8.82-1.76ZM49.458,94.8A25.061,25.061,0,0,1,38.9,89.244a18.737,18.737,0,0,1,4.887-3.473A21.666,21.666,0,0,0,49.458,94.8Zm7.035.369V83.171a26.107,26.107,0,0,1,8.819,1.759C63.261,90.615,60.068,94.54,56.493,95.165Zm10.71-9.4a18.719,18.719,0,0,1,4.886,3.475A25.061,25.061,0,0,1,61.527,94.8,21.675,21.675,0,0,0,67.2,85.769Zm-10.71-4.6V71.424H67.672A44.386,44.386,0,0,1,65.945,83,28.306,28.306,0,0,0,56.493,81.171Zm0-11.747V59.3a28.355,28.355,0,0,0,9.349-1.791,44.111,44.111,0,0,1,1.83,11.918Zm0-12.127V45.684c3.507.613,6.648,4.4,8.7,9.91A26.2,26.2,0,0,1,56.493,57.3Zm5.034-11.245a25.072,25.072,0,0,1,10.362,5.379,19.1,19.1,0,0,1-4.8,3.334A21.4,21.4,0,0,0,61.527,46.052Zm-7.034-.369V57.3a26.144,26.144,0,0,1-8.7-1.711C47.848,50.079,50.987,46.3,54.493,45.683ZM43.9,54.754a19.3,19.3,0,0,1-4.8-3.327,25.061,25.061,0,0,1,10.358-5.375A21.4,21.4,0,0,0,43.9,54.754ZM54.493,59.3V69.424H43.313a44.151,44.151,0,0,1,1.829-11.918A28.368,28.368,0,0,0,54.493,59.3Zm0,12.127v9.747A28.286,28.286,0,0,0,45.04,83a44.394,44.394,0,0,1-1.727-11.579ZM73.539,87.857a20.429,20.429,0,0,0-5.7-4.026,46.58,46.58,0,0,0,1.83-12.407H80.577A25.015,25.015,0,0,1,73.539,87.857Zm7.038-18.433h-10.9a46.322,46.322,0,0,0-1.93-12.74A20.9,20.9,0,0,0,73.356,52.8,25.026,25.026,0,0,1,80.577,69.424ZM37.63,52.8a20.849,20.849,0,0,0,5.613,3.886,46.36,46.36,0,0,0-1.93,12.74h-10.9A25.027,25.027,0,0,1,37.63,52.8Z"/></svg>