<svg xmlns="http://www.w3.org/2000/svg" viewBox="0 0 87.3 99.205"><title>presentational-email-account</title><path d="M107.6,87.5a3.477,3.477,0,0,0-3.5-3.1h-36a3.4,3.4,0,0,0-3.5,3.1h0v23h0a3.477,3.477,0,0,0,3.5,3.1h36.1a3.4,3.4,0,0,0,3.5-3.1h0l-.1-23Z" transform="translate(-20.4 -14.4)" fill="#f5eac4"/><path d="M82.5,71a47.437,47.437,0,0,0-15.7-7.5,25.378,25.378,0,1,0-18.5-.1A37.329,37.329,0,0,0,20.4,99.5a13.4,13.4,0,0,0,13.4,13.4H52.6a1.5,1.5,0,0,0,0-3H33.8A10.392,10.392,0,0,1,23.4,99.5,34.356,34.356,0,0,1,57.7,65.2c7.2,0,16.4,3.3,23,8.3a1.461,1.461,0,0,0,2.1-.3A1.68,1.68,0,0,0,82.5,71ZM35.3,39.8A22.4,22.4,0,1,1,57.7,62.2,22.363,22.363,0,0,1,35.3,39.8Z" transform="translate(-20.4 -14.4)" fill="#eca03e"/><path d="M103.7,82.6a4.878,4.878,0,0,0-4.9-4.3H62.7a4.878,4.878,0,0,0-4.9,4.3v23.6a4.878,4.878,0,0,0,4.9,4.3H98.8a4.878,4.878,0,0,0,4.9-4.3V82.9C103.8,82.7,103.7,82.7,103.7,82.6Zm-41-1.3H98.8a1.852,1.852,0,0,1,1.7.9L81.4,96.3a1.715,1.715,0,0,1-1.7,0L61,82.2A1.682,1.682,0,0,1,62.7,81.3Zm38.1,24.5a1.96,1.96,0,0,1-2,1.7H62.7a1.947,1.947,0,0,1-2-1.7v-20l17.2,13c.1,0,.1.1.2.1a5.025,5.025,0,0,0,2.4.6,5.325,5.325,0,0,0,2.4-.6c.1,0,.1-.1.2-.1l17.7-13.1v20.1Z" transform="translate(-20.4 -14.4)" fill="#eca03e"/></svg>