<svg viewBox="0 0 117.11 99.1"><path d="M89.78,26.94H63.94a9.92,9.92,0,0,1-6-2L46.39,17.17a13.55,13.55,0,0,0-8.1-2.72H13.52a8.61,8.61,0,0,0-8.83,8.36V75.47a8.61,8.61,0,0,0,8.83,8.36H47.28v16.68h-3.7a6.53,6.53,0,0,0-6.34,5H24.54a1.5,1.5,0,1,0,0,3h12.7a6.53,6.53,0,0,0,6.34,5H54a6.53,6.53,0,0,0,6.34-5H73a1.5,1.5,0,0,0,0-3H60.32a6.53,6.53,0,0,0-6.34-5h-3.7V83.83H68.4a1.5,1.5,0,0,0,0-3H13.52a5.62,5.62,0,0,1-5.83-5.36V22.81a5.62,5.62,0,0,1,5.83-5.36H38.29a10.59,10.59,0,0,1,6.36,2.16l11.58,7.74a12.87,12.87,0,0,0,7.71,2.59H89.78a5.62,5.62,0,0,1,5.82,5.37v7.07a1.5,1.5,0,0,0,3,0V35.31A8.62,8.62,0,0,0,89.78,26.94ZM57.5,107A3.53,3.53,0,0,1,54,110.55H43.58a3.52,3.52,0,1,1,0-7H54A3.53,3.53,0,0,1,57.5,107Z" transform="translate(-4.69 -14.45)" fill="#834ba2"/><circle cx="95.24" cy="61.53" r="21.87" fill="#eddcf1"/><path d="M95.42,69.44a1.52,1.52,0,0,0,1,.43,1.48,1.48,0,0,0,1.07-.45,1.5,1.5,0,0,0,0-2.12l-5.91-5.83a1.51,1.51,0,0,0-1.1-.43,1.48,1.48,0,0,0-1.09.43L83.52,67.3a1.5,1.5,0,0,0,0,2.12,1.48,1.48,0,0,0,1.07.45,1.52,1.52,0,0,0,1-.43l3.28-3.24V82.35a1.5,1.5,0,0,0,3,0V66Z" transform="translate(-4.69 -14.45)" fill="#834ba2"/><path d="M109.74,75.46a1.5,1.5,0,0,0-2.12,0l-3.29,3.24V62.53a1.5,1.5,0,0,0-3,0V78.91l-3.5-3.46a1.5,1.5,0,0,0-2.11,2.13l5.91,5.84a1.48,1.48,0,0,0,1.05.43h.08a1.48,1.48,0,0,0,1-.43l5.91-5.84A1.5,1.5,0,0,0,109.74,75.46Z" transform="translate(-4.69 -14.45)" fill="#834ba2"/><path d="M96.62,95.24a23.8,23.8,0,1,1,23.8-23.8A23.82,23.82,0,0,1,96.62,95.24Zm0-44.6a20.8,20.8,0,1,0,20.8,20.8A20.82,20.82,0,0,0,96.62,50.64Z" transform="translate(-4.69 -14.45)" fill="#834ba2"/></svg>
