<svg xmlns="http://www.w3.org/2000/svg" viewBox="0 0 144 144"><g opacity="0"><rect width="144" height="144" fill="#fff"/></g><path d="M137.632,99.12a.992.992,0,0,1-.432-.1l-18.048-8.637a1,1,0,0,1-.133-1.728l16.5-11.31a1,1,0,0,1,1.562.748l1.544,19.948a1,1,0,0,1-1,1.077Zm-16.054-9.792L136.5,96.471l-1.276-16.5Z"/><path d="M15.257,32.534a1,1,0,0,1-1-1V8.083a1,1,0,0,1,2,0V31.534A1,1,0,0,1,15.257,32.534Z"/><path d="M26.513,20.809H4a1,1,0,0,1,0-2H26.513a1,1,0,0,1,0,2Z"/><path d="M105.4,18.736H37.539l-8.051,8.051v93.162L37.539,128H105.4l8.051-8.051V26.787ZM88.111,127.688H53.905v-16.47H88.111Z" class="sgmaincolor"/><path d="M114.156,26.08l-8.051-8.051a1,1,0,0,0-.707-.293H37.539a1,1,0,0,0-.707.293L28.781,26.08a1,1,0,0,0-.293.707v93.162a1,1,0,0,0,.293.707l8.051,8.051a1,1,0,0,0,.707.293H105.4a1,1,0,0,0,.707-.293l8.051-8.051a1,1,0,0,0,.293-.707V26.787A1,1,0,0,0,114.156,26.08ZM30.488,119.535v-7.817a.949.949,0,0,0,.15.03h22V127H37.953Zm46.306-7.317v14.47H66.143v-14.47Zm-12.651,14.47H54.905v-14.47h9.238Zm22.968,0H78.794v-14.47h8.317Zm25.338-7.153L104.983,127H89.146V111.748H112.3a.949.949,0,0,0,.15-.03Zm0-9.757a.949.949,0,0,0-.15-.03H30.638a.949.949,0,0,0-.15.03V27.2l7.465-7.465h67.03l7.466,7.465Z"/><polygon points="55.941 55.541 55.941 77.393 60.542 81.994 82.395 81.994 86.995 77.393 86.995 55.541 83.545 50.94 60.542 50.94 55.941 55.541" class="sgmaincolor"/><path d="M82.4,82.994H60.542a1,1,0,0,1-.707-.293l-4.6-4.6a1,1,0,0,1-.293-.707V55.541a1,1,0,0,1,.293-.707l4.6-4.6a1,1,0,0,1,.707-.293h23a1,1,0,0,1,.8.4l3.45,4.6a1,1,0,0,1,.2.6V77.394a1,1,0,0,1-.293.707l-4.6,4.6A1,1,0,0,1,82.4,82.994Zm-21.439-2H81.981L86,76.979v-21.1l-2.95-3.934H60.956l-4.015,4.015V76.979Z"/><path d="M72.043,43.889a1,1,0,0,1-1-1V34.838a1,1,0,1,1,2,0v8.051A1,1,0,0,1,72.043,43.889Z"/><path d="M60.542,43.889a1,1,0,0,1-1-1V34.838a1,1,0,1,1,2,0v8.051A1,1,0,0,1,60.542,43.889Z"/><path d="M83.545,43.889a1,1,0,0,1-1-1V34.838a1,1,0,0,1,2,0v8.051A1,1,0,0,1,83.545,43.889Z"/><path d="M103.1,68.042H95.047a1,1,0,0,1,0-2H103.1a1,1,0,0,1,0,2Z"/><path d="M103.1,56.541H95.047a1,1,0,0,1,0-2H103.1a1,1,0,1,1,0,2Z"/><path d="M103.1,79.544H95.047a1,1,0,0,1,0-2H103.1a1,1,0,0,1,0,2Z"/><path d="M47.891,68.042H39.839a1,1,0,0,1,0-2h8.052a1,1,0,0,1,0,2Z"/><path d="M47.891,56.541H39.839a1,1,0,0,1,0-2h8.052a1,1,0,0,1,0,2Z"/><path d="M47.891,79.544H39.839a1,1,0,0,1,0-2h8.052a1,1,0,1,1,0,2Z"/><path d="M72.043,99.1a1,1,0,0,1-1-1V90.045a1,1,0,0,1,2,0V98.1A1,1,0,0,1,72.043,99.1Z"/><path d="M60.542,99.1a1,1,0,0,1-1-1V90.045a1,1,0,1,1,2,0V98.1A1,1,0,0,1,60.542,99.1Z"/><path d="M83.545,99.1a1,1,0,0,1-1-1V90.045a1,1,0,0,1,2,0V98.1A1,1,0,0,1,83.545,99.1Z"/><path d="M101.372,35.838a5.026,5.026,0,1,1,5.026-5.026A5.031,5.031,0,0,1,101.372,35.838Zm0-8.051a3.026,3.026,0,1,0,3.026,3.025A3.029,3.029,0,0,0,101.372,27.787Z"/><path d="M42.715,35.838a5.026,5.026,0,1,1,5.025-5.026A5.03,5.03,0,0,1,42.715,35.838Zm0-8.051a3.026,3.026,0,1,0,3.025,3.025A3.029,3.029,0,0,0,42.715,27.787Z"/><path d="M101.372,103.54a5.026,5.026,0,1,1,5.026-5.026A5.031,5.031,0,0,1,101.372,103.54Zm0-8.052a3.026,3.026,0,1,0,3.026,3.026A3.029,3.029,0,0,0,101.372,95.488Z"/><path d="M42.715,103.54a5.026,5.026,0,1,1,5.025-5.026A5.031,5.031,0,0,1,42.715,103.54Zm0-8.052a3.026,3.026,0,1,0,3.025,3.026A3.029,3.029,0,0,0,42.715,95.488Z"/></svg>