<svg xmlns="http://www.w3.org/2000/svg" viewBox="0 0 96.738 112.886"><title>presentational-email-autoresponder</title><path d="M82.7,101.3c-3-1.1-11.3-4.2-12.4-4.7-1.3-.6-1.6-2.2.3-3s36.3-14.7,38-15.4c2.8-1.2,4.5.3,3.4,3.1-.7,1.9-15.1,36.8-15.5,37.9a1.836,1.836,0,0,1-2.3,1.2,1.818,1.818,0,0,1-1.1-1c-.6-1.6-5-12.2-6.4-15.9C86.3,102.4,84.1,101.8,82.7,101.3Z" transform="translate(-15.6 -7.6)" fill="#f5eac4"/><path d="M108.5,73.7c-1.1-1.1-2.9-1.2-4.8-.3-1.7.7-36,14.6-37.9,15.4a3.217,3.217,0,0,0-2.3,2.9,2.96,2.96,0,0,0,1.9,2.8c1.1.5,11.3,4.3,12.5,4.8a1.487,1.487,0,1,0,1-2.8c-4.5-1.7-11.5-4.4-12.3-4.7h-.1c.1-.1.2-.1.3-.2,1.9-.8,36.4-14.7,38.1-15.4.9-.4,1.5-.3,1.6-.2s.2.5-.1,1.4c-.7,1.9-15.4,37.6-15.5,37.9a1,1,0,0,1-.5.4c-.1,0-.1,0-.2-.1-.5-1.3-4.8-11.8-6-14.9l16.4-16.6.1-.1a1.487,1.487,0,0,0-2.2-2L81.2,99a1.5,1.5,0,0,0-.4,1.1v10a1.538,1.538,0,0,0,1.5,1.5h0a1.538,1.538,0,0,0,1.5-1.5v-2.3c1.5,3.8,3.2,7.9,3.5,8.7a3.173,3.173,0,0,0,3,2h0a3.476,3.476,0,0,0,3.2-2.2c.1-.3,14.8-35.9,15.6-37.9C109.8,76.4,109.6,74.7,108.5,73.7Z" transform="translate(-15.6 -7.6)" fill="#eca03e"/><path d="M79,47.4H39.8a1.5,1.5,0,0,1,0-3H79a1.5,1.5,0,0,1,0,3Z" transform="translate(-15.6 -7.6)" fill="#eca03e"/><path d="M79,58.4H39.8a1.5,1.5,0,0,1,0-3H79a1.5,1.5,0,0,1,0,3Z" transform="translate(-15.6 -7.6)" fill="#eca03e"/><path d="M101.8,45.7,94,39.9h0a4.875,4.875,0,0,0-.7-.3V34a8.025,8.025,0,0,0-.6-3,1.493,1.493,0,0,0-.3-.7A6.228,6.228,0,0,0,91,28.5L73.1,10a8.018,8.018,0,0,0-5.7-2.4H33a8.5,8.5,0,0,0-8.3,8.7V39.6a1.135,1.135,0,0,0-.8.3l-7.2,5.4a1,1,0,0,0-.5.4h0l-.1.1-.1.1-.1.1-.1.1-.1.1a.1.1,0,0,1-.1.1v.5h0V91.2A8.026,8.026,0,0,0,23.8,99H59.5a1.5,1.5,0,0,0,0-3H23.8a4.956,4.956,0,0,1-5.2-4.8V49.5l6.5,5,.3.3L54.3,76.9c.1,0,.1.1.2.1a8.017,8.017,0,0,0,4,1.1,8.683,8.683,0,0,0,3.9-1c.1,0,.1-.1.2-.1L99.3,49.8V69.1a1.5,1.5,0,0,0,3,0V46.9A1.083,1.083,0,0,0,101.8,45.7ZM24.7,50.3l-4.8-3.7L24.7,43ZM71.6,12.8l16.5,17-10.7.1c-4.4,0-5.8-1.4-5.8-5.7ZM61,74.4a5.3,5.3,0,0,1-4.9,0l-6.4-4.9h18ZM90.3,52.6,71.6,66.5c-.1,0-.3-.1-.4-.1H46.5a1.268,1.268,0,0,0-.6.1L27.7,52.6V16.3A5.486,5.486,0,0,1,33,10.6H67.4a5.019,5.019,0,0,1,1.2.2V24.2c0,6,2.7,8.7,8.8,8.7L90,32.8a5.019,5.019,0,0,1,.2,1.2V52.6Zm3-2.2V43.1l4.9,3.6Z" transform="translate(-15.6 -7.6)" fill="#eca03e"/></svg>