<svg xmlns="http://www.w3.org/2000/svg" viewBox="0 0 96 96"><g opacity="0"><rect width="96" height="96" fill="#fff"/></g><rect x="3" y="30" width="91" height="40" class="sgmaincolor"/><rect x="3" y="30" width="91" height="40" class="sgmaincolor"/><path d="M94,71H3a1,1,0,0,1-1-1V30a1,1,0,0,1,1-1H94a1,1,0,0,1,1,1V70A1,1,0,0,1,94,71ZM4,69H93V31H4Z"/><rect x="2.979" y="29.872" width="91.021" height="40.128" class="sgmaincolor"/><path d="M94,28.872H84.234V24a1,1,0,0,0-2,0v4.872H75.426V24a1,1,0,0,0-2,0v4.872H66.617V24a1,1,0,0,0-2,0v4.872H57.809V24a1,1,0,0,0-2,0v4.872H49V24a1,1,0,0,0-2,0v4.872H40.192V24a1,1,0,0,0-2,0v4.872H31.383V24a1,1,0,0,0-2,0v4.872H22.574V24a1,1,0,0,0-2,0v4.872H13.766V24a1,1,0,0,0-2,0v4.872H2.979a1,1,0,0,0-1,1V70a1,1,0,0,0,1,1h8.787v4.872a1,1,0,0,0,2,0V71h6.808v4.872a1,1,0,0,0,2,0V71h6.809v4.872a1,1,0,0,0,2,0V71h6.809v4.872a1,1,0,0,0,2,0V71H47v4.872a1,1,0,0,0,2,0V71h6.809v4.872a1,1,0,0,0,2,0V71h6.808v4.872a1,1,0,0,0,2,0V71h6.809v4.872a1,1,0,0,0,2,0V71h6.808v4.872a1,1,0,0,0,2,0V71H94a1,1,0,0,0,1-1V29.872A1,1,0,0,0,94,28.872ZM93,69H3.979V30.872H93Z"/><path d="M16.758,50.923h3.829v3.245H16.758v4.391H13.22V54.168H9.38V50.923h3.84V46.655h3.538Z"/><path d="M29.967,50.439h1.785a1.856,1.856,0,0,0,2.123-2.077,1.794,1.794,0,0,0-.506-1.319,1.914,1.914,0,0,0-1.425-.512,2.051,2.051,0,0,0-1.309.438,1.337,1.337,0,0,0-.557,1.089H26.294a3.865,3.865,0,0,1,.719-2.3,4.743,4.743,0,0,1,1.993-1.579,6.836,6.836,0,0,1,2.8-.567A6.7,6.7,0,0,1,36.1,44.858a4.143,4.143,0,0,1,1.561,3.425,3.453,3.453,0,0,1-.645,1.994A4.616,4.616,0,0,1,35.133,51.8a4.4,4.4,0,0,1,2.043,1.431,3.774,3.774,0,0,1,.742,2.375,4.22,4.22,0,0,1-1.685,3.5,6.992,6.992,0,0,1-4.424,1.315,7.257,7.257,0,0,1-2.983-.613,4.675,4.675,0,0,1-2.083-1.7,4.419,4.419,0,0,1-.708-2.466h3.808a1.7,1.7,0,0,0,.606,1.3,2.145,2.145,0,0,0,1.495.551,2.24,2.24,0,0,0,1.593-.556,1.857,1.857,0,0,0,.6-1.421,2.174,2.174,0,0,0-.617-1.752,2.581,2.581,0,0,0-1.707-.516H29.967Z"/><path d="M50.547,60.2H39.137V57.728L44.393,52.2q1.943-2.214,1.942-3.516a2.442,2.442,0,0,0-.46-1.6,1.645,1.645,0,0,0-1.337-.551,1.662,1.662,0,0,0-1.4.736A3.026,3.026,0,0,0,42.6,49.1H38.8a5.364,5.364,0,0,1,.753-2.779,5.271,5.271,0,0,1,2.089-1.994,6.2,6.2,0,0,1,2.987-.719,6.1,6.1,0,0,1,4.082,1.225,4.366,4.366,0,0,1,1.433,3.514,5.1,5.1,0,0,1-.36,1.882,8.246,8.246,0,0,1-1.118,1.92,28.2,28.2,0,0,1-2.442,2.69l-2.111,2.437h6.435Z"/><path d="M70.426,58.177a6.322,6.322,0,0,1-2.661,1.628,11.454,11.454,0,0,1-3.842.619,6.849,6.849,0,0,1-5.132-1.966,7.952,7.952,0,0,1-2.055-5.469l-.011-1.415a9.755,9.755,0,0,1,.853-4.217,6.336,6.336,0,0,1,2.443-2.774,6.9,6.9,0,0,1,3.677-.972,7.245,7.245,0,0,1,4.746,1.4,5.923,5.923,0,0,1,1.971,4.171h-3.8a3.094,3.094,0,0,0-.875-1.954,2.834,2.834,0,0,0-1.91-.584A2.574,2.574,0,0,0,61.542,47.9a6.724,6.724,0,0,0-.819,3.594v.988a6.575,6.575,0,0,0,.837,3.679,2.959,2.959,0,0,0,2.633,1.229,3.309,3.309,0,0,0,2.291-.685V54.168H63.743V51.462h6.683Z"/><path d="M72.028,60.2V43.847H77.9A8.315,8.315,0,0,1,82.7,45a4.272,4.272,0,0,1,1.061,5.525,3.393,3.393,0,0,1-1.718,1.325,3.454,3.454,0,0,1,1.966,1.258,3.662,3.662,0,0,1,.685,2.246,4.328,4.328,0,0,1-1.522,3.611,7.249,7.249,0,0,1-4.509,1.23Zm3.942-9.535h2.055a2.914,2.914,0,0,0,1.841-.473,1.675,1.675,0,0,0,.551-1.363,1.76,1.76,0,0,0-.6-1.492A3.183,3.183,0,0,0,77.9,46.88H75.97Zm0,2.583v3.92h2.582a2.46,2.46,0,0,0,1.641-.489,1.717,1.717,0,0,0,.572-1.376,1.813,1.813,0,0,0-2.033-2.055Z"/></svg>