<svg xmlns="http://www.w3.org/2000/svg" viewBox="0 0 96 96"><g opacity="0"><rect width="96" height="96" fill="#fff"/></g><rect x="3" y="30" width="91" height="40" class="sgmaincolor"/><path d="M94,71H3a1,1,0,0,1-1-1V30a1,1,0,0,1,1-1H94a1,1,0,0,1,1,1V70A1,1,0,0,1,94,71ZM4,69H93V31H4Z"/><rect x="2.979" y="29.872" width="91.021" height="40.128" class="sgmaincolor"/><path d="M94,28.872H84.234V24a1,1,0,0,0-2,0v4.872H75.426V24a1,1,0,0,0-2,0v4.872H66.617V24a1,1,0,0,0-2,0v4.872H57.809V24a1,1,0,0,0-2,0v4.872H49V24a1,1,0,0,0-2,0v4.872H40.192V24a1,1,0,0,0-2,0v4.872H31.383V24a1,1,0,0,0-2,0v4.872H22.574V24a1,1,0,0,0-2,0v4.872H13.766V24a1,1,0,0,0-2,0v4.872H2.979a1,1,0,0,0-1,1V70a1,1,0,0,0,1,1h8.787v4.872a1,1,0,0,0,2,0V71h6.808v4.872a1,1,0,0,0,2,0V71h6.809v4.872a1,1,0,0,0,2,0V71h6.809v4.872a1,1,0,0,0,2,0V71H47v4.872a1,1,0,0,0,2,0V71h6.809v4.872a1,1,0,0,0,2,0V71h6.808v4.872a1,1,0,0,0,2,0V71h6.809v4.872a1,1,0,0,0,2,0V71h6.808v4.872a1,1,0,0,0,2,0V71H94a1,1,0,0,0,1-1V29.872A1,1,0,0,0,94,28.872ZM93,69H3.979V30.872H93Z"/><path d="M16.758,50.923h3.829v3.245H16.758v4.391H13.22V54.168H9.38V50.923h3.84V46.655h3.538Z"/><path d="M34.9,60.2H31.1V48.115L27.372,49.2V46.329l7.177-2.482H34.9Z"/><path d="M48.278,43.611v2.977H48.11A5.683,5.683,0,0,0,44.622,47.6a4.29,4.29,0,0,0-1.678,2.824,4.425,4.425,0,0,1,3.234-1.257,4.13,4.13,0,0,1,3.381,1.549,6.255,6.255,0,0,1,1.258,4.066,5.717,5.717,0,0,1-.737,2.863,5.25,5.25,0,0,1-2.054,2.039,5.914,5.914,0,0,1-2.926.736,6.112,6.112,0,0,1-3.112-.792,5.441,5.441,0,0,1-2.132-2.263,7.444,7.444,0,0,1-.787-3.392V52.461a9.427,9.427,0,0,1,1.084-4.542,7.843,7.843,0,0,1,3.093-3.162,8.847,8.847,0,0,1,4.459-1.146Zm-3.415,8.457a2.169,2.169,0,0,0-1.257.348,2.216,2.216,0,0,0-.752.853V54.4q0,3.1,2.144,3.1a1.742,1.742,0,0,0,1.444-.776,3.159,3.159,0,0,0,.578-1.942,3.106,3.106,0,0,0-.589-1.96A1.888,1.888,0,0,0,44.863,52.068Z"/><path d="M70.426,58.177a6.322,6.322,0,0,1-2.661,1.628,11.454,11.454,0,0,1-3.842.619,6.849,6.849,0,0,1-5.132-1.966,7.952,7.952,0,0,1-2.055-5.469l-.011-1.415a9.755,9.755,0,0,1,.853-4.217,6.336,6.336,0,0,1,2.443-2.774,6.9,6.9,0,0,1,3.677-.972,7.245,7.245,0,0,1,4.746,1.4,5.923,5.923,0,0,1,1.971,4.171h-3.8a3.094,3.094,0,0,0-.875-1.954,2.834,2.834,0,0,0-1.91-.584A2.574,2.574,0,0,0,61.542,47.9a6.724,6.724,0,0,0-.819,3.594v.988a6.575,6.575,0,0,0,.837,3.679,2.959,2.959,0,0,0,2.633,1.229,3.309,3.309,0,0,0,2.291-.685V54.168H63.743V51.462h6.683Z"/><path d="M72.028,60.2V43.847H77.9A8.315,8.315,0,0,1,82.7,45a4.272,4.272,0,0,1,1.061,5.525,3.393,3.393,0,0,1-1.718,1.325,3.454,3.454,0,0,1,1.966,1.258,3.662,3.662,0,0,1,.685,2.246,4.328,4.328,0,0,1-1.522,3.611,7.249,7.249,0,0,1-4.509,1.23Zm3.942-9.535h2.055a2.914,2.914,0,0,0,1.841-.473,1.675,1.675,0,0,0,.551-1.363,1.76,1.76,0,0,0-.6-1.492A3.183,3.183,0,0,0,77.9,46.88H75.97Zm0,2.583v3.92h2.582a2.46,2.46,0,0,0,1.641-.489,1.717,1.717,0,0,0,.572-1.376,1.813,1.813,0,0,0-2.033-2.055Z"/></svg>