<svg xmlns="http://www.w3.org/2000/svg" viewBox="0 0 23.072 32"><path d="M2.536 6.055V31.7a.321.321 0 0 0 .292.3H22.78a.322.322 0 0 0 .292-.3V6.02a.268.268 0 0 0-.268-.268h-4.721v-.98a.32.32 0 0 0-.292-.3h-2.388l-.088-.2a2.695 2.695 0 0 0-5.026 0l-.087.2H7.814a.32.32 0 0 0-.292.3v.982h-4.7a.329.329 0 0 0-.286.301z" fill="#f5f1e5"></path><path d="M0 3.506v25.645a.3.3 0 0 0 .3.3h20.517a.3.3 0 0 0 .3-.3V3.523a.319.319 0 0 0-.319-.319h-4.81v-.98a.3.3 0 0 0-.3-.3h-2.452l-.09-.2a2.8 2.8 0 0 0-5.167 0l-.09.2H5.43a.3.3 0 0 0-.3.3v.982H.301a.332.332 0 0 0-.301.3zm5.73-.982h2.344a.32.32 0 0 0 .29-.23 2.269 2.269 0 0 1 4.388 0 .321.321 0 0 0 .292.235h2.343v2.6H5.73zM.601 3.806h4.528v1.623a.326.326 0 0 0 .3.3h10.259a.326.326 0 0 0 .3-.3V3.806h4.528v25.045H.601z" fill="#c39f6a"></path><path d="M7.698 15.03h-1.09a.683.683 0 0 0-.682.681v4.9a.683.683 0 0 0 .682.681h7.9a.682.682 0 0 0 .681-.681v-4.9a.682.682 0 0 0-.681-.681h-6.81zm3.538 3.232v.719a.682.682 0 0 1-1.363 0v-.719a.935.935 0 0 1-.272-.643.954.954 0 1 1 1.907 0 .935.935 0 0 1-.272.643z" fill="#c39f6a"></path><path d="M13.42 15.03v-1.771a2.861 2.861 0 1 0-5.722 0v1.771h.738V13.2a2.12 2.12 0 1 1 4.24 0v1.83z" fill="#c39f6a"></path></svg>