<svg xmlns="http://www.w3.org/2000/svg" viewBox="0 0 32 27.499"><path d="M31.755 23.437a2.776 2.776 0 0 0-.293-.587 1.039 1.039 0 0 0-.636-.489.448.448 0 0 0-.046-.012l.095-.086a2.074 2.074 0 0 1-.343-.881v-.245a4.91 4.91 0 0 0-.342-1.761 15.436 15.436 0 0 0-1.615-2.593L27.5 15.119a1.234 1.234 0 0 0-1.663-.342 1.291 1.291 0 0 0-.4.419 1.255 1.255 0 0 0-1.415-.077 1.288 1.288 0 0 0-.458.534 1.231 1.231 0 0 0-.265-.095 11.732 11.732 0 0 0 .577-3.619 11.939 11.939 0 1 0-12.5 11.924 3.5 3.5 0 0 0 .369.039h.312a3.346 3.346 0 0 0 .361-.038 11.757 11.757 0 0 0 8.865-4.532l.352.535a1.219 1.219 0 0 0-.495.2 1.235 1.235 0 0 0-.343 1.664l.023.034-.023.014 1.223 1.86a2.741 2.741 0 0 0 2.153 1.223 1.346 1.346 0 0 1 1.077.587l.227.34a.848.848 0 0 0-.032.1.954.954 0 0 0 .2.782 1.853 1.853 0 0 1 .343.392 2.3 2.3 0 0 1 .342.44l.587-.342a4.992 4.992 0 0 0-.391-.538 3.907 3.907 0 0 0-.294-.392.533.533 0 0 1-.049-.245c0-.049 0-.1.049-.1l4.3-2.837h.1c.1 0 .147.049.2.146l.2.392a3.119 3.119 0 0 0 .343.587L32 23.78a8.424 8.424 0 0 1-.245-.343zm-8.62-11.841h-5.017a20.7 20.7 0 0 0-.594-4.688 1.612 1.612 0 0 0 .922-1.477 1.664 1.664 0 0 0-.061-.467 9.121 9.121 0 0 0 1.36-1.043 11.173 11.173 0 0 1 3.39 7.675zM12.362 23.131h-.032v-4.15a1.611 1.611 0 0 0 1.152-1.063 12.594 12.594 0 0 1 2.789.775c-.944 2.545-2.379 4.168-3.909 4.438zm-4.843-4.41a11.055 11.055 0 0 1 2.886-.807 1.608 1.608 0 0 0 1.195 1.082v4.139h-.166c-1.541-.275-2.97-1.886-3.915-4.414zM17.994 4.319a1.546 1.546 0 0 0-1.44-.474 8.317 8.317 0 0 0-2.015-2.8 11.2 11.2 0 0 1 4.655 2.374 11.657 11.657 0 0 1-1.2.9zm-.918 1.944a.363.363 0 0 1-.244.049.857.857 0 0 1-.832-.539.827.827 0 0 1-.049-.342.857.857 0 0 1 .538-.832.834.834 0 0 1 .343-.049.941.941 0 0 1 .783.441 1.418 1.418 0 0 1 .1.44.84.84 0 0 1-.639.832zm-1.859-.832v.122a10.9 10.9 0 0 1-2.888.5V.776c1.339.164 2.585 1.34 3.543 3.343a1.6 1.6 0 0 0-.655 1.312zM11.6.791v5.268a11.132 11.132 0 0 1-3.983-.838c.957-2.543 2.412-4.172 3.983-4.43zM6.945 4.915a10.663 10.663 0 0 1-2.283-1.477A11.186 11.186 0 0 1 9.524 1a9.328 9.328 0 0 0-2.579 3.915zm.43 1.012a11.915 11.915 0 0 0 4.221.913v4.756H7.647a1.553 1.553 0 0 0-1.088-1.2 18.627 18.627 0 0 1 .816-4.469zm-1.357 5.131h.049a.881.881 0 1 1 0 1.761h-.049a.867.867 0 0 1-.831-.88.836.836 0 0 1 .831-.881zm1.607 1.272H11.6v3.519a1.634 1.634 0 0 0-1.247 1.33 12.413 12.413 0 0 0-3.067.842 18.635 18.635 0 0 1-.822-4.51 1.665 1.665 0 0 0 1.161-1.181zm4.314 5.969a.881.881 0 1 1 0-1.761.889.889 0 0 1 .881.93.837.837 0 0 1-.881.831zm4.573-.318a11.934 11.934 0 0 0-2.984-.808 1.632 1.632 0 0 0-1.2-1.314V12.33h5.057a20.243 20.243 0 0 1-.873 5.651zm-4.182-6.385V6.835a9.636 9.636 0 0 0 3.1-.575 1.591 1.591 0 0 0 1.37.789 19.964 19.964 0 0 1 .581 4.552zm-8.2-7.669A12.979 12.979 0 0 0 6.7 5.618a19.309 19.309 0 0 0-.878 4.731 1.634 1.634 0 0 0-1.33 1.247H.743a11.175 11.175 0 0 1 3.383-7.669zm-3.382 8.4h3.76a1.636 1.636 0 0 0 1.212 1.185 19.345 19.345 0 0 0 .885 4.82 12.919 12.919 0 0 0-2.456 1.64A11.174 11.174 0 0 1 .744 12.33zm3.947 8.135a11.006 11.006 0 0 1 2.16-1.436 9.361 9.361 0 0 0 2.4 3.784 11.2 11.2 0 0 1-4.564-2.345zm12.251-1.473a11.31 11.31 0 0 1 2.243 1.473 11.127 11.127 0 0 1-4.689 2.387 9.359 9.359 0 0 0 2.442-3.857zm2.783.976a13.045 13.045 0 0 0-2.54-1.682 20.946 20.946 0 0 0 .936-5.956h5.005a11.5 11.5 0 0 1-.613 3.3 1.078 1.078 0 0 0-.152.076 1.335 1.335 0 0 0-.346.336l-.633-.972a1.234 1.234 0 0 0-1.663-.342 1.214 1.214 0 0 0-.539.783 1.254 1.254 0 0 0 .2.929l1.475 2.239a11.215 11.215 0 0 1-1.134 1.292zm6.257 5.231l-.1-.147a2.092 2.092 0 0 0-1.664-.93 2.007 2.007 0 0 1-1.478-.776l.01-.007-1.321-2.006a.481.481 0 0 1 .147-.685.489.489 0 0 1 .636.147l.734 1.076.636-.391-.734-1.077a1.341 1.341 0 0 0-.242-.266l-2.694-4.137a.5.5 0 0 1 .832-.538l1.261 1.936.011.021.1.147 1.369 2.1.636-.392-.444-.682-1.028-1.615a.4.4 0 0 1-.048-.342c0-.1.1-.2.146-.343a.489.489 0 0 1 .636.147l1.028 1.615.05-.031.439.667.538-.489-1.223-1.86a.489.489 0 0 1 .147-.636.481.481 0 0 1 .685.147l1.223 1.859.032-.019.311.46.636-.392-1.126-1.663a.406.406 0 0 1-.049-.343.4.4 0 0 1 .2-.293.481.481 0 0 1 .685.146l1.126 1.664a12.96 12.96 0 0 1 1.516 2.4 4.64 4.64 0 0 1 .294 1.565v.294a2.785 2.785 0 0 0 .268.916.176.176 0 0 0-.023.014z" fill="#cdb184"></path><path fill="#cdb184" d="M14.336 8.758h.734v.734h-.734zm-5.48 0h.734v.734h-.734zm5.48 5.285h.734v.734h-.734zm-5.48 0h.734v.734h-.734z"></path></svg>