<svg xmlns="http://www.w3.org/2000/svg" width="210" height="208.726" viewBox="0 0 210 208.726">
  <polygon points="130.785 57.677 129.498 59.156 130.785 60.636 132.072 59.156 130.785 57.677" fill="#dcdcdc"/>
  <path d="M184.26,83.06l-.09.1c-.47-.44-.96-.87-1.45-1.28l.26-.3Z" transform="translate(-45 -15.637)" fill="#dcdcdc"/>
  <polygon points="137.977 57.677 136.689 59.156 137.977 60.636 139.264 59.156 137.977 57.677" fill="#dcdcdc"/>
  <path d="M191.46,91.32l-.11.13c-.33-.47-.67-.94-1.01-1.41Z" transform="translate(-45 -15.637)" fill="#dcdcdc"/>
  <polygon points="145.168 65.941 143.881 67.421 145.168 68.9 146.455 67.421 145.168 65.941" fill="#dcdcdc"/>
  <polygon points="145.168 57.677 143.881 59.156 145.168 60.636 146.455 59.156 145.168 57.677" fill="#dcdcdc"/>
  <polygon points="152.359 82.47 151.072 83.949 152.359 85.429 153.648 83.949 152.359 82.47" fill="#dcdcdc"/>
  <polygon points="152.359 74.205 151.072 75.685 152.359 77.164 153.648 75.685 152.359 74.205" fill="#dcdcdc"/>
  <polygon points="152.359 65.941 151.072 67.421 152.359 68.9 153.648 67.421 152.359 65.941" fill="#dcdcdc"/>
  <polygon points="153.647 59.156 152.359 57.677 151.072 59.156 152.359 60.636 153.647 59.156" fill="#dcdcdc"/>
  <polygon points="159.551 90.734 158.264 92.213 159.551 93.693 160.838 92.213 159.551 90.734" fill="#dcdcdc"/>
  <polygon points="159.551 82.47 158.264 83.949 159.551 85.429 160.838 83.949 159.551 82.47" fill="#dcdcdc"/>
  <polygon points="159.551 74.205 158.264 75.685 159.551 77.164 160.838 75.685 159.551 74.205" fill="#dcdcdc"/>
  <polygon points="159.551 65.941 158.264 67.421 159.551 68.9 160.838 67.421 159.551 65.941" fill="#dcdcdc"/>
  <polygon points="159.551 57.677 158.264 59.156 159.551 60.636 160.838 59.156 159.551 57.677" fill="#dcdcdc"/>
  <polygon points="166.742 90.734 165.455 92.213 166.742 93.693 168.029 92.213 166.742 90.734" fill="#dcdcdc"/>
  <polygon points="166.742 82.47 165.455 83.949 166.742 85.429 168.029 83.949 166.742 82.47" fill="#dcdcdc"/>
  <polygon points="166.742 74.205 165.455 75.685 166.742 77.164 168.029 75.685 166.742 74.205" fill="#dcdcdc"/>
  <polygon points="166.742 65.941 165.455 67.421 166.742 68.9 168.029 67.421 166.742 65.941" fill="#dcdcdc"/>
  <polygon points="166.742 57.677 165.455 59.156 166.742 60.636 168.029 59.156 166.742 57.677" fill="#dcdcdc"/>
  <polygon points="173.934 93.693 175.221 92.213 173.934 90.734 172.645 92.213 173.934 93.693" fill="#dcdcdc"/>
  <polygon points="173.934 85.429 175.221 83.949 173.934 82.47 172.645 83.949 173.934 85.429" fill="#dcdcdc"/>
  <polygon points="173.934 77.164 175.221 75.685 173.934 74.205 172.645 75.685 173.934 77.164" fill="#dcdcdc"/>
  <polygon points="173.934 68.9 175.221 67.421 173.934 65.941 172.645 67.421 173.934 68.9" fill="#dcdcdc"/>
  <polygon points="172.646 59.156 173.934 60.636 175.221 59.156 173.934 57.677 172.646 59.156" fill="#dcdcdc"/>
  <polygon points="181.125 90.734 179.839 92.213 181.125 93.693 182.412 92.213 181.125 90.734" fill="#dcdcdc"/>
  <polygon points="181.125 82.47 179.839 83.949 181.125 85.429 182.412 83.949 181.125 82.47" fill="#dcdcdc"/>
  <polygon points="181.125 74.205 179.839 75.685 181.125 77.164 182.412 75.685 181.125 74.205" fill="#dcdcdc"/>
  <polygon points="181.125 65.941 179.839 67.421 181.125 68.9 182.412 67.421 181.125 65.941" fill="#dcdcdc"/>
  <polygon points="181.125 57.677 179.839 59.156 181.125 60.636 182.412 59.156 181.125 57.677" fill="#dcdcdc"/>
  <polygon points="188.316 90.734 187.03 92.213 188.316 93.693 189.606 92.213 188.316 90.734" fill="#dcdcdc"/>
  <polygon points="188.316 82.47 187.03 83.949 188.316 85.429 189.606 83.949 188.316 82.47" fill="#dcdcdc"/>
  <polygon points="188.316 74.205 187.03 75.685 188.316 77.164 189.606 75.685 188.316 74.205" fill="#dcdcdc"/>
  <polygon points="188.316 65.941 187.03 67.421 188.316 68.9 189.606 67.421 188.316 65.941" fill="#dcdcdc"/>
  <polygon points="189.604 59.156 188.316 57.677 187.03 59.156 188.316 60.636 189.604 59.156" fill="#dcdcdc"/>
  <polygon points="102.02 52.545 103.306 51.065 102.02 49.586 100.733 51.065 102.02 52.545" fill="#dcdcdc"/>
  <polygon points="102.02 44.28 103.306 42.801 102.02 41.321 100.733 42.801 102.02 44.28" fill="#dcdcdc"/>
  <polygon points="102.02 36.016 103.306 34.536 102.02 33.057 100.733 34.536 102.02 36.016" fill="#dcdcdc"/>
  <polygon points="102.02 27.752 103.306 26.272 102.02 24.793 100.733 26.272 102.02 27.752" fill="#dcdcdc"/>
  <polygon points="102.02 19.487 103.306 18.008 102.02 16.528 100.733 18.008 102.02 19.487" fill="#dcdcdc"/>
  <polygon points="103.306 9.744 102.02 8.264 100.733 9.744 102.02 11.223 103.306 9.744" fill="#dcdcdc"/>
  <polygon points="100.733 1.479 102.02 2.959 103.306 1.479 102.02 0 100.733 1.479" fill="#dcdcdc"/>
  <polygon points="109.211 49.586 107.924 51.065 109.211 52.545 110.497 51.065 109.211 49.586" fill="#dcdcdc"/>
  <polygon points="109.211 41.321 107.924 42.801 109.211 44.28 110.497 42.801 109.211 41.321" fill="#dcdcdc"/>
  <polygon points="109.211 33.057 107.924 34.536 109.211 36.016 110.497 34.536 109.211 33.057" fill="#dcdcdc"/>
  <polygon points="109.211 24.793 107.924 26.272 109.211 27.752 110.497 26.272 109.211 24.793" fill="#dcdcdc"/>
  <polygon points="109.211 16.528 107.924 18.008 109.211 19.487 110.497 18.008 109.211 16.528" fill="#dcdcdc"/>
  <polygon points="109.211 8.264 107.924 9.744 109.211 11.223 110.497 9.744 109.211 8.264" fill="#dcdcdc"/>
  <polygon points="109.211 0 107.924 1.479 109.211 2.959 110.497 1.479 109.211 0" fill="#dcdcdc"/>
  <polygon points="116.402 49.586 115.115 51.065 116.402 52.545 117.691 51.065 116.402 49.586" fill="#dcdcdc"/>
  <polygon points="116.402 41.321 115.115 42.801 116.402 44.28 117.691 42.801 116.402 41.321" fill="#dcdcdc"/>
  <polygon points="116.402 33.057 115.115 34.536 116.402 36.016 117.691 34.536 116.402 33.057" fill="#dcdcdc"/>
  <polygon points="116.402 24.793 115.115 26.272 116.402 27.752 117.691 26.272 116.402 24.793" fill="#dcdcdc"/>
  <polygon points="116.402 16.528 115.115 18.008 116.402 19.487 117.691 18.008 116.402 16.528" fill="#dcdcdc"/>
  <polygon points="116.402 8.264 115.115 9.744 116.402 11.223 117.691 9.744 116.402 8.264" fill="#dcdcdc"/>
  <polygon points="116.402 0 115.115 1.479 116.402 2.959 117.691 1.479 116.402 0" fill="#dcdcdc"/>
  <polygon points="123.594 49.586 122.307 51.065 123.594 52.545 124.881 51.065 123.594 49.586" fill="#dcdcdc"/>
  <polygon points="123.594 41.321 122.307 42.801 123.594 44.28 124.881 42.801 123.594 41.321" fill="#dcdcdc"/>
  <polygon points="123.594 33.057 122.307 34.536 123.594 36.016 124.881 34.536 123.594 33.057" fill="#dcdcdc"/>
  <polygon points="123.594 24.793 122.307 26.272 123.594 27.752 124.881 26.272 123.594 24.793" fill="#dcdcdc"/>
  <polygon points="123.594 16.528 122.307 18.008 123.594 19.487 124.881 18.008 123.594 16.528" fill="#dcdcdc"/>
  <polygon points="123.594 8.264 122.307 9.744 123.594 11.223 124.881 9.744 123.594 8.264" fill="#dcdcdc"/>
  <polygon points="123.594 0 122.307 1.479 123.594 2.959 124.881 1.479 123.594 0" fill="#dcdcdc"/>
  <polygon points="130.785 49.586 129.498 51.065 130.785 52.545 132.072 51.065 130.785 49.586" fill="#dcdcdc"/>
  <polygon points="130.785 41.321 129.498 42.801 130.785 44.28 132.072 42.801 130.785 41.321" fill="#dcdcdc"/>
  <polygon points="130.785 33.057 129.498 34.536 130.785 36.016 132.072 34.536 130.785 33.057" fill="#dcdcdc"/>
  <polygon points="130.785 24.793 129.498 26.272 130.785 27.752 132.072 26.272 130.785 24.793" fill="#dcdcdc"/>
  <polygon points="130.785 16.528 129.498 18.008 130.785 19.487 132.072 18.008 130.785 16.528" fill="#dcdcdc"/>
  <polygon points="130.785 8.264 129.498 9.744 130.785 11.223 132.072 9.744 130.785 8.264" fill="#dcdcdc"/>
  <path d="M175.785,18.6l1.287-1.48-.217-.249c-.578-.157-1.156-.315-1.738-.462l-.619.711Z"
        transform="translate(-45 -15.637)" fill="#dcdcdc"/>
  <polygon points="137.977 49.586 136.688 51.065 137.977 52.545 139.264 51.065 137.977 49.586" fill="#dcdcdc"/>
  <polygon points="137.977 41.321 136.688 42.801 137.977 44.28 139.264 42.801 137.977 41.321" fill="#dcdcdc"/>
  <polygon points="137.977 33.057 136.688 34.536 137.977 36.016 139.264 34.536 137.977 33.057" fill="#dcdcdc"/>
  <polygon points="137.977 24.793 136.688 26.272 137.977 27.752 139.264 26.272 137.977 24.793" fill="#dcdcdc"/>
  <polygon points="137.977 16.528 136.688 18.008 137.977 19.487 139.264 18.008 137.977 16.528" fill="#dcdcdc"/>
  <polygon points="137.977 8.264 136.688 9.744 137.977 11.223 139.264 9.744 137.977 8.264" fill="#dcdcdc"/>
  <polygon points="145.168 49.586 143.881 51.065 145.168 52.545 146.455 51.065 145.168 49.586" fill="#dcdcdc"/>
  <polygon points="145.168 41.321 143.881 42.801 145.168 44.28 146.455 42.801 145.168 41.321" fill="#dcdcdc"/>
  <polygon points="145.168 33.057 143.881 34.536 145.168 36.016 146.455 34.536 145.168 33.057" fill="#dcdcdc"/>
  <polygon points="145.168 24.793 143.881 26.272 145.168 27.752 146.455 26.272 145.168 24.793" fill="#dcdcdc"/>
  <polygon points="145.168 16.528 143.881 18.008 145.168 19.487 146.455 18.008 145.168 16.528" fill="#dcdcdc"/>
  <polygon points="145.168 8.264 143.881 9.744 145.168 11.223 146.455 9.744 145.168 8.264" fill="#dcdcdc"/>
  <polygon points="152.359 49.586 151.072 51.065 152.359 52.545 153.648 51.065 152.359 49.586" fill="#dcdcdc"/>
  <polygon points="152.359 41.321 151.072 42.801 152.359 44.28 153.648 42.801 152.359 41.321" fill="#dcdcdc"/>
  <polygon points="152.359 33.057 151.072 34.536 152.359 36.016 153.648 34.536 152.359 33.057" fill="#dcdcdc"/>
  <polygon points="152.359 24.793 151.072 26.272 152.359 27.752 153.648 26.272 152.359 24.793" fill="#dcdcdc"/>
  <polygon points="152.359 16.528 151.072 18.008 152.359 19.487 153.648 18.008 152.359 16.528" fill="#dcdcdc"/>
  <path d="M197.359,26.86l1.227-1.408c-.589-.312-1.179-.621-1.774-.922l-.74.851Z" transform="translate(-45 -15.637)"
        fill="#dcdcdc"/>
  <polygon points="159.551 49.586 158.264 51.065 159.551 52.545 160.838 51.065 159.551 49.586" fill="#dcdcdc"/>
  <polygon points="159.551 41.321 158.264 42.801 159.551 44.28 160.838 42.801 159.551 41.321" fill="#dcdcdc"/>
  <polygon points="159.551 33.057 158.264 34.536 159.551 36.016 160.838 34.536 159.551 33.057" fill="#dcdcdc"/>
  <polygon points="159.551 24.793 158.264 26.272 159.551 27.752 160.838 26.272 159.551 24.793" fill="#dcdcdc"/>
  <polygon points="159.551 16.528 158.264 18.008 159.551 19.487 160.838 18.008 159.551 16.528" fill="#dcdcdc"/>
  <polygon points="166.742 49.586 165.455 51.065 166.742 52.545 168.029 51.065 166.742 49.586" fill="#dcdcdc"/>
  <polygon points="166.742 41.321 165.455 42.801 166.742 44.28 168.029 42.801 166.742 41.321" fill="#dcdcdc"/>
  <polygon points="166.742 33.057 165.455 34.536 166.742 36.016 168.029 34.536 166.742 33.057" fill="#dcdcdc"/>
  <polygon points="166.742 24.793 165.455 26.272 166.742 27.752 168.029 26.272 166.742 24.793" fill="#dcdcdc"/>
  <path d="M210.455,33.645l1.287,1.479.759-.871c-.521-.389-1.047-.77-1.575-1.149Z" transform="translate(-45 -15.637)"
        fill="#dcdcdc"/>
  <polygon points="173.934 52.545 175.221 51.065 173.934 49.586 172.645 51.065 173.934 52.545" fill="#dcdcdc"/>
  <polygon points="173.934 44.28 175.221 42.801 173.934 41.321 172.645 42.801 173.934 44.28" fill="#dcdcdc"/>
  <polygon points="175.221 34.536 173.934 33.057 172.645 34.536 173.934 36.016 175.221 34.536" fill="#dcdcdc"/>
  <polygon points="172.645 26.272 173.934 27.752 175.221 26.272 173.934 24.793 172.645 26.272" fill="#dcdcdc"/>
  <polygon points="181.125 49.586 179.839 51.065 181.125 52.545 182.412 51.065 181.125 49.586" fill="#dcdcdc"/>
  <polygon points="181.125 41.321 179.839 42.801 181.125 44.28 182.412 42.801 181.125 41.321" fill="#dcdcdc"/>
  <polygon points="181.125 33.057 179.839 34.536 181.125 36.016 182.412 34.536 181.125 33.057" fill="#dcdcdc"/>
  <polygon points="188.316 49.586 187.03 51.065 188.316 52.545 189.606 51.065 188.316 49.586" fill="#dcdcdc"/>
  <polygon points="188.316 41.321 187.03 42.801 188.316 44.28 189.606 42.801 188.316 41.321" fill="#dcdcdc"/>
  <polygon points="195.612 90.734 194.325 92.213 195.612 93.693 196.899 92.213 195.612 90.734" fill="#dcdcdc"/>
  <polygon points="195.612 82.47 194.325 83.949 195.612 85.429 196.899 83.949 195.612 82.47" fill="#dcdcdc"/>
  <polygon points="195.612 74.205 194.325 75.685 195.612 77.164 196.899 75.685 195.612 74.205" fill="#dcdcdc"/>
  <polygon points="195.612 65.941 194.325 67.421 195.612 68.9 196.899 67.421 195.612 65.941" fill="#dcdcdc"/>
  <polygon points="195.612 57.677 194.325 59.156 195.612 60.636 196.899 59.156 195.612 57.677" fill="#dcdcdc"/>
  <polygon points="202.803 90.734 201.516 92.213 202.803 93.693 204.092 92.213 202.803 90.734" fill="#dcdcdc"/>
  <polygon points="202.803 82.47 201.516 83.949 202.803 85.429 204.092 83.949 202.803 82.47" fill="#dcdcdc"/>
  <polygon points="202.803 74.205 201.516 75.685 202.803 77.164 204.092 75.685 202.803 74.205" fill="#dcdcdc"/>
  <path d="M246.516,83.058l1.287,1.479,1.06-1.217c-.106-.3-.207-.593-.316-.887l-.744-.855Z"
        transform="translate(-45 -15.637)" fill="#dcdcdc"/>
  <path d="M254.365,107.1l-.657.754.834.959Q254.461,107.951,254.365,107.1Z" transform="translate(-45 -15.637)"
        fill="#dcdcdc"/>
  <path d="M240.612,68.182l.868-1q-.5-.9-1.026-1.779l-1.129,1.3Z" transform="translate(-45 -15.637)" fill="#dcdcdc"/>
  <polygon points="1.287 90.734 0 92.213 1.287 93.693 2.574 92.213 1.287 90.734" fill="#dcdcdc"/>
  <polygon points="1.287 82.47 0 83.949 1.287 85.429 2.574 83.949 1.287 82.47" fill="#dcdcdc"/>
  <path d="M46.287,92.8l1.287-1.479L46.5,90.087q-.318,1.122-.613,2.254Z" transform="translate(-45 -15.637)"
        fill="#dcdcdc"/>
  <polygon points="8.479 90.734 7.19 92.213 8.479 93.693 9.766 92.213 8.479 90.734" fill="#dcdcdc"/>
  <polygon points="8.479 82.47 7.19 83.949 8.479 85.429 9.766 83.949 8.479 82.47" fill="#dcdcdc"/>
  <polygon points="8.479 74.205 7.19 75.685 8.479 77.164 9.766 75.685 8.479 74.205" fill="#dcdcdc"/>
  <polygon points="8.479 65.941 7.19 67.421 8.479 68.9 9.766 67.421 8.479 65.941" fill="#dcdcdc"/>
  <polygon points="8.479 57.677 7.191 59.156 8.479 60.636 9.766 59.156 8.479 57.677" fill="#dcdcdc"/>
  <polygon points="15.773 90.734 14.486 92.213 15.773 93.693 17.06 92.213 15.773 90.734" fill="#dcdcdc"/>
  <polygon points="15.773 82.47 14.486 83.949 15.773 85.429 17.06 83.949 15.773 82.47" fill="#dcdcdc"/>
  <polygon points="15.773 74.205 14.486 75.685 15.773 77.164 17.06 75.685 15.773 74.205" fill="#dcdcdc"/>
  <polygon points="15.773 65.941 14.486 67.421 15.773 68.9 17.06 67.421 15.773 65.941" fill="#dcdcdc"/>
  <polygon points="15.773 57.677 14.486 59.156 15.773 60.636 17.06 59.156 15.773 57.677" fill="#dcdcdc"/>
  <polygon points="22.965 90.734 21.676 92.213 22.965 93.693 24.252 92.213 22.965 90.734" fill="#dcdcdc"/>
  <polygon points="22.965 82.47 21.676 83.949 22.965 85.429 24.252 83.949 22.965 82.47" fill="#dcdcdc"/>
  <polygon points="22.965 74.205 21.676 75.685 22.965 77.164 24.252 75.685 22.965 74.205" fill="#dcdcdc"/>
  <polygon points="22.965 65.941 21.676 67.421 22.965 68.9 24.252 67.421 22.965 65.941" fill="#dcdcdc"/>
  <polygon points="22.965 57.677 21.677 59.156 22.965 60.636 24.252 59.156 22.965 57.677" fill="#dcdcdc"/>
  <polygon points="30.156 90.734 28.869 92.213 30.156 93.693 31.443 92.213 30.156 90.734" fill="#dcdcdc"/>
  <polygon points="30.156 82.47 28.869 83.949 30.156 85.429 31.443 83.949 30.156 82.47" fill="#dcdcdc"/>
  <polygon points="30.156 74.205 28.869 75.685 30.156 77.164 31.443 75.685 30.156 74.205" fill="#dcdcdc"/>
  <polygon points="30.156 65.941 28.869 67.421 30.156 68.9 31.443 67.421 30.156 65.941" fill="#dcdcdc"/>
  <polygon points="30.156 57.677 28.869 59.156 30.156 60.636 31.443 59.156 30.156 57.677" fill="#dcdcdc"/>
  <polygon points="37.347 90.734 36.06 92.213 37.347 93.693 38.636 92.213 37.347 90.734" fill="#dcdcdc"/>
  <polygon points="37.347 82.47 36.06 83.949 37.347 85.429 38.636 83.949 37.347 82.47" fill="#dcdcdc"/>
  <polygon points="37.347 74.205 36.06 75.685 37.347 77.164 38.636 75.685 37.347 74.205" fill="#dcdcdc"/>
  <polygon points="37.347 65.941 36.06 67.421 37.347 68.9 38.636 67.421 37.347 65.941" fill="#dcdcdc"/>
  <polygon points="38.635 59.156 37.347 57.677 36.06 59.156 37.347 60.636 38.635 59.156" fill="#dcdcdc"/>
  <polygon points="44.539 90.734 43.253 92.213 44.539 93.693 45.826 92.213 44.539 90.734" fill="#dcdcdc"/>
  <polygon points="44.539 82.47 43.253 83.949 44.539 85.429 45.826 83.949 44.539 82.47" fill="#dcdcdc"/>
  <polygon points="44.539 74.205 43.253 75.685 44.539 77.164 45.826 75.685 44.539 74.205" fill="#dcdcdc"/>
  <polygon points="44.539 65.941 43.253 67.421 44.539 68.9 45.826 67.421 44.539 65.941" fill="#dcdcdc"/>
  <polygon points="44.539 57.677 43.253 59.156 44.539 60.636 45.826 59.156 44.539 57.677" fill="#dcdcdc"/>
  <polygon points="51.73 90.734 50.444 92.213 51.73 93.693 53.017 92.213 51.73 90.734" fill="#dcdcdc"/>
  <polygon points="51.73 82.47 50.444 83.949 51.73 85.429 53.017 83.949 51.73 82.47" fill="#dcdcdc"/>
  <polygon points="51.73 74.205 50.444 75.685 51.73 77.164 53.017 75.685 51.73 74.205" fill="#dcdcdc"/>
  <polygon points="51.73 65.941 50.444 67.421 51.73 68.9 53.017 67.421 51.73 65.941" fill="#dcdcdc"/>
  <polygon points="51.73 57.677 50.444 59.156 51.73 60.636 53.017 59.156 51.73 57.677" fill="#dcdcdc"/>
  <path d="M104.47,98.74c-.31.64-.6,1.3-.87,1.96l-.96-1.11,1.28-1.48Z" transform="translate(-45 -15.637)"
        fill="#dcdcdc"/>
  <polygon points="58.922 74.205 57.635 75.685 58.922 77.164 60.211 75.685 58.922 74.205" fill="#dcdcdc"/>
  <polygon points="58.922 65.941 57.635 67.421 58.922 68.9 60.211 67.421 58.922 65.941" fill="#dcdcdc"/>
  <polygon points="60.21 59.156 58.922 57.677 57.635 59.156 58.922 60.636 60.21 59.156" fill="#dcdcdc"/>
  <polygon points="66.114 65.941 64.827 67.421 66.114 68.9 67.401 67.421 66.114 65.941" fill="#dcdcdc"/>
  <polygon points="66.114 57.677 64.827 59.156 66.114 60.636 67.401 59.156 66.114 57.677" fill="#dcdcdc"/>
  <polygon points="73.305 57.677 72.018 59.156 73.305 60.636 74.592 59.156 73.305 57.677" fill="#dcdcdc"/>
  <polygon points="80.497 57.677 79.209 59.156 80.497 60.636 81.784 59.156 80.497 57.677" fill="#dcdcdc"/>
  <polygon points="15.773 49.586 14.486 51.065 15.773 52.545 17.06 51.065 15.773 49.586" fill="#dcdcdc"/>
  <path d="M60.773,59.917l1.287-1.479-.271-.312c-.385.545-.769,1.091-1.144,1.644Z" transform="translate(-45 -15.637)"
        fill="#dcdcdc"/>
  <polygon points="22.965 49.586 21.676 51.065 22.965 52.545 24.252 51.065 22.965 49.586" fill="#dcdcdc"/>
  <polygon points="22.965 41.321 21.676 42.801 22.965 44.28 24.252 42.801 22.965 41.321" fill="#dcdcdc"/>
  <path d="M67.965,51.653l1.287-1.48-.631-.726c-.432.493-.855.992-1.277,1.492Z" transform="translate(-45 -15.637)"
        fill="#dcdcdc"/>
  <polygon points="30.156 49.586 28.869 51.065 30.156 52.545 31.443 51.065 30.156 49.586" fill="#dcdcdc"/>
  <polygon points="30.156 41.321 28.869 42.801 30.156 44.28 31.443 42.801 30.156 41.321" fill="#dcdcdc"/>
  <polygon points="30.156 33.057 28.869 34.536 30.156 36.016 31.443 34.536 30.156 33.057" fill="#dcdcdc"/>
  <path d="M75.156,43.389l1.287-1.48-.239-.275q-.711.663-1.411,1.337Z" transform="translate(-45 -15.637)"
        fill="#dcdcdc"/>
  <polygon points="37.347 49.586 36.06 51.065 37.347 52.545 38.636 51.065 37.347 49.586" fill="#dcdcdc"/>
  <polygon points="37.347 41.321 36.06 42.801 37.347 44.28 38.636 42.801 37.347 41.321" fill="#dcdcdc"/>
  <polygon points="37.347 33.057 36.06 34.536 37.347 36.016 38.636 34.536 37.347 33.057" fill="#dcdcdc"/>
  <polygon points="37.347 24.793 36.06 26.272 37.347 27.752 38.636 26.272 37.347 24.793" fill="#dcdcdc"/>
  <polygon points="44.539 49.586 43.253 51.065 44.539 52.545 45.826 51.065 44.539 49.586" fill="#dcdcdc"/>
  <polygon points="44.539 41.321 43.253 42.801 44.539 44.28 45.826 42.801 44.539 41.321" fill="#dcdcdc"/>
  <polygon points="44.539 33.057 43.253 34.536 44.539 36.016 45.826 34.536 44.539 33.057" fill="#dcdcdc"/>
  <polygon points="44.539 24.793 43.253 26.272 44.539 27.752 45.826 26.272 44.539 24.793" fill="#dcdcdc"/>
  <polygon points="44.539 16.528 43.253 18.008 44.539 19.487 45.826 18.008 44.539 16.528" fill="#dcdcdc"/>
  <polygon points="51.73 49.586 50.444 51.065 51.73 52.545 53.017 51.065 51.73 49.586" fill="#dcdcdc"/>
  <polygon points="51.73 41.321 50.444 42.801 51.73 44.28 53.017 42.801 51.73 41.321" fill="#dcdcdc"/>
  <polygon points="51.73 33.057 50.444 34.536 51.73 36.016 53.017 34.536 51.73 33.057" fill="#dcdcdc"/>
  <polygon points="51.73 24.793 50.444 26.272 51.73 27.752 53.017 26.272 51.73 24.793" fill="#dcdcdc"/>
  <polygon points="51.73 16.528 50.444 18.008 51.73 19.487 53.017 18.008 51.73 16.528" fill="#dcdcdc"/>
  <path d="M96.73,26.86l.334-.383q-.225.124-.449.25Z" transform="translate(-45 -15.637)" fill="#dcdcdc"/>
  <polygon points="58.922 49.586 57.635 51.065 58.922 52.545 60.211 51.065 58.922 49.586" fill="#dcdcdc"/>
  <polygon points="58.922 41.321 57.635 42.801 58.922 44.28 60.211 42.801 58.922 41.321" fill="#dcdcdc"/>
  <polygon points="58.922 33.057 57.635 34.536 58.922 36.016 60.211 34.536 58.922 33.057" fill="#dcdcdc"/>
  <polygon points="58.922 24.793 57.635 26.272 58.922 27.752 60.211 26.272 58.922 24.793" fill="#dcdcdc"/>
  <polygon points="58.922 16.528 57.635 18.008 58.922 19.487 60.211 18.008 58.922 16.528" fill="#dcdcdc"/>
  <polygon points="58.922 8.264 57.635 9.744 58.922 11.223 60.211 9.744 58.922 8.264" fill="#dcdcdc"/>
  <polygon points="66.114 49.586 64.827 51.065 66.114 52.545 67.401 51.065 66.114 49.586" fill="#dcdcdc"/>
  <polygon points="66.114 41.321 64.827 42.801 66.114 44.28 67.401 42.801 66.114 41.321" fill="#dcdcdc"/>
  <polygon points="66.114 33.057 64.827 34.536 66.114 36.016 67.401 34.536 66.114 33.057" fill="#dcdcdc"/>
  <polygon points="66.114 24.793 64.827 26.272 66.114 27.752 67.401 26.272 66.114 24.793" fill="#dcdcdc"/>
  <polygon points="66.114 16.528 64.827 18.008 66.114 19.487 67.401 18.008 66.114 16.528" fill="#dcdcdc"/>
  <polygon points="66.114 8.264 64.827 9.744 66.114 11.223 67.401 9.744 66.114 8.264" fill="#dcdcdc"/>
  <polygon points="73.305 49.586 72.018 51.065 73.305 52.545 74.592 51.065 73.305 49.586" fill="#dcdcdc"/>
  <polygon points="73.305 41.321 72.018 42.801 73.305 44.28 74.592 42.801 73.305 41.321" fill="#dcdcdc"/>
  <polygon points="73.305 33.057 72.018 34.536 73.305 36.016 74.592 34.536 73.305 33.057" fill="#dcdcdc"/>
  <polygon points="73.305 24.793 72.018 26.272 73.305 27.752 74.592 26.272 73.305 24.793" fill="#dcdcdc"/>
  <polygon points="73.305 16.528 72.018 18.008 73.305 19.487 74.592 18.008 73.305 16.528" fill="#dcdcdc"/>
  <polygon points="73.305 8.264 72.018 9.744 73.305 11.223 74.592 9.744 73.305 8.264" fill="#dcdcdc"/>
  <path d="M118.305,18.6l1.231-1.416c-.656.186-1.308.381-1.958.58Z" transform="translate(-45 -15.637)" fill="#dcdcdc"/>
  <polygon points="80.497 49.586 79.208 51.065 80.497 52.545 81.784 51.065 80.497 49.586" fill="#dcdcdc"/>
  <polygon points="80.497 41.321 79.208 42.801 80.497 44.28 81.784 42.801 80.497 41.321" fill="#dcdcdc"/>
  <polygon points="80.497 33.057 79.208 34.536 80.497 36.016 81.784 34.536 80.497 33.057" fill="#dcdcdc"/>
  <polygon points="80.497 24.793 79.208 26.272 80.497 27.752 81.784 26.272 80.497 24.793" fill="#dcdcdc"/>
  <polygon points="80.497 16.528 79.208 18.008 80.497 19.487 81.784 18.008 80.497 16.528" fill="#dcdcdc"/>
  <polygon points="80.497 8.264 79.208 9.744 80.497 11.223 81.784 9.744 80.497 8.264" fill="#dcdcdc"/>
  <path d="M124.208,17.116,125.5,18.6l1.287-1.48-1.258-1.446-.072.016Z" transform="translate(-45 -15.637)"
        fill="#dcdcdc"/>
  <polygon points="87.688 52.545 88.975 51.065 87.688 49.586 86.401 51.065 87.688 52.545" fill="#dcdcdc"/>
  <polygon points="87.688 44.28 88.975 42.801 87.688 41.321 86.401 42.801 87.688 44.28" fill="#dcdcdc"/>
  <polygon points="87.688 36.016 88.975 34.536 87.688 33.057 86.401 34.536 87.688 36.016" fill="#dcdcdc"/>
  <polygon points="87.688 27.752 88.975 26.272 87.688 24.793 86.401 26.272 87.688 27.752" fill="#dcdcdc"/>
  <polygon points="87.688 19.487 88.975 18.008 87.688 16.528 86.401 18.008 87.688 19.487" fill="#dcdcdc"/>
  <polygon points="87.688 11.223 88.975 9.744 87.688 8.264 86.401 9.744 87.688 11.223" fill="#dcdcdc"/>
  <polygon points="88.975 1.479 87.688 0 86.401 1.479 87.688 2.959 88.975 1.479" fill="#dcdcdc"/>
  <polygon points="94.879 52.545 96.168 51.065 94.879 49.586 93.592 51.065 94.879 52.545" fill="#dcdcdc"/>
  <polygon points="94.879 44.28 96.168 42.801 94.879 41.321 93.592 42.801 94.879 44.28" fill="#dcdcdc"/>
  <polygon points="94.879 36.016 96.168 34.536 94.879 33.057 93.592 34.536 94.879 36.016" fill="#dcdcdc"/>
  <polygon points="94.879 27.752 96.168 26.272 94.879 24.793 93.592 26.272 94.879 27.752" fill="#dcdcdc"/>
  <polygon points="94.879 19.487 96.168 18.008 94.879 16.528 93.592 18.008 94.879 19.487" fill="#dcdcdc"/>
  <polygon points="94.879 11.223 96.168 9.744 94.879 8.264 93.592 9.744 94.879 11.223" fill="#dcdcdc"/>
  <polygon points="96.168 1.479 94.879 0 93.592 1.479 94.879 2.959 96.168 1.479" fill="#dcdcdc"/>
  <polygon points="102.02 200.443 103.306 198.963 102.02 197.484 100.733 198.963 102.02 200.443" fill="#dcdcdc"/>
  <polygon points="102.02 192.179 103.306 190.699 102.02 189.22 100.733 190.699 102.02 192.179" fill="#dcdcdc"/>
  <polygon points="102.02 183.914 103.306 182.435 102.02 180.956 100.733 182.435 102.02 183.914" fill="#dcdcdc"/>
  <polygon points="102.02 175.65 103.306 174.17 102.02 172.691 100.733 174.17 102.02 175.65" fill="#dcdcdc"/>
  <polygon points="102.02 167.386 103.306 165.907 102.02 164.427 100.733 165.907 102.02 167.386" fill="#dcdcdc"/>
  <polygon points="107.924 198.963 109.211 200.443 110.497 198.963 109.211 197.484 107.924 198.963" fill="#dcdcdc"/>
  <polygon points="109.211 189.22 107.924 190.699 109.211 192.179 110.497 190.699 109.211 189.22" fill="#dcdcdc"/>
  <polygon points="109.211 180.956 107.924 182.435 109.211 183.914 110.497 182.435 109.211 180.956" fill="#dcdcdc"/>
  <polygon points="109.211 172.691 107.924 174.17 109.211 175.65 110.497 174.17 109.211 172.691" fill="#dcdcdc"/>
  <polygon points="109.211 164.427 107.924 165.907 109.211 167.386 110.497 165.907 109.211 164.427" fill="#dcdcdc"/>
  <polygon points="115.115 198.963 116.402 200.443 117.691 198.963 116.402 197.484 115.115 198.963" fill="#dcdcdc"/>
  <polygon points="116.402 189.22 115.115 190.699 116.402 192.179 117.691 190.699 116.402 189.22" fill="#dcdcdc"/>
  <polygon points="116.402 180.956 115.115 182.435 116.402 183.914 117.691 182.435 116.402 180.956" fill="#dcdcdc"/>
  <polygon points="116.402 172.691 115.115 174.17 116.402 175.65 117.691 174.17 116.402 172.691" fill="#dcdcdc"/>
  <polygon points="116.402 164.427 115.115 165.907 116.402 167.386 117.691 165.907 116.402 164.427" fill="#dcdcdc"/>
  <polygon points="122.307 198.963 123.594 200.443 124.881 198.963 123.594 197.484 122.307 198.963" fill="#dcdcdc"/>
  <polygon points="123.594 189.22 122.307 190.699 123.594 192.179 124.881 190.699 123.594 189.22" fill="#dcdcdc"/>
  <polygon points="123.594 180.956 122.307 182.435 123.594 183.914 124.881 182.435 123.594 180.956" fill="#dcdcdc"/>
  <polygon points="123.594 172.691 122.307 174.17 123.594 175.65 124.881 174.17 123.594 172.691" fill="#dcdcdc"/>
  <polygon points="123.594 164.427 122.307 165.907 123.594 167.386 124.881 165.907 123.594 164.427" fill="#dcdcdc"/>
  <polygon points="129.498 198.963 130.785 200.443 132.072 198.963 130.785 197.484 129.498 198.963" fill="#dcdcdc"/>
  <polygon points="130.785 189.22 129.498 190.699 130.785 192.179 132.072 190.699 130.785 189.22" fill="#dcdcdc"/>
  <polygon points="130.785 180.956 129.498 182.435 130.785 183.914 132.072 182.435 130.785 180.956" fill="#dcdcdc"/>
  <polygon points="130.785 172.691 129.498 174.17 130.785 175.65 132.072 174.17 130.785 172.691" fill="#dcdcdc"/>
  <polygon points="130.785 164.427 129.498 165.907 130.785 167.386 132.072 165.907 130.785 164.427" fill="#dcdcdc"/>
  <polygon points="136.688 198.963 137.977 200.443 139.264 198.963 137.977 197.484 136.688 198.963" fill="#dcdcdc"/>
  <polygon points="137.977 189.22 136.688 190.699 137.977 192.179 139.264 190.699 137.977 189.22" fill="#dcdcdc"/>
  <polygon points="137.977 180.956 136.688 182.435 137.977 183.914 139.264 182.435 137.977 180.956" fill="#dcdcdc"/>
  <polygon points="137.977 172.691 136.688 174.17 137.977 175.65 139.264 174.17 137.977 172.691" fill="#dcdcdc"/>
  <polygon points="137.977 164.427 136.688 165.907 137.977 167.386 139.264 165.907 137.977 164.427" fill="#dcdcdc"/>
  <polygon points="143.881 198.963 145.168 200.443 146.455 198.963 145.168 197.484 143.881 198.963" fill="#dcdcdc"/>
  <polygon points="145.168 189.22 143.881 190.699 145.168 192.179 146.455 190.699 145.168 189.22" fill="#dcdcdc"/>
  <polygon points="145.168 180.956 143.881 182.435 145.168 183.914 146.455 182.435 145.168 180.956" fill="#dcdcdc"/>
  <polygon points="145.168 172.691 143.881 174.17 145.168 175.65 146.455 174.17 145.168 172.691" fill="#dcdcdc"/>
  <polygon points="145.168 164.427 143.881 165.907 145.168 167.386 146.455 165.907 145.168 164.427" fill="#dcdcdc"/>
  <polygon points="151.072 190.699 152.359 192.179 153.648 190.699 152.359 189.22 151.072 190.699" fill="#dcdcdc"/>
  <polygon points="152.359 180.956 151.072 182.435 152.359 183.914 153.648 182.435 152.359 180.956" fill="#dcdcdc"/>
  <polygon points="152.359 172.691 151.072 174.17 152.359 175.65 153.648 174.17 152.359 172.691" fill="#dcdcdc"/>
  <polygon points="152.359 164.427 151.072 165.907 152.359 167.386 153.648 165.907 152.359 164.427" fill="#dcdcdc"/>
  <polygon points="158.264 190.699 159.551 192.179 160.838 190.699 159.551 189.22 158.264 190.699" fill="#dcdcdc"/>
  <polygon points="159.551 180.956 158.264 182.435 159.551 183.914 160.838 182.435 159.551 180.956" fill="#dcdcdc"/>
  <polygon points="159.551 172.691 158.264 174.17 159.551 175.65 160.838 174.17 159.551 172.691" fill="#dcdcdc"/>
  <polygon points="159.551 164.427 158.264 165.907 159.551 167.386 160.838 165.907 159.551 164.427" fill="#dcdcdc"/>
  <polygon points="165.455 182.435 166.742 183.914 168.029 182.435 166.742 180.956 165.455 182.435" fill="#dcdcdc"/>
  <polygon points="166.742 172.691 165.455 174.17 166.742 175.65 168.029 174.17 166.742 172.691" fill="#dcdcdc"/>
  <polygon points="166.742 164.427 165.455 165.907 166.742 167.386 168.029 165.907 166.742 164.427" fill="#dcdcdc"/>
  <path d="M218.934,196.593l-1.289,1.479.651.747c.49-.423.973-.854,1.456-1.286Z" transform="translate(-45 -15.637)"
        fill="#dcdcdc"/>
  <polygon points="173.934 175.65 175.221 174.17 173.934 172.691 172.645 174.17 173.934 175.65" fill="#dcdcdc"/>
  <polygon points="173.934 167.386 175.221 165.907 173.934 164.427 172.645 165.907 173.934 167.386" fill="#dcdcdc"/>
  <polygon points="182.412 174.17 181.125 172.691 179.839 174.17 181.125 175.65 182.412 174.17" fill="#dcdcdc"/>
  <polygon points="179.839 165.907 181.125 167.386 182.412 165.907 181.125 164.427 179.839 165.907" fill="#dcdcdc"/>
  <path d="M233.316,180.064l-1.286,1.48,1.236,1.421q.6-.789,1.2-1.588Z" transform="translate(-45 -15.637)"
        fill="#dcdcdc"/>
  <polygon points="102.02 159.295 103.306 157.815 102.02 156.335 100.733 157.815 102.02 159.295" fill="#dcdcdc"/>
  <polygon points="109.211 156.335 107.924 157.815 109.211 159.295 110.497 157.815 109.211 156.335" fill="#dcdcdc"/>
  <polygon points="117.69 157.815 116.402 156.335 115.115 157.815 116.402 159.295 117.69 157.815" fill="#dcdcdc"/>
  <polygon points="123.594 156.335 122.307 157.815 123.594 159.295 124.881 157.815 123.594 156.335" fill="#dcdcdc"/>
  <polygon points="130.785 156.335 129.498 157.815 130.785 159.295 132.072 157.815 130.785 156.335" fill="#dcdcdc"/>
  <polygon points="130.785 148.072 129.498 149.551 130.785 151.031 132.072 149.551 130.785 148.072" fill="#dcdcdc"/>
  <polygon points="137.977 156.335 136.689 157.815 137.977 159.295 139.264 157.815 137.977 156.335" fill="#dcdcdc"/>
  <polygon points="137.977 148.072 136.688 149.551 137.977 151.031 139.264 149.551 137.977 148.072" fill="#dcdcdc"/>
  <path d="M184.26,156.92l-1.28,1.48-.25-.28c.49-.42.98-.85,1.45-1.29Z" transform="translate(-45 -15.637)"
        fill="#dcdcdc"/>
  <polygon points="145.168 156.335 143.881 157.815 145.168 159.295 146.455 157.815 145.168 156.335" fill="#dcdcdc"/>
  <polygon points="145.168 148.072 143.881 149.551 145.168 151.031 146.455 149.551 145.168 148.072" fill="#dcdcdc"/>
  <polygon points="145.168 139.807 143.881 141.286 145.168 142.766 146.455 141.286 145.168 139.807" fill="#dcdcdc"/>
  <path d="M191.46,148.66l-1.06,1.21c.33-.44.65-.88.95-1.33Z" transform="translate(-45 -15.637)" fill="#dcdcdc"/>
  <polygon points="153.647 157.815 152.359 156.335 151.072 157.815 152.359 159.295 153.647 157.815" fill="#dcdcdc"/>
  <polygon points="152.359 148.072 151.072 149.551 152.359 151.031 153.648 149.551 152.359 148.072" fill="#dcdcdc"/>
  <polygon points="152.359 139.807 151.072 141.286 152.359 142.766 153.648 141.286 152.359 139.807" fill="#dcdcdc"/>
  <polygon points="152.359 131.543 151.072 133.022 152.359 134.502 153.648 133.022 152.359 131.543" fill="#dcdcdc"/>
  <polygon points="152.359 123.279 151.072 124.758 152.359 126.237 153.648 124.758 152.359 123.279" fill="#dcdcdc"/>
  <polygon points="159.551 156.335 158.264 157.815 159.551 159.295 160.838 157.815 159.551 156.335" fill="#dcdcdc"/>
  <polygon points="159.551 148.072 158.264 149.551 159.551 151.031 160.838 149.551 159.551 148.072" fill="#dcdcdc"/>
  <polygon points="159.551 139.807 158.264 141.286 159.551 142.766 160.838 141.286 159.551 139.807" fill="#dcdcdc"/>
  <polygon points="159.551 131.543 158.264 133.022 159.551 134.502 160.838 133.022 159.551 131.543" fill="#dcdcdc"/>
  <polygon points="159.551 123.279 158.264 124.758 159.551 126.237 160.838 124.758 159.551 123.279" fill="#dcdcdc"/>
  <polygon points="159.551 115.014 158.264 116.493 159.551 117.973 160.838 116.493 159.551 115.014" fill="#dcdcdc"/>
  <polygon points="159.551 106.75 158.264 108.23 159.551 109.709 160.838 108.23 159.551 106.75" fill="#dcdcdc"/>
  <polygon points="159.551 98.485 158.264 99.965 159.551 101.444 160.838 99.965 159.551 98.485" fill="#dcdcdc"/>
  <polygon points="166.742 156.335 165.455 157.815 166.742 159.295 168.029 157.815 166.742 156.335" fill="#dcdcdc"/>
  <polygon points="166.742 148.072 165.455 149.551 166.742 151.031 168.029 149.551 166.742 148.072" fill="#dcdcdc"/>
  <polygon points="166.742 139.807 165.455 141.286 166.742 142.766 168.029 141.286 166.742 139.807" fill="#dcdcdc"/>
  <polygon points="166.742 131.543 165.455 133.022 166.742 134.502 168.029 133.022 166.742 131.543" fill="#dcdcdc"/>
  <polygon points="166.742 123.279 165.455 124.758 166.742 126.237 168.029 124.758 166.742 123.279" fill="#dcdcdc"/>
  <polygon points="166.742 115.014 165.455 116.493 166.742 117.973 168.029 116.493 166.742 115.014" fill="#dcdcdc"/>
  <polygon points="166.742 106.75 165.455 108.23 166.742 109.709 168.029 108.23 166.742 106.75" fill="#dcdcdc"/>
  <polygon points="166.742 98.485 165.455 99.965 166.742 101.444 168.029 99.965 166.742 98.485" fill="#dcdcdc"/>
  <polygon points="172.646 157.815 173.934 159.295 175.221 157.815 173.934 156.335 172.646 157.815" fill="#dcdcdc"/>
  <polygon points="173.934 151.031 175.221 149.551 173.934 148.072 172.645 149.551 173.934 151.031" fill="#dcdcdc"/>
  <polygon points="173.934 142.766 175.221 141.286 173.934 139.807 172.645 141.286 173.934 142.766" fill="#dcdcdc"/>
  <polygon points="173.934 134.502 175.221 133.022 173.934 131.543 172.645 133.022 173.934 134.502" fill="#dcdcdc"/>
  <polygon points="173.934 126.237 175.221 124.758 173.934 123.279 172.645 124.758 173.934 126.237" fill="#dcdcdc"/>
  <polygon points="173.934 117.973 175.221 116.493 173.934 115.014 172.645 116.493 173.934 117.973" fill="#dcdcdc"/>
  <polygon points="173.934 109.709 175.221 108.23 173.934 106.75 172.645 108.23 173.934 109.709" fill="#dcdcdc"/>
  <polygon points="173.934 101.444 175.221 99.965 173.934 98.485 172.645 99.965 173.934 101.444" fill="#dcdcdc"/>
  <polygon points="181.125 156.335 179.839 157.815 181.125 159.295 182.412 157.815 181.125 156.335" fill="#dcdcdc"/>
  <polygon points="181.125 148.072 179.839 149.551 181.125 151.031 182.412 149.551 181.125 148.072" fill="#dcdcdc"/>
  <polygon points="181.125 139.807 179.839 141.286 181.125 142.766 182.412 141.286 181.125 139.807" fill="#dcdcdc"/>
  <polygon points="181.125 131.543 179.839 133.022 181.125 134.502 182.412 133.022 181.125 131.543" fill="#dcdcdc"/>
  <polygon points="181.125 123.279 179.839 124.758 181.125 126.237 182.412 124.758 181.125 123.279" fill="#dcdcdc"/>
  <polygon points="181.125 115.014 179.839 116.493 181.125 117.973 182.412 116.493 181.125 115.014" fill="#dcdcdc"/>
  <polygon points="181.125 106.75 179.839 108.23 181.125 109.709 182.412 108.23 181.125 106.75" fill="#dcdcdc"/>
  <polygon points="181.125 98.485 179.839 99.965 181.125 101.444 182.412 99.965 181.125 98.485" fill="#dcdcdc"/>
  <polygon points="187.03 157.815 188.316 159.295 189.604 157.815 188.316 156.335 187.03 157.815" fill="#dcdcdc"/>
  <polygon points="188.316 148.072 187.03 149.551 188.316 151.031 189.606 149.551 188.316 148.072" fill="#dcdcdc"/>
  <polygon points="188.316 139.807 187.03 141.286 188.316 142.766 189.606 141.286 188.316 139.807" fill="#dcdcdc"/>
  <polygon points="188.316 131.543 187.03 133.022 188.316 134.502 189.606 133.022 188.316 131.543" fill="#dcdcdc"/>
  <polygon points="188.316 123.279 187.03 124.758 188.316 126.237 189.606 124.758 188.316 123.279" fill="#dcdcdc"/>
  <polygon points="188.316 115.014 187.03 116.493 188.316 117.973 189.606 116.493 188.316 115.014" fill="#dcdcdc"/>
  <polygon points="188.316 106.75 187.03 108.23 188.316 109.709 189.606 108.23 188.316 106.75" fill="#dcdcdc"/>
  <polygon points="188.316 98.485 187.03 99.965 188.316 101.444 189.606 99.965 188.316 98.485" fill="#dcdcdc"/>
  <path d="M240.612,171.972l-1.287,1.48.269.309c.355-.581.7-1.168,1.046-1.756Z" transform="translate(-45 -15.637)"
        fill="#dcdcdc"/>
  <polygon points="194.325 149.551 195.612 151.031 196.899 149.551 195.612 148.072 194.325 149.551" fill="#dcdcdc"/>
  <polygon points="195.612 139.807 194.325 141.286 195.612 142.766 196.899 141.286 195.612 139.807" fill="#dcdcdc"/>
  <polygon points="195.612 131.543 194.325 133.022 195.612 134.502 196.899 133.022 195.612 131.543" fill="#dcdcdc"/>
  <polygon points="195.612 123.279 194.325 124.758 195.612 126.237 196.899 124.758 195.612 123.279" fill="#dcdcdc"/>
  <polygon points="195.612 115.014 194.325 116.493 195.612 117.973 196.899 116.493 195.612 115.014" fill="#dcdcdc"/>
  <polygon points="195.612 106.75 194.325 108.23 195.612 109.709 196.899 108.23 195.612 106.75" fill="#dcdcdc"/>
  <polygon points="195.612 98.485 194.325 99.965 195.612 101.444 196.899 99.965 195.612 98.485" fill="#dcdcdc"/>
  <path d="M247.8,155.444l-1.287,1.479.969,1.115c.273-.678.536-1.362.794-2.047Z" transform="translate(-45 -15.637)"
        fill="#dcdcdc"/>
  <polygon points="201.516 133.022 202.803 134.502 204.092 133.022 202.803 131.543 201.516 133.022" fill="#dcdcdc"/>
  <polygon points="202.803 123.279 201.516 124.758 202.803 126.237 204.092 124.758 202.803 123.279" fill="#dcdcdc"/>
  <polygon points="202.803 115.014 201.516 116.493 202.803 117.973 204.092 116.493 202.803 115.014" fill="#dcdcdc"/>
  <polygon points="202.803 106.75 201.516 108.23 202.803 109.709 204.092 108.23 202.803 106.75" fill="#dcdcdc"/>
  <polygon points="202.803 98.485 201.516 99.965 202.803 101.444 204.092 99.965 202.803 98.485" fill="#dcdcdc"/>
  <path d="M253.708,132.13l.421.484c.048-.374.091-.749.136-1.124Z" transform="translate(-45 -15.637)" fill="#dcdcdc"/>
  <path d="M253.708,123.867l1.122,1.289q.079-1.358.126-2.724Z" transform="translate(-45 -15.637)" fill="#dcdcdc"/>
  <path d="M253.708,115.6,255,117.081v-.005q-.024-1.435-.085-2.861Z" transform="translate(-45 -15.637)" fill="#dcdcdc"/>
  <path d="M46.417,147.329c.187.667.383,1.33.582,1.991l.575-.661Z" transform="translate(-45 -15.637)" fill="#dcdcdc"/>
  <polygon points="2.574 124.758 1.287 123.279 0 124.758 1.287 126.237 2.574 124.758" fill="#dcdcdc"/>
  <polygon points="0 116.493 1.287 117.973 2.574 116.493 1.287 115.014 0 116.493" fill="#dcdcdc"/>
  <polygon points="1.287 106.75 0 108.23 1.287 109.709 2.574 108.23 1.287 106.75" fill="#dcdcdc"/>
  <polygon points="1.287 98.485 0 99.965 1.287 101.444 2.574 99.965 1.287 98.485" fill="#dcdcdc"/>
  <path d="M53.479,163.709l-.618.709c.3.633.617,1.261.934,1.887l.971-1.117Z" transform="translate(-45 -15.637)"
        fill="#dcdcdc"/>
  <polygon points="7.19 141.286 8.479 142.766 9.766 141.286 8.479 139.807 7.19 141.286" fill="#dcdcdc"/>
  <polygon points="8.479 131.543 7.19 133.022 8.479 134.502 9.766 133.022 8.479 131.543" fill="#dcdcdc"/>
  <polygon points="8.479 123.279 7.19 124.758 8.479 126.237 9.766 124.758 8.479 123.279" fill="#dcdcdc"/>
  <polygon points="8.479 115.014 7.19 116.493 8.479 117.973 9.766 116.493 8.479 115.014" fill="#dcdcdc"/>
  <polygon points="8.479 106.75 7.19 108.23 8.479 109.709 9.766 108.23 8.479 106.75" fill="#dcdcdc"/>
  <polygon points="8.479 98.485 7.19 99.965 8.479 101.444 9.766 99.965 8.479 98.485" fill="#dcdcdc"/>
  <polygon points="21.676 165.907 22.965 167.386 24.252 165.907 22.965 164.427 21.676 165.907" fill="#dcdcdc"/>
  <polygon points="31.443 174.17 30.156 172.691 28.869 174.17 30.156 175.65 31.443 174.17" fill="#dcdcdc"/>
  <polygon points="28.869 165.907 30.156 167.386 31.443 165.907 30.156 164.427 28.869 165.907" fill="#dcdcdc"/>
  <polygon points="36.06 182.435 37.347 183.914 38.636 182.435 37.347 180.956 36.06 182.435" fill="#dcdcdc"/>
  <polygon points="37.347 172.691 36.06 174.17 37.347 175.65 38.636 174.17 37.347 172.691" fill="#dcdcdc"/>
  <polygon points="37.347 164.427 36.06 165.907 37.347 167.386 38.636 165.907 37.347 164.427" fill="#dcdcdc"/>
  <path d="M89.539,204.857l-.98,1.127q.807.552,1.624,1.091l.643-.739Z" transform="translate(-45 -15.637)"
        fill="#dcdcdc"/>
  <polygon points="43.253 182.435 44.539 183.914 45.826 182.435 44.539 180.956 43.253 182.435" fill="#dcdcdc"/>
  <polygon points="44.539 172.691 43.253 174.17 44.539 175.65 45.826 174.17 44.539 172.691" fill="#dcdcdc"/>
  <polygon points="44.539 164.427 43.253 165.907 44.539 167.386 45.826 165.907 44.539 164.427" fill="#dcdcdc"/>
  <polygon points="50.444 190.699 51.73 192.179 53.017 190.699 51.73 189.22 50.444 190.699" fill="#dcdcdc"/>
  <polygon points="51.73 180.956 50.444 182.435 51.73 183.914 53.017 182.435 51.73 180.956" fill="#dcdcdc"/>
  <polygon points="51.73 172.691 50.444 174.17 51.73 175.65 53.017 174.17 51.73 172.691" fill="#dcdcdc"/>
  <polygon points="51.73 164.427 50.444 165.907 51.73 167.386 53.017 165.907 51.73 164.427" fill="#dcdcdc"/>
  <path d="M103.922,213.121l-1,1.149q.912.435,1.834.852l.455-.522Z" transform="translate(-45 -15.637)" fill="#dcdcdc"/>
  <polygon points="57.635 190.699 58.922 192.179 60.211 190.699 58.922 189.22 57.635 190.699" fill="#dcdcdc"/>
  <polygon points="58.922 180.956 57.635 182.435 58.922 183.914 60.211 182.435 58.922 180.956" fill="#dcdcdc"/>
  <polygon points="58.922 172.691 57.635 174.17 58.922 175.65 60.211 174.17 58.922 172.691" fill="#dcdcdc"/>
  <polygon points="58.922 164.427 57.635 165.907 58.922 167.386 60.211 165.907 58.922 164.427" fill="#dcdcdc"/>
  <polygon points="64.827 198.963 66.114 200.443 67.401 198.963 66.114 197.484 64.827 198.963" fill="#dcdcdc"/>
  <polygon points="66.114 189.22 64.827 190.699 66.114 192.179 67.401 190.699 66.114 189.22" fill="#dcdcdc"/>
  <polygon points="66.114 180.956 64.827 182.435 66.114 183.914 67.401 182.435 66.114 180.956" fill="#dcdcdc"/>
  <polygon points="66.114 172.691 64.827 174.17 66.114 175.65 67.401 174.17 66.114 172.691" fill="#dcdcdc"/>
  <polygon points="66.114 164.427 64.827 165.907 66.114 167.386 67.401 165.907 66.114 164.427" fill="#dcdcdc"/>
  <polygon points="72.018 198.963 73.305 200.443 74.592 198.963 73.305 197.484 72.018 198.963" fill="#dcdcdc"/>
  <polygon points="73.305 189.22 72.018 190.699 73.305 192.179 74.592 190.699 73.305 189.22" fill="#dcdcdc"/>
  <polygon points="73.305 180.956 72.018 182.435 73.305 183.914 74.592 182.435 73.305 180.956" fill="#dcdcdc"/>
  <polygon points="73.305 172.691 72.018 174.17 73.305 175.65 74.592 174.17 73.305 172.691" fill="#dcdcdc"/>
  <polygon points="73.305 164.427 72.018 165.907 73.305 167.386 74.592 165.907 73.305 164.427" fill="#dcdcdc"/>
  <polygon points="79.208 198.963 80.497 200.443 81.784 198.963 80.497 197.484 79.208 198.963" fill="#dcdcdc"/>
  <polygon points="80.497 189.22 79.208 190.699 80.497 192.179 81.784 190.699 80.497 189.22" fill="#dcdcdc"/>
  <polygon points="80.497 180.956 79.208 182.435 80.497 183.914 81.784 182.435 80.497 180.956" fill="#dcdcdc"/>
  <polygon points="80.497 172.691 79.208 174.17 80.497 175.65 81.784 174.17 80.497 172.691" fill="#dcdcdc"/>
  <polygon points="80.497 164.427 79.208 165.907 80.497 167.386 81.784 165.907 80.497 164.427" fill="#dcdcdc"/>
  <polygon points="87.688 200.443 88.975 198.963 87.688 197.484 86.401 198.963 87.688 200.443" fill="#dcdcdc"/>
  <polygon points="87.688 192.179 88.975 190.699 87.688 189.22 86.401 190.699 87.688 192.179" fill="#dcdcdc"/>
  <polygon points="87.688 183.914 88.975 182.435 87.688 180.956 86.401 182.435 87.688 183.914" fill="#dcdcdc"/>
  <polygon points="87.688 175.65 88.975 174.17 87.688 172.691 86.401 174.17 87.688 175.65" fill="#dcdcdc"/>
  <polygon points="87.688 167.386 88.975 165.907 87.688 164.427 86.401 165.907 87.688 167.386" fill="#dcdcdc"/>
  <polygon points="94.879 200.443 96.168 198.963 94.879 197.484 93.592 198.963 94.879 200.443" fill="#dcdcdc"/>
  <polygon points="94.879 192.179 96.168 190.699 94.879 189.22 93.592 190.699 94.879 192.179" fill="#dcdcdc"/>
  <polygon points="94.879 183.914 96.168 182.435 94.879 180.956 93.592 182.435 94.879 183.914" fill="#dcdcdc"/>
  <polygon points="94.879 175.65 96.168 174.17 94.879 172.691 93.592 174.17 94.879 175.65" fill="#dcdcdc"/>
  <polygon points="94.879 167.386 96.168 165.907 94.879 164.427 93.592 165.907 94.879 167.386" fill="#dcdcdc"/>
  <polygon points="14.486 157.815 15.773 159.295 17.06 157.815 15.773 156.335 14.486 157.815" fill="#dcdcdc"/>
  <polygon points="15.773 148.072 14.486 149.551 15.773 151.031 17.06 149.551 15.773 148.072" fill="#dcdcdc"/>
  <polygon points="15.773 139.807 14.486 141.286 15.773 142.766 17.06 141.286 15.773 139.807" fill="#dcdcdc"/>
  <polygon points="15.773 131.543 14.486 133.022 15.773 134.502 17.06 133.022 15.773 131.543" fill="#dcdcdc"/>
  <polygon points="15.773 123.279 14.486 124.758 15.773 126.237 17.06 124.758 15.773 123.279" fill="#dcdcdc"/>
  <polygon points="15.773 115.014 14.486 116.493 15.773 117.973 17.06 116.493 15.773 115.014" fill="#dcdcdc"/>
  <polygon points="15.773 106.75 14.486 108.23 15.773 109.709 17.06 108.23 15.773 106.75" fill="#dcdcdc"/>
  <polygon points="15.773 98.485 14.486 99.965 15.773 101.444 17.06 99.965 15.773 98.485" fill="#dcdcdc"/>
  <polygon points="22.965 156.335 21.677 157.815 22.965 159.295 24.252 157.815 22.965 156.335" fill="#dcdcdc"/>
  <polygon points="22.965 148.072 21.676 149.551 22.965 151.031 24.252 149.551 22.965 148.072" fill="#dcdcdc"/>
  <polygon points="22.965 139.807 21.676 141.286 22.965 142.766 24.252 141.286 22.965 139.807" fill="#dcdcdc"/>
  <polygon points="22.965 131.543 21.676 133.022 22.965 134.502 24.252 133.022 22.965 131.543" fill="#dcdcdc"/>
  <polygon points="22.965 123.279 21.676 124.758 22.965 126.237 24.252 124.758 22.965 123.279" fill="#dcdcdc"/>
  <polygon points="22.965 115.014 21.676 116.493 22.965 117.973 24.252 116.493 22.965 115.014" fill="#dcdcdc"/>
  <polygon points="22.965 106.75 21.676 108.23 22.965 109.709 24.252 108.23 22.965 106.75" fill="#dcdcdc"/>
  <polygon points="22.965 98.485 21.676 99.965 22.965 101.444 24.252 99.965 22.965 98.485" fill="#dcdcdc"/>
  <polygon points="30.156 156.335 28.869 157.815 30.156 159.295 31.443 157.815 30.156 156.335" fill="#dcdcdc"/>
  <polygon points="30.156 148.072 28.869 149.551 30.156 151.031 31.443 149.551 30.156 148.072" fill="#dcdcdc"/>
  <polygon points="30.156 139.807 28.869 141.286 30.156 142.766 31.443 141.286 30.156 139.807" fill="#dcdcdc"/>
  <polygon points="30.156 131.543 28.869 133.022 30.156 134.502 31.443 133.022 30.156 131.543" fill="#dcdcdc"/>
  <polygon points="30.156 123.279 28.869 124.758 30.156 126.237 31.443 124.758 30.156 123.279" fill="#dcdcdc"/>
  <polygon points="30.156 115.014 28.869 116.493 30.156 117.973 31.443 116.493 30.156 115.014" fill="#dcdcdc"/>
  <polygon points="30.156 106.75 28.869 108.23 30.156 109.709 31.443 108.23 30.156 106.75" fill="#dcdcdc"/>
  <polygon points="30.156 98.485 28.869 99.965 30.156 101.444 31.443 99.965 30.156 98.485" fill="#dcdcdc"/>
  <polygon points="38.635 157.815 37.347 156.335 36.06 157.815 37.347 159.295 38.635 157.815" fill="#dcdcdc"/>
  <polygon points="37.347 148.072 36.06 149.551 37.347 151.031 38.636 149.551 37.347 148.072" fill="#dcdcdc"/>
  <polygon points="37.347 139.807 36.06 141.286 37.347 142.766 38.636 141.286 37.347 139.807" fill="#dcdcdc"/>
  <polygon points="37.347 131.543 36.06 133.022 37.347 134.502 38.636 133.022 37.347 131.543" fill="#dcdcdc"/>
  <polygon points="37.347 123.279 36.06 124.758 37.347 126.237 38.636 124.758 37.347 123.279" fill="#dcdcdc"/>
  <polygon points="37.347 115.014 36.06 116.493 37.347 117.973 38.636 116.493 37.347 115.014" fill="#dcdcdc"/>
  <polygon points="37.347 106.75 36.06 108.23 37.347 109.709 38.636 108.23 37.347 106.75" fill="#dcdcdc"/>
  <polygon points="37.347 98.485 36.06 99.965 37.347 101.444 38.636 99.965 37.347 98.485" fill="#dcdcdc"/>
  <polygon points="44.539 156.335 43.253 157.815 44.539 159.295 45.826 157.815 44.539 156.335" fill="#dcdcdc"/>
  <polygon points="44.539 148.072 43.253 149.551 44.539 151.031 45.826 149.551 44.539 148.072" fill="#dcdcdc"/>
  <polygon points="44.539 139.807 43.253 141.286 44.539 142.766 45.826 141.286 44.539 139.807" fill="#dcdcdc"/>
  <polygon points="44.539 131.543 43.253 133.022 44.539 134.502 45.826 133.022 44.539 131.543" fill="#dcdcdc"/>
  <polygon points="44.539 123.279 43.253 124.758 44.539 126.237 45.826 124.758 44.539 123.279" fill="#dcdcdc"/>
  <polygon points="44.539 115.014 43.253 116.493 44.539 117.973 45.826 116.493 44.539 115.014" fill="#dcdcdc"/>
  <polygon points="44.539 106.75 43.253 108.23 44.539 109.709 45.826 108.23 44.539 106.75" fill="#dcdcdc"/>
  <polygon points="44.539 98.485 43.253 99.965 44.539 101.444 45.826 99.965 44.539 98.485" fill="#dcdcdc"/>
  <polygon points="51.73 156.335 50.444 157.815 51.73 159.295 53.017 157.815 51.73 156.335" fill="#dcdcdc"/>
  <polygon points="51.73 148.072 50.444 149.551 51.73 151.031 53.017 149.551 51.73 148.072" fill="#dcdcdc"/>
  <polygon points="51.73 139.807 50.444 141.286 51.73 142.766 53.017 141.286 51.73 139.807" fill="#dcdcdc"/>
  <polygon points="51.73 131.543 50.444 133.022 51.73 134.502 53.017 133.022 51.73 131.543" fill="#dcdcdc"/>
  <polygon points="51.73 123.279 50.444 124.758 51.73 126.237 53.017 124.758 51.73 123.279" fill="#dcdcdc"/>
  <polygon points="51.73 115.014 50.444 116.493 51.73 117.973 53.017 116.493 51.73 115.014" fill="#dcdcdc"/>
  <polygon points="51.73 106.75 50.444 108.23 51.73 109.709 53.017 108.23 51.73 106.75" fill="#dcdcdc"/>
  <polygon points="51.73 98.485 50.444 99.965 51.73 101.444 53.017 99.965 51.73 98.485" fill="#dcdcdc"/>
  <polygon points="60.21 157.815 58.922 156.335 57.635 157.815 58.922 159.295 60.21 157.815" fill="#dcdcdc"/>
  <polygon points="58.922 148.072 57.635 149.551 58.922 151.031 60.211 149.551 58.922 148.072" fill="#dcdcdc"/>
  <polygon points="58.922 139.807 57.635 141.286 58.922 142.766 60.211 141.286 58.922 139.807" fill="#dcdcdc"/>
  <polygon points="58.922 131.543 57.635 133.022 58.922 134.502 60.211 133.022 58.922 131.543" fill="#dcdcdc"/>
  <path d="M104.46,141.25l-.54.62-1.28-1.47.96-1.11C103.87,139.95,104.16,140.61,104.46,141.25Z"
        transform="translate(-45 -15.637)" fill="#dcdcdc"/>
  <polygon points="66.114 156.335 64.827 157.815 66.114 159.295 67.401 157.815 66.114 156.335" fill="#dcdcdc"/>
  <polygon points="66.114 148.072 64.827 149.551 66.114 151.031 67.401 149.551 66.114 148.072" fill="#dcdcdc"/>
  <polygon points="66.114 139.807 64.827 141.286 66.114 142.766 67.401 141.286 66.114 139.807" fill="#dcdcdc"/>
  <polygon points="73.305 156.335 72.018 157.815 73.305 159.295 74.592 157.815 73.305 156.335" fill="#dcdcdc"/>
  <polygon points="73.305 148.072 72.018 149.551 73.305 151.031 74.592 149.551 73.305 148.072" fill="#dcdcdc"/>
  <polygon points="80.497 156.335 79.209 157.815 80.497 159.295 81.784 157.815 80.497 156.335" fill="#dcdcdc"/>
  <polygon points="87.688 159.295 88.975 157.815 87.688 156.335 86.401 157.815 87.688 159.295" fill="#dcdcdc"/>
  <polygon points="94.879 159.295 96.167 157.815 94.879 156.335 93.592 157.815 94.879 159.295" fill="#dcdcdc"/>
  <polygon points="102.02 208.726 103.306 207.247 102.02 205.768 100.733 207.247 102.02 208.726" fill="#dcdcdc"/>
  <polygon points="110.497 207.247 109.211 205.768 107.924 207.247 109.211 208.726 110.497 207.247" fill="#dcdcdc"/>
  <path d="M161.4,221.405l-1.287,1.479.879,1.011c.3-.035.6-.067.906-.1l.791-.907Z" transform="translate(-45 -15.637)"
        fill="#dcdcdc"/>
  <path d="M168.594,221.405l-1.287,1.479.079.091c.74-.13,1.477-.271,2.211-.416Z" transform="translate(-45 -15.637)"
        fill="#dcdcdc"/>
  <path d="M125.5,221.405l-.469.538c.383.087.769.167,1.154.25Z" transform="translate(-45 -15.637)" fill="#dcdcdc"/>
  <path d="M132.688,221.405l-1.287,1.479.3.347q.867.14,1.74.265l.532-.612Z" transform="translate(-45 -15.637)"
        fill="#dcdcdc"/>
  <path d="M139.879,221.405l-1.287,1.479,1.155,1.328.245.022,1.176-1.35Z" transform="translate(-45 -15.637)"
        fill="#dcdcdc"/>
  <g class="sg-icon-loader-circular">
    <circle class="sg-icon-loader-path" cx="105" cy="104.363" r="20" fill="none" stroke-width="3" stroke-miterlimit="10"/>
  </g>
</svg>
