<svg xmlns="http://www.w3.org/2000/svg" viewBox="0 0 144 144"><g opacity="0"><rect width="144" height="144" fill="#fff"/></g><polygon points="69.955 15.699 99.478 66.833 129 117.968 69.955 117.968 10.911 117.968 40.433 66.833 69.955 15.699" class="sgmaincolor"/><path d="M129.866,117.468,70.822,15.2a1.041,1.041,0,0,0-1.733,0L10.044,117.468a1,1,0,0,0,.866,1.5H129a1,1,0,0,0,.866-1.5Zm-117.223-.5L69.955,17.7l57.313,99.269Z"/><path d="M68.955,37.871V86.952a1,1,0,0,0,2,0V37.871a1,1,0,1,0-2,0Z"/><path d="M64.313,99.554a5.643,5.643,0,1,0,5.642-5.643A5.648,5.648,0,0,0,64.313,99.554Zm9.285,0a3.643,3.643,0,1,1-3.643-3.643A3.646,3.646,0,0,1,73.6,99.554Z"/><path d="M104.436,39.967l20.219,5.719a1,1,0,0,0,1.242-1.207L120.74,24.11a1,1,0,0,0-1.667-.472l-15.062,14.65a1,1,0,0,0,.425,1.679Zm14.79-13.688,4.306,17.011-16.885-4.776Z"/><path d="M17.175,63.608a1,1,0,0,0,1.618.616L31.222,54.109a1,1,0,0,0-.274-1.71L15.973,46.693a1,1,0,0,0-1.344,1.093Zm11.441-9.957-9.742,7.928-1.995-12.4Z"/></svg>