<svg xmlns="http://www.w3.org/2000/svg" viewBox="0 0 63.4 63.4"><path d="M48 41.2c-.4.4-.4 1 0 1.4l2.5 2.5c.2.2.4.3.7.3.3 0 .5-.1.7-.3.4-.4.4-1 0-1.4l-2.5-2.5c-.4-.4-1-.4-1.4 0zm13.7 12.3l-7.3-7.3c-.4-.4-1-.4-1.4 0s-.4 1 0 1.4l7.3 7.3c.7.7 1.1 1.7 1.1 2.7 0 1-.4 2-1.1 2.7-1.4 1.4-3.9 1.4-5.4 0L42.6 48c-.4-.4-1-.4-1.4 0s-.4 1 0 1.4l12.3 12.3c1.1 1.1 2.5 1.7 4.1 1.7 1.5 0 3-.6 4.1-1.7 1.1-1.1 1.7-2.5 1.7-4.1 0-1.6-.6-3-1.7-4.1zm-10.8-28C50.9 11.4 39.5 0 25.5 0 11.4 0 0 11.4 0 25.5 0 39.5 11.4 51 25.5 51c14-.1 25.4-11.5 25.4-25.5zM25.5 48.9C12.5 48.9 2 38.4 2 25.5S12.5 2 25.5 2C38.4 2 49 12.5 49 25.5c-.1 12.9-10.6 23.4-23.5 23.4z"></path><path d="M25.5 4.1c-11.8 0-21.3 9.6-21.3 21.3 0 11.8 9.6 21.3 21.3 21.3s21.3-9.6 21.3-21.3c0-11.7-9.6-21.3-21.3-21.3zm0 40.7c-10.7 0-19.3-8.7-19.3-19.3S14.8 6.1 25.5 6.1s19.3 8.7 19.3 19.3-8.7 19.4-19.3 19.4z"></path><path d="M35.1 16.2h-4.4v-1.7c0-.6-.4-1-1-1s-1 .4-1 1v1.7h-14c-.6 0-1 .4-1 1s.4 1 1 1h14v1.7c0 .6.4 1 1 1s1-.4 1-1v-1.7h4.4c.6 0 1-.4 1-1s-.4-1-1-1zm0 8.2H19.8v-1.7c0-.6-.4-1-1-1s-1 .4-1 1v1.7h-3.1c-.6 0-1 .4-1 1s.4 1 1 1h3.1v1.7c0 .6.4 1 1 1s1-.4 1-1v-1.7h15.3c.6 0 1-.4 1-1s-.4-1-1-1zm0 8.2H23.9v-1.7c0-.6-.4-1-1-1s-1 .4-1 1v1.7h-7.2c-.6 0-1 .4-1 1s.4 1 1 1h7.2v1.7c0 .6.4 1 1 1s1-.4 1-1v-1.7h11.3c.6 0 1-.4 1-1s-.5-1-1.1-1z"></path></svg>