<svg xmlns="http://www.w3.org/2000/svg" viewBox="0 0 44.9 44.9"><path d="M12.7 12h9c.4 0 .7-.3.7-.7s-.3-.7-.7-.7h-9c-.4 0-.7.3-.7.7s.3.7.7.7zm4.5 11.9h-6c-.4 0-.7.3-.7.7 0 .4.3.7.7.7h6c.4 0 .7-.3.7-.7.1-.3-.3-.7-.7-.7zM15 20.2c0-.4-.3-.7-.7-.7H9.7c-.4 0-.7.3-.7.7 0 .4.3.8.7.8h4.5c.4 0 .8-.4.8-.8zm-5.3-3.7h10.5c.4 0 .7-.3.7-.7 0-.4-.3-.7-.7-.7H9.7c-.4-.1-.7.2-.7.6 0 .4.3.8.7.8zm13.5 7.4h-3c-.4 0-.7.3-.7.7 0 .4.3.7.7.7h3c.4 0 .7-.3.7-.7s-.3-.7-.7-.7zm10.7 5.7c-.3.3-.3.8 0 1.1l1.6 1.6c.3.3.8.3 1.1-.1.3-.3.3-.7 0-1L35 29.6c-.4-.2-.8-.2-1.1 0zm9.9 8.9l-5.2-5.2c-.2-.2-.4-.3-.6-.3-.2 0-.4.1-.5.2l-2.1 2.1c-.3.3-.3.8 0 1.1.3.3.8.3 1.1 0l1.6-1.6 4.7 4.7c.9.9.9 2.3 0 3.2s-2.3.9-3.2 0l-8.9-8.9c-.3-.3-.8-.3-1.1.1-.3.3-.3.7 0 1l8.9 8.9c1.5 1.5 3.8 1.5 5.3 0s1.5-3.8 0-5.3z"></path><path d="M35.9 18c0-9.9-8-18-18-18C8 0 0 8 0 18c0 9.9 8 18 18 18 9.9-.1 17.9-8.1 17.9-18zM18 34.4C8.9 34.4 1.5 27.1 1.5 18 1.5 8.9 8.9 1.5 18 1.5S34.5 8.9 34.5 18C34.4 27 27 34.4 18 34.4z"></path><path d="M18 3C9.7 3 3 9.7 3 18s6.7 15 15 15 15-6.7 15-15S26.2 3 18 3zm0 28.4c-7.4 0-13.5-6-13.5-13.5S10.5 4.5 18 4.5s13.5 6 13.5 13.5c-.1 7.4-6.1 13.4-13.5 13.4z"></path><path d="M26.2 19.5h-9c-.4 0-.7.3-.7.7 0 .4.3.7.7.7h9c.4 0 .7-.3.7-.7 0-.4-.3-.7-.7-.7zm0-4.5h-3c-.4 0-.7.3-.7.7 0 .4.3.7.7.7h3c.4 0 .7-.3.7-.7 0-.4-.3-.7-.7-.7z"></path></svg>