<svg id="b874e362-b57a-4221-b6ba-436eacd5abdc" data-name="Layer 1" xmlns="http://www.w3.org/2000/svg" viewBox="0 0 210 208.727"><polygon points="102.02 93.693 103.306 92.214 102.02 90.734 100.733 92.214 102.02 93.693" fill="#dcdcdc"/><polygon points="102.02 85.429 103.306 83.95 102.02 82.47 100.733 83.95 102.02 85.429" fill="#dcdcdc"/><polygon points="102.02 77.165 103.306 75.686 102.02 74.206 100.733 75.686 102.02 77.165" fill="#dcdcdc"/><polygon points="102.02 68.9 103.306 67.421 102.02 65.941 100.733 67.421 102.02 68.9" fill="#dcdcdc"/><polygon points="102.02 60.637 103.306 59.157 102.02 57.677 100.733 59.157 102.02 60.637" fill="#dcdcdc"/><polygon points="109.211 90.734 107.924 92.214 109.211 93.693 110.497 92.214 109.211 90.734" fill="#dcdcdc"/><polygon points="109.211 82.47 107.924 83.95 109.211 85.429 110.497 83.95 109.211 82.47" fill="#dcdcdc"/><polygon points="109.211 74.206 107.924 75.686 109.211 77.165 110.497 75.686 109.211 74.206" fill="#dcdcdc"/><polygon points="109.211 65.941 107.924 67.421 109.211 68.9 110.497 67.421 109.211 65.941" fill="#dcdcdc"/><polygon points="109.211 57.677 107.924 59.157 109.211 60.637 110.497 59.157 109.211 57.677" fill="#dcdcdc"/><polygon points="116.402 90.734 115.115 92.214 116.402 93.693 117.691 92.214 116.402 90.734" fill="#dcdcdc"/><polygon points="116.402 82.47 115.115 83.95 116.402 85.429 117.691 83.95 116.402 82.47" fill="#dcdcdc"/><polygon points="116.402 74.206 115.115 75.686 116.402 77.165 117.691 75.686 116.402 74.206" fill="#dcdcdc"/><polygon points="116.402 65.941 115.115 67.421 116.402 68.9 117.691 67.421 116.402 65.941" fill="#dcdcdc"/><polygon points="117.69 59.157 116.402 57.677 115.115 59.157 116.402 60.637 117.69 59.157" fill="#dcdcdc"/><polygon points="123.594 90.734 122.307 92.214 123.594 93.693 124.881 92.214 123.594 90.734" fill="#dcdcdc"/><polygon points="123.594 82.47 122.307 83.95 123.594 85.429 124.881 83.95 123.594 82.47" fill="#dcdcdc"/><polygon points="123.594 74.206 122.307 75.686 123.594 77.165 124.881 75.686 123.594 74.206" fill="#dcdcdc"/><polygon points="123.594 65.941 122.307 67.421 123.594 68.9 124.881 67.421 123.594 65.941" fill="#dcdcdc"/><polygon points="123.594 57.677 122.307 59.157 123.594 60.637 124.881 59.157 123.594 57.677" fill="#dcdcdc"/><polygon points="130.785 90.734 129.498 92.214 130.785 93.693 132.072 92.214 130.785 90.734" fill="#dcdcdc"/><polygon points="130.785 82.47 129.498 83.95 130.785 85.429 132.072 83.95 130.785 82.47" fill="#dcdcdc"/><polygon points="130.785 74.206 129.498 75.686 130.785 77.165 132.072 75.686 130.785 74.206" fill="#dcdcdc"/><polygon points="130.785 65.941 129.498 67.421 130.785 68.9 132.072 67.421 130.785 65.941" fill="#dcdcdc"/><polygon points="130.785 57.677 129.498 59.157 130.785 60.637 132.072 59.157 130.785 57.677" fill="#dcdcdc"/><polygon points="137.977 90.734 136.688 92.214 137.977 93.693 139.264 92.214 137.977 90.734" fill="#dcdcdc"/><polygon points="137.977 82.47 136.688 83.95 137.977 85.429 139.264 83.95 137.977 82.47" fill="#dcdcdc"/><polygon points="137.977 74.206 136.688 75.686 137.977 77.165 139.264 75.686 137.977 74.206" fill="#dcdcdc"/><polygon points="137.977 65.941 136.688 67.421 137.977 68.9 139.264 67.421 137.977 65.941" fill="#dcdcdc"/><polygon points="137.977 57.677 136.689 59.157 137.977 60.637 139.264 59.157 137.977 57.677" fill="#dcdcdc"/><polygon points="145.168 90.734 143.881 92.214 145.168 93.693 146.455 92.214 145.168 90.734" fill="#dcdcdc"/><polygon points="145.168 82.47 143.881 83.95 145.168 85.429 146.455 83.95 145.168 82.47" fill="#dcdcdc"/><polygon points="145.168 74.206 143.881 75.686 145.168 77.165 146.455 75.686 145.168 74.206" fill="#dcdcdc"/><polygon points="145.168 65.941 143.881 67.421 145.168 68.9 146.455 67.421 145.168 65.941" fill="#dcdcdc"/><polygon points="145.168 57.677 143.881 59.157 145.168 60.637 146.455 59.157 145.168 57.677" fill="#dcdcdc"/><polygon points="152.359 90.734 151.072 92.214 152.359 93.693 153.648 92.214 152.359 90.734" fill="#dcdcdc"/><polygon points="152.359 82.47 151.072 83.95 152.359 85.429 153.648 83.95 152.359 82.47" fill="#dcdcdc"/><polygon points="152.359 74.206 151.072 75.686 152.359 77.165 153.648 75.686 152.359 74.206" fill="#dcdcdc"/><polygon points="152.359 65.941 151.072 67.421 152.359 68.9 153.648 67.421 152.359 65.941" fill="#dcdcdc"/><polygon points="153.647 59.157 152.359 57.677 151.072 59.157 152.359 60.637 153.647 59.157" fill="#dcdcdc"/><polygon points="159.551 90.734 158.264 92.214 159.551 93.693 160.838 92.214 159.551 90.734" fill="#dcdcdc"/><polygon points="159.551 82.47 158.264 83.95 159.551 85.429 160.838 83.95 159.551 82.47" fill="#dcdcdc"/><polygon points="159.551 74.206 158.264 75.686 159.551 77.165 160.838 75.686 159.551 74.206" fill="#dcdcdc"/><polygon points="159.551 65.941 158.264 67.421 159.551 68.9 160.838 67.421 159.551 65.941" fill="#dcdcdc"/><polygon points="159.551 57.677 158.264 59.157 159.551 60.637 160.838 59.157 159.551 57.677" fill="#dcdcdc"/><polygon points="166.742 90.734 165.455 92.214 166.742 93.693 168.029 92.214 166.742 90.734" fill="#dcdcdc"/><polygon points="166.742 82.47 165.455 83.95 166.742 85.429 168.029 83.95 166.742 82.47" fill="#dcdcdc"/><polygon points="166.742 74.206 165.455 75.686 166.742 77.165 168.029 75.686 166.742 74.206" fill="#dcdcdc"/><polygon points="166.742 65.941 165.455 67.421 166.742 68.9 168.029 67.421 166.742 65.941" fill="#dcdcdc"/><polygon points="166.742 57.677 165.455 59.157 166.742 60.637 168.029 59.157 166.742 57.677" fill="#dcdcdc"/><polygon points="173.934 93.693 175.221 92.214 173.934 90.734 172.645 92.214 173.934 93.693" fill="#dcdcdc"/><polygon points="173.934 85.429 175.221 83.95 173.934 82.47 172.645 83.95 173.934 85.429" fill="#dcdcdc"/><polygon points="173.934 77.165 175.221 75.686 173.934 74.206 172.645 75.686 173.934 77.165" fill="#dcdcdc"/><polygon points="173.934 68.9 175.221 67.421 173.934 65.941 172.645 67.421 173.934 68.9" fill="#dcdcdc"/><polygon points="172.646 59.157 173.934 60.637 175.221 59.157 173.934 57.677 172.646 59.157" fill="#dcdcdc"/><polygon points="181.125 90.734 179.839 92.214 181.125 93.693 182.412 92.214 181.125 90.734" fill="#dcdcdc"/><polygon points="181.125 82.47 179.839 83.95 181.125 85.429 182.412 83.95 181.125 82.47" fill="#dcdcdc"/><polygon points="181.125 74.206 179.839 75.686 181.125 77.165 182.412 75.686 181.125 74.206" fill="#dcdcdc"/><polygon points="181.125 65.941 179.839 67.421 181.125 68.9 182.412 67.421 181.125 65.941" fill="#dcdcdc"/><polygon points="181.125 57.677 179.839 59.157 181.125 60.637 182.412 59.157 181.125 57.677" fill="#dcdcdc"/><polygon points="188.316 90.734 187.03 92.214 188.316 93.693 189.606 92.214 188.316 90.734" fill="#dcdcdc"/><polygon points="188.316 82.47 187.03 83.95 188.316 85.429 189.606 83.95 188.316 82.47" fill="#dcdcdc"/><polygon points="188.316 74.206 187.03 75.686 188.316 77.165 189.606 75.686 188.316 74.206" fill="#dcdcdc"/><polygon points="188.316 65.941 187.03 67.421 188.316 68.9 189.606 67.421 188.316 65.941" fill="#dcdcdc"/><polygon points="189.604 59.157 188.316 57.677 187.03 59.157 188.316 60.637 189.604 59.157" fill="#dcdcdc"/><polygon points="102.02 52.545 103.306 51.065 102.02 49.586 100.733 51.065 102.02 52.545" fill="#dcdcdc"/><polygon points="102.02 44.281 103.306 42.801 102.02 41.322 100.733 42.801 102.02 44.281" fill="#dcdcdc"/><polygon points="102.02 36.016 103.306 34.537 102.02 33.057 100.733 34.537 102.02 36.016" fill="#dcdcdc"/><polygon points="102.02 27.752 103.306 26.272 102.02 24.793 100.733 26.272 102.02 27.752" fill="#dcdcdc"/><polygon points="102.02 19.488 103.306 18.008 102.02 16.529 100.733 18.008 102.02 19.488" fill="#dcdcdc"/><polygon points="103.306 9.744 102.02 8.264 100.733 9.744 102.02 11.223 103.306 9.744" fill="#dcdcdc"/><polygon points="100.733 1.48 102.02 2.959 103.306 1.48 102.02 0 100.733 1.48" fill="#dcdcdc"/><polygon points="109.211 49.586 107.924 51.065 109.211 52.545 110.497 51.065 109.211 49.586" fill="#dcdcdc"/><polygon points="109.211 41.322 107.924 42.801 109.211 44.281 110.497 42.801 109.211 41.322" fill="#dcdcdc"/><polygon points="109.211 33.057 107.924 34.537 109.211 36.016 110.497 34.537 109.211 33.057" fill="#dcdcdc"/><polygon points="109.211 24.793 107.924 26.272 109.211 27.752 110.497 26.272 109.211 24.793" fill="#dcdcdc"/><polygon points="109.211 16.529 107.924 18.008 109.211 19.488 110.497 18.008 109.211 16.529" fill="#dcdcdc"/><polygon points="109.211 8.264 107.924 9.744 109.211 11.223 110.497 9.744 109.211 8.264" fill="#dcdcdc"/><polygon points="109.211 0 107.924 1.48 109.211 2.959 110.497 1.48 109.211 0" fill="#dcdcdc"/><polygon points="116.402 49.586 115.115 51.065 116.402 52.545 117.691 51.065 116.402 49.586" fill="#dcdcdc"/><polygon points="116.402 41.322 115.115 42.801 116.402 44.281 117.691 42.801 116.402 41.322" fill="#dcdcdc"/><polygon points="116.402 33.057 115.115 34.537 116.402 36.016 117.691 34.537 116.402 33.057" fill="#dcdcdc"/><polygon points="116.402 24.793 115.115 26.272 116.402 27.752 117.691 26.272 116.402 24.793" fill="#dcdcdc"/><polygon points="116.402 16.529 115.115 18.008 116.402 19.488 117.691 18.008 116.402 16.529" fill="#dcdcdc"/><polygon points="116.402 8.264 115.115 9.744 116.402 11.223 117.691 9.744 116.402 8.264" fill="#dcdcdc"/><polygon points="116.402 0 115.115 1.48 116.402 2.959 117.691 1.48 116.402 0" fill="#dcdcdc"/><polygon points="123.594 49.586 122.307 51.065 123.594 52.545 124.881 51.065 123.594 49.586" fill="#dcdcdc"/><polygon points="123.594 41.322 122.307 42.801 123.594 44.281 124.881 42.801 123.594 41.322" fill="#dcdcdc"/><polygon points="123.594 33.057 122.307 34.537 123.594 36.016 124.881 34.537 123.594 33.057" fill="#dcdcdc"/><polygon points="123.594 24.793 122.307 26.272 123.594 27.752 124.881 26.272 123.594 24.793" fill="#dcdcdc"/><polygon points="123.594 16.529 122.307 18.008 123.594 19.488 124.881 18.008 123.594 16.529" fill="#dcdcdc"/><polygon points="123.594 8.264 122.307 9.744 123.594 11.223 124.881 9.744 123.594 8.264" fill="#dcdcdc"/><polygon points="123.594 0 122.307 1.48 123.594 2.959 124.881 1.48 123.594 0" fill="#dcdcdc"/><polygon points="130.785 49.586 129.498 51.065 130.785 52.545 132.072 51.065 130.785 49.586" fill="#dcdcdc"/><polygon points="130.785 41.322 129.498 42.801 130.785 44.281 132.072 42.801 130.785 41.322" fill="#dcdcdc"/><polygon points="130.785 33.057 129.498 34.537 130.785 36.016 132.072 34.537 130.785 33.057" fill="#dcdcdc"/><polygon points="130.785 24.793 129.498 26.272 130.785 27.752 132.072 26.272 130.785 24.793" fill="#dcdcdc"/><polygon points="130.785 16.529 129.498 18.008 130.785 19.488 132.072 18.008 130.785 16.529" fill="#dcdcdc"/><polygon points="130.785 8.264 129.498 9.744 130.785 11.223 132.072 9.744 130.785 8.264" fill="#dcdcdc"/><path d="M175.785,18.6l1.287-1.48-.217-.249c-.578-.157-1.156-.315-1.738-.462l-.619.711Z" transform="translate(-45 -15.637)" fill="#dcdcdc"/><polygon points="137.977 49.586 136.688 51.065 137.977 52.545 139.264 51.065 137.977 49.586" fill="#dcdcdc"/><polygon points="137.977 41.322 136.688 42.801 137.977 44.281 139.264 42.801 137.977 41.322" fill="#dcdcdc"/><polygon points="137.977 33.057 136.688 34.537 137.977 36.016 139.264 34.537 137.977 33.057" fill="#dcdcdc"/><polygon points="137.977 24.793 136.688 26.272 137.977 27.752 139.264 26.272 137.977 24.793" fill="#dcdcdc"/><polygon points="137.977 16.529 136.688 18.008 137.977 19.488 139.264 18.008 137.977 16.529" fill="#dcdcdc"/><polygon points="137.977 8.264 136.688 9.744 137.977 11.223 139.264 9.744 137.977 8.264" fill="#dcdcdc"/><polygon points="145.168 49.586 143.881 51.065 145.168 52.545 146.455 51.065 145.168 49.586" fill="#dcdcdc"/><polygon points="145.168 41.322 143.881 42.801 145.168 44.281 146.455 42.801 145.168 41.322" fill="#dcdcdc"/><polygon points="145.168 33.057 143.881 34.537 145.168 36.016 146.455 34.537 145.168 33.057" fill="#dcdcdc"/><polygon points="145.168 24.793 143.881 26.272 145.168 27.752 146.455 26.272 145.168 24.793" fill="#dcdcdc"/><polygon points="145.168 16.529 143.881 18.008 145.168 19.488 146.455 18.008 145.168 16.529" fill="#dcdcdc"/><polygon points="145.168 8.264 143.881 9.744 145.168 11.223 146.455 9.744 145.168 8.264" fill="#dcdcdc"/><polygon points="152.359 49.586 151.072 51.065 152.359 52.545 153.648 51.065 152.359 49.586" fill="#dcdcdc"/><polygon points="152.359 41.322 151.072 42.801 152.359 44.281 153.648 42.801 152.359 41.322" fill="#dcdcdc"/><polygon points="152.359 33.057 151.072 34.537 152.359 36.016 153.648 34.537 152.359 33.057" fill="#dcdcdc"/><polygon points="152.359 24.793 151.072 26.272 152.359 27.752 153.648 26.272 152.359 24.793" fill="#dcdcdc"/><polygon points="152.359 16.529 151.072 18.008 152.359 19.488 153.648 18.008 152.359 16.529" fill="#dcdcdc"/><path d="M197.359,26.86l1.227-1.408c-.589-.312-1.179-.621-1.774-.922l-.74.851Z" transform="translate(-45 -15.637)" fill="#dcdcdc"/><polygon points="159.551 49.586 158.264 51.065 159.551 52.545 160.838 51.065 159.551 49.586" fill="#dcdcdc"/><polygon points="159.551 41.322 158.264 42.801 159.551 44.281 160.838 42.801 159.551 41.322" fill="#dcdcdc"/><polygon points="159.551 33.057 158.264 34.537 159.551 36.016 160.838 34.537 159.551 33.057" fill="#dcdcdc"/><polygon points="159.551 24.793 158.264 26.272 159.551 27.752 160.838 26.272 159.551 24.793" fill="#dcdcdc"/><polygon points="159.551 16.529 158.264 18.008 159.551 19.488 160.838 18.008 159.551 16.529" fill="#dcdcdc"/><polygon points="166.742 49.586 165.455 51.065 166.742 52.545 168.029 51.065 166.742 49.586" fill="#dcdcdc"/><polygon points="166.742 41.322 165.455 42.801 166.742 44.281 168.029 42.801 166.742 41.322" fill="#dcdcdc"/><polygon points="166.742 33.057 165.455 34.537 166.742 36.016 168.029 34.537 166.742 33.057" fill="#dcdcdc"/><polygon points="166.742 24.793 165.455 26.272 166.742 27.752 168.029 26.272 166.742 24.793" fill="#dcdcdc"/><path d="M210.455,33.645l1.287,1.479.759-.871c-.521-.389-1.047-.77-1.575-1.149Z" transform="translate(-45 -15.637)" fill="#dcdcdc"/><polygon points="173.934 52.545 175.221 51.065 173.934 49.586 172.645 51.065 173.934 52.545" fill="#dcdcdc"/><polygon points="173.934 44.281 175.221 42.801 173.934 41.322 172.645 42.801 173.934 44.281" fill="#dcdcdc"/><polygon points="175.221 34.537 173.934 33.057 172.645 34.537 173.934 36.016 175.221 34.537" fill="#dcdcdc"/><polygon points="172.645 26.272 173.934 27.752 175.221 26.272 173.934 24.793 172.645 26.272" fill="#dcdcdc"/><polygon points="181.125 49.586 179.839 51.065 181.125 52.545 182.412 51.065 181.125 49.586" fill="#dcdcdc"/><polygon points="181.125 41.322 179.839 42.801 181.125 44.281 182.412 42.801 181.125 41.322" fill="#dcdcdc"/><polygon points="181.125 33.057 179.839 34.537 181.125 36.016 182.412 34.537 181.125 33.057" fill="#dcdcdc"/><polygon points="188.316 49.586 187.03 51.065 188.316 52.545 189.606 51.065 188.316 49.586" fill="#dcdcdc"/><polygon points="188.316 41.322 187.03 42.801 188.316 44.281 189.606 42.801 188.316 41.322" fill="#dcdcdc"/><polygon points="195.612 90.734 194.325 92.214 195.612 93.693 196.899 92.214 195.612 90.734" fill="#dcdcdc"/><polygon points="195.612 82.47 194.325 83.95 195.612 85.429 196.899 83.95 195.612 82.47" fill="#dcdcdc"/><polygon points="195.612 74.206 194.325 75.686 195.612 77.165 196.899 75.686 195.612 74.206" fill="#dcdcdc"/><polygon points="195.612 65.941 194.325 67.421 195.612 68.9 196.899 67.421 195.612 65.941" fill="#dcdcdc"/><polygon points="195.612 57.677 194.325 59.157 195.612 60.637 196.899 59.157 195.612 57.677" fill="#dcdcdc"/><polygon points="202.803 90.734 201.516 92.214 202.803 93.693 204.092 92.214 202.803 90.734" fill="#dcdcdc"/><polygon points="202.803 82.47 201.516 83.95 202.803 85.429 204.092 83.95 202.803 82.47" fill="#dcdcdc"/><polygon points="202.803 74.206 201.516 75.686 202.803 77.165 204.092 75.686 202.803 74.206" fill="#dcdcdc"/><path d="M246.516,83.058l1.287,1.479,1.06-1.217c-.106-.3-.207-.593-.316-.887l-.744-.855Z" transform="translate(-45 -15.637)" fill="#dcdcdc"/><path d="M254.365,107.1l-.657.754.834.959Q254.461,107.95,254.365,107.1Z" transform="translate(-45 -15.637)" fill="#dcdcdc"/><path d="M240.612,68.182l.868-1q-.5-.9-1.026-1.779l-1.129,1.3Z" transform="translate(-45 -15.637)" fill="#dcdcdc"/><polygon points="1.287 90.734 0 92.214 1.287 93.693 2.574 92.214 1.287 90.734" fill="#dcdcdc"/><polygon points="1.287 82.47 0 83.95 1.287 85.429 2.574 83.95 1.287 82.47" fill="#dcdcdc"/><path d="M46.287,92.8l1.287-1.479L46.5,90.087q-.318,1.122-.613,2.254Z" transform="translate(-45 -15.637)" fill="#dcdcdc"/><polygon points="8.479 90.734 7.19 92.214 8.479 93.693 9.766 92.214 8.479 90.734" fill="#dcdcdc"/><polygon points="8.479 82.47 7.19 83.95 8.479 85.429 9.766 83.95 8.479 82.47" fill="#dcdcdc"/><polygon points="8.479 74.206 7.19 75.686 8.479 77.165 9.766 75.686 8.479 74.206" fill="#dcdcdc"/><polygon points="8.479 65.941 7.19 67.421 8.479 68.9 9.766 67.421 8.479 65.941" fill="#dcdcdc"/><polygon points="8.479 57.677 7.191 59.157 8.479 60.637 9.766 59.157 8.479 57.677" fill="#dcdcdc"/><polygon points="15.773 90.734 14.486 92.214 15.773 93.693 17.06 92.214 15.773 90.734" fill="#dcdcdc"/><polygon points="15.773 82.47 14.486 83.95 15.773 85.429 17.06 83.95 15.773 82.47" fill="#dcdcdc"/><polygon points="15.773 74.206 14.486 75.686 15.773 77.165 17.06 75.686 15.773 74.206" fill="#dcdcdc"/><polygon points="15.773 65.941 14.486 67.421 15.773 68.9 17.06 67.421 15.773 65.941" fill="#dcdcdc"/><polygon points="15.773 57.677 14.486 59.157 15.773 60.637 17.06 59.157 15.773 57.677" fill="#dcdcdc"/><polygon points="22.965 90.734 21.676 92.214 22.965 93.693 24.252 92.214 22.965 90.734" fill="#dcdcdc"/><polygon points="22.965 82.47 21.676 83.95 22.965 85.429 24.252 83.95 22.965 82.47" fill="#dcdcdc"/><polygon points="22.965 74.206 21.676 75.686 22.965 77.165 24.252 75.686 22.965 74.206" fill="#dcdcdc"/><polygon points="22.965 65.941 21.676 67.421 22.965 68.9 24.252 67.421 22.965 65.941" fill="#dcdcdc"/><polygon points="22.965 57.677 21.677 59.157 22.965 60.637 24.252 59.157 22.965 57.677" fill="#dcdcdc"/><polygon points="30.156 90.734 28.869 92.214 30.156 93.693 31.443 92.214 30.156 90.734" fill="#dcdcdc"/><polygon points="30.156 82.47 28.869 83.95 30.156 85.429 31.443 83.95 30.156 82.47" fill="#dcdcdc"/><polygon points="30.156 74.206 28.869 75.686 30.156 77.165 31.443 75.686 30.156 74.206" fill="#dcdcdc"/><polygon points="30.156 65.941 28.869 67.421 30.156 68.9 31.443 67.421 30.156 65.941" fill="#dcdcdc"/><polygon points="30.156 57.677 28.869 59.157 30.156 60.637 31.443 59.157 30.156 57.677" fill="#dcdcdc"/><polygon points="37.347 90.734 36.06 92.214 37.347 93.693 38.636 92.214 37.347 90.734" fill="#dcdcdc"/><polygon points="37.347 82.47 36.06 83.95 37.347 85.429 38.636 83.95 37.347 82.47" fill="#dcdcdc"/><polygon points="37.347 74.206 36.06 75.686 37.347 77.165 38.636 75.686 37.347 74.206" fill="#dcdcdc"/><polygon points="37.347 65.941 36.06 67.421 37.347 68.9 38.636 67.421 37.347 65.941" fill="#dcdcdc"/><polygon points="38.635 59.157 37.347 57.677 36.06 59.157 37.347 60.637 38.635 59.157" fill="#dcdcdc"/><polygon points="44.539 90.734 43.253 92.214 44.539 93.693 45.826 92.214 44.539 90.734" fill="#dcdcdc"/><polygon points="44.539 82.47 43.253 83.95 44.539 85.429 45.826 83.95 44.539 82.47" fill="#dcdcdc"/><polygon points="44.539 74.206 43.253 75.686 44.539 77.165 45.826 75.686 44.539 74.206" fill="#dcdcdc"/><polygon points="44.539 65.941 43.253 67.421 44.539 68.9 45.826 67.421 44.539 65.941" fill="#dcdcdc"/><polygon points="44.539 57.677 43.253 59.157 44.539 60.637 45.826 59.157 44.539 57.677" fill="#dcdcdc"/><polygon points="51.73 90.734 50.444 92.214 51.73 93.693 53.017 92.214 51.73 90.734" fill="#dcdcdc"/><polygon points="51.73 82.47 50.444 83.95 51.73 85.429 53.017 83.95 51.73 82.47" fill="#dcdcdc"/><polygon points="51.73 74.206 50.444 75.686 51.73 77.165 53.017 75.686 51.73 74.206" fill="#dcdcdc"/><polygon points="51.73 65.941 50.444 67.421 51.73 68.9 53.017 67.421 51.73 65.941" fill="#dcdcdc"/><polygon points="51.73 57.677 50.444 59.157 51.73 60.637 53.017 59.157 51.73 57.677" fill="#dcdcdc"/><polygon points="58.922 90.734 57.635 92.214 58.922 93.693 60.211 92.214 58.922 90.734" fill="#dcdcdc"/><polygon points="58.922 82.47 57.635 83.95 58.922 85.429 60.211 83.95 58.922 82.47" fill="#dcdcdc"/><polygon points="58.922 74.206 57.635 75.686 58.922 77.165 60.211 75.686 58.922 74.206" fill="#dcdcdc"/><polygon points="58.922 65.941 57.635 67.421 58.922 68.9 60.211 67.421 58.922 65.941" fill="#dcdcdc"/><polygon points="60.21 59.157 58.922 57.677 57.635 59.157 58.922 60.637 60.21 59.157" fill="#dcdcdc"/><polygon points="66.114 90.734 64.827 92.214 66.114 93.693 67.401 92.214 66.114 90.734" fill="#dcdcdc"/><polygon points="66.114 82.47 64.827 83.95 66.114 85.429 67.401 83.95 66.114 82.47" fill="#dcdcdc"/><polygon points="66.114 74.206 64.827 75.686 66.114 77.165 67.401 75.686 66.114 74.206" fill="#dcdcdc"/><polygon points="66.114 65.941 64.827 67.421 66.114 68.9 67.401 67.421 66.114 65.941" fill="#dcdcdc"/><polygon points="66.114 57.677 64.827 59.157 66.114 60.637 67.401 59.157 66.114 57.677" fill="#dcdcdc"/><polygon points="73.305 90.734 72.018 92.214 73.305 93.693 74.592 92.214 73.305 90.734" fill="#dcdcdc"/><polygon points="73.305 82.47 72.018 83.95 73.305 85.429 74.592 83.95 73.305 82.47" fill="#dcdcdc"/><polygon points="73.305 74.206 72.018 75.686 73.305 77.165 74.592 75.686 73.305 74.206" fill="#dcdcdc"/><polygon points="73.305 65.941 72.018 67.421 73.305 68.9 74.592 67.421 73.305 65.941" fill="#dcdcdc"/><polygon points="73.305 57.677 72.018 59.157 73.305 60.637 74.592 59.157 73.305 57.677" fill="#dcdcdc"/><polygon points="80.497 90.734 79.208 92.214 80.497 93.693 81.784 92.214 80.497 90.734" fill="#dcdcdc"/><polygon points="80.497 82.47 79.208 83.95 80.497 85.429 81.784 83.95 80.497 82.47" fill="#dcdcdc"/><polygon points="80.497 74.206 79.208 75.686 80.497 77.165 81.784 75.686 80.497 74.206" fill="#dcdcdc"/><polygon points="80.497 65.941 79.208 67.421 80.497 68.9 81.784 67.421 80.497 65.941" fill="#dcdcdc"/><polygon points="80.497 57.677 79.209 59.157 80.497 60.637 81.784 59.157 80.497 57.677" fill="#dcdcdc"/><polygon points="87.688 93.693 88.975 92.214 87.688 90.734 86.401 92.214 87.688 93.693" fill="#dcdcdc"/><polygon points="87.688 85.429 88.975 83.95 87.688 82.47 86.401 83.95 87.688 85.429" fill="#dcdcdc"/><polygon points="87.688 77.165 88.975 75.686 87.688 74.206 86.401 75.686 87.688 77.165" fill="#dcdcdc"/><polygon points="87.688 68.9 88.975 67.421 87.688 65.941 86.401 67.421 87.688 68.9" fill="#dcdcdc"/><polygon points="87.688 60.637 88.975 59.157 87.688 57.677 86.401 59.157 87.688 60.637" fill="#dcdcdc"/><polygon points="94.879 93.693 96.168 92.214 94.879 90.734 93.592 92.214 94.879 93.693" fill="#dcdcdc"/><polygon points="94.879 85.429 96.168 83.95 94.879 82.47 93.592 83.95 94.879 85.429" fill="#dcdcdc"/><polygon points="94.879 77.165 96.168 75.686 94.879 74.206 93.592 75.686 94.879 77.165" fill="#dcdcdc"/><polygon points="94.879 68.9 96.168 67.421 94.879 65.941 93.592 67.421 94.879 68.9" fill="#dcdcdc"/><polygon points="94.879 60.637 96.167 59.157 94.879 57.677 93.592 59.157 94.879 60.637" fill="#dcdcdc"/><polygon points="15.773 49.586 14.486 51.065 15.773 52.545 17.06 51.065 15.773 49.586" fill="#dcdcdc"/><path d="M60.773,59.917l1.287-1.479-.271-.312c-.385.545-.769,1.091-1.144,1.644Z" transform="translate(-45 -15.637)" fill="#dcdcdc"/><polygon points="22.965 49.586 21.676 51.065 22.965 52.545 24.252 51.065 22.965 49.586" fill="#dcdcdc"/><polygon points="22.965 41.322 21.676 42.801 22.965 44.281 24.252 42.801 22.965 41.322" fill="#dcdcdc"/><path d="M67.965,51.653l1.287-1.48-.631-.726c-.432.493-.855.992-1.277,1.492Z" transform="translate(-45 -15.637)" fill="#dcdcdc"/><polygon points="30.156 49.586 28.869 51.065 30.156 52.545 31.443 51.065 30.156 49.586" fill="#dcdcdc"/><polygon points="30.156 41.322 28.869 42.801 30.156 44.281 31.443 42.801 30.156 41.322" fill="#dcdcdc"/><polygon points="30.156 33.057 28.869 34.537 30.156 36.016 31.443 34.537 30.156 33.057" fill="#dcdcdc"/><path d="M75.156,43.389l1.287-1.48-.239-.275q-.711.663-1.411,1.337Z" transform="translate(-45 -15.637)" fill="#dcdcdc"/><polygon points="37.347 49.586 36.06 51.065 37.347 52.545 38.636 51.065 37.347 49.586" fill="#dcdcdc"/><polygon points="37.347 41.322 36.06 42.801 37.347 44.281 38.636 42.801 37.347 41.322" fill="#dcdcdc"/><polygon points="37.347 33.057 36.06 34.537 37.347 36.016 38.636 34.537 37.347 33.057" fill="#dcdcdc"/><polygon points="37.347 24.793 36.06 26.272 37.347 27.752 38.636 26.272 37.347 24.793" fill="#dcdcdc"/><polygon points="44.539 49.586 43.253 51.065 44.539 52.545 45.826 51.065 44.539 49.586" fill="#dcdcdc"/><polygon points="44.539 41.322 43.253 42.801 44.539 44.281 45.826 42.801 44.539 41.322" fill="#dcdcdc"/><polygon points="44.539 33.057 43.253 34.537 44.539 36.016 45.826 34.537 44.539 33.057" fill="#dcdcdc"/><polygon points="44.539 24.793 43.253 26.272 44.539 27.752 45.826 26.272 44.539 24.793" fill="#dcdcdc"/><polygon points="44.539 16.529 43.253 18.008 44.539 19.488 45.826 18.008 44.539 16.529" fill="#dcdcdc"/><polygon points="51.73 49.586 50.444 51.065 51.73 52.545 53.017 51.065 51.73 49.586" fill="#dcdcdc"/><polygon points="51.73 41.322 50.444 42.801 51.73 44.281 53.017 42.801 51.73 41.322" fill="#dcdcdc"/><polygon points="51.73 33.057 50.444 34.537 51.73 36.016 53.017 34.537 51.73 33.057" fill="#dcdcdc"/><polygon points="51.73 24.793 50.444 26.272 51.73 27.752 53.017 26.272 51.73 24.793" fill="#dcdcdc"/><polygon points="51.73 16.529 50.444 18.008 51.73 19.488 53.017 18.008 51.73 16.529" fill="#dcdcdc"/><path d="M96.73,26.86l.334-.383q-.225.124-.449.25Z" transform="translate(-45 -15.637)" fill="#dcdcdc"/><polygon points="58.922 49.586 57.635 51.065 58.922 52.545 60.211 51.065 58.922 49.586" fill="#dcdcdc"/><polygon points="58.922 41.322 57.635 42.801 58.922 44.281 60.211 42.801 58.922 41.322" fill="#dcdcdc"/><polygon points="58.922 33.057 57.635 34.537 58.922 36.016 60.211 34.537 58.922 33.057" fill="#dcdcdc"/><polygon points="58.922 24.793 57.635 26.272 58.922 27.752 60.211 26.272 58.922 24.793" fill="#dcdcdc"/><polygon points="58.922 16.529 57.635 18.008 58.922 19.488 60.211 18.008 58.922 16.529" fill="#dcdcdc"/><polygon points="58.922 8.264 57.635 9.744 58.922 11.223 60.211 9.744 58.922 8.264" fill="#dcdcdc"/><polygon points="66.114 49.586 64.827 51.065 66.114 52.545 67.401 51.065 66.114 49.586" fill="#dcdcdc"/><polygon points="66.114 41.322 64.827 42.801 66.114 44.281 67.401 42.801 66.114 41.322" fill="#dcdcdc"/><polygon points="66.114 33.057 64.827 34.537 66.114 36.016 67.401 34.537 66.114 33.057" fill="#dcdcdc"/><polygon points="66.114 24.793 64.827 26.272 66.114 27.752 67.401 26.272 66.114 24.793" fill="#dcdcdc"/><polygon points="66.114 16.529 64.827 18.008 66.114 19.488 67.401 18.008 66.114 16.529" fill="#dcdcdc"/><polygon points="66.114 8.264 64.827 9.744 66.114 11.223 67.401 9.744 66.114 8.264" fill="#dcdcdc"/><polygon points="73.305 49.586 72.018 51.065 73.305 52.545 74.592 51.065 73.305 49.586" fill="#dcdcdc"/><polygon points="73.305 41.322 72.018 42.801 73.305 44.281 74.592 42.801 73.305 41.322" fill="#dcdcdc"/><polygon points="73.305 33.057 72.018 34.537 73.305 36.016 74.592 34.537 73.305 33.057" fill="#dcdcdc"/><polygon points="73.305 24.793 72.018 26.272 73.305 27.752 74.592 26.272 73.305 24.793" fill="#dcdcdc"/><polygon points="73.305 16.529 72.018 18.008 73.305 19.488 74.592 18.008 73.305 16.529" fill="#dcdcdc"/><polygon points="73.305 8.264 72.018 9.744 73.305 11.223 74.592 9.744 73.305 8.264" fill="#dcdcdc"/><path d="M118.305,18.6l1.231-1.416c-.656.186-1.308.381-1.958.58Z" transform="translate(-45 -15.637)" fill="#dcdcdc"/><polygon points="80.497 49.586 79.208 51.065 80.497 52.545 81.784 51.065 80.497 49.586" fill="#dcdcdc"/><polygon points="80.497 41.322 79.208 42.801 80.497 44.281 81.784 42.801 80.497 41.322" fill="#dcdcdc"/><polygon points="80.497 33.057 79.208 34.537 80.497 36.016 81.784 34.537 80.497 33.057" fill="#dcdcdc"/><polygon points="80.497 24.793 79.208 26.272 80.497 27.752 81.784 26.272 80.497 24.793" fill="#dcdcdc"/><polygon points="80.497 16.529 79.208 18.008 80.497 19.488 81.784 18.008 80.497 16.529" fill="#dcdcdc"/><polygon points="80.497 8.264 79.208 9.744 80.497 11.223 81.784 9.744 80.497 8.264" fill="#dcdcdc"/><path d="M124.208,17.116,125.5,18.6l1.287-1.48-1.258-1.446-.072.016Z" transform="translate(-45 -15.637)" fill="#dcdcdc"/><polygon points="87.688 52.545 88.975 51.065 87.688 49.586 86.401 51.065 87.688 52.545" fill="#dcdcdc"/><polygon points="87.688 44.281 88.975 42.801 87.688 41.322 86.401 42.801 87.688 44.281" fill="#dcdcdc"/><polygon points="87.688 36.016 88.975 34.537 87.688 33.057 86.401 34.537 87.688 36.016" fill="#dcdcdc"/><polygon points="87.688 27.752 88.975 26.272 87.688 24.793 86.401 26.272 87.688 27.752" fill="#dcdcdc"/><polygon points="87.688 19.488 88.975 18.008 87.688 16.529 86.401 18.008 87.688 19.488" fill="#dcdcdc"/><polygon points="87.688 11.223 88.975 9.744 87.688 8.264 86.401 9.744 87.688 11.223" fill="#dcdcdc"/><polygon points="88.975 1.48 87.688 0 86.401 1.48 87.688 2.959 88.975 1.48" fill="#dcdcdc"/><polygon points="94.879 52.545 96.168 51.065 94.879 49.586 93.592 51.065 94.879 52.545" fill="#dcdcdc"/><polygon points="94.879 44.281 96.168 42.801 94.879 41.322 93.592 42.801 94.879 44.281" fill="#dcdcdc"/><polygon points="94.879 36.016 96.168 34.537 94.879 33.057 93.592 34.537 94.879 36.016" fill="#dcdcdc"/><polygon points="94.879 27.752 96.168 26.272 94.879 24.793 93.592 26.272 94.879 27.752" fill="#dcdcdc"/><polygon points="94.879 19.488 96.168 18.008 94.879 16.529 93.592 18.008 94.879 19.488" fill="#dcdcdc"/><polygon points="94.879 11.223 96.168 9.744 94.879 8.264 93.592 9.744 94.879 11.223" fill="#dcdcdc"/><polygon points="96.168 1.48 94.879 0 93.592 1.48 94.879 2.959 96.168 1.48" fill="#dcdcdc"/><polygon points="102.02 200.444 103.306 198.964 102.02 197.485 100.733 198.964 102.02 200.444" fill="#dcdcdc"/><polygon points="102.02 192.179 103.306 190.7 102.02 189.22 100.733 190.7 102.02 192.179" fill="#dcdcdc"/><polygon points="102.02 183.915 103.306 182.436 102.02 180.956 100.733 182.436 102.02 183.915" fill="#dcdcdc"/><polygon points="102.02 175.651 103.306 174.171 102.02 172.692 100.733 174.171 102.02 175.651" fill="#dcdcdc"/><polygon points="102.02 167.386 103.306 165.907 102.02 164.427 100.733 165.907 102.02 167.386" fill="#dcdcdc"/><polygon points="107.924 198.964 109.211 200.444 110.497 198.964 109.211 197.485 107.924 198.964" fill="#dcdcdc"/><polygon points="109.211 189.22 107.924 190.7 109.211 192.179 110.497 190.7 109.211 189.22" fill="#dcdcdc"/><polygon points="109.211 180.956 107.924 182.436 109.211 183.915 110.497 182.436 109.211 180.956" fill="#dcdcdc"/><polygon points="109.211 172.692 107.924 174.171 109.211 175.651 110.497 174.171 109.211 172.692" fill="#dcdcdc"/><polygon points="109.211 164.427 107.924 165.907 109.211 167.386 110.497 165.907 109.211 164.427" fill="#dcdcdc"/><polygon points="115.115 198.964 116.402 200.444 117.691 198.964 116.402 197.485 115.115 198.964" fill="#dcdcdc"/><polygon points="116.402 189.22 115.115 190.7 116.402 192.179 117.691 190.7 116.402 189.22" fill="#dcdcdc"/><polygon points="116.402 180.956 115.115 182.436 116.402 183.915 117.691 182.436 116.402 180.956" fill="#dcdcdc"/><polygon points="116.402 172.692 115.115 174.171 116.402 175.651 117.691 174.171 116.402 172.692" fill="#dcdcdc"/><polygon points="116.402 164.427 115.115 165.907 116.402 167.386 117.691 165.907 116.402 164.427" fill="#dcdcdc"/><polygon points="122.307 198.964 123.594 200.444 124.881 198.964 123.594 197.485 122.307 198.964" fill="#dcdcdc"/><polygon points="123.594 189.22 122.307 190.7 123.594 192.179 124.881 190.7 123.594 189.22" fill="#dcdcdc"/><polygon points="123.594 180.956 122.307 182.436 123.594 183.915 124.881 182.436 123.594 180.956" fill="#dcdcdc"/><polygon points="123.594 172.692 122.307 174.171 123.594 175.651 124.881 174.171 123.594 172.692" fill="#dcdcdc"/><polygon points="123.594 164.427 122.307 165.907 123.594 167.386 124.881 165.907 123.594 164.427" fill="#dcdcdc"/><polygon points="129.498 198.964 130.785 200.444 132.072 198.964 130.785 197.485 129.498 198.964" fill="#dcdcdc"/><polygon points="130.785 189.22 129.498 190.7 130.785 192.179 132.072 190.7 130.785 189.22" fill="#dcdcdc"/><polygon points="130.785 180.956 129.498 182.436 130.785 183.915 132.072 182.436 130.785 180.956" fill="#dcdcdc"/><polygon points="130.785 172.692 129.498 174.171 130.785 175.651 132.072 174.171 130.785 172.692" fill="#dcdcdc"/><polygon points="130.785 164.427 129.498 165.907 130.785 167.386 132.072 165.907 130.785 164.427" fill="#dcdcdc"/><polygon points="136.688 198.964 137.977 200.444 139.264 198.964 137.977 197.485 136.688 198.964" fill="#dcdcdc"/><polygon points="137.977 189.22 136.688 190.7 137.977 192.179 139.264 190.7 137.977 189.22" fill="#dcdcdc"/><polygon points="137.977 180.956 136.688 182.436 137.977 183.915 139.264 182.436 137.977 180.956" fill="#dcdcdc"/><polygon points="137.977 172.692 136.688 174.171 137.977 175.651 139.264 174.171 137.977 172.692" fill="#dcdcdc"/><polygon points="137.977 164.427 136.688 165.907 137.977 167.386 139.264 165.907 137.977 164.427" fill="#dcdcdc"/><polygon points="143.881 198.964 145.168 200.444 146.455 198.964 145.168 197.485 143.881 198.964" fill="#dcdcdc"/><polygon points="145.168 189.22 143.881 190.7 145.168 192.179 146.455 190.7 145.168 189.22" fill="#dcdcdc"/><polygon points="145.168 180.956 143.881 182.436 145.168 183.915 146.455 182.436 145.168 180.956" fill="#dcdcdc"/><polygon points="145.168 172.692 143.881 174.171 145.168 175.651 146.455 174.171 145.168 172.692" fill="#dcdcdc"/><polygon points="145.168 164.427 143.881 165.907 145.168 167.386 146.455 165.907 145.168 164.427" fill="#dcdcdc"/><polygon points="151.072 190.7 152.359 192.179 153.648 190.7 152.359 189.22 151.072 190.7" fill="#dcdcdc"/><polygon points="152.359 180.956 151.072 182.436 152.359 183.915 153.648 182.436 152.359 180.956" fill="#dcdcdc"/><polygon points="152.359 172.692 151.072 174.171 152.359 175.651 153.648 174.171 152.359 172.692" fill="#dcdcdc"/><polygon points="152.359 164.427 151.072 165.907 152.359 167.386 153.648 165.907 152.359 164.427" fill="#dcdcdc"/><polygon points="158.264 190.7 159.551 192.179 160.838 190.7 159.551 189.22 158.264 190.7" fill="#dcdcdc"/><polygon points="159.551 180.956 158.264 182.436 159.551 183.915 160.838 182.436 159.551 180.956" fill="#dcdcdc"/><polygon points="159.551 172.692 158.264 174.171 159.551 175.651 160.838 174.171 159.551 172.692" fill="#dcdcdc"/><polygon points="159.551 164.427 158.264 165.907 159.551 167.386 160.838 165.907 159.551 164.427" fill="#dcdcdc"/><polygon points="165.455 182.436 166.742 183.915 168.029 182.436 166.742 180.956 165.455 182.436" fill="#dcdcdc"/><polygon points="166.742 172.692 165.455 174.171 166.742 175.651 168.029 174.171 166.742 172.692" fill="#dcdcdc"/><polygon points="166.742 164.427 165.455 165.907 166.742 167.386 168.029 165.907 166.742 164.427" fill="#dcdcdc"/><path d="M218.934,196.593l-1.289,1.479.651.747c.49-.423.973-.854,1.456-1.286Z" transform="translate(-45 -15.637)" fill="#dcdcdc"/><polygon points="173.934 175.651 175.221 174.171 173.934 172.692 172.645 174.171 173.934 175.651" fill="#dcdcdc"/><polygon points="173.934 167.386 175.221 165.907 173.934 164.427 172.645 165.907 173.934 167.386" fill="#dcdcdc"/><polygon points="182.412 174.171 181.125 172.692 179.839 174.171 181.125 175.651 182.412 174.171" fill="#dcdcdc"/><polygon points="179.839 165.907 181.125 167.386 182.412 165.907 181.125 164.427 179.839 165.907" fill="#dcdcdc"/><path d="M233.316,180.064l-1.286,1.48,1.236,1.421q.6-.789,1.2-1.588Z" transform="translate(-45 -15.637)" fill="#dcdcdc"/><polygon points="102.02 159.295 103.306 157.816 102.02 156.336 100.733 157.816 102.02 159.295" fill="#dcdcdc"/><polygon points="102.02 151.031 103.306 149.551 102.02 148.072 100.733 149.551 102.02 151.031" fill="#dcdcdc"/><polygon points="102.02 142.767 103.306 141.287 102.02 139.808 100.733 141.287 102.02 142.767" fill="#dcdcdc"/><polygon points="102.02 134.502 103.306 133.022 102.02 131.543 100.733 133.022 102.02 134.502" fill="#dcdcdc"/><polygon points="102.02 126.238 103.306 124.758 102.02 123.279 100.733 124.758 102.02 126.238" fill="#dcdcdc"/><polygon points="102.02 117.974 103.306 116.494 102.02 115.015 100.733 116.494 102.02 117.974" fill="#dcdcdc"/><polygon points="102.02 109.709 103.306 108.23 102.02 106.75 100.733 108.23 102.02 109.709" fill="#dcdcdc"/><polygon points="102.02 101.445 103.306 99.966 102.02 98.486 100.733 99.966 102.02 101.445" fill="#dcdcdc"/><polygon points="109.211 156.336 107.924 157.816 109.211 159.295 110.497 157.816 109.211 156.336" fill="#dcdcdc"/><polygon points="109.211 148.072 107.924 149.551 109.211 151.031 110.497 149.551 109.211 148.072" fill="#dcdcdc"/><polygon points="109.211 139.808 107.924 141.287 109.211 142.767 110.497 141.287 109.211 139.808" fill="#dcdcdc"/><polygon points="109.211 131.543 107.924 133.022 109.211 134.502 110.497 133.022 109.211 131.543" fill="#dcdcdc"/><polygon points="109.211 123.279 107.924 124.758 109.211 126.238 110.497 124.758 109.211 123.279" fill="#dcdcdc"/><polygon points="109.211 115.015 107.924 116.494 109.211 117.974 110.497 116.494 109.211 115.015" fill="#dcdcdc"/><polygon points="109.211 106.75 107.924 108.23 109.211 109.709 110.497 108.23 109.211 106.75" fill="#dcdcdc"/><polygon points="109.211 98.486 107.924 99.966 109.211 101.445 110.497 99.966 109.211 98.486" fill="#dcdcdc"/><polygon points="117.69 157.816 116.402 156.336 115.115 157.816 116.402 159.295 117.69 157.816" fill="#dcdcdc"/><polygon points="116.402 148.072 115.115 149.551 116.402 151.031 117.691 149.551 116.402 148.072" fill="#dcdcdc"/><polygon points="116.402 139.808 115.115 141.287 116.402 142.767 117.691 141.287 116.402 139.808" fill="#dcdcdc"/><polygon points="116.402 131.543 115.115 133.022 116.402 134.502 117.691 133.022 116.402 131.543" fill="#dcdcdc"/><polygon points="116.402 123.279 115.115 124.758 116.402 126.238 117.691 124.758 116.402 123.279" fill="#dcdcdc"/><polygon points="116.402 115.015 115.115 116.494 116.402 117.974 117.691 116.494 116.402 115.015" fill="#dcdcdc"/><polygon points="116.402 106.75 115.115 108.23 116.402 109.709 117.691 108.23 116.402 106.75" fill="#dcdcdc"/><polygon points="116.402 98.486 115.115 99.966 116.402 101.445 117.691 99.966 116.402 98.486" fill="#dcdcdc"/><polygon points="123.594 156.336 122.307 157.816 123.594 159.295 124.881 157.816 123.594 156.336" fill="#dcdcdc"/><polygon points="123.594 148.072 122.307 149.551 123.594 151.031 124.881 149.551 123.594 148.072" fill="#dcdcdc"/><polygon points="123.594 139.808 122.307 141.287 123.594 142.767 124.881 141.287 123.594 139.808" fill="#dcdcdc"/><polygon points="123.594 131.543 122.307 133.022 123.594 134.502 124.881 133.022 123.594 131.543" fill="#dcdcdc"/><polygon points="123.594 123.279 122.307 124.758 123.594 126.238 124.881 124.758 123.594 123.279" fill="#dcdcdc"/><polygon points="123.594 115.015 122.307 116.494 123.594 117.974 124.881 116.494 123.594 115.015" fill="#dcdcdc"/><polygon points="123.594 106.75 122.307 108.23 123.594 109.709 124.881 108.23 123.594 106.75" fill="#dcdcdc"/><polygon points="123.594 98.486 122.307 99.966 123.594 101.445 124.881 99.966 123.594 98.486" fill="#dcdcdc"/><polygon points="130.785 156.336 129.498 157.816 130.785 159.295 132.072 157.816 130.785 156.336" fill="#dcdcdc"/><polygon points="130.785 148.072 129.498 149.551 130.785 151.031 132.072 149.551 130.785 148.072" fill="#dcdcdc"/><polygon points="130.785 139.808 129.498 141.287 130.785 142.767 132.072 141.287 130.785 139.808" fill="#dcdcdc"/><polygon points="130.785 131.543 129.498 133.022 130.785 134.502 132.072 133.022 130.785 131.543" fill="#dcdcdc"/><polygon points="130.785 123.279 129.498 124.758 130.785 126.238 132.072 124.758 130.785 123.279" fill="#dcdcdc"/><polygon points="130.785 115.015 129.498 116.494 130.785 117.974 132.072 116.494 130.785 115.015" fill="#dcdcdc"/><polygon points="130.785 106.75 129.498 108.23 130.785 109.709 132.072 108.23 130.785 106.75" fill="#dcdcdc"/><polygon points="130.785 98.486 129.498 99.966 130.785 101.445 132.072 99.966 130.785 98.486" fill="#dcdcdc"/><polygon points="137.977 156.336 136.689 157.816 137.977 159.295 139.264 157.816 137.977 156.336" fill="#dcdcdc"/><polygon points="137.977 148.072 136.688 149.551 137.977 151.031 139.264 149.551 137.977 148.072" fill="#dcdcdc"/><polygon points="137.977 139.808 136.688 141.287 137.977 142.767 139.264 141.287 137.977 139.808" fill="#dcdcdc"/><polygon points="137.977 131.543 136.688 133.022 137.977 134.502 139.264 133.022 137.977 131.543" fill="#dcdcdc"/><polygon points="137.977 123.279 136.688 124.758 137.977 126.238 139.264 124.758 137.977 123.279" fill="#dcdcdc"/><polygon points="137.977 115.015 136.688 116.494 137.977 117.974 139.264 116.494 137.977 115.015" fill="#dcdcdc"/><polygon points="137.977 106.75 136.688 108.23 137.977 109.709 139.264 108.23 137.977 106.75" fill="#dcdcdc"/><polygon points="137.977 98.486 136.688 99.966 137.977 101.445 139.264 99.966 137.977 98.486" fill="#dcdcdc"/><polygon points="145.168 156.336 143.881 157.816 145.168 159.295 146.455 157.816 145.168 156.336" fill="#dcdcdc"/><polygon points="145.168 148.072 143.881 149.551 145.168 151.031 146.455 149.551 145.168 148.072" fill="#dcdcdc"/><polygon points="145.168 139.808 143.881 141.287 145.168 142.767 146.455 141.287 145.168 139.808" fill="#dcdcdc"/><polygon points="145.168 131.543 143.881 133.022 145.168 134.502 146.455 133.022 145.168 131.543" fill="#dcdcdc"/><polygon points="145.168 123.279 143.881 124.758 145.168 126.238 146.455 124.758 145.168 123.279" fill="#dcdcdc"/><polygon points="145.168 115.015 143.881 116.494 145.168 117.974 146.455 116.494 145.168 115.015" fill="#dcdcdc"/><polygon points="145.168 106.75 143.881 108.23 145.168 109.709 146.455 108.23 145.168 106.75" fill="#dcdcdc"/><polygon points="145.168 98.486 143.881 99.966 145.168 101.445 146.455 99.966 145.168 98.486" fill="#dcdcdc"/><polygon points="153.647 157.816 152.359 156.336 151.072 157.816 152.359 159.295 153.647 157.816" fill="#dcdcdc"/><polygon points="152.359 148.072 151.072 149.551 152.359 151.031 153.648 149.551 152.359 148.072" fill="#dcdcdc"/><polygon points="152.359 139.808 151.072 141.287 152.359 142.767 153.648 141.287 152.359 139.808" fill="#dcdcdc"/><polygon points="152.359 131.543 151.072 133.022 152.359 134.502 153.648 133.022 152.359 131.543" fill="#dcdcdc"/><polygon points="152.359 123.279 151.072 124.758 152.359 126.238 153.648 124.758 152.359 123.279" fill="#dcdcdc"/><polygon points="152.359 115.015 151.072 116.494 152.359 117.974 153.648 116.494 152.359 115.015" fill="#dcdcdc"/><polygon points="152.359 106.75 151.072 108.23 152.359 109.709 153.648 108.23 152.359 106.75" fill="#dcdcdc"/><polygon points="152.359 98.486 151.072 99.966 152.359 101.445 153.648 99.966 152.359 98.486" fill="#dcdcdc"/><polygon points="159.551 156.336 158.264 157.816 159.551 159.295 160.838 157.816 159.551 156.336" fill="#dcdcdc"/><polygon points="159.551 148.072 158.264 149.551 159.551 151.031 160.838 149.551 159.551 148.072" fill="#dcdcdc"/><polygon points="159.551 139.808 158.264 141.287 159.551 142.767 160.838 141.287 159.551 139.808" fill="#dcdcdc"/><polygon points="159.551 131.543 158.264 133.022 159.551 134.502 160.838 133.022 159.551 131.543" fill="#dcdcdc"/><polygon points="159.551 123.279 158.264 124.758 159.551 126.238 160.838 124.758 159.551 123.279" fill="#dcdcdc"/><polygon points="159.551 115.015 158.264 116.494 159.551 117.974 160.838 116.494 159.551 115.015" fill="#dcdcdc"/><polygon points="159.551 106.75 158.264 108.23 159.551 109.709 160.838 108.23 159.551 106.75" fill="#dcdcdc"/><polygon points="159.551 98.486 158.264 99.966 159.551 101.445 160.838 99.966 159.551 98.486" fill="#dcdcdc"/><polygon points="166.742 156.336 165.455 157.816 166.742 159.295 168.029 157.816 166.742 156.336" fill="#dcdcdc"/><polygon points="166.742 148.072 165.455 149.551 166.742 151.031 168.029 149.551 166.742 148.072" fill="#dcdcdc"/><polygon points="166.742 139.808 165.455 141.287 166.742 142.767 168.029 141.287 166.742 139.808" fill="#dcdcdc"/><polygon points="166.742 131.543 165.455 133.022 166.742 134.502 168.029 133.022 166.742 131.543" fill="#dcdcdc"/><polygon points="166.742 123.279 165.455 124.758 166.742 126.238 168.029 124.758 166.742 123.279" fill="#dcdcdc"/><polygon points="166.742 115.015 165.455 116.494 166.742 117.974 168.029 116.494 166.742 115.015" fill="#dcdcdc"/><polygon points="166.742 106.75 165.455 108.23 166.742 109.709 168.029 108.23 166.742 106.75" fill="#dcdcdc"/><polygon points="166.742 98.486 165.455 99.966 166.742 101.445 168.029 99.966 166.742 98.486" fill="#dcdcdc"/><polygon points="172.646 157.816 173.934 159.295 175.221 157.816 173.934 156.336 172.646 157.816" fill="#dcdcdc"/><polygon points="173.934 151.031 175.221 149.551 173.934 148.072 172.645 149.551 173.934 151.031" fill="#dcdcdc"/><polygon points="173.934 142.767 175.221 141.287 173.934 139.808 172.645 141.287 173.934 142.767" fill="#dcdcdc"/><polygon points="173.934 134.502 175.221 133.022 173.934 131.543 172.645 133.022 173.934 134.502" fill="#dcdcdc"/><polygon points="173.934 126.238 175.221 124.758 173.934 123.279 172.645 124.758 173.934 126.238" fill="#dcdcdc"/><polygon points="173.934 117.974 175.221 116.494 173.934 115.015 172.645 116.494 173.934 117.974" fill="#dcdcdc"/><polygon points="173.934 109.709 175.221 108.23 173.934 106.75 172.645 108.23 173.934 109.709" fill="#dcdcdc"/><polygon points="173.934 101.445 175.221 99.966 173.934 98.486 172.645 99.966 173.934 101.445" fill="#dcdcdc"/><polygon points="181.125 156.336 179.839 157.816 181.125 159.295 182.412 157.816 181.125 156.336" fill="#dcdcdc"/><polygon points="181.125 148.072 179.839 149.551 181.125 151.031 182.412 149.551 181.125 148.072" fill="#dcdcdc"/><polygon points="181.125 139.808 179.839 141.287 181.125 142.767 182.412 141.287 181.125 139.808" fill="#dcdcdc"/><polygon points="181.125 131.543 179.839 133.022 181.125 134.502 182.412 133.022 181.125 131.543" fill="#dcdcdc"/><polygon points="181.125 123.279 179.839 124.758 181.125 126.238 182.412 124.758 181.125 123.279" fill="#dcdcdc"/><polygon points="181.125 115.015 179.839 116.494 181.125 117.974 182.412 116.494 181.125 115.015" fill="#dcdcdc"/><polygon points="181.125 106.75 179.839 108.23 181.125 109.709 182.412 108.23 181.125 106.75" fill="#dcdcdc"/><polygon points="181.125 98.486 179.839 99.966 181.125 101.445 182.412 99.966 181.125 98.486" fill="#dcdcdc"/><polygon points="187.03 157.816 188.316 159.295 189.604 157.816 188.316 156.336 187.03 157.816" fill="#dcdcdc"/><polygon points="188.316 148.072 187.03 149.551 188.316 151.031 189.606 149.551 188.316 148.072" fill="#dcdcdc"/><polygon points="188.316 139.808 187.03 141.287 188.316 142.767 189.606 141.287 188.316 139.808" fill="#dcdcdc"/><polygon points="188.316 131.543 187.03 133.022 188.316 134.502 189.606 133.022 188.316 131.543" fill="#dcdcdc"/><polygon points="188.316 123.279 187.03 124.758 188.316 126.238 189.606 124.758 188.316 123.279" fill="#dcdcdc"/><polygon points="188.316 115.015 187.03 116.494 188.316 117.974 189.606 116.494 188.316 115.015" fill="#dcdcdc"/><polygon points="188.316 106.75 187.03 108.23 188.316 109.709 189.606 108.23 188.316 106.75" fill="#dcdcdc"/><polygon points="188.316 98.486 187.03 99.966 188.316 101.445 189.606 99.966 188.316 98.486" fill="#dcdcdc"/><path d="M240.612,171.972l-1.287,1.48.269.309c.355-.581.7-1.168,1.046-1.756Z" transform="translate(-45 -15.637)" fill="#dcdcdc"/><polygon points="194.325 149.551 195.612 151.031 196.899 149.551 195.612 148.072 194.325 149.551" fill="#dcdcdc"/><polygon points="195.612 139.808 194.325 141.287 195.612 142.767 196.899 141.287 195.612 139.808" fill="#dcdcdc"/><polygon points="195.612 131.543 194.325 133.022 195.612 134.502 196.899 133.022 195.612 131.543" fill="#dcdcdc"/><polygon points="195.612 123.279 194.325 124.758 195.612 126.238 196.899 124.758 195.612 123.279" fill="#dcdcdc"/><polygon points="195.612 115.015 194.325 116.494 195.612 117.974 196.899 116.494 195.612 115.015" fill="#dcdcdc"/><polygon points="195.612 106.75 194.325 108.23 195.612 109.709 196.899 108.23 195.612 106.75" fill="#dcdcdc"/><polygon points="195.612 98.486 194.325 99.966 195.612 101.445 196.899 99.966 195.612 98.486" fill="#dcdcdc"/><path d="M247.8,155.444l-1.287,1.479.969,1.115c.273-.678.536-1.362.794-2.047Z" transform="translate(-45 -15.637)" fill="#dcdcdc"/><polygon points="201.516 133.022 202.803 134.502 204.092 133.022 202.803 131.543 201.516 133.022" fill="#dcdcdc"/><polygon points="202.803 123.279 201.516 124.758 202.803 126.238 204.092 124.758 202.803 123.279" fill="#dcdcdc"/><polygon points="202.803 115.015 201.516 116.494 202.803 117.974 204.092 116.494 202.803 115.015" fill="#dcdcdc"/><polygon points="202.803 106.75 201.516 108.23 202.803 109.709 204.092 108.23 202.803 106.75" fill="#dcdcdc"/><polygon points="202.803 98.486 201.516 99.966 202.803 101.445 204.092 99.966 202.803 98.486" fill="#dcdcdc"/><path d="M253.708,132.13l.421.484c.048-.374.091-.749.136-1.124Z" transform="translate(-45 -15.637)" fill="#dcdcdc"/><path d="M253.708,123.867l1.122,1.289q.079-1.358.126-2.724Z" transform="translate(-45 -15.637)" fill="#dcdcdc"/><path d="M253.708,115.6,255,117.081l0-.005q-.024-1.435-.085-2.861Z" transform="translate(-45 -15.637)" fill="#dcdcdc"/><path d="M46.417,147.329c.187.667.383,1.33.582,1.991l.575-.661Z" transform="translate(-45 -15.637)" fill="#dcdcdc"/><polygon points="2.574 124.758 1.287 123.279 0 124.758 1.287 126.238 2.574 124.758" fill="#dcdcdc"/><polygon points="0 116.494 1.287 117.974 2.574 116.494 1.287 115.015 0 116.494" fill="#dcdcdc"/><polygon points="1.287 106.75 0 108.23 1.287 109.709 2.574 108.23 1.287 106.75" fill="#dcdcdc"/><polygon points="1.287 98.486 0 99.966 1.287 101.445 2.574 99.966 1.287 98.486" fill="#dcdcdc"/><path d="M53.479,163.709l-.618.709c.3.633.617,1.261.934,1.887l.971-1.117Z" transform="translate(-45 -15.637)" fill="#dcdcdc"/><polygon points="7.19 141.287 8.479 142.767 9.766 141.287 8.479 139.808 7.19 141.287" fill="#dcdcdc"/><polygon points="8.479 131.543 7.19 133.022 8.479 134.502 9.766 133.022 8.479 131.543" fill="#dcdcdc"/><polygon points="8.479 123.279 7.19 124.758 8.479 126.238 9.766 124.758 8.479 123.279" fill="#dcdcdc"/><polygon points="8.479 115.015 7.19 116.494 8.479 117.974 9.766 116.494 8.479 115.015" fill="#dcdcdc"/><polygon points="8.479 106.75 7.19 108.23 8.479 109.709 9.766 108.23 8.479 106.75" fill="#dcdcdc"/><polygon points="8.479 98.486 7.19 99.966 8.479 101.445 9.766 99.966 8.479 98.486" fill="#dcdcdc"/><polygon points="21.676 165.907 22.965 167.386 24.252 165.907 22.965 164.427 21.676 165.907" fill="#dcdcdc"/><polygon points="31.443 174.171 30.156 172.692 28.869 174.171 30.156 175.651 31.443 174.171" fill="#dcdcdc"/><polygon points="28.869 165.907 30.156 167.386 31.443 165.907 30.156 164.427 28.869 165.907" fill="#dcdcdc"/><polygon points="36.06 182.436 37.347 183.915 38.636 182.436 37.347 180.956 36.06 182.436" fill="#dcdcdc"/><polygon points="37.347 172.692 36.06 174.171 37.347 175.651 38.636 174.171 37.347 172.692" fill="#dcdcdc"/><polygon points="37.347 164.427 36.06 165.907 37.347 167.386 38.636 165.907 37.347 164.427" fill="#dcdcdc"/><path d="M89.539,204.857l-.98,1.127q.807.552,1.624,1.091l.643-.739Z" transform="translate(-45 -15.637)" fill="#dcdcdc"/><polygon points="43.253 182.436 44.539 183.915 45.826 182.436 44.539 180.956 43.253 182.436" fill="#dcdcdc"/><polygon points="44.539 172.692 43.253 174.171 44.539 175.651 45.826 174.171 44.539 172.692" fill="#dcdcdc"/><polygon points="44.539 164.427 43.253 165.907 44.539 167.386 45.826 165.907 44.539 164.427" fill="#dcdcdc"/><polygon points="50.444 190.7 51.73 192.179 53.017 190.7 51.73 189.22 50.444 190.7" fill="#dcdcdc"/><polygon points="51.73 180.956 50.444 182.436 51.73 183.915 53.017 182.436 51.73 180.956" fill="#dcdcdc"/><polygon points="51.73 172.692 50.444 174.171 51.73 175.651 53.017 174.171 51.73 172.692" fill="#dcdcdc"/><polygon points="51.73 164.427 50.444 165.907 51.73 167.386 53.017 165.907 51.73 164.427" fill="#dcdcdc"/><path d="M103.922,213.121l-1,1.149q.912.435,1.834.852l.455-.522Z" transform="translate(-45 -15.637)" fill="#dcdcdc"/><polygon points="57.635 190.7 58.922 192.179 60.211 190.7 58.922 189.22 57.635 190.7" fill="#dcdcdc"/><polygon points="58.922 180.956 57.635 182.436 58.922 183.915 60.211 182.436 58.922 180.956" fill="#dcdcdc"/><polygon points="58.922 172.692 57.635 174.171 58.922 175.651 60.211 174.171 58.922 172.692" fill="#dcdcdc"/><polygon points="58.922 164.427 57.635 165.907 58.922 167.386 60.211 165.907 58.922 164.427" fill="#dcdcdc"/><polygon points="64.827 198.964 66.114 200.444 67.401 198.964 66.114 197.485 64.827 198.964" fill="#dcdcdc"/><polygon points="66.114 189.22 64.827 190.7 66.114 192.179 67.401 190.7 66.114 189.22" fill="#dcdcdc"/><polygon points="66.114 180.956 64.827 182.436 66.114 183.915 67.401 182.436 66.114 180.956" fill="#dcdcdc"/><polygon points="66.114 172.692 64.827 174.171 66.114 175.651 67.401 174.171 66.114 172.692" fill="#dcdcdc"/><polygon points="66.114 164.427 64.827 165.907 66.114 167.386 67.401 165.907 66.114 164.427" fill="#dcdcdc"/><polygon points="72.018 198.964 73.305 200.444 74.592 198.964 73.305 197.485 72.018 198.964" fill="#dcdcdc"/><polygon points="73.305 189.22 72.018 190.7 73.305 192.179 74.592 190.7 73.305 189.22" fill="#dcdcdc"/><polygon points="73.305 180.956 72.018 182.436 73.305 183.915 74.592 182.436 73.305 180.956" fill="#dcdcdc"/><polygon points="73.305 172.692 72.018 174.171 73.305 175.651 74.592 174.171 73.305 172.692" fill="#dcdcdc"/><polygon points="73.305 164.427 72.018 165.907 73.305 167.386 74.592 165.907 73.305 164.427" fill="#dcdcdc"/><polygon points="79.208 198.964 80.497 200.444 81.784 198.964 80.497 197.485 79.208 198.964" fill="#dcdcdc"/><polygon points="80.497 189.22 79.208 190.7 80.497 192.179 81.784 190.7 80.497 189.22" fill="#dcdcdc"/><polygon points="80.497 180.956 79.208 182.436 80.497 183.915 81.784 182.436 80.497 180.956" fill="#dcdcdc"/><polygon points="80.497 172.692 79.208 174.171 80.497 175.651 81.784 174.171 80.497 172.692" fill="#dcdcdc"/><polygon points="80.497 164.427 79.208 165.907 80.497 167.386 81.784 165.907 80.497 164.427" fill="#dcdcdc"/><polygon points="87.688 200.444 88.975 198.964 87.688 197.485 86.401 198.964 87.688 200.444" fill="#dcdcdc"/><polygon points="87.688 192.179 88.975 190.7 87.688 189.22 86.401 190.7 87.688 192.179" fill="#dcdcdc"/><polygon points="87.688 183.915 88.975 182.436 87.688 180.956 86.401 182.436 87.688 183.915" fill="#dcdcdc"/><polygon points="87.688 175.651 88.975 174.171 87.688 172.692 86.401 174.171 87.688 175.651" fill="#dcdcdc"/><polygon points="87.688 167.386 88.975 165.907 87.688 164.427 86.401 165.907 87.688 167.386" fill="#dcdcdc"/><polygon points="94.879 200.444 96.168 198.964 94.879 197.485 93.592 198.964 94.879 200.444" fill="#dcdcdc"/><polygon points="94.879 192.179 96.168 190.7 94.879 189.22 93.592 190.7 94.879 192.179" fill="#dcdcdc"/><polygon points="94.879 183.915 96.168 182.436 94.879 180.956 93.592 182.436 94.879 183.915" fill="#dcdcdc"/><polygon points="94.879 175.651 96.168 174.171 94.879 172.692 93.592 174.171 94.879 175.651" fill="#dcdcdc"/><polygon points="94.879 167.386 96.168 165.907 94.879 164.427 93.592 165.907 94.879 167.386" fill="#dcdcdc"/><polygon points="14.486 157.816 15.773 159.295 17.06 157.816 15.773 156.336 14.486 157.816" fill="#dcdcdc"/><polygon points="15.773 148.072 14.486 149.551 15.773 151.031 17.06 149.551 15.773 148.072" fill="#dcdcdc"/><polygon points="15.773 139.808 14.486 141.287 15.773 142.767 17.06 141.287 15.773 139.808" fill="#dcdcdc"/><polygon points="15.773 131.543 14.486 133.022 15.773 134.502 17.06 133.022 15.773 131.543" fill="#dcdcdc"/><polygon points="15.773 123.279 14.486 124.758 15.773 126.238 17.06 124.758 15.773 123.279" fill="#dcdcdc"/><polygon points="15.773 115.015 14.486 116.494 15.773 117.974 17.06 116.494 15.773 115.015" fill="#dcdcdc"/><polygon points="15.773 106.75 14.486 108.23 15.773 109.709 17.06 108.23 15.773 106.75" fill="#dcdcdc"/><polygon points="15.773 98.486 14.486 99.966 15.773 101.445 17.06 99.966 15.773 98.486" fill="#dcdcdc"/><polygon points="22.965 156.336 21.677 157.816 22.965 159.295 24.252 157.816 22.965 156.336" fill="#dcdcdc"/><polygon points="22.965 148.072 21.676 149.551 22.965 151.031 24.252 149.551 22.965 148.072" fill="#dcdcdc"/><polygon points="22.965 139.808 21.676 141.287 22.965 142.767 24.252 141.287 22.965 139.808" fill="#dcdcdc"/><polygon points="22.965 131.543 21.676 133.022 22.965 134.502 24.252 133.022 22.965 131.543" fill="#dcdcdc"/><polygon points="22.965 123.279 21.676 124.758 22.965 126.238 24.252 124.758 22.965 123.279" fill="#dcdcdc"/><polygon points="22.965 115.015 21.676 116.494 22.965 117.974 24.252 116.494 22.965 115.015" fill="#dcdcdc"/><polygon points="22.965 106.75 21.676 108.23 22.965 109.709 24.252 108.23 22.965 106.75" fill="#dcdcdc"/><polygon points="22.965 98.486 21.676 99.966 22.965 101.445 24.252 99.966 22.965 98.486" fill="#dcdcdc"/><polygon points="30.156 156.336 28.869 157.816 30.156 159.295 31.443 157.816 30.156 156.336" fill="#dcdcdc"/><polygon points="30.156 148.072 28.869 149.551 30.156 151.031 31.443 149.551 30.156 148.072" fill="#dcdcdc"/><polygon points="30.156 139.808 28.869 141.287 30.156 142.767 31.443 141.287 30.156 139.808" fill="#dcdcdc"/><polygon points="30.156 131.543 28.869 133.022 30.156 134.502 31.443 133.022 30.156 131.543" fill="#dcdcdc"/><polygon points="30.156 123.279 28.869 124.758 30.156 126.238 31.443 124.758 30.156 123.279" fill="#dcdcdc"/><polygon points="30.156 115.015 28.869 116.494 30.156 117.974 31.443 116.494 30.156 115.015" fill="#dcdcdc"/><polygon points="30.156 106.75 28.869 108.23 30.156 109.709 31.443 108.23 30.156 106.75" fill="#dcdcdc"/><polygon points="30.156 98.486 28.869 99.966 30.156 101.445 31.443 99.966 30.156 98.486" fill="#dcdcdc"/><polygon points="38.635 157.816 37.347 156.336 36.06 157.816 37.347 159.295 38.635 157.816" fill="#dcdcdc"/><polygon points="37.347 148.072 36.06 149.551 37.347 151.031 38.636 149.551 37.347 148.072" fill="#dcdcdc"/><polygon points="37.347 139.808 36.06 141.287 37.347 142.767 38.636 141.287 37.347 139.808" fill="#dcdcdc"/><polygon points="37.347 131.543 36.06 133.022 37.347 134.502 38.636 133.022 37.347 131.543" fill="#dcdcdc"/><polygon points="37.347 123.279 36.06 124.758 37.347 126.238 38.636 124.758 37.347 123.279" fill="#dcdcdc"/><polygon points="37.347 115.015 36.06 116.494 37.347 117.974 38.636 116.494 37.347 115.015" fill="#dcdcdc"/><polygon points="37.347 106.75 36.06 108.23 37.347 109.709 38.636 108.23 37.347 106.75" fill="#dcdcdc"/><polygon points="37.347 98.486 36.06 99.966 37.347 101.445 38.636 99.966 37.347 98.486" fill="#dcdcdc"/><polygon points="44.539 156.336 43.253 157.816 44.539 159.295 45.826 157.816 44.539 156.336" fill="#dcdcdc"/><polygon points="44.539 148.072 43.253 149.551 44.539 151.031 45.826 149.551 44.539 148.072" fill="#dcdcdc"/><polygon points="44.539 139.808 43.253 141.287 44.539 142.767 45.826 141.287 44.539 139.808" fill="#dcdcdc"/><polygon points="44.539 131.543 43.253 133.022 44.539 134.502 45.826 133.022 44.539 131.543" fill="#dcdcdc"/><polygon points="44.539 123.279 43.253 124.758 44.539 126.238 45.826 124.758 44.539 123.279" fill="#dcdcdc"/><polygon points="44.539 115.015 43.253 116.494 44.539 117.974 45.826 116.494 44.539 115.015" fill="#dcdcdc"/><polygon points="44.539 106.75 43.253 108.23 44.539 109.709 45.826 108.23 44.539 106.75" fill="#dcdcdc"/><polygon points="44.539 98.486 43.253 99.966 44.539 101.445 45.826 99.966 44.539 98.486" fill="#dcdcdc"/><polygon points="51.73 156.336 50.444 157.816 51.73 159.295 53.017 157.816 51.73 156.336" fill="#dcdcdc"/><polygon points="51.73 148.072 50.444 149.551 51.73 151.031 53.017 149.551 51.73 148.072" fill="#dcdcdc"/><polygon points="51.73 139.808 50.444 141.287 51.73 142.767 53.017 141.287 51.73 139.808" fill="#dcdcdc"/><polygon points="51.73 131.543 50.444 133.022 51.73 134.502 53.017 133.022 51.73 131.543" fill="#dcdcdc"/><polygon points="51.73 123.279 50.444 124.758 51.73 126.238 53.017 124.758 51.73 123.279" fill="#dcdcdc"/><polygon points="51.73 115.015 50.444 116.494 51.73 117.974 53.017 116.494 51.73 115.015" fill="#dcdcdc"/><polygon points="51.73 106.75 50.444 108.23 51.73 109.709 53.017 108.23 51.73 106.75" fill="#dcdcdc"/><polygon points="51.73 98.486 50.444 99.966 51.73 101.445 53.017 99.966 51.73 98.486" fill="#dcdcdc"/><polygon points="60.21 157.816 58.922 156.336 57.635 157.816 58.922 159.295 60.21 157.816" fill="#dcdcdc"/><polygon points="58.922 148.072 57.635 149.551 58.922 151.031 60.211 149.551 58.922 148.072" fill="#dcdcdc"/><polygon points="58.922 139.808 57.635 141.287 58.922 142.767 60.211 141.287 58.922 139.808" fill="#dcdcdc"/><polygon points="58.922 131.543 57.635 133.022 58.922 134.502 60.211 133.022 58.922 131.543" fill="#dcdcdc"/><polygon points="58.922 123.279 57.635 124.758 58.922 126.238 60.211 124.758 58.922 123.279" fill="#dcdcdc"/><polygon points="58.922 115.015 57.635 116.494 58.922 117.974 60.211 116.494 58.922 115.015" fill="#dcdcdc"/><polygon points="58.922 106.75 57.635 108.23 58.922 109.709 60.211 108.23 58.922 106.75" fill="#dcdcdc"/><polygon points="58.922 98.486 57.635 99.966 58.922 101.445 60.211 99.966 58.922 98.486" fill="#dcdcdc"/><polygon points="66.114 156.336 64.827 157.816 66.114 159.295 67.401 157.816 66.114 156.336" fill="#dcdcdc"/><polygon points="66.114 148.072 64.827 149.551 66.114 151.031 67.401 149.551 66.114 148.072" fill="#dcdcdc"/><polygon points="66.114 139.808 64.827 141.287 66.114 142.767 67.401 141.287 66.114 139.808" fill="#dcdcdc"/><polygon points="66.114 131.543 64.827 133.022 66.114 134.502 67.401 133.022 66.114 131.543" fill="#dcdcdc"/><polygon points="66.114 123.279 64.827 124.758 66.114 126.238 67.401 124.758 66.114 123.279" fill="#dcdcdc"/><polygon points="66.114 115.015 64.827 116.494 66.114 117.974 67.401 116.494 66.114 115.015" fill="#dcdcdc"/><polygon points="66.114 106.75 64.827 108.23 66.114 109.709 67.401 108.23 66.114 106.75" fill="#dcdcdc"/><polygon points="66.114 98.486 64.827 99.966 66.114 101.445 67.401 99.966 66.114 98.486" fill="#dcdcdc"/><polygon points="73.305 156.336 72.018 157.816 73.305 159.295 74.592 157.816 73.305 156.336" fill="#dcdcdc"/><polygon points="73.305 148.072 72.018 149.551 73.305 151.031 74.592 149.551 73.305 148.072" fill="#dcdcdc"/><polygon points="73.305 139.808 72.018 141.287 73.305 142.767 74.592 141.287 73.305 139.808" fill="#dcdcdc"/><polygon points="73.305 131.543 72.018 133.022 73.305 134.502 74.592 133.022 73.305 131.543" fill="#dcdcdc"/><polygon points="73.305 123.279 72.018 124.758 73.305 126.238 74.592 124.758 73.305 123.279" fill="#dcdcdc"/><polygon points="73.305 115.015 72.018 116.494 73.305 117.974 74.592 116.494 73.305 115.015" fill="#dcdcdc"/><polygon points="73.305 106.75 72.018 108.23 73.305 109.709 74.592 108.23 73.305 106.75" fill="#dcdcdc"/><polygon points="73.305 98.486 72.018 99.966 73.305 101.445 74.592 99.966 73.305 98.486" fill="#dcdcdc"/><polygon points="80.497 156.336 79.209 157.816 80.497 159.295 81.784 157.816 80.497 156.336" fill="#dcdcdc"/><polygon points="80.497 148.072 79.208 149.551 80.497 151.031 81.784 149.551 80.497 148.072" fill="#dcdcdc"/><polygon points="80.497 139.808 79.208 141.287 80.497 142.767 81.784 141.287 80.497 139.808" fill="#dcdcdc"/><polygon points="80.497 131.543 79.208 133.022 80.497 134.502 81.784 133.022 80.497 131.543" fill="#dcdcdc"/><polygon points="80.497 123.279 79.208 124.758 80.497 126.238 81.784 124.758 80.497 123.279" fill="#dcdcdc"/><polygon points="80.497 115.015 79.208 116.494 80.497 117.974 81.784 116.494 80.497 115.015" fill="#dcdcdc"/><polygon points="80.497 106.75 79.208 108.23 80.497 109.709 81.784 108.23 80.497 106.75" fill="#dcdcdc"/><polygon points="80.497 98.486 79.208 99.966 80.497 101.445 81.784 99.966 80.497 98.486" fill="#dcdcdc"/><polygon points="87.688 159.295 88.975 157.816 87.688 156.336 86.401 157.816 87.688 159.295" fill="#dcdcdc"/><polygon points="87.688 151.031 88.975 149.551 87.688 148.072 86.401 149.551 87.688 151.031" fill="#dcdcdc"/><polygon points="87.688 142.767 88.975 141.287 87.688 139.808 86.401 141.287 87.688 142.767" fill="#dcdcdc"/><polygon points="87.688 134.502 88.975 133.022 87.688 131.543 86.401 133.022 87.688 134.502" fill="#dcdcdc"/><polygon points="87.688 126.238 88.975 124.758 87.688 123.279 86.401 124.758 87.688 126.238" fill="#dcdcdc"/><polygon points="87.688 117.974 88.975 116.494 87.688 115.015 86.401 116.494 87.688 117.974" fill="#dcdcdc"/><polygon points="87.688 109.709 88.975 108.23 87.688 106.75 86.401 108.23 87.688 109.709" fill="#dcdcdc"/><polygon points="87.688 101.445 88.975 99.966 87.688 98.486 86.401 99.966 87.688 101.445" fill="#dcdcdc"/><polygon points="94.879 159.295 96.167 157.816 94.879 156.336 93.592 157.816 94.879 159.295" fill="#dcdcdc"/><polygon points="94.879 151.031 96.168 149.551 94.879 148.072 93.592 149.551 94.879 151.031" fill="#dcdcdc"/><polygon points="94.879 142.767 96.168 141.287 94.879 139.808 93.592 141.287 94.879 142.767" fill="#dcdcdc"/><polygon points="94.879 134.502 96.168 133.022 94.879 131.543 93.592 133.022 94.879 134.502" fill="#dcdcdc"/><polygon points="94.879 126.238 96.168 124.758 94.879 123.279 93.592 124.758 94.879 126.238" fill="#dcdcdc"/><polygon points="94.879 117.974 96.168 116.494 94.879 115.015 93.592 116.494 94.879 117.974" fill="#dcdcdc"/><polygon points="94.879 109.709 96.168 108.23 94.879 106.75 93.592 108.23 94.879 109.709" fill="#dcdcdc"/><polygon points="94.879 101.445 96.168 99.966 94.879 98.486 93.592 99.966 94.879 101.445" fill="#dcdcdc"/><polygon points="102.02 208.727 103.306 207.248 102.02 205.769 100.733 207.248 102.02 208.727" fill="#dcdcdc"/><polygon points="110.497 207.248 109.211 205.769 107.924 207.248 109.211 208.727 110.497 207.248" fill="#dcdcdc"/><path d="M161.4,221.405l-1.287,1.479.879,1.011c.3-.035.6-.067.906-.1l.791-.907Z" transform="translate(-45 -15.637)" fill="#dcdcdc"/><path d="M168.594,221.405l-1.287,1.479.079.091c.74-.13,1.477-.271,2.211-.416Z" transform="translate(-45 -15.637)" fill="#dcdcdc"/><path d="M125.5,221.405l-.469.538c.383.087.769.167,1.154.25Z" transform="translate(-45 -15.637)" fill="#dcdcdc"/><path d="M132.688,221.405l-1.287,1.479.3.347q.867.14,1.74.265l.532-.612Z" transform="translate(-45 -15.637)" fill="#dcdcdc"/><path d="M139.879,221.405l-1.287,1.479,1.155,1.328.245.022,1.176-1.35Z" transform="translate(-45 -15.637)" fill="#dcdcdc"/><polygon points="76.651 60.434 86.651 70.434 130.651 70.434 130.651 122.434 52.651 122.434 52.651 60.434 76.651 60.434" fill="#e4f5fa"/><path d="M175.651,138.57h-78a.5.5,0,0,1-.5-.5v-62a.5.5,0,0,1,.5-.5h24a.5.5,0,0,1,.354.146l9.853,9.854h43.793a.5.5,0,0,1,.5.5v52A.5.5,0,0,1,175.651,138.57Zm-77.5-1h77v-51h-43.5a.5.5,0,0,1-.353-.147l-9.854-9.853H98.151Z" transform="translate(-45 -15.637)" fill="#226d7a"/><path d="M195.333,165.734a.5.5,0,0,1-.381-.175c-.132-.156-13.237-15.539-14-16.376a.5.5,0,0,1,.742-.672c.709.784,11.62,13.59,13.694,16.022l3.905-3.253-13.232-16.018a.5.5,0,0,1,.772-.637l13.548,16.4a.5.5,0,0,1-.066.7l-4.667,3.889A.5.5,0,0,1,195.333,165.734Z" transform="translate(-45 -15.637)" fill="#226d7a"/><circle cx="126.611" cy="114.987" r="20.611" fill="#fff"/><path d="M171.611,151.734a21.111,21.111,0,1,1,21.112-21.111A21.135,21.135,0,0,1,171.611,151.734Zm0-41.222a20.111,20.111,0,1,0,20.112,20.111A20.133,20.133,0,0,0,171.611,110.512Z" transform="translate(-45 -15.637)" fill="#226d7a"/><polygon points="118.611 104.487 130.111 104.487 134.611 108.987 134.611 125.487 118.611 125.487 118.611 104.487" fill="#22b8d1"/><path d="M180.1,124.558a.411.411,0,0,0-.012-.061.483.483,0,0,0-.121-.227l-4.5-4.5a.482.482,0,0,0-.229-.122c-.02,0-.038-.009-.058-.012a.528.528,0,0,0-.067-.013h-11.5a.5.5,0,0,0-.5.5v21a.5.5,0,0,0,.5.5h16a.5.5,0,0,0,.5-.5v-16.5A.467.467,0,0,0,180.1,124.558Zm-1.694-.435h-2.793V121.33Zm-14.293,16.5v-20h10.5v4a.5.5,0,0,0,.5.5h4v15.5Z" transform="translate(-45 -15.637)" fill="#226d7a"/></svg>