<svg xmlns="http://www.w3.org/2000/svg" viewBox="0 0 100 114"><path d="M37.5 2.979A20.521 20.521 0 1 1 16.979 23.5 20.545 20.545 0 0 1 37.5 2.979M37.5 0A23.5 23.5 0 1 0 61 23.5 23.5 23.5 0 0 0 37.5 0z" fill="#c1aa95"></path><circle cx="75.3" cy="82.5" r="23.5" fill="#edddc5"></circle><path d="M72.5 107A27.5 27.5 0 1 1 100 79.5 27.531 27.531 0 0 1 72.5 107zm0-51.991A24.491 24.491 0 1 0 96.991 79.5 24.519 24.519 0 0 0 72.5 55.009z" fill="#c1aa95"></path><path d="M44.2 98H13.429A13.306 13.306 0 0 1 .092 84.755 37.05 37.05 0 0 1 54 52.058l-1.372 2.65A34.047 34.047 0 0 0 3.093 84.755a10.312 10.312 0 0 0 10.336 10.264H44.2zM82.55 78.153h-8.1v-8.1a1.5 1.5 0 0 0-3 0v8.1h-8.1a1.5 1.5 0 0 0 0 3h8.1v8.1a1.5 1.5 0 0 0 3 0v-8.1h8.1a1.5 1.5 0 0 0 0-3z" fill="#c1aa95"></path><path d="M88 36.9a1.218 1.218 0 0 1-1.218-1.218 9.575 9.575 0 0 0-9.566-9.564 1.218 1.218 0 0 1 0-2.435 9.576 9.576 0 0 0 9.566-9.566 1.218 1.218 0 0 1 2.435 0 9.576 9.576 0 0 0 9.565 9.566 1.218 1.218 0 0 1 0 2.435 9.575 9.575 0 0 0-9.565 9.564A1.217 1.217 0 0 1 88 36.9zm-5.52-12A12.086 12.086 0 0 1 88 30.422a12.077 12.077 0 0 1 5.518-5.519A12.077 12.077 0 0 1 88 19.384a12.086 12.086 0 0 1-5.519 5.516zM100 47a3 3 0 1 1-3-3 3 3 0 0 1 3 3M29 110a4 4 0 1 1-4-4 4 4 0 0 1 4 4M48 111a3 3 0 1 1-3-3 3 3 0 0 1 3 3M12 106a6 6 0 1 1-6-6 6 6 0 0 1 6 6" fill="#e4cdac"></path></svg>