<svg xmlns="http://www.w3.org/2000/svg" viewBox="0 0 96 96"><rect opacity="0" width="96" height="96" fill="#fff"/><path d="M21.889,91.884l46-4L76.992,70l17.4.382-6-55L24.722,18.921l-7.765,7.946Z" class="sgmaincolor"/><path d="M30.942,30.1c-.21-.447-1.036-.506-1.987-.2l-5.519-5.519-1.415,1.414,5.124,5.124c-.508.465-.756.96-.593,1.307.259.551,1.452.522,2.664-.065S31.2,30.649,30.942,30.1Z"/><path d="M89.144,14.449,28.285,17.83l1.62-1.62-3.158-3.158-2.27.87L13.829,6.448l-.5-1.734L12.538,2-.095,14.631l4.448,1.293,7.475,10.65-.871,2.269L14.116,32l1.936-1.936,4.781,63.02,47.259-4.11L95.313,71ZM14.116,29.172l-.826-.825.406-1.056.381-.994-.612-.872L5.99,14.775l-.4-.575L4.912,14l-1.2-.349L11.562,5.8,11.908,7l.2.678.577.405,10.648,7.474.871.612.994-.381,1.058-.406.826.826L25.291,18l-.043,0-9.4,9.4,0,.039Zm3.8-.973,8.248-8.248,61.2-3.4L93.083,69,76.129,69,67.352,87.031,22.675,90.916ZM91.682,71,70.605,84.918,77.379,71Z"/><path d="M47.965,50.229l3.445-.3a4.875,4.875,0,0,0,3.539-1.549,4.528,4.528,0,0,0,.9-3.371,4.011,4.011,0,0,0-1.444-2.963,4.567,4.567,0,0,0-3.329-.813,4.784,4.784,0,0,0-3.021,1.29,3.26,3.26,0,0,0-1.021,2.76l-6.467.566a7.985,7.985,0,0,1,.976-4.7,9.2,9.2,0,0,1,3.571-3.5,12.9,12.9,0,0,1,5.349-1.619q5.169-.452,8.316,1.765a8.464,8.464,0,0,1,3.528,6.556,6.9,6.9,0,0,1-1,4.238,8.9,8.9,0,0,1-3.328,3.2,8.145,8.145,0,0,1,4.365,2.6,8.063,8.063,0,0,1,1.76,4.536,8.612,8.612,0,0,1-2.558,7.235,12.774,12.774,0,0,1-8.15,3.352,12.118,12.118,0,0,1-8.2-1.876A8.436,8.436,0,0,1,41.5,61.1l6.466-.566a3.754,3.754,0,0,0,1.64,2.878,5.759,5.759,0,0,0,7-.668,4.231,4.231,0,0,0,1.026-3.349q-.426-4.878-5.8-4.407l-3.424.3Z"/></svg>