<svg xmlns="http://www.w3.org/2000/svg" viewBox="0 0 32 32"><rect x="1.883" y="26.107" width="6.547" height="5.893" fill="#edddc5"></rect><rect x="25.453" y="26.107" width="6.547" height="5.893" fill="#edddc5"></rect><rect x="13.668" y="26.107" width="6.547" height="5.893" fill="#edddc5"></rect><path d="M223.813,55.085a.371.371,0,0,1-.371-.37,2.917,2.917,0,0,0-2.913-2.914.371.371,0,1,1,0-.741,2.917,2.917,0,0,0,2.913-2.914.371.371,0,0,1,.742,0A2.917,2.917,0,0,0,227.1,51.06a.371.371,0,1,1,0,.741,2.917,2.917,0,0,0-2.913,2.914A.371.371,0,0,1,223.813,55.085Zm-1.681-3.655a3.684,3.684,0,0,1,1.681,1.681,3.684,3.684,0,0,1,1.681-1.681,3.675,3.675,0,0,1-1.681-1.681A3.675,3.675,0,0,1,222.132,51.43Z" transform="translate(-195.468 -47.232)" fill="#e4cdac"></path><path d="M195.8,60.358a1.218,1.218,0,1,1,1.723.041,1.22,1.22,0,0,1-1.723-.041" transform="translate(-195.468 -47.232)" fill="#e4cdac"></path><path d="M200.552,64.006a.914.914,0,1,1,1.292.031.914.914,0,0,1-1.292-.031" transform="translate(-195.468 -47.232)" fill="#e4cdac"></path><path d="M212.409,49a6.443,6.443,0,0,0-6.547,6.351c0,5.762,6.547,10.018,6.547,10.018s6.548-4.256,6.548-10.018A6.444,6.444,0,0,0,212.409,49Zm0,8.97a2.622,2.622,0,1,1,2.75-2.619A2.687,2.687,0,0,1,212.409,57.968Z" transform="translate(-195.468 -47.232)" fill="#edddc5"></path><path d="M226.042,71.457h-2.817V67.986a.456.456,0,0,0-.456-.457H211.441V64.3a20.118,20.118,0,0,0,3.153-2.781,11.322,11.322,0,0,0,3.394-7.478,7.007,7.007,0,0,0-14.008,0,11.32,11.32,0,0,0,3.393,7.478,20.11,20.11,0,0,0,3.154,2.781v3.23H199.2a.456.456,0,0,0-.456.457v3.471h-2.817a.458.458,0,0,0-.457.457v5.892a.457.457,0,0,0,.457.457h6.547a.457.457,0,0,0,.457-.457V71.914a.458.458,0,0,0-.457-.457h-2.817V68.442h10.872v3.015H207.71a.458.458,0,0,0-.457.457v5.892a.457.457,0,0,0,.457.457h6.547a.456.456,0,0,0,.457-.457V71.914a.457.457,0,0,0-.457-.457h-2.816V68.442h10.871v3.015H219.5a.458.458,0,0,0-.457.457v5.892a.457.457,0,0,0,.457.457h6.547a.457.457,0,0,0,.457-.457V71.914A.458.458,0,0,0,226.042,71.457ZM204.893,54.04a6.094,6.094,0,0,1,12.181,0c0,4.817-4.916,8.622-6.09,9.461C209.81,62.662,204.893,58.857,204.893,54.04Zm-2.878,23.31h-5.633V72.371h5.633Zm11.785,0h-5.633V72.371H213.8Zm11.785,0h-5.633V72.371h5.633Z" transform="translate(-195.468 -47.232)" fill="#c1aa95"></path><path d="M210.984,57.116a3.079,3.079,0,1,1,3.206-3.076A3.147,3.147,0,0,1,210.984,57.116Zm0-5.238a2.166,2.166,0,1,0,2.293,2.162A2.233,2.233,0,0,0,210.984,51.878Z" transform="translate(-195.468 -47.232)" fill="#c1aa95"></path></svg>