<svg xmlns="http://www.w3.org/2000/svg" viewBox="0 0 118.9 114.5"><path fill="#edddc5" d="M65.4 7.6c-13.8 0-29.9 9.6-29.9 32.3 0 17.6 28.6 62.9 29.5 64.9 0 0 30.2-47.2 30.2-64.9S84 7.6 65.4 7.6zm0 45.1c-8.5 0-15.4-6.9-15.4-15.4s6.9-15.4 15.4-15.4 15.4 6.9 15.4 15.4-6.9 15.4-15.4 15.4z"></path><path fill="#e4cdac" d="M18.1 112.6c-.7 0-1.2-.5-1.2-1.2 0-5.3-4.3-9.6-9.6-9.6-.7 0-1.2-.5-1.2-1.2s.5-1.2 1.2-1.2c5.3 0 9.6-4.3 9.6-9.6 0-.7.5-1.2 1.2-1.2s1.2.5 1.2 1.2c0 5.3 4.3 9.6 9.6 9.6.7 0 1.2.5 1.2 1.2s-.5 1.2-1.2 1.2c-5.3 0-9.6 4.3-9.6 9.6 0 .7-.5 1.2-1.2 1.2zm-5.5-12c2.4 1.2 4.3 3.1 5.5 5.5 1.2-2.4 3.1-4.3 5.5-5.5-2.4-1.2-4.3-3.1-5.5-5.5-1.1 2.4-3.1 4.3-5.5 5.5zm78.4 9.9c0 2.2 1.8 4 4 4s4-1.8 4-4-1.8-4-4-4-4 1.8-4 4m15.9-8.8c0 3.3 2.7 6 6 6s6-2.7 6-6-2.7-6-6-6-6 2.7-6 6"></path><path fill="#c1aa95" d="M59.3 100.4c-1.1 0-2.1-.6-2.7-1.5-6.7-11-26.5-47.4-28-61.4-1.1-9.9 1.8-19.8 7.7-26.4C41.8 4.8 50 1.5 59.7 1.5c9.6 0 17.6 3.3 23.1 9.6 5.9 6.7 8.6 16.3 7.3 26.4C88.4 52 66.3 91.6 62 98.8c-.6 1-1.6 1.6-2.7 1.6zm.4-95.9c-8.9 0-16.2 3-21.3 8.5-5.4 6-8 15-7 24.1C33 50.7 53.4 88 59.1 97.3c0 0 .1.1.2.1s.2-.1.2-.1C66 86.2 85.6 49.9 87.2 37.1c1.1-9.2-1.3-18-6.6-24-4.9-5.7-12.1-8.6-20.9-8.6z"></path><path fill="#c1aa95" d="M59.4 49.8c-9.3 0-16.8-7.6-16.8-16.8s7.6-16.8 16.8-16.8S76.2 23.8 76.2 33s-7.5 16.8-16.8 16.8zm0-30.7c-7.6 0-13.8 6.2-13.8 13.8s6.2 13.8 13.8 13.8 13.8-6.2 13.8-13.8S67 19.1 59.4 19.1zm15 82.6h-30c-.8 0-1.5-.7-1.5-1.5s.7-1.5 1.5-1.5h30c.8 0 1.5.7 1.5 1.5s-.7 1.5-1.5 1.5zM23.5 75.1c-1 0-1.9-.5-2.4-1.3-3-5-19.7-34.6-21-46-.8-7.5 1.4-15 5.9-20C10.3 3 16.4.5 23.9.5c7.4 0 13.6 2.6 17.8 7.6.5.6.5 1.6-.2 2.1-.6.5-1.6.5-2.1-.2-3.6-4.3-9-6.5-15.5-6.5S12 5.7 8.3 9.8c-3.9 4.4-5.8 11-5.1 17.7 1.1 9.9 15.9 37 20.3 44.4C25.8 68 29.9 60.6 33.7 53c.4-.7 1.3-1 2-.7.7.4 1 1.3.7 2-4 7.9-8.2 15.6-10.5 19.5-.5.8-1.4 1.3-2.4 1.3z"></path><path fill="#c1aa95" d="M23.6 37.3c-7.1 0-13-5.8-13-13s5.8-13 13-13c4.1 0 8 2 10.4 5.3.5.7.3 1.6-.3 2.1s-1.6.3-2.1-.3c-1.9-2.6-4.9-4.1-8-4.1-5.5 0-10 4.5-10 10s4.5 10 10 10c1.9 0 3.8-.5 5.4-1.6.7-.5 1.6-.2 2.1.4.5.7.2 1.6-.4 2.1-2.2 1.4-4.6 2.1-7.1 2.1zm11.2 38.8H12.4c-.8 0-1.5-.7-1.5-1.5s.7-1.5 1.5-1.5h22.4c.8 0 1.5.7 1.5 1.5s-.7 1.5-1.5 1.5zm60.6-1.5c-1 0-1.9-.5-2.4-1.4-2.3-3.8-6.6-11.6-10.5-19.5-.4-.7-.1-1.6.7-2 .7-.4 1.6-.1 2 .7 3.8 7.6 7.9 15 10.2 18.9 4.5-7.5 19.3-34.5 20.3-44.4.7-6.7-1.2-13.3-5.1-17.7-3.7-4-9-6.2-15.6-6.2-6.5 0-11.9 2.3-15.5 6.5-.5.6-1.5.7-2.1.2-.6-.5-.7-1.5-.2-2.1C81.4 2.6 87.6 0 95 0s13.6 2.5 17.8 7.2c4.5 5 6.7 12.5 5.9 20-1.2 11.4-17.9 41-21 46-.5.9-1.3 1.4-2.3 1.4z"></path><path fill="#c1aa95" d="M95.3 36.8c-2.5 0-4.9-.7-7-2.1-.7-.4-.9-1.4-.4-2.1.5-.7 1.4-.9 2.1-.4 1.6 1 3.5 1.6 5.4 1.6 5.5 0 10-4.5 10-10s-4.5-10-10-10c-3.2 0-6.2 1.5-8 4.1-.5.7-1.4.8-2.1.3-.7-.5-.8-1.4-.3-2.1 2.4-3.3 6.3-5.3 10.5-5.3 7.1 0 13 5.8 13 13s-6.1 13-13.2 13zm11.2 38.8H84.1c-.8 0-1.5-.7-1.5-1.5s.7-1.5 1.5-1.5h22.4c.8 0 1.5.7 1.5 1.5s-.7 1.5-1.5 1.5z"></path></svg>