<svg xmlns="http://www.w3.org/2000/svg" viewBox="0 0 96 96"><polyline points="76.591 65.402 71.333 69.661 71.333 74.984 76.591 79.243 22.667 79.243 17.409 74.984 17.409 13.233 22.667 7.909 76.591 7.909 76.591 65.402" class="sgmaincolor"/><polygon points="64.069 68.927 49.346 68.927 49.346 88.091 56.707 80.638 64.069 88.091 64.069 68.927" class="sgmaincolor"/><path d="M60.525,32.4a11.274,11.274,0,0,1-5.258,9.582V47.3H44.751V41.979A11.276,11.276,0,0,1,39.493,32.4a10.517,10.517,0,1,1,21.032,0Z" class="sgmaincolor"/><path d="M50.01,20.642A11.7,11.7,0,0,0,38.385,32.4a12.4,12.4,0,0,0,5.257,10.194V47.3a1.108,1.108,0,0,0,1.109,1.109H55.267A1.108,1.108,0,0,0,56.376,47.3V42.591A12.4,12.4,0,0,0,61.634,32.4,11.7,11.7,0,0,0,50.01,20.642Zm4.7,20.38a1.11,1.11,0,0,0-.548.957v4.215H51.118V34.57h3.1a1.109,1.109,0,0,0,0-2.217H45.8a1.109,1.109,0,1,0,0,2.217h3.1V46.194H45.859V41.979a1.11,1.11,0,0,0-.548-.957A10.2,10.2,0,0,1,40.6,32.4a9.409,9.409,0,1,1,18.816,0A10.2,10.2,0,0,1,54.707,41.022Z"/><path d="M54.216,52.669H45.8a1.108,1.108,0,1,1,0-2.216h8.413a1.108,1.108,0,0,1,0,2.216Z"/><polyline points="17.409 69.661 22.667 65.402 76.591 65.402" class="sgmaincolor"/><path d="M23.719,59.058a1.108,1.108,0,0,1-1.109-1.109V15.362a1.109,1.109,0,1,1,2.217,0V57.949A1.108,1.108,0,0,1,23.719,59.058Z"/><path d="M77.288,66.263c.014-.011.019-.029.032-.041a1.048,1.048,0,0,0,.2-.256A.809.809,0,0,0,77.7,65.4V7.909A1.108,1.108,0,0,0,76.591,6.8H22.667a1.11,1.11,0,0,0-.789.329L16.62,12.454a1.11,1.11,0,0,0-.319.778V74.984a1.106,1.106,0,0,0,.411.862L21.97,80.1a1.1,1.1,0,0,0,.7.248h25.57v7.739a1.109,1.109,0,0,0,1.9.779l6.572-6.654,6.572,6.654a1.109,1.109,0,0,0,1.9-.779V80.352H76.591a1.108,1.108,0,0,0,.7-1.97l-4.847-3.926V70.189ZM22.61,77.771l-4.093-3.315V70.189l4.093-3.315Zm-.64-13.23-3.453,2.8V13.688l4.613-4.67H75.482V64.293H22.667A1.1,1.1,0,0,0,21.97,64.541Zm40.99,20.85-4.924-4.984a1.708,1.708,0,0,0-1.363-.616,1.554,1.554,0,0,0-1.241.561l-4.978,5.039V70.035H62.96Zm7.676-9.545,2.825,2.289H65.177V68.927a1.109,1.109,0,0,0-1.109-1.109H49.346a1.108,1.108,0,0,0-1.109,1.109v9.208H24.827V66.51H73.461L70.636,68.8a1.107,1.107,0,0,0-.412.862v5.323A1.107,1.107,0,0,0,70.636,75.846Z"/><rect width="96" height="96" fill="#fff" opacity="0"/></svg>