<svg xmlns="http://www.w3.org/2000/svg" viewBox="0 0 96 96"><g opacity="0"><rect width="96" height="96" fill="#fff"/></g><polygon points="61.006 24 40.404 3.398 19.898 23.904 19.994 24 14 24 14 32 42 65 42 92 53 84 53 65 82 32 82 24 61.006 24" class="sgmaincolor"/><path d="M41.111,24.9H19.9a1,1,0,0,1,0-2H41.111a1,1,0,0,1,0,2Z"/><path d="M82,23H61.42L41.111,2.69l-.008,0a.908.908,0,0,0-.737-.288.991.991,0,0,0-.313.076c-.011,0-.023,0-.034.008a1.006,1.006,0,0,0-.225.145.9.9,0,0,0-.1.063L19.387,23H14a1,1,0,0,0-1,1v8a1,1,0,0,0,.238.647L41,65.367V92a1,1,0,0,0,1.588.809l11-8A1,1,0,0,0,54,84V65.377L82.751,32.66A1,1,0,0,0,83,32V24A1,1,0,0,0,82,23ZM40.465,32.072a1,1,0,0,0,.962.962L48.6,33.3V51.188L22.408,25H40.2Zm10.131,1.3,17.178.637L50.6,51.188Zm-8.167-2.3L41.5,5.905,67.594,32ZM39.489,5.726,40.129,23H22.215ZM81,31.623,52.249,64.34A1,1,0,0,0,52,65V83.491l-9,6.545V65a1,1,0,0,0-.237-.647L15,31.633V25h4.58L48.888,54.308a.993.993,0,0,0,.323.217.989.989,0,0,0,.77,0,.993.993,0,0,0,.323-.217l20.5-20.5c.026-.027.036-.061.059-.089a.946.946,0,0,0,.149-.225,1,1,0,0,0,.048-.2.973.973,0,0,0,.036-.153c0-.006,0-.012,0-.018a.987.987,0,0,0-.04-.245,1.021,1.021,0,0,0-.027-.138,1.056,1.056,0,0,0-.083-.134.97.97,0,0,0-.129-.193s-.005-.012-.01-.016L63.419,25H81Z"/></svg>