<svg xmlns="http://www.w3.org/2000/svg" viewBox="0 0 64 64"><rect x="19.34" y="33" width="11.31" height="2" transform="translate(-16.72 27.64) rotate(-45)"/><path d="M30.7,36.71l-1.4-1.42,3.54-3.48a4,4,0,0,0,0-5.64,4,4,0,0,0-5.65,0L23.71,29.7l-1.42-1.4,3.47-3.54a6,6,0,0,1,8.49,8.48Z"/><path d="M46,43a4,4,0,1,1,4-4A4,4,0,0,1,46,43Zm0-6a2,2,0,1,0,2,2A2,2,0,0,0,46,37Z"/><path d="M45.92,32A7.08,7.08,0,0,1,53,39.08c0,3.19-1.9,6.41-3.5,8.55a25.56,25.56,0,0,1-3.63,4c-1.87-1.55-7-7-7-12.54A7.08,7.08,0,0,1,45.92,32m0-2a9.08,9.08,0,0,0-9.07,9.08c0,7.16,7.24,14.07,8.71,14.74L46,54l.38-.21a23.43,23.43,0,0,0,4.78-5c1.77-2.39,3.89-6,3.89-9.75A9.09,9.09,0,0,0,45.92,30Z"/><circle cx="14.5" cy="15.5" r="1.5"/><circle cx="19.5" cy="15.5" r="1.5"/><circle cx="24.5" cy="15.5" r="1.5"/><path d="M52,10H12a3,3,0,0,0-3,3V51a3,3,0,0,0,3,3H37V52H12a1,1,0,0,1-1-1V20.93H53V27h2V13A3,3,0,0,0,52,10ZM11,18.93V13a1,1,0,0,1,1-1H52a1,1,0,0,1,1,1v5.93Z"/><path d="M20,45a6,6,0,0,1-4.24-10.24l3.55-3.47,1.4,1.42-3.54,3.48a4,4,0,0,0,0,5.64,4,4,0,0,0,5.65,0l3.47-3.53,1.42,1.4-3.47,3.54A5.93,5.93,0,0,1,20,45Z"/></svg>
