<svg xmlns="http://www.w3.org/2000/svg" viewBox="0 0 96 96"><g opacity="0"><rect width="96" height="96" fill="#fff"/></g><polygon points="92.652 14.746 19.856 14.746 19.856 23.143 10.775 23.143 10.775 31.845 2.923 31.841 2.923 79.869 76.161 79.869 76.161 35.455 84.014 35.455 84.014 26.364 92.652 26.364 92.652 14.746" class="sgmaincolor"/><ellipse cx="8.576" cy="38.097" rx="1.871" ry="1.883"/><ellipse cx="14.188" cy="38.097" rx="1.871" ry="1.883"/><ellipse cx="19.8" cy="38.097" rx="1.871" ry="1.883"/><polygon points="23.141 49.86 23.116 76.011 49.314 76.011 49.321 49.756 23.141 49.86" class="sgmaincolor"/><path d="M33.3,67.228c-.033,0-.066,0-.1,0a1,1,0,0,1-.7-.4l-2.193-2.943a1,1,0,1,1,1.6-1.2l1.539,2.066L39.21,59.6a1,1,0,1,1,1.334,1.49l-6.578,5.888A1,1,0,0,1,33.3,67.228Z"/><path d="M35.731,72.312a9.03,9.03,0,1,1,8.974-9.031A9.013,9.013,0,0,1,35.731,72.312Zm0-16.06a7.03,7.03,0,1,0,6.974,7.029A7.01,7.01,0,0,0,35.731,56.252Z"/><path d="M92.651,13.746H19.856a1,1,0,0,0-1,1v7.4H10.775a1,1,0,0,0-1,1v7.7H2.923a1,1,0,0,0-1,1V79.869a1,1,0,0,0,1,1H76.161a1,1,0,0,0,1-1v-7.7h6.853a1,1,0,0,0,1-1v-7.7h7.637a1,1,0,0,0,1-1V14.746A1,1,0,0,0,92.651,13.746ZM3.923,32.841h6.828c.009,0,.016,0,.024,0s.016,0,.025,0H30.779a11.742,11.742,0,0,0-5.238,9.891v.42H3.923Zm38.012,0H75.161V43.152H47.173v-.42A11.74,11.74,0,0,0,41.935,32.841ZM30.166,45.152H42.549v3.707H30.166Zm12.383-2H30.166v-.42a6.492,6.492,0,0,1,6.192-6.742,6.492,6.492,0,0,1,6.191,6.742ZM29.184,50.859H48.315V75.012h-24.2l.016-24.153h5.051Zm15.989-8.127v6.127h-.624V42.732a8.49,8.49,0,0,0-8.191-8.742,8.49,8.49,0,0,0-8.192,8.742v6.127h-.625V42.732c0-5.275,3.955-9.567,8.817-9.567S45.173,37.457,45.173,42.732ZM75.161,63.008V78.869H3.923V45.152H25.541v3.707H23.134a1,1,0,0,0-1,1l-.018,26.153a1,1,0,0,0,1,1h26.2a1,1,0,0,0,1-1V49.859a1,1,0,0,0-1-1H47.173V45.152H75.161V62.659a.9.9,0,0,0,.016.174A.919.919,0,0,0,75.161,63.008Zm7.853-.606c0,.025-.015.047-.015.073s.013.047.015.072v7.625H77.161V63.008a1.008,1.008,0,0,0-.015-.175.988.988,0,0,0,.015-.174v-26.2h5.853Zm0-27.947H77.161V31.841a1,1,0,0,0-1-1H11.775v-6.7H83.014Zm8.637,27.02H85.014V27.363h6.637Zm0-36.111H85.014V23.144a1,1,0,0,0-1-1H20.856v-6.4H91.651Z"/></svg>