<svg xmlns="http://www.w3.org/2000/svg" viewBox="0 0 96 96"><g opacity="0"><rect width="96" height="96" fill="#fff"/></g><polygon points="62.738 23.228 73.604 30.618 75.912 42.879 87.987 48.441 90.601 59.525 81.151 72.566 14.751 72.739 13.099 71.169 5.565 63.536 5.565 62.463 7.721 56.988 9.702 51.678 17.059 49.082 22.819 37.534 23.405 36.244 39.647 34.064 48.649 23.983 62.738 23.228" class="sgmaincolor"/><path d="M91.6,59.529l-2.55-10.935a1.383,1.383,0,0,0-.644-1.061L76.8,42.187,74.587,30.433a.993.993,0,0,0-.431-.648L63.048,22.428a.985.985,0,0,0-.6-.165L48.6,22.984a1,1,0,0,0-.691.329l-8.983,9.966L23.281,35.252a.955.955,0,0,0-.254.069.279.279,0,0,0-.034.018.987.987,0,0,0-.271.185c-.01.01-.023.013-.033.023s-.007.013-.012.018a1,1,0,0,0-.168.236L16.342,48.274,9.369,50.736a1,1,0,0,0-.6.592v0a.961.961,0,0,0-.048.13L4.438,62.867a1,1,0,0,0,.224,1.053l9.376,9.52a1,1,0,0,0,.713.3H81.105a1,1,0,0,0,.807-.409l9.52-12.982A1,1,0,0,0,91.6,59.529ZM27.9,71.739l-9.17-21.48,19.527,2.01,9.025,19.47Zm38.92-21.382L41.553,34.391l20.1-9.626Zm8.69-5.041L79.375,67.3,69.624,52.565ZM40,51.266a.9.9,0,0,0,.022-.126c.111-4.957.283-11.958.392-15.1L66.826,52.725l-17.8,18.019ZM23.739,38.023c6.144,6.03,9.742,9.518,11.913,11.521l.514.5L18.614,48.237C19.864,45.792,22.5,40.511,23.739,38.023ZM37.993,48.965c-.5-.46-1.1-1.026-1.782-1.667L25.593,36.976l12.79-1.613ZM16.579,50.312l7.072,16.566L11.266,52.187Zm51.677,3.81L79.913,71.739H50.854Zm9.175-9.442L86.9,49.039,81.507,67.871ZM74.9,42.9l-6.04,7.438L63.8,25.327l8.9,5.892ZM49.115,24.96l8.413-.438L43.417,31.281ZM6.535,62.972l3.45-9.2L25.132,71.739H15.17Zm77.149,4.559,4.258-14.883,1.606,6.888Z"/></svg>