<svg xmlns="http://www.w3.org/2000/svg" viewBox="0 0 96 96"><g opacity="0"><rect width="96" height="96" fill="#fff"/></g><path d="M89.047,14.2a4,4,0,0,0-3.171-3.407,11.168,11.168,0,0,0-1.593-.115q-35.95-.009-71.9-.01c-2.041,0-3.688.606-4.553,2.621a5.356,5.356,0,0,0-.339,2.162c0,2.465.02,36.6-.009,43.688-.012,3.007,1.425,4.133,3.2,4.766a3.448,3.448,0,0,0,1.134.122c4.816.007,15.491,0,16.869,0h0a108.95,108.95,0,0,1-1.211-11.481c-.03-1.642.459-1.71,1.68-1.712a46.039,46.039,0,0,0,9.78-1.038c.757-.165,7.215-1.689,9.877-6.238l.08-.189C51.23,47.844,57.5,49.7,61,50.3a62.7,62.7,0,0,0,7.286.542c1.084.058,1.276.32,1.455,1.368a20.282,20.282,0,0,1,0,5.459c-.121,1.169-.588,3.753-1.168,6.458h0c2.445,0,11.177,0,15.819-.095,2.964-.06,4.741-1.611,4.762-4.55C89.21,52.16,89.135,17.688,89.047,14.2Z" class="sgmaincolor"/><path d="M53.039,70.784c-.134-1.682-.285-3.484-.474-5.259a2.493,2.493,0,0,1,.416-1.4c2-3.956.475-6.3-1.162-7.568a4.724,4.724,0,0,0-5.609-.474,5.348,5.348,0,0,0-2.785,5.226,6.2,6.2,0,0,0,1.115,3.1,1.706,1.706,0,0,1,.214,1.35c-.16,1.685-.339,3.369-.518,5.053-.127,1.2-.255,2.393-.375,3.59-.035.349-.092.7-.148,1.046a8.226,8.226,0,0,0-.064,3.264,2.551,2.551,0,0,0,.532.716,3.141,3.141,0,0,0,1.8.512h.01q2.61-.009,5.228,0h.009a3.14,3.14,0,0,0,1.8-.512.992.992,0,0,0,.161-.163.973.973,0,0,0,.392-.713,29,29,0,0,0-.3-5.441C53.194,72.34,53.1,71.563,53.039,70.784Zm-1.813,7.162q-2.622-.009-5.238,0h-.006a1.42,1.42,0,0,1-.439-.065,7.887,7.887,0,0,1,.145-2.11c.062-.387.124-.775.163-1.164.12-1.192.247-2.385.374-3.578.18-1.691.359-3.383.52-5.076a3.629,3.629,0,0,0-.632-2.774,4.1,4.1,0,0,1-.7-2.106,3.327,3.327,0,0,1,1.712-3.207,2.768,2.768,0,0,1,3.468.275c.981.76,2.11,2.114.606,5.083a4.351,4.351,0,0,0-.621,2.513c.186,1.752.336,3.538.468,5.207.065.8.161,1.607.255,2.41a30.046,30.046,0,0,1,.3,4.552,1.585,1.585,0,0,1-.371.04Z"/><path d="M90.046,14.174A4.976,4.976,0,0,0,86.019,9.8a12.035,12.035,0,0,0-1.735-.126l-32.684,0q-19.609,0-39.22-.006h-.005c-2.747,0-4.536,1.056-5.466,3.227a6.283,6.283,0,0,0-.421,2.557c0,1,0,4.334,0,8.768v0c0,3.281,0,7.163,0,11.145v0c0,9.814,0,20.234-.016,23.762-.017,3.877,2.2,5.116,3.864,5.712a4.5,4.5,0,0,0,1.467.178c2.6,0,6.9,0,10.531,0h5.524c.055.242.111.466.168.664a55.085,55.085,0,0,0,4.685,12.264,33.768,33.768,0,0,0,14.05,13.962,3.886,3.886,0,0,0,1.8.477,4.128,4.128,0,0,0,1.857-.487c7.548-3.773,13.441-10.581,17.041-19.688a57.174,57.174,0,0,0,1.916-7.1c3.11,0,10.8-.009,15.036-.095,3.573-.073,5.719-2.145,5.742-5.544C90.207,52.514,90.136,17.7,90.046,14.174ZM8.493,25.221h79.63c.011,2.811.021,5.94.029,9.149H8.495C8.494,31.131,8.494,28,8.493,25.221Zm.254-11.539c.605-1.413,1.69-2.016,3.628-2.016h.005q19.611.006,39.22.006l32.684,0a10.245,10.245,0,0,1,1.449.1,3,3,0,0,1,2.313,2.444c.025.984.049,4.415.069,9H8.492c0-3.931,0-6.852,0-7.773A4.4,4.4,0,0,1,8.747,13.682Zm56.859,57.8C62.189,80.127,56.63,86.57,49.53,90.12a1.734,1.734,0,0,1-1.844.022,31.84,31.84,0,0,1-13.228-13.17,53.477,53.477,0,0,1-4.5-11.829c-.786-2.745-1.461-11.294-1.485-12.612a3.115,3.115,0,0,1,.04-.668,5.677,5.677,0,0,1,.642-.025,47.2,47.2,0,0,0,9.992-1.063c.711-.154,6.561-1.534,9.742-5.561,3.285,4.272,9.857,5.711,11.948,6.068a43.789,43.789,0,0,0,5.676.479c.575.023,1.151.046,1.725.077a2.437,2.437,0,0,1,.414.047,3.362,3.362,0,0,1,.11.49,19.423,19.423,0,0,1-.01,5.188A90.57,90.57,0,0,1,65.606,71.485ZM88.159,59.472c-.016,2.309-1.288,3.507-3.783,3.557-4.032.083-11.23.092-14.569.095.467-2.279.827-4.331.933-5.355.058-.562.1-1.137.139-1.717h7.363a1,1,0,0,0,0-2H70.91a14.688,14.688,0,0,0-.18-2.013c-.231-1.354-.68-2.106-2.389-2.2-.583-.03-1.167-.054-1.75-.077a42.218,42.218,0,0,1-5.419-.451c-2.073-.356-9.022-1.867-11.4-6.4a1,1,0,0,0-1.842.17c-2.455,4.165-8.528,5.594-9.214,5.743a45.257,45.257,0,0,1-9.568,1.017,2.7,2.7,0,0,0-2.078.592,2.877,2.877,0,0,0-.6,2.137c.005.241.033.771.082,1.485h-8.1a1,1,0,0,0,0,2h8.256c.181,2.137.455,4.82.79,6.976H22.341c-3.629,0-7.931,0-10.555,0a3.18,3.18,0,0,1-.772-.062c-1.529-.547-2.545-1.405-2.535-3.82.014-3.411.017-13.256.016-22.772H88.156C88.178,46.118,88.182,56.084,88.159,59.472Z"/></svg>