<svg xmlns="http://www.w3.org/2000/svg" viewBox="0 0 96 96"><g opacity="0"><rect width="96" height="96" fill="#fff"/></g><polygon points="44.139 60 10.139 36 10 79 65 79 75 92 86 56 78 59 78.139 36 44.139 60" class="sgmaincolor"/><path d="M60,36H28a1,1,0,0,1,0-2H60a1,1,0,0,1,0,2Z"/><path d="M60,45H28a1,1,0,0,1,0-2H60a1,1,0,0,1,0,2Z"/><path d="M86.993,55.883h0a1,1,0,0,0-.312-.613h0l0,0h0A1,1,0,0,0,86.03,55a1.16,1.16,0,0,0-.2.014.939.939,0,0,0-.242.073L79,57.862V36c0-.031-.017-.058-.02-.089a.966.966,0,0,0-.053-.24,1.023,1.023,0,0,0-.07-.159c-.017-.029-.02-.061-.04-.089a.832.832,0,0,0-.106-.1,1.06,1.06,0,0,0-.07-.092l-6-5A.992.992,0,0,0,72,30.014V23a1.009,1.009,0,0,0-.294-.708l-18-18A1.009,1.009,0,0,0,53,4H17a1,1,0,0,0-1,1V30.014a.99.99,0,0,0-.641.217l-6,5c-.03.026-.043.063-.07.091a.918.918,0,0,0-.106.1.783.783,0,0,0-.04.089,1.023,1.023,0,0,0-.07.159.966.966,0,0,0-.053.24c0,.031-.02.058-.02.089V79a1,1,0,0,0,1,1H64V90a1,1,0,0,0,1.781.625l3.517-4.4,4.909,6.381a1,1,0,0,0,1.749-.317L86.95,56.313A1.04,1.04,0,0,0,87,56.067,1.027,1.027,0,0,0,86.993,55.883ZM76.358,35.934,72,39.011V32.3ZM54,7.414,68.586,22H54ZM18,6H52V23a1,1,0,0,0,1,1H70V40.423L53.6,52H34.4L18,40.423ZM50.766,54,44,58.776,37.234,54ZM16,32.3v6.709l-4.358-3.077ZM11,78V37.931l5.216,3.681a.968.968,0,0,0,.209.2L33.267,53.669a.989.989,0,0,0,.364.257l9.161,6.446.631.445a1,1,0,0,0,1.154,0l.631-.445,9.161-6.446a1.006,1.006,0,0,0,.364-.257L71.575,41.817a.968.968,0,0,0,.209-.2L77,37.931V58.7L47.612,71.078a1,1,0,0,0,.007,1.847L59.944,78Zm53.733-.191L50.6,71.989l31.589-13.3ZM66,87.149V81.94L68.043,84.6Zm8.61,2.7L66.3,79.055,83.747,59.95Z"/></svg>