<svg xmlns="http://www.w3.org/2000/svg" viewBox="0 0 32 30"><path d="M5.86 30h20.28A5.827 5.827 0 0 0 32 24.217V5.783A5.827 5.827 0 0 0 26.14 0H5.86A5.827 5.827 0 0 0 0 5.783v18.434A5.827 5.827 0 0 0 5.86 30zm24.506-5.783a4.247 4.247 0 0 1-4.266 4.206h-3.015l-2.308-2.278a.8.8 0 0 0-1.137 0 .776.776 0 0 0 0 1.121l1.172 1.157h-9.731l4.9-4.8 1.776 1.753a.843.843 0 0 0 .568.245.714.714 0 0 0 .569-.245.777.777 0 0 0 0-1.122l-2.1-2.067v-2.175h3.166l1.882 1.857.107.105c.035 0 .035.035.071.035s.035.035.071.035.036 0 .071.035c.036 0 .036 0 .071.035h8.133v2.1zm0-3.68H22.73l-1.63-1.612v-3.119h9.269zm0-6.308H21.1V11.11l1.63-1.61h7.636zM26.1 1.612a4.247 4.247 0 0 1 4.262 4.206v2.1h-8.129c-.035 0-.035 0-.071.035-.035 0-.035 0-.071.035a.05.05 0 0 0-.071 0c-.036 0-.036.035-.071.035l-.107.105-1.882 1.86H16.8V7.815l6.286-6.2zM1.6 5.783a4.247 4.247 0 0 1 4.26-4.206h3.019l2.309 2.278a.843.843 0 0 0 .568.245.711.711 0 0 0 .568-.245.775.775 0 0 0 0-1.121l-1.172-1.157h9.66l-4.83 4.8-1.776-1.751a.8.8 0 0 0-1.136 0 .776.776 0 0 0 0 1.122l2.095 2.067v2.944a.784.784 0 0 0 .782.771h3.516v6.9h-7v-7.846c0-.035 0-.035-.035-.07 0-.035 0-.035-.036-.07a.122.122 0 0 0-.035-.07c0-.035-.036-.035-.036-.07l-.106-.105-2.1-2.068-.106-.105c-.036-.035-.036-.035-.071-.035s-.036-.035-.072-.035-.035 0-.071-.035c-.035 0-.035 0-.071-.035H1.6zm0 3.68h7.634l1.634 1.612v3.119H1.6zm0 6.308h9.27v3.119l-1.636 1.647H1.6zm0 6.343h8.131c.036 0 .036 0 .071-.035.036 0 .036 0 .071-.035a.127.127 0 0 0 .072-.035c.035 0 .035-.035.071-.035l.106-.105L12 20.012h3.161v2.173l-6.357 6.2H5.86a4.247 4.247 0 0 1-4.26-4.203z"/></svg>