<svg xmlns="http://www.w3.org/2000/svg" viewBox="0 0 18 18"><path d="M10.16,13a1,1,0,1,1-1-1A1,1,0,0,1,10.16,13Zm1-8a2.36,2.36,0,0,1,.55,1.85,3.71,3.71,0,0,1-1.37,2,2,2,0,0,0-.93,1.65h-1A3,3,0,0,1,9.67,8.12a2.87,2.87,0,0,0,1.07-1.53A1.6,1.6,0,0,0,9.13,5,1.66,1.66,0,0,0,7.26,6.61l-1,0A2.66,2.66,0,0,1,9.13,4,2.51,2.51,0,0,1,11.16,5Z"></path><path d="M9,1a8,8,0,0,1,8,8,7.92,7.92,0,0,1-1.23,4.26c-.43.69-.16,1.61.42,3A6.26,6.26,0,0,0,14,15.51a1.25,1.25,0,0,0-.67.19A8,8,0,1,1,9,1M9,0a9,9,0,1,0,4.91,16.54.25.25,0,0,1,.13,0c.69,0,3.23,1.43,3.76,1.43l.08,0c.24-.25-1.68-3.46-1.26-4.13A9,9,0,0,0,9,0Z"></path></svg>