<svg xmlns="http://www.w3.org/2000/svg" viewBox="0 0 96 96"><rect x="16.986" y="14.305" width="67.376" height="45.798" class="sgmaincolor"/><polygon points="50.373 19.409 55.704 30.21 67.623 31.941 58.998 40.349 61.034 52.22 50.373 46.615 39.712 52.22 41.749 40.349 33.124 31.941 45.043 30.21 50.373 19.409" class="sgmaincolor"/><path d="M61.034,53.22a1,1,0,0,1-.466-.115l-10.194-5.36-10.2,5.36a1,1,0,0,1-1.451-1.054L40.675,40.7l-8.249-8.04a1,1,0,0,1,.554-1.706l11.4-1.657,5.1-10.329a1,1,0,0,1,.9-.557h0a1,1,0,0,1,.9.557l5.1,10.329,11.4,1.657a1,1,0,0,1,.555,1.706L60.072,40.7l1.947,11.353a1,1,0,0,1-.985,1.169ZM35.273,32.64l7.174,6.992a1,1,0,0,1,.287.886l-1.693,9.874,8.867-4.663a1,1,0,0,1,.932,0l8.866,4.663-1.694-9.874a1,1,0,0,1,.288-.886l7.173-6.992L55.56,31.2a1,1,0,0,1-.753-.547l-4.433-8.984-4.435,8.984a1,1,0,0,1-.753.547Z"/><path d="M84.362,13.305H16.986a1,1,0,0,0-1,1V80.756H9.452a1,1,0,1,0,0,2h15.3a1,1,0,0,0,0-2H17.986V61.1H84.362a1,1,0,0,0,1-1v-45.8A1,1,0,0,0,84.362,13.305Zm-1,45.8H17.986v-43.8H83.362Z"/><rect width="96" height="96" fill="#fff" opacity="0"/></svg>