<svg xmlns="http://www.w3.org/2000/svg" viewBox="0 0 96 96"><g opacity="0"><rect width="96" height="96" fill="#fff"/></g><polygon points="19 6 65 6 83 24 83 90 19 90 19 81 13 75 13 51 19 51 19 6" class="sgmaincolor"/><path d="M83,91H19a1,1,0,0,1-1-1V75a1,1,0,0,1,2,0V89H82V24.414L64.586,7H20V51a1,1,0,0,1-2,0V6a1,1,0,0,1,1-1H65a1,1,0,0,1,.707.293l18,18A1,1,0,0,1,84,24V90A1,1,0,0,1,83,91Z"/><path d="M83,25H65a1,1,0,0,1-1-1V6a1,1,0,0,1,2,0V23H83a1,1,0,0,1,0,2Z"/><path d="M77,76H13a1,1,0,0,1-1-1V51a1,1,0,0,1,1-1H77a1,1,0,0,1,1,1V75A1,1,0,0,1,77,76ZM14,74H76V52H14Z"/><path d="M19,82a1,1,0,0,1-.707-.293l-6-6a1,1,0,0,1,1.414-1.414l6,6A1,1,0,0,1,19,82Z"/><path d="M35.354,65.719a1.352,1.352,0,0,0-.528-1.147,6.84,6.84,0,0,0-1.9-.843,13.562,13.562,0,0,1-2.171-.875,3.55,3.55,0,0,1-2.18-3.174,3.1,3.1,0,0,1,.584-1.85,3.819,3.819,0,0,1,1.679-1.269A6.318,6.318,0,0,1,33.3,56.1a5.771,5.771,0,0,1,2.444.5A3.9,3.9,0,0,1,37.406,58,3.671,3.671,0,0,1,38,60.059H35.363a1.731,1.731,0,0,0-.554-1.368,2.283,2.283,0,0,0-1.556-.488,2.431,2.431,0,0,0-1.5.41,1.289,1.289,0,0,0-.536,1.076,1.232,1.232,0,0,0,.628,1.045,7.072,7.072,0,0,0,1.851.791,8,8,0,0,1,3.278,1.68A3.341,3.341,0,0,1,38,65.7a3.078,3.078,0,0,1-1.257,2.606,5.491,5.491,0,0,1-3.383.945,6.526,6.526,0,0,1-2.69-.541,4.245,4.245,0,0,1-1.85-1.481,3.787,3.787,0,0,1-.637-2.179h2.645q0,2.118,2.532,2.117a2.465,2.465,0,0,0,1.467-.381A1.245,1.245,0,0,0,35.354,65.719Z"/><path d="M46.419,65.719a1.354,1.354,0,0,0-.527-1.147,6.864,6.864,0,0,0-1.9-.843,13.545,13.545,0,0,1-2.17-.875,3.548,3.548,0,0,1-2.18-3.174,3.088,3.088,0,0,1,.584-1.85,3.807,3.807,0,0,1,1.679-1.269,6.311,6.311,0,0,1,2.457-.457,5.766,5.766,0,0,1,2.443.5A3.894,3.894,0,0,1,48.471,58a3.672,3.672,0,0,1,.594,2.057H46.428a1.731,1.731,0,0,0-.554-1.368,2.28,2.28,0,0,0-1.555-.488,2.427,2.427,0,0,0-1.5.41,1.286,1.286,0,0,0-.536,1.076,1.233,1.233,0,0,0,.627,1.045,7.087,7.087,0,0,0,1.851.791,8,8,0,0,1,3.278,1.68,3.342,3.342,0,0,1,1.029,2.5,3.078,3.078,0,0,1-1.257,2.606,5.5,5.5,0,0,1-3.384.945,6.521,6.521,0,0,1-2.689-.541,4.248,4.248,0,0,1-1.851-1.481,3.787,3.787,0,0,1-.637-2.179h2.646q0,2.118,2.531,2.117a2.47,2.47,0,0,0,1.468-.381A1.247,1.247,0,0,0,46.419,65.719Z"/><path d="M61.264,69.076H58.627V63.592H53.486v5.484H50.849v-12.8h2.637v5.186h5.141V56.279h2.637Z"/></svg>