<svg xmlns="http://www.w3.org/2000/svg" viewBox="0 0 64 64"><path d="M51,10H11a3,3,0,0,0-3,3V51a3,3,0,0,0,3,3H43V52H11a1,1,0,0,1-1-1V21H52V34h2V13A3,3,0,0,0,51,10ZM10,19V13a1,1,0,0,1,1-1H51a1,1,0,0,1,1,1v6Z"/><circle cx="13.5" cy="15.5" r="1.5"/><circle cx="18.5" cy="15.5" r="1.5"/><circle cx="23.5" cy="15.5" r="1.5"/><path d="M45.47,35.11V28.85L33.45,39l12,10.15V43.68c1.64,1.31,3.38,4.08,4.94,7.91l.81,2,1-1.88c2.19-4.09,2.38-8.19.53-11.54A10.06,10.06,0,0,0,45.47,35.11Zm5.88,13.63c-1.6-3.37-3.84-6.84-6.59-7.69l-1.29-.41v4.21L36.55,39l6.92-5.85v3.78l.92.07A8.12,8.12,0,0,1,51,41.11,9.18,9.18,0,0,1,51.35,48.74Z"/><path d="M24,24H14v7H24Zm-2,5H16V26h6Z"/><path d="M37,24H27v7H37Zm-2,5H29V26h6Z"/><path d="M14,48.93H24V34.07H14Zm2-12.86h6V46.93H16Z"/><rect x="27" y="34" width="2" height="15"/></svg>
