<svg xmlns="http://www.w3.org/2000/svg" viewBox="0 0 96 96"><g opacity="0"><rect width="96" height="96" fill="#fff"/></g><path d="M18,29V83H94V29Z" class="sgmaincolor"/><path d="M10,68.389a1,1,0,0,1-1-1V21a1,1,0,0,1,1-1H75a1,1,0,0,1,0,2H11V67.389A1,1,0,0,1,10,68.389Z"/><path d="M2,60.389a1,1,0,0,1-1-1V13a1,1,0,0,1,1-1H67a1,1,0,0,1,0,2H3V59.389A1,1,0,0,1,2,60.389Z"/><path d="M50,61H43a1,1,0,0,1,0-2h7a1,1,0,0,1,0,2Z"/><path d="M50,71H43a1,1,0,0,1,0-2h7a1,1,0,0,1,0,2Z"/><path d="M52,66H45a1,1,0,0,1,0-2h7a1,1,0,0,1,0,2Z"/><path d="M63.37,58.525a1,1,0,0,0-1.414,0l-3.738,3.739A2.972,2.972,0,0,0,57,62a3,3,0,1,0,3,3,2.968,2.968,0,0,0-.337-1.353l3.707-3.708A1,1,0,0,0,63.37,58.525ZM57,66a1,1,0,1,1,1-1A1,1,0,0,1,57,66Z"/><path d="M68.7,56.04a1,1,0,1,0,1.414-1.414l-2.674-2.674a1,1,0,1,0-1.414,1.414l.569.569-1.176,1.176A12.931,12.931,0,0,0,58,52.051V50h2a1,1,0,0,0,0-2H54a1,1,0,0,0,0,2h2v2.046a12.994,12.994,0,0,0-7.58,3.2,1,1,0,1,0,1.322,1.5,11,11,0,1,1,0,16.5,1,1,0,1,0-1.322,1.5A12.984,12.984,0,0,0,66.834,56.523l1.173-1.174Z"/><circle cx="27" cy="36" r="2"/><circle cx="33" cy="36" r="2"/><circle cx="39" cy="36" r="2"/><path d="M94,28H18a1,1,0,0,0-1,1V83a1,1,0,0,0,1,1H94a1,1,0,0,0,1-1V29A1,1,0,0,0,94,28Zm-1,2V42H19V30ZM19,82V44H93V82Z"/></svg>