<svg xmlns="http://www.w3.org/2000/svg" viewBox="0 0 96 96"><g opacity="0"><rect x="0.258" y="0.272" width="96" height="96" fill="#fff"/></g><path d="M40.765,28.616a3.783,3.783,0,1,0-5.35,0A3.782,3.782,0,0,0,40.765,28.616Z" class="sgmaincolor"/><path d="M38.089,30.725a4.784,4.784,0,1,1,3.382-1.4h0A4.745,4.745,0,0,1,38.089,30.725Zm0-7.565a2.782,2.782,0,0,0-1.967,4.749,2.85,2.85,0,0,0,3.935,0h0a2.782,2.782,0,0,0-1.968-4.749Z"/><path d="M82.382,48.493l-3.588-1.008L76,49.053V3H22V26.457l8.969-8.9A1.949,1.949,0,0,1,32.354,17l12.851.119a1.951,1.951,0,0,1,1.933,1.969l-.119,12.851a1.95,1.95,0,0,1-.584,1.374L28.8,50.441a1.951,1.951,0,0,1-2.759-.025L22,46.3V82H55.863L59.2,87.945l8.969,2.52,22.979-12.9L92.377,66.3Z" class="sgmaincolor"/><path d="M93.25,65.812,83.254,48a1,1,0,0,0-.6-.474l-3.588-1.008a1,1,0,0,0-.76.091L77,47.346V3a1,1,0,0,0-1-1H22a1,1,0,0,0-1,1V15H4a1,1,0,0,0-1,1V68a1,1,0,0,0,1,1H21V82a1,1,0,0,0,1,1H55.278l3.05,5.434a1,1,0,0,0,.6.473L67.9,91.428a1.04,1.04,0,0,0,.27.037,1,1,0,0,0,.49-.128l22.978-12.9a1,1,0,0,0,.505-.763l1.231-11.267A1.008,1.008,0,0,0,93.25,65.812ZM5,67V17H21v9.041l-8.183,8.117a2.952,2.952,0,0,0-.038,4.173L21,46.707V67Zm9.207-30.07a.94.94,0,0,1-.273-.674.952.952,0,0,1,.288-.674l17.447-17.31A.949.949,0,0,1,32.335,18h.01l12.851.119a.951.951,0,0,1,.942.96L46.019,31.93a.953.953,0,0,1-.28.666l-2.923,2.839L28.1,49.728a.947.947,0,0,1-.665.272h-.01a.948.948,0,0,1-.67-.284ZM23,81V48.744l2.329,2.373A2.937,2.937,0,0,0,27.408,52h.028a2.93,2.93,0,0,0,2.063-.841L47.135,34.027a2.971,2.971,0,0,0,.884-2.079L48.138,19.1a2.952,2.952,0,0,0-2.925-2.978L32.364,16a2.8,2.8,0,0,0-2.1.849L23,24.057V4H75V48.468l-.929.521-3.19-.895a.991.991,0,0,0-.759.091l-4.235,2.376-3.188-.9a1,1,0,0,0-.76.091l-3.725,2.09-6.6-11.766a1.006,1.006,0,0,0-.6-.474L47.422,38.6a1,1,0,0,0-.759.09l-2.3,1.291a.994.994,0,0,0-.474.6l-1.009,3.588a1,1,0,0,0,.091.76L53.721,64.077l-1.262-.355a1,1,0,0,0-.76.09L49.4,65.1a1,1,0,0,0-.474.6l-1.008,3.588a1,1,0,0,0,.091.76L54.155,81Zm67.209-4.053L68.041,89.39l-8.172-2.3L49.958,69.435l.783-2.791,1.575-.884,2.79.784,5.6,9.978a1,1,0,0,0,1.744-.978L44.92,44.311l.785-2.791,1.575-.884,2.79.784L61.8,62.313a1,1,0,0,0,1.745-.978L59.194,53.59,62.556,51.7l2.79.783,3.022,5.383a1,1,0,0,0,1.872-.49.989.989,0,0,0-.128-.488l-2.736-4.872,3.363-1.887,2.791.783,3.344,5.958a1,1,0,0,0,1.872-.49.989.989,0,0,0-.128-.488L75.56,50.447l3.362-1.886,2.791.783,9.635,17.167Z"/></svg>