<svg xmlns="http://www.w3.org/2000/svg" viewBox="0 0 96 96"><g opacity="0"><rect width="96" height="96" fill="#fff"/></g><path d="M69,18V12L61,5H37l-8,7v6H7V76H44.962L45,91h8V86h7V76H91V18Zm-9,1H38V13H60Z" class="sgmaincolor"/><path d="M91.97,17.851a.65.65,0,0,0-.167-.416.924.924,0,0,0-.071-.116s-.009,0-.014-.01a1,1,0,0,0-.2-.146.958.958,0,0,0-.114-.078,1.127,1.127,0,0,0-.155-.036A.993.993,0,0,0,91.018,17c-.006,0-.011,0-.018,0H70V12a1,1,0,0,0-.342-.753l-8-7a.949.949,0,0,0-.165-.1,1.179,1.179,0,0,0-.123-.074h0A1.017,1.017,0,0,0,61,4H36.85a1,1,0,0,0-.666.254l-7.85,7A1,1,0,0,0,28,12v5H7c-.007,0-.012,0-.019,0a.976.976,0,0,0-.231.046,1.042,1.042,0,0,0-.149.035.964.964,0,0,0-.122.082,1,1,0,0,0-.2.142s-.01.006-.014.01a.88.88,0,0,0-.071.116.649.649,0,0,0-.167.417A.9.9,0,0,0,6,18V76a1,1,0,0,0,1,1H43.962L43.95,91a1,1,0,0,0,1,1h8.1a1,1,0,0,0,1-1V86.6H59.8a1,1,0,0,0,1-1V77H91a1,1,0,0,0,1-1V18A.936.936,0,0,0,91.97,17.851ZM70,24V19H88.454L54.022,50.973,54,32h7a1,1,0,0,0,.658-.247l8-7A1,1,0,0,0,70,24ZM38,13H60v4H38Zm0,6H60v4H38Zm30,4.546L62,28.8V7.2l6,5.25ZM60,6v5H38V6ZM30,12.448,36,7.1V28.8l-6-5.25ZM8,20.293,35.633,45.952,8,73.586ZM9.414,75,37.1,47.314l6.881,6.39L43.963,75ZM43.983,50.977,9.546,19H28v5a1,1,0,0,0,.342.753l8,7a.978.978,0,0,0,.224.134.348.348,0,0,0,.064.038h0A.994.994,0,0,0,37,32h7ZM58.8,84.6H53.05a1,1,0,0,0-1,1V90h-6.1L46,31a1,1,0,0,0-1-1H38V25H60v5H53a1,1,0,0,0-1,1l.024,22.147a.891.891,0,0,0,0,.155l.025,22.848a1,1,0,0,0,1,1H58.8ZM54.049,75l-.024-21.3L60.9,47.314,88.586,75ZM90,73.586,62.367,45.953,90,20.293Z"/></svg>