<svg xmlns="http://www.w3.org/2000/svg" viewBox="0 0 96 66.3"><path d="M16.023,74.23a.906.906,0,0,0,.578.2.928.928,0,0,0,.587-.2ZM0,50.61v7.75a1.019,1.019,0,0,0,.2.61V50A1,1,0,0,0,0,50.61Z" transform="translate(0 -8.13)"/><path d="M17.059,74.23a.969.969,0,0,1-1.036,0Z" transform="translate(0 -8.13)"/><path d="M78.822,74.23a.9.9,0,0,0,.577.2.913.913,0,0,0,.588-.2ZM95.97,50.6a1.03,1.03,0,0,0-.169-.56v8.92a.982.982,0,0,0,.2-.59Z" transform="translate(0 -8.13)"/><path d="M79.857,74.23a.968.968,0,0,1-1.035,0Z" transform="translate(0 -8.13)"/><path d="M11.92,21.12V38.91a1,1,0,0,0,.309.72l7.081,6.84L16.6,49.19,12.09,44.66a1,1,0,0,0-.7-.29H6.2a1,1,0,0,0-.7.29L.289,49.9A.9.9,0,0,0,.2,50V8.33h24.07a1.063,1.063,0,0,0-.11.09l-11.95,12A1.012,1.012,0,0,0,11.92,21.12Z" transform="translate(0 -8.13)" fill="none"/><path d="M16.013,74.23H.2V58.97a1.059,1.059,0,0,0,.1.12L15.774,74.02l.14.13A.7.7,0,0,0,16.013,74.23Z" transform="translate(0 -8.13)" fill="none"/><polygon points="15.545 42.82 15.545 62.89 1.992 49.81 1.992 42.89 6.622 38.24 10.974 38.24 15.545 42.82" fill="none"/><polygon points="31.21 49.82 17.537 63.01 17.537 42.95 20.754 39.72 31.21 49.82" fill="none"/><path d="M48.1,74.23H17.188a.444.444,0,0,0,.11-.08L32.654,59.34,47.761,73.92l.229.22.01.01A.392.392,0,0,0,48.1,74.23Z" transform="translate(0 -8.13)" fill="none"/><path d="M60.04,8.33a1.063,1.063,0,0,0-.11.09L48.687,19.71,37.444,8.42a1.063,1.063,0,0,0-.11-.09Z" transform="translate(0 -8.13)" fill="none"/><polygon points="47.552 13.27 47.552 62.81 33.212 48.97 31.2 47.04 22.158 38.31 20.724 36.92 13.912 30.35 13.912 13.41 25.275 2 36.329 2 47.552 13.27" fill="none"/><polygon points="83.452 30.38 75.963 37.61 74.52 38.99 64.78 48.39 62.798 50.3 49.544 63.08 49.544 13.55 61.046 2 72.1 2 83.393 13.41 83.452 30.38" fill="none"/><path d="M78.812,74.23H49.275a.387.387,0,0,0,.1-.08L64.043,60,78.6,74.06C78.672,74.12,78.742,74.18,78.812,74.23Z" transform="translate(0 -8.13)" fill="none"/><polygon points="78.344 42.83 78.344 62.89 65.477 50.49 75.934 40.41 78.344 42.83" fill="none"/><polygon points="94.008 49.82 80.335 63.01 80.335 42.95 85.026 38.24 89.378 38.24 93.978 42.89 94.008 49.82" fill="none"/><path d="M95.8,8.33V50.04a1.741,1.741,0,0,0-.12-.14L90.5,44.67a1.01,1.01,0,0,0-.707-.3H84.607a1,1,0,0,0-.7.29L79.4,49.19l-2.031-2.04,7.777-7.5a1,1,0,0,0,.309-.72l-.07-17.81a1.026,1.026,0,0,0-.289-.7l-11.88-12a1.063,1.063,0,0,0-.11-.09Z" transform="translate(0 -8.13)" fill="none"/><path d="M95.8,58.96V74.23H79.987a.387.387,0,0,0,.1-.08L95.691,59.1A.755.755,0,0,0,95.8,58.96Z" transform="translate(0 -8.13)" fill="none"/><polygon points="72.51 1 60.631 1 48.686 12.994 36.741 1 24.862 1 12.917 12.994 12.917 30.777 48.686 65.301 84.455 30.8 84.385 12.994 72.51 1" class="sgmaincolor"/><path d="M36.737,8.13H24.866a.976.976,0,0,0-.6.2H37.334A.976.976,0,0,0,36.737,8.13ZM48.1,74.23a.963.963,0,0,0,1.175,0ZM72.508,8.13H60.627a.968.968,0,0,0-.587.2H73.105A.976.976,0,0,0,72.508,8.13Z" transform="translate(0 -8.13)"/><path d="M48.936,74.23a.983.983,0,0,1-.777,0Z" transform="translate(0 -8.13)"/><path d="M11.92,21.12V38.91a1,1,0,0,0,.309.72l7.081,6.84L16.6,49.19,12.09,44.66a1,1,0,0,0-.7-.29H6.2a1,1,0,0,0-.7.29L.289,49.9A.9.9,0,0,0,.2,50V8.33h24.07a1.063,1.063,0,0,0-.11.09l-11.95,12A1.012,1.012,0,0,0,11.92,21.12Z" transform="translate(0 -8.13)" fill="none"/><path d="M16.013,74.23H.2V58.97a1.059,1.059,0,0,0,.1.12L15.774,74.02l.14.13A.7.7,0,0,0,16.013,74.23Z" transform="translate(0 -8.13)" fill="none"/><polygon points="15.545 42.82 15.545 62.89 1.992 49.81 1.992 42.89 6.622 38.24 10.974 38.24 15.545 42.82" fill="none"/><polygon points="31.21 49.82 17.537 63.01 17.537 42.95 20.754 39.72 31.21 49.82" fill="none"/><path d="M48.1,74.23H17.188a.444.444,0,0,0,.11-.08L32.654,59.34,47.761,73.92l.229.22.01.01A.392.392,0,0,0,48.1,74.23Z" transform="translate(0 -8.13)" fill="none"/><path d="M60.04,8.33a1.063,1.063,0,0,0-.11.09L48.687,19.71,37.444,8.42a1.063,1.063,0,0,0-.11-.09Z" transform="translate(0 -8.13)" fill="none"/><path d="M48,74.15a.392.392,0,0,0,.1.08h.059A1.246,1.246,0,0,1,48,74.15Z" transform="translate(0 -8.13)"/><path d="M95.681,49.9,90.5,44.67a1.01,1.01,0,0,0-.707-.3H84.607a1,1,0,0,0-.7.29L79.4,49.19l-2.031-2.04,7.777-7.5a1,1,0,0,0,.309-.72l-.07-17.81a1.026,1.026,0,0,0-.289-.7l-11.88-12a1.063,1.063,0,0,0-.11-.09H60.04a1.063,1.063,0,0,0-.11.09L48.687,19.71,37.444,8.42a1.063,1.063,0,0,0-.11-.09H24.269a1.063,1.063,0,0,0-.11.09l-11.95,12a1.012,1.012,0,0,0-.289.7V38.91a1,1,0,0,0,.309.72l7.081,6.84L16.6,49.19,12.09,44.66a1,1,0,0,0-.7-.29H6.2a1,1,0,0,0-.7.29L.289,49.9A.9.9,0,0,0,.2,50v8.97a1.059,1.059,0,0,0,.1.12L15.774,74.02l.14.13a.7.7,0,0,0,.1.08h1.175a.444.444,0,0,0,.11-.08L32.654,59.34,47.761,73.92l.229.22.01.01a1.246,1.246,0,0,0,.159.08h1.116a.387.387,0,0,0,.1-.08L64.043,60,78.6,74.06c.07.06.14.12.21.17h1.175a.387.387,0,0,0,.1-.08L95.691,59.1a.755.755,0,0,0,.11-.14V50.04A1.741,1.741,0,0,0,95.681,49.9ZM15.545,71.02,1.992,57.94V51.02l4.63-4.65h4.352l4.571,4.58Zm1.992.12V51.08l3.217-3.23L31.21,57.95Zm30.015-.2L33.212,57.1,31.2,55.17l-9.042-8.73-1.434-1.39-6.812-6.57V21.54L25.275,10.13H36.329L47.552,21.4ZM62.8,58.43,49.544,71.21V21.68l11.5-11.55H72.1L83.393,21.54l.059,16.97-7.489,7.23L74.52,47.12l-9.74,9.4ZM78.344,71.02,65.477,58.62,75.934,48.54l2.41,2.42Zm1.991.12V51.08l4.691-4.71h4.352l4.6,4.65.03,6.93Z" transform="translate(0 -8.13)"/><polygon points="47.552 13.27 47.552 62.81 33.212 48.97 31.2 47.04 22.158 38.31 20.724 36.92 13.912 30.35 13.912 13.41 25.275 2 36.329 2 47.552 13.27" fill="none"/><polygon points="83.452 30.38 75.963 37.61 74.52 38.99 64.78 48.39 62.798 50.3 49.544 63.08 49.544 13.55 61.046 2 72.1 2 83.393 13.41 83.452 30.38" fill="none"/><path d="M78.812,74.23H49.275a.387.387,0,0,0,.1-.08L64.043,60,78.6,74.06C78.672,74.12,78.742,74.18,78.812,74.23Z" transform="translate(0 -8.13)" fill="none"/><polygon points="78.344 42.83 78.344 62.89 65.477 50.49 75.934 40.41 78.344 42.83" fill="none"/><polygon points="94.008 49.82 80.335 63.01 80.335 42.95 85.026 38.24 89.378 38.24 93.978 42.89 94.008 49.82" fill="none"/><path d="M95.8,8.33V50.04a1.741,1.741,0,0,0-.12-.14L90.5,44.67a1.01,1.01,0,0,0-.707-.3H84.607a1,1,0,0,0-.7.29L79.4,49.19l-2.031-2.04,7.777-7.5a1,1,0,0,0,.309-.72l-.07-17.81a1.026,1.026,0,0,0-.289-.7l-11.88-12a1.063,1.063,0,0,0-.11-.09Z" transform="translate(0 -8.13)" fill="none"/><path d="M95.8,58.96V74.23H79.987a.387.387,0,0,0,.1-.08L95.691,59.1A.755.755,0,0,0,95.8,58.96Z" transform="translate(0 -8.13)" fill="none"/><path d="M72.946,31.5a.994.994,0,0,1-1,1H66.991v4.99a1,1,0,1,1-1.992,0V32.5H60.03a1,1,0,0,1,0-2H65V25.51a1,1,0,1,1,1.992,0V30.5H71.95A.994.994,0,0,1,72.946,31.5Z" transform="translate(0 -8.13)"/><path d="M22.673,22.122a.986.986,0,0,1-.7-.293,1,1,0,0,1,0-1.414l4.769-4.789a1,1,0,0,1,.7-.293H34.6a1,1,0,0,1,0,2H27.854l-4.477,4.5A.986.986,0,0,1,22.673,22.122Z" transform="translate(0 -8.13)"/></svg>