<svg xmlns="http://www.w3.org/2000/svg" viewBox="0 0 47.95 48.95"><title>confirm_domain</title><path d="M30,9C17.87,9,8,19.32,8,32s9.87,23,22,23a22.15,22.15,0,0,0,3.15-.23l-.3-2c-.61.09-1.23.14-1.85.17V42.91c.31,0,.62,0,.92,0s.64.06.95.1l.26-2L32.08,41c-.35,0-.72,0-1.08,0V33h8.58c0,.65,0,1.3-.07,1.93l2,.14c0-.69.05-1.38.07-2.07H50a24.22,24.22,0,0,1-.29,2.83l2,.34A24.21,24.21,0,0,0,52,32C52,19.32,42.13,9,30,9Zm-1,2.35v9.43a20.32,20.32,0,0,1-6.58-1.34C24,15,26.36,12,29,11.35Zm-8.44,7.23A14.42,14.42,0,0,1,17.07,16a19.65,19.65,0,0,1,7.48-4.2A19,19,0,0,0,20.56,18.58ZM29,22.77V31H20.41a39.56,39.56,0,0,1,1.4-9.65A22.34,22.34,0,0,0,29,22.77Zm2-11.42c2.64.63,5,3.69,6.58,8.09A20.32,20.32,0,0,1,31,20.78Zm4.45.46A19.65,19.65,0,0,1,42.93,16a14.42,14.42,0,0,1-3.49,2.57A19,19,0,0,0,35.45,11.81Zm8.9,5.6A21.44,21.44,0,0,1,50,31H41.6a40.91,40.91,0,0,0-1.53-10.5A17.17,17.17,0,0,0,44.35,17.41Zm-28.7,0a17.17,17.17,0,0,0,4.28,3.09A40.91,40.91,0,0,0,18.4,31H10.05A21.44,21.44,0,0,1,15.65,17.41ZM10.05,33H18.4a41.28,41.28,0,0,0,1.45,10.22,16.87,16.87,0,0,0-4.35,3.2A21.36,21.36,0,0,1,10.05,33ZM29,52.65c-2.7-.64-5.09-3.81-6.67-8.36A20.13,20.13,0,0,1,29,42.9Zm-4.45-.46a19.79,19.79,0,0,1-7.64-4.35,14.87,14.87,0,0,1,3.56-2.67A19.39,19.39,0,0,0,24.55,52.19ZM29,40.9a22.08,22.08,0,0,0-7.27,1.47A39.15,39.15,0,0,1,20.41,33H29Zm2-18.13a22.34,22.34,0,0,0,7.19-1.42A39.56,39.56,0,0,1,39.59,31H31Z" transform="translate(-8 -9)"/><path d="M45,58a10.95,10.95,0,0,1-6.66-19.64A10.85,10.85,0,0,1,45,36.05,11,11,0,0,1,45,58Zm0-20a9.06,9.06,0,0,0-9,9,9,9,0,1,0,9-9Z" transform="translate(-8 -9)"/><path d="M43.3,51.39a1.44,1.44,0,0,1-1-.42l-3-3.29a1,1,0,1,1,1.48-1.36l2.57,2.82,5.94-6.8a1,1,0,0,1,1.5,1.32l-6.34,7.26A1.55,1.55,0,0,1,43.3,51.39Z" transform="translate(-8 -9)"/></svg>