<svg xmlns="http://www.w3.org/2000/svg" viewBox="0 0 96 96"><g opacity="0"><rect width="96" height="96" fill="#fff"/></g><path d="M27,40V88H93V40Z" class="sgmaincolor"/><circle cx="34" cy="46" r="2"/><circle cx="40" cy="46" r="2"/><circle cx="46" cy="46" r="2"/><path d="M93,39H27a1,1,0,0,0-1,1V88a1,1,0,0,0,1,1H93a1,1,0,0,0,1-1V40A1,1,0,0,0,93,39Zm-1,2V51H28V41ZM28,87V53H92V87Z"/><path d="M65,7H3A1,1,0,0,0,2,8V54a1,1,0,0,0,1,1H21a1,1,0,0,0,0-2H4V21H64V34a1,1,0,0,0,2,0V8A1,1,0,0,0,65,7ZM4,19V9H64V19Z"/><circle cx="10" cy="14" r="2"/><circle cx="16" cy="14" r="2"/><circle cx="22" cy="14" r="2"/><path d="M60,55.5A13.5,13.5,0,1,0,73.5,69,13.515,13.515,0,0,0,60,55.5ZM47.862,69a12.1,12.1,0,0,1,1.051-4.94L54.7,79.923A12.138,12.138,0,0,1,47.862,69ZM60,81.138a12.132,12.132,0,0,1-3.429-.5l3.642-10.582,3.731,10.222a1.014,1.014,0,0,0,.087.167A12.122,12.122,0,0,1,60,81.138Zm1.673-17.829c.73-.039,1.389-.116,1.389-.116a.5.5,0,0,0-.078-1s-1.966.154-3.235.154c-1.192,0-3.2-.154-3.2-.154a.5.5,0,0,0-.077,1s.619.077,1.273.116L59.64,68.49l-2.657,7.966-4.42-13.147c.732-.039,1.389-.116,1.389-.116a.5.5,0,0,0-.077-1s-1.966.154-3.235.154c-.228,0-.5-.005-.781-.014A12.133,12.133,0,0,1,68.2,60.049c-.052,0-.1-.01-.157-.01A2.1,2.1,0,0,0,66,62.193a5.686,5.686,0,0,0,1.192,2.847,6.388,6.388,0,0,1,1,3.347,14.694,14.694,0,0,1-.924,3.924l-1.211,4.045Zm8.978-.132A12.141,12.141,0,0,1,66.1,79.491l3.707-10.719a11.45,11.45,0,0,0,.923-4.347A9.336,9.336,0,0,0,70.651,63.177Z"/></svg>