<svg xmlns="http://www.w3.org/2000/svg" viewBox="0 0 96 96"><g opacity="0"><rect width="96" height="96" fill="#fff"/></g><rect x="3.253" y="15.048" width="90.018" height="64.829" class="sgmaincolor"/><ellipse cx="11.102" cy="22.493" rx="2.266" ry="2.241"/><ellipse cx="17.899" cy="22.493" rx="2.266" ry="2.241"/><ellipse cx="24.697" cy="22.493" rx="2.266" ry="2.241"/><path d="M93.271,14.048H3.253a1,1,0,0,0-1,1V79.993a1,1,0,0,0,1,1H28.587L26.94,83.566a1,1,0,0,0,.149,1.259l6.286,6.061a1,1,0,0,0,1.276.093l3.646-2.61a20.465,20.465,0,0,0,3.722,1.506l.845,4.252a1,1,0,0,0,.98.806h.021l8.758-.179a1,1,0,0,0,.963-.82l.794-4.33c.885-.3,1.791-.7,2.671-1.083.366-.16.731-.32,1.094-.473l3.946,2.47a1,1,0,0,0,1.242-.146l6.128-6.219a1,1,0,0,0,.094-1.293l-1.366-1.867H93.271a1,1,0,0,0,1-1V15.048A1,1,0,0,0,93.271,14.048ZM30.754,77.805a13.129,13.129,0,0,1-1.144-2.928,1,1,0,0,0-.8-.774l-4.173-.748-.145-7,4.058-.789a1,1,0,0,0,.762-.675,19.147,19.147,0,0,1,1.837-4.372,1,1,0,0,0-.041-1.121l-2.516-3.438,4.967-5.041,3.7,2.317a1,1,0,0,0,.9.08c.544-.219,1.072-.468,1.6-.718a13.548,13.548,0,0,1,2.968-1.134,1,1,0,0,0,.777-.8l.756-4.122,7.1-.144.8,4.01a1,1,0,0,0,.679.759,33.7,33.7,0,0,1,4.049,1.655l.483.221a1,1,0,0,0,1-.1l3.493-2.5,5.1,4.915L64.632,59a1,1,0,0,0-.083.92c.217.528.458,1.063.7,1.6A24.3,24.3,0,0,1,66.436,64.5a1,1,0,0,0,.784.706l4.173.748.146,6.986-4.247.736a1,1,0,0,0-.812.8,17.009,17.009,0,0,1-1.533,4.161l-.123.262a.937.937,0,0,0-.028.09H31.3C31.122,78.594,30.943,78.2,30.754,77.805Zm36.685,5.55L62.471,88.4l-3.7-2.316a1,1,0,0,0-.9-.08c-.534.214-1.077.452-1.619.69a25.09,25.09,0,0,1-3.016,1.178,1,1,0,0,0-.711.781l-.756,4.122-7.1.145-.8-4.011a1,1,0,0,0-.68-.759,18.822,18.822,0,0,1-4.425-1.819,1,1,0,0,0-1.1.04l-3.493,2.5-5.1-4.915,1.894-2.961H65.71Zm24.832-4.362H66.989A18.98,18.98,0,0,0,68.3,75.536l4.431-.768a1,1,0,0,0,.829-1.007l-.18-8.663a1,1,0,0,0-.824-.964l-4.385-.786c-.3-.878-.7-1.774-1.1-2.646-.159-.355-.318-.71-.471-1.063l2.49-3.891a1,1,0,0,0-.149-1.259l-6.286-6.062a1,1,0,0,0-1.276-.093l-3.7,2.649a39.337,39.337,0,0,0-3.669-1.536l-.845-4.261a1.034,1.034,0,0,0-1-.8l-8.758.179a1,1,0,0,0-.963.819l-.786,4.292a18.042,18.042,0,0,0-2.75,1.118c-.341.161-.682.322-1.027.474L33.939,48.8a1,1,0,0,0-1.242.146l-6.128,6.219a1,1,0,0,0-.095,1.292l2.631,3.594a21.1,21.1,0,0,0-1.515,3.666l-4.307.837a1,1,0,0,0-.81,1l.181,8.664a1,1,0,0,0,.823.963l4.347.779a17.611,17.611,0,0,0,1.129,2.717c.051.106.1.213.15.318H4.253V30.7H92.271Zm0-50.3H4.253V16.048H92.271Z"/><path d="M48.007,76.934a7.377,7.377,0,0,1-2.223-.344,7.279,7.279,0,0,1-4.31-3.621,7.181,7.181,0,0,1-.457-5.528,7.368,7.368,0,0,1,9.228-4.717,7.271,7.271,0,0,1,4.309,3.621,7.172,7.172,0,0,1,.457,5.528h0A7.355,7.355,0,0,1,48.007,76.934Zm.009-12.555a5.345,5.345,0,0,0-5.094,3.676,5.178,5.178,0,0,0,.33,4,5.292,5.292,0,0,0,3.133,2.631,5.365,5.365,0,0,0,6.723-3.425,5.185,5.185,0,0,0-.331-4,5.291,5.291,0,0,0-3.134-2.631A5.383,5.383,0,0,0,48.016,64.379Zm6.043,7.186h0Z"/></svg>