<svg xmlns="http://www.w3.org/2000/svg" viewBox="0 0 96 96"><g opacity="0"><rect width="96" height="96" fill="#fff"/></g><rect x="9.567" y="8.99" width="77.01" height="76.371" class="sgmaincolor"/><path d="M56.323,36.174H38.9a1,1,0,0,0-1,1V54.449a1,1,0,0,0,1,1H56.323a1,1,0,0,0,1-1V37.174A1,1,0,0,0,56.323,36.174Zm-1,17.275H39.9V38.174H55.323Z"/><path d="M79.242,36.174H61.824a1,1,0,0,0-1,1V54.449a1,1,0,0,0,1,1H79.242a1,1,0,0,0,1-1V37.174A1,1,0,0,0,79.242,36.174Zm-1,17.275H62.824V38.174H78.242Z"/><path d="M33.4,59.813H15.984a1,1,0,0,0-1,1V78.087a1,1,0,0,0,1,1H33.4a1,1,0,0,0,1-1V60.813A1,1,0,0,0,33.4,59.813Zm-1,17.274H16.984V61.813H32.4Z"/><path d="M56.323,59.813H38.9a1,1,0,0,0-1,1V78.087a1,1,0,0,0,1,1H56.323a1,1,0,0,0,1-1V60.813A1,1,0,0,0,56.323,59.813Zm-1,17.274H39.9V61.813H55.323Z"/><path d="M79.242,59.813H61.824a1,1,0,0,0-1,1V78.087a1,1,0,0,0,1,1H79.242a1,1,0,0,0,1-1V60.813A1,1,0,0,0,79.242,59.813Zm-1,17.274H62.824V61.813H78.242Z"/><path d="M86.577,7.99H9.567a1,1,0,0,0-1,1V85.361a1,1,0,0,0,1,1h77.01a1,1,0,0,0,1-1V8.99A1,1,0,0,0,86.577,7.99Zm-1,2V25.264H10.567V9.99ZM10.567,84.361v-57.1h75.01v57.1Z"/><path d="M35.7,31.744a1,1,0,0,0-1.35.418l-2.111,4.012H15.984a1,1,0,0,0-1,1V54.449a1,1,0,0,0,1,1H33.4a1,1,0,0,0,1-1V37.174a.978.978,0,0,0-.159-.51l1.878-3.57A1,1,0,0,0,35.7,31.744Zm-18.719,6.43H31.19L24.3,51.274l-3.735-8.153a1,1,0,0,0-1.819.834l4.351,9.494h-6.11ZM32.4,53.449h-6.99L32.4,40.162Z"/><path d="M35.237,21.809a4.637,4.637,0,1,0-4.667-4.637A4.657,4.657,0,0,0,35.237,21.809Zm0-7.273a2.637,2.637,0,1,1-2.667,2.636A2.654,2.654,0,0,1,35.237,14.536Z"/><path d="M59.073,21.809a4.637,4.637,0,1,0-4.667-4.637A4.657,4.657,0,0,0,59.073,21.809Zm0-7.273a2.637,2.637,0,1,1-2.667,2.636A2.654,2.654,0,0,1,59.073,14.536Z"/></svg>