<svg xmlns="http://www.w3.org/2000/svg" viewBox="0 0 96 96"><g opacity="0"><rect width="96" height="96" fill="#fff"/></g><rect x="40.325" y="37.507" width="37.07" height="19.61" class="sgmaincolor"/><rect x="2.833" y="30.211" width="29.327" height="50.131" class="sgmaincolor"/><rect x="2.803" y="14.998" width="90.306" height="15.212" class="sgmaincolor"/><path d="M93.109,14H2.8a1,1,0,0,0-1,1V80.341a1,1,0,0,0,1,1H93.109a1,1,0,0,0,1-1V15A1,1,0,0,0,93.109,14Zm-1,2V29.21H3.8V16ZM3.8,31.21H31.16V79.341H3.8ZM33.16,79.341V31.21H92.109V79.341Z"/><path d="M77.4,58.117H40.325a1,1,0,0,1-1-1V37.507a1,1,0,0,1,1-1H77.4a1,1,0,0,1,1,1v19.61A1,1,0,0,1,77.4,58.117Zm-36.071-2H76.4V38.507H41.325Z"/><path d="M77.4,65.966H40.325a1,1,0,0,1,0-2H77.4a1,1,0,1,1,0,2Z"/></svg>