<svg xmlns="http://www.w3.org/2000/svg" viewBox="0 0 96 96"><g opacity="0"><rect width="96" height="96" fill="#fff"/></g><rect x="6" y="18" width="84" height="69" class="sgmaincolor"/><path d="M90,17H72V10a1,1,0,0,0-2,0v7H26V10a1,1,0,0,0-2,0v7H6a1,1,0,0,0-1,1V87a1,1,0,0,0,1,1H90a1,1,0,0,0,1-1V18A1,1,0,0,0,90,17Zm-1,2V30H7V19ZM7,86V32H89V86Z"/><path d="M34,42H20a1,1,0,0,0-1,1V55a1,1,0,0,0,1,1H34a1,1,0,0,0,1-1V43A1,1,0,0,0,34,42ZM33,54H21V44H33Z"/><path d="M55,42H41a1,1,0,0,0-1,1V55a1,1,0,0,0,1,1H55a1,1,0,0,0,1-1V43A1,1,0,0,0,55,42ZM54,54H42V44H54Z"/><path d="M76,42H62a1,1,0,0,0-1,1V55a1,1,0,0,0,1,1H76a1,1,0,0,0,1-1V43A1,1,0,0,0,76,42ZM75,54H63V44H75Z"/><path d="M34,60H20a1,1,0,0,0-1,1V73a1,1,0,0,0,1,1H34a1,1,0,0,0,1-1V61A1,1,0,0,0,34,60ZM33,72H21V62H33Z"/><path d="M55,60H41a1,1,0,0,0-1,1V73a1,1,0,0,0,1,1H55a1,1,0,0,0,1-1V61A1,1,0,0,0,55,60ZM54,72H42V62H54Z"/><path d="M76,60H62a1,1,0,0,0-1,1V73a1,1,0,0,0,1,1H76a1,1,0,0,0,1-1V61A1,1,0,0,0,76,60ZM75,72H63V62H75Z"/></svg>