<svg xmlns="http://www.w3.org/2000/svg" viewBox="0 0 96 96"><path d="M74.655,6.138H21.246L14.91,12.325v71.6l6.336,6.188H74.655l6.336-6.188v-71.6ZM61.049,89.869H34.128V77.212H61.049Z" class="sgmaincolor"/><path d="M81.69,11.609,75.353,5.422a1,1,0,0,0-.7-.284H21.246a1,1,0,0,0-.7.284l-6.337,6.187a1,1,0,0,0-.3.716v71.6a1,1,0,0,0,.3.716l6.337,6.187a1,1,0,0,0,.7.284H74.655a1,1,0,0,0,.7-.284l6.337-6.187a1,1,0,0,0,.3-.716v-71.6A1,1,0,0,0,81.69,11.609ZM15.91,83.5V77.851H32.919V89.108H21.654Zm36.019-5.288V88.869H43.972V78.212ZM41.972,88.869H35.127V78.212h6.845Zm18.077,0h-6.12V78.212h6.12ZM79.992,83.5l-5.745,5.608H62.077V77.851H79.992Zm0-7.649H15.91v-63.1l5.744-5.608H74.247l5.745,5.608Z"/><polygon points="35.73 34.423 35.73 51.217 39.351 54.753 56.55 54.753 60.171 51.217 60.171 34.423 57.455 30.887 39.351 30.887 35.73 34.423" class="sgmaincolor"/><path d="M56.55,55.753h-17.2a1,1,0,0,1-.7-.284l-3.621-3.536a1,1,0,0,1-.3-.716V34.423a1,1,0,0,1,.3-.716l3.621-3.536a1,1,0,0,1,.7-.284h18.1a1,1,0,0,1,.793.39l2.716,3.536a1,1,0,0,1,.207.61V51.217a1,1,0,0,1-.3.716l-3.621,3.536A1,1,0,0,1,56.55,55.753Zm-16.792-2H56.143L59.171,50.8V34.763l-2.209-2.876h-17.2L36.73,34.844V50.8Z"/><path d="M48.4,25.7a1,1,0,0,1-1-1V18.513a1,1,0,1,1,2,0V24.7A1,1,0,0,1,48.4,25.7Z"/><path d="M39.351,25.7a1,1,0,0,1-1-1V18.513a1,1,0,0,1,2,0V24.7A1,1,0,0,1,39.351,25.7Z"/><path d="M57.455,25.7a1,1,0,0,1-1-1V18.513a1,1,0,0,1,2,0V24.7A1,1,0,0,1,57.455,25.7Z"/><path d="M72.844,44.262H66.507a1,1,0,0,1,0-2h6.337a1,1,0,0,1,0,2Z"/><path d="M72.844,35.423H66.507a1,1,0,0,1,0-2h6.337a1,1,0,0,1,0,2Z"/><path d="M72.844,53.1H66.507a1,1,0,0,1,0-2h6.337a1,1,0,0,1,0,2Z"/><path d="M29.394,44.262H23.057a1,1,0,0,1,0-2h6.337a1,1,0,1,1,0,2Z"/><path d="M29.394,35.423H23.057a1,1,0,0,1,0-2h6.337a1,1,0,0,1,0,2Z"/><path d="M29.394,53.1H23.057a1,1,0,0,1,0-2h6.337a1,1,0,1,1,0,2Z"/><path d="M48.4,68.127a1,1,0,0,1-1-1V60.939a1,1,0,0,1,2,0v6.188A1,1,0,0,1,48.4,68.127Z"/><path d="M39.351,68.127a1,1,0,0,1-1-1V60.939a1,1,0,1,1,2,0v6.188A1,1,0,0,1,39.351,68.127Z"/><path d="M57.455,68.127a1,1,0,0,1-1-1V60.939a1,1,0,0,1,2,0v6.188A1,1,0,0,1,57.455,68.127Z"/><path d="M71.487,19.513a4.095,4.095,0,1,1,4.168-4.094A4.137,4.137,0,0,1,71.487,19.513Zm0-6.188a2.1,2.1,0,1,0,2.168,2.094A2.135,2.135,0,0,0,71.487,13.325Z"/><path d="M25.32,19.513a4.095,4.095,0,1,1,4.169-4.094A4.137,4.137,0,0,1,25.32,19.513Zm0-6.188a2.1,2.1,0,1,0,2.169,2.094A2.134,2.134,0,0,0,25.32,13.325Z"/><path d="M71.487,71.542a4.095,4.095,0,1,1,4.168-4.094A4.137,4.137,0,0,1,71.487,71.542Zm0-6.188a2.1,2.1,0,1,0,2.168,2.094A2.135,2.135,0,0,0,71.487,65.354Z"/><path d="M25.32,71.542a4.095,4.095,0,1,1,4.169-4.094A4.137,4.137,0,0,1,25.32,71.542Zm0-6.188a2.1,2.1,0,1,0,2.169,2.094A2.134,2.134,0,0,0,25.32,65.354Z"/></svg>