<svg xmlns="http://www.w3.org/2000/svg" viewBox="0 0 96 96"><g opacity="0"><rect x="-0.015" y="-0.444" width="96" height="96.145" fill="#fff"/></g><polygon points="63.734 15.699 63.734 4.943 33.629 4.943 33.629 15.699 23.594 15.699 29.328 78.617 29.328 79.961 66.601 79.961 66.601 78.617 73.769 15.699 63.734 15.699" class="sgmaincolor"/><path d="M80.937,14.7h-16.2V4.943a1,1,0,0,0-1-1H33.629a1,1,0,0,0-1,1V14.7H14.992a1,1,0,0,0,0,2h7.689l5.647,61.917v1.345a1,1,0,0,0,1,1H66.6a1,1,0,0,0,1-1V78.673L74.662,16.7h6.275a1,1,0,0,0,0-2ZM34.629,5.943H62.734V14.7H34.629ZM65.608,78.5a1.069,1.069,0,0,0-.006.113v.345H30.325v-.436L24.689,16.7H72.65Z"/><path d="M34.705,28.848a1,1,0,0,0-.887,1.1l4.3,39.867a1,1,0,1,0,1.988-.214l-4.3-39.868A1,1,0,0,0,34.705,28.848Z"/><path d="M61.123,28.483a.99.99,0,0,0-1.1.891l-4.2,40.231a1,1,0,0,0,.891,1.1.92.92,0,0,0,.1.006,1,1,0,0,0,.994-.9l4.2-40.231A1,1,0,0,0,61.123,28.483Z"/><path d="M47.965,27.377a1,1,0,0,0-1,1V69.709a1,1,0,0,0,2,0V28.377A1,1,0,0,0,47.965,27.377Z"/></svg>