<svg xmlns="http://www.w3.org/2000/svg" viewBox="0 0 96 96"><g opacity="0"><rect width="96.161" height="96.088" fill="#fff"/></g><polygon points="29.993 23.171 12.947 54.093 29.993 82.937 65.348 82.937 81.763 53.054 64.717 23.171 29.993 23.171" class="sgmaincolor"/><path d="M93.9,82.48,83.808,84.064A46.791,46.791,0,0,0,39.071,8.956C19.757,12.318,5.694,24.767,1.455,42.258a.973.973,0,1,0,1.891.458C7.4,26,20.877,14.1,39.405,10.873A44.833,44.833,0,0,1,81.816,83.416L79.448,72.863a.973.973,0,1,0-1.9.425l2.776,12.371a.972.972,0,0,0,.948.76.983.983,0,0,0,.152-.012l12.773-2a.973.973,0,0,0-.3-1.923Z"/><path d="M63.159,43.729l-13.3,8.448a2.665,2.665,0,0,0-3.917-.446l-15.8-15.217a1,1,0,0,0-1.387,1.441L45.012,53.612c0,.052-.015.1-.015.154a2.692,2.692,0,0,0,5.343.475l13.892-8.825a1,1,0,0,0-1.073-1.687Z"/><path d="M82.711,53.311a1.14,1.14,0,0,0,.037-.181c0-.026.015-.047.015-.073,0-.007,0-.013,0-.02a1,1,0,0,0-.128-.521L65.585,22.632a1,1,0,0,0-.868-.505H48.131a.937.937,0,0,0-.092-.019c-.032,0-.06.016-.092.019H29.993a1,1,0,0,0-.876.518L12.07,53.567a1,1,0,0,0,.015.992L29.132,83.4a1,1,0,0,0,.861.492H65.348a1,1,0,0,0,.877-.519L82.591,53.581A.964.964,0,0,0,82.711,53.311ZM64.756,81.9H49.039V74.819a1,1,0,0,0-2,0V81.9H30.564L14.715,55.077H25.594a1,1,0,0,0,0-2H14.624l15.96-28.95H47.039v7.891a1,1,0,0,0,2,0V24.127h15.1L80.064,52.049l-11.682-.032h0a1,1,0,0,0,0,2l11.676.032Z"/></svg>