<svg xmlns="http://www.w3.org/2000/svg" viewBox="0 0 64 64"><title>icons-64x64</title><path d="M36.47,29l8.32-8.32.79.78,1.68,1.69,1.37-2,4-5.74,1-1.37-1.19-1.19-1.65-1.65L49.57,10,48.2,11l-5.75,4-2,1.37L42.19,18l1.18,1.19-8.32,8.33-6.82-6.81v-.06a9.74,9.74,0,0,0-2.71-8,9.3,9.3,0,0,0-8.45-2.46l-1.86.35L20.66,16,19.49,20.5,15,21.68,9.52,16.23l-.35,1.86a9.32,9.32,0,0,0,2.66,8.44,9.26,9.26,0,0,0,7.82,2.72h.06l6.82,6.8-3,3-3.42-3.42-8.4,8.3a6,6,0,0,0-.09,8.4,5.87,5.87,0,0,0,8.28,0l8.49-8.42L25,40.42l3-3,15,14.92A5.36,5.36,0,0,0,46.72,54h.35A6.62,6.62,0,0,0,53,48.06a5.25,5.25,0,0,0-1.56-4.19ZM49.34,12.6,51,14.26,47,20,43.6,16.61ZM18.53,50.87a3.94,3.94,0,0,1-5.45,0,4,4,0,0,1,.09-5.56l7-6.9,5.45,5.46Zm32.46-3a4.44,4.44,0,0,1-1.33,2.77A4.31,4.31,0,0,1,46.94,52a3.35,3.35,0,0,1-2.62-1L20.44,27.14l-1,.13a7.38,7.38,0,0,1-6.17-2.15A7.53,7.53,0,0,1,11,20.58l3.33,3.33,6.76-1.77,1.75-6.75L19.51,12a6.94,6.94,0,0,1,4.6,2.06,7.75,7.75,0,0,1,2.14,6.36l-.13,1L50,45.29A3.28,3.28,0,0,1,51,47.91Z"/><circle cx="46.84" cy="47.81" r="2"/></svg>