<svg xmlns="http://www.w3.org/2000/svg" viewBox="0 0 96 96"><path d="M86.69,50.817,81.777,35.96H65.4V16.028H13.2V35.96H26.506c3.662-.013,7.052,3.615,7.065,7.277l.007,1.977a4.3,4.3,0,0,0,3.689,4.057A2.4,2.4,0,0,1,38.13,53.7a3.286,3.286,0,0,1-1.389.682H17.294c-1.716-.024-3.131-1.67-4.094-3.235V72.807H26.507v.025a7.164,7.164,0,0,0,14.328-.025H73.59v.025a7.164,7.164,0,0,0,14.328-.025h6.142V58.478Z" class="sgmaincolor"/><path d="M94.767,57.771l-7-7-5.043-15.13a1,1,0,0,0-.949-.684H66.4V16.028a1,1,0,0,0-1-1H13.2a1,1,0,0,0-1,1V34.959H1.94a1,1,0,0,0-.953,1.3C1.5,37.867,3.38,43.1,6.264,43.1h.063c.528,1.507,1.971,4.857,4.653,5.872A18.041,18.041,0,0,0,12.2,51.449V72.807a1,1,0,0,0,1,1H25.573a8.151,8.151,0,0,0,8.1,7.165H33.7a8.149,8.149,0,0,0,8.068-7.165H72.656a8.151,8.151,0,0,0,8.1,7.165h.029a8.149,8.149,0,0,0,8.068-7.165h5.21a1,1,0,0,0,1-1V58.478A1,1,0,0,0,94.767,57.771ZM8.461,43.1l6.786,0a1,1,0,0,0,0-2l-8.978,0h0c-.806,0-2.041-1.988-2.9-4.14H26.524a5.914,5.914,0,0,1,4.162,1.954,6.436,6.436,0,0,1,1.885,4.328l.007,1.975a5.269,5.269,0,0,0,4.534,5.043,1.436,1.436,0,0,1,1.179,1.415,1.562,1.562,0,0,1-.368,1.2,1.938,1.938,0,0,1-1.182.508H17.308c-1.642-.022-3.177-2.425-4.018-4.14h7.074a1,1,0,0,0,0-2H12.24C10.438,46.987,9.137,44.752,8.461,43.1ZM14.2,53.993a4.718,4.718,0,0,0,3.1,1.39H36.743a3.892,3.892,0,0,0,2.621-1.123,3.5,3.5,0,0,0,.925-2.663,3.411,3.411,0,0,0-2.868-3.314,3.3,3.3,0,0,1-2.843-3.074l-.007-1.976c-.014-4.259-3.922-8.274-8.043-8.274H14.2V17.028H64.4V71.807H41.768a8.151,8.151,0,0,0-8.095-7.164h-.031a8.149,8.149,0,0,0-8.068,7.164H14.2ZM38.045,77.152a6.126,6.126,0,0,1-4.354,1.82H33.67a6.165,6.165,0,0,1-.021-12.329h.024a6.165,6.165,0,0,1,4.372,10.509Zm47.083,0a6.126,6.126,0,0,1-4.354,1.82h-.021a6.165,6.165,0,0,1-.021-12.329h.024a6.165,6.165,0,0,1,4.372,10.509Zm7.932-5.345H88.851a8.151,8.151,0,0,0-8.095-7.164h-.031a8.149,8.149,0,0,0-8.068,7.164H66.4V36.959H81.057l4.451,13.354H72.565a1,1,0,0,0,0,2H86.48l6.58,6.579Z"/><path d="M47.827,19.413A13.916,13.916,0,1,0,61.743,33.328,13.93,13.93,0,0,0,47.827,19.413ZM35.316,33.328A12.467,12.467,0,0,1,36.4,28.236l5.969,16.352A12.513,12.513,0,0,1,35.316,33.328ZM47.827,45.84a12.492,12.492,0,0,1-3.534-.51l3.754-10.908,3.846,10.537a1.213,1.213,0,0,0,.089.172A12.48,12.48,0,0,1,47.827,45.84Zm1.725-18.378c.753-.04,1.432-.119,1.432-.119a.517.517,0,0,0-.08-1.031s-2.027.159-3.335.159c-1.229,0-3.3-.159-3.3-.159a.517.517,0,0,0-.079,1.031s.638.079,1.312.119L47.456,32.8l-2.738,8.211L40.162,27.462c.754-.04,1.432-.119,1.432-.119a.517.517,0,0,0-.08-1.031s-2.027.159-3.335.159c-.235,0-.511-.006-.8-.015a12.508,12.508,0,0,1,18.9-2.354c-.054,0-.106-.011-.162-.011a2.167,2.167,0,0,0-2.1,2.221,5.859,5.859,0,0,0,1.229,2.934A6.592,6.592,0,0,1,56.274,32.7a15.16,15.16,0,0,1-.952,4.045l-1.249,4.169Zm9.254-.136a12.512,12.512,0,0,1-4.688,16.816l3.821-11.049a11.8,11.8,0,0,0,.951-4.481A9.557,9.557,0,0,0,58.806,27.326Z"/></svg>