<svg xmlns="http://www.w3.org/2000/svg" viewBox="0 0 32 25"><path d="M19.14,18.76a.29.29,0,0,0,.17-.15,5.47,5.47,0,0,0,.51-2.32,5.26,5.26,0,0,0-5.14-5.36,5.26,5.26,0,0,0-5.14,5.36A5.46,5.46,0,0,0,10,18.61a.27.27,0,0,0,.15.15.26.26,0,0,0,.21,0,.27.27,0,0,0,.14-.15.23.23,0,0,0,0-.17l0-.06a4.94,4.94,0,0,1-.45-2.08,4.72,4.72,0,0,1,4.6-4.82,4.72,4.72,0,0,1,4.6,4.82,4.94,4.94,0,0,1-.46,2.09.27.27,0,0,0,.12.37A.26.26,0,0,0,19.14,18.76Z" transform="translate(0 -3.42)"></path><path d="M17.36,18.18a.26.26,0,0,0,.34-.11,3.88,3.88,0,0,0,.47-1.84,3.61,3.61,0,0,0-3.49-3.7,3.61,3.61,0,0,0-3.49,3.7,3.87,3.87,0,0,0,.47,1.85.26.26,0,0,0,.35.1.26.26,0,0,0,.1-.35,3.3,3.3,0,0,1-.41-1.6,3.09,3.09,0,0,1,3-3.19,3.09,3.09,0,0,1,3,3.19,3.32,3.32,0,0,1-.4,1.6.25.25,0,0,0,0,.2.26.26,0,0,0,.12.15Z" transform="translate(0 -3.42)"></path><path d="M21.68,21.36a1.8,1.8,0,0,0-1.5-1.44,1.84,1.84,0,0,0-.54.06,1.16,1.16,0,0,0-.4-.57,1.39,1.39,0,0,0-.79-.25h0a1,1,0,0,0-.59.22,1,1,0,0,0-.29-.34,1.37,1.37,0,0,0-1.4-.12V15.75a1.49,1.49,0,0,0-1.48-1.49h0a1.49,1.49,0,0,0-1.49,1.49V21l-.07-.15A2.15,2.15,0,0,0,12,19.78a1.36,1.36,0,0,0-1.07.19,1.51,1.51,0,0,0-.7.84,2.06,2.06,0,0,0,.17,1.3,27.18,27.18,0,0,0,2.73,5.15,3.06,3.06,0,0,0,2.51,1.31h2.12a3.52,3.52,0,0,0,3.07-1.7,3,3,0,0,0,.14-.27,10.46,10.46,0,0,0,.79-2.69A6.27,6.27,0,0,0,21.68,21.36Zm-1.55-.72c.43.06.7.34.86.91a5.59,5.59,0,0,1,0,2.25,10.16,10.16,0,0,1-.73,2.51v0a2.66,2.66,0,0,1-2.44,1.53h-2a2.72,2.72,0,0,1-2.25-1.2A26.84,26.84,0,0,1,11,21.85a1.5,1.5,0,0,1-.15-.84.77.77,0,0,1,.38-.43.68.68,0,0,1,.48-.12,1.49,1.49,0,0,1,.71.74l.75,1.5a.38.38,0,0,0,.4.2.37.37,0,0,0,.28-.36v-6.8a.77.77,0,0,1,.74-.77h0a.77.77,0,0,1,.77.77v4a.36.36,0,0,0,.68.15.77.77,0,0,1,.62-.36.71.71,0,0,1,.38.12.5.5,0,0,1,.2.47.37.37,0,0,0,.28.36.36.36,0,0,0,.4-.2c.15-.31.26-.36.44-.37a.65.65,0,0,1,.37.12.51.51,0,0,1,.21.47.37.37,0,0,0,.6.26.51.51,0,0,1,.18-.07A1.81,1.81,0,0,1,20.13,20.64Z" transform="translate(0 -3.42)"></path><path d="M16,5.42v1a4,4,0,0,0-4,4H11A5,5,0,0,1,16,5.42ZM4.5,21.92h4v-1h-4a3.5,3.5,0,1,1,0-7h.08A.49.49,0,0,0,5,13.74a.5.5,0,0,0,.09-.44A3.49,3.49,0,0,1,8.5,8.92a3.49,3.49,0,0,1,1.1.18.5.5,0,0,0,.64-.34,6,6,0,0,1,11.53,0,.5.5,0,0,0,.64.34,3.49,3.49,0,0,1,4.48,4.2.5.5,0,0,0,.09.44.51.51,0,0,0,.41.19h.11a3.5,3.5,0,1,1,0,7h-4v1h4a4.5,4.5,0,0,0,.47-9,4.25,4.25,0,0,0,0-.52A4.5,4.5,0,0,0,22.57,8,7,7,0,0,0,9.43,8a4.43,4.43,0,0,0-.93-.1A4.51,4.51,0,0,0,4,12.42a4.32,4.32,0,0,0,0,.52,4.5,4.5,0,0,0,.47,9Z" transform="translate(0 -3.42)"></path></svg>