<svg xmlns="http://www.w3.org/2000/svg" viewBox="0 0 96 96"><polygon points="72.219 5.236 44.242 5.236 23.519 25.477 23.519 52.802 44.242 73.044 72.219 73.044 92.942 52.802 92.942 25.477 72.219 5.236" class="sgmaincolor"/><polygon points="38.025 66.971 11.085 93.285 2.796 85.188 29.736 58.875 38.025 66.971" class="sgmaincolor"/><path d="M93.641,24.762,72.918,4.52a1,1,0,0,0-.7-.285H44.242a1,1,0,0,0-.7.285L22.82,24.762a1,1,0,0,0-.3.715V52.8a1,1,0,0,0,.3.715L28.3,58.875,2.1,84.473a1,1,0,0,0,0,1.431l8.29,8.1a1,1,0,0,0,1.4,0L38.025,68.37l5.518,5.389a1,1,0,0,0,.7.285H72.219a1,1,0,0,0,.7-.285L93.64,53.518a1,1,0,0,0,.3-.715V25.477A1,1,0,0,0,93.641,24.762ZM11.085,91.887l-6.859-6.7,25.51-24.915,6.858,6.7ZM91.942,52.382,71.811,72.044H44.649l-5.923-5.785,0,0-8.289-8.1,0,0-5.914-5.776V25.9L44.649,6.235H71.811L91.942,25.9Z"/><polygon points="71.183 33.573 44.242 33.573 39.061 39.646 39.061 57.863 77.4 57.863 77.4 39.646 71.183 33.573" class="sgmaincolor"/><ellipse cx="57.712" cy="23.453" rx="10.362" ry="10.121" class="sgmaincolor"/><polygon points="57.868 33.573 68.074 33.573 57.712 51.79 47.351 33.573 57.868 33.573" class="sgmaincolor"/><path d="M78.1,38.93l-6.216-6.072a1,1,0,0,0-.7-.285H64.195a11.044,11.044,0,0,0,4.879-9.12,11.365,11.365,0,0,0-22.724,0,11.045,11.045,0,0,0,4.88,9.12H44.242a1,1,0,0,0-.761.351L38.3,39a1,1,0,0,0-.24.649V57.863a1,1,0,0,0,1,1H77.4a1,1,0,0,0,1-1V39.646A1,1,0,0,0,78.1,38.93ZM66.355,34.573,58.713,48.01V34.573ZM48.35,23.453a9.365,9.365,0,0,1,18.724,0,9.365,9.365,0,0,1-18.724,0Zm8.363,11.12V48.01L49.07,34.573ZM76.4,56.863H69.074V47.742a1,1,0,0,0-2,0v9.121H49.387V47.742a1,1,0,1,0-2,0v9.121H40.061V40.014L44.7,34.573h2.066L56.844,52.285a.964.964,0,0,0,.161.212l0,0a.993.993,0,0,0,.276.186c.027.013.053.023.081.034a.888.888,0,0,0,.691,0c.028-.011.054-.021.081-.034a.966.966,0,0,0,.277-.187l0,0a.968.968,0,0,0,.162-.212L68.656,34.573h2.119L76.4,40.066Z"/><rect width="96" height="96" fill="#fff" opacity="0"/></svg>