<svg xmlns="http://www.w3.org/2000/svg" viewBox="0 0 64 64"><path d="M52,10H12a3,3,0,0,0-3,3V51a3,3,0,0,0,3,3H26V52H12a1,1,0,0,1-1-1V21H53v9h2V13A3,3,0,0,0,52,10ZM11,19V13a1,1,0,0,1,1-1H52a1,1,0,0,1,1,1v6Z"/><circle cx="14.5" cy="15.5" r="1.5"/><circle cx="19.5" cy="15.5" r="1.5"/><circle cx="24.5" cy="15.5" r="1.5"/><path d="M51,37H50V34.67a6,6,0,0,0-12,0V37H37a4,4,0,0,0-4,4v9a4,4,0,0,0,4,4H51a4,4,0,0,0,4-4V41A4,4,0,0,0,51,37ZM40,34.67a4,4,0,0,1,8,0V37H40ZM53,50a2,2,0,0,1-2,2H37a2,2,0,0,1-2-2V41a2,2,0,0,1,2-2H51a2,2,0,0,1,2,2Z"/><path d="M46.5,43.5a2.5,2.5,0,0,0-5,0,2.47,2.47,0,0,0,1,2h0v3.36A1.06,1.06,0,0,0,43.45,50h1.12a1,1,0,0,0,.93-1.12V45.5h0A2.47,2.47,0,0,0,46.5,43.5Z"/><path d="M24,49H14V24H24Zm-8-2h6V26H16Z"/><path d="M36,31H27V24h9Zm-7-2h5V26H29Z"/><rect x="27" y="35" width="2" height="14"/></svg>
