<svg xmlns="http://www.w3.org/2000/svg" viewBox="0 0 96 96"><g opacity="0"><rect width="96" height="96" fill="#fff"/></g><polygon points="37.313 14.101 19.592 16.975 6.078 27.638 48.402 81.977 89.922 27.977 78.252 17.628 60.099 14.023 37.313 14.101" class="sgmaincolor"/><path d="M90.872,28.261a1.011,1.011,0,0,0,.026-.189,1.094,1.094,0,0,0,.019-.159c0-.013-.006-.024-.007-.037a1.127,1.127,0,0,0-.048-.179,1.015,1.015,0,0,0-.043-.155.29.29,0,0,0-.019-.029.978.978,0,0,0-.1-.138.948.948,0,0,0-.113-.146h0L78.913,16.88c-.016-.014-.037-.018-.054-.031a1.479,1.479,0,0,0-.356-.177.614.614,0,0,0-.059-.025l-18.152-3.6h-.019l-.036-.006c-.029,0-.056,0-.084,0s-.036-.011-.055-.011h0l-22.814.037a.974.974,0,0,0-.3.06c-.014,0-.027,0-.04,0a.973.973,0,0,0-.118.042c-.028.009-.059.006-.086.017L19.43,15.988a.45.45,0,0,0-.051.02.932.932,0,0,0-.18.067,1,1,0,0,0-.182.092c-.014.01-.032.012-.046.023L5.462,26.849h0l0,0a.9.9,0,0,0-.094.111,1.045,1.045,0,0,0-.141.164c-.005.009-.015.016-.02.026a.966.966,0,0,0-.05.152.944.944,0,0,0-.059.182.263.263,0,0,0-.008.03A.959.959,0,0,0,5.1,27.7a.847.847,0,0,0,0,.151c0,.009.007.015.009.023a.208.208,0,0,0,0,.023c.008.031.032.058.043.089a.978.978,0,0,0,.114.226c.008.012.009.026.018.037l0,.005h0L47.611,82.591c.006.007.015.01.02.016l.013.02.012.017a.932.932,0,0,0,.076.065c.019.017.033.038.053.054l.006.007c.012.009.027.012.039.021a1.081,1.081,0,0,0,.109.065l.01.008c.008,0,.014.012.022.016h0c.013.007.027,0,.04.01s.04.023.062.031.022,0,.032.009a.989.989,0,0,0,.281.045l.012,0h.006a1.011,1.011,0,0,0,.2-.022c.01,0,.017-.009.026-.011l.062-.015c.03-.01.058-.026.087-.039s.031,0,.046-.01h0c.01-.005.017-.016.027-.021l0,0c.03-.016.06-.03.089-.049l.039-.027c.008-.006.016-.007.024-.013s.022-.03.036-.042a1.019,1.019,0,0,0,.094-.08c.006-.007.009-.015.015-.022l.011-.018c.007-.007.016-.01.022-.018l41.52-54v0a.98.98,0,0,0,.152-.284h0C90.871,28.286,90.869,28.273,90.872,28.261ZM20.005,17.922,32.4,15.911,20.573,23.406,10.124,25.718Zm57.785.634,7.734,6.859-8.857-3.032L65.883,16.191Zm-28.9,4.751,11.4,5.269L48.466,77.5l-10.4-48.763Zm13.4,5.488L74.362,24.95l-22.7,47.819Zm.037-2.111-1.044-10.83,12.506,7.181Zm-2.039-.311L50.834,22l8.437-6.142Zm-22.339.18.145-10.56,8.8,6.077Zm-2.005.367-12.45-3,12.6-7.985Zm.137,2.09,9.572,44.861L22.764,25.807Zm12.76-8.027L40.25,15.055l16.768-.027ZM20.4,25.493,43.557,74.131,7.838,28.273Zm56.374-.959,11.505,3.938L53.328,73.927Z"/></svg>