<svg xmlns="http://www.w3.org/2000/svg" viewBox="0 0 96 96"><circle cx="44.009" cy="44.159" r="42.009" class="sgmaincolor"/><path d="M44.009,87.168a43.01,43.01,0,1,1,43.01-43.01A43.058,43.058,0,0,1,44.009,87.168Zm0-84.019a41.01,41.01,0,1,0,41.01,41.009A41.056,41.056,0,0,0,44.009,3.149Z"/><path d="M44.009,87.168a43.01,43.01,0,1,1,43.01-43.01A43.058,43.058,0,0,1,44.009,87.168Zm0-84.019a41.01,41.01,0,1,0,41.01,41.009A41.056,41.056,0,0,0,44.009,3.149Z"/><path d="M63.493,92.146a1,1,0,0,1-.384-1.924A50.009,50.009,0,0,0,92.476,55.887a1,1,0,1,1,1.943.468A52.008,52.008,0,0,1,63.877,92.069,1,1,0,0,1,63.493,92.146Z"/><path d="M63.908,43.158h-18.9V24.26a1,1,0,0,0-2,0v18.9H24.11a1,1,0,0,0,0,2h18.9v18.9a1,1,0,0,0,2,0v-18.9h18.9a1,1,0,0,0,0-2Z"/></svg>