<svg xmlns="http://www.w3.org/2000/svg" viewBox="0 0 64 64"><g opacity="0"><rect width="64" height="64" fill="#fff"/></g><path d="M58.378,11.057H15.5a1,1,0,0,0-1,1v18.85H5.628a1,1,0,1,0,0,2H14.5v19.03a.99.99,0,0,0,1,1h42.88a1,1,0,0,0,1-1V12.057A1,1,0,0,0,58.378,11.057Zm-1,39.88H16.5V32.907h21.35l-7.5,8.17a.988.988,0,0,0,.06,1.41.961.961,0,0,0,.67.26.986.986,0,0,0,.74-.32l8.96-9.77a1.008,1.008,0,0,0,.17-.19.826.826,0,0,0,.07-.13.631.631,0,0,0,.08-.23.968.968,0,0,0,.01-.38,1.093,1.093,0,0,0-.05-.17.612.612,0,0,0-.05-.12.834.834,0,0,0-.08-.12.179.179,0,0,0-.05-.07l-9.04-10.37a1,1,0,0,0-1.51,1.32l7.6,8.71H16.5V13.057h40.88Z"/></svg>