<svg xmlns="http://www.w3.org/2000/svg" viewBox="0 0 96 96"><g opacity="0"><rect width="96" height="96" fill="#fff"/></g><polygon points="47.937 10.517 64.468 19.602 64.866 38.46 48.733 48.233 32.203 39.149 31.804 20.291 47.937 10.517" class="sgmaincolor"/><polygon points="26.633 47.767 43.163 56.851 43.561 75.709 27.429 85.483 10.898 76.398 10.5 57.54 26.633 47.767" class="sgmaincolor"/><polygon points="68.571 47.767 85.102 56.851 85.5 75.709 69.367 85.483 52.837 76.398 52.439 57.54 68.571 47.767" class="sgmaincolor"/><path d="M48.733,49.234a1,1,0,0,1-.482-.124l-16.53-9.084a1,1,0,0,1-.518-.856l-.4-18.858a1,1,0,0,1,.482-.876L47.418,9.662a1,1,0,0,1,1-.021l16.531,9.084a1,1,0,0,1,.518.855l.4,18.859a1,1,0,0,1-.482.876L49.251,49.089A1,1,0,0,1,48.733,49.234ZM33.19,38.551l15.519,8.528L63.854,37.9,63.48,20.2,47.961,11.672,32.816,20.847Z"/><path d="M39.278,35.4a1,1,0,0,1-1-.979l-.2-9.707a1,1,0,0,1,.481-.877l8.385-5.08a1,1,0,0,1,1.037,1.711l-7.891,4.781.193,9.13A1,1,0,0,1,39.3,35.4Z"/><path d="M17.2,72.559a1,1,0,0,1-1-.979l-.205-9.708A1,1,0,0,1,16.475,61l8.385-5.08A1,1,0,1,1,25.9,57.627l-7.892,4.78.194,9.131a1,1,0,0,1-.979,1.021Z"/><path d="M70.244,77.754a1,1,0,0,1-.52-1.856l7.892-4.78-.194-9.13a1,1,0,0,1,.979-1.021h.021a1,1,0,0,1,1,.979l.2,9.707a1,1,0,0,1-.481.877l-8.385,5.079A1,1,0,0,1,70.244,77.754Z"/><path d="M27.429,86.483a.991.991,0,0,1-.481-.124L10.417,77.275A1,1,0,0,1,9.9,76.42L9.5,57.561a1,1,0,0,1,.481-.876l16.133-9.774a1,1,0,0,1,1-.021l16.531,9.084a1,1,0,0,1,.519.856l.4,18.858a1,1,0,0,1-.481.876L27.948,86.338A1,1,0,0,1,27.429,86.483ZM11.885,75.8l15.52,8.527,15.144-9.175-.373-17.7L26.657,48.921,11.511,58.1Z"/><path d="M69.368,86.483a1,1,0,0,1-.482-.124L52.355,77.275a1,1,0,0,1-.519-.855l-.4-18.859a1,1,0,0,1,.481-.876l16.132-9.774a1,1,0,0,1,1-.021l16.532,9.084a1,1,0,0,1,.518.856l.4,18.858a1,1,0,0,1-.482.876L69.886,86.338A1,1,0,0,1,69.368,86.483ZM53.824,75.8l15.519,8.527,15.145-9.175-.373-17.7L68.6,48.921,53.451,58.1Z"/><path d="M48.733,49.234a1,1,0,0,1-.482-.124l-16.53-9.084a1,1,0,0,1-.518-.856l-.4-18.858a1,1,0,0,1,.482-.876L47.418,9.662a1,1,0,0,1,1-.021l16.531,9.084a1,1,0,0,1,.518.855l.4,18.859a1,1,0,0,1-.482.876L49.251,49.089A1,1,0,0,1,48.733,49.234ZM33.19,38.551l15.519,8.528L63.854,37.9,63.48,20.2,47.961,11.672,32.816,20.847Z"/><path d="M27.429,86.483a.991.991,0,0,1-.481-.124L10.417,77.275A1,1,0,0,1,9.9,76.42L9.5,57.561a1,1,0,0,1,.481-.876l16.133-9.774a1,1,0,0,1,1-.021l16.531,9.084a1,1,0,0,1,.519.856l.4,18.858a1,1,0,0,1-.481.876L27.948,86.338A1,1,0,0,1,27.429,86.483ZM11.885,75.8l15.52,8.527,15.144-9.175-.373-17.7L26.657,48.921,11.511,58.1Z"/><path d="M69.368,86.483a1,1,0,0,1-.482-.124L52.355,77.275a1,1,0,0,1-.519-.855l-.4-18.859a1,1,0,0,1,.481-.876l16.132-9.774a1,1,0,0,1,1-.021l16.532,9.084a1,1,0,0,1,.518.856l.4,18.858a1,1,0,0,1-.482.876L69.886,86.338A1,1,0,0,1,69.368,86.483ZM53.824,75.8l15.519,8.527,15.145-9.175-.373-17.7L68.6,48.921,53.451,58.1Z"/></svg>