<svg xmlns="http://www.w3.org/2000/svg" viewBox="0 0 96 96"><g opacity="0"><rect width="96" height="96" fill="#fff"/></g><ellipse cx="48.739" cy="47.516" rx="37.541" ry="37.486" class="sgmaincolor"/><path d="M41.166,58.433a1,1,0,0,1-.707-1.708L54.843,42.362a1,1,0,1,1,1.414,1.415L41.873,58.14A1,1,0,0,1,41.166,58.433Z"/><path d="M39.353,69.21a9.978,9.978,0,0,1-7.06-17.026l6.375-6.238a1,1,0,1,1,1.4,1.429L33.7,53.606a7.995,7.995,0,0,0,.008,11.273,8.01,8.01,0,0,0,11.3,0l6.231-6.351a1,1,0,1,1,1.428,1.4l-6.239,6.359A9.993,9.993,0,0,1,39.353,69.21Z"/><path d="M57.348,54.842a1,1,0,0,1-.7-1.715L63.017,46.9a7.994,7.994,0,0,0-.008-11.272,8.007,8.007,0,0,0-11.3,0l-6.234,6.351a1,1,0,1,1-1.427-1.4l6.24-6.359a10.013,10.013,0,0,1,14.134-.007,9.994,9.994,0,0,1,0,14.11l-6.376,6.239A1,1,0,0,1,57.348,54.842Z"/><path d="M48.739,86A38.487,38.487,0,1,1,87.28,47.516,38.557,38.557,0,0,1,48.739,86Zm0-74.973A36.487,36.487,0,1,0,85.28,47.516,36.556,36.556,0,0,0,48.739,11.029Z"/></svg>