<svg xmlns="http://www.w3.org/2000/svg" viewBox="0 0 96 96"><rect width="96" height="96" fill="#fff" opacity="0"/><polygon points="80.739 86.935 80.739 86.935 69.925 86.935 17.127 86.935 17.127 9.169 80.739 9.169 80.739 86.935" class="sgmaincolor"/><path d="M80.739,87.936H17.128a1,1,0,0,1-1-1V9.168a1,1,0,0,1,1-1H80.739a1,1,0,0,1,1,1V86.936A1,1,0,0,1,80.739,87.936Zm-62.611-2H79.739V10.168H18.128Z"/><rect x="29.232" y="21.087" width="39.157" height="10.765" class="sgmaincolor"/><path d="M68.388,32.852H29.232a1,1,0,0,1-1-1V21.087a1,1,0,0,1,1-1H68.388a1,1,0,0,1,1,1V31.852A1,1,0,0,1,68.388,32.852Zm-38.156-2H67.388V22.087H30.232Z"/><rect x="29.232" y="51.95" width="39.157" height="10.765" class="sgmaincolor"/><path d="M68.388,63.715H29.232a1,1,0,0,1-1-1V51.951a1,1,0,0,1,1-1H68.388a1,1,0,0,1,1,1V62.715A1,1,0,0,1,68.388,63.715Zm-38.156-2H67.388V52.951H30.232Z"/><path d="M68.124,41.709H29.231a1,1,0,1,1,0-2H68.124a1,1,0,0,1,0,2Z"/><path d="M56.557,72.584H29.231a1,1,0,1,1,0-2H56.557a1,1,0,1,1,0,2Z"/></svg>