<svg xmlns="http://www.w3.org/2000/svg" viewBox="0 0 96 96"><rect width="96" height="96" fill="#fff" opacity="0"/><polygon points="5.01 9 5.01 73 12.01 73 12.01 55 77.01 55 77.01 64 84.01 64 84.01 73 91.01 73 91.01 9 5.01 9" class="sgmaincolor"/><rect x="21.01" y="61" width="10" height="20" class="sgmaincolor"/><rect x="40.01" y="61" width="10" height="20" class="sgmaincolor"/><path d="M54,40a1,1,0,0,0-1,1,5,5,0,1,1-10,0,1,1,0,1,0-2,0,7,7,0,0,0,14,0A1,1,0,0,0,54,40Z"/><path d="M91,8H5A1,1,0,0,0,4,9V73a1,1,0,0,0,1,1h6V87a1,1,0,0,0,1,1H77a1,1,0,0,0,1-1V79h6a1,1,0,0,0,1-1V74h6a1,1,0,0,0,1-1V9A1,1,0,0,0,91,8Zm-1,2V22H6V10ZM83,77H77a1,1,0,0,0-1,1v8H13V56H76v8a1,1,0,0,0,1,1h6Zm2-5V64a1,1,0,0,0-1-1H78V55a1,1,0,0,0-1-1H12a1,1,0,0,0-1,1V72H6V24H90V72Z"/><circle cx="14" cy="16" r="2"/><circle cx="20" cy="16" r="2"/><circle cx="29.01" cy="38" r="2"/><circle cx="26" cy="16" r="2"/><circle cx="68.01" cy="38" r="2"/><path d="M31,60H21a1,1,0,0,0-1,1V81a1,1,0,0,0,1,1H31a1,1,0,0,0,1-1V61A1,1,0,0,0,31,60ZM30,80H22V62h8Z"/><path d="M50,60H40a1,1,0,0,0-1,1V81a1,1,0,0,0,1,1H50a1,1,0,0,0,1-1V61A1,1,0,0,0,50,60ZM49,80H41V62h8Z"/><path d="M69,60H59a1,1,0,0,0-1,1V81a1,1,0,0,0,1,1H69a1,1,0,0,0,1-1V61A1,1,0,0,0,69,60ZM68,80H60V62h8Z"/><path d="M26,79a1,1,0,0,0,1-1V64a1,1,0,0,0-2,0V78A1,1,0,0,0,26,79Z"/><path d="M45,79a1,1,0,0,0,1-1V64a1,1,0,0,0-2,0V78A1,1,0,0,0,45,79Z"/><path d="M77,70H76a1,1,0,1,0,0,2h1v1a1,1,0,0,0,2,0V72h1a1,1,0,0,0,0-2H79V69a1,1,0,0,0-2,0Z"/></svg>