<svg xmlns="http://www.w3.org/2000/svg" viewBox="0 0 96 96"><g opacity="0"><rect width="96" height="96" fill="#fff"/></g><path d="M2.981,14.957,2.792,79.7l90.363-.08-.262-64.66Z" class="sgmaincolor"/><circle cx="12.16" cy="22.946" r="2.482"/><circle cx="19.607" cy="22.946" r="2.482"/><circle cx="27.054" cy="22.946" r="2.482"/><path d="M93.893,31.044a.993.993,0,0,0-.029-.142V14.669a1,1,0,0,0-1-1h0l-89.883.288a1,1,0,0,0-1,1L1.792,79.7a1,1,0,0,0,1,1H92.864a1,1,0,0,0,1-1V31.183A.927.927,0,0,0,93.893,31.044ZM91.864,15.673V30.04L3.937,29.869l.041-13.915ZM3.8,78.7l.136-46.835,87.933.171V78.7Z"/><path d="M47.412,52.5,58.363,41.543a1,1,0,0,0-1.414-1.414L46,51.081,35.046,40.129a1,1,0,0,0-1.414,1.414L44.584,52.5,33.632,63.446a1,1,0,1,0,1.414,1.414L46,53.909,56.949,64.86a1,1,0,0,0,1.414-1.414Z"/></svg>