<svg xmlns="http://www.w3.org/2000/svg" viewBox="0 0 96 96"><rect width="96" height="96" fill="#fff" opacity="0"/><path d="M12.139,55.145a1,1,0,0,1-1-1l-.18-39.718a1,1,0,0,1,1-1h0a1,1,0,0,1,1,1l.18,39.718a1,1,0,0,1-.995,1.005Z"/><path d="M4.215,48.274h0a1,1,0,0,1-1-1l.069-27.149a1,1,0,0,1,1-1h0a1,1,0,0,1,1,1l-.069,27.15A1,1,0,0,1,4.215,48.274Z"/><rect x="20.153" y="6.002" width="50.055" height="83.302" class="sgmaincolor"/><rect x="27.057" y="14.632" width="36.247" height="57.412" class="sgmaincolor"/><path d="M45.18,85.989A5.315,5.315,0,1,1,50.5,80.674,5.322,5.322,0,0,1,45.18,85.989Zm0-8.63A3.315,3.315,0,1,0,48.5,80.674,3.319,3.319,0,0,0,45.18,77.359Z"/><polygon points="71.787 84 90.972 73.232 92 63.825 83.654 48.956 80.659 48.114 76.822 50.268 79.783 55.544 76.822 50.268 73.826 49.426 69.989 51.58 72.681 56.376 69.989 51.58 66.994 50.738 63.157 52.892 67.195 60.086 57.234 42.34 54.239 41.498 52.32 42.575 51.479 45.57 66.285 71.95 66.285 71.95 61.439 63.317 58.444 62.475 56.525 63.552 55.684 66.547 64.298 81.896 71.787 84" class="sgmaincolor"/><path d="M92.872,63.335,84.526,48.467a1,1,0,0,0-.6-.474l-3-.842a1,1,0,0,0-.759.091l-3.476,1.951-2.6-.73a1,1,0,0,0-.759.091l-2.13,1.2V6a1,1,0,0,0-1-1H20.152a1,1,0,0,0-1,1V89.3a1,1,0,0,0,1,1H70.208a1,1,0,0,0,1-1V84.876l.308.087a1,1,0,0,0,.76-.091L91.462,74.1a1,1,0,0,0,.5-.764l1.027-9.407A1.013,1.013,0,0,0,92.872,63.335ZM69.208,88.3H21.152V7H69.208v43.32l-1.944-.547a1,1,0,0,0-.759.091L64.3,51.1V14.632a1,1,0,0,0-1-1H27.056a1,1,0,0,0-1,1V72.043a1,1,0,0,0,1,1H58.183l5.244,9.342a1,1,0,0,0,.6.473l5.18,1.456ZM50.606,46.06,59.386,61.7l-.671-.189a1,1,0,0,0-.76.091L56.036,62.68a1,1,0,0,0-.474.6l-.841,3a1,1,0,0,0,.09.76l2.249,4.006h-29V15.632H62.3v33.7l-4.2-7.477a1,1,0,0,0-.6-.474l-3-.842a1,1,0,0,0-.76.091L51.831,41.7a1,1,0,0,0-.474.6l-.842,3A1,1,0,0,0,50.606,46.06ZM90.034,72.611,71.659,82.925l-6.691-1.88L56.759,66.419l.617-2.2,1.2-.671,2.2.617,4.643,8.272a1,1,0,1,0,1.744-.978l-4.846-8.633,0-.007L52.554,45.442l.617-2.2,1.2-.671,2.2.617,9.758,17.386a1,1,0,0,0,1.744-.979l-3.549-6.323,2.6-1.461,2.2.618,2.489,4.435a1,1,0,0,0,1.745-.98l-2.2-3.923L73.955,50.5l2.2.618,2.758,4.914a1,1,0,1,0,1.744-.978L78.183,50.65l2.6-1.461,2.2.618,7.986,14.228Z"/></svg>