<svg xmlns="http://www.w3.org/2000/svg" viewBox="0 0 92 68">
  <path class="sgmaincolor" d="M1 1h90v66H1z"/>
  <path d="M91 0H1a1 1 0 00-1 1v66a1 1 0 001 1h90a1 1 0 001-1V1a1 1 0 00-1-1zm-1 2v15H2V2zM2 66V19h88v47z"/>
  <path d="M52 46.51a1 1 0 01-1-1 5 5 0 10-10 0 1 1 0 01-2 0 7 7 0 1114 0 1 1 0 01-1 1z"/>
  <circle cx="8.5" cy="9.5" r="2.5"/>
  <circle cx="16.5" cy="9.5" r="2.5"/>
  <circle cx="24.5" cy="9.5" r="2.5"/>
  <circle cx="67.5" cy="36.5" r="2.5"/>
  <circle cx="24.5" cy="36.5" r="2.5"/>
</svg>
