<svg xmlns="http://www.w3.org/2000/svg" viewBox="0 0 96 96"><g opacity="0"><rect width="96" height="96.145" fill="#fff"/><rect width="96" height="96" fill="#fff"/></g><path d="M66,82.192a1,1,0,0,1-.712-1.7L81.056,64.506a1,1,0,0,1,1.424,1.4L66.707,81.9A1,1,0,0,1,66,82.192Z"/><path d="M65.115,91.607a9.691,9.691,0,0,1-6.723-2.71A9.443,9.443,0,0,1,58.3,75.574l6.9-6.993a1,1,0,1,1,1.423,1.4l-6.9,6.994A7.421,7.421,0,1,0,70.292,87.4l6.9-6.993a1,1,0,0,1,1.424,1.4l-6.9,6.994A9.146,9.146,0,0,1,65.115,91.607Z"/><path d="M81.847,78.117a1,1,0,0,1-.712-1.7l6.9-6.993a7.274,7.274,0,0,0,2.131-5.453,7.58,7.58,0,0,0-2.2-5.041,7.438,7.438,0,0,0-10.5.068l-6.9,6.993a1,1,0,1,1-1.424-1.4l6.9-6.993A9.443,9.443,0,0,1,89.372,57.5a9.611,9.611,0,0,1,2.8,6.381,9.254,9.254,0,0,1-2.707,6.941l-6.9,6.993A.994.994,0,0,1,81.847,78.117Z"/><polygon points="43.439 43.563 28.038 43.563 12.637 43.563 4.531 50.859 4.531 64.97 15.732 73.371 15.732 81.071 39.66 81.017 39.66 73.458 51 65.142 51 50.778 43.439 43.563" class="sgmaincolor"/><circle cx="28.038" cy="29.028" r="13.78" transform="translate(-2.724 2.904) rotate(-5.655)" class="sgmaincolor"/><line x1="12.637" y1="43.563" x2="28.321" y2="51.534" class="sgmaincolor"/><line x1="43.439" y1="43.563" x2="28.321" y2="51.534" class="sgmaincolor"/><line x1="39.66" y1="73.458" x2="39.66" y2="55.314" class="sgmaincolor"/><path d="M51.69,50.055,44.129,42.84a.37.37,0,0,0-.033-.021,2.386,2.386,0,0,0-.326-.192.976.976,0,0,0-.179-.034,1.021,1.021,0,0,0-.152-.03H33.953a14.781,14.781,0,1,0-11.829,0H12.637a1,1,0,0,0-.18.034,1.1,1.1,0,0,0-.152.028.953.953,0,0,0-.2.11.9.9,0,0,0-.126.077l-.014.008-8.1,7.3a1,1,0,0,0-.331.743V64.97a1,1,0,0,0,.4.8l10.8,8.1v7.2a1,1,0,0,0,1,1h0l23.929-.053a1,1,0,0,0,1-1V73.965l10.93-8.017A1,1,0,0,0,52,65.142V50.778A1,1,0,0,0,51.69,50.055ZM15.258,29.027A12.78,12.78,0,1,1,28.039,41.808,12.794,12.794,0,0,1,15.258,29.027ZM39.4,44.563,28.312,50.408l-11.5-5.845ZM50,64.635l-9.339,6.849V55.314a1,1,0,1,0-2,0V80.02l-21.929.049V55.17a1,1,0,0,0-2,0v16.2l-9.2-6.9V51.3L12.8,44.766l15.072,7.66a.971.971,0,0,0,.124.045.787.787,0,0,0,.081.03.992.992,0,0,0,.247.033h0a1,1,0,0,0,.253-.035c.026-.007.049-.019.074-.028a1.013,1.013,0,0,0,.139-.052l14.481-7.635L50,51.206Z"/><polygon points="88.522 38.509 88.522 28.147 83.068 22.942 71.958 22.942 60.847 22.942 55 28.205 55 38.385 63.08 44.445 63.08 31.315 63.08 50 80.342 49.961 80.342 44.508 88.522 38.509" class="sgmaincolor"/><circle cx="71.958" cy="14.318" r="8.184" class="sgmaincolor"/><line x1="60.847" y1="22.942" x2="72.162" y2="28.692" class="sgmaincolor"/><line x1="83.068" y1="22.942" x2="72.162" y2="28.692" class="sgmaincolor"/><path d="M89.212,27.423l-5.454-5.2c-.009-.01-.023-.013-.033-.021a2.386,2.386,0,0,0-.326-.192.976.976,0,0,0-.179-.034,1.021,1.021,0,0,0-.152-.03h-6a9.184,9.184,0,1,0-10.226,0h-6a.912.912,0,0,0-.179.034.58.58,0,0,0-.348.136,1.06,1.06,0,0,0-.129.079l-.013.008-5.847,5.263a1,1,0,0,0-.331.743v10.18a1,1,0,0,0,.4.8l7.681,5.76V50a1,1,0,0,0,1,1h0l17.261-.039a1,1,0,0,0,1-1V45.015l7.772-5.7a1,1,0,0,0,.408-.806V28.146A1,1,0,0,0,89.212,27.423Zm-24.438-13.1A7.184,7.184,0,1,1,71.958,21.5,7.192,7.192,0,0,1,64.774,14.318Zm14.252,9.624-6.873,3.624-7.131-3.624ZM87.522,38l-6.18,4.532V31.419a1,1,0,1,0-2,0V48.963L64.081,49V31.314a1,1,0,0,0-2,0V42.445L56,37.885V28.65l5.006-4.5,10.7,5.439a1.084,1.084,0,0,0,.124.046c.027.009.053.022.081.029a.992.992,0,0,0,.247.033h0a1,1,0,0,0,.253-.035c.026-.006.049-.019.074-.027a1.058,1.058,0,0,0,.138-.053L82.9,24.163l4.624,4.411Z"/></svg>