<svg id="f8bd3624-909e-452d-8dfb-72a7f39643d9" xmlns="http://www.w3.org/2000/svg" viewBox="0 0 96 96"><circle cx="34" cy="61.003" r="29" class="sgmaincolor"/><path d="M33,32.02Q33.5,32,34,32a29,29,0,0,1,21.094,48.9l-.256-.023c2.442.217,5.01.332,7.66.332C78.789,81.214,92,77.4,92,72V17C92,11.611,78.789,7,62.5,7S33,11.611,33,17V32.02Z" class="sgmaincolor"/><path d="M92.994,16.853c0-.029,0-.057,0-.085h-.011C92.651,10.712,79.385,6,62.5,6S32.349,10.712,32.012,16.768H32c0,.041.006.081.008.122S32,16.965,32,17V31.078A30,30,0,1,0,55.468,81.929c2.3.183,4.653.289,7.03.289C77.657,82.218,93,78.71,93,72V17C93,16.953,93,16.9,92.994,16.853ZM63.367,54.87C77.705,54.75,87.125,51.693,91,48.014v9.765h0c0,4.062-11.248,8.576-27.51,8.752a29.871,29.871,0,0,0-.114-11.661ZM90.991,44.109c0,4.113-11.53,8.69-28.122,8.758a29.968,29.968,0,0,0-6.564-11.9c2.029.142,4.089.239,6.193.239,14.831,0,24.549-3.11,28.5-6.864v9.766Zm0-13.671c0,4.144-11.7,8.761-28.493,8.761-2.859,0-5.659-.143-8.357-.41A29.886,29.886,0,0,0,34,31V20.678c3.952,3.751,13.668,6.859,28.494,6.859s24.549-3.11,28.5-6.863v9.764ZM62.5,8.008c16.6,0,28.22,4.632,28.485,8.848-.163,4.121-11.811,8.673-28.485,8.673-16.636,0-28.269-4.531-28.484-8.644C34.229,12.661,45.862,8.008,62.5,8.008ZM34,89A28,28,0,1,1,62,61,28.032,28.032,0,0,1,34,89Zm28.5-8.793c-1.794,0-3.568-.074-5.321-.181A29.942,29.942,0,0,0,63.04,68.543C77.562,68.467,87.1,65.391,91,61.684V72C91,75.951,80.1,80.211,62.5,80.211Z"/><path d="M34,85A24,24,0,1,1,58,61,24.028,24.028,0,0,1,34,85Zm0-46A22,22,0,1,0,56,61,22.025,22.025,0,0,0,34,39Z"/><path d="M38.609,54.483c2.326-.819,3.188-3.446,3.1-5.3C32.967,45.05,24.18,52.458,25.6,60.728a8.778,8.778,0,0,0,5.513,6.806c-.215.215-.6.775-.775.99a11.506,11.506,0,0,0,6.59-.129,8.566,8.566,0,0,0,3.618-2.5,7.6,7.6,0,0,0,1.679-3.187c.044-.13-.258-.431.216-.216s-.129,2.025-.3,2.455A8.991,8.991,0,0,1,41.28,66.5a9.741,9.741,0,0,1-11.931,3.489c-2.369-1.206-3.575.861-1.335,2.024C40.289,77.009,50.325,61.848,38.609,54.483Zm1.809,9.777c-2.584,4.221-7.709,3.274-10.552.388a7.493,7.493,0,0,1-.431-9.864,12.3,12.3,0,0,1,9.777-4.867,5.3,5.3,0,0,1,.087.819,3.991,3.991,0,0,1-1.293,3.23l-.689.6C40.634,56.636,42.357,61.116,40.418,64.26Z"/><path d="M29.263,59.221c.646-6.289,7.882-7.538,10.552.861S28.272,66.8,29.263,59.221Zm5.9,4.135c5.728.215,2.972-5.643-.776-6.935S28.574,63.356,35.164,63.356Z"/></svg>