<svg xmlns="http://www.w3.org/2000/svg" viewBox="0 0 96 96"><g opacity="0"><rect width="96" height="96" fill="#fff"/></g><path d="M93.716,57.027l-.055-11.736-16.771.063,7.474-5.813L67.431,32.258l-1.788,13.1-.9.036L63.118,32.772,46.29,39.455l7.966,5.887-18.386,0L35.9,56.571h3.919L39.767,92.1l49.853-.018.467-35.036Z" class="sgmaincolor"/><path d="M94.662,45.286a1,1,0,0,0-1-1h0l-13.8.015,5.113-3.977a1,1,0,0,0-.219-1.708L67.826,31.339a1,1,0,0,0-1.386.779l-1.276,8.97L64.11,32.649a1,1,0,0,0-1.361-.806L45.92,38.525a1,1,0,0,0-.225,1.734l5.519,4.078-15.354.017a1,1,0,0,0-1,1L34.9,56.405a.98.98,0,0,0-.016.164,1.013,1.013,0,0,0,.989,1.016,1.527,1.527,0,0,0,.184-.014l2.76,0L38.767,92.1a1,1,0,0,0,1,1l21.477.016c.021,0,.039.012.061.012h.006c.022,0,.041-.011.063-.012l28.246.02h0a1,1,0,0,0,1-.986l.455-34.122h2.64a1,1,0,0,0,1-1ZM68.236,33.694l14.179,6.1L76.6,44.31l-9.881.011Zm.837,57.427-6.757,0,.194-33.4,6.554.017ZM71,56.423a1.011,1.011,0,0,0-.059-.144c-1.725-4.2-3.327-8.114-4.064-9.93l9.338.005c1.1,2.7,5.008,12.136,6.877,16.653l-5.047-2.433a1,1,0,0,0-1.392.615L75.1,66.4C73.933,63.561,72.428,59.9,71,56.423Zm-5.826-8.971c.235.6.538,1.339.918,2.269.689,1.685,1.553,3.8,2.46,6.007l-6.8-.018a.671.671,0,0,0-.251-.029l-.269,0C62.923,52.155,64.428,49.012,65.176,47.452ZM54.717,64.664,53.23,60.149a1,1,0,0,0-.95-.688.99.99,0,0,0-.432.1L48.016,61.4c1.03-2.254,1.843-4.036,2.492-5.46l4.39-9.593,8.609.005c-.3.6-.7,1.417-1.23,2.527ZM48.332,39.72l13.954-5.541,1.266,10.145-8.977.009ZM39.821,55.571a.89.89,0,0,0-.09,0l-2.833,0-.033-9.219,15.826-.018c-.96,2.064-1.047,2.255-1.582,3.44-.393.867-1.025,2.267-2.421,5.331l-.219.477-8.646-.012Zm1,2.005,6.739.006c-.692,1.519-1.518,3.328-2.508,5.492a1,1,0,0,0,1.341,1.317l5.3-2.536,1.909,5.8a1,1,0,0,0,1.853.119c1.327-2.774,3.111-6.5,4.818-10.065h.244l-.194,33.409L40.769,91.1ZM88.633,91.135l-17.56-.012-.008-29.281,3.262,7.938a.991.991,0,0,0,.974.619,1,1,0,0,0,.908-.714l2.027-6.8,6.35,3.062a1,1,0,0,0,1.359-1.284c-.03-.073-1.254-3.028-2.745-6.632l5.874.013ZM82.372,56.028c-1.536-3.713-3.169-7.666-4.012-9.72l14.307-.016.043,9.736Z"/><path d="M33.437,26.881a10.247,10.247,0,0,0-5.2-3.738,11.221,11.221,0,0,0,4.531-3.653A8.684,8.684,0,0,0,34.5,14.279a10.68,10.68,0,0,0-3.71-8.624Q27.079,2.526,20.538,2.526a16.255,16.255,0,0,0-6.9,1.444A11.6,11.6,0,0,0,8.771,7.977a10.062,10.062,0,0,0-1.742,5.792h8.184A4.125,4.125,0,0,1,16.8,10.412a6.046,6.046,0,0,1,3.937-1.288,5.762,5.762,0,0,1,4.092,1.388,5.045,5.045,0,0,1,1.487,3.88,5.706,5.706,0,0,1-1.5,4.135A6.147,6.147,0,0,1,20.2,20.084H15.836v6.4h4.333q6.8,0,6.8,6.174A5.325,5.325,0,0,1,25.31,36.75a6.447,6.447,0,0,1-4.574,1.544,6.425,6.425,0,0,1-4.291-1.472,4.745,4.745,0,0,1-1.741-3.8H6.519a10.638,10.638,0,0,0,3.922,8.609,15.279,15.279,0,0,0,10.1,3.257q6.6,0,10.606-3.314a10.854,10.854,0,0,0,4.007-8.807A10.135,10.135,0,0,0,33.437,26.881Z"/></svg>