<svg xmlns="http://www.w3.org/2000/svg" viewBox="0 0 96 96"><g opacity="0"><rect width="96" height="96" fill="#fff"/></g><path d="M79.165,76.689H62.236a1.915,1.915,0,0,1-2.011-1.8V56.315c0-3.979-3.61-7.215-8.046-7.215s-8.046,3.236-8.046,7.215V74.886a1.915,1.915,0,0,1-2.012,1.8H25.192a1.915,1.915,0,0,1-2.011-1.8V35.144a1.755,1.755,0,0,1,.855-1.476l26.82-16.88a2.2,2.2,0,0,1,2.3-.006l27.153,16.88a1.757,1.757,0,0,1,.865,1.482V74.886A1.915,1.915,0,0,1,79.165,76.689Z" class="sgmaincolor"/><path d="M79.165,77.689H62.236a2.916,2.916,0,0,1-3.011-2.8V56.315c0-3.427-3.162-6.215-7.046-6.215s-7.046,2.788-7.046,6.215V74.886a2.917,2.917,0,0,1-3.012,2.8H25.192a2.916,2.916,0,0,1-3.011-2.8V35.144A2.748,2.748,0,0,1,23.5,32.822l26.82-16.881a3.188,3.188,0,0,1,3.361-.009L80.84,32.812a2.752,2.752,0,0,1,1.336,2.332V74.886a2.688,2.688,0,0,1-.921,2.02A3.121,3.121,0,0,1,79.165,77.689ZM52.179,48.1c4.988,0,9.046,3.685,9.046,8.215V74.886a.937.937,0,0,0,1.011.8H79.165a1.122,1.122,0,0,0,.755-.272.727.727,0,0,0,.256-.53V35.144a.769.769,0,0,0-.393-.634L52.63,17.631a1.209,1.209,0,0,0-1.24,0L24.568,34.514a.766.766,0,0,0-.387.63V74.886a.937.937,0,0,0,1.011.8H42.121a.938.938,0,0,0,1.012-.8V56.315C43.133,51.785,47.19,48.1,52.179,48.1Z"/></svg>