<svg xmlns="http://www.w3.org/2000/svg" viewBox="0 0 96 96"><g opacity="0"><rect width="96" height="96" fill="#fff"/></g><polygon points="90.652 73.932 90.652 59.379 82.992 52.069 67.388 52.069 51.784 52.069 43.571 59.461 43.571 73.758 54.92 82.269 54.92 63.828 54.92 90.071 79.163 90.017 79.163 82.357 90.652 73.932" class="sgmaincolor"/><circle cx="67.388" cy="37.342" r="13.961" class="sgmaincolor"/><line x1="51.907" y1="52.338" x2="67.674" y2="60.145" class="sgmaincolor"/><line x1="82.992" y1="52.069" x2="67.674" y2="60.145" class="sgmaincolor"/><path d="M91.342,58.655l-7.66-7.309c-.009-.009-.022-.012-.031-.02a.918.918,0,0,0-.164-.106.932.932,0,0,0-.162-.086.9.9,0,0,0-.186-.036.932.932,0,0,0-.147-.029H73.324a14.962,14.962,0,1,0-11.872,0H51.784a1,1,0,0,0-.669.257L42.9,58.718a1,1,0,0,0-.331.743v14.3a1,1,0,0,0,.4.8L53.919,82.77v7.3a1,1,0,0,0,1,1h0l24.245-.054a1,1,0,0,0,1-1V82.864l11.08-8.126a1,1,0,0,0,.408-.806V59.379A1,1,0,0,0,91.342,58.655ZM54.426,37.342A12.962,12.962,0,1,1,67.388,50.3,12.976,12.976,0,0,1,54.426,37.342ZM78.95,53.069,67.66,59.022,55.637,53.069Zm10.7,20.356-9.488,6.958V63.975a1,1,0,0,0-2,0V89.019l-22.245.05V63.828a1,1,0,0,0-2,0V80.27l-9.347-7.012V59.906L51.8,53.4l15.432,7.641c.013.007.028,0,.041.01a1.018,1.018,0,0,0,.4.093h0a1.012,1.012,0,0,0,.255-.036c.026-.007.05-.019.076-.028a1.014,1.014,0,0,0,.135-.052l14.681-7.74,6.83,6.517Z"/><path d="M36.069,44.326H7.805V38.719L21.144,24.5a33.019,33.019,0,0,0,4.065-5.239,8.437,8.437,0,0,0,1.316-4.248,6.305,6.305,0,0,0-1.388-4.32,5.012,5.012,0,0,0-3.965-1.571A5.409,5.409,0,0,0,16.8,11.035a7.579,7.579,0,0,0-1.6,5.027H6.984a13.518,13.518,0,0,1,1.8-6.881A12.669,12.669,0,0,1,13.866,4.3a15.451,15.451,0,0,1,7.448-1.77q6.372,0,9.9,3.059t3.526,8.638a13.865,13.865,0,0,1-1.586,6.23,34.68,34.68,0,0,1-5.438,7.392L18.34,37.728H36.069Z"/></svg>