<svg xmlns="http://www.w3.org/2000/svg" viewBox="0 0 96 95.927"><path d="M26.923,35.645v44h66v-44Z" class="sgmaincolor"/><circle cx="33.923" cy="41.645" r="2"/><circle cx="39.923" cy="41.645" r="2"/><circle cx="45.923" cy="41.645" r="2"/><path d="M92.923,34.645h-66a1,1,0,0,0-1,1v44a1,1,0,0,0,1,1h66a1,1,0,0,0,1-1v-44A1,1,0,0,0,92.923,34.645Zm-1,2v10h-64v-10Zm-64,42v-30h64v30Z"/><path d="M23.923,59.645h-20v-32h60V31.6a1,1,0,1,0,2,0V14.645a1,1,0,0,0-1-1h-62a1,1,0,0,0-1,1v46a1,1,0,0,0,1,1h21a1,1,0,0,0,0-2Zm40-44v10h-60v-10Z"/><circle cx="9.923" cy="20.645" r="2"/><circle cx="15.923" cy="20.645" r="2"/><circle cx="21.923" cy="20.645" r="2"/></svg>