<svg xmlns="http://www.w3.org/2000/svg" viewBox="0 0 96 96"><g opacity="0"><rect width="96" height="96" fill="#fff"/></g><polygon points="81.863 78.776 28.132 77.318 24.151 66.023 63.429 28.895 81.863 78.776" class="sgmaincolor"/><path d="M76.08,40.618a1,1,0,0,0,.786-.381l6.264-7.951a1,1,0,1,0-1.57-1.238L75.3,39a1,1,0,0,0,.785,1.619Z"/><path d="M79.851,51.438a1,1,0,0,0,1.3.554l11.085-4.458a1,1,0,1,0-.746-1.855L80.406,50.137A1,1,0,0,0,79.851,51.438Z"/><path d="M94.722,63.821,83.975,61.532a1,1,0,0,0-.416,1.957l10.747,2.289a1,1,0,1,0,.416-1.957Z"/><path d="M64.368,28.549a1,1,0,0,0-1.625-.38l-6.94,6.56-.006.005-32,30.25-9.724-.938c-.013,0-.024,0-.036,0a2.746,2.746,0,0,0-.386.054c-.014,0-.029,0-.043.007a.974.974,0,0,0-.143.093.674.674,0,0,0-.285.264.908.908,0,0,0-.093.136.975.975,0,0,0-.066.215.877.877,0,0,0-.039.126c0,.013,0,.023,0,.036a.986.986,0,0,0,.02.2,1.016,1.016,0,0,0,.035.192c0,.012,0,.024.006.036l7.978,20.07a.667.667,0,0,0,.037.064c.017.034.037.065.057.1a1,1,0,0,0,.175.207c.016.014.023.033.04.047s.021.009.031.016a.951.951,0,0,0,.2.108c.03.013.058.032.089.042a.982.982,0,0,0,.3.049h.01a1,1,0,0,0,.369-.07c.011,0,.018-.014.029-.019a1.092,1.092,0,0,0,.116-.075.993.993,0,0,0,.228-.182c.012-.014.03-.018.041-.033l5.867-7.4,4.164.113,5.957,14.935a.97.97,0,0,0,.08.136,1.146,1.146,0,0,0,.07.118,1.028,1.028,0,0,0,.122.116,1.137,1.137,0,0,0,.1.087.953.953,0,0,0,.167.081.7.7,0,0,0,.393.092A1.008,1.008,0,0,0,40,93.948l25.221-9.173a.876.876,0,0,0,.161-.1.99.99,0,0,0,.169-.1.94.94,0,0,0,.115-.151,1,1,0,0,0,.114-.156,1.018,1.018,0,0,0,.049-.182.941.941,0,0,0,.047-.188,1.034,1.034,0,0,0-.026-.2.967.967,0,0,0-.024-.185L64.389,79.3l17.447.473h.028A1,1,0,0,0,82.8,78.43ZM22.245,83.135,15.511,66.193l7.91.763,3.585,10.173Zm41.369.1L40.223,91.738,34.944,78.5l27.313.742ZM28.847,76.336,25.311,66.3l30.8-29.11,8.921,22.79a1,1,0,1,0,1.863-.728L57.675,35.711l5.341-5.049,17.4,47.074Z"/><polygon points="17.83 44.326 26.014 44.326 26.014 3.035 25.136 3.035 8.059 9.152 8.059 15.808 17.83 12.777 17.83 44.326"/></svg>