<svg xmlns="http://www.w3.org/2000/svg" viewBox="0 0 96 96"><g opacity="0"><rect width="96" height="96.145" fill="#fff"/></g><polygon points="7.341 67.937 70.056 90.231 87.405 46.965 22.396 23.983 7.341 67.937" class="sgmaincolor"/><path d="M88.391,47.022A.942.942,0,0,0,88.4,46.9a1.141,1.141,0,0,0-.019-.117c0-.025,0-.05,0-.075s-.028-.05-.038-.077-.007-.056-.019-.082a.4.4,0,0,0-.024-.033c-.006-.013-.005-.027-.012-.039L65.593,5.545a.991.991,0,0,0-.153-.181l0-.012a1,1,0,0,0-1.315-.521L22,23.065h0l-.017,0a1.034,1.034,0,0,0-.084.064c-.029.017-.061.021-.089.041s-.037.045-.059.064a1.042,1.042,0,0,0-.139.151.953.953,0,0,0-.1.156.852.852,0,0,0-.062.164l-.04.117h0L6.4,67.613c-.01.03,0,.06-.012.09a.974.974,0,0,0-.026.195.916.916,0,0,0,.012.2.885.885,0,0,0,0,.089.693.693,0,0,0,.045.1,1.012,1.012,0,0,0,.06.134.957.957,0,0,0,.134.18A1.125,1.125,0,0,0,6.7,68.7a.989.989,0,0,0,.267.159c.014.006.023.018.037.023L69.721,91.173a1.01,1.01,0,0,0,.335.058,1,1,0,0,0,.928-.628l17.35-43.266c.006-.015,0-.032.008-.048a.885.885,0,0,0,.031-.115A.956.956,0,0,0,88.391,47.022Zm-41.14,9.427L25.08,25.974,84,46.822ZM22.729,26.141,45.174,56.993,8.892,66.5Zm62.523,19-60.1-21.263L64.12,7.012ZM69.486,88.967,10.735,68.083l36.151-9.47a.991.991,0,0,0,.4-.106L85.738,48.436Z"/></svg>