<svg xmlns="http://www.w3.org/2000/svg" viewBox="0 0 96 96"><polygon points="7.425 25 7.425 71 47.425 93 87.425 71 87.425 25 47.425 3 7.425 25" class="sgmaincolor"/><path d="M47.425,94a.994.994,0,0,1-.482-.124l-40-22A1,1,0,0,1,6.425,71V25a1,1,0,0,1,.518-.876l40-22a.993.993,0,0,1,.963,0l40,22a1,1,0,0,1,.519.876V71a1,1,0,0,1-.519.876l-40,22A.988.988,0,0,1,47.425,94Zm-39-23.591,39,21.449,39-21.449V25.591l-39-21.449-39,21.449Z"/><path d="M43.425,40a1,1,0,0,1-.968-1.252L45.131,28.5H39.425a1,1,0,0,1-.809-1.588l12-16.5a1,1,0,0,1,1.777.84L49.719,21.5h5.706a1,1,0,0,1,.808,1.588l-12,16.5A1,1,0,0,1,43.425,40ZM41.389,26.5h5.036a1,1,0,0,1,.968,1.252l-1.665,6.381L53.461,23.5H48.425a1,1,0,0,1-.968-1.252l1.665-6.381Z"/><path d="M24.487,49.485h7.68c2.417.021,5.007.881,6.093,2.246a6.939,6.939,0,0,1,1.075,5.595,10.668,10.668,0,0,1-.953,3.18,9.443,9.443,0,0,1-1.966,2.818,6.856,6.856,0,0,1-3.287,2.017,17.4,17.4,0,0,1-3.858.6H25.584l-1.1,5.485H20.1L24.487,49.49ZM26.52,62.31c.122.021.8.03.8.03a16.2,16.2,0,0,0,4.917-.583q1.965-.64,2.642-4.463.552-3.207-1.106-3.7a13.875,13.875,0,0,0-4.082-.458c-.245.02-1.325,0-1.325,0Z"/><path d="M44.234,44h4.388l-1.084,5.485,3.514.169a7.678,7.678,0,0,1,4.671,1.283q1.566,1.223.921,4.648L54.107,65.941H49.719l2.532-9.9a2.338,2.338,0,0,0-.185-2.171A2.572,2.572,0,0,0,49.94,53.2l-3.207-.075-2.5,12.815H39.846Z"/><path d="M61.786,49.485l7.646.168q3.626.03,5.255,2.078a6.928,6.928,0,0,1,1.071,5.595,10.667,10.667,0,0,1-.952,3.18,9.461,9.461,0,0,1-1.966,2.818,6.856,6.856,0,0,1-3.287,2.017,19.43,19.43,0,0,1-4.083.6H61.786l-1.1,5.485H56.3ZM62.947,62.31c.122.021.8.03.8.03a16.19,16.19,0,0,0,4.916-.583q1.966-.64,2.643-4.463.552-3.207-1.106-3.7a13.875,13.875,0,0,0-4.082-.458c-.246.02-1.352.031-1.352.031Z"/></svg>
