<svg xmlns="http://www.w3.org/2000/svg" viewBox="0 0 64 64"><title>icons-64x64</title><path d="M57.47,32.67A12.87,12.87,0,0,0,60,25a13,13,0,0,0-22.32-9c-5.08-.63-9.51,2.29-12,7.94a8.7,8.7,0,0,0-8.12.91,10.24,10.24,0,0,0-4.14,7.79A9.37,9.37,0,0,0,6,34.41,11.07,11.07,0,0,0,2,43c0,5.38,4,9,10,9H50.08C55.58,52,62,49.38,62,42,62,36.91,59.94,34.57,57.47,32.67ZM47,14A11,11,0,1,1,36,25,11,11,0,0,1,47,14Zm3.08,36H12c-4.86,0-8-2.75-8-7a9.06,9.06,0,0,1,3.23-7,7.87,7.87,0,0,1,6.92-1.21l1.33.33-.09-1.36a8.3,8.3,0,0,1,3.27-7.3c1.4-1,3.77-1.83,7.12-.35l1,.42.38-1c.73-1.88,3.43-7.52,9-7.66A13,13,0,0,0,54.91,35.31a12.26,12.26,0,0,0,1.27-1.12C58.45,35.92,60,37.71,60,42,60,49.42,52.41,50,50.08,50Z"/><path d="M52.71,23.29l-5-5a1,1,0,0,0-.33-.21,1,1,0,0,0-.76,0,1,1,0,0,0-.33.21l-5,5a1,1,0,0,0,0,1.42,1,1,0,0,0,1.42,0L46,21.41V32a1,1,0,0,0,2,0V21.41l3.29,3.3a1,1,0,0,0,1.42,0A1,1,0,0,0,52.71,23.29Z"/></svg>