<svg xmlns="http://www.w3.org/2000/svg" viewBox="0 0 32 29.35"><path d="M29.52,23.19a4.7,4.7,0,0,0-.5-.87,9.23,9.23,0,0,0,.85-2.3.15.15,0,0,0-.07-.12q-2-1.17-2.07-1.17l-.1,0a15.34,15.34,0,0,0-1.53,1.87l-.5,0-.5,0q-.23-.35-.87-1.12t-.77-.77A4,4,0,0,0,23,19l-1,.57-.58.33a.14.14,0,0,0-.07.12,9.23,9.23,0,0,0,.85,2.3,4.64,4.64,0,0,0-.5.87q-2.48.25-2.48.52V26q0,.27,2.48.52a5,5,0,0,0,.5.87,9.23,9.23,0,0,0-.85,2.3.14.14,0,0,0,.07.12q2,1.18,2.07,1.18t.77-.78c.42-.52.71-.9.87-1.13l.5,0,.5,0c.16.23.44.61.87,1.13s.68.78.77.78.71-.39,2.07-1.18a.15.15,0,0,0,.07-.12,9.23,9.23,0,0,0-.85-2.3,5,5,0,0,0,.5-.87Q32,26.31,32,26V23.71Q32,23.44,29.52,23.19Zm-2.41,3.19a2.11,2.11,0,1,1,.63-1.51A2,2,0,0,1,27.11,26.38Z" transform="translate(0 -1.67)"></path><path d="M29.52,6.13a4.7,4.7,0,0,0-.5-.87A9.23,9.23,0,0,0,29.87,3a.14.14,0,0,0-.07-.12q-2-1.17-2.07-1.17l-.1,0A15.38,15.38,0,0,0,26.1,3.57l-.5,0-.5,0q-.23-.35-.87-1.12c-.42-.52-.68-.78-.77-.78a4.22,4.22,0,0,0-.5.27l-1,.57-.58.33a.14.14,0,0,0-.07.12,9.23,9.23,0,0,0,.85,2.3,4.64,4.64,0,0,0-.5.87q-2.48.25-2.48.52V9q0,.27,2.48.52a4.89,4.89,0,0,0,.5.87,9.26,9.26,0,0,0-.85,2.3.14.14,0,0,0,.07.12q2,1.18,2.07,1.18t.77-.79q.63-.78.87-1.13l.5,0,.5,0q.23.35.87,1.13t.77.79s.71-.39,2.07-1.18a.15.15,0,0,0,.07-.12,9.26,9.26,0,0,0-.85-2.3,5,5,0,0,0,.5-.87Q32,9.24,32,9V6.64Q32,6.37,29.52,6.13ZM27.11,9.32a2.13,2.13,0,0,1-3.64-1.51,2.13,2.13,0,1,1,3.64,1.51Z" transform="translate(0 -1.67)"></path><path d="M21.22,14.5a.49.49,0,0,0-.28-.18l-2.53-.38a11.5,11.5,0,0,0-.57-1.37c.17-.24.42-.58.75-1l.7-.9a.61.61,0,0,0,.12-.32q0-.45-2.4-2.67a.55.55,0,0,0-.35-.13.49.49,0,0,0-.33.12l-2,1.48a7.3,7.3,0,0,0-1.25-.52l-.38-2.55a.43.43,0,0,0-.17-.29.51.51,0,0,0-.33-.12H9.12a.49.49,0,0,0-.5.4,19.08,19.08,0,0,0-.38,2.57A8.26,8.26,0,0,0,7,9.17L5,7.67a.61.61,0,0,0-.35-.12q-.32,0-1.32,1A14.11,14.11,0,0,0,2,10a.48.48,0,0,0-.12.33.63.63,0,0,0,.12.33q.93,1.12,1.5,1.92A8.27,8.27,0,0,0,3,13.88l-2.58.4a.38.38,0,0,0-.27.17.55.55,0,0,0-.12.33v3.08a.5.5,0,0,0,.12.33.42.42,0,0,0,.28.16l2.53.4a8.43,8.43,0,0,0,.58,1.37c-.18.25-.44.58-.78,1s-.57.73-.68.88a.56.56,0,0,0-.12.32q0,.45,2.4,2.67a.56.56,0,0,0,.35.13A.45.45,0,0,0,5,25l2-1.48A7.37,7.37,0,0,0,8.23,24l.38,2.55a.42.42,0,0,0,.17.29.51.51,0,0,0,.33.13h3.1a.49.49,0,0,0,.5-.4A19.86,19.86,0,0,0,13.1,24a7.7,7.7,0,0,0,1.28-.52L16.3,25a.6.6,0,0,0,.35.12q.32,0,1.31-1a17.36,17.36,0,0,0,1.38-1.49.42.42,0,0,0,.12-.32.63.63,0,0,0-.12-.33q-.93-1.12-1.5-1.92a8.27,8.27,0,0,0,.53-1.27l2.58-.4a.38.38,0,0,0,.27-.18.54.54,0,0,0,.12-.32V14.82A.49.49,0,0,0,21.22,14.5Zm-7.53,4.86a4.11,4.11,0,0,1-3,1.25A4.27,4.27,0,0,1,6.4,16.34a4.27,4.27,0,0,1,4.27-4.27,4.27,4.27,0,0,1,4.27,4.27A4.11,4.11,0,0,1,13.68,19.36Z" transform="translate(0 -1.67)"></path></svg>