<svg xmlns="http://www.w3.org/2000/svg" viewBox="0 0 96 96"><g opacity="0"><rect width="96" height="96" fill="#fff"/></g><polygon points="12.131 12.853 18.563 54.092 49.062 93.216 79.54 54.092 84.78 12.853 49.062 2 12.131 12.853" class="sgmaincolor"/><path d="M85.773,12.979a1,1,0,0,0-.013-.244.821.821,0,0,0-.005-.1.983.983,0,0,0-.149-.341L85.6,12.28c-.017-.024-.043-.036-.062-.058a.966.966,0,0,0-.2-.187.925.925,0,0,0-.133-.068.987.987,0,0,0-.137-.071L49.353,1.043A1.009,1.009,0,0,0,49.065,1h0l-.016,0a1,1,0,0,0-.266.038L11.849,11.9a.922.922,0,0,0-.144.072,1,1,0,0,0-.15.076.963.963,0,0,0-.206.207c-.016.02-.038.031-.052.052l0,.008a.982.982,0,0,0-.141.348.956.956,0,0,0,0,.131.942.942,0,0,0-.006.219l6.432,41.238v0l0,.013a1.01,1.01,0,0,0,.122.321c.007.013.007.027.015.04s.021.023.03.036.017.033.028.047l30.5,39.124c.012.015.031.021.043.035a1.016,1.016,0,0,0,.228.185.766.766,0,0,0,.518.165,1,1,0,0,0,.416-.1,1.061,1.061,0,0,0,.1-.067.966.966,0,0,0,.233-.189c.012-.014.03-.019.042-.034L80.329,54.706c.01-.013.015-.029.025-.042s.023-.025.033-.04.01-.032.018-.048a.961.961,0,0,0,.107-.283c0-.019.012-.036.015-.055l.006-.02ZM78.746,52.411,68.237,45.8A20.143,20.143,0,0,0,66.8,26.664l16.7-11.7Zm-28.684-35.4V3.349l32.462,9.864L65.645,25.032A20.99,20.99,0,0,0,50.062,17.012Zm-2,0A20.994,20.994,0,0,0,32.43,25.1L14.476,13.206l33.586-9.87Zm1,1.95A18.79,18.79,0,0,1,68,37.556a18.942,18.942,0,0,1-37.878,0A18.79,18.79,0,0,1,49.062,18.962Zm-1,39.137V90.306L20.032,54.35l10.761-6.761A20.983,20.983,0,0,0,48.062,58.1Zm2,0A20.978,20.978,0,0,0,67.329,47.59l10.743,6.76L50.062,90.305ZM13.468,14.938l17.813,11.8a20.129,20.129,0,0,0-1.4,19.064l-10.568,6.64Z"/><path d="M45.8,44.025c.006.006.014.008.019.014s.009.014.015.021a1,1,0,0,0,.2.128.885.885,0,0,0,.108.068,1,1,0,0,0,.372.074,1.008,1.008,0,0,0,.378-.076,1.129,1.129,0,0,0,.121-.078,1,1,0,0,0,.2-.127c.006-.006.008-.014.014-.02s.014-.008.02-.014l10.845-11.55A1,1,0,1,0,56.63,31.1L46.5,41.88l-5.021-5.19a1,1,0,0,0-1.438,1.391Z"/></svg>