<svg xmlns="http://www.w3.org/2000/svg" viewBox="0 0 96 96"><g opacity="0"><rect width="96" height="96" fill="#fff"/></g><circle cx="40.951" cy="39.501" r="30.668" class="sgmaincolor"/><path d="M40.772,61.046a21.395,21.395,0,1,1,17.3-8.75A21.289,21.289,0,0,1,40.772,61.046Zm.053-40.794a19.388,19.388,0,1,0,11.439,3.742A19.39,19.39,0,0,0,40.825,20.252Z"/><path d="M83.962,84.577,64.342,60.825a31.688,31.688,0,1,0-9.219,6.983c3.16,3.646,20.181,23.625,20.364,23.84a1,1,0,0,0,1.4.12l6.944-5.786A1,1,0,0,0,83.962,84.577ZM11.284,39.5A29.668,29.668,0,1,1,40.952,69.169,29.7,29.7,0,0,1,11.284,39.5ZM76.369,89.6c-3.1-3.636-16.051-18.834-19.448-22.769a31.831,31.831,0,0,0,6.015-4.568L81.787,85.083Z"/></svg>