<svg xmlns="http://www.w3.org/2000/svg" viewBox="0 0 96 96"><g opacity="0"><rect width="96" height="96" fill="#fff"/></g><path d="M48.25,6.951,4.121,50.489l44.129,43.6L92.139,50.37ZM65.242,67.684a26.271,26.271,0,0,1-4.08,2.585c-2.987,1.635-6.265,1.881-9.6,1.824-2.187-.037-4.375-.007-6.563-.007v-.011q-5.037,0-10.074,0c-1.11,0-1.227-.122-1.229-1.211q0-2.76-.007-5.519c0-1.007.148-1.166,1.2-1.167,4.935,0,9.87.014,14.805-.01a49.311,49.311,0,0,0,5.246-.2,9.71,9.71,0,0,0,6.941-4.306,9.561,9.561,0,0,0,1.138-9.285,9.542,9.542,0,0,0-6.394-6.115,15.5,15.5,0,0,0-3.966-.6c-3.636-.082-7.275-.023-10.912-.044-.666,0-.9.245-.876.895.038,1.209.029,2.419.011,3.629-.012.768-.268.871-.939.486-3.068-1.76-6.147-3.5-9.216-5.256q-2.8-1.6-5.577-3.24c-.469-.275-.4-.61.174-.933,1.851-1.046,3.7-2.088,5.55-3.141q4.445-2.535,8.883-5.082c1-.571,1.111-.508,1.118.672.005,1.058.01,2.116,0,3.174-.013,1.007,0,1.037,1.069,1.038,3.968,0,7.94-.108,11.9.024A17.854,17.854,0,0,1,68.522,43.93,17.015,17.015,0,0,1,71.6,54.022,18.419,18.419,0,0,1,70.157,61,17.045,17.045,0,0,1,65.242,67.684Z" class="sgmaincolor"/><path d="M48.25,95.086a1,1,0,0,1-.7-.289L3.418,51.2a1,1,0,0,1,0-1.423L47.548,6.239a1,1,0,0,1,1.405,0l43.89,43.419a1,1,0,0,1,0,1.42L48.956,94.8A1,1,0,0,1,48.25,95.086Zm-42.7-44.6,42.7,42.189L90.72,50.372,48.249,8.356Z"/><path d="M52.385,73.1q-.426,0-.838-.008c-1.5-.026-3.007-.02-4.508-.013L45,73.086a.958.958,0,0,1-.153-.012H34.926c-1.663,0-2.226-.558-2.229-2.209l-.008-5.518a2.2,2.2,0,0,1,.494-1.666,2.262,2.262,0,0,1,1.706-.5h5.084c3.241,0,6.477,0,9.717-.011l.319,0a46.079,46.079,0,0,0,4.822-.19,8.723,8.723,0,0,0,6.238-3.895,8.6,8.6,0,0,0,1.015-8.352,8.58,8.58,0,0,0-5.738-5.506,14.489,14.489,0,0,0-3.708-.559c-2.315-.053-4.674-.049-6.959-.042-1.266,0-2.536.006-3.8,0,.032,1.117.025,2.227.007,3.537a1.7,1.7,0,0,1-.713,1.523,1.74,1.74,0,0,1-1.724-.183q-2.484-1.426-4.974-2.839-2.121-1.206-4.242-2.417-2.8-1.6-5.586-3.246a1.435,1.435,0,0,1-.8-1.265,1.631,1.631,0,0,1,.99-1.4l1.46-.824q2.044-1.155,4.087-2.315,3.774-2.151,7.543-4.314l1.338-.767a1.9,1.9,0,0,1,1.923-.321c.683.393.688,1.2.692,1.855.006,1.065.011,2.129,0,3.193v.024c.053,0,.115,0,.175,0,1.215,0,2.43-.009,3.645-.02,2.68-.022,5.453-.046,8.187.046a18.776,18.776,0,0,1,15.462,8.474A17.906,17.906,0,0,1,72.6,54.035a19.483,19.483,0,0,1-1.52,7.35,18.106,18.106,0,0,1-5.2,7.073,27.469,27.469,0,0,1-4.234,2.688A18.94,18.94,0,0,1,52.385,73.1Zm-3.317-2.027q1.257,0,2.512.019c3.023.054,6.212-.119,9.1-1.7a25.9,25.9,0,0,0,3.926-2.481,16.121,16.121,0,0,0,4.627-6.3,17.474,17.474,0,0,0,1.364-6.6A15.936,15.936,0,0,0,67.7,44.5a16.874,16.874,0,0,0-13.888-7.62c-2.691-.089-5.442-.067-8.1-.044-1.257.011-2.523.033-3.77.02a2.113,2.113,0,0,1-1.653-.441,2.032,2.032,0,0,1-.414-1.609c.012-.916.01-1.832.005-2.748l-.961.549q-3.773,2.162-7.547,4.317-2.043,1.166-4.094,2.319l-.844.477q2.4,1.405,4.793,2.781,2.115,1.212,4.235,2.415,2.217,1.261,4.432,2.526c.011-1.047.009-1.971-.019-2.9a1.7,1.7,0,0,1,1.881-1.927c1.307.009,2.613,0,3.921,0,2.3-.007,4.668-.011,7.008.042a16.565,16.565,0,0,1,4.223.639,10.51,10.51,0,0,1,7.051,6.726A10.524,10.524,0,0,1,62.7,60.243a10.652,10.652,0,0,1-7.643,4.719,47.472,47.472,0,0,1-5.035.2l-.318,0c-3.243.016-6.489.013-9.728.011H34.891c-.08,0-.145,0-.2,0,0,.046,0,.1,0,.163l.008,5.519c0,.082,0,.152,0,.209.062,0,.137,0,.228,0H45a.929.929,0,0,1,.15.012l1.88-.006Q48.05,71.076,49.068,71.074Z"/></svg>