<svg xmlns="http://www.w3.org/2000/svg" viewBox="0 0 96 96"><g opacity="0"><rect width="96" height="96" fill="#fff"/></g><polygon points="17.656 36.765 17.883 90.248 75.871 90.018 76 36.765 17.656 36.765" class="sgmaincolor"/><path d="M43.332,70.869c-.032,0-.064,0-.1,0a1,1,0,0,1-.7-.391l-4.488-5.932a1,1,0,1,1,1.595-1.207L43.473,68.4,56,57.167a1,1,0,1,1,1.336,1.488L44,70.613A1,1,0,0,1,43.332,70.869Z"/><path d="M46.216,81.133a17.231,17.231,0,0,1-.071-34.462h.074a17.231,17.231,0,0,1,.072,34.462Zm0-32.462h-.066a15.231,15.231,0,0,0,.063,30.462h.066a15.231,15.231,0,0,0-.063-30.462Z"/><path d="M76.708,36.06A1,1,0,0,0,76,35.766H67.317c.006-2.8.011-10.285.013-12.041,0-12.057-9.2-21.867-20.515-21.867S26.3,11.668,26.3,23.725V35.766H17.883a1,1,0,0,0-1,1V90.248a1,1,0,0,0,1,1h0l57.988-.229a1,1,0,0,0,1-1L77,36.768A.993.993,0,0,0,76.708,36.06ZM28.3,23.725c0-10.954,8.3-19.867,18.515-19.867S65.33,12.771,65.33,23.724c0,3.531-.008,9.643-.013,12.042H62.084c.01-2.676.022-9.6.027-12.041,0-8.981-6.862-16.287-15.3-16.287s-15.3,7.306-15.3,16.287V35.766H28.3Zm5.218,12.041V23.725c0-7.877,5.965-14.287,13.3-14.287s13.3,6.41,13.3,14.285c0,2.869-.018,9.52-.027,12.043ZM74.873,89.022l-55.99.222V37.766h9.486l.7,0c1.338.006,2.962.009,3.473,0H60.93a1.078,1.078,0,0,0,.148.03h5.235a.941.941,0,0,0,.153-.03H75Z"/></svg>