<svg xmlns="http://www.w3.org/2000/svg" viewBox="0 0 23.166 32"><path d="M16,32c-5.474,0-11.283-1.6-11.572-4.585a.761.761,0,0,1-.011-.126V3.781C4.417,1.183,10.422,0,16,0S27.583,1.183,27.583,3.781V27.289a.761.761,0,0,1-.011.126C27.283,30.4,21.474,32,16,32ZM5.816,27.182C5.816,28.8,10.171,30.6,16,30.6s10.184-1.8,10.184-3.419V23.195c-10.472,3.637-17.75,1.292-20.368.135Zm0-5.4c1.651.813,9.205,3.96,20.368-.066V17.694c-10.76,2.875-17.851,1.032-20.368.122Zm0-5.464c1.713.677,8.994,3.057,20.368-.069V12.419c-.471.133-.943.258-1.411.372a.7.7,0,1,1-.331-1.36c.577-.141,1.161-.3,1.741-.469V5.714C24.082,6.973,19.935,7.561,16,7.561S7.918,6.973,5.816,5.714V10.99a34.014,34.014,0,0,0,15.05,1.129.7.7,0,0,1,.2,1.385A35.378,35.378,0,0,1,5.816,12.467ZM16,1.4C9.411,1.4,5.816,2.973,5.816,3.781S9.411,6.162,16,6.162,26.184,4.589,26.184,3.781,22.59,1.4,16,1.4Zm7.107,25.937a.7.7,0,0,1-.216-1.365l.953-.309a.7.7,0,1,1,.432,1.331l-.953.309A.7.7,0,0,1,23.107,27.336ZM22.882,20.9a.7.7,0,0,1-.174-1.377l.971-.249a.7.7,0,0,1,.348,1.355l-.971.249A.7.7,0,0,1,22.882,20.9Zm.232-5.187a.7.7,0,0,1-.2-1.369l.959-.291a.7.7,0,0,1,.406,1.339l-.959.291A.7.7,0,0,1,23.114,15.71Zm-.765-2.42a.7.7,0,0,1-.124-1.388q.394-.072.795-.152a.7.7,0,0,1,.273,1.372c-.274.055-.547.107-.818.156A.657.657,0,0,1,22.348,13.289Zm.564-3.236a.7.7,0,0,1-.134-1.386l.983-.193a.7.7,0,0,1,.269,1.373l-.983.193A.708.708,0,0,1,22.912,10.053Z" transform="translate(-4.417)"/></svg>