<svg xmlns="http://www.w3.org/2000/svg" viewBox="0 0 96 96"><g opacity="0"><rect width="96" height="96" fill="#fff"/></g><path d="M75.056,14.959C75,14.923,21.77,20.648,21.739,20.668S2.932,41.325,2.932,41.325l9.81-.893.1,27.9L43.906,77.7c.091.027,39.406-9.327,40.064-9.483l.058-25.413,10.759-1.48C95.272,41.259,75.114,15,75.056,14.959Z" class="sgmaincolor"/><path d="M95.779,40.962,76.047,14.6a.9.9,0,0,0-.108-.1.994.994,0,0,0-.99-.535l-53.316,5.71a.961.961,0,0,0-.141.044c-.027.007-.055.011-.082.02l-.035.017a.918.918,0,0,0-.178.087.27.27,0,0,0-.064.031c-.025.019-.037.047-.06.068s-.052.03-.073.054L2.193,40.651c0,.006-.007.013-.012.019a1.061,1.061,0,0,0-.12.2,1.146,1.146,0,0,0-.075.137,1.156,1.156,0,0,0-.023.158,1.048,1.048,0,0,0-.025.228c0,.008,0,.015,0,.023a.928.928,0,0,0,.052.18.884.884,0,0,0,.046.162.974.974,0,0,0,.871.562c.009,0,.017.005.026.005h0c.03,0,.06,0,.091,0l8.722-.794.094,26.812a1,1,0,0,0,.711.954l31.066,9.366a1.021,1.021,0,0,0,.289.042,1,1,0,0,0,.231-.027L84.2,69.191a1,1,0,0,0,.77-.971l.057-24.56s7.2-.98,9.416-1.279a4.975,4.975,0,0,0,1.074-.219A.846.846,0,0,0,95.779,40.962ZM12.236,39.473,5.4,40.1,21.672,22.227l2.287,3Zm7.785,2.791c-.016,0-.03-.01-.047-.01a21.72,21.72,0,0,1-.345.071.942.942,0,0,0-.159.087.96.96,0,0,0-.167.113,1.071,1.071,0,0,0-.109.133.951.951,0,0,0-.114.172.965.965,0,0,0-.054.178.984.984,0,0,0-.045.152c0,.018.006.033,0,.051s-.009.03-.009.046l.08,25.909-5.221-1.574-.093-26.8L25.206,26.855,38.288,43.987,20.071,42.259C20.053,42.257,20.038,42.265,20.021,42.264ZM29.886,72.43l-8.827-2.661L20.98,44.354,29.9,45.2Zm13.019,3.925L31.886,73.033,31.9,45.39l8.047.763,2.161,2.83c.016.02.04.028.057.047a1,1,0,0,0,.239.2,1.018,1.018,0,0,0,.1.06.991.991,0,0,0,.4.091h.008Zm40.067-8.929L44.905,76.437V49.112l38.121-5.18ZM43.34,47.307,23.613,21.473l51-5.461L92.98,40.561Z"/></svg>