<svg xmlns="http://www.w3.org/2000/svg" viewBox="0 0 96 96"><g opacity="0"><rect width="96" height="96.145" fill="#fff"/></g><path d="M84.811,62.209l5.009-2.624-3.1-9.065-5.486.716c-.954-1.431-2.385-2.862-3.578-4.294l1.431-5.486L70.5,37.162,67.159,41.7a42.5,42.5,0,0,0-5.486-.478l-2.624-4.77-9.064,3.1.715,5.486a30.99,30.99,0,0,0-4.293,3.578L40.92,47.181l-4.293,8.587,4.532,3.34a22.289,22.289,0,0,0-.477,5.486l-4.771,2.624,3.1,9.064,5.486-.715a31.061,31.061,0,0,0,3.578,4.293l-1.431,5.487,8.587,4.293,3.34-4.532a21.359,21.359,0,0,0,5.486.477l2.624,4.771,9.065-3.1-.716-5.486c1.431-.954,2.862-2.386,4.294-3.578l5.486,1.431,4.294-8.587-4.532-3.34A21.18,21.18,0,0,0,84.811,62.209Zm-21.988,9.52a8.443,8.443,0,0,1-8.3-8.3c-.2-4.482,3.958-8.3,8.3-8.3a8.445,8.445,0,0,1,8.3,8.3C71.322,67.912,67.164,71.729,62.823,71.729Z" class="sgmaincolor"/><path d="M90.809,59.261l-3.1-9.064a1,1,0,0,0-1.075-.667l-4.886.637c-.615-.836-1.346-1.659-2.057-2.459-.3-.338-.6-.677-.893-1.015l1.3-4.985a1,1,0,0,0-.52-1.146l-8.587-4.294a1,1,0,0,0-1.252.3l-2.992,4.059h0a42.824,42.824,0,0,0-4.431-.4l-2.344-4.261a1,1,0,0,0-1.2-.464L49.7,38.6a1,1,0,0,0-.667,1.075l.631,4.847a19.419,19.419,0,0,0-2.526,2.115c-.312.295-.625.589-.947.874l-4.979-1.3a1,1,0,0,0-1.147.521l-4.294,8.587a1,1,0,0,0,.3,1.252l4.006,2.953A22.976,22.976,0,0,0,39.725,64l-4.254,2.34a1,1,0,0,0-.464,1.2l3.1,9.064a1,1,0,0,0,1.075.668l4.847-.632a19.521,19.521,0,0,0,2.113,2.524c.3.313.59.626.876.95l-1.3,4.978a1,1,0,0,0,.521,1.148l8.588,4.294a1,1,0,0,0,1.252-.3l2.952-4.006a22.1,22.1,0,0,0,4.477.356l2.339,4.253a1,1,0,0,0,1.2.465l9.065-3.1a1,1,0,0,0,.668-1.076l-.637-4.886c.835-.615,1.657-1.345,2.457-2.056.339-.3.678-.6,1.017-.894l4.983,1.3a1,1,0,0,0,1.148-.52l4.293-8.588a1,1,0,0,0-.3-1.252l-4.06-2.992a22,22,0,0,0,.235-4.456l4.412-2.311A1,1,0,0,0,90.809,59.261Zm-6.42,2.062a1,1,0,0,0-.528,1.01,19.01,19.01,0,0,1-.2,4.91l-.041.328a1,1,0,0,0,.4.929l3.854,2.84-3.555,7.111-4.7-1.228a1.007,1.007,0,0,0-.894.2c-.484.405-.97.836-1.455,1.267a27.186,27.186,0,0,1-2.752,2.248,1,1,0,0,0-.437.961l.609,4.676-7.5,2.564L64.977,85.1a1,1,0,0,0-.876-.519,20.61,20.61,0,0,1-5.244-.446,1,1,0,0,0-1.047.377l-2.841,3.855-7.11-3.556,1.227-4.7a1,1,0,0,0-.2-.893c-.411-.494-.849-.96-1.288-1.426a14.738,14.738,0,0,1-2.19-2.724,1.007,1.007,0,0,0-1-.5l-4.676.609-2.565-7.5,4.036-2.22a1,1,0,0,0,.517-.876,21.534,21.534,0,0,1,.446-5.244,1,1,0,0,0-.377-1.047l-3.854-2.841L41.5,48.353l4.7,1.228a1,1,0,0,0,.893-.2c.493-.411.957-.847,1.422-1.285A14.731,14.731,0,0,1,51.239,45.9a1,1,0,0,0,.5-1l-.61-4.676,7.5-2.565L60.839,41.7a1,1,0,0,0,.876.517,36.688,36.688,0,0,1,4.775.4l.588.074a.994.994,0,0,0,.928-.4l2.841-3.855,7.11,3.556-1.227,4.7a1,1,0,0,0,.2.892c.4.485.834.969,1.265,1.454a27.216,27.216,0,0,1,2.249,2.754,1.007,1.007,0,0,0,.961.436l4.676-.608L88.639,59.1Z"/><path d="M62.866,54.132a9.51,9.51,0,0,0-6.8,3.006,8.594,8.594,0,0,0-2.5,6.338,9.266,9.266,0,0,0,16.1,6.247,8.6,8.6,0,0,0,2.5-6.337A9.478,9.478,0,0,0,62.866,54.132Zm5.355,14.209a7.606,7.606,0,0,1-5.355,2.388,7.482,7.482,0,0,1-7.3-7.343A6.624,6.624,0,0,1,57.51,58.52a7.608,7.608,0,0,1,5.356-2.388,7.484,7.484,0,0,1,7.3,7.344A6.618,6.618,0,0,1,68.221,68.341Z"/><path d="M26.859,25.261a11.215,11.215,0,0,0,4.531-3.654A8.68,8.68,0,0,0,33.118,16.4a10.678,10.678,0,0,0-3.71-8.623Q25.7,4.644,19.156,4.644a16.269,16.269,0,0,0-6.9,1.443A11.594,11.594,0,0,0,7.389,10.1a10.059,10.059,0,0,0-1.742,5.791h8.185a4.12,4.12,0,0,1,1.585-3.355,6.038,6.038,0,0,1,3.937-1.289,5.76,5.76,0,0,1,4.092,1.388,5.042,5.042,0,0,1,1.487,3.879,5.7,5.7,0,0,1-1.5,4.135A6.143,6.143,0,0,1,18.816,22.2H14.455v6.4h4.333q6.8,0,6.8,6.174a5.33,5.33,0,0,1-1.656,4.092,6.451,6.451,0,0,1-4.574,1.543,6.42,6.42,0,0,1-4.291-1.473,4.742,4.742,0,0,1-1.741-3.8H5.137a10.637,10.637,0,0,0,3.922,8.609,15.276,15.276,0,0,0,10.1,3.258q6.6,0,10.606-3.314a10.855,10.855,0,0,0,4.007-8.807A10.132,10.132,0,0,0,32.055,29,10.227,10.227,0,0,0,26.859,25.261Z"/></svg>