<svg xmlns="http://www.w3.org/2000/svg" viewBox="0 0 96 96"><g opacity="0"><rect width="96" height="96" fill="#fff"/></g><rect x="2" y="27.933" width="91" height="40" class="sgmaincolor"/><path d="M28.528,50.325H26.4v5.784H22.452V39.757h6.435a7.185,7.185,0,0,1,4.549,1.29,4.372,4.372,0,0,1,1.639,3.646,5.313,5.313,0,0,1-.69,2.827,4.912,4.912,0,0,1-2.162,1.818l3.414,6.6v.169H31.414ZM26.4,47.293h2.492a2.237,2.237,0,0,0,1.69-.591,2.288,2.288,0,0,0,.568-1.65,2.314,2.314,0,0,0-.573-1.66,2.216,2.216,0,0,0-1.685-.6H26.4Z"/><path d="M46.744,53.054h-5.4L40.4,56.109H36.188l6-16.352h3.707l6.041,16.352H47.7ZM42.285,50.01H45.8l-1.764-5.671Z"/><path d="M58.3,39.757l3.65,11.376,3.639-11.376h5.189V56.109H66.823V52.29l.382-7.816L63.252,56.109H60.647L56.682,44.463l.383,7.827v3.819H53.122V39.757Z"/><path d="M93,26.869H83.234V22a1,1,0,0,0-2,0v4.872H74.426V22a1,1,0,0,0-2,0v4.872H65.617V22a1,1,0,0,0-2,0v4.872H56.809V22a1,1,0,0,0-2,0v4.872H48V22a1,1,0,0,0-2,0v4.872H39.192V22a1,1,0,0,0-2,0v4.872H30.383V22a1,1,0,0,0-2,0v4.872H21.574V22a1,1,0,0,0-2,0v4.872H12.766V22a1,1,0,0,0-2,0v4.872H1.979a1,1,0,0,0-1,1V68a1,1,0,0,0,1,1h8.787v4.872a1,1,0,0,0,2,0V69h6.808v4.872a1,1,0,0,0,2,0V69h6.809v4.872a1,1,0,0,0,2,0V69h6.809v4.872a1,1,0,0,0,2,0V69H46v4.872a1,1,0,0,0,2,0V69h6.809v4.872a1,1,0,0,0,2,0V69h6.808v4.872a1,1,0,1,0,2,0V69h6.809v4.872a1,1,0,0,0,2,0V69h6.808v4.872a1,1,0,0,0,2,0V69H93a1,1,0,0,0,1-1V27.869A1,1,0,0,0,93,26.869ZM92,67H2.979V28.869H92Z"/></svg>