<svg xmlns="http://www.w3.org/2000/svg" viewBox="0 0 96 96"><g opacity="0"><rect width="96" height="96.145" fill="#fff"/></g><polygon points="70.399 73.859 70.399 60.436 63.334 53.694 48.942 53.694 34.549 53.694 26.975 60.511 26.975 73.698 37.442 81.549 37.442 64.539 37.442 88.745 59.803 88.694 59.803 81.63 70.399 73.859" class="sgmaincolor"/><circle cx="48.942" cy="40.11" r="12.877" class="sgmaincolor"/><path d="M90.242,41.451H80.994V31.715a1,1,0,0,0-2,0v9.736H69.746a1,1,0,0,0,0,2h9.248v9.737a1,1,0,1,0,2,0V43.451h9.248a1,1,0,0,0,0-2Z"/><path d="M64.024,52.97c-.011-.011-.027-.015-.038-.025a1.051,1.051,0,0,0-.155-.1.967.967,0,0,0-.172-.089.934.934,0,0,0-.181-.035,1.017,1.017,0,0,0-.144-.028H54.756a13.878,13.878,0,1,0-11.629,0H34.55a.979.979,0,0,0-.222.042c-.023.006-.047.005-.07.013a.992.992,0,0,0-.377.2l-7.575,6.818a1,1,0,0,0-.331.743V73.7a1,1,0,0,0,.4.8l10.066,7.551v6.7a1,1,0,0,0,1,1h0l22.362-.051a1,1,0,0,0,1-1V82.137l10.188-7.472a1,1,0,0,0,.408-.807V60.437a1,1,0,0,0-.309-.724ZM37.064,40.11A11.878,11.878,0,1,1,48.941,51.987,11.892,11.892,0,0,1,37.064,40.11ZM49.336,60.161,38.705,54.693H59.4ZM69.4,73.352l-8.6,6.31V64.6a1,1,0,0,0-2,0v17.77c0,.014.007.025.008.039V87.7l-20.362.047v-23.2a1,1,0,0,0-2,0v15.01L27.975,73.2V60.956l6.74-6.066,14.177,7.292a.97.97,0,0,0,.133.049c.026.009.049.021.075.028a1,1,0,0,0,.248.033h0a1.017,1.017,0,0,0,.255-.035c.027-.007.051-.021.077-.03a.974.974,0,0,0,.144-.056L63.171,54.92,69.4,60.864Z"/><polygon points="4.758 12.372 4.758 19.027 14.528 15.997 14.528 47.546 22.713 47.546 22.713 6.255 21.835 6.255 4.758 12.372"/></svg>