<svg xmlns="http://www.w3.org/2000/svg" viewBox="0 0 96 96"><g opacity="0"><rect width="96" height="96.145" fill="#fff"/></g><polygon points="61.689 39.397 72.561 46.846 74.871 59.202 86.953 64.807 89.568 75.978 80.113 89.122 13.673 89.295 12.02 87.713 4.481 80.021 4.481 78.939 6.639 73.421 8.621 68.07 15.982 65.454 21.746 53.816 22.333 52.515 38.585 50.319 47.591 40.158 61.689 39.397" class="sgmaincolor"/><path d="M88.1,65.338l.032-.115a1.744,1.744,0,0,0-.762-1.323L75.842,58.551a.885.885,0,0,0-.089-.073L73.545,46.662a1,1,0,0,0-.418-.642L62.254,38.572a.977.977,0,0,0-.62-.174l-14.1.762a.994.994,0,0,0-.695.336l-8.76,9.881L22.2,51.524l-.018.005h-.02c-.01,0-.017.009-.027.012a.9.9,0,0,0-.186.051l-.02.011a1.036,1.036,0,0,0-.194.111l-.006.006a.85.85,0,0,0-.075.072c-.012.011-.027.014-.038.026s-.01.019-.018.027a1,1,0,0,0-.144.208c0,.008-.014.013-.019.022-.044.092-3.455,7.067-5.265,10.747l-.9,1.824L8.286,67.128a1,1,0,0,0-.6.595L5.708,73.057,3.549,78.575a1.026,1.026,0,0,0-.068.364v1.082a1,1,0,0,0,.286.7l7.562,7.715,1.652,1.582a1,1,0,0,0,.692.277h0l66.441-.173a1.768,1.768,0,0,0,1.222-.964l.012-.044,9.03-12.552a1,1,0,0,0,.162-.812ZM26.949,88.261l-9.37-21.636,19.755,2.042L46.328,88.21Zm38.969-21.5-25.3-16.1L60.74,40.95Zm8.692-5.094,3.869,22.174L68.716,68.973Zm-35.6,5.865.167-5.881c.109-3.683.224-7.315.3-9.343l26.446,16.83L48.11,87.3ZM37.329,56.252c-.069,2.188-.151,5.144-.262,9.173-3.073-2.985-9.627-9.346-12.561-12.194l12.959-1.752ZM22.657,54.227v0l12.58,12.214L17.52,64.607l.45-.915ZM15.436,66.709l7.173,16.564L10.28,68.542Zm51.915,3.829L78.9,88.125,50.027,88.2Zm9.187-9.459,9.451,4.383L80.609,84.4Zm-2.653-1.7-5.932,7.358L62.874,41.421l8.78,6.015ZM48.062,41.134l8.663-.468-14.41,6.952ZM12.734,87.013l-7.253-7.4v-.486l2.1-5.358,1.371-3.7,15.234,18.2-10.109.026Zm70.224-3.559L86.978,69.3l1.513,6.462Z"/><path d="M11.97,35.146l-1.576,9.191a1,1,0,0,0,.986,1.169.99.99,0,0,0,.464-.115L20.1,41.052l8.253,4.339A1,1,0,0,0,29.8,44.337l-1.576-9.192,6.678-6.509a1,1,0,0,0-.555-1.7L25.123,25.59,21,17.228a1,1,0,0,0-1.793,0L15.075,25.59,5.847,26.931a1,1,0,0,0-.554,1.7Zm3.912-7.652a1,1,0,0,0,.753-.547L20.1,19.93l3.463,7.017a1,1,0,0,0,.753.547l7.742,1.125-5.6,5.462a1,1,0,0,0-.287.884l1.322,7.713-6.925-3.64a.99.99,0,0,0-.931,0l-6.926,3.64,1.322-7.713a1,1,0,0,0-.287-.884l-5.6-5.462Z"/><path d="M50.554,27.085A10.69,10.69,0,1,0,39.864,16.4,10.7,10.7,0,0,0,50.554,27.085Zm0-19.38a8.69,8.69,0,1,1-8.69,8.69A8.7,8.7,0,0,1,50.554,7.705Z"/><path d="M91.989,26.192,74.814,17.063a1,1,0,0,0-1.469.918l.682,19.438a1,1,0,0,0,1.529.813l16.493-10.31a1,1,0,0,0-.06-1.73ZM75.965,35.619l-.56-15.977,14.115,7.5Z"/></svg>