<svg xmlns="http://www.w3.org/2000/svg" viewBox="0 0 96 96"><g opacity="0"><rect width="96" height="96" fill="#fff"/></g><polygon points="18 5 64 5 82 23 82 89 18 89 18 5" class="sgmaincolor"/><path d="M82.922,22.615a.99.99,0,0,0-.216-.323l-18-18a.975.975,0,0,0-.323-.216A.988.988,0,0,0,64,4H18a1,1,0,0,0-1,1V89a1,1,0,0,0,1,1H82a1,1,0,0,0,1-1V23A.988.988,0,0,0,82.922,22.615ZM65,7.414,79.586,22H65ZM19,88V6H63V23a1,1,0,0,0,1,1H81V88Z"/><path d="M48.333,58.869A1.667,1.667,0,1,0,50,57.2,1.667,1.667,0,0,0,48.333,58.869Z"/><path d="M50.839,31.539a1.039,1.039,0,0,0-1.678,0l-20,30.834A1,1,0,0,0,30,63.917H70a1,1,0,0,0,.839-1.544Zm-19,30.378L50,33.921l18.159,28Z"/><path d="M49,42.917V54.583a1,1,0,0,0,2,0V42.917a1,1,0,0,0-2,0Z"/></svg>