<svg id="f37ee764-a6e5-4146-b8dc-b5bf218b738d" data-name="Icons" xmlns="http://www.w3.org/2000/svg" viewBox="0 0 96 95.927"><rect x="-0.036" y="0.073" width="96" height="96" fill="#fff" opacity="0"/><path d="M33.961,32.288c0-4.775,12.579-8.645,28.1-8.645s28.1,3.87,28.1,8.645V84.159c0,4.775-12.58,8.645-28.1,8.645s-28.1-3.87-28.1-8.645Z" class="sgmaincolor"/><path d="M62.058,22.642c-1.414,0-2.835.036-4.25.1v-9.9c0-5.642-13.389-8.687-25.986-8.687S5.838,7.206,5.838,12.848V58.974c0,5.643,13.388,8.688,25.984,8.688.379,0,.759-.01,1.139-.016V84.159c0,6.265,14.991,9.645,29.1,9.645s29.1-3.38,29.1-9.645V32.288C91.155,26.023,76.163,22.642,62.058,22.642Zm27.1,44.227c0,3.616-11.129,7.644-27.1,7.644s-27.1-4.028-27.1-7.644V53.281c4.54,3.883,16.088,5.942,27.1,5.942s22.557-2.059,27.1-5.942ZM7.838,31.731c4.189,3.385,14.316,5.181,23.984,5.181.379,0,.759-.01,1.139-.016V50.271c-.379.006-.753.016-1.139.016-14.135,0-23.984-3.525-23.984-6.688ZM89.155,49.578c0,3.616-11.129,7.645-27.1,7.645s-27.1-4.029-27.1-7.645V35.991c4.54,3.883,16.088,5.942,27.1,5.942s22.557-2.059,27.1-5.942Zm0-17.29c0,3.616-11.129,7.645-27.1,7.645s-27.1-4.029-27.1-7.645,11.128-7.646,27.1-7.646S89.155,28.672,89.155,32.288Zm-56.194,0V34.9c-.379.006-.753.016-1.139.016-14.135,0-23.984-3.525-23.984-6.688V16.356c4.189,3.385,14.316,5.181,23.984,5.181s19.8-1.8,23.986-5.181v6.508C43.855,23.705,32.961,26.948,32.961,32.288ZM31.822,6.161c14.135,0,23.986,3.524,23.986,6.687s-9.851,6.689-23.986,6.689S7.838,16.011,7.838,12.848,17.687,6.161,31.822,6.161ZM7.838,58.974V47.106c4.189,3.385,14.316,5.181,23.984,5.181.379,0,.759-.01,1.139-.016V65.646c-.379.006-.753.016-1.139.016C17.687,65.662,7.838,62.137,7.838,58.974ZM62.058,91.8c-15.969,0-27.1-4.029-27.1-7.645V70.572c4.54,3.882,16.088,5.941,27.1,5.941s22.557-2.059,27.1-5.941V84.159C89.155,87.775,78.026,91.8,62.058,91.8Z"/></svg>