<svg xmlns="http://www.w3.org/2000/svg" viewBox="0 0 96 96"><rect x="13.856" y="13.841" width="66.916" height="66.916" rx="5.944" ry="5.944" class="sgmaincolor"/><path d="M39.223,50.7a5.446,5.446,0,0,1-1.834,3.911,6.444,6.444,0,0,1-4.36,1.427,5.791,5.791,0,0,1-4.657-1.992,8.171,8.171,0,0,1-1.7-5.471v-.94a9.227,9.227,0,0,1,.782-3.911,5.863,5.863,0,0,1,2.236-2.6,6.26,6.26,0,0,1,3.378-.9,6.28,6.28,0,0,1,4.292,1.426,5.853,5.853,0,0,1,1.881,4.007H36.073a3.219,3.219,0,0,0-.83-2.162,3.076,3.076,0,0,0-2.172-.671A2.693,2.693,0,0,0,30.7,43.965a6.36,6.36,0,0,0-.809,3.525v1.163a6.821,6.821,0,0,0,.756,3.648,2.645,2.645,0,0,0,2.384,1.151,3.13,3.13,0,0,0,2.193-.671,3.025,3.025,0,0,0,.829-2.077Z"/><path d="M44.477,50.408v5.423H41.305V40.439H47.31a6.942,6.942,0,0,1,3.049.635,4.668,4.668,0,0,1,2.024,1.8,5.02,5.02,0,0,1,.709,2.659A4.42,4.42,0,0,1,51.543,49.1a6.453,6.453,0,0,1-4.287,1.3Zm0-2.568H47.31a2.778,2.778,0,0,0,1.918-.593,2.153,2.153,0,0,0,.661-1.691,2.539,2.539,0,0,0-.666-1.828,2.486,2.486,0,0,0-1.84-.719H44.477Z"/><path d="M66.918,40.439V50.577a5.191,5.191,0,0,1-1.58,4,6.09,6.09,0,0,1-4.318,1.469,6.161,6.161,0,0,1-4.281-1.427,5.094,5.094,0,0,1-1.617-3.922V40.439h3.17V50.6a2.933,2.933,0,0,0,.725,2.2,2.78,2.78,0,0,0,2,.692q2.673,0,2.717-2.812V40.439Z"/><path d="M71.915,72.9h-49.2a1,1,0,0,1-1-1V22.7a1,1,0,0,1,1-1h49.2a1,1,0,0,1,1,1V71.9A1,1,0,0,1,71.915,72.9Zm-48.2-2h47.2V23.7h-47.2Z"/><path d="M90.613,30.586a1,1,0,0,0,0-2H81.772V23.7h8.841a1,1,0,0,0,0-2H81.772V19.784a6.951,6.951,0,0,0-6.943-6.943H70.948V4a1,1,0,0,0-2,0v8.841H63.076V4a1,1,0,1,0-2,0v8.841H55.2V4a1,1,0,0,0-2,0v8.841H47.331V4a1,1,0,0,0-2,0v8.841H39.457V4a1,1,0,0,0-2,0v8.841H31.585V4a1,1,0,0,0-2,0v8.841H23.713V4a1,1,0,0,0-2,0v8.841H19.8a6.951,6.951,0,0,0-6.943,6.943V21.7H5a1,1,0,0,0,0,2h7.857v4.888H5a1,1,0,0,0,0,2h7.857v4.889H5a1,1,0,0,0,0,2h7.857v4.888H5a1,1,0,0,0,0,2h7.857v4.889H5a1,1,0,0,0,0,2h7.857v4.888H5a1,1,0,0,0,0,2h7.857v4.888H5a1,1,0,0,0,0,2h7.857v4.889H5a1,1,0,0,0,0,2h7.857v2.9A6.952,6.952,0,0,0,19.8,81.756h1.913v9.309a1,1,0,0,0,2,0V81.756h5.872v9.309a1,1,0,0,0,2,0V81.756h5.872v9.309a1,1,0,0,0,2,0V81.756h5.874v9.309a1,1,0,0,0,2,0V81.756H53.2v9.309a1,1,0,0,0,2,0V81.756h5.873v9.309a1,1,0,0,0,2,0V81.756h5.872v9.309a1,1,0,0,0,2,0V81.756h3.881a6.952,6.952,0,0,0,6.943-6.944v-2.9h8.841a1,1,0,0,0,0-2H81.772V65.027h8.841a1,1,0,0,0,0-2H81.772V58.139h8.841a1,1,0,0,0,0-2H81.772V51.251h8.841a1,1,0,0,0,0-2H81.772V44.362h8.841a1,1,0,0,0,0-2H81.772V37.474h8.841a1,1,0,0,0,0-2H81.772V30.586ZM79.772,74.812a4.95,4.95,0,0,1-4.943,4.944H19.8a4.95,4.95,0,0,1-4.943-4.944V19.784A4.949,4.949,0,0,1,19.8,14.841H74.829a4.949,4.949,0,0,1,4.943,4.943Z"/></svg>