<svg xmlns="http://www.w3.org/2000/svg" viewBox="0 0 96 96"><g opacity="0"><rect width="96" height="96" fill="#fff"/></g><polygon points="68 63 68 47 58 38 39 38 20 38 10 47 10 84 44 84 44 92 86 92 86 63 68 63" class="sgmaincolor"/><circle cx="39" cy="21" r="17" class="sgmaincolor"/><path d="M87,63a.936.936,0,0,0-.03-.149.65.65,0,0,0-.167-.416.924.924,0,0,0-.071-.116s-.009-.005-.014-.01a1,1,0,0,0-.2-.142,1.041,1.041,0,0,0-.122-.082,1.111,1.111,0,0,0-.141-.033A1,1,0,0,0,86.017,62c-.006,0-.011,0-.017,0H69V47a1,1,0,0,0-.331-.743l-10-9A1,1,0,0,0,58,37H47.209a18,18,0,1,0-16.418,0H20a1,1,0,0,0-.669.257l-10,9A1,1,0,0,0,9,47V84a1,1,0,0,0,1,1H43v7a1.01,1.01,0,0,0,.077.382,1,1,0,0,0,.541.541A1.01,1.01,0,0,0,44,93H86a1,1,0,0,0,1-1Zm-3.546,1L65,81.136,46.546,64ZM45,65.293l12.6,11.7L45,89.586ZM59.063,78.351l5.256,4.881a1,1,0,0,0,1.362,0l5.256-4.881L83.586,91H46.414ZM72.4,76.99,85,65.293V89.586ZM23,21A16,16,0,1,1,39,37,16.019,16.019,0,0,1,23,21Zm2,62V56a1,1,0,0,0-2,0V83H11V47.445L20.384,39H57.616L67,47.445V62H55V56a1,1,0,0,0-2,0v6H44c-.007,0-.013,0-.019,0a.978.978,0,0,0-.219.044.426.426,0,0,0-.278.116,1.042,1.042,0,0,0-.2.144.083.083,0,0,1-.015.011,169.824,169.824,0,0,0-.194.317,1.025,1.025,0,0,0-.044.219A.979.979,0,0,0,43,63V83Z"/></svg>