<svg xmlns="http://www.w3.org/2000/svg" viewBox="0 0 96 96"><g opacity="0"><rect width="96" height="96" fill="#fff"/></g><path d="M48,89a1,1,0,0,1-.5-.132l-35-20A1,1,0,0,1,12,68V28a1,1,0,0,1,.5-.868l35-20a1,1,0,0,1,.992,0l35,20A1,1,0,0,1,84,28V68a1,1,0,0,1-.5.868l-35,20A1,1,0,0,1,48,89ZM14,67.42,48,86.849,82,67.42V28.58L48,9.151,14,28.58Z"/><polygon points="24 34.286 24 61.714 48 75 72 61.714 72 34.286 48 20 24 34.286" class="sgmaincolor"/><path d="M48,76a1,1,0,0,1-.484-.125l-24-13.286A1,1,0,0,1,23,61.714V34.286a1,1,0,0,1,.489-.859l24-14.286a1,1,0,0,1,1.023,0l24,14.286a1,1,0,0,1,.488.859V61.714a1,1,0,0,1-.515.875l-24,13.286A1.007,1.007,0,0,1,48,76ZM25,61.124,48,73.857,71,61.124V34.854L48,21.164,25,34.854Z"/><path d="M56.658,39.247l-8-7a.927.927,0,0,0-.115-.066.866.866,0,0,0-.132-.088.632.632,0,0,0-.061-.022.826.826,0,0,0-.162-.037.951.951,0,0,0-.158-.028c-.01,0-.019-.006-.03-.006s-.019.006-.03.006a.97.97,0,0,0-.158.028.936.936,0,0,0-.163.037.6.6,0,0,0-.059.022.927.927,0,0,0-.133.088,1.1,1.1,0,0,0-.115.066l-8,7a1,1,0,1,0,1.316,1.506L47,35.2V62a1,1,0,0,0,2,0V35.2l6.342,5.549a1,1,0,0,0,1.316-1.506Z"/></svg>