<svg xmlns="http://www.w3.org/2000/svg" viewBox="0 0 64 64"><path d="M52,10H12a3,3,0,0,0-3,3V51a3,3,0,0,0,3,3H52a3,3,0,0,0,3-3V13A3,3,0,0,0,52,10ZM16,52V46h3v6Zm9,0V42h3V52Zm9,0V38h4V52Zm10,0V34h4V52Zm9-1a1,1,0,0,1-1,1H50V34a2,2,0,0,0-2-2H44a2,2,0,0,0-2,2V52H40V38a2,2,0,0,0-2-2H34a2,2,0,0,0-2,2V52H30V42a2,2,0,0,0-2-2H25a2,2,0,0,0-2,2V52H21V46a2,2,0,0,0-2-2H16a2,2,0,0,0-2,2v6H12a1,1,0,0,1-1-1V21H53Zm0-32H11V13a1,1,0,0,1,1-1H52a1,1,0,0,1,1,1Z"/><polygon points="42.37 22.07 41.63 23.93 44.45 25.06 15.59 38.09 16.41 39.91 45.15 26.93 44.07 29.63 45.93 30.37 48.3 24.44 42.37 22.07"/><circle cx="14.5" cy="15.5" r="1.5"/><circle cx="19.5" cy="15.5" r="1.5"/><circle cx="24.5" cy="15.5" r="1.5"/></svg>
