<svg xmlns="http://www.w3.org/2000/svg" viewBox="0 0 96 96"><path d="M89.8,38.812l-.08-17.352-24.8.093,11.051-8.6L50.938,2.19,48.294,21.553l-1.336.053-2.4-18.655L19.68,12.831l11.779,8.705-27.184,0,.047,16.6h5.8l-.081,52.532,73.709-.027.691-51.8Z" class="sgmaincolor"/><path d="M90.692,21.455a.971.971,0,0,0-.971-.966h0l-21.876.023,8.727-6.788a.972.972,0,0,0-.212-1.659L51.322,1.3a.972.972,0,0,0-1.346.756L47.553,19.077,45.526,2.83A.972.972,0,0,0,44.2,2.048L19.321,11.927a.972.972,0,0,0-.219,1.684l9.4,6.944-24.236.027a.97.97,0,0,0-.97.975L3.35,37.941a.924.924,0,0,0-.022.182.99.99,0,0,0,.951,1.007.742.742,0,0,0,.225-.021l4.64,0L9.065,90.667a.971.971,0,0,0,.97.974l31.761.022a.877.877,0,0,0,.086.018h.006c.031,0,.058-.015.088-.017l41.769.03h0a.972.972,0,0,0,.971-.958L85.4,39.783H89.8a.971.971,0,0,0,.971-.976ZM51.72,3.584,74.08,13.2l-9.4,7.316-15.368.016Zm2.153,86.145-11.008-.007.294-50.4,10.7.027Zm1.876-51.617a.92.92,0,0,0-.084-.205c-2.847-6.938-5.389-13.145-6.3-15.39l14.9.007c1.517,3.72,8.261,20.019,10.8,26.163l-8.659-4.175a.969.969,0,0,0-1.352.6L62.355,54.2C60.4,49.439,57.985,43.56,55.749,38.112Zm-8.112-14.7c.054.131.11.27.169.417.391.963.952,2.338,1.625,3.988,1.091,2.668,2.48,6.058,3.926,9.583l-10.878-.029a.886.886,0,0,0-.3-.043l-1.216.016C43.946,31.119,46.793,25.171,47.637,23.413ZM45.491,23.4,32.054,51.46,29.46,43.586a.979.979,0,0,0-.542-.59.976.976,0,0,0-.8.018l-6.929,3.319c1.73-3.785,3.076-6.735,4.135-9.059l6.758-14.767,13.839.008C45.8,22.762,45.655,23.055,45.491,23.4ZM21.662,13.088,43.754,4.317l2.023,16.219-14.016.015ZM10.117,37.166a.928.928,0,0,0-.106.006l-4.722,0L5.237,22.523l24.7-.026c-1.739,3.735-1.822,3.921-2.673,5.8-.591,1.308-1.555,3.438-3.708,8.163l-.33.722-13.111-.018Zm.969,1.95,11.258.01c-1.089,2.387-2.414,5.289-4.036,8.836a.971.971,0,0,0,1.3,1.281l8.349-4,3,9.118a.971.971,0,0,0,1.8.116c.073-.152,3.62-7.564,7.261-15.169l1.191,0L40.922,89.72,11.009,89.7Zm71.7,50.634-26.971-.019L55.8,43.361c3.077,7.493,5.8,14.113,5.8,14.113a.961.961,0,0,0,.947.6.973.973,0,0,0,.882-.694L66.6,46.757l9.926,4.786A.971.971,0,0,0,77.843,50.3c-.046-.113-2.015-4.865-4.349-10.51l9.957.024Zm-10.1-51.909c-2.494-6.034-5.2-12.573-6.348-15.384l22.413-.025.07,15.409Z"/></svg>