<svg xmlns="http://www.w3.org/2000/svg" viewBox="0 0 96 96"><g opacity="0"><rect width="96" height="96" fill="#fff"/></g><path d="M64.172,74.987,50.466,58.539c-.01-.012-.025-.017-.036-.028a.762.762,0,0,0-.063-.064c-.012-.011-.017-.026-.029-.036a1,1,0,0,0-.1-.052,1.057,1.057,0,0,0-.122-.079c-.028-.013-.056-.022-.085-.033a1.1,1.1,0,0,0-.148-.035,1.027,1.027,0,0,0-.144-.023c-.016,0-.029-.009-.045-.009s-.029.008-.044.009a1.018,1.018,0,0,0-.145.023.927.927,0,0,0-.147.036.783.783,0,0,0-.085.032.886.886,0,0,0-.123.079c-.031.021-.067.028-.1.052-.013.01-.017.025-.029.036s-.043.041-.064.064-.025.016-.035.028L35.222,74.987a1,1,0,0,0,1.536,1.282L48.7,61.943V93a1,1,0,0,0,2,0V61.942L62.635,76.269a1,1,0,0,0,1.537-1.282Z"/><polygon points="63.154 2.112 74.027 9.561 76.336 21.918 88.418 27.522 91.034 38.693 81.579 51.837 15.138 52.01 13.486 50.428 5.947 42.736 5.947 41.654 8.105 36.136 10.086 30.785 17.447 28.169 23.212 16.531 23.798 15.23 40.05 13.034 49.057 2.873 63.154 2.112" class="sgmaincolor"/><path d="M91.9,38.576,89.459,28.162l.032-.113a1.744,1.744,0,0,0-.762-1.324L77.2,21.377a.919.919,0,0,0-.091-.074L74.9,9.487a1.008,1.008,0,0,0-.418-.642L63.61,1.4a1,1,0,0,0-.62-.174l-14.1.761a1.006,1.006,0,0,0-.7.336L39.438,12.2,23.554,14.349a.182.182,0,0,1-.025.007s-.008,0-.013,0-.017.01-.026.012a1.008,1.008,0,0,0-.4.173l-.006.006a1,1,0,0,0-.277.335c0,.008-.012.012-.016.02-.046.093-3.51,7.178-5.308,10.833l-.861,1.738-6.98,2.481a1,1,0,0,0-.6.595L7.063,35.882,4.906,41.4a.985.985,0,0,0-.069.364v1.081a1,1,0,0,0,.285.7l7.562,7.714,1.653,1.583a1,1,0,0,0,.691.277h0l66.44-.173a1.757,1.757,0,0,0,1.222-.964l.012-.043,9.031-12.553A1,1,0,0,0,91.9,38.576ZM79.834,46.66,70.071,31.8l5.894-7.311Zm-6.825-36.4L75.24,22.2l-5.932,7.357L64.229,4.246Zm-23.592-6.3,8.662-.467-14.41,6.952ZM62.1,3.774l5.178,25.807-25.3-16.1ZM38.879,14.3c-.116,1.742-.225,5.5-.457,13.955C35.349,25.266,28.8,18.9,25.861,16.056Zm-19.5,12.117,4.636-9.362h0C26.558,19.52,33.2,25.97,36.6,29.265l-17.72-1.833Zm-2.586,3.122L23.965,46.1,11.635,31.367ZM15.428,51.119,14.09,49.838l-7.253-7.4v-.484l2.1-5.36,1.371-3.7,15.233,18.2ZM28.3,51.085,18.934,29.45l19.755,2.043,8.993,19.542ZM40.365,30.351c.14-5.066.347-12.078.472-15.223l26.445,16.83L49.465,50.125Zm28.341,3.012L80.26,50.95l-28.877.075ZM81.964,47.229,77.894,23.9l9.45,4.384Zm2.348-.948,4.021-14.155,1.514,6.463Z"/></svg>