<svg xmlns="http://www.w3.org/2000/svg" viewBox="0 0 96 96"><polygon points="16.964 33.248 21.227 41.887 30.762 43.273 23.863 49.998 25.491 59.494 16.964 55.01 8.436 59.494 10.064 49.998 3.165 43.273 12.7 41.887 16.964 33.248" class="sgmaincolor"/><path d="M25.491,60.494a1,1,0,0,1-.466-.115L16.964,56.14,8.9,60.379a1,1,0,0,1-1.45-1.054l1.54-8.978L2.467,43.989a1,1,0,0,1,.554-1.706l9.015-1.31,4.031-8.168a1.041,1.041,0,0,1,1.793,0l4.031,8.168,9.014,1.31a1,1,0,0,1,.555,1.706l-6.523,6.358,1.539,8.978a1,1,0,0,1-.985,1.169ZM5.314,43.971l5.449,5.31a1,1,0,0,1,.287.886l-1.286,7.5L16.5,54.125a1,1,0,0,1,.931,0l6.733,3.541-1.285-7.5a1,1,0,0,1,.287-.886l5.448-5.31-7.529-1.094a1,1,0,0,1-.753-.547l-3.367-6.823L13.6,42.33a1,1,0,0,1-.753.547Z"/><polygon points="77.444 33.216 81.708 41.856 91.243 43.241 84.344 49.966 85.972 59.462 77.444 54.979 68.917 59.462 70.545 49.966 63.646 43.241 73.181 41.856 77.444 33.216" class="sgmaincolor"/><path d="M68.917,60.462a1,1,0,0,1-.985-1.169l1.539-8.978-6.523-6.358a1,1,0,0,1,.555-1.706l9.013-1.309,4.032-8.168a1.041,1.041,0,0,1,1.793,0l4.031,8.168,9.015,1.309a1,1,0,0,1,.554,1.707l-6.523,6.357,1.54,8.978a1,1,0,0,1-1.45,1.055l-8.064-4.239-8.061,4.239A1.015,1.015,0,0,1,68.917,60.462Zm8.527-6.483a.991.991,0,0,1,.465.115l6.735,3.54-1.286-7.5a1,1,0,0,1,.287-.885l5.449-5.311-7.53-1.093a1,1,0,0,1-.753-.548l-3.367-6.822L74.077,42.3a1,1,0,0,1-.753.548L65.8,43.939l5.448,5.311a1,1,0,0,1,.287.885l-1.285,7.5,6.733-3.54A1,1,0,0,1,77.444,53.979Z"/><polygon points="47.116 11.241 54.139 25.471 69.843 27.752 58.48 38.829 61.162 54.469 47.116 47.085 33.071 54.469 35.753 38.829 24.39 27.752 40.094 25.471 47.116 11.241" class="sgmaincolor"/><path d="M61.162,55.469a1,1,0,0,1-.466-.115l-13.58-7.14-13.579,7.14A1,1,0,0,1,32.086,54.3l2.593-15.122L23.691,28.469a1,1,0,0,1,.555-1.706L39.43,24.557,46.22,10.8a1.041,1.041,0,0,1,1.793,0L54.8,24.557l15.182,2.206a1,1,0,0,1,.555,1.706L59.554,39.178,62.147,54.3a1,1,0,0,1-.985,1.169ZM26.539,28.451l9.912,9.661a1,1,0,0,1,.287.886L34.4,52.641,46.65,46.2a1,1,0,0,1,.932,0l12.252,6.442L57.494,39a1,1,0,0,1,.287-.886l9.912-9.661L54,26.46a1,1,0,0,1-.753-.547L47.116,13.5,40.99,25.913a1,1,0,0,1-.753.547Z"/><path d="M82.669,80.372a1,1,0,0,1-.707-.293,49.386,49.386,0,0,0-69.763,0,1,1,0,0,1-1.414-1.414,51.388,51.388,0,0,1,72.591,0,1,1,0,0,1-.707,1.707Z"/><rect width="96" height="96" fill="#fff" opacity="0"/></svg>