<svg xmlns="http://www.w3.org/2000/svg" viewBox="0 0 96 96"><g opacity="0"><rect width="96" height="96" fill="#fff"/></g><path d="M90.713,34.465a1,1,0,0,1-.707-.293,21.619,21.619,0,0,0-30.6,0A1,1,0,0,1,58,32.758a23.618,23.618,0,0,1,33.424,0,1,1,0,0,1-.707,1.707Z"/><path d="M38.7,34.465a1,1,0,0,1-.707-.293,21.619,21.619,0,0,0-30.6,0,1,1,0,1,1-1.414-1.414,23.659,23.659,0,0,1,33.424,0,1,1,0,0,1-.707,1.707Z"/><path d="M84.715,16.891H12.637a1,1,0,0,1,0-2H84.715a1,1,0,1,1,0,2Z"/><circle cx="74.856" cy="47.183" r="7.206" class="sgmaincolor"/><path d="M74.837,55.391a8.232,8.232,0,1,1,1.443-.127A8.285,8.285,0,0,1,74.837,55.391Zm.032-14.415a6.207,6.207,0,1,0,6.1,5.13h0a6.207,6.207,0,0,0-6.1-5.129Z"/><path d="M74.854,51.022a3.839,3.839,0,1,1,3.782-4.506h0a3.842,3.842,0,0,1-3.783,4.5Zm0-5.678a1.838,1.838,0,1,0,1.811,1.52h0A1.842,1.842,0,0,0,74.856,45.344Z"/><circle cx="22.954" cy="47.255" r="7.206" class="sgmaincolor"/><path d="M95.75,43.848a1.017,1.017,0,0,0-.044-.181.9.9,0,0,0-.089-.164,1,1,0,0,0-.118-.163c-.017-.018-.024-.041-.042-.057-6.83-6.261-14.882-8.953-22.681-7.588-7.869,1.381-14.8,6.812-19.029,14.9-.011.022-.01.046-.019.068a.957.957,0,0,0-.057.2,1.017,1.017,0,0,0-.027.18.958.958,0,0,0,.022.192.708.708,0,0,0,.132.345.945.945,0,0,0,.119.163c.016.017.023.04.041.057,5.589,5.124,12.311,7.887,18.936,7.887a23.325,23.325,0,0,0,4.042-.35c7.793-1.368,14.445-6.641,18.732-14.85.011-.021.01-.045.019-.067a.975.975,0,0,0,.057-.2.73.73,0,0,0,.006-.372ZM76.59,57.363C69.56,58.6,62.063,56.215,55.9,50.836c3.959-7.15,10.2-11.938,17.222-13.171,6.952-1.222,14.165,1.12,20.395,6.577C89.52,51.49,83.538,56.144,76.59,57.363Z"/><path d="M43.665,50.7c-.009-.022-.008-.045-.018-.066-4.276-8.22-10.924-13.507-18.718-14.888-7.862-1.391-16.24,1.338-22.977,7.494-.018.017-.024.039-.041.057a.869.869,0,0,0-.119.164.884.884,0,0,0-.089.162.957.957,0,0,0-.044.183.937.937,0,0,0-.021.19,1.015,1.015,0,0,0,.026.18.943.943,0,0,0,.058.2c.009.021.007.044.018.065,4.214,8.1,11.144,13.547,19.012,14.942a23.092,23.092,0,0,0,4.03.354c6.493,0,12.992-2.728,18.653-7.9.017-.016.024-.039.041-.056a.993.993,0,0,0,.119-.164.926.926,0,0,0,.089-.163,1.489,1.489,0,0,0,.065-.372,1.389,1.389,0,0,0-.084-.379ZM21.1,57.414c-7.028-1.245-13.259-6.047-17.21-13.209,6.168-5.365,13.664-7.733,20.688-6.487,6.949,1.231,12.927,5.9,16.916,13.155C35.26,56.317,28.048,58.642,21.1,57.414Z"/><path d="M22.957,55.462a8.208,8.208,0,1,1,8.077-6.782h0A8.221,8.221,0,0,1,22.957,55.462Zm-.006-14.413a6.206,6.206,0,1,0,6.115,7.283h0a6.21,6.21,0,0,0-6.115-7.283Z"/><path d="M22.956,51.094a3.84,3.84,0,1,1,3.777-3.172A3.814,3.814,0,0,1,22.956,51.094Zm0-5.678a1.853,1.853,0,1,0,.321.029A1.841,1.841,0,0,0,22.952,45.416Z"/></svg>