<svg xmlns="http://www.w3.org/2000/svg" viewBox="0 0 96 96"><g opacity="0"><rect width="96" height="96.145" fill="#fff"/></g><path d="M11,42.134H33.561v7.22L47.1,29.5V15.964h9.927l3.61,3.609V29.5L57.927,42.134H81.39L85,44.842v4.512l-3.61,2.707L85,54.437v3.941l-3.61,2.708L85,63.793v3.656L81.39,70.11,85,72.817v4.512l-3.61,2.708h-38.8L33.539,73.72l.022,6.317H11Z" class="sgmaincolor"/><path d="M86,49.354V44.841a1,1,0,0,0-.4-.8l-3.61-2.708a1,1,0,0,0-.6-.2H59.164L61.612,29.71a1.054,1.054,0,0,0,.022-.21V19.574a1,1,0,0,0-.293-.707l-3.609-3.611a1,1,0,0,0-.707-.293H47.1a1,1,0,0,0-1,1V29.192L34.561,46.112V42.134a1,1,0,0,0-1-1H11a1,1,0,0,0-1,1v37.9a1,1,0,0,0,1,1H33.561a1,1,0,0,0,1-1l-.015-4.392,7.466,5.215a1,1,0,0,0,.573.18H81.39a1,1,0,0,0,.6-.2l3.61-2.707a1,1,0,0,0,.4-.8V72.817a1,1,0,0,0-.4-.8l-2.534-1.9,2.528-1.864a1,1,0,0,0,.406-.8V63.792a1,1,0,0,0-.4-.8l-2.543-1.908L85.6,59.178a1,1,0,0,0,.4-.8V54.437a1,1,0,0,0-.45-.835l-2.422-1.595L85.6,50.154A1,1,0,0,0,86,49.354ZM12,79.037v-35.9H32.561V73.563a.936.936,0,0,0-.022.159l.018,5.315ZM84,48.854l-2.943,2.207H71.678a1,1,0,0,0,0,2h9.413L84,54.976v2.9l-2.943,2.207H71.678a1,1,0,0,0,0,2h9.379L84,64.292v2.652L81.061,69.11H71.678a1,1,0,0,0,0,2h9.379L84,73.317V76.83l-2.943,2.207H42.9l-8.339-5.825V49.663l13.363-19.6A1,1,0,0,0,48.1,29.5V16.963h8.514l3.023,3.025V29.4L56.949,41.924a1,1,0,0,0,.978,1.21h23.13L84,45.341Z"/><path d="M21.506,61.421a5.459,5.459,0,1,0,5.459,5.459A5.465,5.465,0,0,0,21.506,61.421Zm0,8.917a3.459,3.459,0,1,1,3.459-3.458A3.461,3.461,0,0,1,21.506,70.338Z"/></svg>