<svg xmlns="http://www.w3.org/2000/svg" viewBox="0 0 96 96"><g opacity="0"><rect width="96" height="96" fill="#fff"/></g><rect x="26.147" y="20.412" width="43.706" height="64.259" transform="translate(100.542 4.542) rotate(90)" class="sgmaincolor"/><path d="M80.183,29.536H63.809v-7.8a1,1,0,0,0-1-1H33.191a1,1,0,0,0-1,1v7.8H15.817a1,1,0,0,0-1,1V74.265a1,1,0,0,0,1,1H80.183a1,1,0,0,0,1-1V30.536A1,1,0,0,0,80.183,29.536Zm-49.591,2h2.413a.474.474,0,0,0,.372,0H78.012L47.786,61.088,18.234,31.536Zm3.6-8.8H61.809v6.8H34.191ZM16.817,73.265V32.948L47.071,63.2a1,1,0,0,0,1.406.008L79.183,33.188V73.265Z"/></svg>