<svg xmlns="http://www.w3.org/2000/svg" viewBox="0 0 96 96"><g opacity="0"><rect width="96" height="96" fill="#fff"/></g><circle cx="47.684" cy="54.652" r="14.763" class="sgmaincolor"/><path d="M3.206,14.937V29.93H93.141V14.937Z" class="sgmaincolor"/><circle cx="10.449" cy="22.852" r="2.396"/><circle cx="17.637" cy="22.852" r="2.396"/><circle cx="24.826" cy="22.852" r="2.396"/><path d="M93.141,13.893H3.207a1,1,0,0,0-1,1V80.076a1,1,0,0,0,1,1H93.141a1,1,0,0,0,1-1V14.893A1,1,0,0,0,93.141,13.893ZM48.332,78.284c-16.279-.013-32.153-8.552-43.654-23.431C16.167,40.185,31.932,31.782,48.092,31.782h.036c16.1.013,31.348,8.335,43,23.429C79.5,70.091,64.354,78.284,48.37,78.284ZM58.665,30.965H92.141V53.276C82.764,41.412,71.173,33.737,58.665,30.965ZM4.207,52.245V30.965H37.466C25.054,33.684,13.388,41.087,4.207,52.245ZM92.141,15.893V28.965H4.207V15.893ZM4.207,57.463c9.2,11.322,20.927,18.845,33.425,21.613H4.207ZM59.05,79.076c12.341-2.765,23.787-10.3,33.091-21.93v21.93Z"/><path d="M47.466,70.414A15.762,15.762,0,1,1,63.228,54.651,15.781,15.781,0,0,1,47.466,70.414Zm0-29.524A13.762,13.762,0,1,0,61.228,54.651,13.777,13.777,0,0,0,47.466,40.89Z"/><path d="M47.466,61.468a6.816,6.816,0,1,1,6.815-6.817A6.824,6.824,0,0,1,47.466,61.468Zm0-11.632a4.816,4.816,0,1,0,4.815,4.815A4.821,4.821,0,0,0,47.466,49.836Z"/></svg>