<svg xmlns="http://www.w3.org/2000/svg" viewBox="0 0 64 64"><g opacity="0"><rect width="64" height="64" fill="#fff"/></g><path d="M48.9,25.437a1,1,0,0,0-.94-.64H34.2l9.61-16.17a.993.993,0,0,0-.84-1.51l-19.25-.3H23.7a1,1,0,0,0-.96.73l-7.66,26.61a.985.985,0,0,0,.16.88,1.014,1.014,0,0,0,.8.4h9.31L15.358,53.7a1,1,0,0,0,.88,1.48.955.955,0,0,0,.66-.25l31.73-28.39A.989.989,0,0,0,48.9,25.437Zm-28.99,24.12,8.01-14.64a1,1,0,0,0-.88-1.48h-9.67l7.08-24.61,16.76.26-9.62,16.2a.97.97,0,0,0-.01,1,1,1,0,0,0,.86.51h12.91Z"/></svg>