<svg xmlns="http://www.w3.org/2000/svg" viewBox="0 0 96 96"><g opacity="0"><rect width="96" height="96.145" fill="#fff"/></g><rect x="21.023" y="21.023" width="53.953" height="53.953" class="sgmaincolor"/><path d="M88,89H8a1,1,0,0,1-1-1V8A1,1,0,0,1,8,7H88a1,1,0,0,1,1,1V88A1,1,0,0,1,88,89ZM9,87H87V9H9Z"/><path d="M74.977,20.023H21.023a1,1,0,0,0-1,1V74.977a1,1,0,0,0,1,1H74.977a1,1,0,0,0,1-1V21.023A1,1,0,0,0,74.977,20.023Zm-1,53.954H22.023V22.023H73.977Z"/><path d="M39.57,41.973a1,1,0,0,0,.658-.247l6.955-6.085V64.658a1,1,0,0,0,2,0V35.641l6.955,6.085a1,1,0,0,0,1.316-1.506l-8.613-7.536a.906.906,0,0,0-.117-.067.937.937,0,0,0-.131-.088c-.02-.009-.04-.014-.06-.022a1.063,1.063,0,0,0-.158-.036,1.006,1.006,0,0,0-.164-.029c-.01,0-.018-.005-.028-.005s-.021.006-.032.006a.924.924,0,0,0-.147.026.875.875,0,0,0-.174.039.6.6,0,0,0-.059.022,1.022,1.022,0,0,0-.126.084.863.863,0,0,0-.121.07L38.911,40.22a1,1,0,0,0,.659,1.753Z"/></svg>