<svg xmlns="http://www.w3.org/2000/svg" viewBox="0 0 96 96"><g opacity="0"><rect width="96" height="96.145" fill="#fff"/></g><circle cx="61.791" cy="65.4" r="25.251" class="sgmaincolor"/><path d="M79.724,46.256a.906.906,0,0,0-.069-.082c-.011-.008-.024-.01-.035-.018a26.185,26.185,0,0,0-35.655,0c-.011.008-.024.009-.034.017-.03.023-.044.057-.071.082a26.252,26.252,0,1,0,35.864,0ZM86.016,64.4H75.536a44.847,44.847,0,0,0-1.86-12.269,20.232,20.232,0,0,0,5.39-3.729A24.173,24.173,0,0,1,86.016,64.4ZM62.792,41.512c3.357.609,6.363,4.241,8.338,9.518a25.239,25.239,0,0,1-8.338,1.64Zm4.958.381A24.2,24.2,0,0,1,77.6,47.03,18.631,18.631,0,0,1,73.016,50.2,20.855,20.855,0,0,0,67.75,41.893Zm-6.958-.381V52.67a25.234,25.234,0,0,1-8.339-1.64C54.428,45.753,57.434,42.121,60.792,41.512ZM50.566,50.2a18.573,18.573,0,0,1-4.578-3.172,24.211,24.211,0,0,1,9.844-5.137A20.884,20.884,0,0,0,50.566,50.2ZM60.792,54.67V64.4H50.046A42.694,42.694,0,0,1,51.8,52.95,27.435,27.435,0,0,0,60.792,54.67Zm0,11.73v9.361a27.387,27.387,0,0,0-9.088,1.76A42.879,42.879,0,0,1,50.046,66.4Zm0,11.361V89.288c-3.426-.622-6.485-4.389-8.457-9.839A25.192,25.192,0,0,1,60.792,77.761Zm-4.96,11.146A24.207,24.207,0,0,1,45.79,83.6a18.117,18.117,0,0,1,4.66-3.313A21.137,21.137,0,0,0,55.832,88.907Zm6.96.381V77.761a25.186,25.186,0,0,1,8.455,1.687C69.275,84.9,66.217,88.666,62.792,89.288Zm10.341-9a18.1,18.1,0,0,1,4.66,3.313A24.2,24.2,0,0,1,67.75,88.907,21.132,21.132,0,0,0,73.133,80.285ZM62.792,75.761V66.4H73.536a42.871,42.871,0,0,1-1.658,11.12A27.406,27.406,0,0,0,62.792,75.761Zm0-11.361V54.67a27.456,27.456,0,0,0,8.988-1.719A42.64,42.64,0,0,1,73.536,64.4Zm-18.275-16a20.214,20.214,0,0,0,5.39,3.729A44.821,44.821,0,0,0,48.046,64.4H37.566A24.172,24.172,0,0,1,44.517,48.4Zm-6.951,18h10.48A45.069,45.069,0,0,0,49.81,78.348a19.845,19.845,0,0,0-5.471,3.864A24.163,24.163,0,0,1,37.566,66.4ZM79.244,82.211a19.878,19.878,0,0,0-5.471-3.864A45.1,45.1,0,0,0,75.536,66.4h10.48A24.157,24.157,0,0,1,79.244,82.211Z"/><path d="M22.119,26.326,8.78,40.543V46.15H37.043v-6.6H19.315l9.374-9.884a34.645,34.645,0,0,0,5.437-7.392,13.852,13.852,0,0,0,1.586-6.23q0-5.58-3.525-8.638t-9.9-3.058A15.454,15.454,0,0,0,14.84,6.119a12.682,12.682,0,0,0-5.083,4.886,13.519,13.519,0,0,0-1.8,6.882h8.213a7.582,7.582,0,0,1,1.6-5.028,5.407,5.407,0,0,1,4.376-1.911,5.012,5.012,0,0,1,3.965,1.572A6.3,6.3,0,0,1,27.5,16.839a8.424,8.424,0,0,1-1.317,4.248A33,33,0,0,1,22.119,26.326Z"/></svg>