<svg xmlns="http://www.w3.org/2000/svg" viewBox="0 0 96 96"><g opacity="0"><rect width="96" height="96" fill="#fff"/></g><polygon points="82.493 80.999 5.477 80.937 5.519 20.992 82.493 20.971 82.493 43.987 65.515 43.956 65.505 57.013 82.535 57.013 82.493 80.999" class="sgmaincolor"/><path d="M91.523,43.989a.909.909,0,0,0-.027-.134l.017-28.848a1,1,0,0,0-1-1L12.566,14a.884.884,0,0,0-.134.027.993.993,0,0,0-.209.042.962.962,0,0,0-.183.1.965.965,0,0,0-.122.067L4.872,20.23c-.011.009-.015.022-.024.031a.968.968,0,0,0-.135.171,1.012,1.012,0,0,0-.1.142.981.981,0,0,0-.049.175,1.02,1.02,0,0,0-.041.2c0,.014-.008.026-.008.04L4.477,80.936a1,1,0,0,0,1,1L82.492,82h0a1,1,0,0,0,.706-.292c.014-.014.019-.033.032-.047a1,1,0,0,0,.183-.271,1.1,1.1,0,0,0,.039-.191,1,1,0,0,0,.04-.2l.018-11.046,6.969.01h0a1,1,0,0,0,1-1l.007-11.884c0-.024.013-.044.013-.067ZM66.505,56.013l.009-11.056,15.93.02c.017,0,.032.01.05.01s.031-.009.048-.01l6.954.009L89.49,56.013ZM89.5,42.986l-6-.007V20.972a1,1,0,0,0-1-1L8.24,19.991,12.933,16l76.579,0ZM6.518,21.992l74.976-.02v21l-15.978-.02h0a1,1,0,0,0-1,1L64.5,57.012a1,1,0,0,0,1,1H81.533l-.019,10.838c0,.035-.02.066-.02.1a.875.875,0,0,0,.02.1L81.5,80l-75.017-.06Zm77,45.964.017-9.943h5.956l-.006,9.951Z"/></svg>