<svg id="ed5df98a-347c-421a-aa35-c099dda8b14a" xmlns="http://www.w3.org/2000/svg" viewBox="0 0 125.844 126.961"><path d="M101.323,120.275a1,1,0,0,1-.712-1.7L120.636,98.28a1,1,0,0,1,1.424,1.4l-20.026,20.293A.993.993,0,0,1,101.323,120.275Z" transform="translate(-9.078 -8.52)"/><path d="M100.2,132.228a11.673,11.673,0,0,1-11.81-11.285,11.471,11.471,0,0,1,3.358-8.611l8.761-8.879a1,1,0,0,1,1.424,1.4l-8.761,8.879a9.5,9.5,0,0,0-2.784,7.124,9.9,9.9,0,0,0,2.874,6.581,9.713,9.713,0,0,0,13.706-.091l8.761-8.878a1,1,0,0,1,1.424,1.405l-8.761,8.878A11.353,11.353,0,0,1,100.2,132.228Z" transform="translate(-9.078 -8.52)"/><path d="M121.448,115.1a1,1,0,0,1-.711-1.7l8.76-8.878a9.491,9.491,0,0,0,2.784-7.124,9.9,9.9,0,0,0-2.875-6.581,9.714,9.714,0,0,0-13.705.09l-8.76,8.879a1,1,0,1,1-1.424-1.4l8.761-8.879a11.718,11.718,0,0,1,16.533-.11,11.926,11.926,0,0,1,3.469,7.921,11.48,11.48,0,0,1-3.359,8.613L122.16,114.8A1,1,0,0,1,121.448,115.1Z" transform="translate(-9.078 -8.52)"/><polygon points="77.207 84.378 77.207 66.142 67.608 56.982 48.055 56.982 28.502 56.982 18.211 66.244 18.211 84.16 32.432 94.825 32.432 71.717 32.432 104.602 62.81 104.533 62.81 94.935 77.207 84.378" class="sgmaincolor"/><circle cx="48.055" cy="38.528" r="17.495" class="sgmaincolor"/><path d="M86.975,73.938l-9.6-9.16c-.009-.009-.022-.012-.031-.02a.972.972,0,0,0-.164-.1.937.937,0,0,0-.162-.087.956.956,0,0,0-.186-.036.929.929,0,0,0-.147-.028H63.194a18.494,18.494,0,1,0-12.122,0H37.58a1.055,1.055,0,0,0-.175.032.937.937,0,0,0-.158.03,1.026,1.026,0,0,0-.189.1,1.15,1.15,0,0,0-.134.083l-.013.008L26.62,74.021a1,1,0,0,0-.331.743V92.679a1,1,0,0,0,.4.8l13.82,10.366v9.276a1,1,0,0,0,1,1h0l30.378-.068a1,1,0,0,0,1-1v-9.091L86.876,93.705a1,1,0,0,0,.408-.807V74.662A1,1,0,0,0,86.975,73.938ZM40.639,47.048A16.495,16.495,0,1,1,57.133,63.543,16.512,16.512,0,0,1,40.639,47.048ZM57.483,74.5,41.755,66.5H72.644Zm27.8,17.9-12.4,9.09V80.421a1,1,0,0,0-2,0v31.633l-28.378.065V80.237a1,1,0,0,0-2,0v21.108L28.289,92.179V75.21l9.45-8.506,19.3,9.809a.991.991,0,0,0,.125.046.781.781,0,0,0,.081.029.986.986,0,0,0,.246.034h0a1,1,0,0,0,.254-.035c.025-.007.049-.019.074-.028a1.051,1.051,0,0,0,.138-.052l18.558-9.785,8.768,8.368Z" transform="translate(-9.078 -8.52)"/><polygon points="124.844 50.565 124.844 37.41 117.92 30.802 103.814 30.802 89.709 30.802 82.285 37.483 82.285 50.408 92.544 58.101 92.544 41.432 92.544 65.154 114.459 65.105 114.459 58.181 124.844 50.565" class="sgmaincolor"/><circle cx="103.814" cy="19.853" r="10.39" class="sgmaincolor"/><path d="M134.613,45.206,127.688,38.6c-.01-.009-.023-.012-.033-.021a.945.945,0,0,0-.155-.1.636.636,0,0,0-.351-.127.971.971,0,0,0-.152-.029h-8.573a11.391,11.391,0,1,0-11.063,0H98.787a.964.964,0,0,0-.175.033.935.935,0,0,0-.158.029.975.975,0,0,0-.189.1,1.022,1.022,0,0,0-.134.082l-.013.008L90.7,45.26a1,1,0,0,0-.331.743V58.928a1,1,0,0,0,.4.8l9.857,7.394v6.553a1,1,0,0,0,1,1h0l21.915-.049a1,1,0,0,0,1-1V67.208l9.978-7.317a1,1,0,0,0,.408-.806V45.929A1,1,0,0,0,134.613,45.206ZM103.5,28.373a9.39,9.39,0,1,1,9.391,9.39A9.4,9.4,0,0,1,103.5,28.373ZM113.143,45.5l-10.18-5.174h19.993Zm19.779,13.082-8.386,6.149V50.084a1,1,0,0,0-2,0V72.627l-19.915.045V49.951a1,1,0,0,0-2,0v14.67l-8.257-6.193V46.448l6.582-5.923L112.7,47.513a.991.991,0,0,0,.125.046.781.781,0,0,0,.081.029.993.993,0,0,0,.247.034h0a1,1,0,0,0,.253-.035c.026-.007.049-.019.074-.028a1.051,1.051,0,0,0,.138-.052l13.21-6.965,6.094,5.815Z" transform="translate(-9.078 -8.52)"/><path d="M16.4,135.48l-.189,0a7.317,7.317,0,0,1-4.855-12.619,7.439,7.439,0,0,1,5.227-2.012,7.328,7.328,0,0,1,7.13,7.5h0A7.326,7.326,0,0,1,16.4,135.48Zm-.006-12.635a5.317,5.317,0,0,0-.132,10.633c.046,0,.092,0,.138,0a5.323,5.323,0,0,0,5.313-5.181h0a5.325,5.325,0,0,0-5.18-5.452C16.484,122.845,16.438,122.845,16.392,122.845Zm6.319,5.479h0Z" transform="translate(-9.078 -8.52)"/><path d="M28.5,26.142a.948.948,0,0,1-.258-.034L12.656,21.945a1,1,0,0,1-.447-1.676L23.761,8.811a.989.989,0,0,1,.97-.254,1,1,0,0,1,.7.714l4.036,15.621a1,1,0,0,1-.968,1.25ZM14.854,20.463l12.251,3.271L23.933,11.458Z" transform="translate(-9.078 -8.52)"/></svg>