<svg xmlns="http://www.w3.org/2000/svg" viewBox="0 0 96 96"><g opacity="0"><rect width="96" height="96" fill="#fff"/></g><path d="M48,8A40,40,0,1,0,88,48,40.044,40.044,0,0,0,48,8ZM12.929,48a34.932,34.932,0,0,1,3.037-14.272L32.7,79.561A35.073,35.073,0,0,1,12.929,48ZM48,83.071a35.023,35.023,0,0,1-9.907-1.429L48.615,51.066,59.4,80.6a3.4,3.4,0,0,0,.25.485A35.024,35.024,0,0,1,48,83.071Zm4.836-51.516c2.109-.11,4.012-.332,4.012-.332a1.45,1.45,0,0,0-.224-2.891s-5.681.446-9.348.446c-3.447,0-9.237-.446-9.237-.446a1.45,1.45,0,0,0-.222,2.891s1.787.221,3.677.332l5.464,14.97L39.283,69.543,26.513,31.555c2.112-.11,4.012-.332,4.012-.332a1.45,1.45,0,0,0-.224-2.891s-5.681.446-9.348.446c-.657,0-1.432-.017-2.257-.044a35.06,35.06,0,0,1,52.984-6.6c-.15-.009-.3-.028-.454-.028a6.071,6.071,0,0,0-5.888,6.224c0,2.891,1.666,5.335,3.444,8.225a18.458,18.458,0,0,1,2.892,9.672q0,4.5-2.669,11.339l-3.5,11.687Zm25.937-.381A35.08,35.08,0,0,1,65.63,78.312L76.341,47.341a33.1,33.1,0,0,0,2.668-12.56A26.856,26.856,0,0,0,78.773,31.174Z" class="sgmaincolor"/><path d="M48,89A41,41,0,1,1,89,48,41.046,41.046,0,0,1,48,89ZM48,9A39,39,0,1,0,87,48,39.043,39.043,0,0,0,48,9Zm0,75.071A36.071,36.071,0,0,1,37.81,82.6a1,1,0,0,1-.663-1.285L47.669,50.741a1,1,0,0,1,.937-.675h.009a1,1,0,0,1,.94.658l10.78,29.533a2.555,2.555,0,0,0,.167.308,1,1,0,0,1-.523,1.462A36,36,0,0,1,48,84.071Zm-8.616-3.108a34.231,34.231,0,0,0,18.905-.48L48.643,54.059Zm-6.689-.4a1.009,1.009,0,0,1-.437-.1A36.075,36.075,0,0,1,15.053,33.319.96.96,0,0,1,16,32.728a1,1,0,0,1,.9.656L33.635,79.219a1,1,0,0,1-.94,1.343ZM15.92,36.518A34.088,34.088,0,0,0,30.862,77.454ZM65.63,79.312a1,1,0,0,1-.945-1.328L75.4,47.014A32.279,32.279,0,0,0,78.009,34.78a25.775,25.775,0,0,0-.228-3.472,1,1,0,0,1,1.868-.615A36.079,36.079,0,0,1,66.134,79.176,1,1,0,0,1,65.63,79.312ZM79.974,36.228a35.18,35.18,0,0,1-2.7,11.484L67.517,75.917A34.081,34.081,0,0,0,79.974,36.228ZM39.283,70.543a1,1,0,0,1-.948-.682L25.565,31.873a1,1,0,0,1,.9-1.317c2.053-.106,3.929-.325,3.948-.327a.425.425,0,0,0,.424-.5.394.394,0,0,0-.473-.394c-.214.018-5.743.447-9.407.447-.666,0-1.452-.016-2.289-.044a1,1,0,0,1-.8-1.548A36.059,36.059,0,0,1,72.355,21.4a1,1,0,0,1-.734,1.736l-.182-.014c-.07-.006-.14-.013-.213-.013a5.085,5.085,0,0,0-4.888,5.225c0,2.379,1.333,4.531,2.878,7.024l.418.678a19.4,19.4,0,0,1,3.04,10.194c0,3.109-.921,7.046-2.737,11.7l-3.473,11.61a1,1,0,0,1-.942.713,1.024,1.024,0,0,1-.964-.682l-12.67-37.7a1,1,0,0,1,.9-1.317c2.05-.106,3.929-.325,3.947-.327a.423.423,0,0,0,.424-.5.387.387,0,0,0-.473-.4c-.214.018-5.743.447-9.406.447-3.446,0-9.075-.429-9.313-.448a.422.422,0,0,0-.457.453c-.025.419.262.436.37.443.082.007,1.843.224,3.677.332a1,1,0,0,1,.881.655L47.9,46.183a.993.993,0,0,1,.009.659L40.232,69.859a1,1,0,0,1-.948.684ZM27.876,32.471l11.4,33.923L45.9,46.54l-5.12-14.029c-1.633-.117-3.02-.287-3.085-.3a2.338,2.338,0,0,1-2.184-2.551,2.406,2.406,0,0,1,2.588-2.33c.076.006,5.81.443,9.178.443,3.585,0,9.212-.437,9.269-.442a2.381,2.381,0,0,1,2.6,2.213,2.409,2.409,0,0,1-2.182,2.668c-.063.007-1.237.143-2.766.255L65.451,65.953l2.6-8.671c1.752-4.5,2.627-8.193,2.627-11.053a17.563,17.563,0,0,0-2.76-9.174l-.4-.645c-1.634-2.638-3.177-5.13-3.177-8.077A7.2,7.2,0,0,1,69.286,21.4a34.062,34.062,0,0,0-48.7,6.375l.37,0c3.587,0,9.214-.437,9.27-.442a2.372,2.372,0,0,1,2.6,2.213,2.409,2.409,0,0,1-2.182,2.668C30.58,32.223,29.406,32.359,27.876,32.471Z"/></svg>