<svg xmlns="http://www.w3.org/2000/svg" viewBox="0 0 96 96"><g opacity="0"><rect width="96" height="96" fill="#fff"/></g><polygon points="3 48 14 34 14 15 93 48 14 81 14 62 3 48" class="sgmaincolor"/><path d="M93.907,48.41c.008-.017.014-.035.021-.053s.014-.029.019-.044a.985.985,0,0,0,.033-.18c0-.024.016-.044.018-.069,0-.009,0-.017,0-.026S94,48.013,94,48s0-.025-.006-.038,0-.017,0-.026a.648.648,0,0,0-.017-.063,1.051,1.051,0,0,0-.034-.186c-.005-.015-.013-.029-.019-.044a.657.657,0,0,0-.026-.061c-.01-.023-.023-.042-.035-.064a1.045,1.045,0,0,0-.09-.134.779.779,0,0,0-.051-.063c-.016-.018-.033-.033-.05-.049l-.012-.014,0-.005a1,1,0,0,0-.157-.106c-.028-.016-.052-.035-.081-.049l-.018-.011-.016-.009h0l-79-33a.987.987,0,0,0-.3-.068c-.024,0-.047,0-.071,0a1.006,1.006,0,0,0-.313.041l-.031.007a1.044,1.044,0,0,0-.23.113.8.8,0,0,0-.07.061c-.012.009-.026.011-.037.021a.355.355,0,0,0-.023.031.969.969,0,0,0-.206.271c-.009.018-.014.037-.022.056a1.014,1.014,0,0,0-.074.285c0,.023-.007.045-.008.068S13,14.987,13,15V33.654L2.214,47.382a.912.912,0,0,0-.078.144.827.827,0,0,0-.064.117.988.988,0,0,0,0,.714.827.827,0,0,0,.064.117.912.912,0,0,0,.078.144L13,62.346V81c0,.013,0,.026.005.039s.006.045.008.068a1.014,1.014,0,0,0,.074.285c.008.019.013.038.022.056a.969.969,0,0,0,.206.271.355.355,0,0,0,.023.031c.012.011.027.014.04.024s.042.041.067.058a1.051,1.051,0,0,0,.14.066.927.927,0,0,0,.1.045.966.966,0,0,0,.705-.02l79-33h0l.015-.009c.007,0,.012-.008.019-.011.029-.014.053-.033.081-.049a1.048,1.048,0,0,0,.16-.109c.01-.009.021-.017.031-.027s.021-.025.033-.038a.779.779,0,0,0,.051-.063.987.987,0,0,0,.091-.137C93.881,48.455,93.9,48.435,93.907,48.41ZM15,62.111l1.813-8.162,20.921-1.358L15,78.355Zm25.565-9.7,46.522-3.021L17.627,78.4ZM15,17.645,37.734,43.409,16.813,42.051,15,33.889ZM40.565,43.593l-22.938-26,69.46,29.016ZM13.482,36.278l1.541,6.939a1,1,0,0,0,.913.781l46.23,3H5.057ZM5.057,49H62.166l-46.23,3a1,1,0,0,0-.913.781l-1.541,6.939Z"/></svg>