<svg xmlns="http://www.w3.org/2000/svg" viewBox="0 0 96 96"><polygon points="48 15.66 58.51 36.95 82 40.37 65 56.94 69.01 80.34 48 69.29 26.99 80.34 31 56.94 14 40.37 37.49 36.95 48 15.66" class="sgmaincolor"/><path d="M27,81.34a1,1,0,0,1-.59-.2,1,1,0,0,1-.4-1l3.93-22.88L13.3,41.08a1,1,0,0,1,.56-1.7l23-3.34L47.1,15.22a1,1,0,0,1,1.8,0L59.17,36l23,3.34a1,1,0,0,1,.56,1.7L66.07,57.29,70,80.17a1,1,0,0,1-.4,1,1,1,0,0,1-1,.08L48,70.42,27.45,81.22A.93.93,0,0,1,27,81.34ZM16.15,41.06,31.7,56.22a1,1,0,0,1,.29.89l-3.68,21.4L47.53,68.4a1,1,0,0,1,.94,0L67.68,78.51,64,57.11a1,1,0,0,1,.29-.89L79.85,41.06,58.36,37.94a1,1,0,0,1-.75-.54L48,17.92,38.39,37.4a1,1,0,0,1-.75.54Z"/></svg>