<svg xmlns="http://www.w3.org/2000/svg" viewBox="0 0 64 50.4"><path d="M38.1,48.1a6.9,6.9,0,0,1-.4-1,4.9,4.9,0,0,0,.4,1.1ZM53.9,30.9l1,.4H55Z" transform="translate(0 -6.8)"></path><path d="M56.2,29.8V7.8a.9.9,0,0,0-.9-1H1A.7.7,0,0,0,.4,7H.3c-.1.1-.2.2-.2.3H0v41a1,1,0,0,0,1,1H36.6a14.6,14.6,0,0,0,24.7,1.6A14.3,14.3,0,0,0,64,42.7,14.5,14.5,0,0,0,56.2,29.8ZM1.9,8.7H54.3v3.1L28.1,31.4,1.9,11.8Zm33,34.7c0,.3.1.5.1.8v.5a.6.6,0,0,1,.1.4l.3,1.2a5.6,5.6,0,0,0,.4,1.2H1.9V14.2L27.5,33.4a1,1,0,0,0,1.2,0L54.3,14.2V29l-1.2-.4-1.2-.3H49.5A14.6,14.6,0,0,0,34.9,42.7Zm25.7,5.1a12.5,12.5,0,0,0-11.1-6.8H46l4.1-4.2a.9.9,0,0,0,.3-.7.9.9,0,0,0-.3-.6.9.9,0,0,0-1.3,0L43,41.9h-.2c0,.1,0,.1-.1.2v.6h0a.3.3,0,0,1,.1.2l.2.2h0l5.8,5.8a.9.9,0,0,0,.7.3.7.7,0,0,0,.6-.3,1.1,1.1,0,0,0,.3-.7.9.9,0,0,0-.3-.7L46,43.6h3.5a10.6,10.6,0,0,1,9.9,6.8h0a12.5,12.5,0,0,1-9.9,4.9,12.7,12.7,0,0,1-11.4-7.1,4.9,4.9,0,0,1-.4-1.1,4.2,4.2,0,0,1-.4-1c0-.2-.1-.4-.1-.7s-.1-.4-.2-.6v-.5a10,10,0,0,1-.2-1.6A12.6,12.6,0,0,1,49.5,30.1h2l.7.2h.7l1,.4,1.1.4a12.5,12.5,0,0,1,5.6,17.2Z" transform="translate(0 -6.8)"></path><path d="M35.4,46.3l.3,1.2h.1A5.6,5.6,0,0,1,35.4,46.3ZM53.1,28.6l1.2.4h0Z" transform="translate(0 -6.8)"></path></svg>