<svg xmlns="http://www.w3.org/2000/svg" viewBox="0 0 96 96"><rect x="13.795" y="7.751" width="64.399" height="85.014" class="sgmaincolor"/><rect x="24.295" y="69.843" width="43.991" height="10.899" class="sgmaincolor"/><rect x="24.295" y="52" width="43.991" height="10.899" class="sgmaincolor"/><path d="M78.194,6.751H13.8a1,1,0,0,0-1,1V92.766a1,1,0,0,0,1,1h64.4a1,1,0,0,0,1-1V7.751A1,1,0,0,0,78.194,6.751Zm-1,85.015H14.8V8.751h62.4Z"/><path d="M24.3,81.742H68.286a1,1,0,0,0,1-1v-10.9a1,1,0,0,0-1-1H24.3a1,1,0,0,0-1,1v10.9A1,1,0,0,0,24.3,81.742Zm1-10.9H67.286v8.9H25.3Z"/><path d="M24.3,63.9H68.286a1,1,0,0,0,1-1V52a1,1,0,0,0-1-1H24.3a1,1,0,0,0-1,1V62.9A1,1,0,0,0,24.3,63.9Zm1-10.9H67.286v8.9H25.3Z"/><path d="M24.3,43.431a1,1,0,0,0,.56-.172L41.525,31.978l3.894,6.936a1.152,1.152,0,0,0,.079.1c.011.015.014.033.026.048s.018.011.025.019a.99.99,0,0,0,.3.23c.022.011.045.018.068.028a1.014,1.014,0,0,0,.372.081h0a.993.993,0,0,0,.3-.052.9.9,0,0,0,.086-.034,1.044,1.044,0,0,0,.1-.042c.025-.014.039-.038.062-.054a1,1,0,0,0,.09-.052L60.986,27.419l-.057,5.009a1,1,0,0,0,.988,1.011h.012a1,1,0,0,0,1-.988l.082-7.183c0-.018-.009-.032-.01-.049s.007-.031.006-.047c0-.035-.022-.063-.028-.1a1,1,0,0,0-.034-.153c-.011-.03-.022-.057-.035-.085a.983.983,0,0,0-.084-.135c-.02-.028-.026-.062-.049-.089-.008-.01-.021-.014-.03-.024a.807.807,0,0,0-.059-.058,1,1,0,0,0-.141-.1,1.079,1.079,0,0,0-.109-.072c-.023-.011-.046-.019-.069-.028a.993.993,0,0,0-.165-.04,1.159,1.159,0,0,0-.143-.026c-.014,0-.025-.008-.039-.008s-.032.008-.05.009-.029-.007-.045,0l-7.86.66a1,1,0,0,0,.083,2,.794.794,0,0,0,.085,0l4.714-.4L46.573,36.884l-3.837-6.833c-.007-.013-.02-.02-.027-.032s-.008-.027-.017-.04a1.04,1.04,0,0,0-.111-.109,1.111,1.111,0,0,0-.143-.14.958.958,0,0,0-.166-.084.994.994,0,0,0-.18-.072.906.906,0,0,0-.188-.015.928.928,0,0,0-.19,0,.976.976,0,0,0-.19.061.863.863,0,0,0-.149.048c-.013.007-.02.02-.033.028s-.026.008-.038.016L23.735,41.6a1,1,0,0,0,.561,1.828Z"/></svg>