<svg xmlns="http://www.w3.org/2000/svg" viewBox="0 0 96 96"><g opacity="0"><rect width="96" height="96.145" fill="#fff"/></g><circle cx="49" cy="51" r="25" class="sgmaincolor"/><path d="M49,77A26,26,0,1,1,75,51,26.029,26.029,0,0,1,49,77Zm0-50A24,24,0,1,0,73,51,24.028,24.028,0,0,0,49,27Z"/><path d="M89,90H9a1,1,0,0,1-1-1V9A1,1,0,0,1,9,8H89a1,1,0,0,1,1,1V89A1,1,0,0,1,89,90ZM10,88H88V10H10Z"/><path d="M64.794,50.048H50.183V36.437a1,1,0,0,0-2,0V50.048H33.571a1,1,0,0,0,0,2H48.183v13.61a1,1,0,0,0,2,0V52.048H64.794a1,1,0,0,0,0-2Z"/></svg>