<svg id="bc473b49-d2a7-42ac-b2ee-5bc86b9240ef" xmlns="http://www.w3.org/2000/svg" viewBox="0 0 96 96"><polygon points="23 73 23 13 3 13 3 73 3 93 23 93 83 93 83 73 23 73" class="sgmaincolor"/><path d="M83,94H3a1,1,0,0,1-1-1V13a1,1,0,0,1,1-1H23a1,1,0,0,1,1,1V72H83a1,1,0,0,1,1,1V93A1,1,0,0,1,83,94ZM4,92H82V74H23a1,1,0,0,1-1-1V14H4Z" transform="translate(0 0)"/><rect x="48" y="28" width="20" height="50" transform="translate(111 -5) rotate(90)" class="sgmaincolor"/><path d="M83,64H33a1,1,0,0,1-1-1V43a1,1,0,0,1,1-1H83a1,1,0,0,1,1,1V63A1,1,0,0,1,83,64ZM34,62H82V44H34Z" transform="translate(0 0)"/><rect x="33" y="13" width="20" height="20" transform="translate(66 -20) rotate(90)" class="sgmaincolor"/><path d="M53,34H33a1,1,0,0,1-1-1V13a1,1,0,0,1,1-1H53a1,1,0,0,1,1,1V33A1,1,0,0,1,53,34ZM34,32H52V14H34Z" transform="translate(0 0)"/><path d="M83,24H73a1,1,0,0,1-1-1V13a1,1,0,0,1,1-1H83a1,1,0,0,1,1,1V23A1,1,0,0,1,83,24Zm-9-2h8V14H74Z" transform="translate(0 0)"/><rect width="96" height="96" fill="#fff" opacity="0"/></svg>