<svg xmlns="http://www.w3.org/2000/svg" viewBox="0 0 60.6 63.9"><path d="M44.9,19.7H43.5a5.9,5.9,0,0,0-4.8-2.6,5.6,5.6,0,0,0-5,3.1,3,3,0,0,0-3.4,0,5.6,5.6,0,0,0-5-3.1,5.9,5.9,0,0,0-4.8,2.6H19.1a.9.9,0,0,0-1,1,1,1,0,0,0,1,1.1h.6c0,.3-.1.6-.1,1a5.7,5.7,0,0,0,11.4,0,1,1,0,1,1,2,0,5.7,5.7,0,1,0,11.4,0c0-.4-.1-.7-.1-1h.6a1,1,0,0,0,1-1.1A.9.9,0,0,0,44.9,19.7ZM25.3,26.4a3.6,3.6,0,1,1,3.6-3.6A3.6,3.6,0,0,1,25.3,26.4Zm13.4,0a3.6,3.6,0,1,1,3.6-3.6A3.6,3.6,0,0,1,38.7,26.4Z" transform="translate(-1.7 0)"></path><path d="M48.5,13H44.8L43.3,3A3.9,3.9,0,0,0,41.6.4,3.7,3.7,0,0,0,38.5.3L35.4,1.7a11.3,11.3,0,0,1-6.8,0L25.5.3a3.4,3.4,0,0,0-3.1.2A3.5,3.5,0,0,0,20.7,3L19.2,13H15.5a.9.9,0,0,0-1,1,1,1,0,0,0,1,1.1h33a1,1,0,0,0,1-1.1A.9.9,0,0,0,48.5,13ZM23.4,2.3a1.5,1.5,0,0,1,1.3,0l3.1,1.3a12.1,12.1,0,0,0,8.4,0l3.1-1.3a1.5,1.5,0,0,1,1.3,0,1.4,1.4,0,0,1,.6,1l.7,5H22.1l.7-5A1.4,1.4,0,0,1,23.4,2.3ZM21.4,13l.3-2.6H42.3l.3,2.6Z" transform="translate(-1.7 0)"></path><path d="M25.9,42.1l-6.1,3-10.1,5-.7.4a16.8,16.8,0,0,0-3.4,2,4.2,4.2,0,0,0-1.9,3.4v8h-2v-8a6.4,6.4,0,0,1,2.7-5,24,24,0,0,1,3.7-2.2l.7-.3,10.4-5.2,1.5-.7a.1.1,0,0,0,.1-.1L23.7,41l.8-.4h.2c.2.1,1.1.7,1.2,1.2Z" transform="translate(-1.7 0)"></path><path d="M62.3,55.9v8h-2v-8a4.1,4.1,0,0,0-1.6-3.3,22.4,22.4,0,0,0-3.8-2.2L38.1,42.1v-.2c.1-.5,1-1.1,1.2-1.2h.2l16.4,8.1a20.2,20.2,0,0,1,4,2.4A6,6,0,0,1,62.3,55.9Z" transform="translate(-1.7 0)"></path></svg>