<svg xmlns="http://www.w3.org/2000/svg" viewBox="0 0 96 96"><g opacity="0"><rect width="96" height="96" fill="#fff"/></g><rect x="16.18" y="16.18" width="63.64" height="63.64" transform="translate(-19.882 48) rotate(-45)" class="sgmaincolor"/><path d="M93.707,47.293l-45-45a1,1,0,0,0-1.414,0L33.807,15.779h0v0L2.293,47.293a1,1,0,0,0,0,1.414l45,45a1,1,0,0,0,1.414,0l45-45A1,1,0,0,0,93.707,47.293ZM48,91.586,4.414,48,34.488,17.927l8.491,8.794A5.99,5.99,0,0,0,47,35.91V61.09a6,6,0,1,0,2,0V35.91a5.946,5.946,0,0,0,2.1-.779L61.176,45.568a5.969,5.969,0,1,0,1.435-1.393L52.62,33.828a6,6,0,0,0-8.279-8.575L35.9,16.512,48,4.414,91.586,48Z"/></svg>