<svg xmlns="http://www.w3.org/2000/svg" viewBox="0 0 96 96"><rect width="96" height="96" fill="#fff" opacity="0"/><path d="M92,15H4V73H55.8L68.754,84.805c2.641,2.642,5.606,3.576,7.963.763,2.261-2.7,1.343-4.847-1.267-7.47L69.856,73H92Z" class="sgmaincolor"/><ellipse cx="11.483" cy="22.5" rx="2.483" ry="2.5"/><ellipse cx="18.483" cy="22.5" rx="2.483" ry="2.5"/><ellipse cx="25.471" cy="22.5" rx="2.529" ry="2.5"/><path d="M92,14H4a1,1,0,0,0-1,1V73a1,1,0,0,0,1,1H55.414L68.047,85.513c1.815,1.814,3.682,2.767,5.416,2.767.069,0,.138,0,.207,0a5.213,5.213,0,0,0,3.813-2.065h0c3-3.582,1.014-6.467-1.359-8.85L72.438,74H92a1,1,0,0,0,1-1V15A1,1,0,0,0,92,14ZM5,42.553l8.815,4.008L10.034,60.742a1,1,0,0,0,.624,1.2L20.6,65.557,17.382,72H5ZM74.741,78.8c2.6,2.616,2.9,4.1,1.209,6.121a3.266,3.266,0,0,1-2.369,1.352c-1.212.057-2.641-.7-4.153-2.211L39.387,56.688a1.006,1.006,0,0,0-.675-.259.985.985,0,0,0-.4.084c-.063.026-6.218,2.652-10.755-.951-2.169-1.721-2.285-5.446-1.842-8.787L32.027,52.3a1,1,0,0,0,1.071.158L38.48,50.02a1,1,0,0,0,.558-.666l1.325-5.228a1,1,0,0,0-.262-.953l-5.587-5.589c3.673-1.117,6.675-.605,8.943,1.523,4.247,3.99,1.075,11.126,1.042,11.2a1,1,0,0,0,.236,1.154ZM91,72H70.243L46.6,50.45c.8-2.119,2.7-8.6-1.772-12.8-3.18-2.985-7.389-3.458-12.512-1.409a1,1,0,0,0-.335,1.636l6.305,6.308L37.218,48.4l-4.359,1.972-7.184-6.284a1,1,0,0,0-1.641.565c-1.172,6.152-.4,10.35,2.278,12.479,4.621,3.67,10.31,2.121,12.185,1.456L53.219,72h-33.6L22.9,65.447a1,1,0,0,0-.553-1.386L12.2,60.373l3.764-14.115a1,1,0,0,0-.552-1.168L5,40.356V31H56.778l9.092,4.553L63.02,49.8a1,1,0,0,0,1.222,1.166l14.84-3.709L80,61.066a1,1,0,0,0,.656.873L91,65.7Zm0-8.427-9.046-3.29-.8-11.976,5.194,4.452a1,1,0,0,0,1.3-1.518l-7-6c-.01-.009-.024-.011-.034-.019s-.016-.022-.027-.031a.906.906,0,0,0-.124-.053.673.673,0,0,0-.384-.116.98.98,0,0,0-.248.006c-.025.005-.05,0-.075,0L65.29,48.646,67.98,35.2a1,1,0,0,0-.533-1.091l-6.2-3.1H91ZM91,29H57.251l0,0a.987.987,0,0,0-.862,0H5V16H91Z"/></svg>