<svg xmlns="http://www.w3.org/2000/svg" viewBox="0 0 96 96"><g opacity="0"><rect x="-0.08" y="-0.044" width="96.161" height="96.088" fill="#fff"/></g><polygon points="74.246 8.766 67.531 15.427 8 15.399 8.083 87.234 80.083 87.234 80 30.381 88 22.399 74.246 8.766" class="sgmaincolor"/><path d="M89,22.4a1,1,0,0,0-.3-.708L74.95,8.056a1,1,0,0,0-1.41,0l-5.6,5.585-.81.784L8,14.4a1,1,0,0,0-1,1l.082,71.834a1,1,0,0,0,1,1h72a1,1,0,0,0,1-1L81,30.813l7.706-7.706A1,1,0,0,0,89,22.4Zm-9.653,7.24a1,1,0,0,0-.092.092L55.442,53.54,41,55.6l.065-.476c0-.007,0-.012,0-.019v0L42.8,42.509a.969.969,0,0,0,.1-.42,1.012,1.012,0,0,0-.024-.122l.084-.611L68.933,15.473,81.283,27.7Zm-.266,56.6h-70L9,16.4l56.142.026L41.31,40.177a1,1,0,0,0-.285.572l-.046.34H19.142a1,1,0,1,0,0,2H40.7L39.189,54.108H19.142a1,1,0,0,0,0,2H38.914l-.074.537a1,1,0,0,0,.99,1.136.978.978,0,0,0,.142-.01l16.084-2.3a1,1,0,0,0,.565-.283L79,32.809ZM82.7,26.288,70.349,14.061l3.9-3.885L86.583,22.4Z"/><path d="M18.142,67.273a1,1,0,0,0,1,1H69.221a1,1,0,0,0,0-2H19.142A1,1,0,0,0,18.142,67.273Z"/></svg>