<svg xmlns="http://www.w3.org/2000/svg" viewBox="0 0 96 96"><g opacity="0"><rect width="96" height="96" fill="#fff"/></g><polygon points="5.141 15.836 4.716 79.363 15.048 79.433 15.148 64.508 29.431 64.604 29.332 79.528 40.554 79.603 40.741 51.62 55.025 51.715 54.837 79.699 66.06 79.774 66.316 41.53 80.599 41.626 80.343 79.869 91.599 79.945 92.024 16.418 5.141 15.836" class="sgmaincolor"/><path d="M93.023,16.425a.991.991,0,0,0-.316-.729,1,1,0,0,0-.895-.57H48.443l-43.3-.29a.827.827,0,0,0-.709.288,1,1,0,0,0-.184.272.989.989,0,0,0-.327.73V47.739L3.716,79.356a.989.989,0,0,0,.319.731.993.993,0,0,0,.892.567H54.612a.949.949,0,0,0,.218.045l11.223.074,14.283.1,11.256.075H91.6a1.593,1.593,0,0,0,1.213-1.29V47.969Zm-44.594.7,42.383.284V31.7L6.038,31.127l.094-14Zm-20.091,61.4-12.283-.082.087-12.924,12.283.082ZM53.931,52.708V65.69l-.087,12.961h-12.2V65.643l.087-12.976h6ZM67.067,78.654l.242-36.117,12.283.082-.241,36.035Zm23.54,0H81.351L81.6,41.633a1,1,0,0,0-.994-1.007l-14.283-.1a1.254,1.254,0,0,0-.709.288,1,1,0,0,0-.3.705l-.248,37.131H55.931V65.725l.093-14a.983.983,0,0,0-.64-.935.981.981,0,0,0-.453-.121H47.744l-7-.047a1.124,1.124,0,0,0-.453.118.994.994,0,0,0-.648.929V65.653L39.561,78.6l-9.223-.062.094-13.925a1,1,0,0,0-.994-1.006l-14.283-.1h-.007a1,1,0,0,0-1,.993l-.093,13.925-8.128-.055V47.753l.1-14.626,84.787.568v14.26Z"/><path d="M12.6,26.653a2.492,2.492,0,1,0-2.474-2.508A2.492,2.492,0,0,0,12.6,26.653Z"/><path d="M20.072,26.7A2.492,2.492,0,1,0,17.6,24.2,2.492,2.492,0,0,0,20.072,26.7Z"/><path d="M27.546,26.753a2.492,2.492,0,1,0-2.475-2.508A2.492,2.492,0,0,0,27.546,26.753Z"/><path d="M46.159,39.461c0-.01-.006-.019-.007-.03a.985.985,0,0,0-.043-.186,1.04,1.04,0,0,0-.034-.136l0-.007c-.007-.016-.022-.025-.029-.04a1.011,1.011,0,0,0-.108-.151,1.029,1.029,0,0,0-.089-.117c-.015-.014-.032-.023-.047-.035a1,1,0,0,0-.151-.092c-.016-.009-.031-.021-.048-.029a.785.785,0,0,0-.078-.049h-.005c-.02-.007-.041-.007-.061-.014s-.026-.016-.042-.02l-7.45-1.915a1,1,0,1,0-.5,1.937L42.2,39.794,11.059,54.248a1,1,0,0,0,.421,1.907.982.982,0,0,0,.42-.093L43.35,41.467l-1.967,5.141a1,1,0,1,0,1.868.715L46.1,39.88v-.007c.006-.017.005-.034.011-.051s.018-.032.022-.051a.847.847,0,0,0,.007-.133.893.893,0,0,0,.023-.145v-.005C46.165,39.479,46.159,39.47,46.159,39.461Z"/></svg>