<svg xmlns="http://www.w3.org/2000/svg" viewBox="0 0 96 96"><path d="M47.843,79.922c-8.98,0-18.523-2.68-18.523-7.646s9.543-7.644,18.523-7.644,18.523,2.68,18.523,7.644S56.823,79.922,47.843,79.922Zm0-13.29c-9.761,0-16.562,2.974-16.562,5.644s6.8,5.646,16.562,5.646,16.562-2.976,16.562-5.646S57.6,66.632,47.843,66.632Z"/><polygon points="48.046 70.107 28.133 28.483 33.074 10.516 48.046 3.779 63.992 9.768 68.409 26.986 67.66 29.382 48.046 70.107 48.046 70.107" class="sgmaincolor"/><path d="M48.046,71.107h0a1,1,0,0,1-.9-.568L27.23,28.915a1,1,0,0,1-.061-.7l4.94-17.966a1,1,0,0,1,.554-.648L47.636,2.867a1,1,0,0,1,.761-.024L64.344,8.831a1,1,0,0,1,.617.689l4.417,17.218a1,1,0,0,1-.015.547l-.749,2.4a1.091,1.091,0,0,1-.052.134L48.947,70.541A1,1,0,0,1,48.046,71.107ZM29.2,28.389,48.049,67.8,66.728,29.014l.642-2.055L63.153,10.521,48.08,4.86,33.913,11.235Z"/><polyline points="21.596 73.228 17.132 82.497 17.132 82.497 2.81 52.562 6.364 39.64 17.132 34.794 28.6 39.101 31.777 51.485 31.238 53.208 21.596 73.228" class="sgmaincolor"/><path d="M17.132,83.5h0a1,1,0,0,1-.9-.568L1.908,52.993a1,1,0,0,1-.061-.7L5.4,39.374a1,1,0,0,1,.554-.646l10.768-4.846a1,1,0,0,1,.761-.025l11.468,4.308a1,1,0,0,1,.617.689l3.177,12.382a.994.994,0,0,1-.015.546l-.538,1.724a.93.93,0,0,1-.052.136L18.033,82.931A1,1,0,0,1,17.132,83.5ZM3.874,52.467l13.261,27.72,3.559-7.393h0L30.306,52.84l.431-1.382-2.976-11.6L17.166,35.875,7.2,40.358Z"/><path d="M47.858,30.82a8.374,8.374,0,1,1,8.374-8.374A8.383,8.383,0,0,1,47.858,30.82Zm0-14.748a6.374,6.374,0,1,0,6.374,6.374A6.382,6.382,0,0,0,47.858,16.072Z"/><path d="M16.993,54.811a6.663,6.663,0,1,1,6.664-6.663A6.671,6.671,0,0,1,16.993,54.811Zm0-11.326a4.663,4.663,0,1,0,4.664,4.663A4.669,4.669,0,0,0,16.993,43.485Z"/><polyline points="82.983 73.228 78.518 82.497 78.518 82.497 64.197 52.562 67.75 39.64 78.518 34.794 89.986 39.101 93.163 51.485 92.625 53.208 82.983 73.228" class="sgmaincolor"/><path d="M78.519,83.5h0a1,1,0,0,1-.9-.568L63.3,52.993a1,1,0,0,1-.062-.7l3.553-12.922a1,1,0,0,1,.554-.647l10.768-4.846a1.006,1.006,0,0,1,.762-.025l11.468,4.308a1,1,0,0,1,.617.689l3.177,12.382a.994.994,0,0,1-.015.546l-.538,1.724a.934.934,0,0,1-.053.136L79.42,82.931A1,1,0,0,1,78.519,83.5ZM65.261,52.467l13.26,27.72,3.56-7.393h0L91.692,52.84l.432-1.382-2.977-11.6L78.553,35.875,68.59,40.358Z"/><path d="M78.38,54.811a6.663,6.663,0,1,1,6.663-6.663A6.671,6.671,0,0,1,78.38,54.811Zm0-11.326a4.663,4.663,0,1,0,4.663,4.663A4.669,4.669,0,0,0,78.38,43.485Z"/></svg>