<svg xmlns="http://www.w3.org/2000/svg" viewBox="0 0 96 96"><path d="M48.756,8.843A40.24,40.24,0,1,0,89,49.083,40.24,40.24,0,0,0,48.756,8.843Zm-.137,34.316A13.946,13.946,0,0,1,53.6,70.1v4.08H44.239v-3.84A13.81,13.81,0,0,1,34.76,57.019h10.5a3.368,3.368,0,0,0,3.359,3.419,3.406,3.406,0,0,0,3.42-3.36,3.458,3.458,0,0,0-3.42-3.42,13.83,13.83,0,0,1-4.38-26.938V22.159H53.6V26.9a13.862,13.862,0,0,1,8.879,12.9H52.039a3.457,3.457,0,0,0-3.42-3.42A3.405,3.405,0,0,0,45.26,39.8,3.354,3.354,0,0,0,48.619,43.159Z" class="sgmaincolor"/><path d="M48.756,90.322A41.24,41.24,0,1,1,90,49.083,41.286,41.286,0,0,1,48.756,90.322Zm0-80.479A39.24,39.24,0,1,0,88,49.083,39.284,39.284,0,0,0,48.756,9.843Z"/><path d="M53.6,75.178H44.239a1,1,0,0,1-1-1V71.044A14.9,14.9,0,0,1,33.76,57.019a1,1,0,0,1,1-1h10.5a1,1,0,0,1,1,1,2.364,2.364,0,0,0,2.359,2.419,2.393,2.393,0,0,0,2.42-2.36,2.453,2.453,0,0,0-2.42-2.42,14.834,14.834,0,0,1-5.38-28.645V22.159a1,1,0,0,1,1-1H53.6a1,1,0,0,1,1,1v4.07A14.916,14.916,0,0,1,63.479,39.8a1,1,0,0,1-1,1H52.039a1,1,0,0,1-1-1,2.452,2.452,0,0,0-2.42-2.42A2.393,2.393,0,0,0,46.26,39.8a2.362,2.362,0,0,0,2.359,2.36A15,15,0,0,1,63.479,57.2,14.712,14.712,0,0,1,54.6,70.769v3.409A1,1,0,0,1,53.6,75.178Zm-8.361-2H52.6V70.1a1,1,0,0,1,.641-.934A12.91,12.91,0,0,0,58.7,49.124a12.865,12.865,0,0,0-10.079-4.965,4.39,4.39,0,0,1,0-8.78,4.493,4.493,0,0,1,4.3,3.42h8.518a12.909,12.909,0,0,0-8.2-10.966A1,1,0,0,1,52.6,26.9v-3.74H45.239V26.72a1,1,0,0,1-.69.951,12.83,12.83,0,0,0,4.07,24.987,4.48,4.48,0,0,1,4.42,4.42,4.395,4.395,0,0,1-4.42,4.36,4.318,4.318,0,0,1-4.252-3.419H35.8a12.849,12.849,0,0,0,8.752,11.368,1,1,0,0,1,.69.951Z"/></svg>