<svg xmlns="http://www.w3.org/2000/svg" viewBox="0 0 96 96"><polygon points="51 73.142 51 58.778 43.439 51.563 28.038 51.563 12.637 51.563 4.531 58.859 4.531 72.97 15.732 81.371 15.732 63.17 15.732 89.071 39.66 89.017 39.66 81.458 51 73.142" class="sgmaincolor"/><circle cx="28.038" cy="37.028" r="13.78" class="sgmaincolor"/><path d="M91,7H30a1,1,0,0,0-1,1V22.3c-.32-.021-.637-.049-.961-.049a14.774,14.774,0,0,0-5.915,28.315H12.637a1.03,1.03,0,0,0-.181.034,1.086,1.086,0,0,0-.151.028,1.018,1.018,0,0,0-.2.109.959.959,0,0,0-.127.078l-.014.008-8.1,7.3a1,1,0,0,0-.331.743V72.97a1,1,0,0,0,.4.8l10.8,8.1v7.2a1,1,0,0,0,1,1h0l23.929-.053a.837.837,0,0,0,.132-.028l0,.01H91a1,1,0,0,0,1-1V8A1,1,0,0,0,91,7ZM15.258,37.027A12.78,12.78,0,1,1,28.039,49.808,12.794,12.794,0,0,1,15.258,37.027ZM28.321,58.412,16.812,52.563H39.869ZM38.661,88.02l-21.929.049V63.17a1,1,0,0,0-2,0v16.2l-9.2-6.9V59.3L12.8,52.766l15.072,7.66a1.136,1.136,0,0,0,.123.045c.027.009.052.022.079.029a1.024,1.024,0,0,0,.25.034h0a1.024,1.024,0,0,0,.25-.034c.024-.007.046-.018.07-.026a1.08,1.08,0,0,0,.131-.047l14.7-7.448L50,59.206V72.635l-9.339,6.849V63.314a1,1,0,1,0-2,0V88.02ZM90,88H40.661V81.965l10.93-8.017A1,1,0,0,0,52,73.142V58.778a1,1,0,0,0-.31-.723L44.129,50.84a1,1,0,0,0-.69-.277H33.953A14.774,14.774,0,0,0,31,22.547V9H90Z"/><path d="M41,24H81a1,1,0,0,0,0-2H41a1,1,0,0,0,0,2Z"/><path d="M81,35H53a1,1,0,0,0,0,2H81a1,1,0,0,0,0-2Z"/><path d="M81,47H53a1,1,0,0,0,0,2H81a1,1,0,0,0,0-2Z"/></svg>