<svg xmlns="http://www.w3.org/2000/svg" viewBox="0 0 96 96"><polygon points="26.468 29.154 33.171 66.187 77.923 66.215 86.628 58.964 90.749 28.956 26.468 29.154" class="sgmaincolor"/><path d="M39.207,91.049a6.657,6.657,0,0,1-4.6-5.3,1,1,0,0,0-1.98.281,8.6,8.6,0,0,0,6.015,6.942,1.018,1.018,0,0,0,.28.04,1,1,0,0,0,.281-1.96Z"/><path d="M41.952,80.429a4.82,4.82,0,1,0,4.82,4.82A4.826,4.826,0,0,0,41.952,80.429Zm0,7.64a2.82,2.82,0,1,1,2.82-2.82A2.823,2.823,0,0,1,41.952,88.069Z"/><path d="M76.337,80.429a4.82,4.82,0,1,0,4.82,4.82A4.826,4.826,0,0,0,76.337,80.429Zm0,7.64a2.82,2.82,0,1,1,2.82-2.82A2.824,2.824,0,0,1,76.337,88.069Z"/><path d="M90.884,27.966a.945.945,0,0,0-.447.046l-.011,0h0l-4.993.01a26.535,26.535,0,0,0-8.4-18.287.983.983,0,0,0-.079-.092c-.012-.009-.026-.011-.038-.019a26.544,26.544,0,0,0-36.137,0c-.011.009-.025.01-.036.019a.9.9,0,0,0-.076.088,26.533,26.533,0,0,0-8.4,18.405l-5.028.011-2.1-11.5a1,1,0,0,0-.742-.791L10.822,12.482a1,1,0,1,0-.482,1.942l12.946,3.215,8.808,48.217-2.849,2.891a1,1,0,0,0-.288.7v7.365a1,1,0,0,0,1,1H84.752a1,1,0,0,0,0-2H30.957V69.859l2.632-2.671,44.333.027h0a1,1,0,0,0,.639-.232l8.706-7.251a.991.991,0,0,0,.351-.632l4.12-30.008A1,1,0,0,0,90.884,27.966ZM57.85,30.132v9.522a27.765,27.765,0,0,0-9.239,1.789,43.529,43.529,0,0,1-1.687-11.311Zm0,11.522V53.376c-3.488-.623-6.6-4.457-8.607-10A25.565,25.565,0,0,1,57.85,41.654Zm2,11.722V41.654a25.542,25.542,0,0,1,8.608,1.717C66.453,48.919,63.338,52.753,59.85,53.376Zm0-13.722V30.132H70.777A43.529,43.529,0,0,1,69.09,41.443,27.746,27.746,0,0,0,59.85,39.654Zm0-11.579V18.237a27.83,27.83,0,0,0,9.14-1.75,43.248,43.248,0,0,1,1.786,11.565Zm0-11.838V4.889c3.422.611,6.485,4.31,8.493,9.688A25.7,25.7,0,0,1,59.85,16.237ZM64.84,5.264A24.562,24.562,0,0,1,74.9,10.5a18.64,18.64,0,0,1-4.672,3.244A21.091,21.091,0,0,0,64.84,5.264Zm-6.99-.375V16.237a25.64,25.64,0,0,1-8.489-1.67C51.37,9.194,54.431,5.5,57.85,4.889ZM47.473,13.738A18.878,18.878,0,0,1,42.8,10.5,24.557,24.557,0,0,1,52.86,5.264,21.09,21.09,0,0,0,47.473,13.738Zm10.377,4.5v9.842L46.924,28.1a43.284,43.284,0,0,1,1.787-11.616A27.829,27.829,0,0,0,57.85,18.237Zm-12.926,11.9a45.718,45.718,0,0,0,1.792,12.139A20.1,20.1,0,0,0,41.15,46.2a24.523,24.523,0,0,1-6.884-16.071ZM47.355,44.21A21.366,21.366,0,0,0,52.861,53,24.576,24.576,0,0,1,42.6,47.59,18.384,18.384,0,0,1,47.355,44.21Zm22.991,0A18.386,18.386,0,0,1,75.1,47.589,24.567,24.567,0,0,1,64.84,53,21.361,21.361,0,0,0,70.346,44.208Zm6.2,2a20.1,20.1,0,0,0-5.566-3.932,45.718,45.718,0,0,0,1.792-12.139H83.433A24.518,24.518,0,0,1,76.551,46.2Zm6.88-18.178-10.655.023a45.424,45.424,0,0,0-1.889-12.382,20.5,20.5,0,0,0,5.483-3.794A24.529,24.529,0,0,1,83.431,28.025Zm-42.1-16.153a20.481,20.481,0,0,0,5.483,3.794,45.445,45.445,0,0,0-1.89,12.441l-10.658.023A24.522,24.522,0,0,1,41.331,11.872Zm44.36,46.571-8.13,6.772-43.556-.026L27.6,30.144l4.663-.01a26.6,26.6,0,0,0,53.17-.114l4.159-.008Z"/><path d="M20.508,51.765H1.937a1,1,0,1,0,0,2H20.508a1,1,0,0,0,0-2Z"/><path d="M20.508,43.875H9.534a1,1,0,1,0,0,2H20.508a1,1,0,0,0,0-2Z"/></svg>