<svg xmlns="http://www.w3.org/2000/svg" viewBox="0 0 96 96"><g opacity="0"><rect width="96" height="96" fill="#fff"/></g><circle cx="15.305" cy="40.566" r="13.373" class="sgmaincolor"/><circle cx="79.305" cy="40.566" r="13.373" class="sgmaincolor"/><polygon points="5 89 29 89 29 63.688 19.4 55 5 55 5 89" class="sgmaincolor"/><polygon points="89 89 65 89 65 63.688 74.6 55 89 55 89 89" class="sgmaincolor"/><rect x="28" y="68" width="24" height="10" transform="translate(-42.53 62.144) rotate(-53.786)" class="sgmaincolor"/><path d="M89,54H84.369a14.374,14.374,0,1,0-10.007.044.983.983,0,0,0-.433.215l-9.6,8.688a1,1,0,0,0-.329.741V89a1,1,0,0,0,1,1H89a1,1,0,0,0,1-1V55A1,1,0,0,0,89,54ZM66.932,40.566A12.373,12.373,0,1,1,79.305,52.938,12.388,12.388,0,0,1,66.932,40.566ZM88,88H66V64.132L74.986,56H88Z"/><path d="M48.776,42.8a1,1,0,0,0-1.411.1L32.3,60.277a1,1,0,0,0,.1,1.411l5.166,4.479L30,76.5V63.688a1,1,0,0,0-.33-.741l-9.6-8.688a.987.987,0,0,0-.152-.094A14.379,14.379,0,1,0,10.241,54H5a1,1,0,0,0-1,1V89a1,1,0,0,0,1,1H29a1,1,0,0,0,1-1V81.789l6.354,4.653a1,1,0,0,0,.591.194.973.973,0,0,0,.152-.012,1,1,0,0,0,.654-.4L51.93,66.863a1,1,0,0,0-.216-1.4l-2.483-1.819L58.7,52.723a1,1,0,0,0-.1-1.411ZM2.932,40.566A12.373,12.373,0,1,1,15.305,52.938,12.388,12.388,0,0,1,2.932,40.566ZM6,88V56H19.014L28,64.132V79.289a.982.982,0,0,0,0,.9V88ZM49.726,66.488l-13,17.75-6.455-4.726,13-17.75Zm-2.114-4.026-3.966-2.9a1,1,0,0,0-1.4.215l-3.5,4.774-4.287-3.715L48.221,44.963l8.313,7.2Z"/></svg>