<svg xmlns="http://www.w3.org/2000/svg" viewBox="0 0 96 96">
  <g id="b07eb7ae-d163-4a18-85b9-ff11f3b49ad7">
    <path d="M78.007,19.235A16.9,16.9,0,0,0,61.264,36.288a17.187,17.187,0,0,0,.253,2.927H1.2V65.37H67.961V73.8l10.046,6.821L88.053,73.8V70.393L84.7,66.983l3.349-3.41V60.162L84.7,56.752l3.349-3.411V49.853a17.074,17.074,0,0,0,6.7-13.565A16.9,16.9,0,0,0,78.007,19.235Zm-.278,20.22a5.579,5.579,0,1,1,5.579-5.579A5.586,5.586,0,0,1,77.729,39.455Z" class="sgmaincolor"/>
    <circle cx="14.861" cy="31.555" r="2.257"/>
    <circle cx="21.632" cy="31.555" r="2.257"/>
    <circle cx="28.404" cy="31.555" r="2.257"/>
    <path d="M25.561,55.254a1.474,1.474,0,0,0-.575-1.249,7.508,7.508,0,0,0-2.069-.92,14.618,14.618,0,0,1-2.366-.953,3.866,3.866,0,0,1-2.375-3.458,3.366,3.366,0,0,1,.637-2.016,4.156,4.156,0,0,1,1.83-1.384,6.882,6.882,0,0,1,2.677-.5,6.276,6.276,0,0,1,2.662.541A4.234,4.234,0,0,1,27.8,46.845a4,4,0,0,1,.647,2.241H25.571a1.88,1.88,0,0,0-.6-1.489,2.478,2.478,0,0,0-1.7-.532,2.648,2.648,0,0,0-1.638.446,1.4,1.4,0,0,0-.585,1.172,1.344,1.344,0,0,0,.686,1.14,7.7,7.7,0,0,0,2.015.862,8.73,8.73,0,0,1,3.574,1.83,3.642,3.642,0,0,1,1.12,2.72,3.358,3.358,0,0,1-1.369,2.84A6,6,0,0,1,23.387,59.1a7.139,7.139,0,0,1-2.932-.588A4.64,4.64,0,0,1,18.44,56.9a4.128,4.128,0,0,1-.7-2.375h2.883q0,2.308,2.759,2.309a2.687,2.687,0,0,0,1.6-.417A1.356,1.356,0,0,0,25.561,55.254Z"/>
    <path d="M37.619,55.254a1.471,1.471,0,0,0-.575-1.249,7.5,7.5,0,0,0-2.068-.92,14.618,14.618,0,0,1-2.366-.953,3.866,3.866,0,0,1-2.375-3.458,3.372,3.372,0,0,1,.636-2.016A4.159,4.159,0,0,1,32.7,45.274a6.877,6.877,0,0,1,2.676-.5,6.273,6.273,0,0,1,2.662.541,4.237,4.237,0,0,1,1.816,1.528,4.006,4.006,0,0,1,.646,2.241H37.629a1.879,1.879,0,0,0-.6-1.489,2.481,2.481,0,0,0-1.7-.532,2.643,2.643,0,0,0-1.637.446,1.4,1.4,0,0,0-.585,1.172,1.342,1.342,0,0,0,.685,1.14,7.7,7.7,0,0,0,2.016.862,8.726,8.726,0,0,1,3.573,1.83,3.642,3.642,0,0,1,1.12,2.72,3.358,3.358,0,0,1-1.369,2.84A5.993,5.993,0,0,1,35.446,59.1a7.136,7.136,0,0,1-2.932-.588A4.637,4.637,0,0,1,30.5,56.9a4.127,4.127,0,0,1-.694-2.375h2.883q0,2.308,2.759,2.309a2.686,2.686,0,0,0,1.6-.417A1.353,1.353,0,0,0,37.619,55.254Z"/>
    <path d="M53.8,58.913H50.923V52.936h-5.6v5.977H42.447V44.968H45.32v5.65h5.6v-5.65H53.8Z"/>
    <path d="M78.007,18.235a17.486,17.486,0,0,0-11.933,4.733H7.74a1,1,0,0,0-1,1V38.216H1.2a1,1,0,0,0-1,1V65.37a.991.991,0,0,0,.077.382.975.975,0,0,0,.217.326L6.74,72.322v5.032a1,1,0,0,0,1,1H72.882l4.564,3.1a1,1,0,0,0,1.123,0l10.045-6.821a1,1,0,0,0,.438-.827V70.393a1,1,0,0,0-.286-.7l-2.66-2.71,2.66-2.71a1,1,0,0,0,.286-.7V60.162a1,1,0,0,0-.286-.7l-2.66-2.71,2.66-2.711a1,1,0,0,0,.286-.7v-3a18.066,18.066,0,0,0-11.045-32.1ZM8.74,24.968H64.206a18.149,18.149,0,0,0-3.942,11.32,18.394,18.394,0,0,0,.1,1.928H8.74Zm-2,44.526L3.616,66.37H6.74ZM2.2,64.37V40.216h58.49a18,18,0,0,0,6.269,10.121V64.37ZM8.74,76.354V66.37H66.961v7.435a1,1,0,0,0,.439.827l2.537,1.722Zm78.7-27.293a1,1,0,0,0-.39.792v3.079l-3.061,3.12a1,1,0,0,0,0,1.4l3.061,3.119v2.593l-3.061,3.119a1,1,0,0,0,0,1.4l3.061,3.12v2.472l-9.045,6.142-9.046-6.142V49.853a1,1,0,0,0-.389-.792,15.743,15.743,0,1,1,18.87,0Z"/>
    <path d="M77.729,28.3a5.579,5.579,0,1,0,5.579,5.578A5.585,5.585,0,0,0,77.729,28.3Zm0,9.157a3.579,3.579,0,1,1,3.579-3.579A3.583,3.583,0,0,1,77.729,37.455Z"/>
  </g>
</svg>
