<svg xmlns="http://www.w3.org/2000/svg" viewBox="0 0 96 96"><g opacity="0"><rect width="96" height="96" fill="#fff"/></g><path d="M61.282,66.967C61.145,66.859,44.741,5.1,44.741,5.1,44.709,4.98,43.647,1,43.647,1L28.221,65.709,10.312,78.64,21.6,84.369,18.376,89.1l17.041,1.441,7.258-7.159,2.444,4.39,3.135-5.435,13.591,6.384L85.688,86.09Z" class="sgmaincolor"/><path d="M86.306,85.307,62.151,66.348,44.653.9a1,1,0,0,0-.929-.9c-.02,0-.039.008-.058.008h0A.9.9,0,0,0,43.5.029a.97.97,0,0,0-.153.02.952.952,0,0,0-.326.178h0v0a1.016,1.016,0,0,0-.226.27,1.056,1.056,0,0,0-.054.124,1.018,1.018,0,0,0-.064.152L27.334,65.12,9.726,77.833a1,1,0,0,0,.133,1.7l10.269,5.212-2.579,3.792a1,1,0,0,0,.743,1.559l17.041,1.439a.787.787,0,0,0,.084,0h0a.988.988,0,0,0,.368-.071c.021-.008.037-.026.057-.036a1.006,1.006,0,0,0,.26-.17s.011-.006.016-.011l6.322-6.234,1.8,3.24a1,1,0,0,0,.866.514h.008a1,1,0,0,0,.866-.5l2.67-4.629L61.4,89.627a1,1,0,0,0,.534.089L85.8,87.088a1,1,0,0,0,.508-1.781Zm-49.642,2.6,2.554-27.783a1.018,1.018,0,0,0,.026-.3L43,18.982,44.167,80.5,42.034,82.61ZM29.2,65.924,39.075,24.5,32.754,66.182,27.644,73.7ZM39.532,34.85,37.261,59.555l-1.9,2.8Zm9.145,46.582h0l-.022-.01L46.163,80.25l-1.3-68.369L60.3,86.9Zm2.864-47.027,7.99,29.887-2.2-1.723ZM12.226,78.494,26.741,68.015l-1.986,9.929L21.262,83.08ZM36.883,63.667,34.512,89.461,20.165,88.249Zm8.252,22.077-1.216-2.183,1.47-1.45,1.449.68Zm17.361,1.9L57.964,65.62l2.7,2.135a1.026,1.026,0,0,0,.2.122L83.144,85.368Z"/></svg>