<svg xmlns="http://www.w3.org/2000/svg" viewBox="0 0 96 96"><g opacity="0"><rect width="96" height="96" fill="#fff"/></g><polygon points="77.594 67.532 19.533 65.956 15.231 53.751 57.675 13.631 77.594 67.532" class="sgmaincolor"/><path d="M71.344,26.3a1.081,1.081,0,0,0,.85-.412L78.963,17.3a1.08,1.08,0,1,0-1.7-1.338L70.5,24.549a1.08,1.08,0,0,0,.847,1.75Z"/><path d="M75.42,37.99a1.081,1.081,0,0,0,1,.678,1.1,1.1,0,0,0,.4-.078L88.8,33.772a1.08,1.08,0,0,0-.806-2L76.019,36.584A1.08,1.08,0,0,0,75.42,37.99Z"/><path d="M91.49,51.372,79.876,48.9a1.081,1.081,0,1,0-.449,2.115L91.04,53.487a1.081,1.081,0,0,0,.45-2.115Z"/><path d="M58.689,13.257a1.081,1.081,0,0,0-1.756-.411l-7.5,7.089-.007.006L14.847,52.628,4.339,51.615c-.013,0-.025,0-.039,0a1.062,1.062,0,0,0-.223.023,1.131,1.131,0,0,0-.193.035c-.016.005-.032,0-.047.008a.951.951,0,0,0-.154.1,1.082,1.082,0,0,0-.157.1,1.063,1.063,0,0,0-.152.183,1.047,1.047,0,0,0-.1.146,1.03,1.03,0,0,0-.071.233.908.908,0,0,0-.043.137c0,.013,0,.025,0,.038a1.074,1.074,0,0,0,.023.217,1.09,1.09,0,0,0,.037.208c0,.013,0,.026.007.039l8.621,21.688c.01.025.028.044.04.069s.039.069.061.1a1.079,1.079,0,0,0,.189.224c.017.015.025.036.043.05s.023.011.034.019a2.7,2.7,0,0,0,.307.161,1.073,1.073,0,0,0,.32.053h.01a1.078,1.078,0,0,0,.4-.076c.013,0,.02-.015.032-.02a1,1,0,0,0,.125-.082,1.078,1.078,0,0,0,.247-.2c.012-.014.031-.02.044-.035l6.34-8,4.5.122,6.437,16.139a1.136,1.136,0,0,0,.087.147,1.259,1.259,0,0,0,.075.128,1.039,1.039,0,0,0,.133.124,1.026,1.026,0,0,0,.1.094,1.009,1.009,0,0,0,.181.088,1.143,1.143,0,0,0,.106.051,1.079,1.079,0,0,0,.687-.017l27.255-9.912a1.015,1.015,0,0,0,.173-.106,1.053,1.053,0,0,0,.183-.112,1.1,1.1,0,0,0,.125-.163,1.115,1.115,0,0,0,.122-.169,1.069,1.069,0,0,0,.053-.2,1.023,1.023,0,0,0,.051-.2,1.121,1.121,0,0,0-.028-.214.989.989,0,0,0-.026-.2L58.711,68.1l18.854.512h.03a1.081,1.081,0,0,0,1.014-1.455ZM13.171,72.243,5.894,53.935l8.548.825,3.874,10.993Zm44.7.1L32.6,81.538l-5.7-14.3,29.514.8ZM20.305,64.9,16.484,54.053,49.762,22.6,59.4,47.225a1.083,1.083,0,0,0,1.007.687,1.061,1.061,0,0,0,.393-.074,1.081,1.081,0,0,0,.613-1.4L51.456,21l5.772-5.456,18.8,50.868Z"/></svg>