<svg xmlns="http://www.w3.org/2000/svg" viewBox="0 0 53.136 61.498"><path d="M39.586,55.446a1,1,0,0,0-1,1c0,1.666-6.049,4.085-15.527,4.085S7.531,58.112,7.531,56.446v-7.2c3.09,2.052,9.327,3.116,15.528,3.116q1.267,0,2.486-.055a1,1,0,0,0,.954-1.044.989.989,0,0,0-1.044-.954q-1.173.052-2.4.053c-9.479,0-15.528-2.419-15.528-4.085v-7.2c3.09,2.052,9.327,3.116,15.528,3.116q1.269,0,2.489-.055a1,1,0,0,0-.091-2c-.782.035-1.583.053-2.4.053-9.479,0-15.528-2.418-15.528-4.085V28.9c3.09,2.052,9.327,3.117,15.528,3.117,8.71,0,17.527-2.09,17.527-6.085s-8.817-6.085-17.527-6.085S5.531,21.938,5.531,25.934V56.446c0,4,8.818,6.085,17.528,6.085s17.527-2.09,17.527-6.085A1,1,0,0,0,39.586,55.446Zm-16.527-33.6c9.478,0,15.527,2.419,15.527,4.085s-6.049,4.085-15.527,4.085S7.531,27.6,7.531,25.934,13.58,21.849,23.059,21.849Z" transform="translate(-5.531 -1.033)"/><path d="M37.5,21.461a1,1,0,0,1-.744-1.667,9.819,9.819,0,0,0,2.185-5.866c-4.691,2.985-11.912,1.047-11.994,1.024a1.149,1.149,0,0,1,.44-2.248c4.087.372,7.22-.475,9.29-2.519a10.591,10.591,0,0,0,2.8-6.293C37.1,5.047,33.831,5.6,30.417,6.184,24.17,7.247,17.1,8.45,14.345,13.457a16.871,16.871,0,0,0-1.939,6,1,1,0,0,1-1.984-.258,18.886,18.886,0,0,1,2.171-6.7c3.223-5.852,10.8-7.14,17.477-8.277,4.082-.7,7.926-1.351,9.869-2.953a1,1,0,0,1,1.637.752c.027,1.415-.143,6.287-3.494,9.594a10.087,10.087,0,0,1-1.727,1.366,6.508,6.508,0,0,0,2.814-1.855,1,1,0,0,1,1.755.569c.116,1.383.264,6.152-2.678,9.44A1,1,0,0,1,37.5,21.461ZM27.176,14.693l.05,0Zm.278-1.675.017,0Z" transform="translate(-5.531 -1.033)"/><path d="M30.451,56.967c-.034,0-.068,0-.1,0a1,1,0,0,1-.81-.585c-.812-1.8-4.62-11.243.143-19.885,3.223-5.852,10.8-7.14,17.477-8.277,4.082-.7,7.926-1.351,9.869-2.953a1,1,0,0,1,1.637.752c.027,1.415-.143,6.287-3.495,9.594a10.073,10.073,0,0,1-1.725,1.366,6.51,6.51,0,0,0,2.813-1.855,1,1,0,0,1,1.755.569c.128,1.525.269,6.743-3.238,10.012a.383.383,0,0,1-.029.028,9.247,9.247,0,0,1-2.543,1.66,1,1,0,0,1,1.046,1.129,6.474,6.474,0,0,1-2.361,4.2c-1.93,1.513-4.742,1.914-8.358,1.194-7.777-1.546-10.752,1.934-11.27,2.648A1,1,0,0,1,30.451,56.967ZM56.567,27.892c-2.383,1.154-5.647,1.711-9.06,2.292-6.248,1.063-13.316,2.266-16.073,7.273-3.568,6.474-1.78,13.519-.641,16.679,1.785-1.561,5.477-3.514,12.127-2.191,3.02.6,5.285.33,6.733-.806a4.19,4.19,0,0,0,1.123-1.365c-7.451,1.521-10.234-1.8-10.546-2.213a1.151,1.151,0,0,1-.034-1.339,1.138,1.138,0,0,1,1.209-.476c5.5,1.252,9.529.756,11.959-1.464l.024-.023a9.417,9.417,0,0,0,2.643-6.332c-4.691,2.988-11.913,1.047-11.995,1.025a1.149,1.149,0,0,1,.44-2.248c4.086.37,7.22-.476,9.29-2.519A10.583,10.583,0,0,0,56.567,27.892ZM40.958,47.7h0Zm3.307-9,.05,0Zm.277-1.675.019,0Z" transform="translate(-5.531 -1.033)"/></svg>