<svg xmlns="http://www.w3.org/2000/svg" viewBox="0 0 96 96"><g opacity="0"><rect width="96" height="96" fill="#fff"/></g><polygon points="57.201 40.215 57.201 13.319 18.981 13.319 18.981 82.682 57.201 82.682 77.019 82.682 77.019 40.215 57.201 40.215" class="sgmaincolor"/><path d="M88.344,81.681H78.02V40.215a1,1,0,0,0-1-1H58.2v-25.9a1,1,0,0,0-1-1H18.981a1,1,0,0,0-1,1V81.681H7.656a1,1,0,0,0,0,2H88.344a1,1,0,0,0,0-2ZM19.981,14.319H56.2V81.681H19.981ZM58.2,81.681V41.215H76.02V81.681Z"/><path d="M34.552,25.059H26.059a1,1,0,0,0-1,1v8.493a1,1,0,0,0,1,1h8.493a1,1,0,0,0,1-1V26.059A1,1,0,0,0,34.552,25.059Zm-1,8.493H27.059V27.059h6.493Z"/><path d="M50.123,25.059H41.63a1,1,0,0,0-1,1v8.493a1,1,0,0,0,1,1h8.493a1,1,0,0,0,1-1V26.059A1,1,0,0,0,50.123,25.059Zm-1,8.493H42.63V27.059h6.493Z"/><path d="M34.552,43.461H26.059a1,1,0,0,0-1,1v8.494a1,1,0,0,0,1,1h8.493a1,1,0,0,0,1-1V44.461A1,1,0,0,0,34.552,43.461Zm-1,8.494H27.059V45.461h6.493Z"/><path d="M50.123,43.461H41.63a1,1,0,0,0-1,1v8.494a1,1,0,0,0,1,1h8.493a1,1,0,0,0,1-1V44.461A1,1,0,0,0,50.123,43.461Zm-1,8.494H42.63V45.461h6.493Z"/><path d="M34.552,61.864H26.059a1,1,0,0,0-1,1v8.493a1,1,0,0,0,1,1h8.493a1,1,0,0,0,1-1V62.864A1,1,0,0,0,34.552,61.864Zm-1,8.493H27.059V63.864h6.493Z"/><path d="M50.123,61.864H41.63a1,1,0,0,0-1,1v8.493a1,1,0,0,0,1,1h8.493a1,1,0,0,0,1-1V62.864A1,1,0,0,0,50.123,61.864Zm-1,8.493H42.63V63.864h6.493Z"/></svg>