<svg xmlns="http://www.w3.org/2000/svg" viewBox="0 0 96 96"><g opacity="0"><rect width="96" height="96" fill="#fff"/></g><polygon points="3 55 14 52 18 59 23 50 50 53 60 50 67 64 72 55 93 79 77 85 45 81 30 87 3 55" class="sgmaincolor"/><path d="M18,36.1a5,5,0,1,1,5-5A5.006,5.006,0,0,1,18,36.1Zm0-8a3,3,0,1,0,3,3A3,3,0,0,0,18,28.1Z"/><path d="M93.753,78.342,73.025,54.653,84.886,32.009A1,1,0,0,0,85,31.545V20.272a1,1,0,0,0-.283-.7L73.762,8.3a1,1,0,0,0-.717-.3H62.089a1,1,0,0,0-.717.3L50.417,19.575a1,1,0,0,0-.283.7V31.545a1.009,1.009,0,0,0,.1.439L58.72,49.34l-8.812,2.643L24.623,49.174l7.251-13A1,1,0,0,0,32,35.683V26.841a1,1,0,0,0-.286-.7L23.048,17.3a1,1,0,0,0-.715-.3H13.667a1,1,0,0,0-.715.3L4.286,26.141a1,1,0,0,0-.286.7v8.842a1,1,0,0,0,.126.487l8.463,15.178L2.737,54.035a1,1,0,0,0-.5,1.61l27,32A1,1,0,0,0,30,88a1.016,1.016,0,0,0,.351-.063l15.768-5.914,30.753,3.969c.031,0,.061,0,.092,0,.013,0,.024.008.036.008s.029-.007.043-.008a1.015,1.015,0,0,0,.272-.047c.009,0,.019,0,.029-.007h.008l16-6a1,1,0,0,0,.4-1.595ZM52.134,20.679,62.512,10h10.11L83,20.679V31.3L67.031,61.786l-14.9-30.473Zm-2.919,33.24L74.559,83.677l-28.04-3.619L23.149,51.819l.418-.75ZM6,27.249,14.086,19h7.828L30,27.249v8.174l-7.823,14.03a1.133,1.133,0,0,0-.073.132L18,56.946,6,35.423ZM30.31,85.816,4.774,55.553l8.818-2.4,3.534,6.339a1,1,0,0,0,1.748,0l3.23-5.793L44.335,80.556Zm47-2L51.552,53.578l8.058-2.417L66.1,64.439a1,1,0,0,0,.884.561H67a1,1,0,0,0,.886-.536l4.144-7.911L91.3,78.571Z"/><path d="M67.566,33a7,7,0,1,1,7-7A7.009,7.009,0,0,1,67.566,33Zm0-12a5,5,0,1,0,5,5A5.006,5.006,0,0,0,67.566,21Z"/></svg>