<svg xmlns="http://www.w3.org/2000/svg" viewBox="0 0 96 96"><g opacity="0"><rect width="96" height="96" fill="#fff"/></g><rect x="3.991" y="16.1" width="88.077" height="62.971" class="sgmaincolor"/><ellipse cx="11.624" cy="24.349" rx="2.526" ry="2.483"/><ellipse cx="26.942" cy="50.247" rx="2.526" ry="2.483"/><ellipse cx="67.151" cy="50.247" rx="2.526" ry="2.483"/><ellipse cx="19.201" cy="24.349" rx="2.526" ry="2.483"/><ellipse cx="26.777" cy="24.349" rx="2.526" ry="2.483"/><path d="M92.069,15.1H3.992a1,1,0,0,0-1,1V79.071a1,1,0,0,0,1,1H92.069a1,1,0,0,0,1-1V16.1A1,1,0,0,0,92.069,15.1Zm-1,2V31.333H4.992V17.1ZM4.992,78.071V33.333H91.069V78.071Z"/><path d="M46.116,59.322a6.757,6.757,0,0,1-6.744-6.755,1,1,0,1,1,2,0,4.744,4.744,0,1,0,9.488,0,1,1,0,1,1,2,0A6.757,6.757,0,0,1,46.116,59.322Z"/></svg>