<svg xmlns="http://www.w3.org/2000/svg" viewBox="0 0 96 96"><g opacity="0"><rect width="96" height="96" fill="#fff"/></g><polygon points="87.207 25.77 74.668 25.743 74.702 11.466 61.317 11.466 61.317 17.415 20.537 17.514 20.741 25.743 7.649 25.651 7.649 35.153 12.804 35.26 12.804 84.534 81.906 84.534 81.906 35.26 87.093 35.348 87.207 25.77" class="sgmaincolor"/><path d="M89.64,83.534H82.906V36.341l4.185.007h0a1,1,0,0,0,1-.989l.114-9.577a1,1,0,0,0-1-1.012L75.7,24.753V11.466a1,1,0,0,0-1-1H61.21a1,1,0,0,0-1,1v5.048H20.537a1,1,0,0,0-1,1v7.155L7.651,24.651a1.158,1.158,0,0,0-.709.293,1,1,0,0,0-.293.707v9.578a1,1,0,0,0,1,1l4.158.006v47.3H6.36a1,1,0,1,0,0,2H89.64a1,1,0,0,0,0-2ZM73.7,12.466V24.678H62.219V17.514c0-.016-.008-.029-.009-.044v-5ZM21.537,18.514H60.21v6.164H25.658l-4.121-.006ZM8.649,26.653l11.85.018c.013,0,.025.007.038.007h5.127l60.531.091L86.1,34.346l-3.806,0a.985.985,0,0,0-.392-.081H28.585L8.649,34.23ZM62.862,75.8H30.56V70.464h32.3Zm-32.3,7.733V77.8h32.3v5.733Zm34.3,0V69.464a1,1,0,0,0-1-1H29.56a1,1,0,0,0-1,1v14.07H13.805V36.26H28.571l52.335.078v47.2Z"/><path d="M32.137,45.265h-11.6a1,1,0,0,0-1,1v11.6a1,1,0,0,0,1,1h11.6a1,1,0,0,0,1-1v-11.6A1,1,0,0,0,32.137,45.265Zm-1,11.6h-9.6v-9.6h9.6Z"/><path d="M56.13,48.239H38.581a1,1,0,0,0-1,1v11.6a1,1,0,0,0,1,1H56.13a1,1,0,0,0,1-1v-11.6A1,1,0,0,0,56.13,48.239Zm-1,11.6H39.581v-9.6H55.13Z"/><path d="M74.173,45.265h-11.6a1,1,0,0,0-1,1v11.6a1,1,0,0,0,1,1h11.6a1,1,0,0,0,1-1v-11.6A1,1,0,0,0,74.173,45.265Zm-1,11.6h-9.6v-9.6h9.6Z"/></svg>