<svg xmlns="http://www.w3.org/2000/svg" viewBox="0 0 96 96"><g opacity="0"><rect width="96" height="96" fill="#fff"/></g><rect x="36.566" y="26.56" width="42.88" height="42.88" class="sgmaincolor"/><path d="M79.373,25.56H36.493a1,1,0,0,0-1,1V46.4H16.627a1,1,0,1,0,0,2H35.493V69.44a1,1,0,0,0,1,1h42.88a1,1,0,0,0,1-1V26.56A1,1,0,0,0,79.373,25.56Zm-1,42.88H37.493V48.4H59.849l-7.506,8.173a1,1,0,0,0,1.472,1.353l9.045-9.849a.914.914,0,0,0,.077-.127.679.679,0,0,0,.15-.355.933.933,0,0,0,.028-.181.961.961,0,0,0-.024-.192,1.017,1.017,0,0,0-.044-.181.939.939,0,0,0-.1-.174.912.912,0,0,0-.071-.125L53.832,36.381A1,1,0,1,0,52.326,37.7l7.6,8.706H37.493V27.56h40.88Z"/></svg>