<svg xmlns="http://www.w3.org/2000/svg" viewBox="0 0 96 96"><g opacity="0"><rect width="96" height="96" fill="#fff"/></g><path d="M32.588,25.063a36.687,36.687,0,1,1-7.109,6.369" class="sgmaincolor"/><path d="M53.286,17.667a37.463,37.463,0,0,0-21.263,6.57,1,1,0,0,0,1.131,1.651,35.681,35.681,0,1,1-6.917,6.2,1,1,0,0,0-1.516-1.305A37.668,37.668,0,1,0,53.286,17.667Z"/><path d="M31.727,38.653a1,1,0,0,0-1.395.23,28.22,28.22,0,1,0,7.289-7.048A1,1,0,1,0,38.732,33.5a26.239,26.239,0,1,1-6.775,6.55A1,1,0,0,0,31.727,38.653Z"/><path d="M38.118,45.941a1,1,0,0,0-1.357.4,18.812,18.812,0,1,0,16.525-9.818A18.614,18.614,0,0,0,44.9,38.495a1,1,0,1,0,.893,1.789,16.636,16.636,0,0,1,7.5-1.761A16.8,16.8,0,1,1,38.517,47.3,1,1,0,0,0,38.118,45.941Z"/><path d="M22.534,23.911,56.158,58.523H49.1a1,1,0,0,0,0,2h9.429a1,1,0,0,0,.379-.076,95.141,95.141,0,0,1,.318-.207l0-.005a1,1,0,0,0,.3-.7V50.1a1,1,0,0,0-2,0v6.963L23.964,22.513l.979-6.848c0-.016,0-.031,0-.048a.932.932,0,0,0-.012-.2.986.986,0,0,0-.026-.182.93.93,0,0,0-.077-.159,1.031,1.031,0,0,0-.108-.181c-.01-.013-.013-.028-.024-.04L14.216,3.327a1.017,1.017,0,0,0-.107-.079.95.95,0,0,0-.17-.124.971.971,0,0,0-.187-.067,1.011,1.011,0,0,0-.134-.047.424.424,0,0,0-.051,0,.988.988,0,0,0-.188.01.975.975,0,0,0-.2.029.908.908,0,0,0-.154.074.994.994,0,0,0-.183.109c-.012.01-.029.013-.042.025a1.025,1.025,0,0,0-.083.113.946.946,0,0,0-.118.162.916.916,0,0,0-.07.2.963.963,0,0,0-.046.127l-.94,6.578-7.623.953a.9.9,0,0,0-.1.033.98.98,0,0,0-.187.063.933.933,0,0,0-.172.1.614.614,0,0,0-.089.053c-.022.02-.031.047-.051.069a.979.979,0,0,0-.118.161.855.855,0,0,0-.085.168.9.9,0,0,0-.044.179.931.931,0,0,0-.015.2c0,.028-.01.054-.007.083a.919.919,0,0,0,.034.1.9.9,0,0,0,.053.167.963.963,0,0,0,.111.186,1.037,1.037,0,0,0,.054.091L13.784,24.577c.012.014.029.018.042.03a.972.972,0,0,0,.225.161.875.875,0,0,0,.1.058.973.973,0,0,0,.376.078h0a1.046,1.046,0,0,0,.124-.008ZM6.084,13.134l6.468-.809a.757.757,0,0,0,.1-.032.969.969,0,0,0,.213-.071,1.09,1.09,0,0,0,.132-.078.968.968,0,0,0,.16-.14.989.989,0,0,0,.1-.118.9.9,0,0,0,.1-.188.93.93,0,0,0,.052-.154.558.558,0,0,0,.023-.069l.748-5.229,8.73,9.6-.874,6.112-7.107.888Z"/></svg>