<svg xmlns="http://www.w3.org/2000/svg" viewBox="0 0 96 96"><g id="b7b2fc68-62b8-44e2-8e10-ab5900aab21d" data-name="Icons"><rect width="96" height="96" fill="#fff" opacity="0"/><polygon points="18 5 64 5 82 23 82 89 18 89 18 5" class="sgmaincolor"/><path d="M82.922,22.615a.975.975,0,0,0-.216-.323l-18-18a.975.975,0,0,0-.323-.216A.988.988,0,0,0,64,4H18a1,1,0,0,0-1,1V89a1,1,0,0,0,1,1H82a1,1,0,0,0,1-1V23A.988.988,0,0,0,82.922,22.615ZM65,7.414,79.586,22H65ZM19,88V6H63V23a1,1,0,0,0,1,1H81V88Z"/><path d="M70.707,53.293l-6-6c-.01-.011-.025-.014-.036-.024a.912.912,0,0,0-.165-.11.938.938,0,0,0-.164-.091A68.867,68.867,0,0,0,64,47H54.992a13,13,0,1,0-9.984,0H37a1.017,1.017,0,0,0-.2.035,1.107,1.107,0,0,0-.128.023,1,1,0,0,0-.239.132c-.027.019-.058.028-.083.049l0,0-7,6A1,1,0,0,0,29,54V66a1,1,0,0,0,.375.781L39,74.48V80a1,1,0,0,0,1,1H60a1,1,0,0,0,1-1V74.521l9.573-6.7A1,1,0,0,0,71,67V54A1,1,0,0,0,70.707,53.293ZM39,35A11,11,0,1,1,50,46,11.013,11.013,0,0,1,39,35ZM50.478,53.782,41.144,49h18.7ZM69,66.479l-8,5.6V58a1,1,0,0,0-2,0V79H41V58a1,1,0,0,0-2,0V71.919l-8-6.4V54.46L37.142,49.2l12.879,6.6a1.037,1.037,0,0,0,.124.046c.028.009.053.023.082.03a.966.966,0,0,0,.25.034h0a.977.977,0,0,0,.25-.034c.026-.007.05-.019.076-.028a1.1,1.1,0,0,0,.128-.047l12.874-6.575L69,54.414Z"/></g></svg>