<svg xmlns="http://www.w3.org/2000/svg" viewBox="0 0 96 96"><g opacity="0"><rect width="96" height="96" fill="#fff"/></g><path d="M60.081,45.288l9.425-5.854c2.227-1.385,4.461-2.758,6.677-4.163a2.614,2.614,0,0,1,3.212-.017,3.188,3.188,0,0,1,1.048,3.314q-2.467,16.08-4.927,32.163c-.15.98-.289,1.964-.486,2.934A2.6,2.6,0,0,1,72.4,75.96q-24.428.008-48.857,0a2.615,2.615,0,0,1-2.629-2.511q-1.122-7.116-2.2-14.24c-1.054-6.892-2.083-13.789-3.159-20.677a3.108,3.108,0,0,1,1.027-3.217A2.609,2.609,0,0,1,19.8,35.3l15.221,9.455.82.505c.146-.316.292-.6.413-.9q4.521-11.056,9.028-22.119c.529-1.3,1.29-2.2,2.672-2.212,1.431-.012,2.2.941,2.735,2.26q4.5,11.066,9.029,22.119C59.818,44.669,59.926,44.92,60.081,45.288Z" class="sgmaincolor"/><path d="M47.975,76.964q-12.215,0-24.428,0A3.617,3.617,0,0,1,19.929,73.6q-1.122-7.118-2.2-14.244L16.65,52.289q-1.03-6.8-2.084-13.6a4.09,4.09,0,0,1,1.4-4.162,3.553,3.553,0,0,1,4.354-.07L35.4,43.816l1.554-3.8q3.709-9.069,7.4-18.144a3.943,3.943,0,0,1,3.589-2.836h.037c2.46,0,3.342,2.169,3.632,2.883q3.528,8.666,7.07,17.321l1.871,4.578,10.142-6.3c1.655-1.026,3.309-2.051,4.954-3.093a3.564,3.564,0,0,1,4.345.026,4.139,4.139,0,0,1,1.438,4.267l-5,32.634c-.128.839-.255,1.679-.423,2.509a3.6,3.6,0,0,1-3.608,3.1Q60.19,76.963,47.975,76.964ZM18.11,35.754a1.461,1.461,0,0,0-.916.351c-.443.344-.868.883-.651,2.272q1.062,6.8,2.085,13.612L19.7,59.058q1.089,7.119,2.2,14.235c.175,1.106.728,1.666,1.643,1.667q24.426.008,48.856,0a1.632,1.632,0,0,0,1.647-1.494c.162-.8.284-1.6.406-2.412l5-32.638c.227-1.478-.2-2.023-.658-2.361a1.611,1.611,0,0,0-2.077.061c-1.652,1.046-3.311,2.075-4.971,3.1L60.607,46.138a1,1,0,0,1-1.449-.463l-.369-.883L56.829,40q-3.539-8.66-7.069-17.324c-.557-1.366-1.128-1.643-1.8-1.637s-1.222.278-1.754,1.588Q42.519,31.705,38.8,40.772l-1.624,3.973c-.091.221-.194.438-.3.662l-.131.278a1,1,0,0,1-1.432.43l-.822-.507L19.27,36.153A2.227,2.227,0,0,0,18.11,35.754Z"/></svg>