<svg xmlns="http://www.w3.org/2000/svg" viewBox="0 0 96 96"><polygon points="37.847 21.748 20.175 54.035 37.847 84.153 74.501 84.153 91.519 52.95 73.847 21.748 37.847 21.748" class="sgmaincolor"/><path d="M73.63,43.6a1,1,0,0,0-1.382-.3L58.471,52.113a2.755,2.755,0,0,0-4.119-.473L37.979,35.759a1,1,0,1,0-1.393,1.435L53.424,53.526c-.006.072-.022.14-.022.213a2.789,2.789,0,0,0,5.546.444l14.378-9.2A1,1,0,0,0,73.63,43.6Z"/><path d="M92.519,52.945a1.006,1.006,0,0,0-.069-.34c-.01-.027-.02-.053-.032-.079s-.016-.047-.028-.069l-17.673-31.2a1,1,0,0,0-.87-.507H57.557v-9h8.462a1,1,0,0,0,0-2H47.1a1,1,0,0,0,0,2h8.462v9H37.848a1,1,0,0,0-.877.52L19.3,53.555a.99.99,0,0,0-.122.5v.006c0,.014.007.026.008.039a1.163,1.163,0,0,0,.127.434l0,0L36.985,84.658a1,1,0,0,0,.863.494H74.5a1,1,0,0,0,.878-.521L92.4,53.429c.01-.019.014-.04.023-.06s.02-.05.029-.076a.99.99,0,0,0,.067-.329l0-.015ZM73.907,83.152H57.557v-7.43a1,1,0,0,0-2,0v7.43H38.42L21.936,55.06l12-.015a1,1,0,0,0,0-2h0l-12.083.015L38.441,22.747H55.557V31.03a1,1,0,0,0,2,0V22.747H73.264l16.54,29.2-12.139.006a1,1,0,0,0,0,2h0l12.167-.006Z"/><path d="M19.449,67.738H1a1,1,0,0,1,0-2H19.449a1,1,0,0,1,0,2Z"/><path d="M25.275,76.54H6.826a1,1,0,1,1,0-2H25.275a1,1,0,0,1,0,2Z"/><path d="M31.1,85.342H12.652a1,1,0,0,1,0-2H31.1a1,1,0,0,1,0,2Z"/></svg>