<svg xmlns="http://www.w3.org/2000/svg" viewBox="0 0 96 96"><g opacity="0"><rect width="96" height="96" fill="#fff"/></g><path d="M77.154,4.013H21.319l-6.625,6.624V87.292l6.625,6.625H77.154l6.624-6.625V10.637ZM62.93,93.66H34.785V80.108H62.93Z" class="sgmaincolor"/><path d="M84.485,9.93,77.861,3.305a1,1,0,0,0-.707-.293H21.318a1,1,0,0,0-.707.293L13.987,9.93a1,1,0,0,0-.293.707V87.292a1,1,0,0,0,.293.707l6.624,6.625a1,1,0,0,0,.707.293H77.154a1,1,0,0,0,.707-.293L84.485,88a1,1,0,0,0,.293-.707V10.637A1,1,0,0,0,84.485,9.93ZM21.733,5.012H76.74l6.038,6.039v67.67H15.694V11.051Zm31.709,76.1V92.659H45.031V81.108Zm-37.748,5.77V80.721H33.567v12.2H21.733Zm20.091-5.77h7.246V92.659H35.785ZM61.93,92.659H55.442V81.108H61.93Zm14.81.258H63.958v-12.2h18.82v6.157Z"/><path d="M73.842,18.261a4.312,4.312,0,1,1,4.311-4.312A4.317,4.317,0,0,1,73.842,18.261Zm0-6.624a2.312,2.312,0,1,0,2.311,2.312A2.316,2.316,0,0,0,73.842,11.637Z"/><path d="M25.577,18.261a4.312,4.312,0,1,1,4.313-4.312A4.316,4.316,0,0,1,25.577,18.261Zm0-6.624a2.312,2.312,0,1,0,2.313,2.312A2.315,2.315,0,0,0,25.577,11.637Z"/><path d="M73.842,73.968a4.313,4.313,0,1,1,4.311-4.313A4.318,4.318,0,0,1,73.842,73.968Zm0-6.625a2.313,2.313,0,1,0,2.311,2.312A2.315,2.315,0,0,0,73.842,67.343Z"/><path d="M25.577,73.968a4.313,4.313,0,1,1,4.313-4.313A4.317,4.317,0,0,1,25.577,73.968Zm0-6.625a2.313,2.313,0,1,0,2.313,2.312A2.314,2.314,0,0,0,25.577,67.343Z"/><path d="M30.5,35.211l1-8.364h9.558v2.942H34.572L34.2,33.037a4.506,4.506,0,0,1,1.062-.417,4.857,4.857,0,0,1,1.286-.18,4.8,4.8,0,0,1,3.745,1.443A5.814,5.814,0,0,1,41.6,37.931a5.808,5.808,0,0,1-.7,2.848,4.827,4.827,0,0,1-1.97,1.959,6.22,6.22,0,0,1-3,.685,6.688,6.688,0,0,1-2.887-.634,5.173,5.173,0,0,1-2.111-1.739,4.223,4.223,0,0,1-.752-2.5h3.795a2.145,2.145,0,0,0,.573,1.423,1.816,1.816,0,0,0,1.358.527q1.911,0,1.91-2.824,0-2.611-2.335-2.611a2.33,2.33,0,0,0-1.977.851Z"/><path d="M54.944,36.516a7.808,7.808,0,0,1-1.488,5.11,5.14,5.14,0,0,1-4.194,1.8,5.168,5.168,0,0,1-4.223-1.808,7.8,7.8,0,0,1-1.493-5.1V33.529a7.809,7.809,0,0,1,1.487-5.11,5.156,5.156,0,0,1,4.206-1.8A5.156,5.156,0,0,1,53.45,28.43a7.815,7.815,0,0,1,1.494,5.11Zm-3.785-3.47a5.838,5.838,0,0,0-.46-2.634,1.539,1.539,0,0,0-1.46-.87,1.5,1.5,0,0,0-1.421.809,5.511,5.511,0,0,0-.477,2.448v4.178a5.872,5.872,0,0,0,.461,2.678,1.546,1.546,0,0,0,1.46.848,1.527,1.527,0,0,0,1.427-.825,5.624,5.624,0,0,0,.47-2.589Z"/><path d="M68.264,36.516a7.8,7.8,0,0,1-1.489,5.11,5.813,5.813,0,0,1-8.416-.011,7.79,7.79,0,0,1-1.494-5.1V33.529a7.8,7.8,0,0,1,1.488-5.11,5.814,5.814,0,0,1,8.417.011,7.815,7.815,0,0,1,1.494,5.11Zm-3.785-3.47a5.852,5.852,0,0,0-.46-2.634,1.54,1.54,0,0,0-1.46-.87,1.5,1.5,0,0,0-1.421.809A5.509,5.509,0,0,0,60.66,32.8v4.178a5.886,5.886,0,0,0,.461,2.678,1.546,1.546,0,0,0,1.46.848,1.526,1.526,0,0,0,1.427-.825,5.609,5.609,0,0,0,.471-2.589Z"/><path d="M48.616,63.177a6.322,6.322,0,0,1-2.661,1.628,11.48,11.48,0,0,1-3.842.618,6.848,6.848,0,0,1-5.131-1.965,7.954,7.954,0,0,1-2.056-5.469l-.011-1.416a9.739,9.739,0,0,1,.854-4.216,6.336,6.336,0,0,1,2.442-2.775,6.915,6.915,0,0,1,3.678-.971,7.244,7.244,0,0,1,4.745,1.4,5.93,5.93,0,0,1,1.972,4.172h-3.8a3.1,3.1,0,0,0-.875-1.954,2.831,2.831,0,0,0-1.91-.584A2.572,2.572,0,0,0,39.733,52.9a6.712,6.712,0,0,0-.82,3.594v.988a6.573,6.573,0,0,0,.837,3.678,2.959,2.959,0,0,0,2.633,1.23,3.314,3.314,0,0,0,2.291-.685V59.168h-2.74V56.461h6.682Z"/><path d="M50.907,65.2V48.847h5.874A8.318,8.318,0,0,1,61.582,50a3.848,3.848,0,0,1,1.645,3.358,3.892,3.892,0,0,1-.584,2.167,3.4,3.4,0,0,1-1.718,1.325,3.452,3.452,0,0,1,1.966,1.258,3.662,3.662,0,0,1,.684,2.246,4.332,4.332,0,0,1-1.521,3.611A7.243,7.243,0,0,1,57.545,65.2Zm3.943-9.534H56.9a2.921,2.921,0,0,0,1.842-.473,1.68,1.68,0,0,0,.551-1.363,1.763,1.763,0,0,0-.6-1.493,3.185,3.185,0,0,0-1.92-.456H54.85Zm0,2.583v3.919h2.582a2.46,2.46,0,0,0,1.64-.488,1.714,1.714,0,0,0,.573-1.376,1.813,1.813,0,0,0-2.034-2.055Z"/></svg>