<svg xmlns="http://www.w3.org/2000/svg" viewBox="0 0 96 96"><g opacity="0"/><path d="M83.13,51.391,77.908,35.452H60.5V19.944H5.011v55.04H19.156v.027a7.616,7.616,0,1,0,15.231-.027H69.205v.027a7.616,7.616,0,1,0,15.231-.027h6.529V59.61Z" class="sgmaincolor"/><path d="M91.688,58.92,84.01,50.865,78.859,35.141a1,1,0,0,0-.951-.689H61.564v-14.6a1,1,0,0,0-1-1,.99.99,0,0,0-.411.092H5.011a1,1,0,0,0-1,1V74.983a1,1,0,0,0,1,1h13.2a8.691,8.691,0,0,0,5.295,7.043l.011,0c.25.1.5.195.763.273.191.058.387.1.582.146.075.017.147.041.223.056a8.589,8.589,0,0,0,1.679.165H26.8c.28,0,.558-.016.831-.044.066-.007.13-.021.2-.029.206-.025.412-.053.614-.093.107-.021.212-.052.319-.078.156-.037.313-.073.465-.118.117-.036.23-.08.344-.119.141-.049.282-.1.419-.152.106-.044.209-.094.313-.142.146-.066.291-.133.432-.207.082-.044.163-.092.244-.138.166-.094.329-.192.488-.3.049-.032.1-.066.144-.1q.3-.207.581-.437l.017-.015a8.7,8.7,0,0,0,3.121-5.719H68.26c0,.014,0,.026.006.039a8.58,8.58,0,0,0,8.52,7.742h.032a8.55,8.55,0,0,0,7.239-4.078c.018-.027.033-.056.05-.083.09-.15.181-.3.262-.454a8.643,8.643,0,0,0,1.009-3.166h5.586a1,1,0,0,0,1-1V59.61A1,1,0,0,0,91.688,58.92ZM70.223,75.183a6.591,6.591,0,0,1,6.542-6.626h.023a6.5,6.5,0,0,1,4.622,1.916,6.53,6.53,0,0,1-4.567,11.2h-.024a6.538,6.538,0,0,1-4.658-1.939,6.655,6.655,0,0,1-1.909-3.99C70.236,75.556,70.224,75.37,70.223,75.183Zm-64.212-1.2V20.944H59.5V35.452a.971.971,0,0,0,.064.315V73.973H35.228a8.544,8.544,0,0,0-8.463-7.468h-.03A8.539,8.539,0,0,0,18.3,73.983ZM26.769,81.67a6.6,6.6,0,0,1-1.292-.127c-.043-.008-.084-.022-.127-.031-.164-.037-.328-.075-.488-.123a6.587,6.587,0,0,1,1.879-12.884h.024a6.482,6.482,0,0,1,4.608,1.91,6.556,6.556,0,0,1,1.934,4.649h0a6.592,6.592,0,0,1-3.436,5.82c-.03.016-.062.03-.093.046-.153.08-.307.156-.466.223-.081.035-.165.062-.248.093-.115.043-.229.089-.347.126-.1.032-.2.055-.308.082s-.21.058-.316.08-.225.036-.337.053-.2.036-.308.047c-.165.017-.333.023-.5.028-.053,0-.106.008-.16.008Zm63.2-7.687h-4.7a8.562,8.562,0,0,0-8.475-7.426h-.031a8.583,8.583,0,0,0-8.444,7.425l-6.749-.008V36.452h15.62l4.539,13.856H67.674a1,1,0,0,0,0,2H82.622l7.342,7.7Z"/><path d="M20.574,58.423a.928.928,0,0,0,.1.123c.021.017.047.02.068.035a18.628,18.628,0,0,0,25.665.014.8.8,0,0,0,.082-.044.982.982,0,0,0,.119-.139,18.878,18.878,0,0,0-.133-27.3.982.982,0,0,0-.119-.139c-.023-.018-.051-.022-.074-.037A18.619,18.619,0,0,0,20.9,30.924a.81.81,0,0,0-.078.039.971.971,0,0,0-.13.151,18.875,18.875,0,0,0-.113,27.309Zm3.045-12.6A32.335,32.335,0,0,0,24.8,53.865a15.224,15.224,0,0,0-3.5,2.441A16.848,16.848,0,0,1,16.838,45.82Zm8.968,15.553c-2.127-.585-4.019-2.994-5.3-6.43a17.385,17.385,0,0,1,5.3-1.062Zm-4.169-.487A16.752,16.752,0,0,1,22.739,57.7a13.053,13.053,0,0,1,2.71-1.917A16.308,16.308,0,0,0,28.418,60.886Zm6.169.487V53.881a17.385,17.385,0,0,1,5.3,1.062C38.606,58.379,36.714,60.788,34.587,61.373Zm7.138-5.593A13.041,13.041,0,0,1,44.434,57.7a16.752,16.752,0,0,1-5.679,3.19A16.338,16.338,0,0,0,41.725,55.78Zm-7.138-3.9V45.82h6.968A30.557,30.557,0,0,1,40.5,53.036,19.489,19.489,0,0,0,34.587,51.882Zm0-8.062V37.5a19.629,19.629,0,0,0,5.851-1.112,30.38,30.38,0,0,1,1.117,7.434Zm0-8.32V28.269c2.084.573,3.944,2.892,5.221,6.218A17.592,17.592,0,0,1,34.587,35.5Zm4.167-6.746A16.755,16.755,0,0,1,44.3,31.819a12.531,12.531,0,0,1-2.65,1.849A16.141,16.141,0,0,0,38.754,28.754Zm-6.167-.485V35.5a17.559,17.559,0,0,1-5.221-1.014C28.643,31.161,30.5,28.842,32.587,28.269Zm-7.061,5.4a12.543,12.543,0,0,1-2.651-1.849,16.75,16.75,0,0,1,5.545-3.065A16.129,16.129,0,0,0,25.526,33.668Zm7.061,3.83V43.82H25.618a30.378,30.378,0,0,1,1.118-7.434A19.629,19.629,0,0,0,32.587,37.5Zm0,8.322v6.062a19.476,19.476,0,0,0-5.916,1.155,30.566,30.566,0,0,1-1.053-7.217ZM45.87,56.306a15.253,15.253,0,0,0-3.5-2.442,32.321,32.321,0,0,0,1.181-8.044h6.782A16.853,16.853,0,0,1,45.87,56.306ZM50.336,43.82H43.554a32.072,32.072,0,0,0-1.247-8.247,14.716,14.716,0,0,0,3.44-2.375A16.858,16.858,0,0,1,50.336,43.82ZM21.427,33.2a14.742,14.742,0,0,0,3.439,2.376,32.1,32.1,0,0,0-1.247,8.246H16.838A16.858,16.858,0,0,1,21.427,33.2Z"/></svg>