<svg id="fa7f9acf-1519-43e6-8a0b-5a184babfc68" data-name="Icons" xmlns="http://www.w3.org/2000/svg" viewBox="0 0 96 96"><rect y="0.002" width="96" height="96" fill="#fff" opacity="0"/><path d="M86,12H10L5,18V69l5,7H85l6-7V18Z" class="sgmaincolor"/><circle cx="20.5" cy="22.5" r="1.5"/><circle cx="25.5" cy="22.5" r="1.5"/><circle cx="30.5" cy="22.5" r="1.5"/><path d="M16,64H80a1,1,0,0,0,1-1V18a1,1,0,0,0-1-1H16a1,1,0,0,0-1,1V63A1,1,0,0,0,16,64Zm1-2V28H79V62ZM79,19v7H17V19Z"/><path d="M92,69V18a1,1,0,0,0-.231-.641l-5-6A1,1,0,0,0,86,11H10a1,1,0,0,0-.769.359l-5,6A1,1,0,0,0,4,18V69a.976.976,0,0,0,.071.35.715.715,0,0,0,.054.107.844.844,0,0,0,.062.124l5,7A1,1,0,0,0,10,77H37.6L34.188,87H30a1,1,0,0,0,0,2H65a1,1,0,0,0,0-2H61.023l-3.6-10H85a1,1,0,0,0,.759-.35l6-7a1.03,1.03,0,0,0,.093-.157,1.065,1.065,0,0,0,.074-.126A1,1,0,0,0,92,69ZM10.469,13H85.531L90,18.362V68H6V18.362ZM58.9,87H36.3l3.414-10H55.3ZM84.54,75H10.515L6.943,70H88.826Z"/><path d="M74,45H55a1,1,0,0,0,0,2H74a1,1,0,0,0,0-2Z"/><path d="M74,50H55a1,1,0,0,0,0,2H74a1,1,0,0,0,0-2Z"/><path d="M74,55H55a1,1,0,0,0,0,2H74a1,1,0,0,0,0-2Z"/><path d="M74,33H55a1,1,0,0,0-1,1v7a1,1,0,0,0,1,1H74a1,1,0,0,0,1-1V34A1,1,0,0,0,74,33Zm-1,7H56V35H73Z"/><path d="M41,33H23a1,1,0,0,0-1,1V56a1,1,0,0,0,1,1H41a1,1,0,0,0,1-1V34A1,1,0,0,0,41,33ZM40,55H24V35H40Z"/></svg>