<svg xmlns="http://www.w3.org/2000/svg" viewBox="0 0 96 96"><g opacity="0"><rect width="96.161" height="96.088" fill="#fff"/></g><polygon points="30.132 89.438 66.028 89.438 75.002 76.875 75.002 49.056 71.413 45.466 64.233 45.466 64.233 55.337 64.233 45.466 60.644 41.877 53.465 41.877 53.465 50.85 53.465 41.877 49.875 38.287 42.696 38.287 42.696 51.748 42.696 18.544 39.106 14.955 35.517 14.955 31.927 18.544 31.927 67.901 31.927 67.901 31.927 51.748 28.338 48.158 24.748 48.158 21.158 51.748 21.158 80.465 30.132 89.438" class="sgmaincolor"/><path d="M66.028,90.438h-35.9a1,1,0,0,1-.707-.292l-8.973-8.974a1,1,0,0,1-.293-.707V51.748a1,1,0,0,1,.293-.707l3.589-3.59a1,1,0,0,1,.707-.293h3.589a1,1,0,0,1,.707.293l1.883,1.883V18.544a1,1,0,0,1,.293-.707l3.59-3.589a1,1,0,0,1,.707-.293h3.589a1,1,0,0,1,.707.293l3.59,3.589a1,1,0,0,1,.293.707V37.287h6.179a1,1,0,0,1,.707.293l3.3,3.3h6.766a1,1,0,0,1,.707.293l3.3,3.3h6.765a1,1,0,0,1,.707.293l3.589,3.59a1,1,0,0,1,.293.707V76.875a1,1,0,0,1-.186.581L66.841,90.02A1,1,0,0,1,66.028,90.438Zm-35.482-2H65.513L74,76.555V49.47l-3-3H65.234v8.872a1,1,0,0,1-2,0V45.88l-3-3H54.464v7.974a1,1,0,0,1-2,0v-8.56l-3-3H43.7V51.748a1,1,0,0,1-2,0V18.958l-3-3H35.931l-3,3V67.9a1,1,0,0,1-2,0V52.162l-3-3h-2.76l-3,3V80.051Z"/><path d="M47.512,14.828a1,1,0,0,1-.707-.293L39.919,7.649H33.568l-6.886,6.886a1,1,0,0,1-1.414-1.414l7.179-7.179a1,1,0,0,1,.707-.293h7.179a1,1,0,0,1,.707.293l7.179,7.179a1,1,0,0,1-.707,1.707Z"/></svg>