<svg xmlns="http://www.w3.org/2000/svg" viewBox="0 0 96 96"><polygon points="2 47.858 94 12.556 73.674 87.439 44.791 70.323 35.163 77.741 28.744 59.626 2 47.858" class="sgmaincolor"/><path d="M94.993,12.5a.995.995,0,0,0-1.578-.883l-.284.205L1.642,46.925a.719.719,0,0,0-.067.037.975.975,0,0,0-.1.057.991.991,0,0,0-.194.159.882.882,0,0,0-.067.07.987.987,0,0,0-.165.3.279.279,0,0,0-.007.04A.946.946,0,0,0,1,47.834c0,.024.008.047.009.071s-.007.03,0,.046.015.043.019.066a.958.958,0,0,0,.067.231.918.918,0,0,0,.054.119.964.964,0,0,0,.136.171.926.926,0,0,0,.184.151.839.839,0,0,0,.134.084L27.946,60.367l6.275,17.708a1,1,0,0,0,1.552.458l9.091-7L73.165,88.3a1,1,0,0,0,1.475-.6L94.965,12.817A1,1,0,0,0,94.993,12.5ZM73.583,83.958,60.8,46.67,92.11,15.7ZM35.152,74.715,29.9,59.894,50.308,45.173l.47,8.379L38.749,65.122a.994.994,0,0,0-.246.379ZM5.936,48.5c13.593-1.26,33.5-3.095,41.632-3.814L28.51,58.431Zm46.3-4.713L84.14,20.771,58.572,46.056l-5.894,5.668ZM50.72,42.41C46.892,42.706,22,45,9.133,46.193L86.786,16.4ZM44.791,69.323a1,1,0,0,0-.61.208L37.212,74.9,40.3,66.4l12.19-11.724h0l6.722-6.448,12.688,37L45.3,69.463A1,1,0,0,0,44.791,69.323Z"/></svg>