<svg id="b58566c6-9867-407e-9b44-3ba375ab5881" data-name="Icons" xmlns="http://www.w3.org/2000/svg" viewBox="0 0 96 96"><rect width="96" height="96" fill="#fff" opacity="0"/><polygon points="11 6.002 57 6.002 75 24.002 75 90.002 11 90.002 11 6.002" class="sgmaincolor"/><path d="M22,46H64a1,1,0,0,0,0-2H22a1,1,0,0,0,0,2Z"/><path d="M64,54H22a1,1,0,0,0,0,2H64a1,1,0,0,0,0-2Z"/><path d="M64,64H22a1,1,0,0,0,0,2H64a1,1,0,0,0,0-2Z"/><path d="M85.924,23.624a.954.954,0,0,0-.1-.159.974.974,0,0,0-.095-.15l-.019-.019v0L68.727,5.315l-.013-.009a1.04,1.04,0,0,0-.2-.142A.977.977,0,0,0,68,5H11a1,1,0,0,0-1,1V90a1,1,0,0,0,1,1H85a1,1,0,0,0,1-1V24A.993.993,0,0,0,85.924,23.624ZM58,8.416,67.288,17.7l.012.013L72.586,23H58ZM75.414,23,69,16.588V8.517L82.68,23ZM67,7v7.586L59.414,7ZM12,89V7H56V24a1,1,0,0,0,1,1H74V89Zm64,0V25h8V89Z"/></svg>