<svg xmlns="http://www.w3.org/2000/svg" viewBox="0 0 96 96"><circle cx="46.989" cy="47.696" r="41.01" class="sgmaincolor"/><path d="M75.749,17.115a.906.906,0,0,0-.134-.157c-.02-.016-.044-.019-.065-.033a41.908,41.908,0,0,0-57.123,0c-.02.013-.043.016-.062.031a.972.972,0,0,0-.125.147,42.011,42.011,0,1,0,57.509.01ZM86.975,46.7H68.7a71.18,71.18,0,0,0-3.232-20.829A31.563,31.563,0,0,0,75.043,19.2,39.888,39.888,0,0,1,86.975,46.7ZM47.989,8.168c6.193.624,11.637,7.012,15.036,16.531a41.574,41.574,0,0,1-15.036,2.986Zm5.928.13A39.9,39.9,0,0,1,73.575,17.83a30.46,30.46,0,0,1-8.781,6.092C62.157,16.707,58.357,11.167,53.917,8.3Zm-7.928-.13V27.685A41.552,41.552,0,0,1,30.954,24.7C34.354,15.18,39.8,8.792,45.989,8.168Zm-16.8,15.754a30.452,30.452,0,0,1-8.78-6.093A39.9,39.9,0,0,1,40.062,8.3C35.622,11.167,31.822,16.707,29.185,23.922Zm16.8,5.763V46.7H27.281A70.533,70.533,0,0,1,30.3,26.644,43.9,43.9,0,0,0,45.989,29.685Zm0,19.011V65.109a43.8,43.8,0,0,0-15.856,3.112A70.989,70.989,0,0,1,27.281,48.7Zm0,18.413V87.225c-6.306-.636-11.839-7.249-15.223-17.063A41.557,41.557,0,0,1,45.989,67.109ZM40.062,87.094a39.908,39.908,0,0,1-19.968-9.8,29.372,29.372,0,0,1,8.9-6.341C31.636,78.423,35.516,84.157,40.062,87.094Zm7.927.131V67.109A41.477,41.477,0,0,1,63.21,70.172C59.825,79.98,54.3,86.59,47.989,87.225ZM64.983,70.964a29.611,29.611,0,0,1,8.9,6.33,39.909,39.909,0,0,1-19.967,9.8C58.462,84.158,62.34,78.428,64.983,70.964ZM47.989,65.109V48.7H66.7A70.977,70.977,0,0,1,63.847,68.22,43.8,43.8,0,0,0,47.989,65.109Zm0-18.413V29.685a43.912,43.912,0,0,0,15.689-3.041A70.5,70.5,0,0,1,66.7,46.7ZM18.937,19.2a31.556,31.556,0,0,0,9.576,6.665A71.214,71.214,0,0,0,25.282,46.7H7A39.887,39.887,0,0,1,18.937,19.2ZM7,48.7H25.282A71.572,71.572,0,0,0,28.346,69a30.861,30.861,0,0,0-9.7,6.9A39.881,39.881,0,0,1,7,48.7Zm68.33,27.21a30.866,30.866,0,0,0-9.7-6.9A71.571,71.571,0,0,0,68.7,48.7H86.975A39.882,39.882,0,0,1,75.334,75.906Z"/></svg>