<svg xmlns="http://www.w3.org/2000/svg" viewBox="0 0 96 96"><g opacity="0"><rect width="96" height="96" fill="#fff"/></g><path d="M30.425,85.867H14.348a1.056,1.056,0,0,1-1.056-1.056V68.864a1.056,1.056,0,0,1,1.056-1.056H30.425a1.057,1.057,0,0,1,1.057,1.056V84.811A1.057,1.057,0,0,1,30.425,85.867Zm-15.02-2.113H29.369V69.921H15.405Z"/><path d="M30.425,58.955H14.348A1.057,1.057,0,0,1,13.292,57.9V41.951A1.056,1.056,0,0,1,14.348,40.9H30.425a1.057,1.057,0,0,1,1.057,1.056V57.9A1.058,1.058,0,0,1,30.425,58.955Zm-15.02-2.113H29.369V43.008H15.405Z"/><path d="M30.425,32.064H14.348a1.056,1.056,0,0,1-1.056-1.056V15.061A1.057,1.057,0,0,1,14.348,14H30.425a1.058,1.058,0,0,1,1.057,1.057V31.008A1.057,1.057,0,0,1,30.425,32.064Zm-15.02-2.113H29.369V16.117H15.405Z"/><path d="M82.416,32.064H66.339a1.057,1.057,0,0,1-1.057-1.056V15.061A1.058,1.058,0,0,1,66.339,14H82.416a1.057,1.057,0,0,1,1.056,1.057V31.008A1.056,1.056,0,0,1,82.416,32.064ZM67.4,29.951H81.359V16.117H67.4Z"/><path d="M56.464,32.064H40.387a1.056,1.056,0,0,1-1.056-1.056V15.061A1.057,1.057,0,0,1,40.387,14H56.464a1.057,1.057,0,0,1,1.057,1.057V31.008A1.056,1.056,0,0,1,56.464,32.064Zm-15.02-2.113H55.408V16.117H41.444Z"/><polygon points="67.603 86.292 85.532 68.362 83.74 57.605 69.844 43.709 66.258 43.709 62.672 47.295 67.603 52.226 62.672 47.295 59.086 47.295 55.501 50.881 59.983 55.364 55.501 50.881 51.915 50.881 48.329 54.467 55.052 61.191 38.467 44.606 34.882 44.606 33.089 46.399 33.089 49.985 57.742 74.638 57.742 74.638 49.673 66.569 46.087 66.569 44.295 68.362 44.295 71.948 58.638 86.292 67.603 86.292" class="sgmaincolor"/><path d="M86.519,68.2,84.726,57.44a1,1,0,0,0-.279-.543l-.975-.974V41.951A1.056,1.056,0,0,0,82.416,40.9H66.339a1.057,1.057,0,0,0-1.057,1.056v1.32L62.258,46.3H59.087a1,1,0,0,0-.707.293l-.859.858V41.951A1.056,1.056,0,0,0,56.464,40.9H40.387a1.056,1.056,0,0,0-1.056,1.056v2.1l-.157-.157a1,1,0,0,0-.707-.293H34.881a1,1,0,0,0-.707.293l-1.793,1.793a1,1,0,0,0-.292.707v3.586a1,1,0,0,0,.292.707L47.259,65.569H46.088a1,1,0,0,0-.707.293l-1.793,1.793a.926.926,0,0,0-.1.153h-3.1a1.056,1.056,0,0,0-1.056,1.056V84.811a1.056,1.056,0,0,0,1.056,1.056H56.464a1,1,0,0,0,.292-.044L57.931,87a1,1,0,0,0,.707.293H67.6A1,1,0,0,0,68.31,87l1.132-1.132H82.416a1.056,1.056,0,0,0,1.056-1.056V71.837l2.768-2.768A1,1,0,0,0,86.519,68.2ZM81.359,53.81l-10.8-10.8h10.8Zm-39.915-10.8H55.408V49.56l-.321.321H51.915a1,1,0,0,0-.707.293l-2.879,2.879-6.885-6.885Zm0,40.746V69.921H43.3v2.027a1,1,0,0,0,.293.707l11.1,11.1Zm39.915,0h-9.8l9.8-9.8Zm-14.17,1.538H59.052L45.3,71.534V68.776L46.5,67.569h2.757l7.776,7.776a1,1,0,1,0,1.414-1.414L34.089,49.57V46.812L35.3,45.605h2.757L54.345,61.9a1,1,0,1,0,1.414-1.414l-6.016-6.016,2.586-2.586h2.758l4.189,4.189a1,1,0,1,0,1.414-1.414l-3.775-3.775L59.5,48.3h2.757L66.9,52.933a1,1,0,1,0,1.414-1.414L64.087,47.3l2.586-2.586H69.43L82.806,58.085l1.656,9.935Z"/></svg>