<svg xmlns="http://www.w3.org/2000/svg" viewBox="0 0 96 96"><g opacity="0"><rect width="96" height="96" fill="#fff"/></g><circle cx="46.009" cy="46.013" r="42.009" class="sgmaincolor"/><path d="M46.009,89.022A43.009,43.009,0,1,1,89.018,46.013,43.057,43.057,0,0,1,46.009,89.022ZM46.009,5A41.009,41.009,0,1,0,87.018,46.013,41.055,41.055,0,0,0,46.009,5Z"/><path d="M47.423,46.013,59.111,34.325A1,1,0,0,0,57.7,32.911L46.009,44.6,34.321,32.911a1,1,0,0,0-1.414,1.414L44.6,46.013,32.907,57.7a1,1,0,1,0,1.414,1.414L46.009,47.427,57.7,59.115A1,1,0,0,0,59.111,57.7Z"/></svg>