<svg xmlns="http://www.w3.org/2000/svg" viewBox="0 0 96 96"><g opacity="0"><rect width="96" height="96" fill="#fff"/></g><path d="M84.375,16.891H12.3a1,1,0,0,1,0-2H84.375a1,1,0,1,1,0,2Z"/><path d="M3.249,39.644c2.064-2.97,5.314-4.063,8.324-5.482,7.994-3.767,16.263-4.085,24.705-1.878,3.242.848,6.479,1.746,9.761,2.4a11.891,11.891,0,0,0,4.593,0c5.089-1.041,10.1-2.513,15.215-3.388,9.3-1.591,17.684,1.322,25.539,6.225a11.95,11.95,0,0,1,2.037,2.12V42.5c-1.5,3.915-2.792,7.93-4.553,11.714a55.158,55.158,0,0,1-5.23,8.821c-3.9,5.428-9.5,7.384-15.759,6.612-4.51-.556-8.124-3.5-11.595-6.437-2.045-1.731-4.192-3.337-6.332-4.944a2.554,2.554,0,0,0-3.237,0,70.192,70.192,0,0,0-5.81,4.474,34.85,34.85,0,0,1-9.617,6.274c-5.12,2.224-13.378.071-17.365-4.887A54.506,54.506,0,0,1,3.888,44.319c-.171-.617-.424-1.21-.639-1.815Zm55.642,13.4c8.334,4.372,16.389,1.979,20.427-7.2C70.975,41.366,62.956,43.952,58.891,53.041ZM17.33,45.884C21.352,54.725,29.191,57.6,37.806,53,33.61,43.948,25.678,41.323,17.33,45.884Z" class="sgmaincolor"/><path d="M26.633,70.9a18.016,18.016,0,0,1-13.488-6.147,55.639,55.639,0,0,1-10.22-20.17c-.109-.39-.253-.77-.4-1.15-.075-.2-.15-.4-.222-.6a1,1,0,0,1-.057-.335v-2.86a1,1,0,0,1,.179-.571c1.908-2.745,4.674-3.988,7.348-5.189.459-.207.918-.413,1.37-.626,7.77-3.661,16.31-4.314,25.385-1.941l1.635.43c2.638.7,5.368,1.418,8.068,1.956a10.842,10.842,0,0,0,4.2,0c2.12-.433,4.269-.953,6.348-1.455,2.9-.7,5.9-1.425,8.9-1.939,8.472-1.448,17.056.631,26.238,6.363a7.077,7.077,0,0,1,1.66,1.613c.189.229.377.458.576.67a1,1,0,0,1,.272.685V42.5a.992.992,0,0,1-.067.357c-.45,1.178-.882,2.365-1.314,3.552-.992,2.727-2.019,5.547-3.267,8.227a56.137,56.137,0,0,1-5.325,8.983c-3.922,5.457-9.7,7.883-16.691,7.021-4.966-.613-8.933-3.969-12.12-6.667-1.951-1.651-4.041-3.221-6.062-4.739l-.225-.169a1.557,1.557,0,0,0-2.045,0c-.4.291-.8.58-1.2.869a52,52,0,0,0-4.533,3.539,36.124,36.124,0,0,1-9.892,6.451A12.708,12.708,0,0,1,26.633,70.9ZM4.249,42.329c.049.133.1.266.149.4.165.437.33.875.454,1.324A53.646,53.646,0,0,0,14.7,63.5c3.628,4.511,11.347,6.7,16.187,4.6A33.628,33.628,0,0,0,40.234,62a53.96,53.96,0,0,1,4.706-3.68q.6-.429,1.185-.86a3.56,3.56,0,0,1,4.429.008l.225.169c2.044,1.535,4.157,3.122,6.153,4.812,3.795,3.211,7.021,5.708,11.072,6.208,6.238.771,11.354-1.377,14.823-6.2a54.145,54.145,0,0,0,5.137-8.66c1.211-2.6,2.221-5.38,3.2-8.067.415-1.139.829-2.278,1.26-3.409V40.027c-.132-.153-.262-.31-.392-.467a5.557,5.557,0,0,0-1.175-1.187C81.989,32.837,74.1,30.9,66.015,32.285c-2.932.5-5.9,1.218-8.765,1.911-2.1.506-4.263,1.03-6.417,1.47a12.925,12.925,0,0,1-4.989,0c-2.761-.551-5.521-1.28-8.189-1.984l-1.63-.429C27.3,30.968,19.435,31.562,12,35.067c-.464.218-.934.429-1.4.641-2.444,1.1-4.757,2.138-6.347,4.259Zm25.673,13.84a13.2,13.2,0,0,1-4.259-.692c-3.92-1.329-7.116-4.5-9.243-9.179a1,1,0,0,1,.43-1.291c4.307-2.354,8.613-2.931,12.453-1.664,3.959,1.3,7.213,4.5,9.41,9.24a1,1,0,0,1-.437,1.3A17.822,17.822,0,0,1,29.922,56.169Zm-11.27-9.843c1.875,3.69,4.507,6.19,7.653,7.257,3.07,1.042,6.57.685,10.168-1.027-1.934-3.745-4.616-6.265-7.8-7.314A13.218,13.218,0,0,0,18.652,46.326Zm48.1,9.837a17.967,17.967,0,0,1-8.32-2.237,1,1,0,0,1-.449-1.293c2.1-4.7,5.292-7.892,9.228-9.234,3.866-1.32,8.22-.779,12.585,1.565a1,1,0,0,1,.442,1.283c-2.044,4.645-5.175,7.817-9.055,9.175A13.359,13.359,0,0,1,66.747,56.163Zm-6.532-3.581c3.65,1.707,7.194,2.038,10.3.951S76.2,49.954,78,46.3a13.318,13.318,0,0,0-10.153-1.006C64.7,46.368,62.07,48.88,60.215,52.582Z"/></svg>