<svg xmlns="http://www.w3.org/2000/svg" viewBox="0 0 96 96"><g opacity="0"><rect width="96.161" height="96.088" fill="#fff"/></g><polygon points="89.026 68.501 82.064 54.468 76.649 54.468 56.781 13.15 48.8 13.15 48.026 13.15 38.498 13.15 18.998 54.468 13.215 54.468 7.026 68.501 31.065 68.501 40.291 78.636 55.762 78.636 65.819 68.501 67.366 68.501 89.026 68.501" class="sgmaincolor"/><path d="M89.922,68.057,82.96,54.024a1,1,0,0,0-.895-.555H77.278l-19.6-40.753a1,1,0,0,0-.9-.567H38.5a1,1,0,0,0-.9.574L18.364,53.469H13.215a1,1,0,0,0-.915.6L6.112,68.1a1,1,0,0,0,.915,1.4h23.6l8.929,9.808a1,1,0,0,0,.739.327H55.762a1,1,0,0,0,.71-.3L66.235,69.5H89.027a1,1,0,0,0,.895-1.444ZM75.068,53.49H48.779V14.149h7.374ZM39.132,14.149h7.647V53.49H20.566Zm-5.8,55.359,13.5,0,.022,8.13H40.733Zm22.013,8.128h-6.49l-.022-8.13h14.58ZM65.819,67.5c-.007,0-.013,0-.02,0l-34.7,0c-.011,0-.021-.007-.032-.007H8.561l5.306-12.032h4.657a.9.9,0,0,0,.106.021H76.65a.993.993,0,0,0,.106-.021h4.689L87.414,67.5Z"/></svg>