<svg xmlns="http://www.w3.org/2000/svg" viewBox="0 0 96 96"><g opacity="0"><rect x="0.5" y="0.5" width="95" height="95" fill="#fff"/><path d="M95,1V95H1V1H95m1-1H0V96H96V0Z"/></g><circle cx="48" cy="58" r="30" class="sgmaincolor"/><circle cx="14" cy="15" r="2"/><circle cx="20" cy="15" r="2"/><circle cx="26" cy="15" r="2"/><path d="M91,7H5A1,1,0,0,0,4,8V72a1,1,0,0,0,1,1H20.88a30.984,30.984,0,0,0,54.24,0H91a1,1,0,0,0,1-1V8A1,1,0,0,0,91,7ZM73.91,71c-.33.68-.7,1.35-1.09,2a29,29,0,0,1-49.64,0c-.39-.65-.76-1.32-1.09-2A28.7,28.7,0,0,1,19,58a29,29,0,0,1,58,0A28.7,28.7,0,0,1,73.91,71ZM90,71H76.14a31,31,0,1,0-56.28,0H6V23H90Zm0-50H6V9H90Z"/><path d="M49,57.1V41a1,1,0,0,0-2,0V57.1a5,5,0,0,0,0,9.8V75a1,1,0,0,0,2,0V66.9a5,5,0,0,0,0-9.8ZM48,65a3,3,0,1,1,3-3A3.009,3.009,0,0,1,48,65Z"/><path d="M37,49.1V41a1,1,0,0,0-2,0v8.1a5,5,0,0,0,0,9.8V75a1,1,0,0,0,2,0V58.9a5,5,0,0,0,0-9.8ZM36,57a3,3,0,1,1,3-3A3.009,3.009,0,0,1,36,57Z"/><path d="M61,49.1V41a1,1,0,0,0-2,0v8.1a5,5,0,0,0,0,9.8V75a1,1,0,0,0,2,0V58.9a5,5,0,0,0,0-9.8ZM60,57a3,3,0,1,1,3-3A3.009,3.009,0,0,1,60,57Z"/></svg>