<svg xmlns="http://www.w3.org/2000/svg" viewBox="0 0 96 96"><g opacity="0"><rect width="96" height="96" fill="#fff"/></g><path d="M76.141,4.013H20.306l-6.624,6.624V87.292l6.624,6.625H76.141l6.625-6.625V10.637ZM61.918,93.66H33.773V80.108H61.918Z" class="sgmaincolor"/><path d="M83.473,9.93,76.849,3.305a1,1,0,0,0-.707-.293H20.306a1,1,0,0,0-.707.293L12.975,9.93a1,1,0,0,0-.293.707V87.292a1,1,0,0,0,.293.707L19.6,94.624a1,1,0,0,0,.707.293H76.142a1,1,0,0,0,.707-.293L83.473,88a1,1,0,0,0,.293-.707V10.637A1,1,0,0,0,83.473,9.93ZM20.72,5.012H75.728l6.038,6.039v67.67H14.682V11.051Zm31.709,76.1V92.659h-8.41V81.108Zm-37.747,5.77V80.721H32.555v12.2H20.72Zm20.091-5.77h7.246V92.659H34.773ZM60.917,92.659H54.429V81.108h6.488Zm14.811.258H62.946v-12.2h18.82v6.157Z"/><path d="M72.829,18.261a4.312,4.312,0,1,1,4.312-4.312A4.316,4.316,0,0,1,72.829,18.261Zm0-6.624a2.312,2.312,0,1,0,2.312,2.312A2.315,2.315,0,0,0,72.829,11.637Z"/><path d="M24.565,18.261a4.312,4.312,0,1,1,4.312-4.312A4.317,4.317,0,0,1,24.565,18.261Zm0-6.624a2.312,2.312,0,1,0,2.312,2.312A2.315,2.315,0,0,0,24.565,11.637Z"/><path d="M72.829,73.968a4.313,4.313,0,1,1,4.312-4.313A4.317,4.317,0,0,1,72.829,73.968Zm0-6.625a2.313,2.313,0,1,0,2.312,2.312A2.314,2.314,0,0,0,72.829,67.343Z"/><path d="M24.565,73.968a4.313,4.313,0,1,1,4.312-4.313A4.318,4.318,0,0,1,24.565,73.968Zm0-6.625a2.313,2.313,0,1,0,2.312,2.312A2.315,2.315,0,0,0,24.565,67.343Z"/><path d="M50.41,39.558h-3.8V27.474l-3.728,1.089V25.688l7.177-2.482h.347Z"/><path d="M47.086,47.279H42.178V60.587H38.237V47.279H33.418V44.236H47.086Z"/><path d="M48.747,60.587V44.236h5.874a8.319,8.319,0,0,1,4.8,1.156,3.849,3.849,0,0,1,1.645,3.358,3.9,3.9,0,0,1-.584,2.168,3.4,3.4,0,0,1-1.718,1.325A3.452,3.452,0,0,1,60.731,53.5a3.66,3.66,0,0,1,.684,2.246,4.333,4.333,0,0,1-1.521,3.611,7.249,7.249,0,0,1-4.509,1.229Zm3.943-9.535h2.054a2.915,2.915,0,0,0,1.842-.473,1.676,1.676,0,0,0,.551-1.362,1.763,1.763,0,0,0-.6-1.493,3.185,3.185,0,0,0-1.92-.456H52.69Zm0,2.583v3.92h2.582a2.462,2.462,0,0,0,1.64-.488,1.716,1.716,0,0,0,.573-1.376,1.814,1.814,0,0,0-2.034-2.056Z"/></svg>