<svg xmlns="http://www.w3.org/2000/svg" viewBox="0 0 96 96"><g opacity="0"><rect width="96" height="96.145" fill="#fff"/></g><polygon points="62.18 68.972 62.18 50.844 52.638 41.738 33.2 41.738 13.762 41.738 3.531 50.945 3.531 68.755 17.668 79.358 17.668 56.386 17.668 89.077 47.868 89.009 47.868 79.467 62.18 68.972" class="sgmaincolor"/><circle cx="33.2" cy="23.392" r="17.392" class="sgmaincolor"/><path d="M91.682,21.5H78.841V8a1,1,0,0,0-2,0V21.5H64a1,1,0,0,0,0,2H76.841V37a1,1,0,0,0,2,0V23.5H91.682a1,1,0,0,0,0-2Z"/><path d="M53.328,41.014C53.317,41,53.3,41,53.29,40.989a1.007,1.007,0,0,0-.154-.1.935.935,0,0,0-.175-.09,1.027,1.027,0,0,0-.177-.035,1.044,1.044,0,0,0-.146-.028H39.257a18.392,18.392,0,1,0-12.114,0H13.762a.981.981,0,0,0-.246.046c-.01,0-.02,0-.03.006a.982.982,0,0,0-.393.2L2.862,50.2a1,1,0,0,0-.331.743v17.81a1,1,0,0,0,.4.8l13.737,10.3v9.22a1,1,0,0,0,1,1h0l30.2-.068a1,1,0,0,0,1-1V79.975l13.9-10.2a1,1,0,0,0,.409-.806V50.844a1,1,0,0,0-.31-.724ZM16.808,23.392A16.392,16.392,0,1,1,33.2,39.783,16.411,16.411,0,0,1,16.808,23.392ZM33.736,50.869,17.927,42.737H48.7Zm27.444,17.6L48.857,77.5V56.465a1,1,0,0,0-2,0v24c0,.019.01.035.011.053v7.493l-28.2.064V56.386a1,1,0,0,0-2,0V77.357l-12.137-9.1V51.391l9.4-8.46L33.292,52.89a.936.936,0,0,0,.134.049c.025.009.049.021.075.028a1,1,0,0,0,.247.033h0a1.011,1.011,0,0,0,.255-.035c.026-.007.05-.02.076-.029a1.191,1.191,0,0,0,.146-.057l18.248-9.915,8.7,8.307Z"/></svg>