<svg id="a8b65c56-ddc3-438f-ad21-bd2d40dfb512" data-name="Icons" xmlns="http://www.w3.org/2000/svg" viewBox="0 0 96 96"><rect width="96" height="96" fill="#fff" opacity="0"/><path d="M85,19H11C6.076,18.992.969,23.116,1,28V58c-.008,4.923,5.077,8.992,10,9H46L63,77,59,67H85c4.924.008,9.992-4.077,10-9V28C95.008,23.076,89.924,19.008,85,19ZM39.672,58.631a4.616,4.616,0,0,1-.47,2.563,2.507,2.507,0,0,1-2.062,1.4,3.907,3.907,0,0,1-3.067-1.443q-5.41-5.545-8.559-16.564-3.8,7.454-5.613,11.18c-2.3,4.387-4.245,6.637-5.877,6.751-1.049.076-1.941-.819-2.715-2.685q-2.959-7.64-6.363-29.5a3.308,3.308,0,0,1,.626-2.6,3.124,3.124,0,0,1,2.449-1.2q2.973-.228,3.376,2.8,1.786,12.183,3.89,20.636L23.822,33.78q1.168-2.213,2.918-2.327c1.709-.113,2.756.976,3.18,3.269a72.623,72.623,0,0,0,3.669,13.293q1.539-14.8,5.163-21.36a2.986,2.986,0,0,1,2.567-1.706,3.38,3.38,0,0,1,2.446.782,3.042,3.042,0,0,1,1.2,2.216,3.375,3.375,0,0,1-.391,1.864c-1.52,2.8-2.771,7.494-3.792,14.019A72.413,72.413,0,0,0,39.672,58.631Zm23.864-6.062c-2.337,3.882-5.371,5.82-9.139,5.814a10.237,10.237,0,0,1-2.1-.237,8.948,8.948,0,0,1-6.209-4.517,15.049,15.049,0,0,1-1.852-7.695,20.577,20.577,0,0,1,3.048-10.951c2.376-3.881,5.409-5.819,9.139-5.813a10.233,10.233,0,0,1,2.1.236,9.028,9.028,0,0,1,6.208,4.517,14.7,14.7,0,0,1,1.853,7.657A20.809,20.809,0,0,1,63.536,52.569Zm24.321.039c-2.338,3.882-5.371,5.819-9.14,5.814a10.235,10.235,0,0,1-2.1-.237,8.946,8.946,0,0,1-6.209-4.517,15.039,15.039,0,0,1-1.852-7.695,20.585,20.585,0,0,1,3.047-10.951c2.377-3.881,5.41-5.819,9.14-5.813a10.231,10.231,0,0,1,2.1.236,8.949,8.949,0,0,1,6.209,4.517,14.342,14.342,0,0,1,1.853,7.657A20.828,20.828,0,0,1,87.857,52.608Z" class="sgmaincolor"/><path d="M81.362,35.581c-1.4-.266-2.756.516-4.031,2.425a12.579,12.579,0,0,0-2.039,4.632,13.553,13.553,0,0,0-.26,2.837,9.875,9.875,0,0,0,.714,3.533c.589,1.513,1.37,2.325,2.3,2.515a3.733,3.733,0,0,0,3.141-1.256,10.271,10.271,0,0,0,2.929-5.762h0a13.6,13.6,0,0,0,.26-2.875,9.875,9.875,0,0,0-.714-3.533C83.076,36.584,82.3,35.771,81.362,35.581Z" class="sgmaincolor"/><path d="M59.305,38.2c-.588-1.513-1.369-2.325-2.3-2.516-1.4-.265-2.756.517-4.03,2.426a12.565,12.565,0,0,0-2.04,4.632,13.48,13.48,0,0,0-.26,2.837,9.875,9.875,0,0,0,.714,3.533c.589,1.513,1.37,2.325,2.3,2.515a3.736,3.736,0,0,0,3.142-1.256,10.283,10.283,0,0,0,2.928-5.762h0a11.5,11.5,0,0,0,.26-2.876A9.851,9.851,0,0,0,59.305,38.2Z" class="sgmaincolor"/><path d="M78.5,52.567a3.325,3.325,0,0,1-.645-.062c-1.317-.269-2.338-1.322-3.043-3.135a10.773,10.773,0,0,1-.783-3.891,14.524,14.524,0,0,1,.282-3.048,13.622,13.622,0,0,1,2.2-5c1.852-2.777,3.763-3.078,5.035-2.832l.012,0c1.308.265,2.329,1.319,3.035,3.131a10.779,10.779,0,0,1,.783,3.893,14.44,14.44,0,0,1-.282,3.088,11.164,11.164,0,0,1-3.238,6.3A5.113,5.113,0,0,1,78.5,52.567Zm2.346-16.035c-.884,0-1.786.681-2.685,2.03a11.632,11.632,0,0,0-1.894,4.287,12.439,12.439,0,0,0-.238,2.623,8.936,8.936,0,0,0,.646,3.171c.305.784.824,1.749,1.571,1.9a2.876,2.876,0,0,0,2.271-1.019A9.284,9.284,0,0,0,83.14,44.3a12.53,12.53,0,0,0,.239-2.669,8.8,8.8,0,0,0-.646-3.172c-.3-.782-.822-1.744-1.565-1.9A1.635,1.635,0,0,0,80.849,36.532Z"/><path d="M54.144,52.67a3.329,3.329,0,0,1-.646-.063c-1.316-.268-2.337-1.322-3.043-3.133a10.793,10.793,0,0,1-.782-3.892,14.421,14.421,0,0,1,.282-3.049,13.613,13.613,0,0,1,2.2-5c1.852-2.775,3.764-3.072,5.034-2.832,1.321.27,2.342,1.322,3.047,3.133h0a10.8,10.8,0,0,1,.784,3.894,12.394,12.394,0,0,1-.282,3.087,11.167,11.167,0,0,1-3.238,6.3A5.119,5.119,0,0,1,54.144,52.67Zm2.341-16.036c-.876,0-1.779.68-2.68,2.03a11.674,11.674,0,0,0-1.9,4.287,12.53,12.53,0,0,0-.237,2.623,8.908,8.908,0,0,0,.645,3.171c.3.784.825,1.749,1.572,1.9a2.891,2.891,0,0,0,2.271-1.018,9.284,9.284,0,0,0,2.62-5.224,10.545,10.545,0,0,0,.24-2.63,9.006,9.006,0,0,0-.646-3.21v0c-.3-.782-.824-1.747-1.571-1.9A1.791,1.791,0,0,0,56.485,36.634Z"/><path d="M36.938,63.6a4.943,4.943,0,0,1-3.586-1.757c-3.312-3.4-6.023-8.3-8.072-14.592C23.323,51.1,21.82,54.1,20.8,56.2c-2.544,4.854-4.671,7.169-6.707,7.312-1.511.115-2.755-1-3.709-3.3-2-5.158-4.158-15.152-6.427-29.727a4.287,4.287,0,0,1,.826-3.372A4.1,4.1,0,0,1,7.951,25.53,3.816,3.816,0,0,1,12.388,29.2c.99,6.75,2.084,12.773,3.258,17.943l7.291-13.829c.949-1.8,2.207-2.757,3.737-2.858,1.575-.1,3.571.522,4.229,4.085a80.575,80.575,0,0,0,2.207,9.076c1.067-7.773,2.666-13.63,4.766-17.443a3.957,3.957,0,0,1,3.375-2.222,4.364,4.364,0,0,1,3.135,1,4.032,4.032,0,0,1,1.576,2.916,4.384,4.384,0,0,1-.505,2.421c-1.438,2.644-2.677,7.252-3.686,13.7a71.8,71.8,0,0,0-1.1,14.576,5.6,5.6,0,0,1-.583,3.1,3.5,3.5,0,0,1-2.861,1.925C37.134,63.593,37.038,63.6,36.938,63.6ZM25.514,43.583c.032,0,.065,0,.1.005a1,1,0,0,1,.865.722C28.5,51.44,31.3,56.87,34.789,60.449a2.973,2.973,0,0,0,2.276,1.144,1.513,1.513,0,0,0,1.26-.879,3.6,3.6,0,0,0,.35-2V58.7A73.491,73.491,0,0,1,39.8,43.677c1.059-6.773,2.335-11.463,3.9-14.343A2.366,2.366,0,0,0,43.967,28a2.028,2.028,0,0,0-.823-1.487,2.423,2.423,0,0,0-1.741-.57,2.005,2.005,0,0,0-1.77,1.184c-2.346,4.26-4.044,11.318-5.049,20.989a1,1,0,0,1-1.925.263,74,74,0,0,1-3.722-13.476c-.474-2.564-1.6-2.494-2.131-2.454-.3.02-1.192.078-2.1,1.8L16.172,50.434a1,1,0,0,1-1.855-.228c-1.423-5.77-2.739-12.745-3.91-20.729-.2-1.5-.865-2.063-2.309-1.952a2.1,2.1,0,0,0-1.722.8,2.314,2.314,0,0,0-.441,1.857C8.181,44.61,10.3,54.465,12.242,59.468c.32.773.984,2.12,1.71,2.049.565-.04,2.184-.725,5.064-6.218,1.2-2.466,3.089-6.233,5.608-11.17A1,1,0,0,1,25.514,43.583Z"/><path d="M63,78a1,1,0,0,1-.507-.138L45.728,68H11C5.8,67.992-.009,63.713,0,58V28a9.225,9.225,0,0,1,2.869-6.514A11.716,11.716,0,0,1,11,18H85c5.2.008,11.008,4.287,11,10V58a9.587,9.587,0,0,1-3.5,7.1A11.631,11.631,0,0,1,85.014,68H60.477l3.452,8.629A1,1,0,0,1,63,78ZM46,66a1,1,0,0,1,.507.138l14.478,8.516-2.914-7.283A1,1,0,0,1,59,66H85.013A9.606,9.606,0,0,0,91.187,63.6,7.5,7.5,0,0,0,94,58V28c.007-4.5-4.833-7.993-9-8H10.987a9.71,9.71,0,0,0-6.7,2.9A7.25,7.25,0,0,0,2,27.993V58c-.007,4.5,4.833,7.993,9,8Z"/><path d="M54.414,59.383a11.778,11.778,0,0,1-2.323-.259,9.991,9.991,0,0,1-6.87-5,16.085,16.085,0,0,1-1.983-8.193,21.667,21.667,0,0,1,3.2-11.472c2.554-4.174,5.911-6.29,9.974-6.29h.018a11.259,11.259,0,0,1,2.3.258,10.031,10.031,0,0,1,6.872,5,15.591,15.591,0,0,1,1.983,8.154,21.921,21.921,0,0,1-3.193,11.506C61.875,57.265,58.518,59.383,54.414,59.383ZM56.408,30.17c-3.366,0-6.072,1.745-8.269,5.336a19.691,19.691,0,0,0-2.9,10.43,14.131,14.131,0,0,0,1.718,7.193,7.963,7.963,0,0,0,5.551,4.038,7.582,7.582,0,0,0,1.907.216c3.4,0,6.106-1.743,8.266-5.329v0a19.69,19.69,0,0,0,2.9-10.473,13.664,13.664,0,0,0-1.714-7.146,8,8,0,0,0-5.559-4.048A7.749,7.749,0,0,0,56.408,30.17Z"/><path d="M78.734,59.422h-.018a11.189,11.189,0,0,1-2.3-.259,9.988,9.988,0,0,1-6.869-5,16.078,16.078,0,0,1-1.983-8.192,21.661,21.661,0,0,1,3.2-11.472c2.555-4.173,5.911-6.29,9.975-6.29a13.687,13.687,0,0,1,2.321.258,9.995,9.995,0,0,1,6.871,5,15.413,15.413,0,0,1,1.984,8.167,21.934,21.934,0,0,1-3.192,11.491C86.2,57.3,82.84,59.422,78.734,59.422Zm2-29.213c-3.367,0-6.072,1.745-8.27,5.336a19.685,19.685,0,0,0-2.9,10.43,14.128,14.128,0,0,0,1.717,7.191,7.962,7.962,0,0,0,5.552,4.04,9.707,9.707,0,0,0,1.906.216c3.4,0,6.107-1.743,8.266-5.329v0a19.7,19.7,0,0,0,2.9-10.473,13.461,13.461,0,0,0-1.714-7.146,7.974,7.974,0,0,0-5.556-4.048A7.34,7.34,0,0,0,80.729,30.209Z"/></svg>