<svg xmlns="http://www.w3.org/2000/svg" viewBox="0 0 64 64"><path d="M44,25H42V20a10,10,0,0,0-20,0v5H20a7,7,0,0,0-7,7V47a7,7,0,0,0,7,7H44a7,7,0,0,0,7-7V32A7,7,0,0,0,44,25ZM24,20a8,8,0,0,1,16,0v5H24ZM49,47a5,5,0,0,1-5,5H20a5,5,0,0,1-5-5V32a5,5,0,0,1,5-5H44a5,5,0,0,1,5,5Z"/><path d="M32,31a5,5,0,0,0-5,5,4.94,4.94,0,0,0,1,3v5.15A2.89,2.89,0,0,0,30.88,47h2.24A2.87,2.87,0,0,0,36,44.13V39a5,5,0,0,0,1-3A5,5,0,0,0,32,31Zm0,2a3,3,0,0,1,.67,5.92l-.13,0A2.35,2.35,0,0,1,32,39a3.07,3.07,0,0,1-.53,0l-.17,0A3,3,0,0,1,32,33Zm2,11.13a.87.87,0,0,1-.86.87H30.88a.9.9,0,0,1-.88-.9V40.61a6.73,6.73,0,0,0,1,.28l.11,0a4.85,4.85,0,0,0,1.86,0l.1,0a7.65,7.65,0,0,0,.95-.27Z"/></svg>
