<svg xmlns="http://www.w3.org/2000/svg" viewBox="0 0 96 96"><path d="M89.1,87.073c-3.7,4.417-8.357,2.95-12.5-1.2L26.783,38.188S16.273,42.832,8.289,36.5C3.5,32.7,4.162,24.276,5.279,18.439L17.318,28.973l8.453-3.83,2.081-8.209L17.318,6.4c7.524-3.01,13.534-2.283,17.988,1.9,7.594,7.13,1.988,19.376,1.988,19.376L87.105,75.365C91.2,79.463,92.647,82.832,89.1,87.073Z" class="sgmaincolor"/><path d="M38.005,72.009,23.462,87.416a9.077,9.077,0,0,1-12.836,0h0c-3.539-3.539-3.361-10.511.178-14.05L25.168,59.171Z" class="sgmaincolor"/><path d="M87.8,74.642,55.361,43.588l23.7-23,2.467,2.467a1,1,0,0,0,.707.293.844.844,0,0,0,.087,0,1,1,0,0,0,.733-.424l8.484-12.153a1,1,0,0,0-.113-1.28l-3.5-3.5a1,1,0,0,0-1.279-.113L74.485,14.357a1,1,0,0,0-.134,1.528l3.293,3.293L53.916,42.2,38.483,27.429C39.574,24.68,43.064,14.212,35.99,7.57c-4.816-4.521-11.223-5.227-19.044-2.1a1,1,0,0,0-.336,1.635L26.742,17.24,24.92,24.432,17.491,27.8,5.938,17.687a1,1,0,0,0-1.641.565c-1.8,9.422-.669,15.823,3.371,19.028,7.31,5.8,16.414,3,18.889,2.076l15.254,14.6L32.013,64.6l-6.138-6.138a1,1,0,0,0-1.41,0L10.1,72.658A11.194,11.194,0,0,0,7.06,80.374a10.675,10.675,0,0,0,2.859,7.749A10.078,10.078,0,0,0,24.19,88.1L38.733,72.695a1,1,0,0,0-.021-1.393l-5.284-5.284,9.828-10.674,32.63,31.24c2.739,2.739,5.532,4.179,8.1,4.179.1,0,.2,0,.3-.007a7.647,7.647,0,0,0,5.577-3.042C94.272,82.45,91.483,78.328,87.8,74.642ZM87.1,7.993l2.319,2.319L82.1,20.8l-5.486-5.487ZM22.755,86.709a8.079,8.079,0,0,1-11.423,0c-3.086-3.086-3-9.463.174-12.633L25.164,60.581l6.176,6.177c.009.008.012.02.02.028s.015.007.021.013l5.229,5.23Zm65.575-.278A5.742,5.742,0,0,1,84.2,88.758c-2.065.088-4.459-1.15-6.913-3.6L27.475,37.466a1,1,0,0,0-.692-.278,1.02,1.02,0,0,0-.4.085c-.1.043-10.066,4.312-17.47-1.559C5.067,32.664,5.08,26,5.959,20.363l10.7,9.363a1,1,0,0,0,1.072.158l8.453-3.829a1,1,0,0,0,.556-.665l2.081-8.209a1,1,0,0,0-.262-.953L19.126,6.8C25.5,4.61,30.712,5.357,34.621,9.029c6.973,6.546,1.817,18.116,1.764,18.232A1,1,0,0,0,36.6,28.4L86.4,76.071C90.66,80.334,91.165,83.045,88.33,86.431Z"/></svg>