<svg xmlns="http://www.w3.org/2000/svg" viewBox="0 0 96 96"><rect x="3.087" y="32.706" width="90.015" height="47.046" class="sgmaincolor"/><circle cx="10.715" cy="23.78" r="2.524"/><circle cx="18.286" cy="23.78" r="2.524"/><circle cx="25.857" cy="23.78" r="2.524"/><path d="M93.1,14.4H3.087a1,1,0,0,0-1,1V79.752a1,1,0,0,0,1,1H22.3a27.858,27.858,0,0,0,49.325,0H93.1a1,1,0,0,0,1-1V15.4A1,1,0,0,0,93.1,14.4Zm-1,2V31.706H4.087V16.4ZM28.385,85.766a26.039,26.039,0,0,1-3.793-5.014h9.474c.076.277.137.572.218.842A20.989,20.989,0,0,0,28.385,85.766ZM61.528,66.777a47.664,47.664,0,0,0-1.993-13.158,21.469,21.469,0,0,0,5.816-4.026,25.8,25.8,0,0,1,7.462,17.184Zm11.285,2a25.7,25.7,0,0,1-2.432,9.975H60.375a50.072,50.072,0,0,0,1.153-9.975ZM58.875,51.687a21.854,21.854,0,0,0-5.814-9.054,25.826,25.826,0,0,1,10.818,5.589A19.878,19.878,0,0,1,58.875,51.687Zm-1.893.833a26.947,26.947,0,0,1-9.021,1.774V42.276C51.6,42.891,54.856,46.81,56.982,52.52Zm.651,1.922a45.429,45.429,0,0,1,1.895,12.335H47.961V56.3A29.17,29.17,0,0,0,57.633,54.442Zm1.895,14.335a46.7,46.7,0,0,1-1.27,9.975h-10.3V68.777ZM57.742,80.752l0,.012-.032-.012Zm-22.077-2a46.7,46.7,0,0,1-1.271-9.975H45.961v9.975Zm.553,2-.034.012,0-.012ZM34.394,66.777a45.467,45.467,0,0,1,1.9-12.335A29.159,29.159,0,0,0,45.961,56.3V66.777ZM45.961,54.3a26.944,26.944,0,0,1-9.021-1.776c2.127-5.709,5.384-9.628,9.021-10.243ZM35.047,51.688a19.913,19.913,0,0,1-5-3.466,25.826,25.826,0,0,1,10.818-5.589A21.858,21.858,0,0,0,35.047,51.688Zm-.66,1.931a47.7,47.7,0,0,0-1.993,13.158H21.11a25.786,25.786,0,0,1,7.462-17.184A21.466,21.466,0,0,0,34.387,53.619ZM32.394,68.777a50.072,50.072,0,0,0,1.153,9.975h-10a25.678,25.678,0,0,1-2.432-9.975ZM29.835,87.153a19.331,19.331,0,0,1,5.088-3.618,22.143,22.143,0,0,0,5.938,9.387A25.814,25.814,0,0,1,29.835,87.153ZM45.961,93.28c-3.709-.627-7.021-4.693-9.144-10.587a26.883,26.883,0,0,1,9.144-1.824Zm2,0V80.869a26.879,26.879,0,0,1,9.144,1.823C54.983,88.586,51.67,92.653,47.961,93.28Zm5.1-.358A22.138,22.138,0,0,0,59,83.534a19.328,19.328,0,0,1,5.09,3.618A25.823,25.823,0,0,1,53.061,92.922Zm12.477-7.157a20.982,20.982,0,0,0-5.9-4.172c.081-.27.142-.565.218-.841H69.33A25.987,25.987,0,0,1,65.538,85.765Zm7.045-7.013a27.82,27.82,0,0,0-6.569-31.3.973.973,0,0,0-.078-.092c-.012-.009-.027-.01-.039-.019a27.807,27.807,0,0,0-37.87,0c-.011.008-.025.01-.037.018-.032.026-.048.062-.077.09a27.821,27.821,0,0,0-6.574,31.3H4.087V33.706H92.1V78.752Z"/></svg>