<svg xmlns="http://www.w3.org/2000/svg" viewBox="0 0 96 96"><g opacity="0"><rect width="96" height="96" fill="#fff"/></g><rect x="21" y="35" width="54" height="58" class="sgmaincolor"/><path d="M75,34H68V22a20,20,0,0,0-40,0V34H21a1,1,0,0,0-1,1V93a1,1,0,0,0,1,1H75a1,1,0,0,0,1-1V35A1,1,0,0,0,75,34ZM30,22a18,18,0,0,1,36,0V34H63V21.5A14.517,14.517,0,0,0,48.5,7h-1A14.517,14.517,0,0,0,33,21.5V34H30ZM61,34H35V21.5A12.514,12.514,0,0,1,47.5,9h1A12.514,12.514,0,0,1,61,21.5ZM74,92H22V36H74Z"/><path d="M45,78c-.033,0-.066,0-.1,0a1,1,0,0,1-.7-.4l-3-4a1,1,0,1,1,1.6-1.2l2.347,3.13,8.189-7.277a1,1,0,0,1,1.328,1.494l-9,8A1,1,0,0,1,45,78Z"/><path d="M55,87H41a1,1,0,0,1-.852-.476l-8-13a1,1,0,0,1,0-1.048l8-13A1,1,0,0,1,41,59H55a1,1,0,0,1,.851.476l8,13a.994.994,0,0,1,0,1.048l-8,13A1,1,0,0,1,55,87ZM41.559,85H54.441l7.385-12L54.441,61H41.559L34.174,73Z"/><path d="M36.215,53.856H34V50H30.717v3.859H28.489V44.614h2.228v3.669H34V44.614h2.216Z"/><path d="M44.694,46.335H41.921v7.521H39.692V46.335H36.97V44.614h7.724Z"/><path d="M52.99,46.335H50.217v7.521H47.988V46.335H45.266V44.614H52.99Z"/><path d="M56.158,50.721v3.135H53.931V44.614h3.688a4.285,4.285,0,0,1,1.875.391,2.945,2.945,0,0,1,1.264,1.11,3.041,3.041,0,0,1,.447,1.635,2.671,2.671,0,0,1-.968,2.161,4.014,4.014,0,0,1-2.657.81Zm0-1.72h1.461a1.372,1.372,0,0,0,.986-.324,1.2,1.2,0,0,0,.34-.914,1.486,1.486,0,0,0-.349-1.035,1.236,1.236,0,0,0-.952-.393H56.158Z"/><path d="M67.158,51.4a.914.914,0,0,0-.346-.761,4.3,4.3,0,0,0-1.214-.565,11.571,11.571,0,0,1-1.422-.564,2.693,2.693,0,0,1-1.8-2.426,2.172,2.172,0,0,1,.447-1.354,2.9,2.9,0,0,1,1.267-.915,4.946,4.946,0,0,1,1.841-.327,4.3,4.3,0,0,1,1.787.356,2.838,2.838,0,0,1,1.228,1.012,2.653,2.653,0,0,1,.438,1.5H67.165a1.116,1.116,0,0,0-.346-.876,1.349,1.349,0,0,0-.936-.311,1.52,1.52,0,0,0-.943.264.776.776,0,0,0,.035,1.314,4.808,4.808,0,0,0,1.339.6,8.213,8.213,0,0,1,1.575.663,2.645,2.645,0,0,1,1.5,2.381,2.26,2.26,0,0,1-.914,1.9,4.071,4.071,0,0,1-2.508.691,4.97,4.97,0,0,1-2.034-.4,3.065,3.065,0,0,1-1.372-1.1A2.885,2.885,0,0,1,62.1,50.86h2.234a1.416,1.416,0,0,0,.384,1.095,1.814,1.814,0,0,0,1.247.353,1.425,1.425,0,0,0,.873-.239A.783.783,0,0,0,67.158,51.4Z"/></svg>