<svg xmlns="http://www.w3.org/2000/svg" viewBox="0 0 32.01 23.96"><path d="M32,16.58A8.3,8.3,0,0,0,24.06,8.3l-.24,0h-4.4V6a2,2,0,0,0-2-2H8.44a2,2,0,0,0-2,2V8.28H2a2,2,0,0,0-2,2V25.88a2,2,0,0,0,2,2h21.8a2,2,0,0,0,2-2v-1.3A8.3,8.3,0,0,0,32,16.58ZM7.82,6a.62.62,0,0,1,.62-.62h8.95A.62.62,0,0,1,18,6V8.28H7.82ZM1.4,10.3A.62.62,0,0,1,2,9.67H19.13a8.29,8.29,0,0,0-3.71,6.91c0,.23,0,.46,0,.68h0l-2.47.6L1.4,15.09Zm23,15.59a.62.62,0,0,1-.62.62H2a.62.62,0,0,1-.62-.62V16.53l11.43,2.73.16,0,.16,0,2.54-.61h0a8.3,8.3,0,0,0,8,6.23c.25,0,.49,0,.73,0h0Zm-8.9-8v0ZM23.71,24a7.4,7.4,0,1,1,7.4-7.4A7.41,7.41,0,0,1,23.71,24Z" transform="translate(0 -3.94)"/><path d="M22.93,17.39H20.19V15.83h2.75V13.06h1.56v2.77h2.75v1.55H24.49v2.73H22.93Z" transform="translate(0 -3.94)"/></svg>