<svg id="fe3abf89-0555-4437-b3eb-33121f2a39f0" xmlns="http://www.w3.org/2000/svg" viewBox="0 0 130.432 129.407"><circle cx="26.218" cy="42.837" r="16.21" class="sgmaincolor"/><circle cx="103.798" cy="42.837" r="16.21" class="sgmaincolor"/><polygon points="13.726 101.548 42.819 101.548 42.819 70.866 31.182 60.334 13.726 60.334 13.726 101.548" class="sgmaincolor"/><polygon points="115.55 101.548 86.457 101.548 86.457 70.866 98.094 60.334 115.55 60.334 115.55 101.548" class="sgmaincolor"/><path d="M122.542,67.246h-6.877a17.211,17.211,0,1,0-9.749,0h-.829a1,1,0,0,0-.671.259L92.778,78.037a1,1,0,0,0-.329.741v30.683a1,1,0,0,0,1,1h29.093a1,1,0,0,0,1-1V68.246A1,1,0,0,0,122.542,67.246ZM95.58,50.75a15.21,15.21,0,1,1,15.21,15.21A15.227,15.227,0,0,1,95.58,50.75Zm25.962,57.711H94.449V79.221l11.024-9.975h16.069Z" transform="translate(-6.992 -7.912)"/><rect x="48.937" y="84.005" width="29.092" height="12.122" transform="translate(-53.681 80.162) rotate(-53.786)" class="sgmaincolor"/><path d="M85.89,63.936,73.983,53.614a1,1,0,0,0-1.411.1L54.31,74.782a1,1,0,0,0,.1,1.411l6.411,5.557L50.811,95.421V78.778a1,1,0,0,0-.33-.741L38.845,67.505a1,1,0,0,0-.671-.259h-.09a17.21,17.21,0,1,0-9.749,0H20.719a1,1,0,0,0-1,1v41.215a1,1,0,0,0,1,1H49.811a1,1,0,0,0,1-1v-9.408l8.378,6.136a1,1,0,0,0,.591.194.964.964,0,0,0,.152-.012,1,1,0,0,0,.655-.4L77.774,82.5a1,1,0,0,0-.216-1.4l-3.2-2.34L85.991,65.347A1,1,0,0,0,85.89,63.936ZM18,50.75A15.21,15.21,0,1,1,33.21,65.96,15.227,15.227,0,0,1,18,50.75Zm30.811,57.711H21.719V69.246H37.788l11.023,9.975ZM75.57,82.126,59.564,103.985,51.4,98.005,62.338,83.064l3.98,3.45a1,1,0,0,0,1.411-.1l5.319-6.135Zm-12.047-.681,3.88-5.3,4.025,2.947-4.555,5.255Zm9.22-3.868-4.965-3.635a1,1,0,0,0-1.4.216l-4.374,5.973-5.531-4.794L73.428,55.781l10.4,9.012Z" transform="translate(-6.992 -7.912)"/><path d="M72.988,131h-65a1,1,0,1,1,0-2h65a1,1,0,0,1,0,2Z" transform="translate(-6.992 -7.912)"/><path d="M130.111,137.319l-.191,0a7.318,7.318,0,0,1,.181-14.633l.191,0a7.329,7.329,0,0,1,7.13,7.5h0a7.32,7.32,0,0,1-7.311,7.132Zm-.008-12.635a5.317,5.317,0,0,0-.132,10.633c.046,0,.091,0,.137,0a5.324,5.324,0,0,0,5.314-5.183h0a5.324,5.324,0,0,0-5.181-5.45C130.194,124.684,130.148,124.684,130.1,124.684Zm6.319,5.478h0Z" transform="translate(-6.992 -7.912)"/><path d="M82.212,25.535a.989.989,0,0,1-.258-.034L66.366,21.338a1,1,0,0,1-.446-1.676L77.472,8.2a.986.986,0,0,1,.969-.254,1,1,0,0,1,.7.714L83.18,24.285a1,1,0,0,1-.968,1.25Zm-13.648-5.68,12.251,3.272L77.644,10.85Z" transform="translate(-6.992 -7.912)"/></svg>