<svg xmlns="http://www.w3.org/2000/svg" width="80" height="80" viewBox="0 0 80 80"><polygon points="20.247 20.247 0.494 40 40 40 20.247 20.247" class="sgmaincolor"/><polygon points="59.753 20.247 40 0.494 40 40 59.753 20.247" class="sgmaincolor"/><polygon points="59.753 59.753 79.506 40 40 40 59.753 59.753" class="sgmaincolor"/><polygon points="20.247 59.753 40 79.506 40 40 20.247 59.753" class="sgmaincolor"/><path d="M79.963,39.811a.5.5,0,0,0-.457-.3H60.247V20.247a.5.5,0,0,0-.145-.35L40.349.144a.494.494,0,0,0-.843.35V19.753H20.247a.5.5,0,0,0-.35.145L.145,39.651a.494.494,0,0,0,.349.843H19.753V59.753a.489.489,0,0,0,.038.188.508.508,0,0,0,.107.162L39.651,79.855A.493.493,0,0,0,40,80a.5.5,0,0,0,.189-.038.492.492,0,0,0,.3-.456V60.247H59.753a.5.5,0,0,0,.35-.146L79.856,40.349A.5.5,0,0,0,79.963,39.811Zm-38.771-.3L59.259,21.439V39.506Zm-.7-37.82L59.055,20.247,40.494,38.808Zm-.988,37.122L21.439,20.74H39.506ZM20.247,20.945,38.808,39.506H1.686ZM38.808,40.494,20.741,58.561V40.494Zm.7,37.82L20.945,59.753,39.506,41.192Zm.988-37.122L58.561,59.259H40.494ZM59.753,59.055,41.192,40.494H78.314Z"/></svg>