<svg xmlns="http://www.w3.org/2000/svg" viewBox="0 0 96 96"><g opacity="0"><rect width="96" height="96" fill="#fff"/></g><polygon points="83 78 48 93 13 77 13 37 48 53 83 37 91 52 83 56 83 78" class="sgmaincolor"/><path d="M91.883,51.529l-8-15c-.006-.01-.016-.016-.022-.027a1,1,0,0,0-.211-.261c-.018-.015-.039-.023-.057-.036a.99.99,0,0,0-.177-.114l-29-13.257a1,1,0,1,0-.832,1.818L80.6,37,48,51.9,15.405,37,42.416,24.652a1,1,0,1,0-.832-1.818L12.612,36.078h0l-.025.012,0,0c-.015.007-.026.018-.04.026a.985.985,0,0,0-.215.147c-.008.008-.018.013-.026.021s-.026.039-.041.057a.992.992,0,0,0-.125.17c-.008.014-.02.023-.028.038l-8,16A1,1,0,0,0,5,54a1.016,1.016,0,0,0,.351-.063L12,51.443V77a1,1,0,0,0,.584.909l35,16,.012,0a.98.98,0,0,0,.8.007h0l35-15A1,1,0,0,0,84,78V57a.912.912,0,0,0-.03-.147l7.5-3.969a1,1,0,0,0,.415-1.355ZM7.033,51.17,12,41.236v8.071ZM14,50V38.556L47,53.642v37.8L14,76.357ZM82,77.341,49,91.483V57.026l7.116,13.442a1,1,0,0,0,1.352.416L82,57.9ZM57.416,68.648,49.38,53.469,82.561,38.3l7.085,13.285Z"/><path d="M56.753,32.342a1,1,0,0,0-1.411-.095L49,37.8V3a1,1,0,0,0-2,0V37.8l-6.341-5.549a1,1,0,0,0-1.318,1.506l8,7a1.01,1.01,0,0,0,.164.1c.009,0,.017.013.027.018a.8.8,0,0,0,.071.048l.029.01A1,1,0,0,0,48,41h0a1,1,0,0,0,.368-.074l.029-.01a.8.8,0,0,0,.071-.048c.01-.005.018-.013.027-.018a1.01,1.01,0,0,0,.164-.1l8-7A1,1,0,0,0,56.753,32.342Z"/></svg>