<svg xmlns="http://www.w3.org/2000/svg" viewBox="0 0 96 96"><g opacity="0"><rect width="96" height="96" fill="#fff"/></g><polygon points="36.096 14.753 25.107 52.931 40.886 52.931 25.389 81.247 70.893 40.533 48.634 40.533 63.708 15.175 36.096 14.753" class="sgmaincolor"/><path d="M25.39,82.247a1,1,0,0,1-.877-1.48L39.2,53.931H25.107a1,1,0,0,1-.961-1.276L35.135,14.476a1,1,0,0,1,.961-.723h.015l27.613.423a1,1,0,0,1,.843,1.51L50.392,39.533h20.5a1,1,0,0,1,.667,1.746l-45.5,40.713A1,1,0,0,1,25.39,82.247Zm1.046-30.316h14.45a1,1,0,0,1,.877,1.48l-12.7,23.208L68.275,41.533H48.634a1,1,0,0,1-.86-1.511L61.966,16.149l-25.121-.385Z"/></svg>