<svg xmlns="http://www.w3.org/2000/svg" viewBox="0 0 60.6 63"><path d="M36.3,31.2a1.1,1.1,0,0,1-.3.7,5.8,5.8,0,0,1-8,0,.9.9,0,0,1,0-1.3,1.1,1.1,0,0,1,1.4-.1,3.7,3.7,0,0,0,5.2,0l.4-.3h.3a1,1,0,0,1,1,1Z" transform="translate(-1.7 -0.9)"></path><path d="M59.9,51.1a20.2,20.2,0,0,0-4-2.4l-16.1-8V35.3a11.7,11.7,0,0,0,4-8.2,3.6,3.6,0,0,0,2.8-3.5V20.8a1.7,1.7,0,0,0-.1-.7,1.4,1.4,0,0,0-.2-.7v-.3A14.8,14.8,0,0,0,32.3.9H32A14.6,14.6,0,0,0,17.4,15.5a14.7,14.7,0,0,0,.4,3.6,3.3,3.3,0,0,0-.4,1.7v2.8a3.6,3.6,0,0,0,2.8,3.5,11.7,11.7,0,0,0,4,8.2v5.4l-.5.3-2.9,1.4a.1.1,0,0,1-.1.1l-1.5.7L8.8,48.4l-.7.3a24,24,0,0,0-3.7,2.2,6.2,6.2,0,0,0-2.7,5v8h2v-8a4.2,4.2,0,0,1,1.9-3.4,16.8,16.8,0,0,1,3.4-2l.7-.4,10-4.9,1.2-.6,4.9,5.6a1,1,0,0,0,.7.4,1.1,1.1,0,0,0,.7-.3l1.3-1.2.2.2-2,14.6h2l1.9-14h2.8l1.9,14h2l-2-14.6.2-.2,1.3,1.2a.9.9,0,0,0,.7.3h0a.9.9,0,0,0,.7-.4l4.9-5.6,11.8,5.8a22.4,22.4,0,0,1,3.8,2.2,4.1,4.1,0,0,1,1.6,3.3v8h2v-8A6,6,0,0,0,59.9,51.1ZM43.9,25V24l.8-1.2v.8A1.6,1.6,0,0,1,43.9,25ZM20.1,25a1.8,1.8,0,0,1-.8-1.5v-.7l.8,1.2Zm0-7.1h0v1.5a11.3,11.3,0,0,1-.8-3.9,12.7,12.7,0,0,1,25.4,0,11.3,11.3,0,0,1-.8,3.9v-4a1,1,0,0,0-.8-1,6.9,6.9,0,0,1-4.7-2.9.9.9,0,0,0-1.3-.2l-.2.2a17.3,17.3,0,0,1-3.5,3.1,16.1,16.1,0,0,1-12.1,2.5A1,1,0,0,0,20.1,17.9Zm2,8.4V19.1a18.3,18.3,0,0,0,12.4-2.9,17.1,17.1,0,0,0,3.1-2.7,10.6,10.6,0,0,0,4.3,2.6V26.3a9.9,9.9,0,0,1-19.8,0ZM37.8,36.6v4l-5.7,2.6h-.2l-5.7-2.6v-4A12,12,0,0,0,37.8,36.6ZM26.6,48.2l-3.9-4.5,2.5-1.2h.1l4.9,2.2-1,1Zm7.2-.3H30.2l-.3-.2.8-.7L32,45.7,33.3,47l.8.7Zm3.6.3-2.6-2.6-1-1,4.9-2.2,2.6,1.3Z" transform="translate(-1.7 -0.9)"></path><path d="M31,22a2.4,2.4,0,0,1-.2.8.9.9,0,0,1-.7.3h-.5a.8.8,0,0,1-.4-.4,2.3,2.3,0,0,0-1.9-1,2.2,2.2,0,0,0-1.8,1,.8.8,0,0,1-.7.5h-.6a1,1,0,0,1-.3-1.4,4.1,4.1,0,0,1,3.4-1.9,4,4,0,0,1,3.5,2Z" transform="translate(-1.7 -0.9)"></path><path d="M40.3,22a.9.9,0,0,1-.8,1.1h-.6l-.4-.4a2.2,2.2,0,0,0-1.8-1,2.3,2.3,0,0,0-1.9,1,.8.8,0,0,1-.7.5h-.6a1,1,0,0,1-.3-1.4,4.4,4.4,0,0,1,2.4-1.8h1.1a4.3,4.3,0,0,1,3.5,2C40.2,21.8,40.3,21.9,40.3,22Z" transform="translate(-1.7 -0.9)"></path><path d="M28.3,23.3a.9.9,0,0,1-1,1,.9.9,0,0,1-.9-1,.9.9,0,0,1,.9-.9A.9.9,0,0,1,28.3,23.3Z" transform="translate(-1.7 -0.9)"></path><path d="M37.6,23.3a.9.9,0,0,1-.9,1,.9.9,0,0,1-1-1,.9.9,0,0,1,1-.9A.9.9,0,0,1,37.6,23.3Z" transform="translate(-1.7 -0.9)"></path><path d="M33,24.7v2.6a.8.8,0,0,1-.3.7.9.9,0,0,1-.7.3h0a1,1,0,0,1-1-1V24.7a1,1,0,0,1,1-1h.3l.4.3A.9.9,0,0,1,33,24.7Z" transform="translate(-1.7 -0.9)"></path></svg>