<svg xmlns="http://www.w3.org/2000/svg" viewBox="0 0 96 96"><rect width="96" height="96" fill="#fff" opacity="0"/><polygon points="66.307 40.356 66.307 40.356 48.564 6.836 29.578 39.679 29.543 39.678 2.964 35.982 16.185 80.137 79.287 80.06 93.036 36.472 66.307 40.356" class="sgmaincolor"/><path d="M94,36.7a.967.967,0,0,0,.023-.3c0-.025,0-.049-.006-.074A.968.968,0,0,0,93.913,36c0-.008,0-.016-.008-.023s-.021-.021-.029-.034a1.026,1.026,0,0,0-.078-.12.978.978,0,0,0-.122-.11c-.017-.015-.03-.031-.048-.044a1,1,0,0,0-.294-.146.755.755,0,0,0-.079-.019.953.953,0,0,0-.3-.023c-.014,0-.028,0-.042,0h-.018L66.861,39.265,49.448,6.368a1,1,0,0,0-.865-.532,1.1,1.1,0,0,0-.885.5L29.047,38.6,3.1,34.992H3.1c-.012,0-.024,0-.037,0a.971.971,0,0,0-.319.023c-.02,0-.039.008-.059.014a1,1,0,0,0-.307.15c-.013.01-.024.024-.038.035a.971.971,0,0,0-.13.119.994.994,0,0,0-.076.115c-.009.014-.023.021-.031.036s0,.016-.008.024a.982.982,0,0,0-.109.322.665.665,0,0,0-.006.077.986.986,0,0,0,.02.3c0,.015,0,.03.008.045l0,.017L15.227,80.423a1.019,1.019,0,0,0,.062.129c.012.026.012.054.026.079s.025.029.035.045a.932.932,0,0,0,.066.086.959.959,0,0,0,.133.137c.027.022.054.043.083.063a.969.969,0,0,0,.175.091.859.859,0,0,0,.088.037.994.994,0,0,0,.286.046h.006l63.1-.077H79.3a1,1,0,0,0,.278-.045c.032-.01.06-.024.091-.037a.937.937,0,0,0,.169-.088.913.913,0,0,0,.086-.064.991.991,0,0,0,.129-.13.891.891,0,0,0,.069-.09.494.494,0,0,0,.035-.045.644.644,0,0,0,.025-.074.813.813,0,0,0,.063-.125L93.99,36.773a.157.157,0,0,0,0-.023C94,36.734,94,36.717,94,36.7Zm-15.3,41.871L50.072,62.033,91.317,38.6ZM4.644,38.107l41.4,23.912L16.783,78.647ZM48.057,63.179,75.564,79.065l-55.586.067ZM87.926,38.225,71.308,47.667l-3.453-6.525ZM48.526,8.9,69.569,48.655,48.064,60.874,25.886,48.065ZM24.154,47.065,7.9,37.679l20.066,2.79Z"/></svg>