<svg xmlns="http://www.w3.org/2000/svg" viewBox="0 0 96 96"><g opacity="0"><rect width="96" height="96" fill="#fff"/></g><polygon points="8 33 50 33 50 44 92 44 92 92 46 92 46 79 8 79 8 33" class="sgmaincolor"/><path d="M92,43H86V32a17,17,0,0,0-34,0V43H51V33a1,1,0,0,0-1-1H46V21a17,17,0,0,0-34,0V32H8a1,1,0,0,0-1,1V43H5a1,1,0,0,0-1,1v4a1,1,0,0,0,1,1H7v2H5a1,1,0,0,0-1,1v4a1,1,0,0,0,1,1H7v2H5a1,1,0,0,0-1,1v4a1,1,0,0,0,1,1H7v2H5a1,1,0,0,0-1,1v4a1,1,0,0,0,1,1H7v6a1,1,0,0,0,1,1H45V92a1,1,0,0,0,1,1H92a1,1,0,0,0,1-1V44A1,1,0,0,0,92,43ZM54,32a15,15,0,0,1,30,0V43H82V32a13,13,0,0,0-26,0V43H54ZM80,43H58V32a11,11,0,0,1,22,0ZM14,21a15,15,0,0,1,30,0V32H42V21a13,13,0,0,0-26,0V32H14ZM40,32H18V21a11,11,0,0,1,22,0ZM6,47V45H7v2Zm3-2H21v2H9ZM6,55V53H7v2Zm3-2H21v2H9ZM6,63V61H7v2Zm3-2H21v2H9ZM6,71V69H7v2Zm3-2H21v2H9Zm0,4H22a1,1,0,0,0,1-1V68a1,1,0,0,0-1-1H9V65H22a1,1,0,0,0,1-1V60a1,1,0,0,0-1-1H9V57H22a1,1,0,0,0,1-1V52a1,1,0,0,0-1-1H9V49H22a1,1,0,0,0,1-1V44a1,1,0,0,0-1-1H9V34H49v9H46a1,1,0,0,0-1,1V78H9ZM49,58H47V56h2Zm2-2H63v2H51ZM49,66H47V64h2Zm2-2H63v2H51ZM49,74H47V72h2Zm2-2H63v2H51Zm12,8v2H47V80H63ZM47,78V76h2v2Zm0-8V68h2v2Zm0-8V60h2v2Zm0-8V45h2v9ZM91,91H47V84H64a1,1,0,0,0,1-1V79a1,1,0,0,0-1-1H51V76H64a1,1,0,0,0,1-1V71a1,1,0,0,0-1-1H51V68H64a1,1,0,0,0,1-1V63a1,1,0,0,0-1-1H51V60H64a1,1,0,0,0,1-1V55a1,1,0,0,0-1-1H51V45H91Z"/></svg>