<svg xmlns="http://www.w3.org/2000/svg" viewBox="0 0 96 96"><g opacity="0"><rect width="96" height="96" fill="#fff"/></g><rect x="35" y="80" width="24" height="10" class="sgmaincolor"/><polygon points="25 22 87 22 75 59 14 59 25 22" class="sgmaincolor"/><path d="M75,60a1,1,0,0,0,.951-.691l12-37A1,1,0,0,0,87,21H76V13.5a1,1,0,0,0-1-1H43.4L35.945,5.281A1,1,0,0,0,35.25,5H14a1,1,0,0,0-1,1V59c0,.034.016.064.019.1a.948.948,0,0,0,.034.165.986.986,0,0,0,.107.249c.017.027.019.061.038.087s.035.024.048.041a.983.983,0,0,0,.23.191.909.909,0,0,0,.1.071A.983.983,0,0,0,14,60H46V79H35a1,1,0,0,0-1,1v4H9a1,1,0,0,0,0,2H34v4a1,1,0,0,0,1,1H59a1,1,0,0,0,1-1V86H85a1,1,0,0,0,0-2H60V80a1,1,0,0,0-1-1H48V60ZM58,81v8H36V81ZM34.846,7l7.459,7.219a1,1,0,0,0,.7.281H74V21H25a1,1,0,0,0-.959.715L15,52.126V7Zm-9.1,16H85.624L74.273,58H15.341Z"/></svg>