<svg xmlns="http://www.w3.org/2000/svg" viewBox="0 0 96 96"><rect width="96" height="96" fill="#fff" opacity="0"/><polygon points="93 65.427 93 86.89 74.8 65.427 19.098 65.427 19.098 14.988 93 14.988 93 65.427" class="sgmaincolor"/><path d="M93,13.988H79.122V6.11a1,1,0,0,0-1-1H3a1,1,0,0,0-1,1V67.573a1,1,0,0,0,1.8.6L16.378,51.4H18.1V65.427a1,1,0,0,0,1,1H74.338l17.9,21.11A1,1,0,0,0,94,86.89v-71.9A1,1,0,0,0,93,13.988ZM15.878,49.4a1,1,0,0,0-.8.4L4,64.573V7.11H77.122v6.878H19.1a1,1,0,0,0-1,1V49.4ZM92,84.165,75.563,64.78a1,1,0,0,0-.762-.353H20.1V15.988H77.853a.974.974,0,0,0,.269.054.96.96,0,0,0,.268-.054H92Z"/><path d="M84.075,34h-56a1,1,0,0,1,0-2h56a1,1,0,0,1,0,2Z"/><path d="M63.075,47h-35a1,1,0,0,1,0-2h35a1,1,0,0,1,0,2Z"/></svg>