<svg xmlns="http://www.w3.org/2000/svg" viewBox="0 0 96 96"><g opacity="0"><rect x="-0.08" y="-0.044" width="96.161" height="96.088" fill="#fff"/></g><rect x="12.044" y="12.044" width="71.912" height="71.912" class="sgmaincolor"/><path d="M83.956,84.956H12.044a1,1,0,0,1-1-1V12.044a1,1,0,0,1,1-1H83.956a1,1,0,0,1,1,1V83.956A1,1,0,0,1,83.956,84.956Zm-70.912-2H82.956V13.044H13.044Z"/><path d="M72.633,39.733H23.367a1,1,0,1,1,0-2H72.633a1,1,0,0,1,0,2Z"/><path d="M72.468,52.752H23.532a1,1,0,0,1,0-2H72.468a1,1,0,0,1,0,2Z"/><path d="M72.462,64.917H23.538a1,1,0,1,1,0-2H72.462a1,1,0,1,1,0,2Z"/></svg>