<svg xmlns="http://www.w3.org/2000/svg" viewBox="0 0 96 96"><g opacity="0"><rect width="96" height="96" fill="#fff"/></g><path d="M69.244,23.666A24.235,24.235,0,0,0,58.622,26.1a24.376,24.376,0,0,0-21.244,0,24.334,24.334,0,1,0,0,43.8,24.376,24.376,0,0,0,21.244,0A24.336,24.336,0,1,0,69.244,23.666Z" class="sgmaincolor"/><path d="M94.617,48.25c0-.117.009-.233.009-.351A25.381,25.381,0,0,0,69.309,22.575l-.008,0-.006,0-.051,0a25.278,25.278,0,0,0-10.63,2.336,25.259,25.259,0,0,0-10.546-2.334l-.011,0-.008,0-.05,0a25.277,25.277,0,0,0-10.622,2.333,25.284,25.284,0,0,0-10.556-2.331l-.009,0-.006,0-.051,0A25.382,25.382,0,0,0,1.373,47.9c0,.119.007.237.009.356,0,.015-.009.029-.009.045s.01.037.011.057A25.225,25.225,0,0,0,9.209,66.173a.966.966,0,0,0,.278.366.927.927,0,0,0,.231.116A25.318,25.318,0,0,0,24.67,73.132a7.385,7.385,0,0,0,4.133,0,25.275,25.275,0,0,0,8.587-2.248,25.254,25.254,0,0,0,8.525,2.248,7.438,7.438,0,0,0,4.155,0,25.269,25.269,0,0,0,8.559-2.248,25.255,25.255,0,0,0,8.529,2.25,7.519,7.519,0,0,0,4.171,0,25.311,25.311,0,0,0,14.922-6.451.942.942,0,0,0,.262-.142.957.957,0,0,0,.279-.368,25.219,25.219,0,0,0,7.823-17.808c0-.022.012-.041.012-.063S94.618,48.268,94.617,48.25ZM68.31,58.282a26.513,26.513,0,0,0-8.794,1.693,41.436,41.436,0,0,1-1.592-10.684H68.31ZM57.924,47.308a41.241,41.241,0,0,1,1.69-11.016,26.5,26.5,0,0,0,8.7,1.67v9.346ZM68.309,25.245V35.979a24.3,24.3,0,0,1-8.049-1.59C62.17,29.306,65.071,25.815,68.309,25.245ZM58.4,33.565a18.515,18.515,0,0,1-4.58-3.194,23.358,23.358,0,0,1,10.144-5.207A19.392,19.392,0,0,0,58.4,33.565ZM43.876,47.308h-7.2a41.224,41.224,0,0,1,1.7-11.032,26.281,26.281,0,0,0,7.561,1.6A25.1,25.1,0,0,0,43.876,47.308Zm.037,1.983a25.115,25.115,0,0,0,2.214,9.041,26.255,26.255,0,0,0-7.853,1.651,41.433,41.433,0,0,1-1.595-10.692Zm1.976,0H55.941a43.62,43.62,0,0,0,1.7,11.5A19.5,19.5,0,0,0,52.6,64.288,23.243,23.243,0,0,1,45.889,49.291Zm10.052-1.983H45.859a23.223,23.223,0,0,1,6.516-15.561,20.143,20.143,0,0,0,5.364,3.73A43.313,43.313,0,0,0,55.941,47.308Zm.376-21.193c-.429.255-.852.517-1.264.8a13.628,13.628,0,0,0-1.791-1.75A23.542,23.542,0,0,1,56.317,26.115Zm-2.884,1.993a25.525,25.525,0,0,0-4.384,4.472V25.273A8.079,8.079,0,0,1,53.433,28.108Zm-6.367-2.863V35.6c-.068.121-.136.241-.2.363a24.267,24.267,0,0,1-7.847-1.575C40.926,29.306,43.827,25.815,47.066,25.245Zm-4.351-.081a19.4,19.4,0,0,0-5.565,8.4,18.515,18.515,0,0,1-4.578-3.194A23.353,23.353,0,0,1,42.715,25.164Zm-7.637.948c-.427.253-.849.515-1.26.791a13.456,13.456,0,0,0-1.8-1.741A23.508,23.508,0,0,1,35.078,26.112Zm-2.889,2A25.607,25.607,0,0,0,27.8,32.58V25.272A8.078,8.078,0,0,1,32.189,28.107Zm-1.055,3.636a20.138,20.138,0,0,0,5.365,3.72,43.28,43.28,0,0,0-1.8,11.845H24.614A23.228,23.228,0,0,1,31.134,31.743ZM22.669,49.291a25.076,25.076,0,0,0,2.216,9.045,26.223,26.223,0,0,0-7.855,1.648,41.449,41.449,0,0,1-1.594-10.693Zm-7.233-1.983a41.217,41.217,0,0,1,1.694-11.03A26.066,26.066,0,0,0,24.7,37.873a25.119,25.119,0,0,0-2.064,9.435ZM25.821,25.245V35.6c-.067.121-.136.241-.2.363a24.078,24.078,0,0,1-7.844-1.582C19.685,29.3,22.584,25.815,25.821,25.245Zm-4.351-.081a19.392,19.392,0,0,0-5.559,8.387,18.086,18.086,0,0,1-4.544-3.215A23.364,23.364,0,0,1,21.47,25.164ZM9.924,31.707a19.81,19.81,0,0,0,5.333,3.748,43.293,43.293,0,0,0-1.8,11.853H3.37A23.227,23.227,0,0,1,9.924,31.707ZM3.4,49.291H13.453a43.54,43.54,0,0,0,1.7,11.517,19.575,19.575,0,0,0-5.042,3.482A23.242,23.242,0,0,1,3.4,49.291Zm8.171,16.348a17.617,17.617,0,0,1,4.21-2.936,21.667,21.667,0,0,0,4.463,7.613A23.388,23.388,0,0,1,11.572,65.639Zm13.493,5.535c-3-.963-5.656-4.438-7.417-9.3a24.422,24.422,0,0,1,8.174-1.61V71.218C25.568,71.208,25.317,71.192,25.065,71.174Zm-.421-21.883H34.7A43.555,43.555,0,0,0,36.4,60.81a19.642,19.642,0,0,0-5.042,3.48A23.247,23.247,0,0,1,24.644,49.291Zm3.792,21.882c-.21.015-.42.03-.631.039V63.205a25.552,25.552,0,0,0,2.648,2.968.966.966,0,0,0,.278.366.954.954,0,0,0,.26.141q.774.7,1.606,1.332A9.03,9.03,0,0,1,28.436,71.173Zm4.83-.871c.337-.35.662-.731.981-1.129.277.178.569.336.853.5C34.5,69.908,33.889,70.119,33.266,70.3Zm-.45-4.663a17.617,17.617,0,0,1,4.21-2.936,21.667,21.667,0,0,0,4.463,7.613A23.388,23.388,0,0,1,32.816,65.639ZM46.31,71.174c-3-.963-5.657-4.438-7.417-9.3a24.41,24.41,0,0,1,8.173-1.61V71.218C46.813,71.208,46.562,71.192,46.31,71.174Zm3.364,0c-.208.015-.415.03-.624.039V63.205A25.552,25.552,0,0,0,51.7,66.173a.966.966,0,0,0,.278.366.927.927,0,0,0,.231.116c.525.475,1.072.926,1.635,1.356A9.026,9.026,0,0,1,49.674,71.175Zm4.814-.858c.344-.355.676-.741,1-1.146.282.181.578.343.867.513C55.743,69.917,55.123,70.133,54.488,70.317Zm-.427-4.678A17.606,17.606,0,0,1,58.27,62.7a21.668,21.668,0,0,0,4.464,7.613A23.381,23.381,0,0,1,54.061,65.639Zm13.493,5.535c-3-.963-5.657-4.438-7.417-9.3a24.41,24.41,0,0,1,8.173-1.61V71.218C68.057,71.208,67.805,71.192,67.554,71.174ZM84.617,30.323a18.368,18.368,0,0,1-4.536,3.21,19.378,19.378,0,0,0-5.552-8.369A23.368,23.368,0,0,1,84.617,30.323Zm-6.4,4.045a23.929,23.929,0,0,1-7.926,1.606V25.264C73.48,25.894,76.332,29.356,78.219,34.368Zm.648,1.9a41.208,41.208,0,0,1,1.7,11.036H70.293V37.957A26.1,26.1,0,0,0,78.867,36.272Zm1.7,13.019a41.423,41.423,0,0,1-1.591,10.683,26.464,26.464,0,0,0-8.679-1.688v-9ZM70.934,71.174c-.213.015-.426.032-.641.041V60.269a24.27,24.27,0,0,1,8.054,1.616C76.587,66.741,73.934,70.212,70.934,71.174Zm4.82-.858a21.665,21.665,0,0,0,4.459-7.6,17.882,17.882,0,0,1,4.21,2.928A23.394,23.394,0,0,1,75.754,70.316Zm10.133-6.029a19.522,19.522,0,0,0-5.039-3.494,43.572,43.572,0,0,0,1.7-11.5H92.6A23.241,23.241,0,0,1,85.887,64.287ZM82.546,47.308a43.268,43.268,0,0,0-1.807-11.862,20.01,20.01,0,0,0,5.324-3.752,23.23,23.23,0,0,1,6.566,15.614Z"/></svg>