<svg xmlns="http://www.w3.org/2000/svg" viewBox="0 0 96 96"><g opacity="0"><rect width="96" height="96" fill="#fff"/></g><path d="M86.533,54.8,81.621,39.939H65.244V20.007h-52.2V39.939H26.349c3.662-.013,7.053,3.615,7.066,7.277l.007,1.977A4.3,4.3,0,0,0,37.11,53.25a2.4,2.4,0,0,1,.864,4.431,3.291,3.291,0,0,1-1.389.682H17.137c-1.715-.024-3.13-1.67-4.094-3.235V76.787H26.351l0,.025a7.165,7.165,0,0,0,14.329-.025H73.433v.025a7.165,7.165,0,0,0,14.329-.025H93.9V62.457Z" class="sgmaincolor"/><path d="M94.61,61.75l-7-7L82.569,39.623a1,1,0,0,0-.948-.684H66.244V20.007a1,1,0,0,0-1-1h-52.2a1,1,0,0,0-1,1V38.939H1.785a1,1,0,0,0-.954,1.3c.509,1.6,2.392,6.838,5.275,6.837H6.17c.528,1.507,1.971,4.857,4.654,5.872a18.106,18.106,0,0,0,1.219,2.477v21.36a1,1,0,0,0,1,1H25.416a8.154,8.154,0,0,0,8.1,7.164h.03a8.149,8.149,0,0,0,8.068-7.164H72.5a8.154,8.154,0,0,0,8.1,7.164h.03a8.173,8.173,0,0,0,8.069-7.164H93.9a1,1,0,0,0,1-1V62.457A1,1,0,0,0,94.61,61.75Zm-74.4-10.528H12.084c-1.8-.256-3.1-2.49-3.78-4.143l6.786,0a1,1,0,1,0,0-2l-8.979,0h0c-.806,0-2.04-1.987-2.9-4.139H26.368a5.916,5.916,0,0,1,4.161,1.953,6.431,6.431,0,0,1,1.885,4.327l.007,1.978a5.272,5.272,0,0,0,4.536,5.042,1.432,1.432,0,0,1,1.178,1.413,1.561,1.561,0,0,1-.368,1.2,1.942,1.942,0,0,1-1.183.51H17.151c-1.641-.023-3.176-2.425-4.017-4.141h7.074a1,1,0,1,0,0-2ZM37.889,81.13a6.123,6.123,0,0,1-4.353,1.821h-.023a6.165,6.165,0,0,1-.02-12.329h.022A6.165,6.165,0,0,1,37.889,81.13Zm1.378-10.137a8.108,8.108,0,0,0-5.752-2.371h-.03a8.149,8.149,0,0,0-8.068,7.165H14.043V57.972a4.721,4.721,0,0,0,3.094,1.391h19.45a3.9,3.9,0,0,0,2.621-1.124,3.506,3.506,0,0,0,.925-2.664,3.414,3.414,0,0,0-2.868-3.313,3.3,3.3,0,0,1-2.844-3.073l-.007-1.977a8.449,8.449,0,0,0-2.442-5.705,7.913,7.913,0,0,0-5.6-2.568H14.043V21.007h50.2v54.78H41.612A8.1,8.1,0,0,0,39.267,70.993Zm45.7,10.137a6.123,6.123,0,0,1-4.353,1.821H80.6a6.165,6.165,0,0,1-.019-12.329H80.6A6.164,6.164,0,0,1,84.971,81.13ZM92.9,75.787H88.7a8.174,8.174,0,0,0-8.1-7.165h-.03A8.149,8.149,0,0,0,72.5,75.787H66.244V40.939H80.9l4.452,13.353H72.409a1,1,0,0,0,0,2H86.325L92.9,62.871Z"/></svg>