<svg xmlns="http://www.w3.org/2000/svg" viewBox="0 0 96 96"><rect width="96" height="96" fill="#fff" opacity="0"/><polygon points="77.32 68.97 77.32 50.84 67.78 41.74 48.34 41.74 28.91 41.74 18.68 50.95 18.68 68.75 32.81 79.36 32.81 56.39 32.81 89.08 63.01 89.01 63.01 79.47 77.32 68.97" class="sgmaincolor"/><circle cx="48.34" cy="23.39" r="17.39" class="sgmaincolor"/><path d="M68.47,41l0,0a.78.78,0,0,0-.15-.1,1.4,1.4,0,0,0-.17-.09l-.18,0-.15,0H54.4a18.4,18.4,0,1,0-12.11,0H28.91a1,1,0,0,0-.25,0h0a1,1,0,0,0-.39.2L18,50.2a1,1,0,0,0-.33.75v17.8a1,1,0,0,0,.4.8L31.81,79.86v9.22a1,1,0,0,0,1,1h0L63,90a1,1,0,0,0,1-1V80L77.92,69.78a1,1,0,0,0,.4-.81V50.84a1,1,0,0,0-.31-.72ZM32,23.39A16.4,16.4,0,1,1,48.34,39.78,16.41,16.41,0,0,1,32,23.39ZM48.88,50.87,33.07,42.74H63.85ZM76.32,68.46,64,77.5v-21a1,1,0,0,0-2,0v24s0,0,0,.06V88l-28.2.07V56.39a1,1,0,0,0-2,0v21L19.68,68.25V51.39l9.39-8.46,19.37,10,.13,0,.08,0a1,1,0,0,0,.24,0h0a.75.75,0,0,0,.26,0l.08,0,.14-.06L67.62,43l8.7,8.31Z"/></svg>