<svg xmlns="http://www.w3.org/2000/svg" viewBox="0 0 96 96"><g opacity="0"><rect width="96" height="96" fill="#fff"/></g><path d="M41.359,36.471A21.194,21.194,0,1,0,41.4,59.565l52.263-.042V36.476ZM26.544,47.028q1.13,6.428,2.22,12.86c.2,1.18.137,1.239-1.045,1.239q-2.163,0-4.326,0c-1.558,0-3.115,0-4.673,0-.679,0-.861-.218-.748-.876q1.146-6.642,2.3-13.284a.564.564,0,0,0-.293-.665,6.229,6.229,0,1,1,6.9-.035A.646.646,0,0,0,26.544,47.028Z" class="sgmaincolor"/><path d="M30.114,38.413a7.229,7.229,0,1,0-10.867,8.6q-.966,5.538-1.917,11.076l-.343,1.992a1.582,1.582,0,0,0,1.731,2.045h9a2.1,2.1,0,0,0,1.807-.532,2.173,2.173,0,0,0,.225-1.875c-.72-4.225-1.447-8.451-2.192-12.706A7.157,7.157,0,0,0,30.114,38.413ZM25.559,47.2q1.128,6.423,2.22,12.853l.012.071H19.008l.293-1.7q.974-5.646,1.954-11.291a1.549,1.549,0,0,0-.727-1.672,5.208,5.208,0,0,1-2.257-5.381,5.233,5.233,0,0,1,9.987-.926,5.175,5.175,0,0,1-1.933,6.276A1.625,1.625,0,0,0,25.559,47.2Z"/><path d="M60.427,43.5a1,1,0,0,0-1.414,0L55.569,46.94,52.125,43.5a1,1,0,0,0-1.415,1.414l3.445,3.443L50.71,51.8a1,1,0,0,0,1.415,1.414l3.444-3.444,3.444,3.444A1,1,0,0,0,60.427,51.8l-3.444-3.444,3.444-3.443A1,1,0,0,0,60.427,43.5Z"/><path d="M73.961,43.5a1,1,0,0,0-1.414,0L69.1,46.94,65.66,43.5a1,1,0,0,0-1.414,1.414l3.443,3.443L64.246,51.8a1,1,0,1,0,1.414,1.414L69.1,49.769l3.443,3.443A1,1,0,0,0,73.961,51.8l-3.443-3.444,3.443-3.443A1,1,0,0,0,73.961,43.5Z"/><path d="M84.052,48.354,87.5,44.911A1,1,0,0,0,86.082,43.5L82.638,46.94,79.194,43.5a1,1,0,1,0-1.414,1.414l3.444,3.443L77.78,51.8a1,1,0,1,0,1.414,1.414l3.444-3.443,3.444,3.443A1,1,0,0,0,87.5,51.8Z"/><path d="M94.663,59.475v-23a1,1,0,0,0-1-1H41.932a22.245,22.245,0,1,0-.026,25.1l51.773-.009a1,1,0,0,0,1-1C94.679,59.528,94.665,59.5,94.663,59.475Zm-71.1,8.769A20.244,20.244,0,1,1,40.431,36.829a.967.967,0,0,0,.139.228A20.213,20.213,0,0,1,23.564,68.244ZM45.808,48a22.111,22.111,0,0,0-2.655-10.529h49.51V58.557l-49.529.009A22.107,22.107,0,0,0,45.808,48Z"/></svg>