<svg xmlns="http://www.w3.org/2000/svg" viewBox="0 0 96 96"><g opacity="0"><rect width="96.161" height="96.088" fill="#fff"/></g><polygon points="46.1 90.145 74.49 90.145 81.587 80.091 81.587 57.83 78.748 54.957 73.07 54.957 73.07 62.857 73.07 54.957 70.231 52.085 64.553 52.085 64.553 59.266 64.553 52.085 61.714 49.212 56.036 49.212 56.036 59.984 56.036 33.414 53.197 30.541 50.358 30.541 47.519 33.414 47.519 72.91 47.519 72.91 47.519 59.984 44.68 57.112 41.841 57.112 39.002 59.984 39.002 82.964 46.1 90.145" class="sgmaincolor"/><path d="M33.261,68.022H16.871v-63H46.1V22.08a1,1,0,0,0,1,1H64.554V41.969a1,1,0,0,0,2,0V22.117c0-.006,0-.012,0-.018s0-.012,0-.019a.982.982,0,0,0-.415-.79L47.808,3.319v0L47.8,3.312a1,1,0,0,0-.11-.073,1.025,1.025,0,0,0-.208-.137,1,1,0,0,0-.383-.077H15.871a1,1,0,0,0-1,1v65a1,1,0,0,0,1,1h17.39a1,1,0,1,0,0-2ZM48.1,6.406,63.067,21.08H48.1Z"/><path d="M82.3,57.127l-2.839-2.873a1,1,0,0,0-.711-.3h-5.26l-2.546-2.575a1,1,0,0,0-.711-.3H64.972L62.426,48.51a1,1,0,0,0-.711-.3H57.036v-14.8a1,1,0,0,0-.289-.7l-2.839-2.873a1,1,0,0,0-.711-.3H50.358a1,1,0,0,0-.711.3l-2.839,2.873a1,1,0,0,0-.289.7V57.55l-1.128-1.142a1,1,0,0,0-.71-.3H41.842a1,1,0,0,0-.711.3l-2.84,2.873a1,1,0,0,0-.289.7v22.98a1,1,0,0,0,.289.7l7.1,7.181a1,1,0,0,0,.711.3H74.49a1.006,1.006,0,0,0,.818-.423l7.1-10.054a1,1,0,0,0,.183-.577V57.83A1,1,0,0,0,82.3,57.127ZM80.587,79.773l-6.615,9.372H46.517L40,82.553V60.4l2.258-2.285h2L46.519,60.4V72.91a1,1,0,0,0,2,0V33.825l2.257-2.284h2l2.257,2.284V59.984a1,1,0,1,0,2,0V50.213H61.3L63.554,52.5v6.77a1,1,0,0,0,2,0V53.085h4.259l2.257,2.283v7.488a1,1,0,0,0,2,0v-6.9h4.26l2.257,2.284Z"/></svg>