<svg xmlns="http://www.w3.org/2000/svg" viewBox="0 0 96 96"><rect x="14.476" y="25.732" width="78.584" height="54.268" class="sgmaincolor"/><path d="M93.06,81H14.476a1,1,0,0,1-1-1V25.731a1,1,0,0,1,1-1H93.06a1,1,0,0,1,1,1V80A1,1,0,0,1,93.06,81ZM15.476,79H92.06V26.731H15.476Z"/><circle cx="20.908" cy="32.801" r="2.128"/><circle cx="27.292" cy="32.801" r="2.128"/><circle cx="33.677" cy="32.801" r="2.128"/><path d="M92.751,24.731H78.2V14.977a1.313,1.313,0,0,0-1.311-1.312h-42.9L28,7.636a1,1,0,0,0-1.42,1.41l4.587,4.619H3.292a1.313,1.313,0,0,0-1.311,1.312V68.622a1.313,1.313,0,0,0,1.311,1.312H13.476v9.754A1.311,1.311,0,0,0,14.784,81H92.751a1.311,1.311,0,0,0,1.309-1.312V26.043A1.311,1.311,0,0,0,92.751,24.731ZM76.2,15.665v9.066H44.978l-9-9.066ZM55.973,38.644h-40.5V26.731H44.144Zm-42.5-12.6V67.934h-9.5V15.665H33.155l9,9.066H14.784A1.311,1.311,0,0,0,13.476,26.043ZM92.06,79H15.476V40.644H57.959l16.083,16.2-3.654.06a1,1,0,0,0,.016,2h.017l5.839-.1a.935.935,0,0,0,.146.042l.076,0a1,1,0,0,0,1-.925l.484-6.376a1,1,0,0,0-1.994-.151l-.32,4.22L60.779,40.644H92.06Zm0-40.356H58.793L46.964,26.731h45.1Z"/></svg>