<svg id="f91c35e4-7525-461a-9314-4d3af04d8f2a" xmlns="http://www.w3.org/2000/svg" viewBox="0 0 96 96"><path d="M48,3A45,45,0,1,0,93,48H48Z" transform="translate(0 0)" class="sgmaincolor"/><path d="M48,94A46,46,0,0,1,48,2a1,1,0,0,1,1,1V47H93a1,1,0,0,1,1,1A46.052,46.052,0,0,1,48,94ZM47,4.011A44,44,0,1,0,91.989,49H48a1,1,0,0,1-1-1Z" transform="translate(0 0)"/><path d="M93,44H53a1,1,0,0,1-1-1V3a1,1,0,0,1,1-1A41.047,41.047,0,0,1,94,43,1,1,0,0,1,93,44ZM54,42H91.987A39.049,39.049,0,0,0,54,4.013Z" transform="translate(0 0)"/><rect width="96" height="96" fill="#fff" opacity="0"/></svg>