<svg xmlns="http://www.w3.org/2000/svg" viewBox="0 0 64 64"><path d="M56.2,13.4a5.7,5.7,0,1,0-5.7,5.7A5.7,5.7,0,0,0,56.2,13.4Zm-5.7,3.7a3.7,3.7,0,1,1,3.7-3.7A3.7,3.7,0,0,1,50.5,17.1Z"/><path d="M50.5,6.3a1,1,0,0,0,1-1V2.9a1,1,0,1,0-2,0V5.3A1,1,0,0,0,50.5,6.3Z"/><path d="M54.1,7.1l.5.2a.9.9,0,0,0,.8-.5l1.2-2a1,1,0,0,0-.4-1.4.9.9,0,0,0-1.3.4l-1.2,2A.9.9,0,0,0,54.1,7.1Z"/><path d="M56.8,9.8a.9.9,0,0,0,.9.5h.5l2-1.2a.9.9,0,0,0,.3-1.3.9.9,0,0,0-1.3-.4l-2,1.2A.9.9,0,0,0,56.8,9.8Z"/><path d="M57.2,18l2,1.1.5.2a.9.9,0,0,0,.8-.5,1,1,0,0,0-.3-1.4l-2-1.2a1,1,0,1,0-1,1.8Z"/><path d="M54.9,22.7a1.1,1.1,0,0,0,.9.5l.4-.2a.9.9,0,0,0,.4-1.3l-1.2-2a.9.9,0,0,0-1.3-.4,1,1,0,0,0-.4,1.4Z"/><path d="M57.7,13.4a.9.9,0,0,0,1,1H61a.9.9,0,0,0,1-1,1,1,0,0,0-1-1H58.7A1,1,0,0,0,57.7,13.4Z"/><path d="M45.6,6.8a.9.9,0,0,0,.8.5l.5-.2a.9.9,0,0,0,.4-1.3l-1.2-2a.9.9,0,0,0-1.3-.4,1,1,0,0,0-.4,1.4Z"/><path d="M40.8,9l2,1.2h.5a.9.9,0,0,0,.9-.5.9.9,0,0,0-.4-1.3l-2-1.2a.9.9,0,0,0-1.3.4A.9.9,0,0,0,40.8,9Z"/><path d="M42.8,16.2l-2,1.2a1,1,0,0,0-.3,1.4.9.9,0,0,0,.8.5l.5-.2,2-1.1a1,1,0,0,0-1-1.8Z"/><path d="M44.8,23l.4.2a1.1,1.1,0,0,0,.9-.5l1.2-2a1,1,0,0,0-.4-1.4.9.9,0,0,0-1.3.4l-1.2,2A.9.9,0,0,0,44.8,23Z"/><path d="M40,14.4h2.3a.9.9,0,0,0,1-1,1,1,0,0,0-1-1H40a1,1,0,0,0-1,1A.9.9,0,0,0,40,14.4Z"/><path d="M49.5,21.6v2.3a1,1,0,1,0,2,0V21.6a1,1,0,1,0-2,0Z"/><path d="M63,58.3a3.3,3.3,0,0,0-2.4.9,2.8,2.8,0,0,1-2,.8,2.7,2.7,0,0,1-2-.8,3.6,3.6,0,0,0-2.4-.9,3.3,3.3,0,0,0-2.4.9,3.1,3.1,0,0,1-2.1.8,2.4,2.4,0,0,1-1.9-.8,3.9,3.9,0,0,0-2.5-.9,3.6,3.6,0,0,0-2.4.9,2.7,2.7,0,0,1-2,.8,2.8,2.8,0,0,1-2-.8,3.6,3.6,0,0,0-2.4-.9,3.9,3.9,0,0,0-2.5.9,2.6,2.6,0,0,1-1.9.8,2.9,2.9,0,0,1-2.1-.8,3.9,3.9,0,0,0-2.5-.9,3.6,3.6,0,0,0-2.4.9,2.8,2.8,0,0,1-2,.8,2.7,2.7,0,0,1-2-.8,3.6,3.6,0,0,0-2.4-.9,3.4,3.4,0,0,0-2.4.9,2.8,2.8,0,0,1-2,.8,2.7,2.7,0,0,1-2-.8,3.9,3.9,0,0,0-2.5-.9,3.6,3.6,0,0,0-2.4.9,2.7,2.7,0,0,1-2,.8,2.8,2.8,0,0,1-2-.8A3.4,3.4,0,0,0,1,58.3a1,1,0,0,0-1,1,.9.9,0,0,0,1,1,1.7,1.7,0,0,1,1.2.5A5.1,5.1,0,0,0,5.4,62a5.4,5.4,0,0,0,3.3-1.2,1.3,1.3,0,0,1,1.1-.5,1.7,1.7,0,0,1,1.2.5A5.4,5.4,0,0,0,14.3,62a5.3,5.3,0,0,0,3.2-1.2,1.7,1.7,0,0,1,2.4,0A5.1,5.1,0,0,0,23.1,62a5.7,5.7,0,0,0,3.3-1.2,1.3,1.3,0,0,1,1.1-.5,1.7,1.7,0,0,1,1.2.5A5.7,5.7,0,0,0,32.1,62a4.5,4.5,0,0,0,3.1-1.2h.1a1.7,1.7,0,0,1,2.4,0A5.1,5.1,0,0,0,40.9,62a5.7,5.7,0,0,0,3.3-1.2,1.3,1.3,0,0,1,1.1-.5,1.7,1.7,0,0,1,1.2.5A5.3,5.3,0,0,0,49.7,62,5.4,5.4,0,0,0,53,60.8c.5-.4.6-.5,1.2-.5a1.7,1.7,0,0,1,1.2.5A4.8,4.8,0,0,0,58.6,62a5.1,5.1,0,0,0,3.2-1.2,1.6,1.6,0,0,1,1.2-.5.9.9,0,0,0,1-1A1,1,0,0,0,63,58.3Z"/><path d="M1,55.5a1.3,1.3,0,0,1,1.2.5,5.1,5.1,0,0,0,3.2,1.1,4.9,4.9,0,0,0,3.3-1.2,1.2,1.2,0,0,1,1.1-.4A1.3,1.3,0,0,1,11,56a5.5,5.5,0,0,0,3.3,1.1,4.8,4.8,0,0,0,3.2-1.2,1.6,1.6,0,0,1,1.2-.4,1.3,1.3,0,0,1,1.2.5,5.2,5.2,0,0,0,6.5-.1,1.2,1.2,0,0,1,1.1-.4,1.3,1.3,0,0,1,1.2.5,5.7,5.7,0,0,0,3.4,1.1A5,5,0,0,0,35.2,56h.1a1.6,1.6,0,0,1,1.2-.4,1.3,1.3,0,0,1,1.2.5,5.2,5.2,0,0,0,6.5-.1,1.2,1.2,0,0,1,1.1-.4,1.3,1.3,0,0,1,1.2.5,5.4,5.4,0,0,0,3.2,1.1A4.9,4.9,0,0,0,53,55.9a1.7,1.7,0,0,1,1.2-.4,1.3,1.3,0,0,1,1.2.5,4.9,4.9,0,0,0,3.2,1.1,4.6,4.6,0,0,0,3.2-1.2,1.9,1.9,0,0,1,1.2-.4,1,1,0,0,0,1-1,.9.9,0,0,0-1-1,3.3,3.3,0,0,0-2.4.9,3.4,3.4,0,0,1-2,.7,3.1,3.1,0,0,1-2-.7,3.1,3.1,0,0,0-2.4-.9,3.3,3.3,0,0,0-2.4.9,3.7,3.7,0,0,1-2.1.7H49a1.1,1.1,0,0,0-.3-.7c-6.2-6.8-15.3-11-23.9-11.1a56.8,56.8,0,0,1-2.1-19.9h0c3.1,2.6,8.4,5.1,12.6,6.8l.4.2h.6a2.9,2.9,0,0,0,1-.3h.1a1.8,1.8,0,0,0,.8-1.5c0-.5-.1-4.9-3.5-10.5a10.3,10.3,0,0,0-3.6-3.6l2.2-1.2h.4a1.9,1.9,0,0,0,.9-1.6A2,2,0,0,0,34,9.9a12.2,12.2,0,0,0-6-2.3,6.1,6.1,0,0,0-4.1.9,8.2,8.2,0,0,0-3.7-4.6,15.7,15.7,0,0,0-7.2-2,2,2,0,0,0-1.6,1,2.2,2.2,0,0,0-.2,1.7l.2.3a46.7,46.7,0,0,0,2.7,5,9.7,9.7,0,0,0-4.7,1.5,21.4,21.4,0,0,0-7.3,7H2v.2a2,2,0,0,0,0,1.5v.2a2,2,0,0,0,1.5,1c.8.1,3.8.3,7,.3a33.9,33.9,0,0,0,6-.4c-2.7,5.9-6.5,15-4.5,24.6A30.8,30.8,0,0,0,1.3,53.5H1a.9.9,0,0,0-1,1A1,1,0,0,0,1,55.5ZM22.7,43.3A32.1,32.1,0,0,0,14,45.1l8-4.6C22.2,41.5,22.5,42.4,22.7,43.3Zm-2-12.7-3.2-3,3.2-2.3A46.8,46.8,0,0,0,20.7,30.6ZM13.1,3.9ZM14,19.6l.7-2a1.1,1.1,0,0,0-.7-1.3.9.9,0,0,0-1.2.7l-.9,2.7H9.6l.7-2.1a1,1,0,0,0-.6-1.3,1,1,0,0,0-1.3.7l-.9,2.7-3.7-.3a19.5,19.5,0,0,1,6.7-6.3A7.6,7.6,0,0,1,15.9,12l2.3.4-1.4-1.9A50.9,50.9,0,0,1,13.2,4h-.1a13.1,13.1,0,0,1,6.1,1.8c1.6.8,2.6,2.3,3.1,4.6l.3,1.5,1.3-.9a4.9,4.9,0,0,1,3.9-1.3,10.7,10.7,0,0,1,4.8,1.7h0l-.3.2-3.9,1.9-2.3.9,2.3,1A9,9,0,0,1,33,19a20.1,20.1,0,0,1,3.2,9.3h-.1l-3-1.3.9-2.5a1,1,0,0,0-.6-1.3,1,1,0,0,0-1.3.7l-.8,2.3-1.7-.9,1-3.1A.9.9,0,0,0,30,21a1,1,0,0,0-1.3.6l-.9,2.7-1.7-1L27.2,20a1,1,0,0,0-.6-1.3,1,1,0,0,0-1.3.6l-.9,2.8-1.7-1.7-1.6-2.1-.2,2.6a10.9,10.9,0,0,0-.1,1.8l-4,3c.7-1.7,1.4-3.4,2.1-4.8L20.2,18l-2.3.9A15.2,15.2,0,0,1,14,19.6Zm7.7,19.6L16,35.9l4.9-2.7A41.1,41.1,0,0,0,21.7,39.2ZM15.6,28.6l3.5,3.3L14,34.8A56.1,56.1,0,0,1,15.6,28.6Zm-2,8.3,5.4,3-5.4,3.2A25.7,25.7,0,0,1,13.6,36.9Zm11.1,8.3a31.2,31.2,0,0,1,20.4,8.3,3.2,3.2,0,0,0-2.2.9,3.1,3.1,0,0,1-2,.7,3.4,3.4,0,0,1-2-.7,3.1,3.1,0,0,0-2.4-.9,3.4,3.4,0,0,0-2.5.9,2.6,2.6,0,0,1-1.9.7,2.9,2.9,0,0,1-2.1-.7,3.4,3.4,0,0,0-2.5-.9,3.1,3.1,0,0,0-2.4.9,3.4,3.4,0,0,1-2,.7,3.1,3.1,0,0,1-2-.7,3.1,3.1,0,0,0-2.4-.9,3,3,0,0,0-2.4.9,3.4,3.4,0,0,1-2,.7,3.1,3.1,0,0,1-2-.7,3.4,3.4,0,0,0-2.5-.9,3.1,3.1,0,0,0-2.4.9,3.1,3.1,0,0,1-2,.7,3.4,3.4,0,0,1-2-.7H3.3A29.7,29.7,0,0,1,24.7,45.2Z"/></svg>