<svg xmlns="http://www.w3.org/2000/svg" viewBox="0 0 96 96"><g opacity="0"><rect width="96" height="96" fill="#fff"/></g><path d="M60.426,18H35.574L18,35.574V60.426L35.574,78H60.426L78,60.426V35.574Z" class="sgmaincolor"/><path d="M88.707,30.725,65.275,7.293A1,1,0,0,0,64.568,7H31.432a1,1,0,0,0-.708.293L7.293,30.725A1,1,0,0,0,7,31.432V64.568a1,1,0,0,0,.293.707L30.724,88.707a1,1,0,0,0,.708.293H64.568a1,1,0,0,0,.707-.293L88.707,65.275A1,1,0,0,0,89,64.568V31.432A1,1,0,0,0,88.707,30.725ZM87,64.154,64.154,87H31.846L9,64.154V31.846L31.846,9H64.154L87,31.846Z"/><path d="M60.427,17H35.573a1,1,0,0,0-.707.293L17.293,34.866a1,1,0,0,0-.293.707V60.427a1,1,0,0,0,.293.707L34.866,78.707a1,1,0,0,0,.707.293H60.427a1,1,0,0,0,.707-.293L78.707,61.134A1,1,0,0,0,79,60.427V35.573a1,1,0,0,0-.293-.707L61.134,17.293A1,1,0,0,0,60.427,17ZM19,35.987,35.987,19H60.013L67.8,26.787l-10.9,10.9-2.97-2.97a.988.988,0,0,0-.534-.259,6.217,6.217,0,1,0-10.782,0,.985.985,0,0,0-.533.259l-5.218,5.217a1,1,0,0,0-.293.707v2.194l-5.437-3.108V32.142a1,1,0,1,0-2,0v8.17a1,1,0,0,0,.5.868l6.933,3.963v2.339h-8.48a1,1,0,0,0-.781.375l-4.085,5.107a1,1,0,0,0,1.562,1.25l3.784-4.732h8v3.362l-6.933,3.962a1,1,0,0,0-.5.868v7.784L26.786,67.8,19,60.013Zm38.434,5.072V56.927L52.8,61.558H49V48.414l7.9-7.9Zm-20.7,16.8-5.6,5.6v-5.2l5.437-3.107v2.194A.985.985,0,0,0,36.73,57.856Zm8.277-23.511a4.218,4.218,0,1,1,5.986,0,1,1,0,0,0-.055.083H45.061A.788.788,0,0,0,45.007,34.345Zm7.8,2.083L55.481,39.1,49,45.586V36.428Zm-5.8,0V47.586l-8.435,8.435V41.059L43.2,36.428Zm0,13.986V61.558H43.2l-3.671-3.67ZM59.141,39.938l-.832-.833,6.563-6.563v7.189l-5.438,3.108V40.645A1,1,0,0,0,59.141,39.938ZM77,60.013,60.013,77H35.987L28.2,69.213,38.112,59.3l3.964,3.963a1,1,0,0,0,.707.293H53.218a1,1,0,0,0,.707-.293l5.216-5.217a1,1,0,0,0,.293-.707V55.147l5.438,3.107v7.59a1,1,0,0,0,2,0v-8.17a1,1,0,0,0-.5-.868l-6.934-3.962V49.482h8l3.785,4.732a1,1,0,0,0,1.562-1.25L68.7,47.857a1,1,0,0,0-.781-.375H59.434V45.143l6.934-3.963a1,1,0,0,0,.5-.868v-8.17a.991.991,0,0,0-.667-.933L69.213,28.2,77,35.987Z"/></svg>