<svg id="a97f001d-3403-4ac0-b57b-7c5b92456599" data-name="Layer 1" xmlns="http://www.w3.org/2000/svg" viewBox="0 0 66 86"><polygon points="47 1 1 1 1 85 65 85 65 19 47 1" class="sgmaincolor"/><path d="M80.988,23.938a.993.993,0,0,0-.052-.259.929.929,0,0,0-.033-.093.984.984,0,0,0-.2-.293l-18-18a.978.978,0,0,0-.293-.2.732.732,0,0,0-.093-.033.953.953,0,0,0-.259-.052C62.04,5.01,62.021,5,62,5H16a1,1,0,0,0-1,1V90a1,1,0,0,0,1,1H80a1,1,0,0,0,1-1V24C81,23.978,80.989,23.959,80.988,23.938ZM77.586,23H63V8.414ZM17,89V7H61V24a1,1,0,0,0,1,1H79V89Z" transform="translate(-15 -5)"/><path d="M69,46H27a1,1,0,0,1,0-2H69a1,1,0,0,1,0,2Z" transform="translate(-15 -5)"/><path d="M69,56H27a1,1,0,0,1,0-2H69a1,1,0,0,1,0,2Z" transform="translate(-15 -5)"/><path d="M69,66H27a1,1,0,0,1,0-2H69a1,1,0,0,1,0,2Z" transform="translate(-15 -5)"/></svg>