<svg xmlns="http://www.w3.org/2000/svg" viewBox="0 0 96 96"><g opacity="0"><rect width="96" height="96" fill="#fff"/></g><polygon points="57 57 61 51 76 60 94 36 73 14 23 14 2 36 20 60 35 51 39 57 43 81 45 86 51 86 53 81 57 57" class="sgmaincolor"/><path d="M94.724,35.31l-21-22A1,1,0,0,0,73,13H23a1,1,0,0,0-.724.31l-21,22A1,1,0,0,0,1.2,36.6L18.535,59.713l-4.05,2.43a1,1,0,0,0,.241,1.818l7,2A.976.976,0,0,0,22,66a1.014,1.014,0,0,0,.225-.025l13-3a1,1,0,0,0,.556-.35l2.6-3.251,3.632,21.791a1.01,1.01,0,0,0,.057.207l2,5A1,1,0,0,0,45,87h6a1,1,0,0,0,.929-.628l2-5a1.01,1.01,0,0,0,.057-.207l3.632-21.791,2.6,3.251a1,1,0,0,0,.556.35l13,3A1.014,1.014,0,0,0,74,66a.976.976,0,0,0,.274-.039l7-2a1,1,0,0,0,.241-1.818l-4.05-2.43L94.8,36.6A1,1,0,0,0,94.724,35.31Zm-91.415.768L23.428,15H34.382L24.105,35.553l-.006.017c-.007.015-.009.032-.016.047a1,1,0,0,0-.07.287.828.828,0,0,0-.006.086.982.982,0,0,0,.053.344l0,.01,6.029,16.435-9.832,5.9ZM31.836,51.732l-3-8.171,4.747,7.121Zm2.6,9.372L22.026,63.968l-4.535-1.3L34.7,52.348l3.066,4.6ZM52.031,80.729,50.323,85H45.677l-1.708-4.271L39.986,56.835c0-.013-.012-.024-.015-.038a.986.986,0,0,0-.139-.352l-4-6L26.154,35.928,36.618,15H59.382L69.846,35.928,60.168,50.445l-4,6a.986.986,0,0,0-.139.352c0,.014-.013.025-.015.038ZM62.414,50.682l3.4-5.106-2.432,5.689Zm11.56,13.286L61.563,61.1l-3.326-4.158,3.066-4.6L78.509,62.672Zm1.767-5.289L65.117,52.3l6.8-15.911c0-.01,0-.021.006-.031a.988.988,0,0,0,.07-.334c0-.026,0-.05,0-.076a1.015,1.015,0,0,0-.052-.271c-.01-.027-.016-.054-.028-.08s-.009-.033-.016-.048L61.618,15H72.572L92.691,36.078Z"/><circle cx="40" cy="36" r="2"/><circle cx="56" cy="36" r="2"/></svg>