<svg xmlns="http://www.w3.org/2000/svg" viewBox="0 0 96 96"><g opacity="0"><rect width="96" height="96.145" fill="#fff"/></g><polyline points="76.902 32.73 76.943 54.164 18.846 54.268 18.754 5.947 76.851 5.843 76.875 18.508" class="sgmaincolor"/><path d="M94.219,78.626v-.011l-.007-3.593c0-.01,0-.021,0-.031l-.038-20.9a.977.977,0,0,0-.028-.141,1.058,1.058,0,0,0-.038-.186,1.014,1.014,0,0,0-.088-.17,1,1,0,0,0-.106-.159c-.014-.015-.019-.036-.034-.05a1.055,1.055,0,0,0-.358-.24l-15.6-8.533L77.851,5.841a1,1,0,0,0-1-1h0l-58.1.1a1,1,0,0,0-1,1l.074,38.794L2.663,53.392a1.051,1.051,0,0,0-.1.087.958.958,0,0,0-.112.076.507.507,0,0,0-.036.054.969.969,0,0,0-.111.167.952.952,0,0,0-.081.163.9.9,0,0,0-.039.2.864.864,0,0,0-.025.125l.059,31.473a1,1,0,0,0,1,1h0l90.014-.166a1,1,0,0,0,1-1ZM4.16,55.259l14.509-.027a.958.958,0,0,0,.177.036h0l58.1-.105a.905.905,0,0,0,.193-.039L92.175,55.1l.039,21.261c0,.011,0,.022,0,.033l0,1.233L4.2,77.784ZM89.274,53.1l-11.333.021L77.929,46.9ZM75.853,6.845l.026,13.792.062,32.489-56.1.1-.015-7.58a.972.972,0,0,0,0-.763L19.756,6.945ZM17.844,53.234l-10.9.02,10.889-6.21ZM4.215,84.732l-.009-4.948,88.015-.16.008,4.946Z"/><path d="M26.521,18.323h0l39.7-.071a1,1,0,0,0,0-2h0l-39.7.071a1,1,0,0,0,0,2Z"/><path d="M57.519,24.132l-30.984.056a1,1,0,0,0,0,2h0l30.984-.056a1,1,0,0,0,1-1A1.028,1.028,0,0,0,57.519,24.132Z"/><path d="M48.822,32.011h0l-22.27.04a1,1,0,0,0,0,2h0l22.27-.04a1,1,0,0,0,0-2Z"/></svg>