<svg xmlns="http://www.w3.org/2000/svg" viewBox="0 0 96 96"><path d="M69.1,10.012c6.536.368,11.2,3.676,14.84,8.629,1.784,2.43,1.566,3.41-.478,5.482-4.231,4.288-8.5,8.535-12.67,12.885-1.168,1.219-2.442,1.621-3.763.828a51.228,51.228,0,0,1-7.28-4.978c-1.373-1.188-2.446-1.5-3.9-.6-2.273,1.416-4.642,2.71-6.757,4.34A69.589,69.589,0,0,0,33.93,52.564c-.915,1.343-1.614,2.837-2.421,4.256-.888,1.561-.646,2.676.7,4.057a44.589,44.589,0,0,1,5.124,6.7c.956,1.451.561,2.825-.8,4.147C32.169,75.971,27.863,80.29,23.7,84.743c-1.487,1.59-2.78,1.523-4.432.623-5.706-3.109-9.888-11.263-9.2-17.841.854-8.2,4.456-15.272,8.98-21.879C28.259,32.19,39.69,21.186,54.3,13.854A32.245,32.245,0,0,1,69.1,10.012Z" class="sgmaincolor"/><path d="M21.3,87a5.3,5.3,0,0,1-2.5-.756C12.7,82.924,8.337,74.48,9.072,67.421c.763-7.322,3.584-14.213,9.149-22.34,9.994-14.6,21.651-25.105,35.635-32.122A33.2,33.2,0,0,1,69.109,9.012l.046,0c6.286.354,11.386,3.309,15.589,9.035,2.023,2.756,1.895,4.275-.572,6.776q-1.8,1.827-3.614,3.649c-2.983,3.007-6.068,6.118-9.047,9.226-2.112,2.207-4.038,1.57-5,.993a51.938,51.938,0,0,1-7.42-5.078c-1.271-1.1-1.841-1.052-2.71-.51-.615.383-1.236.757-1.857,1.13a50.782,50.782,0,0,0-4.819,3.154A68.8,68.8,0,0,0,34.757,53.127a29.451,29.451,0,0,0-1.583,2.727c-.261.49-.523.98-.8,1.461-.573,1.005-.628,1.657.549,2.864a45.972,45.972,0,0,1,5.244,6.848c.825,1.253,1.332,3.208-.937,5.415-4.983,4.845-9.051,8.971-12.8,12.983A4.239,4.239,0,0,1,21.3,87ZM68.817,11.011a31.194,31.194,0,0,0-14.064,3.736C41.079,21.608,29.67,31.9,19.872,46.21c-5.367,7.839-8.085,14.445-8.812,21.418-.646,6.221,3.332,13.941,8.689,16.86,1.432.78,2.185.682,3.222-.428,3.773-4.037,7.863-8.184,12.869-13.052,1.374-1.336,1.1-2.206.661-2.88a44.254,44.254,0,0,0-5-6.552c-1.68-1.721-1.944-3.34-.857-5.25.265-.466.519-.94.772-1.414A31.156,31.156,0,0,1,33.1,52a70.84,70.84,0,0,1,15.381-16.2,52.269,52.269,0,0,1,5.009-3.283c.612-.369,1.224-.737,1.83-1.114,2.189-1.366,3.8-.415,5.077.7a50.256,50.256,0,0,0,7.141,4.876c.56.334,1.352.562,2.525-.663,2.991-3.121,6.082-6.237,9.071-9.251q1.806-1.82,3.61-3.645c1.779-1.8,1.819-2.233.384-4.188-3.823-5.207-8.425-7.9-14.068-8.22Z"/><path d="M75.76,80.851H45.447a1,1,0,0,1,0-2H75.76a1,1,0,0,1,0,2Z"/><path d="M81.67,74.1H51.356a1,1,0,0,1,0-2H81.67a1,1,0,0,1,0,2Z"/><path d="M87.578,67.345H57.264a1,1,0,0,1,0-2H87.578a1,1,0,0,1,0,2Z"/><rect width="96" height="96" fill="#fff" opacity="0"/></svg>