<svg xmlns="http://www.w3.org/2000/svg" viewBox="0 0 32 25"><path d="M16,5.42v1a4,4,0,0,0-4,4H11A5,5,0,0,1,16,5.42ZM4.5,21.92h4v-1h-4a3.5,3.5,0,1,1,0-7h.08A.49.49,0,0,0,5,13.74a.5.5,0,0,0,.09-.44A3.49,3.49,0,0,1,8.5,8.92a3.49,3.49,0,0,1,1.1.18.5.5,0,0,0,.64-.34,6,6,0,0,1,11.53,0,.5.5,0,0,0,.64.34,3.49,3.49,0,0,1,4.48,4.2.5.5,0,0,0,.09.44.51.51,0,0,0,.41.19h.11a3.5,3.5,0,1,1,0,7h-4v1h4a4.5,4.5,0,0,0,.47-9,4.25,4.25,0,0,0,0-.52A4.5,4.5,0,0,0,22.57,8,7,7,0,0,0,9.43,8a4.43,4.43,0,0,0-.93-.1A4.51,4.51,0,0,0,4,12.42a4.32,4.32,0,0,0,0,.52,4.5,4.5,0,0,0,.47,9Z" transform="translate(0 -3.42)"></path><path d="M18,13.53l-.16-.06v.85l.07,0a5.2,5.2,0,1,1-7,6.09,5.16,5.16,0,0,1,3.11-6.06l.07,0V13.5l-.16.06a5.94,5.94,0,0,0-4,5.62,6,6,0,1,0,8-5.65Z" transform="translate(0 -3.42)"></path><path d="M16,18.29a.39.39,0,0,0,.41-.41v-6a.41.41,0,1,0-.81,0v6A.39.39,0,0,0,16,18.29Z" transform="translate(0 -3.42)"></path></svg>