<svg xmlns="http://www.w3.org/2000/svg" viewBox="0 0 96 96"><g opacity="0"><rect width="96" height="96" fill="#fff"/></g><polygon points="3 55 3 82 93 82 93 55 78 55 78 25 18 25 18 55 3 55" class="sgmaincolor"/><path d="M23,20H73a1,1,0,0,0,0-2H23a1,1,0,0,0,0,2Z"/><path d="M28,14H68a1,1,0,0,0,0-2H28a1,1,0,0,0,0,2Z"/><path d="M93,39a1,1,0,0,0-1,1V54H79V25a1,1,0,0,0-1-1H18a1,1,0,0,0-1,1V54H4V40a1,1,0,0,0-2,0V82a1,1,0,0,0,1,1H93a1,1,0,0,0,1-1V40A1,1,0,0,0,93,39ZM19,26H77V54H65a1,1,0,0,0-.848.47L59.445,62H36.555l-4.707-7.53A1,1,0,0,0,31,54H19ZM4,81V56H30.445l4.707,7.53A1,1,0,0,0,36,64H60a1,1,0,0,0,.848-.47L65.555,56H92V81Z"/></svg>