<svg xmlns="http://www.w3.org/2000/svg" viewBox="0 0 64 64"><title>icons-64x64</title><path d="M52,10H12a3,3,0,0,0-3,3V51a3,3,0,0,0,3,3H52a3,3,0,0,0,3-3V13A3,3,0,0,0,52,10Zm1,41a1,1,0,0,1-1,1H12a1,1,0,0,1-1-1V21H53ZM11,19V13a1,1,0,0,1,1-1H52a1,1,0,0,1,1,1v6Z"/><circle cx="14.5" cy="15.5" r="1.5"/><circle cx="19.5" cy="15.5" r="1.5"/><circle cx="24.5" cy="15.5" r="1.5"/><path d="M32,25.5a10.55,10.55,0,0,1,1.13.06,11,11,0,0,1,9.69,8.89v.06a5,5,0,0,1-.66,4.21c-1,1.21-2.84,1.85-5.39,1.85H33.54a2.63,2.63,0,0,0-2.61,2,2.59,2.59,0,0,0,1.49,2.91A1,1,0,0,1,33,46.67a1,1,0,0,1-1.1.83,11,11,0,0,1-7.71-18.74A10.87,10.87,0,0,1,32,25.5h0m0-2a13,13,0,0,0-.1,26h0a3,3,0,0,0,1.34-5.8.59.59,0,0,1,.29-1.13h3.23c6.51,0,9-3.7,8-8.48A13,13,0,0,0,33.32,23.57h0A12,12,0,0,0,32,23.5Z"/><circle cx="32.89" cy="29.11" r="2"/><path d="M39.3,29.92a2,2,0,1,1-2.83,0A2,2,0,0,1,39.3,29.92Z"/><path d="M29.08,29.7a2,2,0,1,1-2.83,0A2,2,0,0,1,29.08,29.7Z"/><circle cx="24.66" cy="36.11" r="2"/></svg>