<svg xmlns="http://www.w3.org/2000/svg" viewBox="0 0 96 96"><g opacity="0"><rect width="96" height="96" fill="#fff"/></g><polygon points="12.103 43.592 12.17 82.93 51.835 82.954 51.7 43.421 12.103 43.592" class="sgmaincolor"/><path d="M30.163,68.937c-.032,0-.064,0-.1,0a1,1,0,0,1-.707-.4l-3.349-4.5a1,1,0,0,1,1.606-1.193l2.688,3.616,9.136-8.334A1,1,0,0,1,40.789,59.6l-9.952,9.08A1,1,0,0,1,30.163,68.937Z"/><path d="M32.316,76.731a12.914,12.914,0,0,1-9.236-3.87A13.373,13.373,0,0,1,32.261,50.08h.056a12.918,12.918,0,0,1,9.237,3.87,13.373,13.373,0,0,1-9.182,22.781Zm0-24.651h-.048A11.232,11.232,0,0,0,21.207,63.454a11.358,11.358,0,0,0,3.293,8,10.935,10.935,0,0,0,7.816,3.277h.048A11.233,11.233,0,0,0,43.427,63.357a11.358,11.358,0,0,0-3.293-8A10.939,10.939,0,0,0,32.317,52.08Z"/><path d="M84.9,11.4a.984.984,0,0,0-.061-.3,1.013,1.013,0,0,0-.192-.292c-.009-.01-.011-.023-.021-.033h0a1,1,0,0,0-.707-.295H12.17a1,1,0,0,0-1,1V82.93a.988.988,0,0,0,.518.859.986.986,0,0,0,.092.062c.019.008.041.006.06.012a.974.974,0,0,0,.329.067l39.666.024h0a1.012,1.012,0,0,0,.122-.024H83.913a1,1,0,0,0,1-1V11.479A.657.657,0,0,0,84.9,11.4ZM13.17,12.479H81.484l-30.2,29.944-2.963.012V32.9c0-9.289-6.981-16.845-15.562-16.845S17.2,23.607,17.2,32.9V42.57l-4.031.017ZM19.2,42.561V32.9c0-8.185,6.084-14.845,13.561-14.845S46.324,24.711,46.324,32.9V42.4H44.429V32.9c0-6.952-5.233-12.608-11.667-12.608S21.1,25.944,21.1,32.9v9.657Zm3.894-.017V32.9c0-5.849,4.337-10.608,9.667-10.608s9.667,4.759,9.667,10.608v9.565ZM13.17,81.93V44.587l4.961-.021c.029,0,.053.016.083.016h3.907a.981.981,0,0,0,.168-.034l28.385-.123.158,37.505Zm39.661,0-.159-38.064L82.913,13.878V81.93Z"/></svg>