<svg xmlns="http://www.w3.org/2000/svg" viewBox="0 0 96 96"><g opacity="0"><rect width="96" height="96" fill="#fff"/></g><circle cx="14" cy="16" r="2"/><circle cx="20" cy="16" r="2"/><circle cx="26" cy="16" r="2"/><polygon points="61.5 35 33 35 18 61 33 87 61.5 87 78 61 61.5 35" class="sgmaincolor"/><path d="M91,8H5A1,1,0,0,0,4,9V73a1,1,0,0,0,1,1H24.345l7.789,13.5A1,1,0,0,0,33,88H61.5a1,1,0,0,0,.845-.464L70.935,74H91a1,1,0,0,0,1-1V9A1,1,0,0,0,91,8Zm-1,2V22H6V10ZM60.95,86H33.577L19.154,61,33.577,36H60.95L76.815,61ZM72.2,72l6.641-10.464a1,1,0,0,0,0-1.072l-16.5-26A1,1,0,0,0,61.5,34H33a1,1,0,0,0-.866.5l-15,26a1,1,0,0,0,0,1L23.191,72H6V24H90V72Z"/><path d="M49.414,61l8.839-8.839a1,1,0,0,0-1.414-1.414L48,59.586l-8.839-8.839a1,1,0,0,0-1.414,1.414L46.586,61l-8.839,8.839a1,1,0,1,0,1.414,1.414L48,62.414l8.839,8.839a1,1,0,0,0,1.414-1.414Z"/></svg>