<svg xmlns="http://www.w3.org/2000/svg" viewBox="0 0 96 96"><g opacity="0"><rect width="96" height="96" fill="#fff"/></g><path d="M38.41,52.974,25.044,52.85a2.029,2.029,0,0,0-1.441.581L5.453,71.438a2.029,2.029,0,0,0-.027,2.87l13.053,13.3a2.03,2.03,0,0,0,2.87.027l18.34-17.815a2.034,2.034,0,0,0,.608-1.429l.123-13.366A2.029,2.029,0,0,0,38.41,52.974ZM33.791,64.932a3.934,3.934,0,1,1,0-5.564A3.935,3.935,0,0,1,33.791,64.932Z" class="sgmaincolor"/><path d="M31.01,67.084A4.934,4.934,0,1,1,34.5,65.639h0A4.9,4.9,0,0,1,31.01,67.084Zm0-7.867a2.933,2.933,0,0,0-2.076,5.007,3,3,0,0,0,4.15,0h0a2.933,2.933,0,0,0-2.074-5.008Z"/><rect x="3.241" y="30.279" width="90.001" height="17.126" class="sgmaincolor"/><circle cx="10.952" cy="23.142" r="2.334"/><circle cx="17.953" cy="23.142" r="2.334"/><circle cx="24.954" cy="23.142" r="2.334"/><path d="M67.594,42.357H28.406a1,1,0,0,1,0-2H67.594a1,1,0,0,1,0,2Z"/><path d="M93.239,14.39H3.074a1,1,0,0,0-1,1L2.068,80.333a1,1,0,0,0,1,1,.541.541,0,0,0,.058-.012c.021,0,.038.012.058.012H10.92l6.845,6.973a3.033,3.033,0,0,0,4.281.043L29.409,81.2l63.83.019a1,1,0,0,0,1-1V15.39A1,1,0,0,0,93.239,14.39ZM4.068,79.333v-5.3a3.027,3.027,0,0,0,.643.977l4.245,4.324Zm16.581,7.585a1.032,1.032,0,0,1-1.456-.014L6.139,73.607a1.03,1.03,0,0,1,.018-1.459l18.147-18a1.033,1.033,0,0,1,.72-.3h.011l13.366.124a1.03,1.03,0,0,1,1.02,1.039L39.3,68.378a1.039,1.039,0,0,1-.3.722l-3.04,2.953Zm71.59-7.7L31.467,79.2l8.923-8.667A3.051,3.051,0,0,0,41.3,68.4l.124-13.366a3.034,3.034,0,0,0-3-3.057L25.054,51.85a3.013,3.013,0,0,0-2.155.871l-18.146,18a3.018,3.018,0,0,0-.684,1.026l0-23.318,88.155-.027.013,0Zm0-32.808-.013,0-88.155.027,0-15.154,88.166,0Zm0-17.132-88.166,0V16.39H92.239Z"/></svg>