<svg xmlns="http://www.w3.org/2000/svg" viewBox="0 0 96 96"><g opacity="0"><rect width="96" height="96" fill="#fff"/></g><ellipse cx="72" cy="67.937" rx="21" ry="21.024" class="sgmaincolor"/><path d="M87.023,51.844c-.025-.023-.038-.054-.065-.075-.009-.008-.021-.009-.03-.016A21.96,21.96,0,0,0,69.76,46l.026-.209c.175-1.373.372-2.928.372-3.786a34.239,34.239,0,0,0-10.84-25,.939.939,0,0,0-.113-.132c-.016-.013-.037-.015-.054-.027a34.252,34.252,0,0,0-46.659,0c-.016.011-.036.014-.052.026a.946.946,0,0,0-.109.128A34.312,34.312,0,0,0,35.822,76.339a36.8,36.8,0,0,0,14.73-3.53A22,22,0,1,0,87.023,51.844ZM68.133,41H53.652a59.037,59.037,0,0,0-2.52-16.7,25.92,25.92,0,0,0,7.5-5.2A32.236,32.236,0,0,1,68.133,41ZM22.869,60.388a33.634,33.634,0,0,1,11.953-2.4V73.917C29.887,73.293,25.559,68.088,22.869,60.388Zm25.754-37.2a33.743,33.743,0,0,1-11.8,2.34V10.088C41.665,10.7,45.923,15.723,48.623,23.188Zm-13.8,4.34V41H19.991a57.279,57.279,0,0,1,2.386-15.892A35.912,35.912,0,0,0,34.822,27.528Zm-11.8-4.35c2.7-7.46,6.957-12.478,11.8-13.09v15.44A33.677,33.677,0,0,1,23.024,23.178ZM34.822,43V55.986a35.837,35.837,0,0,0-12.581,2.47A57.67,57.67,0,0,1,19.991,43Zm2,30.914V57.982a33.556,33.556,0,0,1,11.954,2.4C46.087,68.086,41.758,73.293,36.822,73.917Zm0-17.935V43h14.83A57.639,57.639,0,0,1,49.4,58.477,35.594,35.594,0,0,0,36.822,55.982Zm0-14.979V27.528a35.917,35.917,0,0,0,12.445-2.417A57.318,57.318,0,0,1,51.652,41ZM50.473,22.376c-1.973-5.39-4.752-9.588-8.033-12.017a32.248,32.248,0,0,1,14.72,7.378A24.365,24.365,0,0,1,50.473,22.376ZM29.2,10.36c-3.279,2.426-6.057,6.621-8.029,12.005a24.558,24.558,0,0,1-6.687-4.631A32.232,32.232,0,0,1,29.2,10.36ZM13.016,19.1a25.916,25.916,0,0,0,7.5,5.2A58.994,58.994,0,0,0,17.991,41H3.512A32.232,32.232,0,0,1,13.016,19.1Zm-.235,45.558A32.224,32.224,0,0,1,3.511,43h14.48a59.367,59.367,0,0,0,2.393,16.272A25.558,25.558,0,0,0,12.781,64.661Zm8.238-3.441C23,66.81,25.84,71.157,29.206,73.647a32.251,32.251,0,0,1-14.978-7.6A23.907,23.907,0,0,1,21.019,61.22ZM50,67.923a22.3,22.3,0,0,0,.188,2.836A34.708,34.708,0,0,1,42.772,73.4c3.221-2.527,5.94-6.78,7.855-12.188.125.062.255.116.38.18A21.954,21.954,0,0,0,50,67.923ZM51.253,59.3A59.348,59.348,0,0,0,53.652,43H68.1c-.072.781-.2,1.751-.294,2.533-.035.277-.068.537-.1.773a21.885,21.885,0,0,0-10.593,5.425.638.638,0,0,0-.069.035.893.893,0,0,0-.133.155A22.177,22.177,0,0,0,51.692,59.5C51.548,59.429,51.4,59.367,51.253,59.3Zm7.858-6.672a19.939,19.939,0,0,1,7.324-3.935,18.291,18.291,0,0,0-3.847,6.344A15.333,15.333,0,0,1,59.111,52.625Zm2.814,4.334a37.511,37.511,0,0,0-1.509,9.964H52.051A19.968,19.968,0,0,1,57.645,54,17.041,17.041,0,0,0,61.925,56.959ZM52.051,68.923h8.365a37.737,37.737,0,0,0,1.424,9.7A16.888,16.888,0,0,0,57.5,81.679,19.957,19.957,0,0,1,52.051,68.923Zm6.893,14.146a15.19,15.19,0,0,1,3.544-2.511,18.5,18.5,0,0,0,3.948,6.6A19.969,19.969,0,0,1,58.944,83.069ZM71,87.62c-2.682-.606-5.07-3.6-6.648-7.9A20.921,20.921,0,0,1,71,78.406Zm0-11.238A22.891,22.891,0,0,0,63.724,77.8a35.786,35.786,0,0,1-1.309-8.874H71Zm0-9.459H62.415a35.607,35.607,0,0,1,1.391-9.149A23.093,23.093,0,0,0,71,59.134Zm0-9.79a20.912,20.912,0,0,1-6.55-1.278c1.578-4.153,3.924-7.038,6.55-7.631Zm20.949,9.79H83.584a37.469,37.469,0,0,0-1.51-9.964A17.034,17.034,0,0,0,86.355,54,19.965,19.965,0,0,1,91.949,66.923ZM84.894,52.629a15.035,15.035,0,0,1-3.477,2.417,18.308,18.308,0,0,0-3.852-6.356A19.969,19.969,0,0,1,84.894,52.629ZM73,48.224c2.628.593,4.975,3.483,6.554,7.642A21.021,21.021,0,0,1,73,57.133Zm0,10.91a23.093,23.093,0,0,0,7.194-1.36,35.607,35.607,0,0,1,1.391,9.149H73Zm0,9.789h8.585A35.778,35.778,0,0,1,80.276,77.8,22.892,22.892,0,0,0,73,76.382Zm0,18.7V78.406a20.866,20.866,0,0,1,6.648,1.315C78.07,84.017,75.682,87.014,73,87.62Zm4.564-.464a18.518,18.518,0,0,0,3.949-6.6,15.156,15.156,0,0,1,3.543,2.511A19.969,19.969,0,0,1,77.564,87.156Zm8.94-5.477a16.867,16.867,0,0,0-4.344-3.06,37.729,37.729,0,0,0,1.424-9.7h8.365A19.957,19.957,0,0,1,86.5,81.679Z"/></svg>