<svg xmlns="http://www.w3.org/2000/svg" viewBox="0 0 96 96"><g opacity="0"><rect width="96" height="96" fill="#fff"/></g><polygon points="3.696 73.021 3.751 28.428 68.309 28.451 68.416 73.084 3.696 73.021" class="sgmaincolor"/><path d="M69.309,28.448a1,1,0,0,0-1-1l-16.445-.006V19.613a1,1,0,0,0-1-1H21.123a1,1,0,0,0-1,1v7.82l-16.37-.006h0c-.014,0-.024.007-.037.008a.955.955,0,0,0-.666.282l0,0h0a1,1,0,0,0-.216.324,1.021,1.021,0,0,0-.068.335c0,.017-.009.03-.009.047L2.7,73.02a1,1,0,0,0,1,1l64.721.063h0a1,1,0,0,0,1-1ZM22.123,20.613H49.864v6.831l-27.741-.01Zm-1.274,8.821a.967.967,0,0,0,.274.055.953.953,0,0,0,.272-.055l44.745.016L35.779,59.134,6.162,29.428ZM4.7,72.022l.052-41.178,30.313,30.4a1,1,0,0,0,1.407.009L67.315,31.1l.1,40.985Z"/><path d="M91.971,14.973H81.06V4.062a1.334,1.334,0,0,0-2.667,0V14.973H67.482a1.334,1.334,0,0,0,0,2.667H78.393V28.551a1.334,1.334,0,0,0,2.667,0V17.64H91.971a1.334,1.334,0,0,0,0-2.667Z"/></svg>