<svg xmlns="http://www.w3.org/2000/svg" viewBox="0 0 96 96"><g opacity="0"><rect width="96" height="96" fill="#fff"/></g><polygon points="75.975 17.975 53.025 40.924 50.015 37.914 45.5 37.914 43.243 35.657 23.303 15.717 4.492 34.528 24.432 54.468 24.432 57.478 31.201 64.253 28.947 66.507 32.709 70.27 36.471 74.032 40.233 77.794 43.996 81.556 46.29 79.262 46.313 79.285 48.134 81.18 51.896 81.18 66.945 66.131 66.945 62.369 67.321 62.745 94.033 36.033 75.975 17.975" class="sgmaincolor"/><path d="M94.741,35.326,76.681,17.268a1,1,0,0,0-1.414,0L53.025,39.51l-2.3-2.3a1,1,0,0,0-.707-.293h-4.1L43.95,34.95,38.6,29.6l0,0,0,0L24.01,15.01a1.029,1.029,0,0,0-1.414,0L3.785,33.821a1,1,0,0,0,0,1.414L23.432,54.883v2.6a1,1,0,0,0,.293.707l6.062,6.067L28.24,65.8a1,1,0,0,0,0,1.414L32,70.977l3.763,3.762L39.526,78.5l3.763,3.763a1,1,0,0,0,1.414,0l1.574-1.574,1.137,1.183a1,1,0,0,0,.72.308H51.9a1,1,0,0,0,.707-.293l15.049-15.05a1,1,0,0,0,.293-.707V63.508c.026-.022.059-.031.084-.056L94.741,36.74a1,1,0,0,0,0-1.414Zm-88.835-.8,17.4-17.4L36.477,30.305,19.08,47.7ZM20.494,49.116l17.4-17.4,3.938,3.938-8.7,8.7-8.7,8.7Zm9.867,17.392L31.867,65c.015-.014.035-.018.05-.033s.019-.035.033-.05l6.778-6.779,2.349,2.348-4.184,4.184-4.184,4.183Zm3.762,3.762,4.184-4.184L42.491,61.9l2.347,2.348-4.183,4.184-4.184,4.184Zm7.946-.422,4.184-4.184L48.6,68.013,44.417,72.2,40.233,76.38l-2.348-2.348ZM44,80.143l-2.349-2.349,4.184-4.184,4.184-4.183,2.349,2.347ZM65.945,65.717,51.482,80.181H48.56l-.87-.905,6.8-6.8a1,1,0,0,0,0-1.414l-3.763-3.761-3.763-3.763L43.2,59.781l-3.763-3.762a1.029,1.029,0,0,0-1.414,0l-6.82,6.82-5.769-5.775V54.883l5.218-5.218L43.243,37.071l1.55,1.55a1,1,0,0,0,.708.293h4.1l2.01,2.01-9.827,9.828a1,1,0,0,0,0,1.414,8.447,8.447,0,0,0,11.948,0l.8-.8L65.945,62.783Zm1.377-4.386L55.944,49.954,57.5,48.4a1,1,0,0,0-1.414-1.414l-2.258,2.258-1.505,1.505a6.45,6.45,0,0,1-8.359.652L75.974,19.389,92.62,36.033Z"/><path d="M17.438,40.287a4.783,4.783,0,1,1,3.382-1.4h0A4.748,4.748,0,0,1,17.438,40.287Zm0-7.564a2.781,2.781,0,0,0-1.967,4.749,2.852,2.852,0,0,0,3.935,0h0a2.781,2.781,0,0,0-1.968-4.749Z"/></svg>