<svg xmlns="http://www.w3.org/2000/svg" viewBox="0 0 96 96"><g opacity="0"><rect width="96" height="96" fill="#fff"/></g><path d="M54.811,13.81H41.19L27.569,27.824V41.839L47.3,82.19,68.431,41.839V27.824Zm-4.13,26.614a6.326,6.326,0,0,1-3.786.7,5.994,5.994,0,0,1-1.277-.332,6.009,6.009,0,0,1-1.4-.59l-1.2-.929a5.937,5.937,0,0,1,0-8.4,5.912,5.912,0,0,1,4.2-1.739l.26.032c.08-.007.155-.029.235-.032a6.027,6.027,0,0,1,4.2,1.739,6.1,6.1,0,0,1,1.739,4.2C53.634,37.112,52.629,39.5,50.681,40.424Z" class="sgmaincolor"/><path d="M47.3,83.19h-.013a1,1,0,0,1-.885-.561L26.67,42.278a1.012,1.012,0,0,1-.1-.439V27.824a1,1,0,0,1,.283-.7L40.473,13.113a1,1,0,0,1,.717-.3H54.811a1,1,0,0,1,.717.3l13.62,14.015a1,1,0,0,1,.283.7V41.839a1,1,0,0,1-.114.464L48.181,82.654A1,1,0,0,1,47.3,83.19ZM28.569,41.608,47.327,79.976l20.1-38.383V28.23L54.388,14.81H41.613L28.569,28.23Zm19.146.577a7.234,7.234,0,0,1-.953-.065,6.881,6.881,0,0,1-1.491-.385,6.726,6.726,0,0,1-1.554-.663.919.919,0,0,1-.11-.074l-1.2-.928a6.927,6.927,0,0,1-.1-9.895,6.9,6.9,0,0,1,5.028-2.024l.126.015a1.669,1.669,0,0,1,.2-.022,6.99,6.99,0,0,1,4.948,2.031,7.125,7.125,0,0,1,2.031,4.912c-.016,2.279-1.115,5.093-3.538,6.241h0A7.735,7.735,0,0,1,47.715,42.185Zm2.966-1.761h0Zm-5.907-1.052a4.928,4.928,0,0,0,1.112.461,5.043,5.043,0,0,0,4.367-.313h0c1.629-.772,2.383-2.846,2.394-4.447a4.937,4.937,0,0,0-4.892-4.931,1.679,1.679,0,0,1-.2.03,1.092,1.092,0,0,1-.2,0l-.18-.022a4.939,4.939,0,0,0-3.452,1.443,5.068,5.068,0,0,0-1.447,3.446,5.123,5.123,0,0,0,1.416,3.507Z"/></svg>