<svg xmlns="http://www.w3.org/2000/svg" viewBox="0 0 96 96"><g opacity="0"><rect width="96" height="96" fill="#fff"/></g><polygon points="5 12 9 11 17 15 21 14 33 14 59 25 70 25 62 34 76 67 91 66 79 76 71 92 71 73 61 70 37 46 28 55 28 37 5 14 5 12" class="sgmaincolor"/><path d="M91.929,65.628a.976.976,0,0,0-1-.626l-14.291.953L63.168,34.192l7.579-8.527A1,1,0,0,0,70,24H59.2L33.39,13.079A1,1,0,0,0,33,13H21a.984.984,0,0,0-.242.03l-3.642.91L9.448,10.105a1,1,0,0,0-.69-.075l-4,1A1,1,0,0,0,4,12v2a1,1,0,0,0,.293.707L27,37.414V55a1,1,0,0,0,1.707.707L37,47.414,60.293,70.707a1,1,0,0,0,.42.251L70,73.744V92a1,1,0,0,0,1.895.447L79.8,76.634l11.84-9.866A1,1,0,0,0,91.929,65.628ZM67.774,26,62.4,32.043,60.387,26ZM28.252,35.838,6,13.586v-.8l2.884-.721L16.553,15.9a1.008,1.008,0,0,0,.689.075L21.123,15H32.8L56.815,25.161Zm8.063,9.434-.009.013-.013.008L29,52.586V37.694l25.486-9.527Zm2.121.75L55.941,29.543,45.667,53.253ZM61.53,69.115,47.188,54.774,58.878,27.8l2.174,6.52c0,.01.011.016.014.026s.007.033.013.049L75.067,67.362l2.322,6.966-6.037-2.265c-.01,0-.02,0-.03,0s-.022-.013-.035-.017ZM72,74.443l5.609,2.1L72,87.764Zm7.485-.149-2.127-6.383L88,67.2Z"/><circle cx="28" cy="20" r="2"/></svg>