<svg xmlns="http://www.w3.org/2000/svg" viewBox="0 0 96 96"><g opacity="0"><rect width="96" height="96" fill="#fff"/></g><rect x="5" y="16" width="86" height="64" class="sgmaincolor"/><circle cx="14" cy="23" r="2"/><circle cx="20" cy="23" r="2"/><circle cx="26" cy="23" r="2"/><path d="M91,15H5a1,1,0,0,0-1,1V80a1,1,0,0,0,1,1H91a1,1,0,0,0,1-1V16A1,1,0,0,0,91,15Zm-1,2V29H6V17ZM6,79V31H90V79Z"/><path d="M77,57H19a1,1,0,0,1-1-1V42a1,1,0,0,1,1-1H77a1,1,0,0,1,1,1V56A1,1,0,0,1,77,57ZM20,55H76V43H20Z"/><path d="M30.707,46.293a1,1,0,0,0-1.414,0L28,47.586l-1.293-1.293a1,1,0,0,0-1.414,1.414L26.586,49l-1.293,1.293a1,1,0,1,0,1.414,1.414L28,50.414l1.293,1.293a1,1,0,0,0,1.414-1.414L29.414,49l1.293-1.293A1,1,0,0,0,30.707,46.293Z"/><path d="M38.707,46.293a1,1,0,0,0-1.414,0L36,47.586l-1.293-1.293a1,1,0,0,0-1.414,1.414L34.586,49l-1.293,1.293a1,1,0,1,0,1.414,1.414L36,50.414l1.293,1.293a1,1,0,0,0,1.414-1.414L37.414,49l1.293-1.293A1,1,0,0,0,38.707,46.293Z"/><path d="M46.707,46.293a1,1,0,0,0-1.414,0L44,47.586l-1.293-1.293a1,1,0,0,0-1.414,1.414L42.586,49l-1.293,1.293a1,1,0,1,0,1.414,1.414L44,50.414l1.293,1.293a1,1,0,0,0,1.414-1.414L45.414,49l1.293-1.293A1,1,0,0,0,46.707,46.293Z"/><path d="M54.707,46.293a1,1,0,0,0-1.414,0L52,47.586l-1.293-1.293a1,1,0,0,0-1.414,1.414L50.586,49l-1.293,1.293a1,1,0,1,0,1.414,1.414L52,50.414l1.293,1.293a1,1,0,0,0,1.414-1.414L53.414,49l1.293-1.293A1,1,0,0,0,54.707,46.293Z"/><path d="M62.707,46.293a1,1,0,0,0-1.414,0L60,47.586l-1.293-1.293a1,1,0,0,0-1.414,1.414L58.586,49l-1.293,1.293a1,1,0,1,0,1.414,1.414L60,50.414l1.293,1.293a1,1,0,0,0,1.414-1.414L61.414,49l1.293-1.293A1,1,0,0,0,62.707,46.293Z"/><path d="M69.414,49l1.293-1.293a1,1,0,0,0-1.414-1.414L68,47.586l-1.293-1.293a1,1,0,0,0-1.414,1.414L66.586,49l-1.293,1.293a1,1,0,1,0,1.414,1.414L68,50.414l1.293,1.293a1,1,0,0,0,1.414-1.414Z"/></svg>