<svg xmlns="http://www.w3.org/2000/svg" viewBox="0 0 54 61.932"><path d="M23.912,18.525a19.393,19.393,0,0,0-2.348,9.3,26.591,26.591,0,0,0,2.2,10.586,1,1,0,0,0,.81.585c.034,0,.068.005.1.005a1,1,0,0,0,.809-.413c.518-.714,3.493-4.2,11.269-2.648,3.617.72,6.428.32,8.359-1.194a6.462,6.462,0,0,0,2.36-4.2,1,1,0,0,0-1.049-1.127,9.658,9.658,0,0,0,1.08-.561,9.067,9.067,0,0,0,1.466-1.1c3.537-3.268,3.4-8.51,3.268-10.039a1,1,0,0,0-1.755-.57,6.51,6.51,0,0,1-2.813,1.855A10.116,10.116,0,0,0,49.4,17.642c3.354-3.309,3.522-8.18,3.494-9.595A1,1,0,0,0,51.258,7.3c-1.943,1.6-5.787,2.256-9.869,2.952C34.708,11.385,27.135,12.673,23.912,18.525ZM50.8,9.925A10.584,10.584,0,0,1,48,16.218c-2.07,2.044-5.2,2.89-9.3,2.518a1.148,1.148,0,0,0-.427,2.249c.081.022,7.306,1.962,12-1.024a9.415,9.415,0,0,1-2.643,6.331h0a7.134,7.134,0,0,1-1.143.857c-2.471,1.49-6.12,1.7-10.854.627a1.151,1.151,0,0,0-1.162,1.818c.312.411,3.095,3.732,10.547,2.214a4.188,4.188,0,0,1-1.123,1.364c-1.449,1.137-3.714,1.408-6.734.807-6.644-1.325-10.336.625-12.122,2.187a24.848,24.848,0,0,1-1.463-8.324,17.411,17.411,0,0,1,2.1-8.352c2.758-5.008,9.825-6.21,16.073-7.273C45.15,11.636,48.414,11.079,50.8,9.925Z" transform="translate(-5 -1.068)"/><path d="M56,27H51.688a1,1,0,0,0,0,2h3.688L32.593,46.805a.989.989,0,0,1-1.164.016L8.624,29H19.688a1,1,0,1,0,0-2H8a3,3,0,0,0-3,3V60a3,3,0,0,0,3,3H56a3,3,0,0,0,3-3V30A3,3,0,0,0,56,27Zm0,34H8a1,1,0,0,1-1-1V30.269L30.22,48.414A2.978,2.978,0,0,0,31.993,49a3.034,3.034,0,0,0,1.809-.6L57,30.269V60A1,1,0,0,1,56,61Z" transform="translate(-5 -1.068)"/><path d="M14.7,25.561a1.032,1.032,0,0,0,.111-.006,1,1,0,0,0,.885-1.1,22.071,22.071,0,0,1-.135-2.609,17.411,17.411,0,0,1,2.1-8.352c2.758-5.008,9.825-6.21,16.073-7.273,3.41-.581,6.672-1.137,9.055-2.289a12.537,12.537,0,0,1-1.026,3.735,1,1,0,1,0,1.814.844,15.27,15.27,0,0,0,1.314-6.46A1,1,0,0,0,43.258,1.3c-1.943,1.6-5.787,2.256-9.869,2.952-6.681,1.137-14.254,2.425-17.477,8.277a19.392,19.392,0,0,0-2.348,9.3,23.947,23.947,0,0,0,.146,2.847A1,1,0,0,0,14.7,25.561Z" transform="translate(-5 -1.068)"/></svg>