<svg xmlns="http://www.w3.org/2000/svg" viewBox="0 0 96 96"><g opacity="0"><rect width="96" height="96" fill="#fff"/></g><path d="M21.978,88.872,21.75,26.18,40.789,6.662H84v82.21Z" class="sgmaincolor"/><path d="M84,5.662H30.168a1,1,0,0,0-.713.3L10.355,25.4a1,1,0,0,0-.288.7l.014,62.768a1,1,0,0,0,1,1H84a1,1,0,0,0,1-1V6.662A1,1,0,0,0,84,5.662ZM12.067,26.514,30.587,7.662h7.849L21.256,25.486a1,1,0,0,0-.28.7V87.872H12.081ZM83,87.872H22.976V26.584L41.214,7.662H83Z"/><path d="M79.439,42.364a1,1,0,0,0-1.363.375l-2.645,4.655A23.778,23.778,0,0,0,62.13,34.01a23.31,23.31,0,0,0-18.063.271A23.76,23.76,0,0,0,31.331,47.587c-3.64,9.377-1.955,18.888,4.506,25.44A25.776,25.776,0,0,0,44.719,78.8a24.393,24.393,0,0,0,9,1.6,31.085,31.085,0,0,0,3.166-.163,28.307,28.307,0,0,0,5.139-.969,1,1,0,0,0-.6-1.908,27.113,27.113,0,0,1-4.746.887,24.2,24.2,0,0,1-11.216-1.308,23.805,23.805,0,0,1-8.2-5.319c-5.892-5.976-7.411-14.69-4.065-23.311a21.77,21.77,0,0,1,11.668-12.2,21.316,21.316,0,0,1,16.524-.248A21.786,21.786,0,0,1,73.5,47.935L68.659,46.21a1,1,0,0,0-.672,1.883l6.982,2.49a.979.979,0,0,0,.336.059,1,1,0,0,0,.869-.506l3.64-6.408A1,1,0,0,0,79.439,42.364Z"/></svg>