<svg xmlns="http://www.w3.org/2000/svg" viewBox="0 0 46 48.95"><path d="M29.94,46.94H14.06V22.06H29.94Zm-14-1.88H28.06V23.94H15.94Z" transform="translate(-9 -8)"/><path d="M50.07,33.07H32.93V21.93H50.07Zm-15-2.14H47.93V24.07H35.07Z" transform="translate(-9 -8)"/><circle cx="5.5" cy="5.5" r="1.5"/><circle cx="10.5" cy="5.5" r="1.5"/><circle cx="15.5" cy="5.5" r="1.5"/><path d="M52,8H12a3,3,0,0,0-3,3V49a3,3,0,0,0,3,3H30V50H12a1,1,0,0,1-1-1V19H53V37h2V11A3,3,0,0,0,52,8ZM11,17V11a1,1,0,0,1,1-1H52a1,1,0,0,1,1,1v6Z" transform="translate(-9 -8)"/><path d="M44,57a10.95,10.95,0,0,1-6.66-19.64A10.85,10.85,0,0,1,44,35.05,11,11,0,0,1,44,57Zm0-20a9.06,9.06,0,0,0-9,9,9,9,0,1,0,9-9Z" transform="translate(-9 -8)"/><path d="M49.71,46.29a1,1,0,0,0-1.42,0L45,49.59V41a1,1,0,0,0-2,0v8.59l-3.29-3.3a1,1,0,0,0-1.42,1.42l5,5a1,1,0,0,0,.33.21.94.94,0,0,0,.76,0,1,1,0,0,0,.33-.21l5-5A1,1,0,0,0,49.71,46.29Z" transform="translate(-9 -8)"/></svg>