<svg xmlns="http://www.w3.org/2000/svg" viewBox="0 0 96 96"><g opacity="0"><rect width="96" height="96" fill="#fff"/></g><path d="M64.23,31.81h-.14a5.48,5.48,0,0,1-5.34-5.62,5.48,5.48,0,1,1,11,.28h0A5.48,5.48,0,0,1,64.23,31.81Zm0-8.95a3.47,3.47,0,0,0-2.52,5.87,3.45,3.45,0,0,0,2.43,1.08,3.51,3.51,0,0,0,3.56-3.39h0a3.41,3.41,0,0,0-1-2.48,3.47,3.47,0,0,0-2.44-1.08Z"/><path d="M45.41,21,49,19.15l-2.2-6.43-3.89.51c-.68-1-1.69-2-2.54-3l1-3.9-6.09-3L32.89,6.46A30,30,0,0,0,29,6.13L27.14,2.74l-6.43,2.2.51,3.89a22,22,0,0,0-3,2.54l-3.89-1-3,6.09,3.21,2.37a15.77,15.77,0,0,0-.34,3.89l-3.38,1.86L12.93,31l3.89-.5a21.78,21.78,0,0,0,2.54,3l-1,3.89,6.09,3,2.37-3.22a15.07,15.07,0,0,0,3.89.34L32.55,41,39,38.77l-.51-3.89c1-.67,2-1.69,3.05-2.53l3.89,1,3-6.09L45.24,24.9A14.92,14.92,0,0,0,45.41,21ZM29.84,28A6.14,6.14,0,1,1,36,21.86,6.13,6.13,0,0,1,29.84,28Z" class="sgmaincolor"/><path d="M32.55,42a1,1,0,0,1-.88-.51L30.1,38.59a16.81,16.81,0,0,1-2.88-.22l-2,2.69a1,1,0,0,1-1.26.3l-6.09-3a1,1,0,0,1-.52-1.15l.89-3.38-.51-.55a13.89,13.89,0,0,1-1.43-1.68L13.06,32A1,1,0,0,1,12,31.32l-2.2-6.43a1,1,0,0,1,.47-1.2l2.86-1.58a16.32,16.32,0,0,1,.23-2.88l-2.7-2a1,1,0,0,1-.3-1.25l3.05-6.09a1,1,0,0,1,1.14-.52l3.38.88.55-.51a14.85,14.85,0,0,1,1.68-1.43l-.42-3.26A1,1,0,0,1,20.39,4l6.42-2.2a1,1,0,0,1,1.2.46l1.58,2.88c1,0,1.9.14,2.84.26l2-2.74a1,1,0,0,1,1.25-.31L41.79,5.4a1,1,0,0,1,.52,1.15l-.88,3.38.53.61c.47.52.95,1.07,1.37,1.62l3.3-.43a1,1,0,0,1,1.08.67l2.2,6.43A1,1,0,0,1,49.42,20l-3,1.55a15.06,15.06,0,0,1-.16,2.86l2.75,2a1,1,0,0,1,.3,1.25L46.3,33.81a1,1,0,0,1-1.15.52l-3.38-.89-.6.54c-.53.47-1.07,1-1.63,1.37L40,38.64a1,1,0,0,1-.67,1.08l-6.43,2.2A.86.86,0,0,1,32.55,42ZM26.8,36.25a1,1,0,0,1,.24,0,14.3,14.3,0,0,0,3.65.31,1,1,0,0,1,.88.52L33,39.75l4.86-1.66L37.48,35a1,1,0,0,1,.44-1,17.74,17.74,0,0,0,1.92-1.57c.34-.31.69-.61,1-.9a1,1,0,0,1,.89-.2l3.11.81,2.3-4.61-2.54-1.87a1,1,0,0,1-.39-.93l0-.23a13.14,13.14,0,0,0,.15-3.41,1,1,0,0,1,.52-1l2.8-1.47-1.66-4.84-3.08.4a1,1,0,0,1-1-.43,20.54,20.54,0,0,0-1.57-1.93c-.31-.34-.62-.69-.91-1a1,1,0,0,1-.2-.9l.81-3.1L35.56,4.52,33.69,7.06a1,1,0,0,1-.93.4l-.39,0A26.1,26.1,0,0,0,29,7.13a1,1,0,0,1-.88-.52L26.67,4,21.81,5.62l.4,3.08a1,1,0,0,1-.5,1,10.92,10.92,0,0,0-1.88,1.51c-.33.32-.66.63-1,.93a1,1,0,0,1-.89.2l-3.11-.81-2.3,4.61L15,18a1,1,0,0,1,.38,1,14.86,14.86,0,0,0-.31,3.64,1,1,0,0,1-.52.88L12,25l1.66,4.86,3.08-.41a1,1,0,0,1,1,.5,10.13,10.13,0,0,0,1.51,1.88c.32.33.63.67.92,1a1,1,0,0,1,.2.89l-.81,3.11,4.61,2.3L26,36.66A1,1,0,0,1,26.8,36.25Zm3-7.26A7.14,7.14,0,1,1,37,21.86,7.14,7.14,0,0,1,29.84,29Zm0-12.27A5.14,5.14,0,1,0,35,21.86,5.14,5.14,0,0,0,29.84,16.72Z"/><path d="M85.89,63.3,91,60.62l-3.17-9.26-5.6.73a56.43,56.43,0,0,0-3.65-4.38L80,42.11l-8.77-4.39-3.41,4.63a44.1,44.1,0,0,0-5.6-.49L59.58,37l-9.26,3.17.73,5.6a31.41,31.41,0,0,0-4.38,3.65L41.07,48l-4.39,8.77,4.63,3.41a22.64,22.64,0,0,0-.49,5.6L36,68.41l3.17,9.26,5.6-.73a32.19,32.19,0,0,0,3.66,4.38l-1.47,5.6,8.77,4.39,3.41-4.63a21.71,21.71,0,0,0,5.6.49L67.37,92l9.26-3.17-.73-5.6c1.46-1,2.92-2.44,4.38-3.65l5.61,1.46,4.38-8.77L85.64,68.9A21.51,21.51,0,0,0,85.89,63.3Zm-22.41,10a8.84,8.84,0,1,1,8.83-8.84A8.84,8.84,0,0,1,63.48,73.35Z" class="sgmaincolor"/><path d="M67.37,93a1,1,0,0,1-.87-.52l-2.4-4.35a23.41,23.41,0,0,1-4.59-.37l-3,4.1a1,1,0,0,1-1.25.3l-8.77-4.38A1,1,0,0,1,46,86.67l1.33-5.1-.9-1A19.83,19.83,0,0,1,44.21,78l-5,.65A1,1,0,0,1,38.17,78L35,68.73a1,1,0,0,1,.46-1.19l4.36-2.4a23.2,23.2,0,0,1,.36-4.59l-4.1-3a1,1,0,0,1-.3-1.25l4.38-8.77A1,1,0,0,1,41.32,47l5.1,1.33c.33-.29.65-.59,1-.9A19.77,19.77,0,0,1,50,45.25l-.65-5A1,1,0,0,1,50,39.21L59.26,36a1,1,0,0,1,1.2.47l2.39,4.36a45,45,0,0,1,4.55.41l3.07-4.15a1,1,0,0,1,1.25-.3l8.77,4.38A1,1,0,0,1,81,42.36l-1.33,5.1c.3.35.61.69.92,1,.73.82,1.47,1.67,2.1,2.52l5-.65a1,1,0,0,1,1.08.67L92,60.29a1,1,0,0,1-.49,1.21L87,63.87a23.07,23.07,0,0,1-.24,4.57l4.15,3.06a1,1,0,0,1,.3,1.26l-4.38,8.76a1,1,0,0,1-1.15.52l-5.1-1.33-1,.92c-.82.73-1.67,1.48-2.52,2.11l.65,5A1,1,0,0,1,77,89.82L67.7,93A1,1,0,0,1,67.37,93Zm-8.28-7.36.25,0a20.79,20.79,0,0,0,5.35.46,1,1,0,0,1,.88.51l2.28,4.14,7.68-2.63-.62-4.79a1,1,0,0,1,.43-1,26.89,26.89,0,0,0,2.82-2.3c.49-.44,1-.88,1.48-1.29a1,1,0,0,1,.9-.2l4.81,1.25L89,72.61l-4-2.91a1,1,0,0,1-.4-.93l0-.32a19.4,19.4,0,0,0,.2-5,1,1,0,0,1,.53-1l4.36-2.28-2.63-7.67-4.79.62a1,1,0,0,1-1-.43,28,28,0,0,0-2.3-2.82c-.44-.49-.88-1-1.29-1.48a1,1,0,0,1-.2-.89l1.26-4.82L71.58,39l-2.91,3.95a1,1,0,0,1-.93.4l-.58-.07a37.22,37.22,0,0,0-4.9-.41,1,1,0,0,1-.88-.52l-2.27-4.13-7.69,2.63.63,4.79a1,1,0,0,1-.5,1,15.41,15.41,0,0,0-2.79,2.24c-.47.45-.95.89-1.45,1.31a1,1,0,0,1-.89.2L41.6,49.12,38,56.41l3.95,2.91a1,1,0,0,1,.37,1,21.84,21.84,0,0,0-.46,5.36,1,1,0,0,1-.51.88l-4.14,2.27,2.63,7.69,4.79-.63a1,1,0,0,1,1,.5,15.07,15.07,0,0,0,2.24,2.79c.45.47.9,1,1.31,1.45a1,1,0,0,1,.2.89l-1.25,4.82L55.38,90l2.91-4A1,1,0,0,1,59.09,85.68Zm4.39-11.33a9.84,9.84,0,1,1,9.83-9.84A9.85,9.85,0,0,1,63.48,74.35Zm0-17.67a7.84,7.84,0,1,0,7.83,7.83A7.85,7.85,0,0,0,63.48,56.68Z"/><path d="M5.49,76.25a1,1,0,0,1-.61-1.8L26.66,58a1,1,0,1,1,1.2,1.6L6.09,76.05A1,1,0,0,1,5.49,76.25Z"/><rect x="92" y="-0.08" width="144" height="144" fill="#fff" opacity="0"/></svg>