<svg xmlns="http://www.w3.org/2000/svg" viewBox="0 0 96 96"><g opacity="0"><rect width="96" height="96" fill="#fff"/></g><polygon points="48.298 59.979 61.357 87.879 83.253 87.931 47.578 18.659 12.724 87.879 34.744 87.879 48.298 59.979" class="sgmaincolor"/><path d="M89.8,86.878H83.886L48.7,18.651,53.774,8.572a1,1,0,0,0-1.787-.9l-4.421,8.781-4.533-8.79a1,1,0,0,0-1.778.917l5.2,10.08L12.107,86.878h-5.9a1,1,0,1,0,0,2H89.8a1,1,0,0,0,0-2ZM47.588,20.859,81.636,86.878H61.993L49.2,59.555a1,1,0,0,0-.9-.576.987.987,0,0,0-.906.563L34.118,86.878H14.347ZM36.341,86.878,48.282,62.3l11.5,24.576Z"/></svg>