<svg xmlns="http://www.w3.org/2000/svg" viewBox="0 0 96 96"><g opacity="0"><rect width="96.161" height="96.088" fill="#fff"/></g><circle cx="51.596" cy="49.807" r="42.351" class="sgmaincolor"/><path d="M51.6,6.456A43.351,43.351,0,1,0,94.947,49.807,43.4,43.4,0,0,0,51.6,6.456Zm0,84.7A41.351,41.351,0,1,1,92.947,49.807,41.4,41.4,0,0,1,51.6,91.158Z"/><path d="M32.431,3.069a1,1,0,0,0-.767-1.847A52.063,52.063,0,0,0,.3,39.926a1,1,0,0,0,.8,1.166.96.96,0,0,0,.184.016,1,1,0,0,0,.982-.817A50.07,50.07,0,0,1,32.431,3.069Z"/><path d="M75.422,30.757a1,1,0,0,0-1.2.751l-2.4,10.474A23.018,23.018,0,0,0,50.844,28.348c-10.582,0-19.007,5.781-21.986,15.087a1,1,0,0,0,1.9.609c2.706-8.448,10.4-13.7,20.082-13.7A21.05,21.05,0,0,1,70.266,43.377L59.583,40.929a1,1,0,1,0-.448,1.949l12.186,2.793a1,1,0,0,0,.556.175,1.063,1.063,0,0,0,.134-.021,1.048,1.048,0,0,0,.184.021,1,1,0,0,0,.974-.777l3-13.114A1,1,0,0,0,75.422,30.757Z"/><path d="M72.182,56.071a1,1,0,0,0-1.257.648c-2.706,8.448-10.4,13.7-20.081,13.7A21.054,21.054,0,0,1,31.378,57.288l10.727,2.46a1,1,0,1,0,.447-1.949L29.716,54.855a1,1,0,0,0-1.2.751l-3,13.116a1,1,0,0,0,.751,1.2,1.021,1.021,0,0,0,.225.025,1,1,0,0,0,.973-.776l2.386-10.418a23.02,23.02,0,0,0,21,13.664c10.581,0,19.005-5.781,21.986-15.087A1,1,0,0,0,72.182,56.071Z"/></svg>