<svg xmlns="http://www.w3.org/2000/svg" viewBox="0 0 96 96"><g opacity="0"><rect width="96" height="96.145" fill="#fff"/></g><polygon points="62.163 42.923 73.036 50.371 75.345 62.728 87.428 68.333 90.043 79.504 80.588 92.647 14.147 92.82 12.495 91.238 4.956 83.546 4.956 82.464 7.114 76.946 9.096 71.596 16.457 68.979 22.221 57.341 22.807 56.041 39.059 53.844 48.066 43.684 62.163 42.923" class="sgmaincolor"/><path d="M92.018,61.665,89.4,50.493a1,1,0,0,0-.552-.679L77.234,44.425,75.02,32.576a1,1,0,0,0-.418-.642L63.73,24.486a1,1,0,1,0-1.131,1.65l10.53,7.214L75.362,45.3a1,1,0,0,0,.563.724l11.641,5.4,2.4,10.254-3.631,5.047L76.318,62.077A1.1,1.1,0,0,0,76.227,62L74.02,50.187a1.008,1.008,0,0,0-.418-.642L62.729,42.1a.978.978,0,0,0-.62-.174l-14.1.762a1,1,0,0,0-.7.336L38.558,52.9,22.674,55.049l-.018.005h-.02c-.01,0-.017.01-.027.012a.974.974,0,0,0-.185.051c-.009,0-.016.01-.025.014a.99.99,0,0,0-.19.108l-.006.006a.85.85,0,0,0-.075.072c-.012.011-.027.015-.038.026s-.01.019-.018.028a.97.97,0,0,0-.144.207c-.005.009-.014.013-.019.022-.044.092-3.455,7.067-5.265,10.747l-.9,1.824L11.149,69.8,6.957,65.526v-.484l2.095-5.36,1.819-4.912,6.921-2.46a1.006,1.006,0,0,0,.562-.5l5.78-11.671.357-.794,15.7-2.123a1,1,0,1,0-.267-1.982l-16.252,2.2a1,1,0,0,0-.778.58l-.571,1.268L16.74,50.561,9.761,53.042a1,1,0,0,0-.6.594L7.183,58.97,5.026,64.489a1.006,1.006,0,0,0-.069.364v1.081a1,1,0,0,0,.286.7l3.83,3.908-.312.111a1,1,0,0,0-.6.595L6.182,76.583,4.025,82.1a1.006,1.006,0,0,0-.069.364v1.082a1,1,0,0,0,.286.7L11.8,91.961l1.652,1.582a1,1,0,0,0,.692.278h0l66.44-.174a1,1,0,0,0,.793-.4.99.99,0,0,0,.429-.565l.012-.043,9.03-12.553a1,1,0,0,0,.162-.811L88.578,68.861l.032-.112a.986.986,0,0,0-.462-1.12l3.708-5.153A1,1,0,0,0,92.018,61.665ZM27.424,91.786,18.054,70.15l19.754,2.043L46.8,91.735ZM66.392,70.28l-25.3-16.1,20.12-9.707Zm8.693-5.093,3.869,22.174L69.19,72.5Zm-35.6,5.865.17-5.954c.108-3.658.222-7.257.3-9.27L66.4,72.658,48.585,90.824ZM37.808,59.625c-.07,2.2-.153,5.2-.267,9.326-3.073-2.985-9.626-9.347-12.56-12.195L37.94,55.005ZM23.132,57.752v0L35.712,69.964,18,68.132c.134-.272.288-.583.45-.914ZM15.911,70.235,23.084,86.8,10.754,72.068Zm51.915,3.828L79.379,91.65,50.5,91.726ZM77.013,64.6l9.45,4.383L81.084,87.929Zm-2.654-1.7-5.932,7.357L63.348,44.946l8.781,6.015ZM48.537,44.66l8.66-.468L42.79,51.143ZM13.209,90.539l-7.253-7.4v-.485l2.095-5.359,1.372-3.7,15.234,18.2-10.109.027Zm75.757-11.25L83.432,86.98l4.021-14.155Z"/><path d="M47.62,35.106a.946.946,0,0,0,.136.074c.027.016.049.038.077.051a.527.527,0,0,0,.051.019.99.99,0,0,0,.357.073h0a.99.99,0,0,0,.357-.073.46.46,0,0,0,.052-.019c.027-.013.049-.035.076-.05a1.062,1.062,0,0,0,.136-.075l8.69-6.905a1,1,0,0,0-1.244-1.567L49.242,32.25V3.179a1,1,0,0,0-2,0V32.25l-7.066-5.616A1,1,0,0,0,38.932,28.2Z"/></svg>