<svg xmlns="http://www.w3.org/2000/svg" viewBox="0 0 96 96"><g opacity="0"><rect width="96" height="96" fill="#fff"/></g><polygon points="43 26 34 18 11 18 11 45 11 53 11 65 11 75 11 81 88 81 88 26 43 26" class="sgmaincolor"/><path d="M88,25.1H43.044l-8.078-7.819a1,1,0,0,0-.7-.281H11.32a1,1,0,0,0-1,1V81.24a1,1,0,0,0,1,1H88a1,1,0,0,0,1-1V26.1A1,1,0,0,0,88,25.1ZM87,80.24H12.32V19H33.866l8.078,7.818a1,1,0,0,0,.7.282H87Z"/><path d="M49.5,61.511v4.776a1,1,0,0,0,2,0V61.511a4.057,4.057,0,0,0,0-7.872V42.713a1,1,0,1,0-2,0V53.639a4.057,4.057,0,0,0,0,7.872Zm1-6.011a2.075,2.075,0,1,1-2.075,2.075A2.078,2.078,0,0,1,50.5,55.5Z"/><path d="M40.787,55.361V66.287a1,1,0,0,0,2,0V55.361a4.057,4.057,0,0,0,0-7.872V42.713a1,1,0,0,0-2,0v4.776a4.057,4.057,0,0,0,0,7.872Zm1-6.011a2.075,2.075,0,1,1-2.074,2.075A2.076,2.076,0,0,1,41.787,49.35Z"/><path d="M58.213,55.361V66.287a1,1,0,0,0,2,0V55.361a4.057,4.057,0,0,0,0-7.872V42.713a1,1,0,0,0-2,0v4.776a4.057,4.057,0,0,0,0,7.872Zm1-6.011a2.075,2.075,0,1,1-2.075,2.075A2.077,2.077,0,0,1,59.213,49.35Z"/><path d="M29,54.5A21.5,21.5,0,1,0,50.5,33,21.524,21.524,0,0,0,29,54.5ZM50.5,35A19.5,19.5,0,1,1,31,54.5,19.523,19.523,0,0,1,50.5,35Z"/></svg>