<svg xmlns="http://www.w3.org/2000/svg" viewBox="0 0 111 103"><path d="M85.12,112.7a27.42,27.42,0,1,1,27.42-27.42A27.45,27.45,0,0,1,85.12,112.7Zm0-51.84a24.42,24.42,0,1,0,24.42,24.42A24.45,24.45,0,0,0,85.12,60.86Z" transform="translate(-1.54 -9.7)"/><path d="M25,53.5H17a3.5,3.5,0,0,1-3.5-3.5V44.4A3.5,3.5,0,0,1,17,40.9h8a3.5,3.5,0,0,1,3.5,3.5V50A3.5,3.5,0,0,1,25,53.5Zm-8-9.6a.51.51,0,0,0-.5.5V50a.51.51,0,0,0,.5.5h8a.5.5,0,0,0,.5-.5V44.4a.5.5,0,0,0-.5-.5Z" transform="translate(-1.54 -9.7)"/><path d="M49,53.5H41a3.5,3.5,0,0,1-3.5-3.5V44.4A3.5,3.5,0,0,1,41,40.9h8a3.5,3.5,0,0,1,3.5,3.5V50A3.5,3.5,0,0,1,49,53.5Zm-8-9.6a.51.51,0,0,0-.5.5V50a.51.51,0,0,0,.5.5h8a.5.5,0,0,0,.5-.5V44.4a.5.5,0,0,0-.5-.5Z" transform="translate(-1.54 -9.7)"/><path d="M73,53.5H65a3.5,3.5,0,0,1-3.5-3.5V44.4A3.5,3.5,0,0,1,65,40.9h8a3.5,3.5,0,0,1,3.5,3.5V50A3.5,3.5,0,0,1,73,53.5Zm-8-9.6a.51.51,0,0,0-.5.5V50a.51.51,0,0,0,.5.5h8a.5.5,0,0,0,.5-.5V44.4a.5.5,0,0,0-.5-.5Z" transform="translate(-1.54 -9.7)"/><path d="M25,71.5H17a3.5,3.5,0,0,1-3.5-3.5V62.4A3.5,3.5,0,0,1,17,58.9h8a3.5,3.5,0,0,1,3.5,3.5V68A3.5,3.5,0,0,1,25,71.5Zm-8-9.6a.51.51,0,0,0-.5.5V68a.51.51,0,0,0,.5.5h8a.5.5,0,0,0,.5-.5V62.4a.5.5,0,0,0-.5-.5Z" transform="translate(-1.54 -9.7)"/><path d="M49,71.5H41a3.5,3.5,0,0,1-3.5-3.5V62.4A3.5,3.5,0,0,1,41,58.9h8a3.5,3.5,0,0,1,3.5,3.5V68A3.5,3.5,0,0,1,49,71.5Zm-8-9.6a.51.51,0,0,0-.5.5V68a.51.51,0,0,0,.5.5h8a.5.5,0,0,0,.5-.5V62.4a.5.5,0,0,0-.5-.5Z" transform="translate(-1.54 -9.7)"/><path d="M80.1,18.91H66.25a1.44,1.44,0,0,0,.09-.51V11.2a1.5,1.5,0,0,0-3,0v7.2a1.45,1.45,0,0,0,.1.51H29.05a1.44,1.44,0,0,0,.09-.51V11.2a1.5,1.5,0,0,0-3,0v7.2a1.45,1.45,0,0,0,.1.51H9.79a8.06,8.06,0,0,0-8.25,7.83V75.28a8.06,8.06,0,0,0,8.25,7.83H52.92a1.5,1.5,0,0,0,0-3H9.79a5.06,5.06,0,0,1-5.25-4.83V33.1H85.35V52.68a1.5,1.5,0,1,0,3,0V26.74A8.06,8.06,0,0,0,80.1,18.91ZM4.54,30.1V26.74a5.06,5.06,0,0,1,5.25-4.83H80.1a5.05,5.05,0,0,1,5.25,4.83V30.1Z" transform="translate(-1.54 -9.7)"/><path d="M98.18,96.43,86.62,87.19V68.8a1.5,1.5,0,0,0-3,0V88a1.5,1.5,0,0,0,1,1.4l11.72,9.37a1.43,1.43,0,0,0,.93.33,1.5,1.5,0,0,0,.94-2.67Z" transform="translate(-1.54 -9.7)"/></svg>
