<svg xmlns="http://www.w3.org/2000/svg" viewBox="0 0 58.017 58"><path d="M32,4A29,29,0,0,0,6.58,47a3.492,3.492,0,0,0-.91,2.34,3.57,3.57,0,0,0,3.56,3.55,3.43,3.43,0,0,0,1.39-.29A29,29,0,1,0,32,4ZM59,32H54.52A22.44,22.44,0,0,0,46.7,15.9a3.54,3.54,0,0,0-5.88-3.67A22.507,22.507,0,0,0,33,10.43V6A27.051,27.051,0,0,1,59,32ZM19.68,22a16.328,16.328,0,0,0-4.14,10H11.45a20.342,20.342,0,0,1,5.34-12.85ZM15.54,34A16.471,16.471,0,0,0,31,49.41V53.5A20.571,20.571,0,0,1,11.45,34ZM33,49.41a16.31,16.31,0,0,0,10.08-4.25,3.47,3.47,0,0,0,1.44.31,3.54,3.54,0,0,0,2.59-6A16.012,16.012,0,0,0,48.4,34h4.1A20.58,20.58,0,0,1,33,53.5Zm13-7.49a1.55,1.55,0,1,1-1.55-1.55h0A1.539,1.539,0,0,1,46,41.9ZM44.12,32a1,1,0,0,0,0,2H46.4a14.265,14.265,0,0,1-1,4.51,3.471,3.471,0,0,0-.86-.12,3.55,3.55,0,0,0-3.55,3.55,3.487,3.487,0,0,0,.58,1.93A14.314,14.314,0,0,1,33,47.41V45.12a1,1,0,0,0-2,0v2.29A14.471,14.471,0,0,1,17.54,34h2.29a1,1,0,0,0,0-2H17.54a14.3,14.3,0,0,1,3.55-8.54L23,25.38a1,1,0,0,0,1.414.006l.006-.006a1,1,0,0,0,.006-1.414l-.006-.006L13.63,13.15A27,27,0,0,1,31,6V20.83a1,1,0,0,0,2,0v-8.4A20.374,20.374,0,0,1,39.9,14a3.68,3.68,0,0,0-.07.67A3.53,3.53,0,0,0,45.5,17.5a20.422,20.422,0,0,1,7,14.49Zm-.74-15.77a1.55,1.55,0,1,1,1.55-1.55h0a1.55,1.55,0,0,1-1.55,1.53ZM12.21,14.56l3.16,3.16A22.326,22.326,0,0,0,9.45,32H5A26.9,26.9,0,0,1,12.21,14.56ZM7.67,49.36a1.56,1.56,0,1,1,1.57,1.55H9.23a1.551,1.551,0,0,1-1.56-1.54Zm4.49,2a3.5,3.5,0,0,0,.62-2,3.56,3.56,0,0,0-3.55-3.55,3.8,3.8,0,0,0-1,.14A26.927,26.927,0,0,1,5,34H9.42A22.61,22.61,0,0,0,31,55.53V60a27.049,27.049,0,0,1-18.84-8.65ZM33,60V55.53A22.61,22.61,0,0,0,54.52,34H59A27,27,0,0,1,33,60Z" transform="translate(-2.977 -4)"></path><path d="M32,26.3a1,1,0,0,0-1,1v3.34a1,1,0,0,0,2,0V27.3A1,1,0,0,0,32,26.3Z" transform="translate(-2.977 -4)"></path><path d="M32,34a1,1,0,0,0-1,1v3.34a1,1,0,0,0,2,0V35A1,1,0,0,0,32,34Z" transform="translate(-2.977 -4)"></path><path d="M37.48,31.81H34.14a1,1,0,0,0,0,2h3.34a1,1,0,0,0,0-2Z" transform="translate(-2.977 -4)"></path><path d="M29.8,31.81H26.46a1,1,0,0,0,0,2H29.8a1,1,0,0,0,0-2Z" transform="translate(-2.977 -4)"></path></svg>