<svg xmlns="http://www.w3.org/2000/svg" viewBox="0 0 96 96"><g opacity="0"><rect width="96" height="96" fill="#fff"/></g><ellipse cx="41.027" cy="83.636" rx="36.097" ry="9.201" class="sgmaincolor"/><path d="M41.027,93.837c-17.984,0-37.1-3.575-37.1-10.2s19.113-10.2,37.1-10.2,37.1,3.575,37.1,10.2S59.01,93.837,41.027,93.837Zm0-18.4c-20.683,0-35.1,4.322-35.1,8.2s14.414,8.2,35.1,8.2,35.1-4.322,35.1-8.2S61.709,75.435,41.027,75.435Z"/><path d="M47.837,14.764H34.216L20.6,28.779V42.794L40.322,83.145,61.458,42.794V28.779Zm-4.13,26.615a6.331,6.331,0,0,1-3.786.7,5.908,5.908,0,0,1-1.277-.332,6.009,6.009,0,0,1-1.4-.59l-1.2-.928a5.938,5.938,0,0,1,0-8.4,5.91,5.91,0,0,1,4.2-1.739l.26.032c.079-.006.154-.028.235-.032a6.033,6.033,0,0,1,4.2,1.739,6.111,6.111,0,0,1,1.739,4.2C46.66,38.066,45.656,40.455,43.707,41.379Z" class="sgmaincolor"/><path d="M40.322,84.145h-.014a1,1,0,0,1-.885-.562L19.7,43.232a.993.993,0,0,1-.1-.439V28.779a1,1,0,0,1,.283-.7L33.5,14.067a1,1,0,0,1,.716-.3H47.837a1,1,0,0,1,.717.3L62.175,28.082a1,1,0,0,1,.283.7V42.793a1,1,0,0,1-.114.464L41.208,83.608A1,1,0,0,1,40.322,84.145ZM21.6,42.562,40.353,80.931l20.1-38.384V29.185L47.415,15.764H34.639L21.6,29.185Zm19.148.578a7.088,7.088,0,0,1-.955-.066,6.881,6.881,0,0,1-1.491-.385,6.666,6.666,0,0,1-1.553-.663,1.165,1.165,0,0,1-.11-.073l-1.2-.929a6.965,6.965,0,0,1-2.127-4.945,7.046,7.046,0,0,1,2.031-4.95,6.913,6.913,0,0,1,5.029-2.024l.126.015a1.654,1.654,0,0,1,.2-.022,7.033,7.033,0,0,1,4.948,2.031,7.126,7.126,0,0,1,2.032,4.912c-.015,2.279-1.115,5.093-3.539,6.241h0A7.722,7.722,0,0,1,40.743,43.14Zm2.965-1.762h0ZM37.8,40.327a5,5,0,0,0,1.112.461,5.445,5.445,0,0,0,1.142.3,5.291,5.291,0,0,0,3.225-.617h0c1.63-.772,2.384-2.847,2.394-4.448A4.939,4.939,0,0,0,40.782,31.1a1.548,1.548,0,0,1-.2.03,1.02,1.02,0,0,1-.2,0L40.2,31.1a4.918,4.918,0,0,0-3.453,1.443,4.937,4.937,0,0,0-.031,6.953Z"/></svg>