<svg id="b39c59a2-ea70-4d0b-a82f-350bfd213829" data-name="Icons" xmlns="http://www.w3.org/2000/svg" viewBox="0 0 96 96"><rect width="96" height="96" fill="#fff" opacity="0"/><polyline points="8 23 22 10 74 10 88 23 88 87 8 87 8 23" class="sgmaincolor"/><circle cx="75" cy="31" r="3"/><circle cx="75" cy="47" r="3"/><path d="M20,35a1,1,0,0,1-1-1V28a1,1,0,0,1,2,0v6A1,1,0,0,1,20,35Z"/><path d="M31,35a1,1,0,0,1-1-1V28a1,1,0,0,1,2,0v6A1,1,0,0,1,31,35Z"/><path d="M42,35a1,1,0,0,1-1-1V28a1,1,0,0,1,2,0v6A1,1,0,0,1,42,35Z"/><path d="M20,51a1,1,0,0,1-1-1V44a1,1,0,0,1,2,0v6A1,1,0,0,1,20,51Z"/><path d="M31,51a1,1,0,0,1-1-1V44a1,1,0,0,1,2,0v6A1,1,0,0,1,31,51Z"/><path d="M42,51a1,1,0,0,1-1-1V44a1,1,0,0,1,2,0v6A1,1,0,0,1,42,51Z"/><circle cx="75" cy="63" r="3"/><path d="M20,67a1,1,0,0,1-1-1V60a1,1,0,0,1,2,0v6A1,1,0,0,1,20,67Z"/><path d="M31,67a1,1,0,0,1-1-1V60a1,1,0,0,1,2,0v6A1,1,0,0,1,31,67Z"/><path d="M42,67a1,1,0,0,1-1-1V60a1,1,0,0,1,2,0v6A1,1,0,0,1,42,67Z"/><circle cx="75" cy="79" r="3"/><path d="M20,83a1,1,0,0,1-1-1V76a1,1,0,0,1,2,0v6A1,1,0,0,1,20,83Z"/><path d="M31,83a1,1,0,0,1-1-1V76a1,1,0,0,1,2,0v6A1,1,0,0,1,31,83Z"/><path d="M42,83a1,1,0,0,1-1-1V76a1,1,0,0,1,2,0v6A1,1,0,0,1,42,83Z"/><path d="M88.918,22.605c-.012-.027-.035-.046-.049-.072a1.035,1.035,0,0,0-.177-.251s-.007-.011-.011-.015l-14-13A1,1,0,0,0,74,9H22a1,1,0,0,0-.681.267l-14,13s-.006.011-.011.015a1.035,1.035,0,0,0-.177.251c-.014.026-.037.045-.049.072A1,1,0,0,0,7,23V87a1,1,0,0,0,1,1H88a1,1,0,0,0,1-1V23A1,1,0,0,0,88.918,22.605ZM87,24V38H9V24Zm0,16V54H9V40ZM9,56H87V70H9ZM22.393,11H73.607L85.453,22H10.547ZM9,86V72H87V86Z"/></svg>