<svg xmlns="http://www.w3.org/2000/svg" viewBox="0 0 96 96"><path d="M65.018,25a19,19,0,1,1-36.036,0H15V67H81V25Z" class="sgmaincolor"/><path d="M60,75H36a1,1,0,0,0,0,2H60a1,1,0,0,0,0-2Z"/><path d="M95.822,71.43A1,1,0,0,0,95,71H89V26a1,1,0,0,0-.231-.641l-5-6A1,1,0,0,0,83,19H62.962a19.924,19.924,0,0,0-31.924,0H14a1,1,0,0,0-.707.293l-6,6A1,1,0,0,0,7,26V71H1a1,1,0,0,0-.937,1.351l3,8A1,1,0,0,0,4,81H92a1,1,0,0,0,.937-.649l3-8A1,1,0,0,0,95.822,71.43ZM47,13A18,18,0,1,1,29,31,18.021,18.021,0,0,1,47,13Zm0,38A19.922,19.922,0,0,0,66.342,26H80V66H16V26H27.658A19.922,19.922,0,0,0,47,51ZM9,26.414,14.414,21H29.706a19.928,19.928,0,0,0-1.417,3H15a1,1,0,0,0-1,1V67a1,1,0,0,0,1,1H81a1,1,0,0,0,1-1V25a1,1,0,0,0-1-1H65.711a19.928,19.928,0,0,0-1.417-3H82.531L87,26.362V71H9ZM91.307,79H4.693l-2.25-6H93.557Z"/><path d="M42.512,39.873a1,1,0,0,0,1.012-.022l13-8a1,1,0,0,0,0-1.7l-13-8A1,1,0,0,0,42,23V39A1,1,0,0,0,42.512,39.873ZM44,24.79,54.092,31,44,37.21Z"/></svg>