<svg xmlns="http://www.w3.org/2000/svg" viewBox="0 0 96 96"><g opacity="0"><rect width="96" height="96" fill="#fff"/></g><path d="M56.777,7.142a11.622,11.622,0,0,0-17.7.291L12.966,15.12l6.2,39.822L48.559,92.723,77.933,54.942,82.984,15.12Z" class="sgmaincolor"/><path d="M83.942,15.135a1.092,1.092,0,0,0-.008-.114.99.99,0,0,0-.149-.329c0-.007,0-.016-.01-.023-.021-.029-.052-.043-.075-.069a.983.983,0,0,0-.18-.167,1.039,1.039,0,0,0-.141-.072.907.907,0,0,0-.124-.064L57.342,6.365a12.556,12.556,0,0,0-18.8.293L12.75,14.294a.921.921,0,0,0-.143.074.945.945,0,0,0-.149.075,1.008,1.008,0,0,0-.193.193c-.019.024-.045.037-.063.063l0,.01a1.021,1.021,0,0,0-.142.346,1.045,1.045,0,0,0,0,.137,1.025,1.025,0,0,0-.006.215l6.191,39.987V55.4c0,.007,0,.014.007.022a1.01,1.01,0,0,0,.12.313c.007.013.007.028.015.041s.02.022.029.034.015.03.025.043L47.79,93.79c.012.015.032.021.044.035a.976.976,0,0,0,.231.188,1.1,1.1,0,0,0,.1.068.947.947,0,0,0,.833,0,.885.885,0,0,0,.1-.066.979.979,0,0,0,.234-.191c.012-.014.031-.02.042-.034L78.709,55.852c.009-.012.014-.026.023-.038s.022-.024.031-.038a.468.468,0,0,0,.018-.048,1,1,0,0,0,.108-.28c0-.02.013-.039.016-.06s0-.015.006-.022l5.039-39.95v0l0-.034A.938.938,0,0,0,83.942,15.135Zm-3.2.485L68.389,24.5a.988.988,0,0,0-.591-.215H61.276V16.423a14.79,14.79,0,0,0-1.949-7.359ZM30.367,57.236l.016-30.945,36.415,0V57.236Zm9.765-32.945V16.423c0-4.758,3.563-8.63,7.941-8.63s7.94,3.872,7.94,8.63v7.866Zm-3.263-7.868c0-6.7,5.026-12.145,11.2-12.145s11.2,5.448,11.2,12.145v7.866H58.013V16.423c0-5.861-4.459-10.63-9.94-10.63s-9.941,4.769-9.941,10.63v7.866H36.869Zm-.181-7.13a14.806,14.806,0,0,0-1.819,7.13v7.868H29.384a.983.983,0,0,0-.634.244L15.366,15.606ZM14.371,17.347l14.012,9.347-.012,21.574L19.98,53.579Zm14,33.289,0,7.6a1,1,0,0,0,1,1H47.581V90.25L20.689,55.5ZM49.581,90.249V59.236H67.8a1,1,0,0,0,1-1V50.644L76.456,55.5Zm27.542-36.7L68.8,48.276v-21.6l12.885-9.266Z"/><path d="M47.875,52.782a11.043,11.043,0,0,1-7.854-3.256,11.242,11.242,0,0,1,7.807-19.194h.046a11.042,11.042,0,0,1,7.855,3.257,11.241,11.241,0,0,1-7.807,19.193Zm0-20.45h-.039a9.242,9.242,0,0,0-6.4,15.779,9.058,9.058,0,0,0,6.44,2.671h.04a9.2,9.2,0,0,0,9.11-9.264h0A9.2,9.2,0,0,0,54.315,35,9.055,9.055,0,0,0,47.874,32.332Z"/><path d="M46.07,46.317c-.032,0-.064,0-.1-.005a1,1,0,0,1-.7-.395L42.463,42.18a1,1,0,1,1,1.6-1.2l2.149,2.862,7.529-6.8a1,1,0,0,1,1.34,1.485L46.74,46.059A1,1,0,0,1,46.07,46.317Z"/></svg>