<svg xmlns="http://www.w3.org/2000/svg" viewBox="0 0 96 96"><g opacity="0"><rect width="96.161" height="96.088" fill="#fff"/></g><circle cx="51.073" cy="43.073" r="41.927" class="sgmaincolor"/><path d="M51.073,86A42.927,42.927,0,1,1,94,43.072,42.975,42.975,0,0,1,51.073,86Zm0-83.854A40.927,40.927,0,1,0,92,43.072,40.973,40.973,0,0,0,51.073,2.146Z"/><path d="M41.663,93.783a1.037,1.037,0,0,1-.183-.016A51.562,51.562,0,0,1,3.155,62.711,1,1,0,0,1,5,61.943,49.557,49.557,0,0,0,41.845,91.8a1,1,0,0,1-.182,1.983Z"/><path d="M29.442,48.15a5.1,5.1,0,1,1,5.1-5.1A5.106,5.106,0,0,1,29.442,48.15Zm0-8.2a3.1,3.1,0,1,0,3.1,3.1A3.1,3.1,0,0,0,29.442,39.949Z"/><path d="M51.312,48.15a5.1,5.1,0,1,1,5.1-5.1A5.106,5.106,0,0,1,51.312,48.15Zm0-8.2a3.1,3.1,0,1,0,3.1,3.1A3.1,3.1,0,0,0,51.312,39.949Z"/><path d="M72.27,48.15a5.1,5.1,0,1,1,5.1-5.1A5.106,5.106,0,0,1,72.27,48.15Zm0-8.2a3.1,3.1,0,1,0,3.1,3.1A3.1,3.1,0,0,0,72.27,39.949Z"/></svg>