<svg xmlns="http://www.w3.org/2000/svg" viewBox="0 0 96 96"><g opacity="0"><rect width="96" height="96" fill="#fff"/></g><path d="M87.687,7.561H8.736L2.914,13.71V67.353l5.073,6.631H86.813l6.215-6.632V13.781ZM81.2,61.863H15.343V13.71H81.2Z" class="sgmaincolor"/><circle cx="21.05" cy="18.308" r="1.888"/><circle cx="26.715" cy="18.308" r="1.888"/><circle cx="32.38" cy="18.308" r="1.888"/><path d="M82.2,22.705V13.71a1,1,0,0,0-1-1H15.343a1,1,0,0,0-1,1V61.863a1,1,0,0,0,1,1H81.2a1,1,0,0,0,1-1V22.705Zm-2-7.995v6.995H16.343V14.71ZM16.343,60.863V23.705H80.2V60.863Z"/><path d="M93.841,67.905a.686.686,0,0,0,.169-.462c0-.031.018-.058.018-.089V13.78a1,1,0,0,0-.241-.651L88.445,6.91a1,1,0,0,0-.758-.348H8.736a1,1,0,0,0-.726.312L2.188,13.022a1,1,0,0,0-.274.688V67.354a.988.988,0,0,0,.072.356.912.912,0,0,0,.06.111.982.982,0,0,0,.074.14l5.073,6.631a1,1,0,0,0,.794.392l29.276-.012L34.211,87h-4.06a1,1,0,1,0,0,2H65.717a1,1,0,0,0,0-2h-4.1L58.545,74.965l28.268.019h0a1,1,0,0,0,.729-.316l6.19-6.605,0-.006.019-.02A1.133,1.133,0,0,0,93.841,67.905ZM9.167,8.562H87.228l4.8,5.588v52.2H3.914V14.108ZM36.275,87l3.053-12.029,17.153-.007L59.55,87ZM86.381,72.984l-29.625-.02h0l-48.273.02-3.543-4.63H90.72Z"/><path d="M59.559,37.51a12,12,0,0,0-19.023-3.517c.1-1.336.139-1.621.264-2.563a1,1,0,0,0-1.982-.264c-.188,1.409-.188,1.409-.455,5.136l-.008.128a1,1,0,0,0,.8,1.051l1.039.212a21.161,21.161,0,0,0,3.1.48l.937.1c.035,0,.07,0,.105,0a1,1,0,0,0,.1-1.994l-.941-.1a18.349,18.349,0,0,1-2.069-.279,10.108,10.108,0,1,1,4.725,16.712,1,1,0,0,0-.521,1.93A12.066,12.066,0,0,0,59.559,37.51Z"/></svg>