<svg xmlns="http://www.w3.org/2000/svg" viewBox="0 0 96 96"><g opacity="0"><rect width="96" height="96" fill="#fff"/></g><path d="M17.272,81.256l-.209-56.724L34.79,6.805,74,6.871V81.256Z" class="sgmaincolor"/><polygon points="53.192 92.195 81.909 92.195 89.088 82.144 89.088 59.889 86.217 57.017 80.473 57.017 80.473 64.914 80.473 57.017 77.602 54.145 71.858 54.145 71.858 61.324 71.858 54.145 68.987 51.274 63.243 51.274 63.243 62.042 63.243 35.479 60.372 32.608 57.5 32.608 54.628 35.479 54.628 74.965 54.628 74.965 54.628 62.042 51.757 59.171 48.885 59.171 46.013 62.042 46.013 85.016 53.192 92.195" class="sgmaincolor"/><path d="M89.8,59.182,86.923,56.31a1,1,0,0,0-.707-.293H80.887l-2.578-2.579a1,1,0,0,0-.707-.292H75V6.871a1,1,0,0,0-1-1H24.582a1,1,0,0,0-.726.313L6.8,24.2a1,1,0,0,0-.273.688V81.256a1,1,0,0,0,1,1h9.649c.018,0,.033-.009.051-.01s.032.01.05.01H45.013v2.76a1,1,0,0,0,.293.707l7.18,7.179a1,1,0,0,0,.707.293H81.91a1,1,0,0,0,.813-.419L89.9,82.725a1,1,0,0,0,.186-.581V59.889A1,1,0,0,0,89.8,59.182ZM8.522,25.289,25.013,7.871h7L16.545,24.2a1,1,0,0,0-.273.688V80.256H8.522Zm9.75,54.967V25.289L34.763,7.871H73V53.146h-.724l-2.578-2.58a1,1,0,0,0-.707-.293H64.243V35.479a1,1,0,0,0-.292-.707L61.078,31.9a1,1,0,0,0-.707-.293H57.5a1,1,0,0,0-.707.293l-2.872,2.872a1,1,0,0,0-.293.707V59.628l-1.165-1.164a1,1,0,0,0-.707-.293H48.885a1,1,0,0,0-.707.293l-2.872,2.871a1,1,0,0,0-.293.707V80.256Zm69.816,1.567L81.4,91.2H53.607L47.013,84.6V62.456L49.3,60.171h2.043l2.286,2.285V74.965a1,1,0,0,0,2,0V35.894l2.286-2.287h2.043l2.286,2.287V62.042a1,1,0,0,0,2,0V52.273h4.33l2.285,2.287v6.764a1,1,0,1,0,2,0V55.146h4.33l2.285,2.285v7.483a1,1,0,0,0,2,0v-6.9H85.8L88.088,60.3Z"/></svg>