<svg xmlns="http://www.w3.org/2000/svg" viewBox="0 0 96 96"><g opacity="0"><rect width="96" height="96" fill="#fff"/></g><polygon points="77.164 6.444 70.448 13.105 10.917 13.077 11 84.912 83 84.912 82.917 28.059 90.917 20.077 77.164 6.444" class="sgmaincolor"/><path d="M91.917,20.075a1,1,0,0,0-.3-.708L77.868,5.734a1,1,0,0,0-1.41,0l-5.576,5.558-.838.81-59.127-.027a1,1,0,0,0-1,1L10,84.913a1,1,0,0,0,1,1H83a1,1,0,0,0,1-1L83.918,28.49l7.706-7.706A.992.992,0,0,0,91.917,20.075Zm-9.652,7.24a.817.817,0,0,0-.093.093L58.361,51.218,43.919,53.28l1.959-14.247L71.85,13.152,84.2,25.379ZM82,83.912H12l-.081-69.835,56.144.026L44.228,37.854a1,1,0,0,0-.284.573l-2.186,15.9a1,1,0,0,0,.99,1.136.978.978,0,0,0,.142-.01l16.084-2.3a1,1,0,0,0,.565-.283l22.382-22.38Zm3.616-59.947L73.267,11.74l3.9-3.886L89.5,20.08Z"/></svg>