<svg xmlns="http://www.w3.org/2000/svg" viewBox="0 0 96 96"><g opacity="0"><rect width="96" height="96" fill="#fff"/></g><polygon points="69.819 88.965 34.61 89.018 20.494 55.82 55.093 16.328 88.439 54.341 74.302 80.618 69.819 88.965" class="sgmaincolor"/><path d="M93.526,89.032l0-.014a330.977,330.977,0,0,1-.07-.348.991.991,0,0,0-.095-.155.938.938,0,0,0-.1-.15.921.921,0,0,0-.175-.127.883.883,0,0,0-.111-.082l-9.744-4.478,6.134-29.141a.451.451,0,0,0,0-.052c0-.022.013-.043.015-.065a.933.933,0,0,0-.013-.139.885.885,0,0,0-.016-.164c0-.019,0-.039-.011-.057a.85.85,0,0,0-.058-.112.87.87,0,0,0-.083-.157.528.528,0,0,0-.037-.055s0-.011-.008-.015L55.986,15.377a.626.626,0,0,0-.051-.039c-.016-.017-.024-.039-.042-.055s-.012,0-.017-.01-.032-.022-.047-.033a.928.928,0,0,0-.095-.058.974.974,0,0,0-.113-.054c-.026-.01-.049-.026-.075-.034-.007,0-.012-.007-.018-.009a.283.283,0,0,0-.029,0,.883.883,0,0,0-.1-.016.9.9,0,0,0-.127-.007c-.031,0-.06,0-.091,0l-.056.008c-.012,0-.024,0-.036,0s-.032.016-.05.021a.807.807,0,0,0-.117.04.94.94,0,0,0-.088.034c-.019.01-.035.022-.054.034a.769.769,0,0,0-.08.057c-.015.012-.034.015-.049.027s-.025.038-.041.054-.037.023-.052.04L28.511,45.2,21.119,32.724,18.228,20.442c-.005-.024-.022-.041-.029-.064a.932.932,0,0,0-.083-.178.7.7,0,0,0-.232-.271.7.7,0,0,0-.31-.162.865.865,0,0,0-.183-.04c-.024,0-.045-.015-.069-.016a1.052,1.052,0,0,0-.112.021.847.847,0,0,0-.123,0c-.026.006-.046.025-.071.033a.958.958,0,0,0-.149.068,1.018,1.018,0,0,0-.174.113.962.962,0,0,0-.1.11.911.911,0,0,0-.118.166.924.924,0,0,0-.059.154.913.913,0,0,0-.043.193c0,.024-.015.045-.016.07l-.217,12.188-12.88,2.24c-.015,0-.026.012-.041.015a.946.946,0,0,0-.2.078.9.9,0,0,0-.139.07.928.928,0,0,0-.128.123.938.938,0,0,0-.127.148c-.009.014-.022.021-.03.035a.925.925,0,0,0-.038.116.969.969,0,0,0-.062.191.9.9,0,0,0,0,.194.767.767,0,0,0,0,.127c0,.017.013.031.017.048a.9.9,0,0,0,.051.14.95.95,0,0,0,.091.18,1.135,1.135,0,0,0,.254.247c.021.015.034.036.056.049l11.236,6.321a1.024,1.024,0,0,0-.022.133,2.47,2.47,0,0,0,.063.362c0,.013,0,.027.008.039L19.623,56.2l0,0,14.11,33.186,0,.009c.008.017.021.03.029.047a1.067,1.067,0,0,0,.057.091.91.91,0,0,0,.1.132c.019.02.04.036.061.055s.043.039.067.057a.824.824,0,0,0,.143.084.882.882,0,0,0,.088.041c.023.008.043.022.067.028l0,0a.991.991,0,0,0,.24.033l.019,0H92.579a.947.947,0,0,0,.329-.067.745.745,0,0,0,.086-.038.983.983,0,0,0,.209-.141.76.76,0,0,0,.061-.052.948.948,0,0,0,.178-.255l0-.013a.951.951,0,0,0,.045-.193A.917.917,0,0,0,93.526,89.032ZM53.208,19.8,34.429,86.171,21.6,56Zm16.9,66.447L56.893,19.324l30.4,35.142Zm-15-66.184L68.531,88.069H35.863ZM74.655,81.824l13.589,6.245H71.277Zm.9-1.672L86.165,60.541l-4.7,22.325ZM20.771,54.062l-4.613-10.72,4.141-8.28L27.2,46.7ZM18.539,34.339,15,41.427,6.206,36.484Zm-.421-6.082.956,4.063-1.032.18Z"/></svg>