<svg xmlns="http://www.w3.org/2000/svg" viewBox="0 0 64 64"><path d="M59.58,0H5.46a1,1,0,0,0-1,1V62.25a1,1,0,0,0,1,1h9.05a1,1,0,0,0,.71-.29l6.37-6.37a.93.93,0,0,0,.24-.46H43.2a1,1,0,0,0,.25.46L49.82,63a1,1,0,0,0,.7.29h9.06a1,1,0,0,0,1-1V1A1,1,0,0,0,59.58,0ZM6.46,2H58.58V54.13H6.46ZM14.1,61.25H6.46V56.13H19.22Zm36.84,0-5.13-5.12H58.58v5.12Z"></path><path d="M51.5,8H13.38a1,1,0,0,0-1,1v5H9.85A1.08,1.08,0,0,0,8.77,15v9a1.08,1.08,0,0,0,1.08,1.08h2.53v5.83H9.85A1.08,1.08,0,0,0,8.76,32v9a1.08,1.08,0,0,0,1.09,1.08h2.53v5a1,1,0,0,0,1,1H51.5a1,1,0,0,0,1-1V9A1,1,0,0,0,51.5,8ZM10.92,22.93V16.12h1.46v6.81Zm3.46-6.81h1.47v6.81H14.38ZM10.93,40V33.08h1.45V40Zm3.45-6.87h1.47V40H14.38ZM50.5,46.13H14.38v-4h2.55A1.08,1.08,0,0,0,18,41V32a1.08,1.08,0,0,0-1.08-1.08H14.38V25.09h2.55A1.09,1.09,0,0,0,18,24V15A1.09,1.09,0,0,0,16.93,14H14.38V10H50.5Z"></path><path d="M32.79,40.6a12.13,12.13,0,0,0,8.37-3.35,1,1,0,0,0,.43-.24.9.9,0,0,0,.24-.45,12.12,12.12,0,0,0,0-16.31,1,1,0,0,0-.27-.58,1,1,0,0,0-.57-.26,12.15,12.15,0,0,0-16.73.24l0,0a0,0,0,0,0,0,0l-.1.08A12.21,12.21,0,0,0,32.79,40.6Zm-6.42-4.29,3.74-3.74a4.91,4.91,0,0,0,5.52-.1l3.73,3.72a10.15,10.15,0,0,1-13,.12Zm9.4-7.92a3,3,0,0,1-3,3,2.94,2.94,0,0,1-1.89-.69.88.88,0,0,0-.12-.19.83.83,0,0,0-.23-.15,3,3,0,1,1,5.22-1.95Zm5,6.37L37,31a4.89,4.89,0,0,0,0-5.3L40.71,22a10.14,10.14,0,0,1,0,12.79ZM39.3,20.54l-3.72,3.73a5,5,0,0,0-2.79-.86,4.9,4.9,0,0,0-2.62.77l-3.75-3.75a10.18,10.18,0,0,1,12.88.11ZM25,21.83l3.72,3.72a4.94,4.94,0,0,0,0,5.63l-3.73,3.73a10.19,10.19,0,0,1,0-13.08Z"></path></svg>