<svg xmlns="http://www.w3.org/2000/svg" width="40" height="40" viewBox="0 0 20 20"><path d="M11.157,13.969a1.032,1.032,0,1,1-1.031-1.032A1.032,1.032,0,0,1,11.157,13.969Zm1-8a2.409,2.409,0,0,1,.55,1.855A3.779,3.779,0,0,1,11.34,9.863a2.017,2.017,0,0,0-.934,1.647h-1A2.972,2.972,0,0,1,10.67,9.12a2.87,2.87,0,0,0,1.066-1.529,1.5,1.5,0,0,0-.36-1A1.514,1.514,0,0,0,10.128,6,1.667,1.667,0,0,0,8.255,7.609l-1-.027A2.668,2.668,0,0,1,10.128,5,2.54,2.54,0,0,1,12.161,5.965Z"/><path d="M10,1a9,9,0,1,1-9,9,9.01,9.01,0,0,1,9-9m0-1A10,10,0,1,0,20,10,10,10,0,0,0,10,0Z"/></svg>
