<svg xmlns="http://www.w3.org/2000/svg" viewBox="0 0 17.7 17.7"><path d="M13,3a2,2,0,1,0,2,2A2,2,0,0,0,13,3Zm0,3a.9.9,0,0,1-1-1,1,1,0,0,1,2,0A.9.9,0,0,1,13,6Z" transform="translate(-0.3)" fill="#050505"/><path d="M18,0H16A12.1,12.1,0,0,0,7.5,3.5H2.6l-2.3,7H3.6L3,12l3,3,1.5-.6v3.3l7-2.3V10.5A12.1,12.1,0,0,0,18,2ZM1.7,9.5l1.7-5H6.7A10.8,10.8,0,0,0,4.9,7.4L4,9.5Zm6.8,6.8V13.9l2.1-.9a10.5,10.5,0,0,0,2.9-1.7v3.3ZM17,2a11.1,11.1,0,0,1-6.8,10.2l-4,1.7-2-2,1.7-4A10.8,10.8,0,0,1,16,1h1Z" transform="translate(-0.3)" fill="#050505"/></svg>