<svg xmlns="http://www.w3.org/2000/svg" id="el_abvh7c7eY" viewBox="0 0 51 13" height="18" width="54"><style>@-webkit-keyframes kf_el_ktEzD6uwI6_an_PeJQpFCS6{51.28%{opacity: 0;}76.92%{opacity: 1;}100%{opacity: 0;}0%{opacity: 0;}}@keyframes kf_el_ktEzD6uwI6_an_PeJQpFCS6{51.28%{opacity: 0;}76.92%{opacity: 1;}100%{opacity: 0;}0%{opacity: 0;}}@-webkit-keyframes kf_el_B9inW4rBdt_an_mSygld3m6{25.64%{opacity: 0;}51.28%{opacity: 1;}76.92%{opacity: 0;}0%{opacity: 0;}100%{opacity: 0;}}@keyframes kf_el_B9inW4rBdt_an_mSygld3m6{25.64%{opacity: 0;}51.28%{opacity: 1;}76.92%{opacity: 0;}0%{opacity: 0;}100%{opacity: 0;}}@-webkit-keyframes kf_el_DnmQkS8bxc_an_3bsDYocBe{0%{opacity: 0;}25.64%{opacity: 1;}51.28%{opacity: 0;}100%{opacity: 0;}}@keyframes kf_el_DnmQkS8bxc_an_3bsDYocBe{0%{opacity: 0;}25.64%{opacity: 1;}51.28%{opacity: 0;}100%{opacity: 0;}}#el_abvh7c7eY *{-webkit-animation-duration: 1.3s;animation-duration: 1.3s;-webkit-animation-iteration-count: infinite;animation-iteration-count: infinite;-webkit-animation-timing-function: cubic-bezier(0, 0, 1, 1);animation-timing-function: cubic-bezier(0, 0, 1, 1);}#el_BTF2F2dsmI{fill: #e4f5fa;}#el_9h9vunop1R{-webkit-transform: translate(-74.5px, -93.5px);transform: translate(-74.5px, -93.5px);fill: #226d7a;}#el_GgHn-qhvDZ{fill: #e4f5fa;}#el_oSYtH4Orb7{-webkit-transform: translate(-74.5px, -93.5px);transform: translate(-74.5px, -93.5px);fill: #226d7a;}#el_0xMFvM8I9X{fill: #e4f5fa;}#el_QhoJ6YwS-a{-webkit-transform: translate(-74.5px, -93.5px);transform: translate(-74.5px, -93.5px);fill: #226d7a;}#el_DnmQkS8bxc{-webkit-animation-fill-mode: backwards;animation-fill-mode: backwards;opacity: 0;-webkit-animation-name: kf_el_DnmQkS8bxc_an_3bsDYocBe;animation-name: kf_el_DnmQkS8bxc_an_3bsDYocBe;-webkit-animation-timing-function: cubic-bezier(0, 0, 1, 1);animation-timing-function: cubic-bezier(0, 0, 1, 1);}#el_B9inW4rBdt{-webkit-animation-fill-mode: backwards;animation-fill-mode: backwards;opacity: 0;-webkit-animation-name: kf_el_B9inW4rBdt_an_mSygld3m6;animation-name: kf_el_B9inW4rBdt_an_mSygld3m6;-webkit-animation-timing-function: cubic-bezier(0, 0, 1, 1);animation-timing-function: cubic-bezier(0, 0, 1, 1);}#el_ktEzD6uwI6{-webkit-animation-fill-mode: backwards;animation-fill-mode: backwards;opacity: 0;-webkit-animation-name: kf_el_ktEzD6uwI6_an_PeJQpFCS6;animation-name: kf_el_ktEzD6uwI6_an_PeJQpFCS6;-webkit-animation-timing-function: cubic-bezier(0, 0, 1, 1);animation-timing-function: cubic-bezier(0, 0, 1, 1);}</style><g id="el_DnmQkS8bxc" data-name="1"><rect x="0.5" y="0.5" width="12" height="12" id="el_BTF2F2dsmI"/><path d="M87,106.5H75a.5.5,0,0,1-.5-.5V94a.5.5,0,0,1,.5-.5H87a.5.5,0,0,1,.5.5v12A.5.5,0,0,1,87,106.5Zm-11.5-1h11v-11h-11Z" id="el_9h9vunop1R"/></g><g id="el_B9inW4rBdt" data-name="2"><rect x="19.5" y="0.5" width="12" height="12" id="el_GgHn-qhvDZ"/><path d="M106,106.5H94a.5.5,0,0,1-.5-.5V94a.5.5,0,0,1,.5-.5h12a.5.5,0,0,1,.5.5v12A.5.5,0,0,1,106,106.5Zm-11.5-1h11v-11h-11Z" id="el_oSYtH4Orb7"/></g><g id="el_ktEzD6uwI6"><rect x="38.5" y="0.5" width="12" height="12" id="el_0xMFvM8I9X"/><path d="M125,106.5H113a.5.5,0,0,1-.5-.5V94a.5.5,0,0,1,.5-.5h12a.5.5,0,0,1,.5.5v12A.5.5,0,0,1,125,106.5Zm-11.5-1h11v-11h-11Z" id="el_QhoJ6YwS-a"/></g></svg>