<svg xmlns="http://www.w3.org/2000/svg" viewBox="0 0 18 18"><path d="M9,1.1l3,1.7V6.1L9,7.8,6,6.2V2.8L9,1.1M9,0,5,2.2V6.7L9,9l4-2.2V2.2Z" fill="#050505"/><polygon points="7.5 5.5 6.5 5.5 6.5 3.2 8.5 2.1 9 2.9 7.5 3.8 7.5 5.5" fill="#050505"/><path d="M4,10.1l3,1.7v3.3L4,16.8,1,15.1V11.8l3-1.7M4,9,0,11.2v4.5L4,18l4-2.2V11.3Z" fill="#050505"/><polygon points="2.5 14.5 1.5 14.5 1.5 12.2 3.5 11.1 4 11.9 2.5 12.8 2.5 14.5" fill="#050505"/><path d="M14,10.1l3,1.7v3.3l-3,1.7-3-1.7V11.8l3-1.7M14,9l-4,2.2v4.5l4,2.2,4-2.2V11.2Z" fill="#050505"/><polygon points="12.5 14.5 11.5 14.5 11.5 12.2 13.5 11.1 14 11.9 12.5 12.8 12.5 14.5" fill="#050505"/></svg>