<svg xmlns="http://www.w3.org/2000/svg" viewBox="0 0 32 32"><path d="M16,12.4A3.6,3.6,0,1,1,12.4,16,3.6,3.6,0,0,1,16,12.4m0-1.8A5.3,5.3,0,1,0,21.3,16,5.3,5.3,0,0,0,16,10.7Z"/><path d="M17.8,1.8V5.4l1.3.4,2,.8,1.2.6.9-.9,1.7-1.7,2.5,2.5L25.7,8.8l-.9.9.6,1.2a10.6,10.6,0,0,1,.8,2l.4,1.3h3.6v3.6H26.6L26.2,19a10.6,10.6,0,0,1-.8,2l-.6,1.2.9.9,1.7,1.7-2.5,2.5-1.7-1.7-.9-.9-1.2.6-2,.8-1.3.4v3.6H14.2V26.6L13,26.2l-2-.8-1.2-.6-.9.9L7.1,27.4,4.6,24.9l1.7-1.7.9-.9-.6-1.2a10.6,10.6,0,0,1-.8-2l-.4-1.3H1.8V14.2H5.4L5.8,13a10.6,10.6,0,0,1,.8-2l.6-1.2-.9-.9L4.6,7.1,7.1,4.6,8.8,6.3l.9.9,1.2-.6,2-.8,1.3-.4V1.8h3.6M19.6,0H12.4V4.1l-2.4,1-3-3-5,5,3,3a12.4,12.4,0,0,0-1,2.4H0v7.1H4.1a12.4,12.4,0,0,0,1,2.4l-3,3,5,5,3-3,2.4,1V32h7.1V27.9l2.4-1,3,3,5-5-3-3a12.4,12.4,0,0,0,1-2.4H32V12.4H27.9a12.4,12.4,0,0,0-1-2.4l3-3-5-5-3,3-2.4-1V0Z"/></svg>