<svg xmlns="http://www.w3.org/2000/svg" viewBox="0 0 27 33"><path d="M26.96 8.41V5.8a.89.89 0 0 0-.25-.63.87.87 0 0 0-.64-.27c-5 0-8.74-1.48-11.9-4.64a.82.82 0 0 0-.63-.26.92.92 0 0 0-.63.26C9.75 3.42 5.97 4.9 1.01 4.9a.9.9 0 0 0-.9.9v2.6c-.16 8.8-.35 19.75 13.14 24.57h.61c13.46-4.81 13.26-15.77 13.1-24.56zM13.5 31.17C1.5 26.72 1.67 16.58 1.82 8.41V6.69A17.34 17.34 0 0 0 13.5 2.18a17.09 17.09 0 0 0 11.64 4.51v1.73c.19 8.16.36 18.3-11.64 22.75z"/><path d="M19.85 11.87a1.11 1.11 0 0 0-.79.31l-6.41 6.23-2.67-3a.84.84 0 0 0-.54-.22 1 1 0 0 0-.85.32 1.13 1.13 0 0 0-.31.86 1.09 1.09 0 0 0 .36.73l3.2 3.7a1.06 1.06 0 0 0 .79.33 1 1 0 0 0 .75-.32l7.2-7a1.11 1.11 0 0 0-.72-1.92z"/></svg>