<svg xmlns="http://www.w3.org/2000/svg" viewBox="0 0 300 240"><rect width="300" height="240" fill="#fff" opacity="0"/><polygon points="192.02 109.33 193.306 107.85 192.02 106.371 190.733 107.85 192.02 109.33" fill="#dcdcdc"/><polygon points="192.02 101.066 193.306 99.586 192.02 98.107 190.733 99.586 192.02 101.066" fill="#dcdcdc"/><polygon points="192.02 92.801 193.306 91.322 192.02 89.842 190.733 91.322 192.02 92.801" fill="#dcdcdc"/><polygon points="192.02 84.537 193.306 83.058 192.02 81.578 190.733 83.058 192.02 84.537" fill="#dcdcdc"/><polygon points="192.02 76.273 193.306 74.793 192.02 73.314 190.733 74.793 192.02 76.273" fill="#dcdcdc"/><polygon points="199.211 106.371 197.924 107.85 199.211 109.33 200.497 107.85 199.211 106.371" fill="#dcdcdc"/><polygon points="199.211 98.107 197.924 99.586 199.211 101.066 200.497 99.586 199.211 98.107" fill="#dcdcdc"/><polygon points="199.211 89.842 197.924 91.322 199.211 92.801 200.497 91.322 199.211 89.842" fill="#dcdcdc"/><polygon points="199.211 81.578 197.924 83.058 199.211 84.537 200.497 83.058 199.211 81.578" fill="#dcdcdc"/><polygon points="199.211 73.314 197.924 74.793 199.211 76.273 200.497 74.793 199.211 73.314" fill="#dcdcdc"/><polygon points="206.402 106.371 205.115 107.85 206.402 109.33 207.691 107.85 206.402 106.371" fill="#dcdcdc"/><polygon points="206.402 98.107 205.115 99.586 206.402 101.066 207.691 99.586 206.402 98.107" fill="#dcdcdc"/><polygon points="206.402 89.842 205.115 91.322 206.402 92.801 207.691 91.322 206.402 89.842" fill="#dcdcdc"/><polygon points="206.402 81.578 205.115 83.058 206.402 84.537 207.691 83.058 206.402 81.578" fill="#dcdcdc"/><polygon points="207.69 74.793 206.402 73.314 205.115 74.793 206.402 76.273 207.69 74.793" fill="#dcdcdc"/><polygon points="213.594 106.371 212.307 107.85 213.594 109.33 214.881 107.85 213.594 106.371" fill="#dcdcdc"/><polygon points="213.594 98.107 212.307 99.586 213.594 101.066 214.881 99.586 213.594 98.107" fill="#dcdcdc"/><polygon points="213.594 89.842 212.307 91.322 213.594 92.801 214.881 91.322 213.594 89.842" fill="#dcdcdc"/><polygon points="213.594 81.578 212.307 83.058 213.594 84.537 214.881 83.058 213.594 81.578" fill="#dcdcdc"/><polygon points="213.594 73.314 212.307 74.793 213.594 76.273 214.881 74.793 213.594 73.314" fill="#dcdcdc"/><polygon points="220.785 106.371 219.498 107.85 220.785 109.33 222.072 107.85 220.785 106.371" fill="#dcdcdc"/><polygon points="220.785 98.107 219.498 99.586 220.785 101.066 222.072 99.586 220.785 98.107" fill="#dcdcdc"/><polygon points="220.785 89.842 219.498 91.322 220.785 92.801 222.072 91.322 220.785 89.842" fill="#dcdcdc"/><polygon points="220.785 81.578 219.498 83.058 220.785 84.537 222.072 83.058 220.785 81.578" fill="#dcdcdc"/><polygon points="220.785 73.314 219.498 74.793 220.785 76.273 222.072 74.793 220.785 73.314" fill="#dcdcdc"/><polygon points="227.977 106.371 226.688 107.85 227.977 109.33 229.264 107.85 227.977 106.371" fill="#dcdcdc"/><polygon points="227.977 98.107 226.688 99.586 227.977 101.066 229.264 99.586 227.977 98.107" fill="#dcdcdc"/><polygon points="227.977 89.842 226.688 91.322 227.977 92.801 229.264 91.322 227.977 89.842" fill="#dcdcdc"/><polygon points="227.977 81.578 226.688 83.058 227.977 84.537 229.264 83.058 227.977 81.578" fill="#dcdcdc"/><polygon points="227.977 73.314 226.689 74.793 227.977 76.273 229.264 74.793 227.977 73.314" fill="#dcdcdc"/><polygon points="235.168 106.371 233.881 107.85 235.168 109.33 236.455 107.85 235.168 106.371" fill="#dcdcdc"/><polygon points="235.168 98.107 233.881 99.586 235.168 101.066 236.455 99.586 235.168 98.107" fill="#dcdcdc"/><polygon points="235.168 89.842 233.881 91.322 235.168 92.801 236.455 91.322 235.168 89.842" fill="#dcdcdc"/><polygon points="235.168 81.578 233.881 83.058 235.168 84.537 236.455 83.058 235.168 81.578" fill="#dcdcdc"/><polygon points="235.168 73.314 233.881 74.793 235.168 76.273 236.455 74.793 235.168 73.314" fill="#dcdcdc"/><polygon points="242.359 106.371 241.072 107.85 242.359 109.33 243.648 107.85 242.359 106.371" fill="#dcdcdc"/><polygon points="242.359 98.107 241.072 99.586 242.359 101.066 243.648 99.586 242.359 98.107" fill="#dcdcdc"/><polygon points="242.359 89.842 241.072 91.322 242.359 92.801 243.648 91.322 242.359 89.842" fill="#dcdcdc"/><polygon points="242.359 81.578 241.072 83.058 242.359 84.537 243.648 83.058 242.359 81.578" fill="#dcdcdc"/><polygon points="243.647 74.793 242.359 73.314 241.072 74.793 242.359 76.273 243.647 74.793" fill="#dcdcdc"/><polygon points="249.551 106.371 248.264 107.85 249.551 109.33 250.838 107.85 249.551 106.371" fill="#dcdcdc"/><polygon points="249.551 98.107 248.264 99.586 249.551 101.066 250.838 99.586 249.551 98.107" fill="#dcdcdc"/><polygon points="249.551 89.842 248.264 91.322 249.551 92.801 250.838 91.322 249.551 89.842" fill="#dcdcdc"/><polygon points="249.551 81.578 248.264 83.058 249.551 84.537 250.838 83.058 249.551 81.578" fill="#dcdcdc"/><polygon points="249.551 73.314 248.264 74.793 249.551 76.273 250.838 74.793 249.551 73.314" fill="#dcdcdc"/><polygon points="256.742 106.371 255.455 107.85 256.742 109.33 258.029 107.85 256.742 106.371" fill="#dcdcdc"/><polygon points="256.742 98.107 255.455 99.586 256.742 101.066 258.029 99.586 256.742 98.107" fill="#dcdcdc"/><polygon points="256.742 89.842 255.455 91.322 256.742 92.801 258.029 91.322 256.742 89.842" fill="#dcdcdc"/><polygon points="256.742 81.578 255.455 83.058 256.742 84.537 258.029 83.058 256.742 81.578" fill="#dcdcdc"/><polygon points="256.742 73.314 255.455 74.793 256.742 76.273 258.029 74.793 256.742 73.314" fill="#dcdcdc"/><polygon points="263.934 109.33 265.221 107.85 263.934 106.371 262.645 107.85 263.934 109.33" fill="#dcdcdc"/><polygon points="263.934 101.066 265.221 99.586 263.934 98.107 262.645 99.586 263.934 101.066" fill="#dcdcdc"/><polygon points="263.934 92.801 265.221 91.322 263.934 89.842 262.645 91.322 263.934 92.801" fill="#dcdcdc"/><polygon points="263.934 84.537 265.221 83.058 263.934 81.578 262.645 83.058 263.934 84.537" fill="#dcdcdc"/><polygon points="262.646 74.793 263.934 76.273 265.221 74.793 263.934 73.314 262.646 74.793" fill="#dcdcdc"/><polygon points="271.125 106.371 269.839 107.85 271.125 109.33 272.412 107.85 271.125 106.371" fill="#dcdcdc"/><polygon points="271.125 98.107 269.839 99.586 271.125 101.066 272.412 99.586 271.125 98.107" fill="#dcdcdc"/><polygon points="271.125 89.842 269.839 91.322 271.125 92.801 272.412 91.322 271.125 89.842" fill="#dcdcdc"/><polygon points="271.125 81.578 269.839 83.058 271.125 84.537 272.412 83.058 271.125 81.578" fill="#dcdcdc"/><polygon points="271.125 73.314 269.839 74.793 271.125 76.273 272.412 74.793 271.125 73.314" fill="#dcdcdc"/><polygon points="278.316 106.371 277.03 107.85 278.316 109.33 279.606 107.85 278.316 106.371" fill="#dcdcdc"/><polygon points="278.316 98.107 277.03 99.586 278.316 101.066 279.606 99.586 278.316 98.107" fill="#dcdcdc"/><polygon points="278.316 89.842 277.03 91.322 278.316 92.801 279.606 91.322 278.316 89.842" fill="#dcdcdc"/><polygon points="278.316 81.578 277.03 83.058 278.316 84.537 279.606 83.058 278.316 81.578" fill="#dcdcdc"/><polygon points="279.604 74.793 278.316 73.314 277.03 74.793 278.316 76.273 279.604 74.793" fill="#dcdcdc"/><polygon points="192.02 68.182 193.306 66.702 192.02 65.223 190.733 66.702 192.02 68.182" fill="#dcdcdc"/><polygon points="192.02 59.917 193.306 58.438 192.02 56.958 190.733 58.438 192.02 59.917" fill="#dcdcdc"/><polygon points="192.02 51.653 193.306 50.173 192.02 48.694 190.733 50.173 192.02 51.653" fill="#dcdcdc"/><polygon points="192.02 43.389 193.306 41.909 192.02 40.43 190.733 41.909 192.02 43.389" fill="#dcdcdc"/><polygon points="192.02 35.124 193.306 33.645 192.02 32.165 190.733 33.645 192.02 35.124" fill="#dcdcdc"/><polygon points="193.306 25.381 192.02 23.901 190.733 25.381 192.02 26.86 193.306 25.381" fill="#dcdcdc"/><polygon points="190.733 17.116 192.02 18.596 193.306 17.116 192.02 15.637 190.733 17.116" fill="#dcdcdc"/><polygon points="199.211 65.223 197.924 66.702 199.211 68.182 200.497 66.702 199.211 65.223" fill="#dcdcdc"/><polygon points="199.211 56.958 197.924 58.438 199.211 59.917 200.497 58.438 199.211 56.958" fill="#dcdcdc"/><polygon points="199.211 48.694 197.924 50.173 199.211 51.653 200.497 50.173 199.211 48.694" fill="#dcdcdc"/><polygon points="199.211 40.43 197.924 41.909 199.211 43.389 200.497 41.909 199.211 40.43" fill="#dcdcdc"/><polygon points="199.211 32.165 197.924 33.645 199.211 35.124 200.497 33.645 199.211 32.165" fill="#dcdcdc"/><polygon points="199.211 23.901 197.924 25.381 199.211 26.86 200.497 25.381 199.211 23.901" fill="#dcdcdc"/><polygon points="199.211 15.637 197.924 17.116 199.211 18.596 200.497 17.116 199.211 15.637" fill="#dcdcdc"/><polygon points="206.402 65.223 205.115 66.702 206.402 68.182 207.691 66.702 206.402 65.223" fill="#dcdcdc"/><polygon points="206.402 56.958 205.115 58.438 206.402 59.917 207.691 58.438 206.402 56.958" fill="#dcdcdc"/><polygon points="206.402 48.694 205.115 50.173 206.402 51.653 207.691 50.173 206.402 48.694" fill="#dcdcdc"/><polygon points="206.402 40.43 205.115 41.909 206.402 43.389 207.691 41.909 206.402 40.43" fill="#dcdcdc"/><polygon points="206.402 32.165 205.115 33.645 206.402 35.124 207.691 33.645 206.402 32.165" fill="#dcdcdc"/><polygon points="206.402 23.901 205.115 25.381 206.402 26.86 207.691 25.381 206.402 23.901" fill="#dcdcdc"/><polygon points="206.402 15.637 205.115 17.116 206.402 18.596 207.691 17.116 206.402 15.637" fill="#dcdcdc"/><polygon points="213.594 65.223 212.307 66.702 213.594 68.182 214.881 66.702 213.594 65.223" fill="#dcdcdc"/><polygon points="213.594 56.958 212.307 58.438 213.594 59.917 214.881 58.438 213.594 56.958" fill="#dcdcdc"/><polygon points="213.594 48.694 212.307 50.173 213.594 51.653 214.881 50.173 213.594 48.694" fill="#dcdcdc"/><polygon points="213.594 40.43 212.307 41.909 213.594 43.389 214.881 41.909 213.594 40.43" fill="#dcdcdc"/><polygon points="213.594 32.165 212.307 33.645 213.594 35.124 214.881 33.645 213.594 32.165" fill="#dcdcdc"/><polygon points="213.594 23.901 212.307 25.381 213.594 26.86 214.881 25.381 213.594 23.901" fill="#dcdcdc"/><polygon points="213.594 15.637 212.307 17.116 213.594 18.596 214.881 17.116 213.594 15.637" fill="#dcdcdc"/><polygon points="220.785 65.223 219.498 66.702 220.785 68.182 222.072 66.702 220.785 65.223" fill="#dcdcdc"/><polygon points="220.785 56.958 219.498 58.438 220.785 59.917 222.072 58.438 220.785 56.958" fill="#dcdcdc"/><polygon points="220.785 48.694 219.498 50.173 220.785 51.653 222.072 50.173 220.785 48.694" fill="#dcdcdc"/><polygon points="220.785 40.43 219.498 41.909 220.785 43.389 222.072 41.909 220.785 40.43" fill="#dcdcdc"/><polygon points="220.785 32.165 219.498 33.645 220.785 35.124 222.072 33.645 220.785 32.165" fill="#dcdcdc"/><polygon points="220.785 23.901 219.498 25.381 220.785 26.86 222.072 25.381 220.785 23.901" fill="#dcdcdc"/><path d="M220.785,18.6l1.287-1.48-.217-.249c-.578-.157-1.156-.315-1.738-.462l-.619.711Z" fill="#dcdcdc"/><polygon points="227.977 65.223 226.688 66.702 227.977 68.182 229.264 66.702 227.977 65.223" fill="#dcdcdc"/><polygon points="227.977 56.958 226.688 58.438 227.977 59.917 229.264 58.438 227.977 56.958" fill="#dcdcdc"/><polygon points="227.977 48.694 226.688 50.173 227.977 51.653 229.264 50.173 227.977 48.694" fill="#dcdcdc"/><polygon points="227.977 40.43 226.688 41.909 227.977 43.389 229.264 41.909 227.977 40.43" fill="#dcdcdc"/><polygon points="227.977 32.165 226.688 33.645 227.977 35.124 229.264 33.645 227.977 32.165" fill="#dcdcdc"/><polygon points="227.977 23.901 226.688 25.381 227.977 26.86 229.264 25.381 227.977 23.901" fill="#dcdcdc"/><polygon points="235.168 65.223 233.881 66.702 235.168 68.182 236.455 66.702 235.168 65.223" fill="#dcdcdc"/><polygon points="235.168 56.958 233.881 58.438 235.168 59.917 236.455 58.438 235.168 56.958" fill="#dcdcdc"/><polygon points="235.168 48.694 233.881 50.173 235.168 51.653 236.455 50.173 235.168 48.694" fill="#dcdcdc"/><polygon points="235.168 40.43 233.881 41.909 235.168 43.389 236.455 41.909 235.168 40.43" fill="#dcdcdc"/><polygon points="235.168 32.165 233.881 33.645 235.168 35.124 236.455 33.645 235.168 32.165" fill="#dcdcdc"/><polygon points="235.168 23.901 233.881 25.381 235.168 26.86 236.455 25.381 235.168 23.901" fill="#dcdcdc"/><polygon points="242.359 65.223 241.072 66.702 242.359 68.182 243.648 66.702 242.359 65.223" fill="#dcdcdc"/><polygon points="242.359 56.958 241.072 58.438 242.359 59.917 243.648 58.438 242.359 56.958" fill="#dcdcdc"/><polygon points="242.359 48.694 241.072 50.173 242.359 51.653 243.648 50.173 242.359 48.694" fill="#dcdcdc"/><polygon points="242.359 40.43 241.072 41.909 242.359 43.389 243.648 41.909 242.359 40.43" fill="#dcdcdc"/><polygon points="242.359 32.165 241.072 33.645 242.359 35.124 243.648 33.645 242.359 32.165" fill="#dcdcdc"/><path d="M242.359,26.86l1.227-1.408c-.589-.312-1.179-.621-1.774-.922l-.74.851Z" fill="#dcdcdc"/><polygon points="249.551 65.223 248.264 66.702 249.551 68.182 250.838 66.702 249.551 65.223" fill="#dcdcdc"/><polygon points="249.551 56.958 248.264 58.438 249.551 59.917 250.838 58.438 249.551 56.958" fill="#dcdcdc"/><polygon points="249.551 48.694 248.264 50.173 249.551 51.653 250.838 50.173 249.551 48.694" fill="#dcdcdc"/><polygon points="249.551 40.43 248.264 41.909 249.551 43.389 250.838 41.909 249.551 40.43" fill="#dcdcdc"/><polygon points="249.551 32.165 248.264 33.645 249.551 35.124 250.838 33.645 249.551 32.165" fill="#dcdcdc"/><polygon points="256.742 65.223 255.455 66.702 256.742 68.182 258.029 66.702 256.742 65.223" fill="#dcdcdc"/><polygon points="256.742 56.958 255.455 58.438 256.742 59.917 258.029 58.438 256.742 56.958" fill="#dcdcdc"/><polygon points="256.742 48.694 255.455 50.173 256.742 51.653 258.029 50.173 256.742 48.694" fill="#dcdcdc"/><polygon points="256.742 40.43 255.455 41.909 256.742 43.389 258.029 41.909 256.742 40.43" fill="#dcdcdc"/><path d="M255.455,33.645l1.287,1.479.759-.871c-.521-.389-1.047-.77-1.575-1.149Z" fill="#dcdcdc"/><polygon points="263.934 68.182 265.221 66.702 263.934 65.223 262.645 66.702 263.934 68.182" fill="#dcdcdc"/><polygon points="263.934 59.917 265.221 58.438 263.934 56.958 262.645 58.438 263.934 59.917" fill="#dcdcdc"/><polygon points="265.221 50.173 263.934 48.694 262.645 50.173 263.934 51.653 265.221 50.173" fill="#dcdcdc"/><polygon points="262.645 41.909 263.934 43.389 265.221 41.909 263.934 40.43 262.645 41.909" fill="#dcdcdc"/><polygon points="271.125 65.223 269.839 66.702 271.125 68.182 272.412 66.702 271.125 65.223" fill="#dcdcdc"/><polygon points="271.125 56.958 269.839 58.438 271.125 59.917 272.412 58.438 271.125 56.958" fill="#dcdcdc"/><polygon points="271.125 48.694 269.839 50.173 271.125 51.653 272.412 50.173 271.125 48.694" fill="#dcdcdc"/><polygon points="278.316 65.223 277.03 66.702 278.316 68.182 279.606 66.702 278.316 65.223" fill="#dcdcdc"/><polygon points="278.316 56.958 277.03 58.438 278.316 59.917 279.606 58.438 278.316 56.958" fill="#dcdcdc"/><polygon points="285.612 106.371 284.325 107.85 285.612 109.33 286.899 107.85 285.612 106.371" fill="#dcdcdc"/><polygon points="285.612 98.107 284.325 99.586 285.612 101.066 286.899 99.586 285.612 98.107" fill="#dcdcdc"/><polygon points="285.612 89.842 284.325 91.322 285.612 92.801 286.899 91.322 285.612 89.842" fill="#dcdcdc"/><polygon points="285.612 81.578 284.325 83.058 285.612 84.537 286.899 83.058 285.612 81.578" fill="#dcdcdc"/><polygon points="285.612 73.314 284.325 74.793 285.612 76.273 286.899 74.793 285.612 73.314" fill="#dcdcdc"/><polygon points="292.803 106.371 291.516 107.85 292.803 109.33 294.092 107.85 292.803 106.371" fill="#dcdcdc"/><polygon points="292.803 98.107 291.516 99.586 292.803 101.066 294.092 99.586 292.803 98.107" fill="#dcdcdc"/><polygon points="292.803 89.842 291.516 91.322 292.803 92.801 294.092 91.322 292.803 89.842" fill="#dcdcdc"/><path d="M291.516,83.058l1.287,1.479,1.06-1.217c-.106-.3-.207-.593-.316-.887l-.744-.855Z" fill="#dcdcdc"/><path d="M299.365,107.1l-.657.754.834.959Q299.461,107.95,299.365,107.1Z" fill="#dcdcdc"/><path d="M285.612,68.182l.868-1q-.5-.9-1.026-1.779l-1.129,1.3Z" fill="#dcdcdc"/><polygon points="91.287 106.371 90 107.85 91.287 109.33 92.574 107.85 91.287 106.371" fill="#dcdcdc"/><polygon points="91.287 98.107 90 99.586 91.287 101.066 92.574 99.586 91.287 98.107" fill="#dcdcdc"/><path d="M91.287,92.8l1.287-1.479L91.5,90.087q-.318,1.122-.613,2.254Z" fill="#dcdcdc"/><polygon points="98.479 106.371 97.19 107.85 98.479 109.33 99.766 107.85 98.479 106.371" fill="#dcdcdc"/><polygon points="98.479 98.107 97.19 99.586 98.479 101.066 99.766 99.586 98.479 98.107" fill="#dcdcdc"/><polygon points="98.479 89.842 97.19 91.322 98.479 92.801 99.766 91.322 98.479 89.842" fill="#dcdcdc"/><polygon points="98.479 81.578 97.19 83.058 98.479 84.537 99.766 83.058 98.479 81.578" fill="#dcdcdc"/><polygon points="98.479 73.314 97.191 74.793 98.479 76.273 99.766 74.793 98.479 73.314" fill="#dcdcdc"/><polygon points="105.773 106.371 104.486 107.85 105.773 109.33 107.06 107.85 105.773 106.371" fill="#dcdcdc"/><polygon points="105.773 98.107 104.486 99.586 105.773 101.066 107.06 99.586 105.773 98.107" fill="#dcdcdc"/><polygon points="105.773 89.842 104.486 91.322 105.773 92.801 107.06 91.322 105.773 89.842" fill="#dcdcdc"/><polygon points="105.773 81.578 104.486 83.058 105.773 84.537 107.06 83.058 105.773 81.578" fill="#dcdcdc"/><polygon points="105.773 73.314 104.486 74.793 105.773 76.273 107.06 74.793 105.773 73.314" fill="#dcdcdc"/><polygon points="112.965 106.371 111.676 107.85 112.965 109.33 114.252 107.85 112.965 106.371" fill="#dcdcdc"/><polygon points="112.965 98.107 111.676 99.586 112.965 101.066 114.252 99.586 112.965 98.107" fill="#dcdcdc"/><polygon points="112.965 89.842 111.676 91.322 112.965 92.801 114.252 91.322 112.965 89.842" fill="#dcdcdc"/><polygon points="112.965 81.578 111.676 83.058 112.965 84.537 114.252 83.058 112.965 81.578" fill="#dcdcdc"/><polygon points="112.965 73.314 111.677 74.793 112.965 76.273 114.252 74.793 112.965 73.314" fill="#dcdcdc"/><polygon points="120.156 106.371 118.869 107.85 120.156 109.33 121.443 107.85 120.156 106.371" fill="#dcdcdc"/><polygon points="120.156 98.107 118.869 99.586 120.156 101.066 121.443 99.586 120.156 98.107" fill="#dcdcdc"/><polygon points="120.156 89.842 118.869 91.322 120.156 92.801 121.443 91.322 120.156 89.842" fill="#dcdcdc"/><polygon points="120.156 81.578 118.869 83.058 120.156 84.537 121.443 83.058 120.156 81.578" fill="#dcdcdc"/><polygon points="120.156 73.314 118.869 74.793 120.156 76.273 121.443 74.793 120.156 73.314" fill="#dcdcdc"/><polygon points="127.347 106.371 126.06 107.85 127.347 109.33 128.636 107.85 127.347 106.371" fill="#dcdcdc"/><polygon points="127.347 98.107 126.06 99.586 127.347 101.066 128.636 99.586 127.347 98.107" fill="#dcdcdc"/><polygon points="127.347 89.842 126.06 91.322 127.347 92.801 128.636 91.322 127.347 89.842" fill="#dcdcdc"/><polygon points="127.347 81.578 126.06 83.058 127.347 84.537 128.636 83.058 127.347 81.578" fill="#dcdcdc"/><polygon points="128.635 74.793 127.347 73.314 126.06 74.793 127.347 76.273 128.635 74.793" fill="#dcdcdc"/><polygon points="134.539 106.371 133.253 107.85 134.539 109.33 135.826 107.85 134.539 106.371" fill="#dcdcdc"/><polygon points="134.539 98.107 133.253 99.586 134.539 101.066 135.826 99.586 134.539 98.107" fill="#dcdcdc"/><polygon points="134.539 89.842 133.253 91.322 134.539 92.801 135.826 91.322 134.539 89.842" fill="#dcdcdc"/><polygon points="134.539 81.578 133.253 83.058 134.539 84.537 135.826 83.058 134.539 81.578" fill="#dcdcdc"/><polygon points="134.539 73.314 133.253 74.793 134.539 76.273 135.826 74.793 134.539 73.314" fill="#dcdcdc"/><polygon points="141.73 106.371 140.444 107.85 141.73 109.33 143.017 107.85 141.73 106.371" fill="#dcdcdc"/><polygon points="141.73 98.107 140.444 99.586 141.73 101.066 143.017 99.586 141.73 98.107" fill="#dcdcdc"/><polygon points="141.73 89.842 140.444 91.322 141.73 92.801 143.017 91.322 141.73 89.842" fill="#dcdcdc"/><polygon points="141.73 81.578 140.444 83.058 141.73 84.537 143.017 83.058 141.73 81.578" fill="#dcdcdc"/><polygon points="141.73 73.314 140.444 74.793 141.73 76.273 143.017 74.793 141.73 73.314" fill="#dcdcdc"/><polygon points="148.922 106.371 147.635 107.85 148.922 109.33 150.211 107.85 148.922 106.371" fill="#dcdcdc"/><polygon points="148.922 98.107 147.635 99.586 148.922 101.066 150.211 99.586 148.922 98.107" fill="#dcdcdc"/><polygon points="148.922 89.842 147.635 91.322 148.922 92.801 150.211 91.322 148.922 89.842" fill="#dcdcdc"/><polygon points="148.922 81.578 147.635 83.058 148.922 84.537 150.211 83.058 148.922 81.578" fill="#dcdcdc"/><polygon points="150.21 74.793 148.922 73.314 147.635 74.793 148.922 76.273 150.21 74.793" fill="#dcdcdc"/><polygon points="156.114 106.371 154.827 107.85 156.114 109.33 157.401 107.85 156.114 106.371" fill="#dcdcdc"/><polygon points="156.114 98.107 154.827 99.586 156.114 101.066 157.401 99.586 156.114 98.107" fill="#dcdcdc"/><polygon points="156.114 89.842 154.827 91.322 156.114 92.801 157.401 91.322 156.114 89.842" fill="#dcdcdc"/><polygon points="156.114 81.578 154.827 83.058 156.114 84.537 157.401 83.058 156.114 81.578" fill="#dcdcdc"/><polygon points="156.114 73.314 154.827 74.793 156.114 76.273 157.401 74.793 156.114 73.314" fill="#dcdcdc"/><polygon points="163.305 106.371 162.018 107.85 163.305 109.33 164.592 107.85 163.305 106.371" fill="#dcdcdc"/><polygon points="163.305 98.107 162.018 99.586 163.305 101.066 164.592 99.586 163.305 98.107" fill="#dcdcdc"/><polygon points="163.305 89.842 162.018 91.322 163.305 92.801 164.592 91.322 163.305 89.842" fill="#dcdcdc"/><polygon points="163.305 81.578 162.018 83.058 163.305 84.537 164.592 83.058 163.305 81.578" fill="#dcdcdc"/><polygon points="163.305 73.314 162.018 74.793 163.305 76.273 164.592 74.793 163.305 73.314" fill="#dcdcdc"/><polygon points="170.497 106.371 169.208 107.85 170.497 109.33 171.784 107.85 170.497 106.371" fill="#dcdcdc"/><polygon points="170.497 98.107 169.208 99.586 170.497 101.066 171.784 99.586 170.497 98.107" fill="#dcdcdc"/><polygon points="170.497 89.842 169.208 91.322 170.497 92.801 171.784 91.322 170.497 89.842" fill="#dcdcdc"/><polygon points="170.497 81.578 169.208 83.058 170.497 84.537 171.784 83.058 170.497 81.578" fill="#dcdcdc"/><polygon points="170.497 73.314 169.209 74.793 170.497 76.273 171.784 74.793 170.497 73.314" fill="#dcdcdc"/><polygon points="177.688 109.33 178.975 107.85 177.688 106.371 176.401 107.85 177.688 109.33" fill="#dcdcdc"/><polygon points="177.688 101.066 178.975 99.586 177.688 98.107 176.401 99.586 177.688 101.066" fill="#dcdcdc"/><polygon points="177.688 92.801 178.975 91.322 177.688 89.842 176.401 91.322 177.688 92.801" fill="#dcdcdc"/><polygon points="177.688 84.537 178.975 83.058 177.688 81.578 176.401 83.058 177.688 84.537" fill="#dcdcdc"/><polygon points="177.688 76.273 178.975 74.793 177.688 73.314 176.401 74.793 177.688 76.273" fill="#dcdcdc"/><polygon points="184.879 109.33 186.168 107.85 184.879 106.371 183.592 107.85 184.879 109.33" fill="#dcdcdc"/><polygon points="184.879 101.066 186.168 99.586 184.879 98.107 183.592 99.586 184.879 101.066" fill="#dcdcdc"/><polygon points="184.879 92.801 186.168 91.322 184.879 89.842 183.592 91.322 184.879 92.801" fill="#dcdcdc"/><polygon points="184.879 84.537 186.168 83.058 184.879 81.578 183.592 83.058 184.879 84.537" fill="#dcdcdc"/><polygon points="184.879 76.273 186.167 74.793 184.879 73.314 183.592 74.793 184.879 76.273" fill="#dcdcdc"/><polygon points="105.773 65.223 104.486 66.702 105.773 68.182 107.06 66.702 105.773 65.223" fill="#dcdcdc"/><path d="M105.773,59.917l1.287-1.479-.271-.312c-.385.545-.769,1.091-1.144,1.644Z" fill="#dcdcdc"/><polygon points="112.965 65.223 111.676 66.702 112.965 68.182 114.252 66.702 112.965 65.223" fill="#dcdcdc"/><polygon points="112.965 56.958 111.676 58.438 112.965 59.917 114.252 58.438 112.965 56.958" fill="#dcdcdc"/><path d="M112.965,51.653l1.287-1.48-.631-.726c-.432.493-.855.992-1.277,1.492Z" fill="#dcdcdc"/><polygon points="120.156 65.223 118.869 66.702 120.156 68.182 121.443 66.702 120.156 65.223" fill="#dcdcdc"/><polygon points="120.156 56.958 118.869 58.438 120.156 59.917 121.443 58.438 120.156 56.958" fill="#dcdcdc"/><polygon points="120.156 48.694 118.869 50.173 120.156 51.653 121.443 50.173 120.156 48.694" fill="#dcdcdc"/><path d="M120.156,43.389l1.287-1.48-.239-.275q-.711.663-1.411,1.337Z" fill="#dcdcdc"/><polygon points="127.347 65.223 126.06 66.702 127.347 68.182 128.636 66.702 127.347 65.223" fill="#dcdcdc"/><polygon points="127.347 56.958 126.06 58.438 127.347 59.917 128.636 58.438 127.347 56.958" fill="#dcdcdc"/><polygon points="127.347 48.694 126.06 50.173 127.347 51.653 128.636 50.173 127.347 48.694" fill="#dcdcdc"/><polygon points="127.347 40.43 126.06 41.909 127.347 43.389 128.636 41.909 127.347 40.43" fill="#dcdcdc"/><polygon points="134.539 65.223 133.253 66.702 134.539 68.182 135.826 66.702 134.539 65.223" fill="#dcdcdc"/><polygon points="134.539 56.958 133.253 58.438 134.539 59.917 135.826 58.438 134.539 56.958" fill="#dcdcdc"/><polygon points="134.539 48.694 133.253 50.173 134.539 51.653 135.826 50.173 134.539 48.694" fill="#dcdcdc"/><polygon points="134.539 40.43 133.253 41.909 134.539 43.389 135.826 41.909 134.539 40.43" fill="#dcdcdc"/><polygon points="134.539 32.165 133.253 33.645 134.539 35.124 135.826 33.645 134.539 32.165" fill="#dcdcdc"/><polygon points="141.73 65.223 140.444 66.702 141.73 68.182 143.017 66.702 141.73 65.223" fill="#dcdcdc"/><polygon points="141.73 56.958 140.444 58.438 141.73 59.917 143.017 58.438 141.73 56.958" fill="#dcdcdc"/><polygon points="141.73 48.694 140.444 50.173 141.73 51.653 143.017 50.173 141.73 48.694" fill="#dcdcdc"/><polygon points="141.73 40.43 140.444 41.909 141.73 43.389 143.017 41.909 141.73 40.43" fill="#dcdcdc"/><polygon points="141.73 32.165 140.444 33.645 141.73 35.124 143.017 33.645 141.73 32.165" fill="#dcdcdc"/><path d="M141.73,26.86l.334-.383q-.225.124-.449.25Z" fill="#dcdcdc"/><polygon points="148.922 65.223 147.635 66.702 148.922 68.182 150.211 66.702 148.922 65.223" fill="#dcdcdc"/><polygon points="148.922 56.958 147.635 58.438 148.922 59.917 150.211 58.438 148.922 56.958" fill="#dcdcdc"/><polygon points="148.922 48.694 147.635 50.173 148.922 51.653 150.211 50.173 148.922 48.694" fill="#dcdcdc"/><polygon points="148.922 40.43 147.635 41.909 148.922 43.389 150.211 41.909 148.922 40.43" fill="#dcdcdc"/><polygon points="148.922 32.165 147.635 33.645 148.922 35.124 150.211 33.645 148.922 32.165" fill="#dcdcdc"/><polygon points="148.922 23.901 147.635 25.381 148.922 26.86 150.211 25.381 148.922 23.901" fill="#dcdcdc"/><polygon points="156.114 65.223 154.827 66.702 156.114 68.182 157.401 66.702 156.114 65.223" fill="#dcdcdc"/><polygon points="156.114 56.958 154.827 58.438 156.114 59.917 157.401 58.438 156.114 56.958" fill="#dcdcdc"/><polygon points="156.114 48.694 154.827 50.173 156.114 51.653 157.401 50.173 156.114 48.694" fill="#dcdcdc"/><polygon points="156.114 40.43 154.827 41.909 156.114 43.389 157.401 41.909 156.114 40.43" fill="#dcdcdc"/><polygon points="156.114 32.165 154.827 33.645 156.114 35.124 157.401 33.645 156.114 32.165" fill="#dcdcdc"/><polygon points="156.114 23.901 154.827 25.381 156.114 26.86 157.401 25.381 156.114 23.901" fill="#dcdcdc"/><polygon points="163.305 65.223 162.018 66.702 163.305 68.182 164.592 66.702 163.305 65.223" fill="#dcdcdc"/><polygon points="163.305 56.958 162.018 58.438 163.305 59.917 164.592 58.438 163.305 56.958" fill="#dcdcdc"/><polygon points="163.305 48.694 162.018 50.173 163.305 51.653 164.592 50.173 163.305 48.694" fill="#dcdcdc"/><polygon points="163.305 40.43 162.018 41.909 163.305 43.389 164.592 41.909 163.305 40.43" fill="#dcdcdc"/><polygon points="163.305 32.165 162.018 33.645 163.305 35.124 164.592 33.645 163.305 32.165" fill="#dcdcdc"/><polygon points="163.305 23.901 162.018 25.381 163.305 26.86 164.592 25.381 163.305 23.901" fill="#dcdcdc"/><path d="M163.305,18.6l1.231-1.416c-.656.186-1.308.381-1.958.58Z" fill="#dcdcdc"/><polygon points="170.497 65.223 169.208 66.702 170.497 68.182 171.784 66.702 170.497 65.223" fill="#dcdcdc"/><polygon points="170.497 56.958 169.208 58.438 170.497 59.917 171.784 58.438 170.497 56.958" fill="#dcdcdc"/><polygon points="170.497 48.694 169.208 50.173 170.497 51.653 171.784 50.173 170.497 48.694" fill="#dcdcdc"/><polygon points="170.497 40.43 169.208 41.909 170.497 43.389 171.784 41.909 170.497 40.43" fill="#dcdcdc"/><polygon points="170.497 32.165 169.208 33.645 170.497 35.124 171.784 33.645 170.497 32.165" fill="#dcdcdc"/><polygon points="170.497 23.901 169.208 25.381 170.497 26.86 171.784 25.381 170.497 23.901" fill="#dcdcdc"/><path d="M169.208,17.116,170.5,18.6l1.287-1.48-1.258-1.446-.072.016Z" fill="#dcdcdc"/><polygon points="177.688 68.182 178.975 66.702 177.688 65.223 176.401 66.702 177.688 68.182" fill="#dcdcdc"/><polygon points="177.688 59.917 178.975 58.438 177.688 56.958 176.401 58.438 177.688 59.917" fill="#dcdcdc"/><polygon points="177.688 51.653 178.975 50.173 177.688 48.694 176.401 50.173 177.688 51.653" fill="#dcdcdc"/><polygon points="177.688 43.389 178.975 41.909 177.688 40.43 176.401 41.909 177.688 43.389" fill="#dcdcdc"/><polygon points="177.688 35.124 178.975 33.645 177.688 32.165 176.401 33.645 177.688 35.124" fill="#dcdcdc"/><polygon points="177.688 26.86 178.975 25.381 177.688 23.901 176.401 25.381 177.688 26.86" fill="#dcdcdc"/><polygon points="178.975 17.116 177.688 15.637 176.401 17.116 177.688 18.596 178.975 17.116" fill="#dcdcdc"/><polygon points="184.879 68.182 186.168 66.702 184.879 65.223 183.592 66.702 184.879 68.182" fill="#dcdcdc"/><polygon points="184.879 59.917 186.168 58.438 184.879 56.958 183.592 58.438 184.879 59.917" fill="#dcdcdc"/><polygon points="184.879 51.653 186.168 50.173 184.879 48.694 183.592 50.173 184.879 51.653" fill="#dcdcdc"/><polygon points="184.879 43.389 186.168 41.909 184.879 40.43 183.592 41.909 184.879 43.389" fill="#dcdcdc"/><polygon points="184.879 35.124 186.168 33.645 184.879 32.165 183.592 33.645 184.879 35.124" fill="#dcdcdc"/><polygon points="184.879 26.86 186.168 25.381 184.879 23.901 183.592 25.381 184.879 26.86" fill="#dcdcdc"/><polygon points="186.168 17.116 184.879 15.637 183.592 17.116 184.879 18.596 186.168 17.116" fill="#dcdcdc"/><polygon points="192.02 216.08 193.306 214.6 192.02 213.121 190.733 214.6 192.02 216.08" fill="#dcdcdc"/><polygon points="192.02 207.816 193.306 206.336 192.02 204.857 190.733 206.336 192.02 207.816" fill="#dcdcdc"/><polygon points="192.02 199.551 193.306 198.072 192.02 196.593 190.733 198.072 192.02 199.551" fill="#dcdcdc"/><polygon points="192.02 191.287 193.306 189.807 192.02 188.328 190.733 189.807 192.02 191.287" fill="#dcdcdc"/><polygon points="192.02 183.023 193.306 181.544 192.02 180.064 190.733 181.544 192.02 183.023" fill="#dcdcdc"/><polygon points="197.924 214.6 199.211 216.08 200.497 214.6 199.211 213.121 197.924 214.6" fill="#dcdcdc"/><polygon points="199.211 204.857 197.924 206.336 199.211 207.816 200.497 206.336 199.211 204.857" fill="#dcdcdc"/><polygon points="199.211 196.593 197.924 198.072 199.211 199.551 200.497 198.072 199.211 196.593" fill="#dcdcdc"/><polygon points="199.211 188.328 197.924 189.807 199.211 191.287 200.497 189.807 199.211 188.328" fill="#dcdcdc"/><polygon points="199.211 180.064 197.924 181.544 199.211 183.023 200.497 181.544 199.211 180.064" fill="#dcdcdc"/><polygon points="205.115 214.6 206.402 216.08 207.691 214.6 206.402 213.121 205.115 214.6" fill="#dcdcdc"/><polygon points="206.402 204.857 205.115 206.336 206.402 207.816 207.691 206.336 206.402 204.857" fill="#dcdcdc"/><polygon points="206.402 196.593 205.115 198.072 206.402 199.551 207.691 198.072 206.402 196.593" fill="#dcdcdc"/><polygon points="206.402 188.328 205.115 189.807 206.402 191.287 207.691 189.807 206.402 188.328" fill="#dcdcdc"/><polygon points="206.402 180.064 205.115 181.544 206.402 183.023 207.691 181.544 206.402 180.064" fill="#dcdcdc"/><polygon points="212.307 214.6 213.594 216.08 214.881 214.6 213.594 213.121 212.307 214.6" fill="#dcdcdc"/><polygon points="213.594 204.857 212.307 206.336 213.594 207.816 214.881 206.336 213.594 204.857" fill="#dcdcdc"/><polygon points="213.594 196.593 212.307 198.072 213.594 199.551 214.881 198.072 213.594 196.593" fill="#dcdcdc"/><polygon points="213.594 188.328 212.307 189.807 213.594 191.287 214.881 189.807 213.594 188.328" fill="#dcdcdc"/><polygon points="213.594 180.064 212.307 181.544 213.594 183.023 214.881 181.544 213.594 180.064" fill="#dcdcdc"/><polygon points="219.498 214.6 220.785 216.08 222.072 214.6 220.785 213.121 219.498 214.6" fill="#dcdcdc"/><polygon points="220.785 204.857 219.498 206.336 220.785 207.816 222.072 206.336 220.785 204.857" fill="#dcdcdc"/><polygon points="220.785 196.593 219.498 198.072 220.785 199.551 222.072 198.072 220.785 196.593" fill="#dcdcdc"/><polygon points="220.785 188.328 219.498 189.807 220.785 191.287 222.072 189.807 220.785 188.328" fill="#dcdcdc"/><polygon points="220.785 180.064 219.498 181.544 220.785 183.023 222.072 181.544 220.785 180.064" fill="#dcdcdc"/><polygon points="226.688 214.6 227.977 216.08 229.264 214.6 227.977 213.121 226.688 214.6" fill="#dcdcdc"/><polygon points="227.977 204.857 226.688 206.336 227.977 207.816 229.264 206.336 227.977 204.857" fill="#dcdcdc"/><polygon points="227.977 196.593 226.688 198.072 227.977 199.551 229.264 198.072 227.977 196.593" fill="#dcdcdc"/><polygon points="227.977 188.328 226.688 189.807 227.977 191.287 229.264 189.807 227.977 188.328" fill="#dcdcdc"/><polygon points="227.977 180.064 226.688 181.544 227.977 183.023 229.264 181.544 227.977 180.064" fill="#dcdcdc"/><polygon points="233.881 214.6 235.168 216.08 236.455 214.6 235.168 213.121 233.881 214.6" fill="#dcdcdc"/><polygon points="235.168 204.857 233.881 206.336 235.168 207.816 236.455 206.336 235.168 204.857" fill="#dcdcdc"/><polygon points="235.168 196.593 233.881 198.072 235.168 199.551 236.455 198.072 235.168 196.593" fill="#dcdcdc"/><polygon points="235.168 188.328 233.881 189.807 235.168 191.287 236.455 189.807 235.168 188.328" fill="#dcdcdc"/><polygon points="235.168 180.064 233.881 181.544 235.168 183.023 236.455 181.544 235.168 180.064" fill="#dcdcdc"/><polygon points="241.072 206.336 242.359 207.816 243.648 206.336 242.359 204.857 241.072 206.336" fill="#dcdcdc"/><polygon points="242.359 196.593 241.072 198.072 242.359 199.551 243.648 198.072 242.359 196.593" fill="#dcdcdc"/><polygon points="242.359 188.328 241.072 189.807 242.359 191.287 243.648 189.807 242.359 188.328" fill="#dcdcdc"/><polygon points="242.359 180.064 241.072 181.544 242.359 183.023 243.648 181.544 242.359 180.064" fill="#dcdcdc"/><polygon points="248.264 206.336 249.551 207.816 250.838 206.336 249.551 204.857 248.264 206.336" fill="#dcdcdc"/><polygon points="249.551 196.593 248.264 198.072 249.551 199.551 250.838 198.072 249.551 196.593" fill="#dcdcdc"/><polygon points="249.551 188.328 248.264 189.807 249.551 191.287 250.838 189.807 249.551 188.328" fill="#dcdcdc"/><polygon points="249.551 180.064 248.264 181.544 249.551 183.023 250.838 181.544 249.551 180.064" fill="#dcdcdc"/><polygon points="255.455 198.072 256.742 199.551 258.029 198.072 256.742 196.593 255.455 198.072" fill="#dcdcdc"/><polygon points="256.742 188.328 255.455 189.807 256.742 191.287 258.029 189.807 256.742 188.328" fill="#dcdcdc"/><polygon points="256.742 180.064 255.455 181.544 256.742 183.023 258.029 181.544 256.742 180.064" fill="#dcdcdc"/><path d="M263.934,196.593l-1.289,1.479.651.747c.49-.423.973-.854,1.456-1.286Z" fill="#dcdcdc"/><polygon points="263.934 191.287 265.221 189.807 263.934 188.328 262.645 189.807 263.934 191.287" fill="#dcdcdc"/><polygon points="263.934 183.023 265.221 181.544 263.934 180.064 262.645 181.544 263.934 183.023" fill="#dcdcdc"/><polygon points="272.412 189.807 271.125 188.328 269.839 189.807 271.125 191.287 272.412 189.807" fill="#dcdcdc"/><polygon points="269.839 181.544 271.125 183.023 272.412 181.544 271.125 180.064 269.839 181.544" fill="#dcdcdc"/><path d="M278.316,180.064l-1.286,1.48,1.236,1.421q.6-.789,1.195-1.588Z" fill="#dcdcdc"/><polygon points="192.02 174.932 193.306 173.452 192.02 171.972 190.733 173.452 192.02 174.932" fill="#dcdcdc"/><polygon points="192.02 166.668 193.306 165.188 192.02 163.709 190.733 165.188 192.02 166.668" fill="#dcdcdc"/><polygon points="192.02 158.403 193.306 156.923 192.02 155.444 190.733 156.923 192.02 158.403" fill="#dcdcdc"/><polygon points="192.02 150.139 193.306 148.659 192.02 147.18 190.733 148.659 192.02 150.139" fill="#dcdcdc"/><polygon points="192.02 141.874 193.306 140.395 192.02 138.916 190.733 140.395 192.02 141.874" fill="#dcdcdc"/><polygon points="192.02 133.61 193.306 132.13 192.02 130.651 190.733 132.13 192.02 133.61" fill="#dcdcdc"/><polygon points="192.02 125.346 193.306 123.867 192.02 122.387 190.733 123.867 192.02 125.346" fill="#dcdcdc"/><polygon points="192.02 117.081 193.306 115.602 192.02 114.122 190.733 115.602 192.02 117.081" fill="#dcdcdc"/><polygon points="199.211 171.972 197.924 173.452 199.211 174.932 200.497 173.452 199.211 171.972" fill="#dcdcdc"/><polygon points="199.211 163.709 197.924 165.188 199.211 166.668 200.497 165.188 199.211 163.709" fill="#dcdcdc"/><polygon points="199.211 155.444 197.924 156.923 199.211 158.403 200.497 156.923 199.211 155.444" fill="#dcdcdc"/><polygon points="199.211 147.18 197.924 148.659 199.211 150.139 200.497 148.659 199.211 147.18" fill="#dcdcdc"/><polygon points="199.211 138.916 197.924 140.395 199.211 141.874 200.497 140.395 199.211 138.916" fill="#dcdcdc"/><polygon points="199.211 130.651 197.924 132.13 199.211 133.61 200.497 132.13 199.211 130.651" fill="#dcdcdc"/><polygon points="199.211 122.387 197.924 123.867 199.211 125.346 200.497 123.867 199.211 122.387" fill="#dcdcdc"/><polygon points="199.211 114.122 197.924 115.602 199.211 117.081 200.497 115.602 199.211 114.122" fill="#dcdcdc"/><polygon points="207.69 173.452 206.402 171.972 205.115 173.452 206.402 174.932 207.69 173.452" fill="#dcdcdc"/><polygon points="206.402 163.709 205.115 165.188 206.402 166.668 207.691 165.188 206.402 163.709" fill="#dcdcdc"/><polygon points="206.402 155.444 205.115 156.923 206.402 158.403 207.691 156.923 206.402 155.444" fill="#dcdcdc"/><polygon points="206.402 147.18 205.115 148.659 206.402 150.139 207.691 148.659 206.402 147.18" fill="#dcdcdc"/><polygon points="206.402 138.916 205.115 140.395 206.402 141.874 207.691 140.395 206.402 138.916" fill="#dcdcdc"/><polygon points="206.402 130.651 205.115 132.13 206.402 133.61 207.691 132.13 206.402 130.651" fill="#dcdcdc"/><polygon points="206.402 122.387 205.115 123.867 206.402 125.346 207.691 123.867 206.402 122.387" fill="#dcdcdc"/><polygon points="206.402 114.122 205.115 115.602 206.402 117.081 207.691 115.602 206.402 114.122" fill="#dcdcdc"/><polygon points="213.594 171.972 212.307 173.452 213.594 174.932 214.881 173.452 213.594 171.972" fill="#dcdcdc"/><polygon points="213.594 163.709 212.307 165.188 213.594 166.668 214.881 165.188 213.594 163.709" fill="#dcdcdc"/><polygon points="213.594 155.444 212.307 156.923 213.594 158.403 214.881 156.923 213.594 155.444" fill="#dcdcdc"/><polygon points="213.594 147.18 212.307 148.659 213.594 150.139 214.881 148.659 213.594 147.18" fill="#dcdcdc"/><polygon points="213.594 138.916 212.307 140.395 213.594 141.874 214.881 140.395 213.594 138.916" fill="#dcdcdc"/><polygon points="213.594 130.651 212.307 132.13 213.594 133.61 214.881 132.13 213.594 130.651" fill="#dcdcdc"/><polygon points="213.594 122.387 212.307 123.867 213.594 125.346 214.881 123.867 213.594 122.387" fill="#dcdcdc"/><polygon points="213.594 114.122 212.307 115.602 213.594 117.081 214.881 115.602 213.594 114.122" fill="#dcdcdc"/><polygon points="220.785 171.972 219.498 173.452 220.785 174.932 222.072 173.452 220.785 171.972" fill="#dcdcdc"/><polygon points="220.785 163.709 219.498 165.188 220.785 166.668 222.072 165.188 220.785 163.709" fill="#dcdcdc"/><polygon points="220.785 155.444 219.498 156.923 220.785 158.403 222.072 156.923 220.785 155.444" fill="#dcdcdc"/><polygon points="220.785 147.18 219.498 148.659 220.785 150.139 222.072 148.659 220.785 147.18" fill="#dcdcdc"/><polygon points="220.785 138.916 219.498 140.395 220.785 141.874 222.072 140.395 220.785 138.916" fill="#dcdcdc"/><polygon points="220.785 130.651 219.498 132.13 220.785 133.61 222.072 132.13 220.785 130.651" fill="#dcdcdc"/><polygon points="220.785 122.387 219.498 123.867 220.785 125.346 222.072 123.867 220.785 122.387" fill="#dcdcdc"/><polygon points="220.785 114.122 219.498 115.602 220.785 117.081 222.072 115.602 220.785 114.122" fill="#dcdcdc"/><polygon points="227.977 171.972 226.689 173.452 227.977 174.932 229.264 173.452 227.977 171.972" fill="#dcdcdc"/><polygon points="227.977 163.709 226.688 165.188 227.977 166.668 229.264 165.188 227.977 163.709" fill="#dcdcdc"/><polygon points="227.977 155.444 226.688 156.923 227.977 158.403 229.264 156.923 227.977 155.444" fill="#dcdcdc"/><polygon points="227.977 147.18 226.688 148.659 227.977 150.139 229.264 148.659 227.977 147.18" fill="#dcdcdc"/><polygon points="227.977 138.916 226.688 140.395 227.977 141.874 229.264 140.395 227.977 138.916" fill="#dcdcdc"/><polygon points="227.977 130.651 226.688 132.13 227.977 133.61 229.264 132.13 227.977 130.651" fill="#dcdcdc"/><polygon points="227.977 122.387 226.688 123.867 227.977 125.346 229.264 123.867 227.977 122.387" fill="#dcdcdc"/><polygon points="227.977 114.122 226.688 115.602 227.977 117.081 229.264 115.602 227.977 114.122" fill="#dcdcdc"/><polygon points="235.168 171.972 233.881 173.452 235.168 174.932 236.455 173.452 235.168 171.972" fill="#dcdcdc"/><polygon points="235.168 163.709 233.881 165.188 235.168 166.668 236.455 165.188 235.168 163.709" fill="#dcdcdc"/><polygon points="235.168 155.444 233.881 156.923 235.168 158.403 236.455 156.923 235.168 155.444" fill="#dcdcdc"/><polygon points="235.168 147.18 233.881 148.659 235.168 150.139 236.455 148.659 235.168 147.18" fill="#dcdcdc"/><polygon points="235.168 138.916 233.881 140.395 235.168 141.874 236.455 140.395 235.168 138.916" fill="#dcdcdc"/><polygon points="235.168 130.651 233.881 132.13 235.168 133.61 236.455 132.13 235.168 130.651" fill="#dcdcdc"/><polygon points="235.168 122.387 233.881 123.867 235.168 125.346 236.455 123.867 235.168 122.387" fill="#dcdcdc"/><polygon points="235.168 114.122 233.881 115.602 235.168 117.081 236.455 115.602 235.168 114.122" fill="#dcdcdc"/><polygon points="243.647 173.452 242.359 171.972 241.072 173.452 242.359 174.932 243.647 173.452" fill="#dcdcdc"/><polygon points="242.359 163.709 241.072 165.188 242.359 166.668 243.648 165.188 242.359 163.709" fill="#dcdcdc"/><polygon points="242.359 155.444 241.072 156.923 242.359 158.403 243.648 156.923 242.359 155.444" fill="#dcdcdc"/><polygon points="242.359 147.18 241.072 148.659 242.359 150.139 243.648 148.659 242.359 147.18" fill="#dcdcdc"/><polygon points="242.359 138.916 241.072 140.395 242.359 141.874 243.648 140.395 242.359 138.916" fill="#dcdcdc"/><polygon points="242.359 130.651 241.072 132.13 242.359 133.61 243.648 132.13 242.359 130.651" fill="#dcdcdc"/><polygon points="242.359 122.387 241.072 123.867 242.359 125.346 243.648 123.867 242.359 122.387" fill="#dcdcdc"/><polygon points="242.359 114.122 241.072 115.602 242.359 117.081 243.648 115.602 242.359 114.122" fill="#dcdcdc"/><polygon points="249.551 171.972 248.264 173.452 249.551 174.932 250.838 173.452 249.551 171.972" fill="#dcdcdc"/><polygon points="249.551 163.709 248.264 165.188 249.551 166.668 250.838 165.188 249.551 163.709" fill="#dcdcdc"/><polygon points="249.551 155.444 248.264 156.923 249.551 158.403 250.838 156.923 249.551 155.444" fill="#dcdcdc"/><polygon points="249.551 147.18 248.264 148.659 249.551 150.139 250.838 148.659 249.551 147.18" fill="#dcdcdc"/><polygon points="249.551 138.916 248.264 140.395 249.551 141.874 250.838 140.395 249.551 138.916" fill="#dcdcdc"/><polygon points="249.551 130.651 248.264 132.13 249.551 133.61 250.838 132.13 249.551 130.651" fill="#dcdcdc"/><polygon points="249.551 122.387 248.264 123.867 249.551 125.346 250.838 123.867 249.551 122.387" fill="#dcdcdc"/><polygon points="249.551 114.122 248.264 115.602 249.551 117.081 250.838 115.602 249.551 114.122" fill="#dcdcdc"/><polygon points="256.742 171.972 255.455 173.452 256.742 174.932 258.029 173.452 256.742 171.972" fill="#dcdcdc"/><polygon points="256.742 163.709 255.455 165.188 256.742 166.668 258.029 165.188 256.742 163.709" fill="#dcdcdc"/><polygon points="256.742 155.444 255.455 156.923 256.742 158.403 258.029 156.923 256.742 155.444" fill="#dcdcdc"/><polygon points="256.742 147.18 255.455 148.659 256.742 150.139 258.029 148.659 256.742 147.18" fill="#dcdcdc"/><polygon points="256.742 138.916 255.455 140.395 256.742 141.874 258.029 140.395 256.742 138.916" fill="#dcdcdc"/><polygon points="256.742 130.651 255.455 132.13 256.742 133.61 258.029 132.13 256.742 130.651" fill="#dcdcdc"/><polygon points="256.742 122.387 255.455 123.867 256.742 125.346 258.029 123.867 256.742 122.387" fill="#dcdcdc"/><polygon points="256.742 114.122 255.455 115.602 256.742 117.081 258.029 115.602 256.742 114.122" fill="#dcdcdc"/><polygon points="262.646 173.452 263.934 174.932 265.221 173.452 263.934 171.972 262.646 173.452" fill="#dcdcdc"/><polygon points="263.934 166.668 265.221 165.188 263.934 163.709 262.645 165.188 263.934 166.668" fill="#dcdcdc"/><polygon points="263.934 158.403 265.221 156.923 263.934 155.444 262.645 156.923 263.934 158.403" fill="#dcdcdc"/><polygon points="263.934 150.139 265.221 148.659 263.934 147.18 262.645 148.659 263.934 150.139" fill="#dcdcdc"/><polygon points="263.934 141.874 265.221 140.395 263.934 138.916 262.645 140.395 263.934 141.874" fill="#dcdcdc"/><polygon points="263.934 133.61 265.221 132.13 263.934 130.651 262.645 132.13 263.934 133.61" fill="#dcdcdc"/><polygon points="263.934 125.346 265.221 123.867 263.934 122.387 262.645 123.867 263.934 125.346" fill="#dcdcdc"/><polygon points="263.934 117.081 265.221 115.602 263.934 114.122 262.645 115.602 263.934 117.081" fill="#dcdcdc"/><polygon points="271.125 171.972 269.839 173.452 271.125 174.932 272.412 173.452 271.125 171.972" fill="#dcdcdc"/><polygon points="271.125 163.709 269.839 165.188 271.125 166.668 272.412 165.188 271.125 163.709" fill="#dcdcdc"/><polygon points="271.125 155.444 269.839 156.923 271.125 158.403 272.412 156.923 271.125 155.444" fill="#dcdcdc"/><polygon points="271.125 147.18 269.839 148.659 271.125 150.139 272.412 148.659 271.125 147.18" fill="#dcdcdc"/><polygon points="271.125 138.916 269.839 140.395 271.125 141.874 272.412 140.395 271.125 138.916" fill="#dcdcdc"/><polygon points="271.125 130.651 269.839 132.13 271.125 133.61 272.412 132.13 271.125 130.651" fill="#dcdcdc"/><polygon points="271.125 122.387 269.839 123.867 271.125 125.346 272.412 123.867 271.125 122.387" fill="#dcdcdc"/><polygon points="271.125 114.122 269.839 115.602 271.125 117.081 272.412 115.602 271.125 114.122" fill="#dcdcdc"/><polygon points="277.03 173.452 278.316 174.932 279.604 173.452 278.316 171.972 277.03 173.452" fill="#dcdcdc"/><polygon points="278.316 163.709 277.03 165.188 278.316 166.668 279.606 165.188 278.316 163.709" fill="#dcdcdc"/><polygon points="278.316 155.444 277.03 156.923 278.316 158.403 279.606 156.923 278.316 155.444" fill="#dcdcdc"/><polygon points="278.316 147.18 277.03 148.659 278.316 150.139 279.606 148.659 278.316 147.18" fill="#dcdcdc"/><polygon points="278.316 138.916 277.03 140.395 278.316 141.874 279.606 140.395 278.316 138.916" fill="#dcdcdc"/><polygon points="278.316 130.651 277.03 132.13 278.316 133.61 279.606 132.13 278.316 130.651" fill="#dcdcdc"/><polygon points="278.316 122.387 277.03 123.867 278.316 125.346 279.606 123.867 278.316 122.387" fill="#dcdcdc"/><polygon points="278.316 114.122 277.03 115.602 278.316 117.081 279.606 115.602 278.316 114.122" fill="#dcdcdc"/><path d="M285.612,171.972l-1.287,1.48.269.309c.355-.581.7-1.168,1.046-1.756Z" fill="#dcdcdc"/><polygon points="284.325 165.188 285.612 166.668 286.899 165.188 285.612 163.709 284.325 165.188" fill="#dcdcdc"/><polygon points="285.612 155.444 284.325 156.923 285.612 158.403 286.899 156.923 285.612 155.444" fill="#dcdcdc"/><polygon points="285.612 147.18 284.325 148.659 285.612 150.139 286.899 148.659 285.612 147.18" fill="#dcdcdc"/><polygon points="285.612 138.916 284.325 140.395 285.612 141.874 286.899 140.395 285.612 138.916" fill="#dcdcdc"/><polygon points="285.612 130.651 284.325 132.13 285.612 133.61 286.899 132.13 285.612 130.651" fill="#dcdcdc"/><polygon points="285.612 122.387 284.325 123.867 285.612 125.346 286.899 123.867 285.612 122.387" fill="#dcdcdc"/><polygon points="285.612 114.122 284.325 115.602 285.612 117.081 286.899 115.602 285.612 114.122" fill="#dcdcdc"/><path d="M292.8,155.444l-1.287,1.479.969,1.115c.273-.678.536-1.362.794-2.047Z" fill="#dcdcdc"/><polygon points="291.516 148.659 292.803 150.139 294.092 148.659 292.803 147.18 291.516 148.659" fill="#dcdcdc"/><polygon points="292.803 138.916 291.516 140.395 292.803 141.874 294.092 140.395 292.803 138.916" fill="#dcdcdc"/><polygon points="292.803 130.651 291.516 132.13 292.803 133.61 294.092 132.13 292.803 130.651" fill="#dcdcdc"/><polygon points="292.803 122.387 291.516 123.867 292.803 125.346 294.092 123.867 292.803 122.387" fill="#dcdcdc"/><polygon points="292.803 114.122 291.516 115.602 292.803 117.081 294.092 115.602 292.803 114.122" fill="#dcdcdc"/><path d="M298.708,132.13l.421.484c.048-.374.091-.749.136-1.124Z" fill="#dcdcdc"/><path d="M298.708,123.867l1.122,1.289q.079-1.358.126-2.724Z" fill="#dcdcdc"/><path d="M298.708,115.6,300,117.081l0-.005q-.024-1.435-.085-2.861Z" fill="#dcdcdc"/><path d="M91.417,147.329c.187.667.383,1.33.582,1.991l.575-.661Z" fill="#dcdcdc"/><polygon points="92.574 140.395 91.287 138.916 90 140.395 91.287 141.874 92.574 140.395" fill="#dcdcdc"/><polygon points="90 132.13 91.287 133.61 92.574 132.13 91.287 130.651 90 132.13" fill="#dcdcdc"/><polygon points="91.287 122.387 90 123.867 91.287 125.346 92.574 123.867 91.287 122.387" fill="#dcdcdc"/><polygon points="91.287 114.122 90 115.602 91.287 117.081 92.574 115.602 91.287 114.122" fill="#dcdcdc"/><path d="M98.479,163.709l-.618.709c.3.633.617,1.261.934,1.887l.971-1.117Z" fill="#dcdcdc"/><polygon points="97.19 156.923 98.479 158.403 99.766 156.923 98.479 155.444 97.19 156.923" fill="#dcdcdc"/><polygon points="98.479 147.18 97.19 148.659 98.479 150.139 99.766 148.659 98.479 147.18" fill="#dcdcdc"/><polygon points="98.479 138.916 97.19 140.395 98.479 141.874 99.766 140.395 98.479 138.916" fill="#dcdcdc"/><polygon points="98.479 130.651 97.19 132.13 98.479 133.61 99.766 132.13 98.479 130.651" fill="#dcdcdc"/><polygon points="98.479 122.387 97.19 123.867 98.479 125.346 99.766 123.867 98.479 122.387" fill="#dcdcdc"/><polygon points="98.479 114.122 97.19 115.602 98.479 117.081 99.766 115.602 98.479 114.122" fill="#dcdcdc"/><polygon points="111.676 181.544 112.965 183.023 114.252 181.544 112.965 180.064 111.676 181.544" fill="#dcdcdc"/><polygon points="121.443 189.807 120.156 188.328 118.869 189.807 120.156 191.287 121.443 189.807" fill="#dcdcdc"/><polygon points="118.869 181.544 120.156 183.023 121.443 181.544 120.156 180.064 118.869 181.544" fill="#dcdcdc"/><polygon points="126.06 198.072 127.347 199.551 128.636 198.072 127.347 196.593 126.06 198.072" fill="#dcdcdc"/><polygon points="127.347 188.328 126.06 189.807 127.347 191.287 128.636 189.807 127.347 188.328" fill="#dcdcdc"/><polygon points="127.347 180.064 126.06 181.544 127.347 183.023 128.636 181.544 127.347 180.064" fill="#dcdcdc"/><path d="M134.539,204.857l-.98,1.127q.807.552,1.624,1.091l.643-.739Z" fill="#dcdcdc"/><polygon points="133.253 198.072 134.539 199.551 135.826 198.072 134.539 196.593 133.253 198.072" fill="#dcdcdc"/><polygon points="134.539 188.328 133.253 189.807 134.539 191.287 135.826 189.807 134.539 188.328" fill="#dcdcdc"/><polygon points="134.539 180.064 133.253 181.544 134.539 183.023 135.826 181.544 134.539 180.064" fill="#dcdcdc"/><polygon points="140.444 206.336 141.73 207.816 143.017 206.336 141.73 204.857 140.444 206.336" fill="#dcdcdc"/><polygon points="141.73 196.593 140.444 198.072 141.73 199.551 143.017 198.072 141.73 196.593" fill="#dcdcdc"/><polygon points="141.73 188.328 140.444 189.807 141.73 191.287 143.017 189.807 141.73 188.328" fill="#dcdcdc"/><polygon points="141.73 180.064 140.444 181.544 141.73 183.023 143.017 181.544 141.73 180.064" fill="#dcdcdc"/><path d="M148.922,213.121l-1,1.149q.912.435,1.834.852l.455-.522Z" fill="#dcdcdc"/><polygon points="147.635 206.336 148.922 207.816 150.211 206.336 148.922 204.857 147.635 206.336" fill="#dcdcdc"/><polygon points="148.922 196.593 147.635 198.072 148.922 199.551 150.211 198.072 148.922 196.593" fill="#dcdcdc"/><polygon points="148.922 188.328 147.635 189.807 148.922 191.287 150.211 189.807 148.922 188.328" fill="#dcdcdc"/><polygon points="148.922 180.064 147.635 181.544 148.922 183.023 150.211 181.544 148.922 180.064" fill="#dcdcdc"/><polygon points="154.827 214.6 156.114 216.08 157.401 214.6 156.114 213.121 154.827 214.6" fill="#dcdcdc"/><polygon points="156.114 204.857 154.827 206.336 156.114 207.816 157.401 206.336 156.114 204.857" fill="#dcdcdc"/><polygon points="156.114 196.593 154.827 198.072 156.114 199.551 157.401 198.072 156.114 196.593" fill="#dcdcdc"/><polygon points="156.114 188.328 154.827 189.807 156.114 191.287 157.401 189.807 156.114 188.328" fill="#dcdcdc"/><polygon points="156.114 180.064 154.827 181.544 156.114 183.023 157.401 181.544 156.114 180.064" fill="#dcdcdc"/><polygon points="162.018 214.6 163.305 216.08 164.592 214.6 163.305 213.121 162.018 214.6" fill="#dcdcdc"/><polygon points="163.305 204.857 162.018 206.336 163.305 207.816 164.592 206.336 163.305 204.857" fill="#dcdcdc"/><polygon points="163.305 196.593 162.018 198.072 163.305 199.551 164.592 198.072 163.305 196.593" fill="#dcdcdc"/><polygon points="163.305 188.328 162.018 189.807 163.305 191.287 164.592 189.807 163.305 188.328" fill="#dcdcdc"/><polygon points="163.305 180.064 162.018 181.544 163.305 183.023 164.592 181.544 163.305 180.064" fill="#dcdcdc"/><polygon points="169.208 214.6 170.497 216.08 171.784 214.6 170.497 213.121 169.208 214.6" fill="#dcdcdc"/><polygon points="170.497 204.857 169.208 206.336 170.497 207.816 171.784 206.336 170.497 204.857" fill="#dcdcdc"/><polygon points="170.497 196.593 169.208 198.072 170.497 199.551 171.784 198.072 170.497 196.593" fill="#dcdcdc"/><polygon points="170.497 188.328 169.208 189.807 170.497 191.287 171.784 189.807 170.497 188.328" fill="#dcdcdc"/><polygon points="170.497 180.064 169.208 181.544 170.497 183.023 171.784 181.544 170.497 180.064" fill="#dcdcdc"/><polygon points="177.688 216.08 178.975 214.6 177.688 213.121 176.401 214.6 177.688 216.08" fill="#dcdcdc"/><polygon points="177.688 207.816 178.975 206.336 177.688 204.857 176.401 206.336 177.688 207.816" fill="#dcdcdc"/><polygon points="177.688 199.551 178.975 198.072 177.688 196.593 176.401 198.072 177.688 199.551" fill="#dcdcdc"/><polygon points="177.688 191.287 178.975 189.807 177.688 188.328 176.401 189.807 177.688 191.287" fill="#dcdcdc"/><polygon points="177.688 183.023 178.975 181.544 177.688 180.064 176.401 181.544 177.688 183.023" fill="#dcdcdc"/><polygon points="184.879 216.08 186.168 214.6 184.879 213.121 183.592 214.6 184.879 216.08" fill="#dcdcdc"/><polygon points="184.879 207.816 186.168 206.336 184.879 204.857 183.592 206.336 184.879 207.816" fill="#dcdcdc"/><polygon points="184.879 199.551 186.168 198.072 184.879 196.593 183.592 198.072 184.879 199.551" fill="#dcdcdc"/><polygon points="184.879 191.287 186.168 189.807 184.879 188.328 183.592 189.807 184.879 191.287" fill="#dcdcdc"/><polygon points="184.879 183.023 186.168 181.544 184.879 180.064 183.592 181.544 184.879 183.023" fill="#dcdcdc"/><polygon points="104.486 173.452 105.773 174.932 107.06 173.452 105.773 171.972 104.486 173.452" fill="#dcdcdc"/><polygon points="105.773 163.709 104.486 165.188 105.773 166.668 107.06 165.188 105.773 163.709" fill="#dcdcdc"/><polygon points="105.773 155.444 104.486 156.923 105.773 158.403 107.06 156.923 105.773 155.444" fill="#dcdcdc"/><polygon points="105.773 147.18 104.486 148.659 105.773 150.139 107.06 148.659 105.773 147.18" fill="#dcdcdc"/><polygon points="105.773 138.916 104.486 140.395 105.773 141.874 107.06 140.395 105.773 138.916" fill="#dcdcdc"/><polygon points="105.773 130.651 104.486 132.13 105.773 133.61 107.06 132.13 105.773 130.651" fill="#dcdcdc"/><polygon points="105.773 122.387 104.486 123.867 105.773 125.346 107.06 123.867 105.773 122.387" fill="#dcdcdc"/><polygon points="105.773 114.122 104.486 115.602 105.773 117.081 107.06 115.602 105.773 114.122" fill="#dcdcdc"/><polygon points="112.965 171.972 111.677 173.452 112.965 174.932 114.252 173.452 112.965 171.972" fill="#dcdcdc"/><polygon points="112.965 163.709 111.676 165.188 112.965 166.668 114.252 165.188 112.965 163.709" fill="#dcdcdc"/><polygon points="112.965 155.444 111.676 156.923 112.965 158.403 114.252 156.923 112.965 155.444" fill="#dcdcdc"/><polygon points="112.965 147.18 111.676 148.659 112.965 150.139 114.252 148.659 112.965 147.18" fill="#dcdcdc"/><polygon points="112.965 138.916 111.676 140.395 112.965 141.874 114.252 140.395 112.965 138.916" fill="#dcdcdc"/><polygon points="112.965 130.651 111.676 132.13 112.965 133.61 114.252 132.13 112.965 130.651" fill="#dcdcdc"/><polygon points="112.965 122.387 111.676 123.867 112.965 125.346 114.252 123.867 112.965 122.387" fill="#dcdcdc"/><polygon points="112.965 114.122 111.676 115.602 112.965 117.081 114.252 115.602 112.965 114.122" fill="#dcdcdc"/><polygon points="120.156 171.972 118.869 173.452 120.156 174.932 121.443 173.452 120.156 171.972" fill="#dcdcdc"/><polygon points="120.156 163.709 118.869 165.188 120.156 166.668 121.443 165.188 120.156 163.709" fill="#dcdcdc"/><polygon points="120.156 155.444 118.869 156.923 120.156 158.403 121.443 156.923 120.156 155.444" fill="#dcdcdc"/><polygon points="120.156 147.18 118.869 148.659 120.156 150.139 121.443 148.659 120.156 147.18" fill="#dcdcdc"/><polygon points="120.156 138.916 118.869 140.395 120.156 141.874 121.443 140.395 120.156 138.916" fill="#dcdcdc"/><polygon points="120.156 130.651 118.869 132.13 120.156 133.61 121.443 132.13 120.156 130.651" fill="#dcdcdc"/><polygon points="120.156 122.387 118.869 123.867 120.156 125.346 121.443 123.867 120.156 122.387" fill="#dcdcdc"/><polygon points="120.156 114.122 118.869 115.602 120.156 117.081 121.443 115.602 120.156 114.122" fill="#dcdcdc"/><polygon points="128.635 173.452 127.347 171.972 126.06 173.452 127.347 174.932 128.635 173.452" fill="#dcdcdc"/><polygon points="127.347 163.709 126.06 165.188 127.347 166.668 128.636 165.188 127.347 163.709" fill="#dcdcdc"/><polygon points="127.347 155.444 126.06 156.923 127.347 158.403 128.636 156.923 127.347 155.444" fill="#dcdcdc"/><polygon points="127.347 147.18 126.06 148.659 127.347 150.139 128.636 148.659 127.347 147.18" fill="#dcdcdc"/><polygon points="127.347 138.916 126.06 140.395 127.347 141.874 128.636 140.395 127.347 138.916" fill="#dcdcdc"/><polygon points="127.347 130.651 126.06 132.13 127.347 133.61 128.636 132.13 127.347 130.651" fill="#dcdcdc"/><polygon points="127.347 122.387 126.06 123.867 127.347 125.346 128.636 123.867 127.347 122.387" fill="#dcdcdc"/><polygon points="127.347 114.122 126.06 115.602 127.347 117.081 128.636 115.602 127.347 114.122" fill="#dcdcdc"/><polygon points="134.539 171.972 133.253 173.452 134.539 174.932 135.826 173.452 134.539 171.972" fill="#dcdcdc"/><polygon points="134.539 163.709 133.253 165.188 134.539 166.668 135.826 165.188 134.539 163.709" fill="#dcdcdc"/><polygon points="134.539 155.444 133.253 156.923 134.539 158.403 135.826 156.923 134.539 155.444" fill="#dcdcdc"/><polygon points="134.539 147.18 133.253 148.659 134.539 150.139 135.826 148.659 134.539 147.18" fill="#dcdcdc"/><polygon points="134.539 138.916 133.253 140.395 134.539 141.874 135.826 140.395 134.539 138.916" fill="#dcdcdc"/><polygon points="134.539 130.651 133.253 132.13 134.539 133.61 135.826 132.13 134.539 130.651" fill="#dcdcdc"/><polygon points="134.539 122.387 133.253 123.867 134.539 125.346 135.826 123.867 134.539 122.387" fill="#dcdcdc"/><polygon points="134.539 114.122 133.253 115.602 134.539 117.081 135.826 115.602 134.539 114.122" fill="#dcdcdc"/><polygon points="141.73 171.972 140.444 173.452 141.73 174.932 143.017 173.452 141.73 171.972" fill="#dcdcdc"/><polygon points="141.73 163.709 140.444 165.188 141.73 166.668 143.017 165.188 141.73 163.709" fill="#dcdcdc"/><polygon points="141.73 155.444 140.444 156.923 141.73 158.403 143.017 156.923 141.73 155.444" fill="#dcdcdc"/><polygon points="141.73 147.18 140.444 148.659 141.73 150.139 143.017 148.659 141.73 147.18" fill="#dcdcdc"/><polygon points="141.73 138.916 140.444 140.395 141.73 141.874 143.017 140.395 141.73 138.916" fill="#dcdcdc"/><polygon points="141.73 130.651 140.444 132.13 141.73 133.61 143.017 132.13 141.73 130.651" fill="#dcdcdc"/><polygon points="141.73 122.387 140.444 123.867 141.73 125.346 143.017 123.867 141.73 122.387" fill="#dcdcdc"/><polygon points="141.73 114.122 140.444 115.602 141.73 117.081 143.017 115.602 141.73 114.122" fill="#dcdcdc"/><polygon points="150.21 173.452 148.922 171.972 147.635 173.452 148.922 174.932 150.21 173.452" fill="#dcdcdc"/><polygon points="148.922 163.709 147.635 165.188 148.922 166.668 150.211 165.188 148.922 163.709" fill="#dcdcdc"/><polygon points="148.922 155.444 147.635 156.923 148.922 158.403 150.211 156.923 148.922 155.444" fill="#dcdcdc"/><polygon points="148.922 147.18 147.635 148.659 148.922 150.139 150.211 148.659 148.922 147.18" fill="#dcdcdc"/><polygon points="148.922 138.916 147.635 140.395 148.922 141.874 150.211 140.395 148.922 138.916" fill="#dcdcdc"/><polygon points="148.922 130.651 147.635 132.13 148.922 133.61 150.211 132.13 148.922 130.651" fill="#dcdcdc"/><polygon points="148.922 122.387 147.635 123.867 148.922 125.346 150.211 123.867 148.922 122.387" fill="#dcdcdc"/><polygon points="148.922 114.122 147.635 115.602 148.922 117.081 150.211 115.602 148.922 114.122" fill="#dcdcdc"/><polygon points="156.114 171.972 154.827 173.452 156.114 174.932 157.401 173.452 156.114 171.972" fill="#dcdcdc"/><polygon points="156.114 163.709 154.827 165.188 156.114 166.668 157.401 165.188 156.114 163.709" fill="#dcdcdc"/><polygon points="156.114 155.444 154.827 156.923 156.114 158.403 157.401 156.923 156.114 155.444" fill="#dcdcdc"/><polygon points="156.114 147.18 154.827 148.659 156.114 150.139 157.401 148.659 156.114 147.18" fill="#dcdcdc"/><polygon points="156.114 138.916 154.827 140.395 156.114 141.874 157.401 140.395 156.114 138.916" fill="#dcdcdc"/><polygon points="156.114 130.651 154.827 132.13 156.114 133.61 157.401 132.13 156.114 130.651" fill="#dcdcdc"/><polygon points="156.114 122.387 154.827 123.867 156.114 125.346 157.401 123.867 156.114 122.387" fill="#dcdcdc"/><polygon points="156.114 114.122 154.827 115.602 156.114 117.081 157.401 115.602 156.114 114.122" fill="#dcdcdc"/><polygon points="163.305 171.972 162.018 173.452 163.305 174.932 164.592 173.452 163.305 171.972" fill="#dcdcdc"/><polygon points="163.305 163.709 162.018 165.188 163.305 166.668 164.592 165.188 163.305 163.709" fill="#dcdcdc"/><polygon points="163.305 155.444 162.018 156.923 163.305 158.403 164.592 156.923 163.305 155.444" fill="#dcdcdc"/><polygon points="163.305 147.18 162.018 148.659 163.305 150.139 164.592 148.659 163.305 147.18" fill="#dcdcdc"/><polygon points="163.305 138.916 162.018 140.395 163.305 141.874 164.592 140.395 163.305 138.916" fill="#dcdcdc"/><polygon points="163.305 130.651 162.018 132.13 163.305 133.61 164.592 132.13 163.305 130.651" fill="#dcdcdc"/><polygon points="163.305 122.387 162.018 123.867 163.305 125.346 164.592 123.867 163.305 122.387" fill="#dcdcdc"/><polygon points="163.305 114.122 162.018 115.602 163.305 117.081 164.592 115.602 163.305 114.122" fill="#dcdcdc"/><polygon points="170.497 171.972 169.209 173.452 170.497 174.932 171.784 173.452 170.497 171.972" fill="#dcdcdc"/><polygon points="170.497 163.709 169.208 165.188 170.497 166.668 171.784 165.188 170.497 163.709" fill="#dcdcdc"/><polygon points="170.497 155.444 169.208 156.923 170.497 158.403 171.784 156.923 170.497 155.444" fill="#dcdcdc"/><polygon points="170.497 147.18 169.208 148.659 170.497 150.139 171.784 148.659 170.497 147.18" fill="#dcdcdc"/><polygon points="170.497 138.916 169.208 140.395 170.497 141.874 171.784 140.395 170.497 138.916" fill="#dcdcdc"/><polygon points="170.497 130.651 169.208 132.13 170.497 133.61 171.784 132.13 170.497 130.651" fill="#dcdcdc"/><polygon points="170.497 122.387 169.208 123.867 170.497 125.346 171.784 123.867 170.497 122.387" fill="#dcdcdc"/><polygon points="170.497 114.122 169.208 115.602 170.497 117.081 171.784 115.602 170.497 114.122" fill="#dcdcdc"/><polygon points="177.688 174.932 178.975 173.452 177.688 171.972 176.401 173.452 177.688 174.932" fill="#dcdcdc"/><polygon points="177.688 166.668 178.975 165.188 177.688 163.709 176.401 165.188 177.688 166.668" fill="#dcdcdc"/><polygon points="177.688 158.403 178.975 156.923 177.688 155.444 176.401 156.923 177.688 158.403" fill="#dcdcdc"/><polygon points="177.688 150.139 178.975 148.659 177.688 147.18 176.401 148.659 177.688 150.139" fill="#dcdcdc"/><polygon points="177.688 141.874 178.975 140.395 177.688 138.916 176.401 140.395 177.688 141.874" fill="#dcdcdc"/><polygon points="177.688 133.61 178.975 132.13 177.688 130.651 176.401 132.13 177.688 133.61" fill="#dcdcdc"/><polygon points="177.688 125.346 178.975 123.867 177.688 122.387 176.401 123.867 177.688 125.346" fill="#dcdcdc"/><polygon points="177.688 117.081 178.975 115.602 177.688 114.122 176.401 115.602 177.688 117.081" fill="#dcdcdc"/><polygon points="184.879 174.932 186.167 173.452 184.879 171.972 183.592 173.452 184.879 174.932" fill="#dcdcdc"/><polygon points="184.879 166.668 186.168 165.188 184.879 163.709 183.592 165.188 184.879 166.668" fill="#dcdcdc"/><polygon points="184.879 158.403 186.168 156.923 184.879 155.444 183.592 156.923 184.879 158.403" fill="#dcdcdc"/><polygon points="184.879 150.139 186.168 148.659 184.879 147.18 183.592 148.659 184.879 150.139" fill="#dcdcdc"/><polygon points="184.879 141.874 186.168 140.395 184.879 138.916 183.592 140.395 184.879 141.874" fill="#dcdcdc"/><polygon points="184.879 133.61 186.168 132.13 184.879 130.651 183.592 132.13 184.879 133.61" fill="#dcdcdc"/><polygon points="184.879 125.346 186.168 123.867 184.879 122.387 183.592 123.867 184.879 125.346" fill="#dcdcdc"/><polygon points="184.879 117.081 186.168 115.602 184.879 114.122 183.592 115.602 184.879 117.081" fill="#dcdcdc"/><polygon points="192.02 224.363 193.306 222.884 192.02 221.405 190.733 222.884 192.02 224.363" fill="#dcdcdc"/><polygon points="200.497 222.884 199.211 221.405 197.924 222.884 199.211 224.363 200.497 222.884" fill="#dcdcdc"/><path d="M206.4,221.405l-1.287,1.479.879,1.011c.3-.035.6-.067.906-.1l.791-.907Z" fill="#dcdcdc"/><path d="M213.594,221.405l-1.287,1.479.079.091c.74-.13,1.477-.271,2.211-.416Z" fill="#dcdcdc"/><path d="M170.5,221.405l-.469.538c.383.087.769.167,1.154.25Z" fill="#dcdcdc"/><path d="M177.688,221.405l-1.287,1.479.3.347q.867.14,1.74.265l.532-.612Z" fill="#dcdcdc"/><path d="M184.879,221.405l-1.287,1.479,1.155,1.328.245.022,1.176-1.35Z" fill="#dcdcdc"/><polygon points="218 163 229 151.942 229 61 218 50 82 50 71 61 71 152 82 163 218 163" fill="#e4f5fa"/><path d="M229.5,61a.5.5,0,0,0-.146-.354l-11-11A.5.5,0,0,0,218,49.5H82a.5.5,0,0,0-.354.146l-11,11A.5.5,0,0,0,70.5,61v91a.507.507,0,0,0,.147.354l11,11A.5.5,0,0,0,82,163.5h52.323l-7.693,25H120a.5.5,0,0,0,0,1h60a.5.5,0,0,0,0-1h-6.63l-7.693-25H218a.5.5,0,0,0,.354-.147l10.833-10.891A.5.5,0,0,0,229.5,152c0-.01,0-.019-.006-.029a.265.265,0,0,0,.006-.03ZM82.207,50.5H217.793L228.5,61.207V151.5H71.5V61.207Zm45.47,138,2.462-8h39.722l2.462,8Zm41.877-9H130.446l4.924-16h29.26Zm48.238-17H82.207l-10-10H227.739Z" fill="#226d7a"/><polygon points="161.739 120.593 157.623 122.641 167.047 132.612 174.793 125.425 161.739 120.593" fill="#22b8d1"/><polygon points="151.242 142.891 156.338 135.251 151.183 132.267 145.691 136.207 151.242 142.891" fill="#22b8d1"/><polygon points="131.26 89.209 120.608 88.183 125.843 80.732 131.26 89.209" fill="#22b8d1"/><polygon points="170.874 108.214 161.304 113 161.782 103.906 170.874 108.214" fill="#22b8d1"/><path d="M154.9,65.337c.271-.04.473-.068.81-.119a10.712,10.712,0,0,1,2.541-.094,18.653,18.653,0,0,1,1.887.139c.853-1.711,1.776-3.432,2.707-5.088l-.009-.066a20.647,20.647,0,0,1,6.172,2.552c-.489,1.865-1.056,3.675-1.62,5.484.54.4,1.084.809,1.559,1.222a11.612,11.612,0,0,1,1.561,1.7,4.272,4.272,0,0,1,.57.608c1.854-.546,3.7-1.158,5.552-1.7.455.762.921,1.589,1.319,2.429a2.5,2.5,0,0,1,.234.655,1.515,1.515,0,0,1,.3.647c.32.782.574,1.574.828,2.366-1.717,1.008-3.386,1.871-5.058,2.736.05.337.1.677.139.949.019.135.03.2.039.27.051.82.092,1.573.065,2.336a9.336,9.336,0,0,1-.209,1.9c1.713.853,3.435,1.778,5.079,2.643l.077.06a5.769,5.769,0,0,1-.3,1.214,10.659,10.659,0,0,1-.737,2.043,11.758,11.758,0,0,1-1.444,2.9l-.068.01c-1.807-.567-3.606-1.065-5.416-1.628A12.867,12.867,0,0,1,170.247,93a10.066,10.066,0,0,1-1.671,1.682L163.009,88a8.159,8.159,0,0,0,2.306-9.472,7.863,7.863,0,0,0-4.506-4.383,8.156,8.156,0,0,0-10.6,4.509,8.255,8.255,0,0,0,4.519,10.662,8.223,8.223,0,0,0,2.493.571l1.7,8.726a9.125,9.125,0,0,1-1.736.013,11.149,11.149,0,0,1-2.1-.178c-.854,1.712-1.719,3.357-2.641,5.08a24.458,24.458,0,0,1-6.162-2.486l-.011-.069c.566-1.809,1.065-3.608,1.618-5.485-.463-.345-.86-.7-1.326-1.048a13.706,13.706,0,0,1-1.8-1.946c-.166-.184-.34-.433-.582-.681-1.776.606-3.63,1.155-5.482,1.7a13.38,13.38,0,0,1-1.147-2.181,10.446,10.446,0,0,1-.526-1.237,22.714,22.714,0,0,1-.943-2.691c1.717-1.011,3.375-1.94,5.115-2.814-.04-.272-.078-.541-.119-.811l-.01-.069a12.773,12.773,0,0,1-.131-2.328c.037-.7.141-1.4.246-2.108a.067.067,0,0,1-.077-.056c-1.713-.858-3.434-1.776-5.147-2.636.155-.367.242-.723.336-1.014a16.949,16.949,0,0,1,.67-2.031,22.219,22.219,0,0,1,1.616-3.135c1.865.489,3.672,1.053,5.548,1.609.349-.461.7-.859,1.052-1.326.538-.561,1.145-1.134,1.7-1.627.07-.009.126-.086.194-.1.183-.166.433-.339.616-.5-.611-1.845-1.157-3.7-1.772-5.54a26.053,26.053,0,0,1,2.375-1.243c.191-.1.386-.2.647-.3a3.435,3.435,0,0,0,.646-.3c.859-.258,1.709-.592,2.511-.779C153.1,61.939,153.972,63.678,154.9,65.337Z" fill="#22b8d1"/><path d="M152.451,104.023a.476.476,0,0,1-.118-.014,24.985,24.985,0,0,1-6.288-2.536.5.5,0,0,1-.25-.356.834.834,0,0,1,.006-.3c.383-1.222.734-2.44,1.093-3.68l.426-1.467c-.139-.109-.274-.219-.409-.329-.208-.169-.416-.339-.64-.507a14.132,14.132,0,0,1-1.893-2.034c-.05-.055-.121-.142-.2-.236-.046-.057-.094-.116-.145-.177-1.744.585-3.569,1.122-5.19,1.6a.5.5,0,0,1-.562-.21,13.911,13.911,0,0,1-1.188-2.261,10.262,10.262,0,0,1-.534-1.259,21.005,21.005,0,0,1-.9-2.551l-.05-.162a.5.5,0,0,1,.224-.577c1.8-1.06,3.342-1.913,4.822-2.667l-.067-.452a13.752,13.752,0,0,1-.146-2.489c.033-.62.115-1.23.2-1.823-.8-.4-1.6-.818-2.4-1.233-.834-.431-1.667-.863-2.5-1.281a.5.5,0,0,1-.236-.641,6.4,6.4,0,0,0,.233-.686l.088-.288a17.07,17.07,0,0,1,.677-2.053,22.819,22.819,0,0,1,1.66-3.223.5.5,0,0,1,.551-.219c1.435.377,2.8.787,4.252,1.222l.984.294c.1-.126.2-.249.3-.372.179-.22.358-.438.535-.676.657-.691,1.317-1.3,1.762-1.7a.489.489,0,0,1,.162-.1.9.9,0,0,1,.1-.061c.086-.073.18-.147.274-.22l.025-.02c-.26-.794-.509-1.59-.759-2.386-.3-.943-.592-1.886-.905-2.826a.5.5,0,0,1,.218-.587,26.2,26.2,0,0,1,2.418-1.267c.187-.095.393-.2.668-.313a2.321,2.321,0,0,1,.226-.091,1.271,1.271,0,0,0,.324-.156.522.522,0,0,1,.144-.071c.317-.095.632-.2.945-.3.527-.177,1.072-.36,1.6-.482a.5.5,0,0,1,.542.228c.633,1.049,1.221,2.14,1.789,3.195.285.528.568,1.053.855,1.571l.468-.068a11.223,11.223,0,0,1,2.665-.1,8.545,8.545,0,0,1,1.244.078c.1.011.2.022.3.031.751-1.493,1.6-3.083,2.525-4.732a.5.5,0,0,1,.137-.232.512.512,0,0,1,.448-.149,21.089,21.089,0,0,1,6.319,2.615.5.5,0,0,1,.22.551c-.462,1.759-1,3.489-1.522,5.168.436.326.9.68,1.305,1.034a12.377,12.377,0,0,1,1.6,1.734,2.924,2.924,0,0,1,.375.384c.81-.242,1.619-.5,2.427-.748.937-.293,1.874-.587,2.813-.862a.5.5,0,0,1,.57.223c.564.947.991,1.732,1.342,2.471a3.243,3.243,0,0,1,.252.673,1.945,1.945,0,0,1,.315.706c.317.782.571,1.577.819,2.346a.506.506,0,0,1-.222.589c-1.622.952-3.217,1.784-4.764,2.585l.127.874c.053.84.1,1.628.069,2.418a8.205,8.205,0,0,1-.151,1.6c1.252.63,2.506,1.293,3.728,1.939l1.026.542c.024.013.126.088.148.105a.5.5,0,0,1,.189.483,6.216,6.216,0,0,1-.336,1.322,10.415,10.415,0,0,1-.746,2.062,12.058,12.058,0,0,1-1.483,2.97.5.5,0,0,1-.342.214.848.848,0,0,1-.289-.008c-.937-.3-1.873-.57-2.809-.846-.755-.222-1.511-.445-2.268-.677a11.69,11.69,0,0,1-1.067,1.261,10.057,10.057,0,0,1-1.708,1.716.5.5,0,0,1-.7-.067l-5.567-6.683a.5.5,0,0,1,.066-.7,7.679,7.679,0,0,0,2.231-3.072,7.586,7.586,0,0,0-.068-5.822,7.306,7.306,0,0,0-4.22-4.108,7.638,7.638,0,0,0-9.884,10.1,7.3,7.3,0,0,0,4.165,4.134,7.747,7.747,0,0,0,2.35.537.5.5,0,0,1,.451.4l1.7,8.727a.5.5,0,0,1-.445.593,22.93,22.93,0,0,1-3.593-.115c-.872,1.737-1.742,3.378-2.485,4.768A.5.5,0,0,1,152.451,104.023Zm-5.591-3.243a24.02,24.02,0,0,0,5.334,2.162c.745-1.4,1.6-3.019,2.451-4.722a.505.505,0,0,1,.522-.272,10.681,10.681,0,0,0,2,.173,8.613,8.613,0,0,0,1.158.027l-1.519-7.8a8.489,8.489,0,0,1-2.263-.569,8.259,8.259,0,0,1-4.71-4.665A8.642,8.642,0,0,1,161,73.677a8.356,8.356,0,0,1,4.773,4.642,8.577,8.577,0,0,1,.08,6.591,8.727,8.727,0,0,1-2.145,3.14l4.931,5.92a8.591,8.591,0,0,0,1.209-1.274,13.276,13.276,0,0,0,1.232-1.489.5.5,0,0,1,.549-.179c.866.27,1.729.524,2.592.778.839.247,1.677.494,2.516.755a11.163,11.163,0,0,0,1.2-2.5,10.468,10.468,0,0,0,.726-2,4.644,4.644,0,0,0,.234-.835l-.782-.421c-1.323-.7-2.685-1.42-4.041-2.1a.5.5,0,0,1-.269-.536,9.005,9.005,0,0,0,.2-1.794c.026-.776-.013-1.507-.064-2.317l-.173-1.178a.5.5,0,0,1,.265-.518c1.524-.788,3.1-1.6,4.688-2.521-.21-.651-.431-1.309-.692-1.947a.536.536,0,0,1-.032-.119,1.08,1.08,0,0,0-.217-.431.5.5,0,0,1-.084-.209,2.033,2.033,0,0,0-.185-.507c-.3-.632-.653-1.292-1.105-2.064-.809.241-1.616.494-2.424.746-.917.288-1.835.575-2.755.846a.5.5,0,0,1-.514-.146l-.152-.18a2.275,2.275,0,0,0-.346-.363.492.492,0,0,1-.109-.114,11.221,11.221,0,0,0-1.5-1.628c-.451-.392-.991-.794-1.513-1.184a.5.5,0,0,1-.178-.549c.532-1.706,1.06-3.4,1.518-5.1a20.031,20.031,0,0,0-5.3-2.2c-.937,1.675-1.79,3.285-2.54,4.79a.484.484,0,0,1-.484.276c-.221-.016-.443-.04-.665-.064a8.234,8.234,0,0,0-1.17-.074,10.327,10.327,0,0,0-2.485.089l-.808.119a.505.505,0,0,1-.51-.25c-.349-.621-.689-1.252-1.031-1.886-.505-.938-1.025-1.9-1.575-2.834-.37.1-.754.231-1.154.366-.3.1-.6.2-.9.293a2.26,2.26,0,0,1-.485.229c-.054.02-.106.039-.157.063-.276.116-.46.209-.641.3-.794.373-1.425.7-2,1.025.269.818.526,1.638.783,2.458.282.9.564,1.8.862,2.7a.5.5,0,0,1-.142.53c-.1.087-.21.176-.324.265s-.2.158-.289.236a.493.493,0,0,1-.158.1.839.839,0,0,1-.107.064c-.429.387-1.034.95-1.6,1.539-.146.2-.334.433-.522.663-.164.2-.329.4-.492.618a.5.5,0,0,1-.541.178l-1.314-.393c-1.319-.395-2.57-.77-3.859-1.116a21.832,21.832,0,0,0-1.388,2.75,16.323,16.323,0,0,0-.644,1.954l-.092.3c-.033.112-.068.229-.108.35.7.356,1.408.721,2.112,1.085.879.455,1.758.91,2.636,1.349a.491.491,0,0,1,.109.075.494.494,0,0,1,.239.5c-.1.677-.206,1.377-.242,2.061a12.354,12.354,0,0,0,.127,2.228l.129.879a.5.5,0,0,1-.27.52c-1.466.737-2.982,1.567-4.746,2.6a18.942,18.942,0,0,0,.805,2.255,10.554,10.554,0,0,0,.517,1.218,13.039,13.039,0,0,0,.922,1.818c1.617-.476,3.41-1.008,5.1-1.585a.5.5,0,0,1,.518.123,6.313,6.313,0,0,1,.416.479c.064.079.123.153.182.217a13.524,13.524,0,0,0,1.751,1.9c.213.158.432.336.65.514s.424.345.652.515a.5.5,0,0,1,.181.542l-.521,1.792C147.527,98.549,147.205,99.664,146.86,100.78Z" fill="#226d7a"/><path d="M146.13,113.187a1.177,1.177,0,0,0,.034-.667,7.556,7.556,0,0,0-.008-1.41l-5.827.254a5.4,5.4,0,0,1-2.9,5.728,4.813,4.813,0,0,1-4.111.3,4.923,4.923,0,0,1-3.17-2.718,5.214,5.214,0,0,1-.3-4.109,5.4,5.4,0,0,1,6.881-3.458,5.292,5.292,0,0,1,1.8,1.016l3.941-4.2a7.761,7.761,0,0,0-1.081-.822c-.2-.13-.354-.24-.5-.352.274-1.2.568-2.463.807-3.742a14.076,14.076,0,0,0-1.519-.627l-.832-.276a10.74,10.74,0,0,0-1.889-.441c-.5,1.132-1.017,2.316-1.532,3.5-.185,0-.369,0-.554,0a6.207,6.207,0,0,0-1.555.041,6.661,6.661,0,0,0-1.389.278c.018-.055.018-.055-.036-.074-.632-1.071-1.319-2.162-2.025-3.2-.2.055-.406.111-.685.2a7.953,7.953,0,0,0-1.258.631,14.877,14.877,0,0,0-2,1.189c.465,1.2.93,2.405,1.414,3.554l-.018.055c-.26.221-.536.5-.813.777a13.366,13.366,0,0,0-.943,1.169c-.018.055-.036.111-.091.093a1.156,1.156,0,0,1-.278.462c-1.26-.293-2.52-.589-3.723-.862a17.387,17.387,0,0,0-.72,1.612c-.055.166-.111.332-.165.5-.037.112-.093.276-.148.444a17.118,17.118,0,0,0-.386,1.723c1.132.5,2.316,1.014,3.5,1.53a1.667,1.667,0,0,1-.055.538,15.937,15.937,0,0,0,.06,1.683c.054.391.148.852.206,1.242-1.018.648-2.109,1.334-3.2,2.023l-.018.057a16.053,16.053,0,0,0,2.027,3.94l.017-.056c1.186-.409,2.388-.874,3.533-1.358.318.351.595.627.874.906a6.35,6.35,0,0,0,1.206,1.016,1.7,1.7,0,0,0,.463.276c-.295,1.259-.587,2.519-.827,3.8a16.2,16.2,0,0,0,1.67.738c.166.056.331.113.443.148.165.055.332.112.444.148a14.167,14.167,0,0,0,1.612.35c.554-1.113,1.07-2.3,1.533-3.5a2.442,2.442,0,0,0,.647.092.206.206,0,0,0,.183,0,7.125,7.125,0,0,0,1.521-.113,6.748,6.748,0,0,0,1.239-.207c.685,1.093,1.337,2.108,2.024,3.2l.038.075a6.6,6.6,0,0,0,.774-.3,5.718,5.718,0,0,0,1.315-.612,12.875,12.875,0,0,0,1.848-1.115l-.056-.017c-.406-1.187-.892-2.333-1.356-3.535a10.284,10.284,0,0,0,.962-.855,7.337,7.337,0,0,0,.959-1.223,1.511,1.511,0,0,0,.371-.555c1.259.3,2.518.588,3.739.808a8.939,8.939,0,0,0,.739-1.669,12.3,12.3,0,0,0,.589-2.519C148.445,114.2,147.312,113.7,146.13,113.187Z" fill="#22b8d1"/><path d="M132.508,127.245l-.052,0a7.884,7.884,0,0,1-1.146-.231c-.169-.043-.342-.087-.523-.127l-.934-.31c-.224-.094-.4-.165-.575-.235a9.2,9.2,0,0,1-1.187-.544.5.5,0,0,1-.243-.525c.211-1.127.453-2.2.743-3.446-.061-.041-.118-.084-.173-.125a6.648,6.648,0,0,1-1.262-1.061c-.238-.238-.447-.447-.663-.676-1.052.438-2.1.84-3.133,1.2a.462.462,0,0,1-.2.087.494.494,0,0,1-.5-.184A16.378,16.378,0,0,1,120.572,117a.505.505,0,0,1,0-.317.68.68,0,0,1,.226-.322l.988-.623c.659-.415,1.309-.825,1.935-1.223-.014-.08-.029-.162-.043-.244-.041-.234-.082-.47-.112-.685a16.278,16.278,0,0,1-.065-1.751.5.5,0,0,1,.026-.158.407.407,0,0,0,.015-.058c-1.082-.472-2.158-.94-3.19-1.394a.5.5,0,0,1-.3-.519,9.142,9.142,0,0,1,.259-1.227c.047-.181.094-.362.135-.545l.326-.992c.095-.218.166-.393.237-.568a9.239,9.239,0,0,1,.524-1.134.5.5,0,0,1,.544-.24c.883.2,1.8.413,2.716.628l.68.158c.007-.017.013-.035.02-.054a.489.489,0,0,1,.164-.236,7.466,7.466,0,0,1,.642-.814c.107-.123.213-.245.314-.37.23-.234.438-.443.633-.625-.44-1.062-.867-2.164-1.293-3.267a.5.5,0,0,1,.174-.586A15.347,15.347,0,0,1,128.2,98.6a8.121,8.121,0,0,1,1.3-.65c.31-.1.521-.164.734-.222a.5.5,0,0,1,.544.2c.636.934,1.271,1.931,1.889,2.967a6.789,6.789,0,0,1,1.107-.189,6.553,6.553,0,0,1,1.647-.041h.176c.472-1.086.946-2.168,1.4-3.2a.5.5,0,0,1,.527-.294,11.387,11.387,0,0,1,1.976.462l.834.277a14.333,14.333,0,0,1,1.571.648.5.5,0,0,1,.282.545c-.213,1.14-.468,2.258-.715,3.339l-.023.1c.064.045.133.091.21.141a8.219,8.219,0,0,1,1.139.864.5.5,0,0,1,.037.719l-3.941,4.2a.5.5,0,0,1-.69.038,4.81,4.81,0,0,0-1.632-.921,4.9,4.9,0,0,0-6.25,3.14,4.726,4.726,0,0,0,.277,3.728,4.437,4.437,0,0,0,2.862,2.462,4.354,4.354,0,0,0,3.736-.265,4.9,4.9,0,0,0,2.64-5.2.5.5,0,0,1,.471-.587l5.826-.254a.487.487,0,0,1,.521.459,8.449,8.449,0,0,1,.015,1.417,1.571,1.571,0,0,1,.024.4l3.083,1.351a.5.5,0,0,1,.3.512,12.7,12.7,0,0,1-.612,2.623,9.379,9.379,0,0,1-.778,1.76.5.5,0,0,1-.523.243c-1.08-.195-2.183-.444-3.389-.726a2.238,2.238,0,0,1-.239.293,7.849,7.849,0,0,1-1,1.264c-.216.219-.468.45-.719.661q.15.381.3.757c.312.785.62,1.559.893,2.349a.473.473,0,0,1,.088.206.5.5,0,0,1-.194.5l-.387.257a9.575,9.575,0,0,1-1.536.9,5.742,5.742,0,0,1-1.366.63,5.676,5.676,0,0,1-.76.3.5.5,0,0,1-.606-.245l-.966-1.538c-.293-.461-.585-.922-.883-1.4a8,8,0,0,1-.962.136,7.669,7.669,0,0,1-1.5.119.694.694,0,0,1-.341-.01l-.054,0-.187-.013c-.433,1.1-.9,2.159-1.4,3.157A.5.5,0,0,1,132.508,127.245Zm-3.608-2.154c.239.114.49.215.752.32.181.073.366.148.555.23l.842.279c.146.03.329.076.508.122.227.058.447.113.663.155.482-.994.936-2.047,1.354-3.135a.5.5,0,0,1,.626-.294,1.526,1.526,0,0,0,.405.058l.119.008a.485.485,0,0,1,.055.008.535.535,0,0,1,.132-.007,6.548,6.548,0,0,0,1.36-.1,6.761,6.761,0,0,0,1.228-.2.506.506,0,0,1,.556.217c.363.58.717,1.138,1.072,1.7l.783,1.24a3.348,3.348,0,0,0,.332-.141,5.662,5.662,0,0,0,1.277-.59,9.2,9.2,0,0,0,1.44-.845l.03-.02c-.249-.7-.524-1.392-.8-2.092q-.218-.546-.436-1.105a.5.5,0,0,1,.161-.575,9.875,9.875,0,0,0,.912-.811,6.952,6.952,0,0,0,.893-1.14.492.492,0,0,1,.07-.088,1.027,1.027,0,0,0,.248-.356.5.5,0,0,1,.589-.33c1.206.283,2.3.536,3.36.738a8.471,8.471,0,0,0,.529-1.269,12.641,12.641,0,0,0,.519-2.055l-3.1-1.358a.5.5,0,0,1-.275-.616.7.7,0,0,0,.028-.378.492.492,0,0,1-.016-.183,5.8,5.8,0,0,0,.021-.838l-4.794.209a5.915,5.915,0,0,1-3.236,5.7,5.275,5.275,0,0,1-4.512.325,5.422,5.422,0,0,1-3.441-2.961,5.7,5.7,0,0,1-.332-4.491,5.937,5.937,0,0,1,9.106-2.961l3.266-3.483a5.443,5.443,0,0,0-.611-.433c-.232-.149-.392-.266-.549-.385a.5.5,0,0,1-.184-.508l.1-.423c.217-.949.44-1.928.633-2.918a11.424,11.424,0,0,0-1.111-.443l-.833-.277a10.455,10.455,0,0,0-1.429-.361c-.449,1.023-.913,2.085-1.375,3.149a.443.443,0,0,1-.464.3l-.554,0a5.852,5.852,0,0,0-1.478.036,6.258,6.258,0,0,0-1.315.261.5.5,0,0,1-.613-.3h0c-.59-1-1.2-1.966-1.806-2.873-.094.028-.2.06-.313.1a7.418,7.418,0,0,0-1.156.583,15.61,15.61,0,0,0-1.652.95c.416,1.074.834,2.145,1.267,3.173a.5.5,0,0,1,.014.351.739.739,0,0,1-.168.278c-.248.211-.51.475-.774.74-.083.105-.2.237-.312.368a6.749,6.749,0,0,0-.547.686.645.645,0,0,1-.139.21,1.605,1.605,0,0,1-.326.471.5.5,0,0,1-.465.132l-1.01-.234c-.789-.184-1.572-.366-2.336-.54-.105.22-.2.45-.3.688-.075.186-.15.371-.231.553l-.3.9c-.031.148-.08.339-.13.53-.065.251-.128.493-.176.735,1.023.449,2.085.911,3.148,1.374a.5.5,0,0,1,.3.457,2.311,2.311,0,0,1-.055.61,14.7,14.7,0,0,0,.058,1.56c.025.187.065.41.1.632.036.2.071.4.1.589a.5.5,0,0,1-.226.5c-.711.453-1.457.924-2.216,1.4l-.681.43a15.3,15.3,0,0,0,1.609,3.126c1.047-.369,2.115-.784,3.182-1.235a.5.5,0,0,1,.566.126c.3.326.555.586.814.844a6.17,6.17,0,0,0,1.151.984,1.68,1.68,0,0,0,.364.231.5.5,0,0,1,.329.589C129.359,122.934,129.113,124,128.9,125.091Z" fill="#226d7a"/></svg>