<svg xmlns="http://www.w3.org/2000/svg" viewBox="0 0 16.04 18"><path d="M9,1.29a15.7,15.7,0,0,0,7,3.17c0,2.88-.26,5.78-1.53,8A10.64,10.64,0,0,1,9,17a10.32,10.32,0,0,1-5.63-4.48C2.11,10.3,2,7.37,2,4.46A15.75,15.75,0,0,0,9,1.29M9,0S5,3.52,1,3.52C1,7,1,10.36,2.48,13A11.19,11.19,0,0,0,9,18a11.45,11.45,0,0,0,6.36-5C16.86,10.34,17,7,17,3.52,13,3.52,9,0,9,0Z" transform="translate(-0.98)"/><polygon points="12.02 10 12.02 6 11.02 6 11.02 11 13.02 11 13.02 10 12.02 10"/><polygon points="10.02 7 10.02 6 7.02 6 7.02 9 9.02 9 9.02 10 7.02 10 7.02 11 10.02 11 10.02 8 8.02 8 8.02 7 10.02 7"/><polygon points="6.02 7 6.02 6 3.02 6 3.02 9 5.02 9 5.02 10 3.02 10 3.02 11 6.02 11 6.02 8 4.02 8 4.02 7 6.02 7"/></svg>