<svg xmlns="http://www.w3.org/2000/svg" viewBox="0 0 22 20.95"><path d="M17.49,21a.46.46,0,0,1-.23,0L11,17.63,4.74,20.92A.5.5,0,0,1,4,20.39l1.19-7L.15,8.49A.51.51,0,0,1,0,8a.5.5,0,0,1,.41-.34l7-1L10.55.28a.52.52,0,0,1,.9,0l3.13,6.34,7,1A.5.5,0,0,1,22,8a.51.51,0,0,1-.13.51l-5.06,4.93,1.19,7a.49.49,0,0,1-.2.49A.5.5,0,0,1,17.49,21ZM11,16.56a.46.46,0,0,1,.23.06l5.6,2.94-1.07-6.23a.48.48,0,0,1,.14-.44l4.53-4.41-6.26-.91a.47.47,0,0,1-.37-.27L11,1.63,8.2,7.3a.47.47,0,0,1-.37.27l-6.26.91L6.1,12.89a.48.48,0,0,1,.14.44L5.17,19.56l5.6-2.94A.46.46,0,0,1,11,16.56Z" transform="translate(0 -0.02)"/></svg>