<svg xmlns="http://www.w3.org/2000/svg" viewBox="0 0 32 32"><path d="M9.79,1.27a15.86,15.86,0,0,1,12.43,0,15.72,15.72,0,0,1,8.52,8.52,15.86,15.86,0,0,1,0,12.43,15.72,15.72,0,0,1-8.52,8.52,15.86,15.86,0,0,1-12.43,0,15.72,15.72,0,0,1-8.52-8.52,15.86,15.86,0,0,1,0-12.43A15.72,15.72,0,0,1,9.79,1.27ZM3.89,22.45,7.36,19a9.14,9.14,0,0,1,0-6L3.89,9.55a13.73,13.73,0,0,0,0,12.89Zm7.26-1.6a6.61,6.61,0,0,0,4.85,2A6.86,6.86,0,0,0,22.86,16,6.86,6.86,0,0,0,16,9.14,6.86,6.86,0,0,0,9.14,16,6.61,6.61,0,0,0,11.15,20.85ZM16,2.29A13.65,13.65,0,0,0,9.55,3.89L13,7.36a9.14,9.14,0,0,1,6,0l3.46-3.46A13.65,13.65,0,0,0,16,2.29Zm0,27.43a13.65,13.65,0,0,0,6.45-1.61L19,24.64a9.14,9.14,0,0,1-6,0L9.55,28.11A13.65,13.65,0,0,0,16,29.71ZM24.64,19l3.46,3.46a13.73,13.73,0,0,0,0-12.89L24.64,13a9.14,9.14,0,0,1,0,6Z"/></svg>