<svg xmlns="http://www.w3.org/2000/svg" viewBox="0 0 32 32"><path d="M22.25,14.19a.53.53,0,0,0,.31-.27,9.93,9.93,0,0,0,.92-4.2A9.53,9.53,0,0,0,14.16,0,9.53,9.53,0,0,0,4.85,9.72a9.9,9.9,0,0,0,.92,4.2.48.48,0,0,0,.27.27.46.46,0,0,0,.38,0,.49.49,0,0,0,.26-.27.42.42,0,0,0,0-.3l0-.11a9,9,0,0,1-.82-3.78A8.56,8.56,0,0,1,14.16,1a8.56,8.56,0,0,1,8.34,8.74,9,9,0,0,1-.83,3.79.49.49,0,0,0,.21.66A.47.47,0,0,0,22.25,14.19Z" transform="translate(-4.85)"></path><path d="M19,13.14a.48.48,0,0,0,.61-.2,7,7,0,0,0,.85-3.34,6.54,6.54,0,0,0-6.33-6.72A6.54,6.54,0,0,0,7.84,9.59a7,7,0,0,0,.85,3.35.46.46,0,0,0,.63.18.47.47,0,0,0,.18-.63,6,6,0,0,1-.74-2.89,5.61,5.61,0,0,1,5.4-5.79,5.61,5.61,0,0,1,5.4,5.79,6,6,0,0,1-.73,2.89.45.45,0,0,0,0,.36.47.47,0,0,0,.22.28Z" transform="translate(-4.85)"></path><path d="M26.87,18.91a3.27,3.27,0,0,0-2.73-2.6,3.34,3.34,0,0,0-1,.11,2.09,2.09,0,0,0-.72-1A2.52,2.52,0,0,0,21,14.94h0a1.78,1.78,0,0,0-1.08.41,1.88,1.88,0,0,0-.52-.62,2.49,2.49,0,0,0-2.53-.22V8.73A2.69,2.69,0,0,0,14.19,6h0a2.71,2.71,0,0,0-2.71,2.71V18.3L11.32,18a3.9,3.9,0,0,0-2.06-2,2.46,2.46,0,0,0-1.94.35,2.74,2.74,0,0,0-1.27,1.53,3.73,3.73,0,0,0,.3,2.36,49.28,49.28,0,0,0,5,9.34A5.54,5.54,0,0,0,15.87,32h3.85a6.38,6.38,0,0,0,5.57-3.08,5.46,5.46,0,0,0,.25-.5A19,19,0,0,0,27,23.55,11.37,11.37,0,0,0,26.87,18.91Zm-2.81-1.3c.78.11,1.26.61,1.55,1.65a10.14,10.14,0,0,1,.07,4.09,18.42,18.42,0,0,1-1.33,4.55l0,0a4.82,4.82,0,0,1-4.42,2.77H16.24a4.94,4.94,0,0,1-4.09-2.18A48.68,48.68,0,0,1,7.58,19.8a2.73,2.73,0,0,1-.27-1.52A1.4,1.4,0,0,1,8,17.5a1.23,1.23,0,0,1,.87-.23,2.7,2.7,0,0,1,1.29,1.35l1.36,2.73a.69.69,0,0,0,.73.36.66.66,0,0,0,.51-.64V8.73a1.39,1.39,0,0,1,1.33-1.4h.07a1.39,1.39,0,0,1,1.4,1.4v7.2a.65.65,0,0,0,1.24.27,1.4,1.4,0,0,1,1.12-.65,1.29,1.29,0,0,1,.7.21.91.91,0,0,1,.36.85.67.67,0,0,0,.51.65.66.66,0,0,0,.73-.36c.28-.56.48-.66.8-.66a1.17,1.17,0,0,1,.66.21.92.92,0,0,1,.38.86.67.67,0,0,0,1.09.47.92.92,0,0,1,.33-.12A3.28,3.28,0,0,1,24.06,17.61Z" transform="translate(-4.85)"></path></svg>