<svg xmlns="http://www.w3.org/2000/svg" viewBox="0 0 18 18"><path d="M17.49 1h-.1L9 2.7.6 1H.49a.47.47 0 0 0-.49.49v13.33a.5.5 0 0 0 .4.48L8.9 17h.2l8.49-1.7a.48.48 0 0 0 .4-.48V1.49a.48.48 0 0 0-.5-.49zM1 2.09l7.5 1.52v12.31L1 14.42zm16 12.33l-7.52 1.5V3.61L17 2.11z"/><path d="M7.29 12.24a8.67 8.67 0 0 0-5.23-.9.49.49 0 0 0-.41.57.5.5 0 0 0 .57.42 7.63 7.63 0 0 1 4.55.77.48.48 0 0 0 .26.07.52.52 0 0 0 .43-.24.51.51 0 0 0-.17-.69zM7.4 9.28a8.6 8.6 0 0 0-5.23-.9.5.5 0 0 0-.42.62.51.51 0 0 0 .58.41 7.81 7.81 0 0 1 4.55.77.48.48 0 0 0 .26.07.5.5 0 0 0 .26-.92zM7.51 6.32a8.65 8.65 0 0 0-5.22-.9.5.5 0 0 0-.42.58.51.51 0 0 0 .57.42A7.67 7.67 0 0 1 7 7.17a.56.56 0 0 0 .26.08.51.51 0 0 0 .42-.25.5.5 0 0 0-.17-.68zM10.7 12.08a.51.51 0 0 0-.17.69.52.52 0 0 0 .47.23.48.48 0 0 0 .26-.07 7.8 7.8 0 0 1 4.55-.77.5.5 0 0 0 .16-1 8.68 8.68 0 0 0-5.27.92zM10.58 9.12a.49.49 0 0 0-.16.68.47.47 0 0 0 .42.24.48.48 0 0 0 .26-.04 7.7 7.7 0 0 1 4.56-.76.52.52 0 0 0 .57-.42.51.51 0 0 0-.42-.57 8.6 8.6 0 0 0-5.23.87zM10.3 6.84a.51.51 0 0 0 .43.24A.48.48 0 0 0 11 7a7.8 7.8 0 0 1 4.55-.77.49.49 0 0 0 .57-.42.5.5 0 0 0-.42-.57 8.65 8.65 0 0 0-5.22.9.5.5 0 0 0-.18.7z"/></svg>