<svg xmlns="http://www.w3.org/2000/svg" width="300" height="300" viewBox="0 0 300 240"><polygon points="192.02 139.33 193.306 137.85 192.02 136.371 190.733 137.85 192.02 139.33" fill="#dcdcdc"/><polygon points="192.02 131.066 193.306 129.586 192.02 128.107 190.733 129.586 192.02 131.066" fill="#dcdcdc"/><polygon points="192.02 122.801 193.306 121.322 192.02 119.842 190.733 121.322 192.02 122.801" fill="#dcdcdc"/><polygon points="192.02 114.537 193.306 113.058 192.02 111.578 190.733 113.058 192.02 114.537" fill="#dcdcdc"/><polygon points="192.02 106.273 193.306 104.793 192.02 103.314 190.733 104.793 192.02 106.273" fill="#dcdcdc"/><polygon points="199.211 136.371 197.924 137.85 199.211 139.33 200.497 137.85 199.211 136.371" fill="#dcdcdc"/><polygon points="199.211 128.107 197.924 129.586 199.211 131.066 200.497 129.586 199.211 128.107" fill="#dcdcdc"/><polygon points="199.211 119.842 197.924 121.322 199.211 122.801 200.497 121.322 199.211 119.842" fill="#dcdcdc"/><polygon points="199.211 111.578 197.924 113.058 199.211 114.537 200.497 113.058 199.211 111.578" fill="#dcdcdc"/><polygon points="199.211 103.314 197.924 104.793 199.211 106.273 200.497 104.793 199.211 103.314" fill="#dcdcdc"/><polygon points="206.402 136.371 205.115 137.85 206.402 139.33 207.691 137.85 206.402 136.371" fill="#dcdcdc"/><polygon points="206.402 128.107 205.115 129.586 206.402 131.066 207.691 129.586 206.402 128.107" fill="#dcdcdc"/><polygon points="206.402 119.842 205.115 121.322 206.402 122.801 207.691 121.322 206.402 119.842" fill="#dcdcdc"/><polygon points="206.402 111.578 205.115 113.058 206.402 114.537 207.691 113.058 206.402 111.578" fill="#dcdcdc"/><polygon points="207.69 104.793 206.402 103.314 205.115 104.793 206.402 106.273 207.69 104.793" fill="#dcdcdc"/><polygon points="213.594 136.371 212.307 137.85 213.594 139.33 214.881 137.85 213.594 136.371" fill="#dcdcdc"/><polygon points="213.594 128.107 212.307 129.586 213.594 131.066 214.881 129.586 213.594 128.107" fill="#dcdcdc"/><polygon points="213.594 119.842 212.307 121.322 213.594 122.801 214.881 121.322 213.594 119.842" fill="#dcdcdc"/><polygon points="213.594 111.578 212.307 113.058 213.594 114.537 214.881 113.058 213.594 111.578" fill="#dcdcdc"/><polygon points="213.594 103.314 212.307 104.793 213.594 106.273 214.881 104.793 213.594 103.314" fill="#dcdcdc"/><polygon points="220.785 136.371 219.498 137.85 220.785 139.33 222.072 137.85 220.785 136.371" fill="#dcdcdc"/><polygon points="220.785 128.107 219.498 129.586 220.785 131.066 222.072 129.586 220.785 128.107" fill="#dcdcdc"/><polygon points="220.785 119.842 219.498 121.322 220.785 122.801 222.072 121.322 220.785 119.842" fill="#dcdcdc"/><polygon points="220.785 111.578 219.498 113.058 220.785 114.537 222.072 113.058 220.785 111.578" fill="#dcdcdc"/><polygon points="220.785 103.314 219.498 104.793 220.785 106.273 222.072 104.793 220.785 103.314" fill="#dcdcdc"/><polygon points="227.977 136.371 226.688 137.85 227.977 139.33 229.264 137.85 227.977 136.371" fill="#dcdcdc"/><polygon points="227.977 128.107 226.688 129.586 227.977 131.066 229.264 129.586 227.977 128.107" fill="#dcdcdc"/><polygon points="227.977 119.842 226.688 121.322 227.977 122.801 229.264 121.322 227.977 119.842" fill="#dcdcdc"/><polygon points="227.977 111.578 226.688 113.058 227.977 114.537 229.264 113.058 227.977 111.578" fill="#dcdcdc"/><polygon points="227.977 103.314 226.689 104.793 227.977 106.273 229.264 104.793 227.977 103.314" fill="#dcdcdc"/><polygon points="235.168 136.371 233.881 137.85 235.168 139.33 236.455 137.85 235.168 136.371" fill="#dcdcdc"/><polygon points="235.168 128.107 233.881 129.586 235.168 131.066 236.455 129.586 235.168 128.107" fill="#dcdcdc"/><polygon points="235.168 119.842 233.881 121.322 235.168 122.801 236.455 121.322 235.168 119.842" fill="#dcdcdc"/><polygon points="235.168 111.578 233.881 113.058 235.168 114.537 236.455 113.058 235.168 111.578" fill="#dcdcdc"/><polygon points="235.168 103.314 233.881 104.793 235.168 106.273 236.455 104.793 235.168 103.314" fill="#dcdcdc"/><polygon points="242.359 136.371 241.072 137.85 242.359 139.33 243.648 137.85 242.359 136.371" fill="#dcdcdc"/><polygon points="242.359 128.107 241.072 129.586 242.359 131.066 243.648 129.586 242.359 128.107" fill="#dcdcdc"/><polygon points="242.359 119.842 241.072 121.322 242.359 122.801 243.648 121.322 242.359 119.842" fill="#dcdcdc"/><polygon points="242.359 111.578 241.072 113.058 242.359 114.537 243.648 113.058 242.359 111.578" fill="#dcdcdc"/><polygon points="243.647 104.793 242.359 103.314 241.072 104.793 242.359 106.273 243.647 104.793" fill="#dcdcdc"/><polygon points="249.551 136.371 248.264 137.85 249.551 139.33 250.838 137.85 249.551 136.371" fill="#dcdcdc"/><polygon points="249.551 128.107 248.264 129.586 249.551 131.066 250.838 129.586 249.551 128.107" fill="#dcdcdc"/><polygon points="249.551 119.842 248.264 121.322 249.551 122.801 250.838 121.322 249.551 119.842" fill="#dcdcdc"/><polygon points="249.551 111.578 248.264 113.058 249.551 114.537 250.838 113.058 249.551 111.578" fill="#dcdcdc"/><polygon points="249.551 103.314 248.264 104.793 249.551 106.273 250.838 104.793 249.551 103.314" fill="#dcdcdc"/><polygon points="256.742 136.371 255.455 137.85 256.742 139.33 258.029 137.85 256.742 136.371" fill="#dcdcdc"/><polygon points="256.742 128.107 255.455 129.586 256.742 131.066 258.029 129.586 256.742 128.107" fill="#dcdcdc"/><polygon points="256.742 119.842 255.455 121.322 256.742 122.801 258.029 121.322 256.742 119.842" fill="#dcdcdc"/><polygon points="256.742 111.578 255.455 113.058 256.742 114.537 258.029 113.058 256.742 111.578" fill="#dcdcdc"/><polygon points="256.742 103.314 255.455 104.793 256.742 106.273 258.029 104.793 256.742 103.314" fill="#dcdcdc"/><polygon points="263.934 139.33 265.221 137.85 263.934 136.371 262.645 137.85 263.934 139.33" fill="#dcdcdc"/><polygon points="263.934 131.066 265.221 129.586 263.934 128.107 262.645 129.586 263.934 131.066" fill="#dcdcdc"/><polygon points="263.934 122.801 265.221 121.322 263.934 119.842 262.645 121.322 263.934 122.801" fill="#dcdcdc"/><polygon points="263.934 114.537 265.221 113.058 263.934 111.578 262.645 113.058 263.934 114.537" fill="#dcdcdc"/><polygon points="262.646 104.793 263.934 106.273 265.221 104.793 263.934 103.314 262.646 104.793" fill="#dcdcdc"/><polygon points="271.125 136.371 269.839 137.85 271.125 139.33 272.412 137.85 271.125 136.371" fill="#dcdcdc"/><polygon points="271.125 128.107 269.839 129.586 271.125 131.066 272.412 129.586 271.125 128.107" fill="#dcdcdc"/><polygon points="271.125 119.842 269.839 121.322 271.125 122.801 272.412 121.322 271.125 119.842" fill="#dcdcdc"/><polygon points="271.125 111.578 269.839 113.058 271.125 114.537 272.412 113.058 271.125 111.578" fill="#dcdcdc"/><polygon points="271.125 103.314 269.839 104.793 271.125 106.273 272.412 104.793 271.125 103.314" fill="#dcdcdc"/><polygon points="278.316 136.371 277.03 137.85 278.316 139.33 279.606 137.85 278.316 136.371" fill="#dcdcdc"/><polygon points="278.316 128.107 277.03 129.586 278.316 131.066 279.606 129.586 278.316 128.107" fill="#dcdcdc"/><polygon points="278.316 119.842 277.03 121.322 278.316 122.801 279.606 121.322 278.316 119.842" fill="#dcdcdc"/><polygon points="278.316 111.578 277.03 113.058 278.316 114.537 279.606 113.058 278.316 111.578" fill="#dcdcdc"/><polygon points="279.604 104.793 278.316 103.314 277.03 104.793 278.316 106.273 279.604 104.793" fill="#dcdcdc"/><polygon points="192.02 98.182 193.306 96.702 192.02 95.223 190.733 96.702 192.02 98.182" fill="#dcdcdc"/><polygon points="192.02 89.917 193.306 88.438 192.02 86.958 190.733 88.438 192.02 89.917" fill="#dcdcdc"/><polygon points="192.02 81.653 193.306 80.173 192.02 78.694 190.733 80.173 192.02 81.653" fill="#dcdcdc"/><polygon points="192.02 73.389 193.306 71.909 192.02 70.43 190.733 71.909 192.02 73.389" fill="#dcdcdc"/><polygon points="192.02 65.124 193.306 63.645 192.02 62.165 190.733 63.645 192.02 65.124" fill="#dcdcdc"/><polygon points="193.306 55.381 192.02 53.901 190.733 55.381 192.02 56.86 193.306 55.381" fill="#dcdcdc"/><polygon points="190.733 47.116 192.02 48.596 193.306 47.116 192.02 45.637 190.733 47.116" fill="#dcdcdc"/><polygon points="199.211 95.223 197.924 96.702 199.211 98.182 200.497 96.702 199.211 95.223" fill="#dcdcdc"/><polygon points="199.211 86.958 197.924 88.438 199.211 89.917 200.497 88.438 199.211 86.958" fill="#dcdcdc"/><polygon points="199.211 78.694 197.924 80.173 199.211 81.653 200.497 80.173 199.211 78.694" fill="#dcdcdc"/><polygon points="199.211 70.43 197.924 71.909 199.211 73.389 200.497 71.909 199.211 70.43" fill="#dcdcdc"/><polygon points="199.211 62.165 197.924 63.645 199.211 65.124 200.497 63.645 199.211 62.165" fill="#dcdcdc"/><polygon points="199.211 53.901 197.924 55.381 199.211 56.86 200.497 55.381 199.211 53.901" fill="#dcdcdc"/><polygon points="199.211 45.637 197.924 47.116 199.211 48.596 200.497 47.116 199.211 45.637" fill="#dcdcdc"/><polygon points="206.402 95.223 205.115 96.702 206.402 98.182 207.691 96.702 206.402 95.223" fill="#dcdcdc"/><polygon points="206.402 86.958 205.115 88.438 206.402 89.917 207.691 88.438 206.402 86.958" fill="#dcdcdc"/><polygon points="206.402 78.694 205.115 80.173 206.402 81.653 207.691 80.173 206.402 78.694" fill="#dcdcdc"/><polygon points="206.402 70.43 205.115 71.909 206.402 73.389 207.691 71.909 206.402 70.43" fill="#dcdcdc"/><polygon points="206.402 62.165 205.115 63.645 206.402 65.124 207.691 63.645 206.402 62.165" fill="#dcdcdc"/><polygon points="206.402 53.901 205.115 55.381 206.402 56.86 207.691 55.381 206.402 53.901" fill="#dcdcdc"/><polygon points="206.402 45.637 205.115 47.116 206.402 48.596 207.691 47.116 206.402 45.637" fill="#dcdcdc"/><polygon points="213.594 95.223 212.307 96.702 213.594 98.182 214.881 96.702 213.594 95.223" fill="#dcdcdc"/><polygon points="213.594 86.958 212.307 88.438 213.594 89.917 214.881 88.438 213.594 86.958" fill="#dcdcdc"/><polygon points="213.594 78.694 212.307 80.173 213.594 81.653 214.881 80.173 213.594 78.694" fill="#dcdcdc"/><polygon points="213.594 70.43 212.307 71.909 213.594 73.389 214.881 71.909 213.594 70.43" fill="#dcdcdc"/><polygon points="213.594 62.165 212.307 63.645 213.594 65.124 214.881 63.645 213.594 62.165" fill="#dcdcdc"/><polygon points="213.594 53.901 212.307 55.381 213.594 56.86 214.881 55.381 213.594 53.901" fill="#dcdcdc"/><polygon points="213.594 45.637 212.307 47.116 213.594 48.596 214.881 47.116 213.594 45.637" fill="#dcdcdc"/><polygon points="220.785 95.223 219.498 96.702 220.785 98.182 222.072 96.702 220.785 95.223" fill="#dcdcdc"/><polygon points="220.785 86.958 219.498 88.438 220.785 89.917 222.072 88.438 220.785 86.958" fill="#dcdcdc"/><polygon points="220.785 78.694 219.498 80.173 220.785 81.653 222.072 80.173 220.785 78.694" fill="#dcdcdc"/><polygon points="220.785 70.43 219.498 71.909 220.785 73.389 222.072 71.909 220.785 70.43" fill="#dcdcdc"/><polygon points="220.785 62.165 219.498 63.645 220.785 65.124 222.072 63.645 220.785 62.165" fill="#dcdcdc"/><polygon points="220.785 53.901 219.498 55.381 220.785 56.86 222.072 55.381 220.785 53.901" fill="#dcdcdc"/><path d="M220.785,48.6l1.287-1.48-.217-.249c-.578-.157-1.156-.315-1.738-.462l-.619.711Z" fill="#dcdcdc"/><polygon points="227.977 95.223 226.688 96.702 227.977 98.182 229.264 96.702 227.977 95.223" fill="#dcdcdc"/><polygon points="227.977 86.958 226.688 88.438 227.977 89.917 229.264 88.438 227.977 86.958" fill="#dcdcdc"/><polygon points="227.977 78.694 226.688 80.173 227.977 81.653 229.264 80.173 227.977 78.694" fill="#dcdcdc"/><polygon points="227.977 70.43 226.688 71.909 227.977 73.389 229.264 71.909 227.977 70.43" fill="#dcdcdc"/><polygon points="227.977 62.165 226.688 63.645 227.977 65.124 229.264 63.645 227.977 62.165" fill="#dcdcdc"/><polygon points="227.977 53.901 226.688 55.381 227.977 56.86 229.264 55.381 227.977 53.901" fill="#dcdcdc"/><polygon points="235.168 95.223 233.881 96.702 235.168 98.182 236.455 96.702 235.168 95.223" fill="#dcdcdc"/><polygon points="235.168 86.958 233.881 88.438 235.168 89.917 236.455 88.438 235.168 86.958" fill="#dcdcdc"/><polygon points="235.168 78.694 233.881 80.173 235.168 81.653 236.455 80.173 235.168 78.694" fill="#dcdcdc"/><polygon points="235.168 70.43 233.881 71.909 235.168 73.389 236.455 71.909 235.168 70.43" fill="#dcdcdc"/><polygon points="235.168 62.165 233.881 63.645 235.168 65.124 236.455 63.645 235.168 62.165" fill="#dcdcdc"/><polygon points="235.168 53.901 233.881 55.381 235.168 56.86 236.455 55.381 235.168 53.901" fill="#dcdcdc"/><polygon points="242.359 95.223 241.072 96.702 242.359 98.182 243.648 96.702 242.359 95.223" fill="#dcdcdc"/><polygon points="242.359 86.958 241.072 88.438 242.359 89.917 243.648 88.438 242.359 86.958" fill="#dcdcdc"/><polygon points="242.359 78.694 241.072 80.173 242.359 81.653 243.648 80.173 242.359 78.694" fill="#dcdcdc"/><polygon points="242.359 70.43 241.072 71.909 242.359 73.389 243.648 71.909 242.359 70.43" fill="#dcdcdc"/><polygon points="242.359 62.165 241.072 63.645 242.359 65.124 243.648 63.645 242.359 62.165" fill="#dcdcdc"/><path d="M242.359,56.86l1.227-1.408c-.589-.312-1.179-.621-1.774-.922l-.74.851Z" fill="#dcdcdc"/><polygon points="249.551 95.223 248.264 96.702 249.551 98.182 250.838 96.702 249.551 95.223" fill="#dcdcdc"/><polygon points="249.551 86.958 248.264 88.438 249.551 89.917 250.838 88.438 249.551 86.958" fill="#dcdcdc"/><polygon points="249.551 78.694 248.264 80.173 249.551 81.653 250.838 80.173 249.551 78.694" fill="#dcdcdc"/><polygon points="249.551 70.43 248.264 71.909 249.551 73.389 250.838 71.909 249.551 70.43" fill="#dcdcdc"/><polygon points="249.551 62.165 248.264 63.645 249.551 65.124 250.838 63.645 249.551 62.165" fill="#dcdcdc"/><polygon points="256.742 95.223 255.455 96.702 256.742 98.182 258.029 96.702 256.742 95.223" fill="#dcdcdc"/><polygon points="256.742 86.958 255.455 88.438 256.742 89.917 258.029 88.438 256.742 86.958" fill="#dcdcdc"/><polygon points="256.742 78.694 255.455 80.173 256.742 81.653 258.029 80.173 256.742 78.694" fill="#dcdcdc"/><polygon points="256.742 70.43 255.455 71.909 256.742 73.389 258.029 71.909 256.742 70.43" fill="#dcdcdc"/><path d="M255.455,63.645l1.287,1.479.759-.871c-.521-.389-1.047-.77-1.575-1.149Z" fill="#dcdcdc"/><polygon points="263.934 98.182 265.221 96.702 263.934 95.223 262.645 96.702 263.934 98.182" fill="#dcdcdc"/><polygon points="263.934 89.917 265.221 88.438 263.934 86.958 262.645 88.438 263.934 89.917" fill="#dcdcdc"/><polygon points="265.221 80.173 263.934 78.694 262.645 80.173 263.934 81.653 265.221 80.173" fill="#dcdcdc"/><polygon points="262.645 71.909 263.934 73.389 265.221 71.909 263.934 70.43 262.645 71.909" fill="#dcdcdc"/><polygon points="271.125 95.223 269.839 96.702 271.125 98.182 272.412 96.702 271.125 95.223" fill="#dcdcdc"/><polygon points="271.125 86.958 269.839 88.438 271.125 89.917 272.412 88.438 271.125 86.958" fill="#dcdcdc"/><polygon points="271.125 78.694 269.839 80.173 271.125 81.653 272.412 80.173 271.125 78.694" fill="#dcdcdc"/><polygon points="278.316 95.223 277.03 96.702 278.316 98.182 279.606 96.702 278.316 95.223" fill="#dcdcdc"/><polygon points="278.316 86.958 277.03 88.438 278.316 89.917 279.606 88.438 278.316 86.958" fill="#dcdcdc"/><polygon points="285.612 136.371 284.325 137.85 285.612 139.33 286.899 137.85 285.612 136.371" fill="#dcdcdc"/><polygon points="285.612 128.107 284.325 129.586 285.612 131.066 286.899 129.586 285.612 128.107" fill="#dcdcdc"/><polygon points="285.612 119.842 284.325 121.322 285.612 122.801 286.899 121.322 285.612 119.842" fill="#dcdcdc"/><polygon points="285.612 111.578 284.325 113.058 285.612 114.537 286.899 113.058 285.612 111.578" fill="#dcdcdc"/><polygon points="285.612 103.314 284.325 104.793 285.612 106.273 286.899 104.793 285.612 103.314" fill="#dcdcdc"/><polygon points="292.803 136.371 291.516 137.85 292.803 139.33 294.092 137.85 292.803 136.371" fill="#dcdcdc"/><polygon points="292.803 128.107 291.516 129.586 292.803 131.066 294.092 129.586 292.803 128.107" fill="#dcdcdc"/><polygon points="292.803 119.842 291.516 121.322 292.803 122.801 294.092 121.322 292.803 119.842" fill="#dcdcdc"/><path d="M291.516,113.058l1.287,1.479,1.06-1.217c-.106-.3-.207-.593-.316-.887l-.744-.855Z" fill="#dcdcdc"/><path d="M299.365,137.1l-.657.754.834.959Q299.461,137.951,299.365,137.1Z" fill="#dcdcdc"/><path d="M285.612,98.182l.868-1q-.5-.9-1.026-1.779l-1.129,1.3Z" fill="#dcdcdc"/><polygon points="91.287 136.371 90 137.85 91.287 139.33 92.574 137.85 91.287 136.371" fill="#dcdcdc"/><polygon points="91.287 128.107 90 129.586 91.287 131.066 92.574 129.586 91.287 128.107" fill="#dcdcdc"/><path d="M91.287,122.8l1.287-1.479L91.5,120.087q-.318,1.122-.613,2.254Z" fill="#dcdcdc"/><polygon points="98.479 136.371 97.19 137.85 98.479 139.33 99.766 137.85 98.479 136.371" fill="#dcdcdc"/><polygon points="98.479 128.107 97.19 129.586 98.479 131.066 99.766 129.586 98.479 128.107" fill="#dcdcdc"/><polygon points="98.479 119.842 97.19 121.322 98.479 122.801 99.766 121.322 98.479 119.842" fill="#dcdcdc"/><polygon points="98.479 111.578 97.19 113.058 98.479 114.537 99.766 113.058 98.479 111.578" fill="#dcdcdc"/><polygon points="98.479 103.314 97.191 104.793 98.479 106.273 99.766 104.793 98.479 103.314" fill="#dcdcdc"/><polygon points="105.773 136.371 104.486 137.85 105.773 139.33 107.06 137.85 105.773 136.371" fill="#dcdcdc"/><polygon points="105.773 128.107 104.486 129.586 105.773 131.066 107.06 129.586 105.773 128.107" fill="#dcdcdc"/><polygon points="105.773 119.842 104.486 121.322 105.773 122.801 107.06 121.322 105.773 119.842" fill="#dcdcdc"/><polygon points="105.773 111.578 104.486 113.058 105.773 114.537 107.06 113.058 105.773 111.578" fill="#dcdcdc"/><polygon points="105.773 103.314 104.486 104.793 105.773 106.273 107.06 104.793 105.773 103.314" fill="#dcdcdc"/><polygon points="112.965 136.371 111.676 137.85 112.965 139.33 114.252 137.85 112.965 136.371" fill="#dcdcdc"/><polygon points="112.965 128.107 111.676 129.586 112.965 131.066 114.252 129.586 112.965 128.107" fill="#dcdcdc"/><polygon points="112.965 119.842 111.676 121.322 112.965 122.801 114.252 121.322 112.965 119.842" fill="#dcdcdc"/><polygon points="112.965 111.578 111.676 113.058 112.965 114.537 114.252 113.058 112.965 111.578" fill="#dcdcdc"/><polygon points="112.965 103.314 111.677 104.793 112.965 106.273 114.252 104.793 112.965 103.314" fill="#dcdcdc"/><polygon points="120.156 136.371 118.869 137.85 120.156 139.33 121.443 137.85 120.156 136.371" fill="#dcdcdc"/><polygon points="120.156 128.107 118.869 129.586 120.156 131.066 121.443 129.586 120.156 128.107" fill="#dcdcdc"/><polygon points="120.156 119.842 118.869 121.322 120.156 122.801 121.443 121.322 120.156 119.842" fill="#dcdcdc"/><polygon points="120.156 111.578 118.869 113.058 120.156 114.537 121.443 113.058 120.156 111.578" fill="#dcdcdc"/><polygon points="120.156 103.314 118.869 104.793 120.156 106.273 121.443 104.793 120.156 103.314" fill="#dcdcdc"/><polygon points="127.347 136.371 126.06 137.85 127.347 139.33 128.636 137.85 127.347 136.371" fill="#dcdcdc"/><polygon points="127.347 128.107 126.06 129.586 127.347 131.066 128.636 129.586 127.347 128.107" fill="#dcdcdc"/><polygon points="127.347 119.842 126.06 121.322 127.347 122.801 128.636 121.322 127.347 119.842" fill="#dcdcdc"/><polygon points="127.347 111.578 126.06 113.058 127.347 114.537 128.636 113.058 127.347 111.578" fill="#dcdcdc"/><polygon points="128.635 104.793 127.347 103.314 126.06 104.793 127.347 106.273 128.635 104.793" fill="#dcdcdc"/><polygon points="134.539 136.371 133.253 137.85 134.539 139.33 135.826 137.85 134.539 136.371" fill="#dcdcdc"/><polygon points="134.539 128.107 133.253 129.586 134.539 131.066 135.826 129.586 134.539 128.107" fill="#dcdcdc"/><polygon points="134.539 119.842 133.253 121.322 134.539 122.801 135.826 121.322 134.539 119.842" fill="#dcdcdc"/><polygon points="134.539 111.578 133.253 113.058 134.539 114.537 135.826 113.058 134.539 111.578" fill="#dcdcdc"/><polygon points="134.539 103.314 133.253 104.793 134.539 106.273 135.826 104.793 134.539 103.314" fill="#dcdcdc"/><polygon points="141.73 136.371 140.444 137.85 141.73 139.33 143.017 137.85 141.73 136.371" fill="#dcdcdc"/><polygon points="141.73 128.107 140.444 129.586 141.73 131.066 143.017 129.586 141.73 128.107" fill="#dcdcdc"/><polygon points="141.73 119.842 140.444 121.322 141.73 122.801 143.017 121.322 141.73 119.842" fill="#dcdcdc"/><polygon points="141.73 111.578 140.444 113.058 141.73 114.537 143.017 113.058 141.73 111.578" fill="#dcdcdc"/><polygon points="141.73 103.314 140.444 104.793 141.73 106.273 143.017 104.793 141.73 103.314" fill="#dcdcdc"/><polygon points="148.922 136.371 147.635 137.85 148.922 139.33 150.211 137.85 148.922 136.371" fill="#dcdcdc"/><polygon points="148.922 128.107 147.635 129.586 148.922 131.066 150.211 129.586 148.922 128.107" fill="#dcdcdc"/><polygon points="148.922 119.842 147.635 121.322 148.922 122.801 150.211 121.322 148.922 119.842" fill="#dcdcdc"/><polygon points="148.922 111.578 147.635 113.058 148.922 114.537 150.211 113.058 148.922 111.578" fill="#dcdcdc"/><polygon points="150.21 104.793 148.922 103.314 147.635 104.793 148.922 106.273 150.21 104.793" fill="#dcdcdc"/><polygon points="156.114 136.371 154.827 137.85 156.114 139.33 157.401 137.85 156.114 136.371" fill="#dcdcdc"/><polygon points="156.114 128.107 154.827 129.586 156.114 131.066 157.401 129.586 156.114 128.107" fill="#dcdcdc"/><polygon points="156.114 119.842 154.827 121.322 156.114 122.801 157.401 121.322 156.114 119.842" fill="#dcdcdc"/><polygon points="156.114 111.578 154.827 113.058 156.114 114.537 157.401 113.058 156.114 111.578" fill="#dcdcdc"/><polygon points="156.114 103.314 154.827 104.793 156.114 106.273 157.401 104.793 156.114 103.314" fill="#dcdcdc"/><polygon points="163.305 136.371 162.018 137.85 163.305 139.33 164.592 137.85 163.305 136.371" fill="#dcdcdc"/><polygon points="163.305 128.107 162.018 129.586 163.305 131.066 164.592 129.586 163.305 128.107" fill="#dcdcdc"/><polygon points="163.305 119.842 162.018 121.322 163.305 122.801 164.592 121.322 163.305 119.842" fill="#dcdcdc"/><polygon points="163.305 111.578 162.018 113.058 163.305 114.537 164.592 113.058 163.305 111.578" fill="#dcdcdc"/><polygon points="163.305 103.314 162.018 104.793 163.305 106.273 164.592 104.793 163.305 103.314" fill="#dcdcdc"/><polygon points="170.497 136.371 169.208 137.85 170.497 139.33 171.784 137.85 170.497 136.371" fill="#dcdcdc"/><polygon points="170.497 128.107 169.208 129.586 170.497 131.066 171.784 129.586 170.497 128.107" fill="#dcdcdc"/><polygon points="170.497 119.842 169.208 121.322 170.497 122.801 171.784 121.322 170.497 119.842" fill="#dcdcdc"/><polygon points="170.497 111.578 169.208 113.058 170.497 114.537 171.784 113.058 170.497 111.578" fill="#dcdcdc"/><polygon points="170.497 103.314 169.209 104.793 170.497 106.273 171.784 104.793 170.497 103.314" fill="#dcdcdc"/><polygon points="177.688 139.33 178.975 137.85 177.688 136.371 176.401 137.85 177.688 139.33" fill="#dcdcdc"/><polygon points="177.688 131.066 178.975 129.586 177.688 128.107 176.401 129.586 177.688 131.066" fill="#dcdcdc"/><polygon points="177.688 122.801 178.975 121.322 177.688 119.842 176.401 121.322 177.688 122.801" fill="#dcdcdc"/><polygon points="177.688 114.537 178.975 113.058 177.688 111.578 176.401 113.058 177.688 114.537" fill="#dcdcdc"/><polygon points="177.688 106.273 178.975 104.793 177.688 103.314 176.401 104.793 177.688 106.273" fill="#dcdcdc"/><polygon points="184.879 139.33 186.168 137.85 184.879 136.371 183.592 137.85 184.879 139.33" fill="#dcdcdc"/><polygon points="184.879 131.066 186.168 129.586 184.879 128.107 183.592 129.586 184.879 131.066" fill="#dcdcdc"/><polygon points="184.879 122.801 186.168 121.322 184.879 119.842 183.592 121.322 184.879 122.801" fill="#dcdcdc"/><polygon points="184.879 114.537 186.168 113.058 184.879 111.578 183.592 113.058 184.879 114.537" fill="#dcdcdc"/><polygon points="184.879 106.273 186.167 104.793 184.879 103.314 183.592 104.793 184.879 106.273" fill="#dcdcdc"/><polygon points="105.773 95.223 104.486 96.702 105.773 98.182 107.06 96.702 105.773 95.223" fill="#dcdcdc"/><path d="M105.773,89.917l1.287-1.479-.271-.312c-.385.545-.769,1.091-1.144,1.644Z" fill="#dcdcdc"/><polygon points="112.965 95.223 111.676 96.702 112.965 98.182 114.252 96.702 112.965 95.223" fill="#dcdcdc"/><polygon points="112.965 86.958 111.676 88.438 112.965 89.917 114.252 88.438 112.965 86.958" fill="#dcdcdc"/><path d="M112.965,81.653l1.287-1.48-.631-.726c-.432.493-.855.992-1.277,1.492Z" fill="#dcdcdc"/><polygon points="120.156 95.223 118.869 96.702 120.156 98.182 121.443 96.702 120.156 95.223" fill="#dcdcdc"/><polygon points="120.156 86.958 118.869 88.438 120.156 89.917 121.443 88.438 120.156 86.958" fill="#dcdcdc"/><polygon points="120.156 78.694 118.869 80.173 120.156 81.653 121.443 80.173 120.156 78.694" fill="#dcdcdc"/><path d="M120.156,73.389l1.287-1.48-.239-.275q-.711.663-1.411,1.337Z" fill="#dcdcdc"/><polygon points="127.347 95.223 126.06 96.702 127.347 98.182 128.636 96.702 127.347 95.223" fill="#dcdcdc"/><polygon points="127.347 86.958 126.06 88.438 127.347 89.917 128.636 88.438 127.347 86.958" fill="#dcdcdc"/><polygon points="127.347 78.694 126.06 80.173 127.347 81.653 128.636 80.173 127.347 78.694" fill="#dcdcdc"/><polygon points="127.347 70.43 126.06 71.909 127.347 73.389 128.636 71.909 127.347 70.43" fill="#dcdcdc"/><polygon points="134.539 95.223 133.253 96.702 134.539 98.182 135.826 96.702 134.539 95.223" fill="#dcdcdc"/><polygon points="134.539 86.958 133.253 88.438 134.539 89.917 135.826 88.438 134.539 86.958" fill="#dcdcdc"/><polygon points="134.539 78.694 133.253 80.173 134.539 81.653 135.826 80.173 134.539 78.694" fill="#dcdcdc"/><polygon points="134.539 70.43 133.253 71.909 134.539 73.389 135.826 71.909 134.539 70.43" fill="#dcdcdc"/><polygon points="134.539 62.165 133.253 63.645 134.539 65.124 135.826 63.645 134.539 62.165" fill="#dcdcdc"/><polygon points="141.73 95.223 140.444 96.702 141.73 98.182 143.017 96.702 141.73 95.223" fill="#dcdcdc"/><polygon points="141.73 86.958 140.444 88.438 141.73 89.917 143.017 88.438 141.73 86.958" fill="#dcdcdc"/><polygon points="141.73 78.694 140.444 80.173 141.73 81.653 143.017 80.173 141.73 78.694" fill="#dcdcdc"/><polygon points="141.73 70.43 140.444 71.909 141.73 73.389 143.017 71.909 141.73 70.43" fill="#dcdcdc"/><polygon points="141.73 62.165 140.444 63.645 141.73 65.124 143.017 63.645 141.73 62.165" fill="#dcdcdc"/><path d="M141.73,56.86l.334-.383q-.225.125-.449.25Z" fill="#dcdcdc"/><polygon points="148.922 95.223 147.635 96.702 148.922 98.182 150.211 96.702 148.922 95.223" fill="#dcdcdc"/><polygon points="148.922 86.958 147.635 88.438 148.922 89.917 150.211 88.438 148.922 86.958" fill="#dcdcdc"/><polygon points="148.922 78.694 147.635 80.173 148.922 81.653 150.211 80.173 148.922 78.694" fill="#dcdcdc"/><polygon points="148.922 70.43 147.635 71.909 148.922 73.389 150.211 71.909 148.922 70.43" fill="#dcdcdc"/><polygon points="148.922 62.165 147.635 63.645 148.922 65.124 150.211 63.645 148.922 62.165" fill="#dcdcdc"/><polygon points="148.922 53.901 147.635 55.381 148.922 56.86 150.211 55.381 148.922 53.901" fill="#dcdcdc"/><polygon points="156.114 95.223 154.827 96.702 156.114 98.182 157.401 96.702 156.114 95.223" fill="#dcdcdc"/><polygon points="156.114 86.958 154.827 88.438 156.114 89.917 157.401 88.438 156.114 86.958" fill="#dcdcdc"/><polygon points="156.114 78.694 154.827 80.173 156.114 81.653 157.401 80.173 156.114 78.694" fill="#dcdcdc"/><polygon points="156.114 70.43 154.827 71.909 156.114 73.389 157.401 71.909 156.114 70.43" fill="#dcdcdc"/><polygon points="156.114 62.165 154.827 63.645 156.114 65.124 157.401 63.645 156.114 62.165" fill="#dcdcdc"/><polygon points="156.114 53.901 154.827 55.381 156.114 56.86 157.401 55.381 156.114 53.901" fill="#dcdcdc"/><polygon points="163.305 95.223 162.018 96.702 163.305 98.182 164.592 96.702 163.305 95.223" fill="#dcdcdc"/><polygon points="163.305 86.958 162.018 88.438 163.305 89.917 164.592 88.438 163.305 86.958" fill="#dcdcdc"/><polygon points="163.305 78.694 162.018 80.173 163.305 81.653 164.592 80.173 163.305 78.694" fill="#dcdcdc"/><polygon points="163.305 70.43 162.018 71.909 163.305 73.389 164.592 71.909 163.305 70.43" fill="#dcdcdc"/><polygon points="163.305 62.165 162.018 63.645 163.305 65.124 164.592 63.645 163.305 62.165" fill="#dcdcdc"/><polygon points="163.305 53.901 162.018 55.381 163.305 56.86 164.592 55.381 163.305 53.901" fill="#dcdcdc"/><path d="M163.305,48.6l1.231-1.416c-.656.186-1.308.381-1.958.58Z" fill="#dcdcdc"/><polygon points="170.497 95.223 169.208 96.702 170.497 98.182 171.784 96.702 170.497 95.223" fill="#dcdcdc"/><polygon points="170.497 86.958 169.208 88.438 170.497 89.917 171.784 88.438 170.497 86.958" fill="#dcdcdc"/><polygon points="170.497 78.694 169.208 80.173 170.497 81.653 171.784 80.173 170.497 78.694" fill="#dcdcdc"/><polygon points="170.497 70.43 169.208 71.909 170.497 73.389 171.784 71.909 170.497 70.43" fill="#dcdcdc"/><polygon points="170.497 62.165 169.208 63.645 170.497 65.124 171.784 63.645 170.497 62.165" fill="#dcdcdc"/><polygon points="170.497 53.901 169.208 55.381 170.497 56.86 171.784 55.381 170.497 53.901" fill="#dcdcdc"/><path d="M169.208,47.116,170.5,48.6l1.287-1.48-1.258-1.446-.072.016Z" fill="#dcdcdc"/><polygon points="177.688 98.182 178.975 96.702 177.688 95.223 176.401 96.702 177.688 98.182" fill="#dcdcdc"/><polygon points="177.688 89.917 178.975 88.438 177.688 86.958 176.401 88.438 177.688 89.917" fill="#dcdcdc"/><polygon points="177.688 81.653 178.975 80.173 177.688 78.694 176.401 80.173 177.688 81.653" fill="#dcdcdc"/><polygon points="177.688 73.389 178.975 71.909 177.688 70.43 176.401 71.909 177.688 73.389" fill="#dcdcdc"/><polygon points="177.688 65.124 178.975 63.645 177.688 62.165 176.401 63.645 177.688 65.124" fill="#dcdcdc"/><polygon points="177.688 56.86 178.975 55.381 177.688 53.901 176.401 55.381 177.688 56.86" fill="#dcdcdc"/><polygon points="178.975 47.116 177.688 45.637 176.401 47.116 177.688 48.596 178.975 47.116" fill="#dcdcdc"/><polygon points="184.879 98.182 186.168 96.702 184.879 95.223 183.592 96.702 184.879 98.182" fill="#dcdcdc"/><polygon points="184.879 89.917 186.168 88.438 184.879 86.958 183.592 88.438 184.879 89.917" fill="#dcdcdc"/><polygon points="184.879 81.653 186.168 80.173 184.879 78.694 183.592 80.173 184.879 81.653" fill="#dcdcdc"/><polygon points="184.879 73.389 186.168 71.909 184.879 70.43 183.592 71.909 184.879 73.389" fill="#dcdcdc"/><polygon points="184.879 65.124 186.168 63.645 184.879 62.165 183.592 63.645 184.879 65.124" fill="#dcdcdc"/><polygon points="184.879 56.86 186.168 55.381 184.879 53.901 183.592 55.381 184.879 56.86" fill="#dcdcdc"/><polygon points="186.168 47.116 184.879 45.637 183.592 47.116 184.879 48.596 186.168 47.116" fill="#dcdcdc"/><polygon points="192.02 246.08 193.306 244.6 192.02 243.121 190.733 244.6 192.02 246.08" fill="#dcdcdc"/><polygon points="192.02 237.816 193.306 236.336 192.02 234.857 190.733 236.336 192.02 237.816" fill="#dcdcdc"/><polygon points="192.02 229.551 193.306 228.072 192.02 226.593 190.733 228.072 192.02 229.551" fill="#dcdcdc"/><polygon points="192.02 221.287 193.306 219.807 192.02 218.328 190.733 219.807 192.02 221.287" fill="#dcdcdc"/><polygon points="192.02 213.023 193.306 211.544 192.02 210.064 190.733 211.544 192.02 213.023" fill="#dcdcdc"/><polygon points="197.924 244.6 199.211 246.08 200.497 244.6 199.211 243.121 197.924 244.6" fill="#dcdcdc"/><polygon points="199.211 234.857 197.924 236.336 199.211 237.816 200.497 236.336 199.211 234.857" fill="#dcdcdc"/><polygon points="199.211 226.593 197.924 228.072 199.211 229.551 200.497 228.072 199.211 226.593" fill="#dcdcdc"/><polygon points="199.211 218.328 197.924 219.807 199.211 221.287 200.497 219.807 199.211 218.328" fill="#dcdcdc"/><polygon points="199.211 210.064 197.924 211.544 199.211 213.023 200.497 211.544 199.211 210.064" fill="#dcdcdc"/><polygon points="205.115 244.6 206.402 246.08 207.691 244.6 206.402 243.121 205.115 244.6" fill="#dcdcdc"/><polygon points="206.402 234.857 205.115 236.336 206.402 237.816 207.691 236.336 206.402 234.857" fill="#dcdcdc"/><polygon points="206.402 226.593 205.115 228.072 206.402 229.551 207.691 228.072 206.402 226.593" fill="#dcdcdc"/><polygon points="206.402 218.328 205.115 219.807 206.402 221.287 207.691 219.807 206.402 218.328" fill="#dcdcdc"/><polygon points="206.402 210.064 205.115 211.544 206.402 213.023 207.691 211.544 206.402 210.064" fill="#dcdcdc"/><polygon points="212.307 244.6 213.594 246.08 214.881 244.6 213.594 243.121 212.307 244.6" fill="#dcdcdc"/><polygon points="213.594 234.857 212.307 236.336 213.594 237.816 214.881 236.336 213.594 234.857" fill="#dcdcdc"/><polygon points="213.594 226.593 212.307 228.072 213.594 229.551 214.881 228.072 213.594 226.593" fill="#dcdcdc"/><polygon points="213.594 218.328 212.307 219.807 213.594 221.287 214.881 219.807 213.594 218.328" fill="#dcdcdc"/><polygon points="213.594 210.064 212.307 211.544 213.594 213.023 214.881 211.544 213.594 210.064" fill="#dcdcdc"/><polygon points="219.498 244.6 220.785 246.08 222.072 244.6 220.785 243.121 219.498 244.6" fill="#dcdcdc"/><polygon points="220.785 234.857 219.498 236.336 220.785 237.816 222.072 236.336 220.785 234.857" fill="#dcdcdc"/><polygon points="220.785 226.593 219.498 228.072 220.785 229.551 222.072 228.072 220.785 226.593" fill="#dcdcdc"/><polygon points="220.785 218.328 219.498 219.807 220.785 221.287 222.072 219.807 220.785 218.328" fill="#dcdcdc"/><polygon points="220.785 210.064 219.498 211.544 220.785 213.023 222.072 211.544 220.785 210.064" fill="#dcdcdc"/><polygon points="226.688 244.6 227.977 246.08 229.264 244.6 227.977 243.121 226.688 244.6" fill="#dcdcdc"/><polygon points="227.977 234.857 226.688 236.336 227.977 237.816 229.264 236.336 227.977 234.857" fill="#dcdcdc"/><polygon points="227.977 226.593 226.688 228.072 227.977 229.551 229.264 228.072 227.977 226.593" fill="#dcdcdc"/><polygon points="227.977 218.328 226.688 219.807 227.977 221.287 229.264 219.807 227.977 218.328" fill="#dcdcdc"/><polygon points="227.977 210.064 226.688 211.544 227.977 213.023 229.264 211.544 227.977 210.064" fill="#dcdcdc"/><polygon points="233.881 244.6 235.168 246.08 236.455 244.6 235.168 243.121 233.881 244.6" fill="#dcdcdc"/><polygon points="235.168 234.857 233.881 236.336 235.168 237.816 236.455 236.336 235.168 234.857" fill="#dcdcdc"/><polygon points="235.168 226.593 233.881 228.072 235.168 229.551 236.455 228.072 235.168 226.593" fill="#dcdcdc"/><polygon points="235.168 218.328 233.881 219.807 235.168 221.287 236.455 219.807 235.168 218.328" fill="#dcdcdc"/><polygon points="235.168 210.064 233.881 211.544 235.168 213.023 236.455 211.544 235.168 210.064" fill="#dcdcdc"/><polygon points="241.072 236.336 242.359 237.816 243.648 236.336 242.359 234.857 241.072 236.336" fill="#dcdcdc"/><polygon points="242.359 226.593 241.072 228.072 242.359 229.551 243.648 228.072 242.359 226.593" fill="#dcdcdc"/><polygon points="242.359 218.328 241.072 219.807 242.359 221.287 243.648 219.807 242.359 218.328" fill="#dcdcdc"/><polygon points="242.359 210.064 241.072 211.544 242.359 213.023 243.648 211.544 242.359 210.064" fill="#dcdcdc"/><polygon points="248.264 236.336 249.551 237.816 250.838 236.336 249.551 234.857 248.264 236.336" fill="#dcdcdc"/><polygon points="249.551 226.593 248.264 228.072 249.551 229.551 250.838 228.072 249.551 226.593" fill="#dcdcdc"/><polygon points="249.551 218.328 248.264 219.807 249.551 221.287 250.838 219.807 249.551 218.328" fill="#dcdcdc"/><polygon points="249.551 210.064 248.264 211.544 249.551 213.023 250.838 211.544 249.551 210.064" fill="#dcdcdc"/><polygon points="255.455 228.072 256.742 229.551 258.029 228.072 256.742 226.593 255.455 228.072" fill="#dcdcdc"/><polygon points="256.742 218.328 255.455 219.807 256.742 221.287 258.029 219.807 256.742 218.328" fill="#dcdcdc"/><polygon points="256.742 210.064 255.455 211.544 256.742 213.023 258.029 211.544 256.742 210.064" fill="#dcdcdc"/><path d="M263.934,226.593l-1.289,1.479.651.747c.49-.423.973-.854,1.456-1.286Z" fill="#dcdcdc"/><polygon points="263.934 221.287 265.221 219.807 263.934 218.328 262.645 219.807 263.934 221.287" fill="#dcdcdc"/><polygon points="263.934 213.023 265.221 211.544 263.934 210.064 262.645 211.544 263.934 213.023" fill="#dcdcdc"/><polygon points="272.412 219.807 271.125 218.328 269.839 219.807 271.125 221.287 272.412 219.807" fill="#dcdcdc"/><polygon points="269.839 211.544 271.125 213.023 272.412 211.544 271.125 210.064 269.839 211.544" fill="#dcdcdc"/><path d="M278.316,210.064l-1.286,1.48,1.236,1.421q.6-.789,1.195-1.588Z" fill="#dcdcdc"/><polygon points="192.02 204.932 193.306 203.452 192.02 201.972 190.733 203.452 192.02 204.932" fill="#dcdcdc"/><polygon points="192.02 196.668 193.306 195.188 192.02 193.709 190.733 195.188 192.02 196.668" fill="#dcdcdc"/><polygon points="192.02 188.403 193.306 186.923 192.02 185.444 190.733 186.923 192.02 188.403" fill="#dcdcdc"/><polygon points="192.02 180.139 193.306 178.659 192.02 177.18 190.733 178.659 192.02 180.139" fill="#dcdcdc"/><polygon points="192.02 171.874 193.306 170.395 192.02 168.916 190.733 170.395 192.02 171.874" fill="#dcdcdc"/><polygon points="192.02 163.61 193.306 162.13 192.02 160.651 190.733 162.13 192.02 163.61" fill="#dcdcdc"/><polygon points="192.02 155.346 193.306 153.867 192.02 152.387 190.733 153.867 192.02 155.346" fill="#dcdcdc"/><polygon points="192.02 147.081 193.306 145.602 192.02 144.122 190.733 145.602 192.02 147.081" fill="#dcdcdc"/><polygon points="199.211 201.972 197.924 203.452 199.211 204.932 200.497 203.452 199.211 201.972" fill="#dcdcdc"/><polygon points="199.211 193.709 197.924 195.188 199.211 196.668 200.497 195.188 199.211 193.709" fill="#dcdcdc"/><polygon points="199.211 185.444 197.924 186.923 199.211 188.403 200.497 186.923 199.211 185.444" fill="#dcdcdc"/><polygon points="199.211 177.18 197.924 178.659 199.211 180.139 200.497 178.659 199.211 177.18" fill="#dcdcdc"/><polygon points="199.211 168.916 197.924 170.395 199.211 171.874 200.497 170.395 199.211 168.916" fill="#dcdcdc"/><polygon points="199.211 160.651 197.924 162.13 199.211 163.61 200.497 162.13 199.211 160.651" fill="#dcdcdc"/><polygon points="199.211 152.387 197.924 153.867 199.211 155.346 200.497 153.867 199.211 152.387" fill="#dcdcdc"/><polygon points="199.211 144.122 197.924 145.602 199.211 147.081 200.497 145.602 199.211 144.122" fill="#dcdcdc"/><polygon points="207.69 203.452 206.402 201.972 205.115 203.452 206.402 204.932 207.69 203.452" fill="#dcdcdc"/><polygon points="206.402 193.709 205.115 195.188 206.402 196.668 207.691 195.188 206.402 193.709" fill="#dcdcdc"/><polygon points="206.402 185.444 205.115 186.923 206.402 188.403 207.691 186.923 206.402 185.444" fill="#dcdcdc"/><polygon points="206.402 177.18 205.115 178.659 206.402 180.139 207.691 178.659 206.402 177.18" fill="#dcdcdc"/><polygon points="206.402 168.916 205.115 170.395 206.402 171.874 207.691 170.395 206.402 168.916" fill="#dcdcdc"/><polygon points="206.402 160.651 205.115 162.13 206.402 163.61 207.691 162.13 206.402 160.651" fill="#dcdcdc"/><polygon points="206.402 152.387 205.115 153.867 206.402 155.346 207.691 153.867 206.402 152.387" fill="#dcdcdc"/><polygon points="206.402 144.122 205.115 145.602 206.402 147.081 207.691 145.602 206.402 144.122" fill="#dcdcdc"/><polygon points="213.594 201.972 212.307 203.452 213.594 204.932 214.881 203.452 213.594 201.972" fill="#dcdcdc"/><polygon points="213.594 193.709 212.307 195.188 213.594 196.668 214.881 195.188 213.594 193.709" fill="#dcdcdc"/><polygon points="213.594 185.444 212.307 186.923 213.594 188.403 214.881 186.923 213.594 185.444" fill="#dcdcdc"/><polygon points="213.594 177.18 212.307 178.659 213.594 180.139 214.881 178.659 213.594 177.18" fill="#dcdcdc"/><polygon points="213.594 168.916 212.307 170.395 213.594 171.874 214.881 170.395 213.594 168.916" fill="#dcdcdc"/><polygon points="213.594 160.651 212.307 162.13 213.594 163.61 214.881 162.13 213.594 160.651" fill="#dcdcdc"/><polygon points="213.594 152.387 212.307 153.867 213.594 155.346 214.881 153.867 213.594 152.387" fill="#dcdcdc"/><polygon points="213.594 144.122 212.307 145.602 213.594 147.081 214.881 145.602 213.594 144.122" fill="#dcdcdc"/><polygon points="220.785 201.972 219.498 203.452 220.785 204.932 222.072 203.452 220.785 201.972" fill="#dcdcdc"/><polygon points="220.785 193.709 219.498 195.188 220.785 196.668 222.072 195.188 220.785 193.709" fill="#dcdcdc"/><polygon points="220.785 185.444 219.498 186.923 220.785 188.403 222.072 186.923 220.785 185.444" fill="#dcdcdc"/><polygon points="220.785 177.18 219.498 178.659 220.785 180.139 222.072 178.659 220.785 177.18" fill="#dcdcdc"/><polygon points="220.785 168.916 219.498 170.395 220.785 171.874 222.072 170.395 220.785 168.916" fill="#dcdcdc"/><polygon points="220.785 160.651 219.498 162.13 220.785 163.61 222.072 162.13 220.785 160.651" fill="#dcdcdc"/><polygon points="220.785 152.387 219.498 153.867 220.785 155.346 222.072 153.867 220.785 152.387" fill="#dcdcdc"/><polygon points="220.785 144.122 219.498 145.602 220.785 147.081 222.072 145.602 220.785 144.122" fill="#dcdcdc"/><polygon points="227.977 201.972 226.689 203.452 227.977 204.932 229.264 203.452 227.977 201.972" fill="#dcdcdc"/><polygon points="227.977 193.709 226.688 195.188 227.977 196.668 229.264 195.188 227.977 193.709" fill="#dcdcdc"/><polygon points="227.977 185.444 226.688 186.923 227.977 188.403 229.264 186.923 227.977 185.444" fill="#dcdcdc"/><polygon points="227.977 177.18 226.688 178.659 227.977 180.139 229.264 178.659 227.977 177.18" fill="#dcdcdc"/><polygon points="227.977 168.916 226.688 170.395 227.977 171.874 229.264 170.395 227.977 168.916" fill="#dcdcdc"/><polygon points="227.977 160.651 226.688 162.13 227.977 163.61 229.264 162.13 227.977 160.651" fill="#dcdcdc"/><polygon points="227.977 152.387 226.688 153.867 227.977 155.346 229.264 153.867 227.977 152.387" fill="#dcdcdc"/><polygon points="227.977 144.122 226.688 145.602 227.977 147.081 229.264 145.602 227.977 144.122" fill="#dcdcdc"/><polygon points="235.168 201.972 233.881 203.452 235.168 204.932 236.455 203.452 235.168 201.972" fill="#dcdcdc"/><polygon points="235.168 193.709 233.881 195.188 235.168 196.668 236.455 195.188 235.168 193.709" fill="#dcdcdc"/><polygon points="235.168 185.444 233.881 186.923 235.168 188.403 236.455 186.923 235.168 185.444" fill="#dcdcdc"/><polygon points="235.168 177.18 233.881 178.659 235.168 180.139 236.455 178.659 235.168 177.18" fill="#dcdcdc"/><polygon points="235.168 168.916 233.881 170.395 235.168 171.874 236.455 170.395 235.168 168.916" fill="#dcdcdc"/><polygon points="235.168 160.651 233.881 162.13 235.168 163.61 236.455 162.13 235.168 160.651" fill="#dcdcdc"/><polygon points="235.168 152.387 233.881 153.867 235.168 155.346 236.455 153.867 235.168 152.387" fill="#dcdcdc"/><polygon points="235.168 144.122 233.881 145.602 235.168 147.081 236.455 145.602 235.168 144.122" fill="#dcdcdc"/><polygon points="243.647 203.452 242.359 201.972 241.072 203.452 242.359 204.932 243.647 203.452" fill="#dcdcdc"/><polygon points="242.359 193.709 241.072 195.188 242.359 196.668 243.648 195.188 242.359 193.709" fill="#dcdcdc"/><polygon points="242.359 185.444 241.072 186.923 242.359 188.403 243.648 186.923 242.359 185.444" fill="#dcdcdc"/><polygon points="242.359 177.18 241.072 178.659 242.359 180.139 243.648 178.659 242.359 177.18" fill="#dcdcdc"/><polygon points="242.359 168.916 241.072 170.395 242.359 171.874 243.648 170.395 242.359 168.916" fill="#dcdcdc"/><polygon points="242.359 160.651 241.072 162.13 242.359 163.61 243.648 162.13 242.359 160.651" fill="#dcdcdc"/><polygon points="242.359 152.387 241.072 153.867 242.359 155.346 243.648 153.867 242.359 152.387" fill="#dcdcdc"/><polygon points="242.359 144.122 241.072 145.602 242.359 147.081 243.648 145.602 242.359 144.122" fill="#dcdcdc"/><polygon points="249.551 201.972 248.264 203.452 249.551 204.932 250.838 203.452 249.551 201.972" fill="#dcdcdc"/><polygon points="249.551 193.709 248.264 195.188 249.551 196.668 250.838 195.188 249.551 193.709" fill="#dcdcdc"/><polygon points="249.551 185.444 248.264 186.923 249.551 188.403 250.838 186.923 249.551 185.444" fill="#dcdcdc"/><polygon points="249.551 177.18 248.264 178.659 249.551 180.139 250.838 178.659 249.551 177.18" fill="#dcdcdc"/><polygon points="249.551 168.916 248.264 170.395 249.551 171.874 250.838 170.395 249.551 168.916" fill="#dcdcdc"/><polygon points="249.551 160.651 248.264 162.13 249.551 163.61 250.838 162.13 249.551 160.651" fill="#dcdcdc"/><polygon points="249.551 152.387 248.264 153.867 249.551 155.346 250.838 153.867 249.551 152.387" fill="#dcdcdc"/><polygon points="249.551 144.122 248.264 145.602 249.551 147.081 250.838 145.602 249.551 144.122" fill="#dcdcdc"/><polygon points="256.742 201.972 255.455 203.452 256.742 204.932 258.029 203.452 256.742 201.972" fill="#dcdcdc"/><polygon points="256.742 193.709 255.455 195.188 256.742 196.668 258.029 195.188 256.742 193.709" fill="#dcdcdc"/><polygon points="256.742 185.444 255.455 186.923 256.742 188.403 258.029 186.923 256.742 185.444" fill="#dcdcdc"/><polygon points="256.742 177.18 255.455 178.659 256.742 180.139 258.029 178.659 256.742 177.18" fill="#dcdcdc"/><polygon points="256.742 168.916 255.455 170.395 256.742 171.874 258.029 170.395 256.742 168.916" fill="#dcdcdc"/><polygon points="256.742 160.651 255.455 162.13 256.742 163.61 258.029 162.13 256.742 160.651" fill="#dcdcdc"/><polygon points="256.742 152.387 255.455 153.867 256.742 155.346 258.029 153.867 256.742 152.387" fill="#dcdcdc"/><polygon points="256.742 144.122 255.455 145.602 256.742 147.081 258.029 145.602 256.742 144.122" fill="#dcdcdc"/><polygon points="262.646 203.452 263.934 204.932 265.221 203.452 263.934 201.972 262.646 203.452" fill="#dcdcdc"/><polygon points="263.934 196.668 265.221 195.188 263.934 193.709 262.645 195.188 263.934 196.668" fill="#dcdcdc"/><polygon points="263.934 188.403 265.221 186.923 263.934 185.444 262.645 186.923 263.934 188.403" fill="#dcdcdc"/><polygon points="263.934 180.139 265.221 178.659 263.934 177.18 262.645 178.659 263.934 180.139" fill="#dcdcdc"/><polygon points="263.934 171.874 265.221 170.395 263.934 168.916 262.645 170.395 263.934 171.874" fill="#dcdcdc"/><polygon points="263.934 163.61 265.221 162.13 263.934 160.651 262.645 162.13 263.934 163.61" fill="#dcdcdc"/><polygon points="263.934 155.346 265.221 153.867 263.934 152.387 262.645 153.867 263.934 155.346" fill="#dcdcdc"/><polygon points="263.934 147.081 265.221 145.602 263.934 144.122 262.645 145.602 263.934 147.081" fill="#dcdcdc"/><polygon points="271.125 201.972 269.839 203.452 271.125 204.932 272.412 203.452 271.125 201.972" fill="#dcdcdc"/><polygon points="271.125 193.709 269.839 195.188 271.125 196.668 272.412 195.188 271.125 193.709" fill="#dcdcdc"/><polygon points="271.125 185.444 269.839 186.923 271.125 188.403 272.412 186.923 271.125 185.444" fill="#dcdcdc"/><polygon points="271.125 177.18 269.839 178.659 271.125 180.139 272.412 178.659 271.125 177.18" fill="#dcdcdc"/><polygon points="271.125 168.916 269.839 170.395 271.125 171.874 272.412 170.395 271.125 168.916" fill="#dcdcdc"/><polygon points="271.125 160.651 269.839 162.13 271.125 163.61 272.412 162.13 271.125 160.651" fill="#dcdcdc"/><polygon points="271.125 152.387 269.839 153.867 271.125 155.346 272.412 153.867 271.125 152.387" fill="#dcdcdc"/><polygon points="271.125 144.122 269.839 145.602 271.125 147.081 272.412 145.602 271.125 144.122" fill="#dcdcdc"/><polygon points="277.03 203.452 278.316 204.932 279.604 203.452 278.316 201.972 277.03 203.452" fill="#dcdcdc"/><polygon points="278.316 193.709 277.03 195.188 278.316 196.668 279.606 195.188 278.316 193.709" fill="#dcdcdc"/><polygon points="278.316 185.444 277.03 186.923 278.316 188.403 279.606 186.923 278.316 185.444" fill="#dcdcdc"/><polygon points="278.316 177.18 277.03 178.659 278.316 180.139 279.606 178.659 278.316 177.18" fill="#dcdcdc"/><polygon points="278.316 168.916 277.03 170.395 278.316 171.874 279.606 170.395 278.316 168.916" fill="#dcdcdc"/><polygon points="278.316 160.651 277.03 162.13 278.316 163.61 279.606 162.13 278.316 160.651" fill="#dcdcdc"/><polygon points="278.316 152.387 277.03 153.867 278.316 155.346 279.606 153.867 278.316 152.387" fill="#dcdcdc"/><polygon points="278.316 144.122 277.03 145.602 278.316 147.081 279.606 145.602 278.316 144.122" fill="#dcdcdc"/><path d="M285.612,201.972l-1.287,1.48.269.309c.355-.581.7-1.168,1.046-1.756Z" fill="#dcdcdc"/><polygon points="284.325 195.188 285.612 196.668 286.899 195.188 285.612 193.709 284.325 195.188" fill="#dcdcdc"/><polygon points="285.612 185.444 284.325 186.923 285.612 188.403 286.899 186.923 285.612 185.444" fill="#dcdcdc"/><polygon points="285.612 177.18 284.325 178.659 285.612 180.139 286.899 178.659 285.612 177.18" fill="#dcdcdc"/><polygon points="285.612 168.916 284.325 170.395 285.612 171.874 286.899 170.395 285.612 168.916" fill="#dcdcdc"/><polygon points="285.612 160.651 284.325 162.13 285.612 163.61 286.899 162.13 285.612 160.651" fill="#dcdcdc"/><polygon points="285.612 152.387 284.325 153.867 285.612 155.346 286.899 153.867 285.612 152.387" fill="#dcdcdc"/><polygon points="285.612 144.122 284.325 145.602 285.612 147.081 286.899 145.602 285.612 144.122" fill="#dcdcdc"/><path d="M292.8,185.444l-1.287,1.479.969,1.115c.273-.678.536-1.362.794-2.047Z" fill="#dcdcdc"/><polygon points="291.516 178.659 292.803 180.139 294.092 178.659 292.803 177.18 291.516 178.659" fill="#dcdcdc"/><polygon points="292.803 168.916 291.516 170.395 292.803 171.874 294.092 170.395 292.803 168.916" fill="#dcdcdc"/><polygon points="292.803 160.651 291.516 162.13 292.803 163.61 294.092 162.13 292.803 160.651" fill="#dcdcdc"/><polygon points="292.803 152.387 291.516 153.867 292.803 155.346 294.092 153.867 292.803 152.387" fill="#dcdcdc"/><polygon points="292.803 144.122 291.516 145.602 292.803 147.081 294.092 145.602 292.803 144.122" fill="#dcdcdc"/><path d="M298.708,162.13l.421.484c.048-.374.091-.749.136-1.124Z" fill="#dcdcdc"/><path d="M298.708,153.867l1.122,1.289q.079-1.358.126-2.724Z" fill="#dcdcdc"/><path d="M298.708,145.6,300,147.081v0q-.024-1.435-.085-2.861Z" fill="#dcdcdc"/><path d="M91.417,177.329c.187.667.383,1.33.582,1.991l.575-.661Z" fill="#dcdcdc"/><polygon points="92.574 170.395 91.287 168.916 90 170.395 91.287 171.874 92.574 170.395" fill="#dcdcdc"/><polygon points="90 162.13 91.287 163.61 92.574 162.13 91.287 160.651 90 162.13" fill="#dcdcdc"/><polygon points="91.287 152.387 90 153.867 91.287 155.346 92.574 153.867 91.287 152.387" fill="#dcdcdc"/><polygon points="91.287 144.122 90 145.602 91.287 147.081 92.574 145.602 91.287 144.122" fill="#dcdcdc"/><path d="M128.479,113.709l-.618.709c.3.633.617,1.261.934,1.887l.971-1.117Z" fill="#dcdcdc"/><polygon points="127.19 106.923 128.479 108.403 129.766 106.923 128.479 105.444 127.19 106.923" fill="#dcdcdc"/><polygon points="98.479 177.18 97.19 178.659 98.479 180.139 99.766 178.659 98.479 177.18" fill="#dcdcdc"/><polygon points="98.479 168.916 97.19 170.395 98.479 171.874 99.766 170.395 98.479 168.916" fill="#dcdcdc"/><polygon points="98.479 160.651 97.19 162.13 98.479 163.61 99.766 162.13 98.479 160.651" fill="#dcdcdc"/><polygon points="98.479 152.387 97.19 153.867 98.479 155.346 99.766 153.867 98.479 152.387" fill="#dcdcdc"/><polygon points="98.479 144.122 97.19 145.602 98.479 147.081 99.766 145.602 98.479 144.122" fill="#dcdcdc"/><polygon points="141.676 131.544 142.965 133.023 144.252 131.544 142.965 130.064 141.676 131.544" fill="#dcdcdc"/><polygon points="151.443 139.807 150.156 138.328 148.869 139.807 150.156 141.287 151.443 139.807" fill="#dcdcdc"/><polygon points="148.869 131.544 150.156 133.023 151.443 131.544 150.156 130.064 148.869 131.544" fill="#dcdcdc"/><polygon points="156.06 148.072 157.347 149.551 158.636 148.072 157.347 146.593 156.06 148.072" fill="#dcdcdc"/><polygon points="157.347 138.328 156.06 139.807 157.347 141.287 158.636 139.807 157.347 138.328" fill="#dcdcdc"/><polygon points="157.347 130.064 156.06 131.544 157.347 133.023 158.636 131.544 157.347 130.064" fill="#dcdcdc"/><path d="M164.539,154.857l-.98,1.127q.807.552,1.624,1.091l.643-.739Z" fill="#dcdcdc"/><polygon points="163.253 148.072 164.539 149.551 165.826 148.072 164.539 146.593 163.253 148.072" fill="#dcdcdc"/><polygon points="164.539 138.328 163.253 139.807 164.539 141.287 165.826 139.807 164.539 138.328" fill="#dcdcdc"/><polygon points="164.539 130.064 163.253 131.544 164.539 133.023 165.826 131.544 164.539 130.064" fill="#dcdcdc"/><polygon points="170.444 156.336 171.73 157.816 173.017 156.336 171.73 154.857 170.444 156.336" fill="#dcdcdc"/><polygon points="171.73 146.593 170.444 148.072 171.73 149.551 173.017 148.072 171.73 146.593" fill="#dcdcdc"/><polygon points="171.73 138.328 170.444 139.807 171.73 141.287 173.017 139.807 171.73 138.328" fill="#dcdcdc"/><polygon points="171.73 130.064 170.444 131.544 171.73 133.023 173.017 131.544 171.73 130.064" fill="#dcdcdc"/><path d="M178.922,163.121l-1,1.149q.912.435,1.834.852l.455-.522Z" fill="#dcdcdc"/><polygon points="177.635 156.336 178.922 157.816 180.211 156.336 178.922 154.857 177.635 156.336" fill="#dcdcdc"/><polygon points="178.922 146.593 177.635 148.072 178.922 149.551 180.211 148.072 178.922 146.593" fill="#dcdcdc"/><polygon points="178.922 138.328 177.635 139.807 178.922 141.287 180.211 139.807 178.922 138.328" fill="#dcdcdc"/><polygon points="178.922 130.064 177.635 131.544 178.922 133.023 180.211 131.544 178.922 130.064" fill="#dcdcdc"/><polygon points="184.827 164.6 186.114 166.08 187.401 164.6 186.114 163.121 184.827 164.6" fill="#dcdcdc"/><polygon points="186.114 154.857 184.827 156.336 186.114 157.816 187.401 156.336 186.114 154.857" fill="#dcdcdc"/><polygon points="186.114 146.593 184.827 148.072 186.114 149.551 187.401 148.072 186.114 146.593" fill="#dcdcdc"/><polygon points="186.114 138.328 184.827 139.807 186.114 141.287 187.401 139.807 186.114 138.328" fill="#dcdcdc"/><polygon points="186.114 130.064 184.827 131.544 186.114 133.023 187.401 131.544 186.114 130.064" fill="#dcdcdc"/><polygon points="162.018 244.6 163.305 246.08 164.592 244.6 163.305 243.121 162.018 244.6" fill="#dcdcdc"/><polygon points="163.305 234.857 162.018 236.336 163.305 237.816 164.592 236.336 163.305 234.857" fill="#dcdcdc"/><polygon points="163.305 226.593 162.018 228.072 163.305 229.551 164.592 228.072 163.305 226.593" fill="#dcdcdc"/><polygon points="163.305 218.328 162.018 219.807 163.305 221.287 164.592 219.807 163.305 218.328" fill="#dcdcdc"/><polygon points="163.305 210.064 162.018 211.544 163.305 213.023 164.592 211.544 163.305 210.064" fill="#dcdcdc"/><polygon points="169.208 244.6 170.497 246.08 171.784 244.6 170.497 243.121 169.208 244.6" fill="#dcdcdc"/><polygon points="170.497 234.857 169.208 236.336 170.497 237.816 171.784 236.336 170.497 234.857" fill="#dcdcdc"/><polygon points="170.497 226.593 169.208 228.072 170.497 229.551 171.784 228.072 170.497 226.593" fill="#dcdcdc"/><polygon points="170.497 218.328 169.208 219.807 170.497 221.287 171.784 219.807 170.497 218.328" fill="#dcdcdc"/><polygon points="170.497 210.064 169.208 211.544 170.497 213.023 171.784 211.544 170.497 210.064" fill="#dcdcdc"/><polygon points="177.688 246.08 178.975 244.6 177.688 243.121 176.401 244.6 177.688 246.08" fill="#dcdcdc"/><polygon points="177.688 237.816 178.975 236.336 177.688 234.857 176.401 236.336 177.688 237.816" fill="#dcdcdc"/><polygon points="177.688 229.551 178.975 228.072 177.688 226.593 176.401 228.072 177.688 229.551" fill="#dcdcdc"/><polygon points="177.688 221.287 178.975 219.807 177.688 218.328 176.401 219.807 177.688 221.287" fill="#dcdcdc"/><polygon points="177.688 213.023 178.975 211.544 177.688 210.064 176.401 211.544 177.688 213.023" fill="#dcdcdc"/><polygon points="184.879 246.08 186.168 244.6 184.879 243.121 183.592 244.6 184.879 246.08" fill="#dcdcdc"/><polygon points="184.879 237.816 186.168 236.336 184.879 234.857 183.592 236.336 184.879 237.816" fill="#dcdcdc"/><polygon points="184.879 229.551 186.168 228.072 184.879 226.593 183.592 228.072 184.879 229.551" fill="#dcdcdc"/><polygon points="184.879 221.287 186.168 219.807 184.879 218.328 183.592 219.807 184.879 221.287" fill="#dcdcdc"/><polygon points="184.879 213.023 186.168 211.544 184.879 210.064 183.592 211.544 184.879 213.023" fill="#dcdcdc"/><polygon points="134.486 123.452 135.773 124.932 137.06 123.452 135.773 121.972 134.486 123.452" fill="#dcdcdc"/><polygon points="135.773 113.709 134.486 115.188 135.773 116.668 137.06 115.188 135.773 113.709" fill="#dcdcdc"/><polygon points="135.773 105.444 134.486 106.923 135.773 108.403 137.06 106.923 135.773 105.444" fill="#dcdcdc"/><polygon points="105.773 177.18 104.486 178.659 105.773 180.139 107.06 178.659 105.773 177.18" fill="#dcdcdc"/><polygon points="105.773 168.916 104.486 170.395 105.773 171.874 107.06 170.395 105.773 168.916" fill="#dcdcdc"/><polygon points="105.773 160.651 104.486 162.13 105.773 163.61 107.06 162.13 105.773 160.651" fill="#dcdcdc"/><polygon points="105.773 152.387 104.486 153.867 105.773 155.346 107.06 153.867 105.773 152.387" fill="#dcdcdc"/><polygon points="105.773 144.122 104.486 145.602 105.773 147.081 107.06 145.602 105.773 144.122" fill="#dcdcdc"/><polygon points="142.965 121.972 141.677 123.452 142.965 124.932 144.252 123.452 142.965 121.972" fill="#dcdcdc"/><polygon points="142.965 113.709 141.676 115.188 142.965 116.668 144.252 115.188 142.965 113.709" fill="#dcdcdc"/><polygon points="142.965 105.444 141.676 106.923 142.965 108.403 144.252 106.923 142.965 105.444" fill="#dcdcdc"/><polygon points="112.965 177.18 111.676 178.659 112.965 180.139 114.252 178.659 112.965 177.18" fill="#dcdcdc"/><polygon points="112.965 168.916 111.676 170.395 112.965 171.874 114.252 170.395 112.965 168.916" fill="#dcdcdc"/><polygon points="112.965 160.651 111.676 162.13 112.965 163.61 114.252 162.13 112.965 160.651" fill="#dcdcdc"/><polygon points="112.965 152.387 111.676 153.867 112.965 155.346 114.252 153.867 112.965 152.387" fill="#dcdcdc"/><polygon points="112.965 144.122 111.676 145.602 112.965 147.081 114.252 145.602 112.965 144.122" fill="#dcdcdc"/><polygon points="150.156 121.972 148.869 123.452 150.156 124.932 151.443 123.452 150.156 121.972" fill="#dcdcdc"/><polygon points="150.156 113.709 148.869 115.188 150.156 116.668 151.443 115.188 150.156 113.709" fill="#dcdcdc"/><polygon points="150.156 105.444 148.869 106.923 150.156 108.403 151.443 106.923 150.156 105.444" fill="#dcdcdc"/><polygon points="120.156 177.18 118.869 178.659 120.156 180.139 121.443 178.659 120.156 177.18" fill="#dcdcdc"/><polygon points="120.156 168.916 118.869 170.395 120.156 171.874 121.443 170.395 120.156 168.916" fill="#dcdcdc"/><polygon points="120.156 160.651 118.869 162.13 120.156 163.61 121.443 162.13 120.156 160.651" fill="#dcdcdc"/><polygon points="120.156 152.387 118.869 153.867 120.156 155.346 121.443 153.867 120.156 152.387" fill="#dcdcdc"/><polygon points="120.156 144.122 118.869 145.602 120.156 147.081 121.443 145.602 120.156 144.122" fill="#dcdcdc"/><polygon points="158.635 123.452 157.347 121.972 156.06 123.452 157.347 124.932 158.635 123.452" fill="#dcdcdc"/><polygon points="157.347 113.709 156.06 115.188 157.347 116.668 158.636 115.188 157.347 113.709" fill="#dcdcdc"/><polygon points="157.347 105.444 156.06 106.923 157.347 108.403 158.636 106.923 157.347 105.444" fill="#dcdcdc"/><polygon points="127.347 177.18 126.06 178.659 127.347 180.139 128.636 178.659 127.347 177.18" fill="#dcdcdc"/><polygon points="127.347 168.916 126.06 170.395 127.347 171.874 128.636 170.395 127.347 168.916" fill="#dcdcdc"/><polygon points="127.347 160.651 126.06 162.13 127.347 163.61 128.636 162.13 127.347 160.651" fill="#dcdcdc"/><polygon points="127.347 152.387 126.06 153.867 127.347 155.346 128.636 153.867 127.347 152.387" fill="#dcdcdc"/><polygon points="127.347 144.122 126.06 145.602 127.347 147.081 128.636 145.602 127.347 144.122" fill="#dcdcdc"/><polygon points="164.539 121.972 163.253 123.452 164.539 124.932 165.826 123.452 164.539 121.972" fill="#dcdcdc"/><polygon points="164.539 113.709 163.253 115.188 164.539 116.668 165.826 115.188 164.539 113.709" fill="#dcdcdc"/><polygon points="164.539 105.444 163.253 106.923 164.539 108.403 165.826 106.923 164.539 105.444" fill="#dcdcdc"/><polygon points="134.539 177.18 133.253 178.659 134.539 180.139 135.826 178.659 134.539 177.18" fill="#dcdcdc"/><polygon points="134.539 168.916 133.253 170.395 134.539 171.874 135.826 170.395 134.539 168.916" fill="#dcdcdc"/><polygon points="134.539 160.651 133.253 162.13 134.539 163.61 135.826 162.13 134.539 160.651" fill="#dcdcdc"/><polygon points="134.539 152.387 133.253 153.867 134.539 155.346 135.826 153.867 134.539 152.387" fill="#dcdcdc"/><polygon points="134.539 144.122 133.253 145.602 134.539 147.081 135.826 145.602 134.539 144.122" fill="#dcdcdc"/><polygon points="171.73 121.972 170.444 123.452 171.73 124.932 173.017 123.452 171.73 121.972" fill="#dcdcdc"/><polygon points="171.73 113.709 170.444 115.188 171.73 116.668 173.017 115.188 171.73 113.709" fill="#dcdcdc"/><polygon points="171.73 105.444 170.444 106.923 171.73 108.403 173.017 106.923 171.73 105.444" fill="#dcdcdc"/><polygon points="141.73 177.18 140.444 178.659 141.73 180.139 143.017 178.659 141.73 177.18" fill="#dcdcdc"/><polygon points="141.73 168.916 140.444 170.395 141.73 171.874 143.017 170.395 141.73 168.916" fill="#dcdcdc"/><polygon points="141.73 160.651 140.444 162.13 141.73 163.61 143.017 162.13 141.73 160.651" fill="#dcdcdc"/><polygon points="141.73 152.387 140.444 153.867 141.73 155.346 143.017 153.867 141.73 152.387" fill="#dcdcdc"/><polygon points="141.73 144.122 140.444 145.602 141.73 147.081 143.017 145.602 141.73 144.122" fill="#dcdcdc"/><polygon points="180.21 123.452 178.922 121.972 177.635 123.452 178.922 124.932 180.21 123.452" fill="#dcdcdc"/><polygon points="178.922 113.709 177.635 115.188 178.922 116.668 180.211 115.188 178.922 113.709" fill="#dcdcdc"/><polygon points="178.922 105.444 177.635 106.923 178.922 108.403 180.211 106.923 178.922 105.444" fill="#dcdcdc"/><polygon points="148.922 177.18 147.635 178.659 148.922 180.139 150.211 178.659 148.922 177.18" fill="#dcdcdc"/><polygon points="148.922 168.916 147.635 170.395 148.922 171.874 150.211 170.395 148.922 168.916" fill="#dcdcdc"/><polygon points="148.922 160.651 147.635 162.13 148.922 163.61 150.211 162.13 148.922 160.651" fill="#dcdcdc"/><polygon points="148.922 152.387 147.635 153.867 148.922 155.346 150.211 153.867 148.922 152.387" fill="#dcdcdc"/><polygon points="148.922 144.122 147.635 145.602 148.922 147.081 150.211 145.602 148.922 144.122" fill="#dcdcdc"/><polygon points="186.114 121.972 184.827 123.452 186.114 124.932 187.401 123.452 186.114 121.972" fill="#dcdcdc"/><polygon points="186.114 113.709 184.827 115.188 186.114 116.668 187.401 115.188 186.114 113.709" fill="#dcdcdc"/><polygon points="186.114 105.444 184.827 106.923 186.114 108.403 187.401 106.923 186.114 105.444" fill="#dcdcdc"/><polygon points="156.114 177.18 154.827 178.659 156.114 180.139 157.401 178.659 156.114 177.18" fill="#dcdcdc"/><polygon points="156.114 168.916 154.827 170.395 156.114 171.874 157.401 170.395 156.114 168.916" fill="#dcdcdc"/><polygon points="156.114 160.651 154.827 162.13 156.114 163.61 157.401 162.13 156.114 160.651" fill="#dcdcdc"/><polygon points="156.114 152.387 154.827 153.867 156.114 155.346 157.401 153.867 156.114 152.387" fill="#dcdcdc"/><polygon points="156.114 144.122 154.827 145.602 156.114 147.081 157.401 145.602 156.114 144.122" fill="#dcdcdc"/><polygon points="163.305 201.972 162.018 203.452 163.305 204.932 164.592 203.452 163.305 201.972" fill="#dcdcdc"/><polygon points="163.305 193.709 162.018 195.188 163.305 196.668 164.592 195.188 163.305 193.709" fill="#dcdcdc"/><polygon points="163.305 185.444 162.018 186.923 163.305 188.403 164.592 186.923 163.305 185.444" fill="#dcdcdc"/><polygon points="163.305 177.18 162.018 178.659 163.305 180.139 164.592 178.659 163.305 177.18" fill="#dcdcdc"/><polygon points="163.305 168.916 162.018 170.395 163.305 171.874 164.592 170.395 163.305 168.916" fill="#dcdcdc"/><polygon points="163.305 160.651 162.018 162.13 163.305 163.61 164.592 162.13 163.305 160.651" fill="#dcdcdc"/><polygon points="163.305 152.387 162.018 153.867 163.305 155.346 164.592 153.867 163.305 152.387" fill="#dcdcdc"/><polygon points="163.305 144.122 162.018 145.602 163.305 147.081 164.592 145.602 163.305 144.122" fill="#dcdcdc"/><polygon points="170.497 201.972 169.209 203.452 170.497 204.932 171.784 203.452 170.497 201.972" fill="#dcdcdc"/><polygon points="170.497 193.709 169.208 195.188 170.497 196.668 171.784 195.188 170.497 193.709" fill="#dcdcdc"/><polygon points="170.497 185.444 169.208 186.923 170.497 188.403 171.784 186.923 170.497 185.444" fill="#dcdcdc"/><polygon points="170.497 177.18 169.208 178.659 170.497 180.139 171.784 178.659 170.497 177.18" fill="#dcdcdc"/><polygon points="170.497 168.916 169.208 170.395 170.497 171.874 171.784 170.395 170.497 168.916" fill="#dcdcdc"/><polygon points="170.497 160.651 169.208 162.13 170.497 163.61 171.784 162.13 170.497 160.651" fill="#dcdcdc"/><polygon points="170.497 152.387 169.208 153.867 170.497 155.346 171.784 153.867 170.497 152.387" fill="#dcdcdc"/><polygon points="170.497 144.122 169.208 145.602 170.497 147.081 171.784 145.602 170.497 144.122" fill="#dcdcdc"/><polygon points="177.688 204.932 178.975 203.452 177.688 201.972 176.401 203.452 177.688 204.932" fill="#dcdcdc"/><polygon points="177.688 196.668 178.975 195.188 177.688 193.709 176.401 195.188 177.688 196.668" fill="#dcdcdc"/><polygon points="177.688 188.403 178.975 186.923 177.688 185.444 176.401 186.923 177.688 188.403" fill="#dcdcdc"/><polygon points="177.688 180.139 178.975 178.659 177.688 177.18 176.401 178.659 177.688 180.139" fill="#dcdcdc"/><polygon points="177.688 171.874 178.975 170.395 177.688 168.916 176.401 170.395 177.688 171.874" fill="#dcdcdc"/><polygon points="177.688 163.61 178.975 162.13 177.688 160.651 176.401 162.13 177.688 163.61" fill="#dcdcdc"/><polygon points="177.688 155.346 178.975 153.867 177.688 152.387 176.401 153.867 177.688 155.346" fill="#dcdcdc"/><polygon points="177.688 147.081 178.975 145.602 177.688 144.122 176.401 145.602 177.688 147.081" fill="#dcdcdc"/><polygon points="184.879 204.932 186.167 203.452 184.879 201.972 183.592 203.452 184.879 204.932" fill="#dcdcdc"/><polygon points="184.879 196.668 186.168 195.188 184.879 193.709 183.592 195.188 184.879 196.668" fill="#dcdcdc"/><polygon points="184.879 188.403 186.168 186.923 184.879 185.444 183.592 186.923 184.879 188.403" fill="#dcdcdc"/><polygon points="184.879 180.139 186.168 178.659 184.879 177.18 183.592 178.659 184.879 180.139" fill="#dcdcdc"/><polygon points="184.879 171.874 186.168 170.395 184.879 168.916 183.592 170.395 184.879 171.874" fill="#dcdcdc"/><polygon points="184.879 163.61 186.168 162.13 184.879 160.651 183.592 162.13 184.879 163.61" fill="#dcdcdc"/><polygon points="184.879 155.346 186.168 153.867 184.879 152.387 183.592 153.867 184.879 155.346" fill="#dcdcdc"/><polygon points="184.879 147.081 186.168 145.602 184.879 144.122 183.592 145.602 184.879 147.081" fill="#dcdcdc"/><polygon points="192.02 254.363 193.306 252.884 192.02 251.405 190.733 252.884 192.02 254.363" fill="#dcdcdc"/><polygon points="200.497 252.884 199.211 251.405 197.924 252.884 199.211 254.363 200.497 252.884" fill="#dcdcdc"/><path d="M206.4,251.405l-1.287,1.479.879,1.011c.3-.035.6-.067.906-.1l.791-.907Z" fill="#dcdcdc"/><path d="M213.594,251.405l-1.287,1.479.079.091c.74-.13,1.477-.271,2.211-.416Z" fill="#dcdcdc"/><path d="M170.5,251.405l-.469.538c.383.087.769.167,1.154.25Z" fill="#dcdcdc"/><path d="M177.688,251.405l-1.287,1.479.3.347q.867.14,1.74.265l.532-.612Z" fill="#dcdcdc"/><path d="M184.879,251.405l-1.287,1.479,1.155,1.328.245.022,1.176-1.35Z" fill="#dcdcdc"/><polygon points="228.61 91.15 228.61 181.45 71.61 181.45 71.61 91.15 82.32 80.45 217.9 80.45 228.61 91.15" fill="#e4f5fa"/><polygon points="227.84 182.45 217.9 192.45 82.32 192.45 72.32 182.45 227.84 182.45" fill="#e4f5fa"/><path d="M229.57,182.09a.494.494,0,0,1-.26.32l.16-.17A.36.36,0,0,0,229.57,182.09Z" fill="#226d7a"/><path d="M229.61,181.91v.04a.085.085,0,0,1-.02.06A.355.355,0,0,0,229.61,181.91Z" fill="#226d7a"/><path d="M229.46,90.59l-11-11a.5.5,0,0,0-.35-.14h-136a.5.5,0,0,0-.35.14l-11,11a.491.491,0,0,0-.15.36v91a.406.406,0,0,0,.04.19.355.355,0,0,0,.11.16l11,11a.509.509,0,0,0,.35.15h52.32l-7.69,25h-6.63a.5.5,0,0,0-.5.5.5.5,0,0,0,.5.5h60a.5.5,0,0,0,.5-.5.5.5,0,0,0-.5-.5h-6.63l-7.69-25h52.32a.554.554,0,0,0,.36-.15l10.83-10.89h.01l.16-.17a.36.36,0,0,0,.1-.15v-.02c.01-.02.01-.04.02-.06a.355.355,0,0,0,.02-.1V90.95A.491.491,0,0,0,229.46,90.59ZM172.43,218.45H127.79l2.46-8h39.72Zm-2.77-9h-39.1l4.92-16h29.26Zm48.24-17H82.32l-10-10H227.84Zm10.71-11h-157V91.15l10.71-10.7H217.9l10.71,10.7Z" fill="#226d7a"/><rect x="97.32" y="91.738" width="105.583" height="78.573" fill="#fff"/><path d="M202.9,170.812H97.32a.5.5,0,0,1-.5-.5V91.738a.5.5,0,0,1,.5-.5H202.9a.5.5,0,0,1,.5.5v78.574A.5.5,0,0,1,202.9,170.812Zm-105.083-1H202.4V92.238H97.82Z" fill="#226d7a"/><circle cx="108.369" cy="100.332" r="2.455" fill="#226d7a"/><circle cx="115.735" cy="100.332" r="2.455" fill="#226d7a"/><circle cx="123.102" cy="100.332" r="2.455" fill="#226d7a"/><path d="M202.9,109.426H97.32a.5.5,0,0,1,0-1H202.9a.5.5,0,0,1,0,1Z" fill="#226d7a"/><path d="M168.97,155.47l-28.16-26.96a.491.491,0,0,1-.11-.57c.03-.07,2.96-6.65-1.02-10.39-2.25-2.11-5.25-2.53-8.93-1.24l5.41,5.41a.486.486,0,0,1,.14.47l-1.18,4.64a.529.529,0,0,1-.28.34l-4.78,2.16a.508.508,0,0,1-.54-.08l-6.14-5.37c-.52,3.23-.55,7.1,1.68,8.86,4.23,3.36,9.89.92,9.94.89a.522.522,0,0,1,.21-.04.494.494,0,0,1,.34.14l28.17,26.97c1.41,1.4,2.77,2.12,3.96,2.06a3.34,3.34,0,0,0,2.39-1.34C171.7,159.47,171.41,157.91,168.97,155.47Z" fill="#e4f5fa"/><path d="M169.67,154.76l-18.39-17.62,13.49-13.09,1.44,1.44a.543.543,0,0,0,.36.14h.04a.505.505,0,0,0,.37-.21l4.8-6.87a.5.5,0,0,0-.06-.64l-1.98-1.99a.5.5,0,0,0-.64-.05l-6.88,4.8a.5.5,0,0,0-.21.36.5.5,0,0,0,.15.4l1.9,1.91-13.51,13.11-8.8-8.43c.59-1.48,2.63-7.44-1.38-11.2-2.7-2.54-6.31-2.93-10.7-1.17a.511.511,0,0,0-.31.36.49.49,0,0,0,.14.45l5.76,5.76-1.05,4.14-4.27,1.93-6.57-5.75a.505.505,0,0,0-.82.29c-1.01,5.3-.38,8.9,1.89,10.7,4.14,3.29,9.32,1.65,10.65,1.14l8.71,8.34-5.63,6.11-3.52-3.52a.513.513,0,0,0-.71,0l-8.13,8.03a6.564,6.564,0,0,0-.1,8.66,5.637,5.637,0,0,0,7.98-.01l8.23-8.72a.5.5,0,0,0-.01-.69l-3.03-3.04,5.64-6.13,18.51,17.72a6.761,6.761,0,0,0,4.53,2.34h.17a4.267,4.267,0,0,0,3.1-1.7C173.29,159.12,171.73,156.82,169.67,154.76Zm-6.38-33.62,6.04-4.21,1.39,1.39-4.22,6.04L165.14,123Zm-22.43,32.09-7.89,8.35a4.623,4.623,0,0,1-6.55,0,5.542,5.542,0,0,1,.1-7.24l7.77-7.68,3.48,3.48a.27.27,0,0,0,.07.08c.01.01.02.02.03.02Zm29.21,8.19a3.34,3.34,0,0,1-2.39,1.34c-1.19.06-2.55-.66-3.96-2.06l-28.17-26.97a.494.494,0,0,0-.34-.14.522.522,0,0,0-.21.04c-.05.03-5.71,2.47-9.94-.89-2.23-1.76-2.2-5.63-1.68-8.86l6.14,5.37a.508.508,0,0,0,.54.08l4.78-2.16a.529.529,0,0,0,.28-.34l1.18-4.64a.486.486,0,0,0-.14-.47l-5.41-5.41c3.68-1.29,6.68-.87,8.93,1.24,3.98,3.74,1.05,10.32,1.02,10.39a.491.491,0,0,0,.11.57l28.16,26.96C171.41,157.91,171.7,159.47,170.07,161.42Z" fill="#226d7a"/><path d="M140.86,153.23l-7.89,8.35a4.623,4.623,0,0,1-6.55,0,5.542,5.542,0,0,1,.1-7.24l7.77-7.68,3.48,3.48a.27.27,0,0,0,.07.08c.01.01.02.02.03.02Z" fill="#e4f5fa"/><path d="M172.825,147.108a5.308,5.308,0,1,1,5.307-5.307A5.314,5.314,0,0,1,172.825,147.108Zm0-9.615a4.308,4.308,0,1,0,4.307,4.308A4.313,4.313,0,0,0,172.825,137.493Z" fill="#226d7a"/></svg>