<svg xmlns="http://www.w3.org/2000/svg" viewBox="0 0 26.67 32"><path d="M29.33,26.48a6,6,0,0,1-1.3,3.9A3.9,3.9,0,0,1,24.9,32H7.1A3.9,3.9,0,0,1,4,30.37a6,6,0,0,1-1.3-3.9,30.07,30.07,0,0,1,.18-3.34A18.05,18.05,0,0,1,3.5,20a10.52,10.52,0,0,1,1.22-2.73,5.82,5.82,0,0,1,2-1.85,5.41,5.41,0,0,1,2.8-.72A9,9,0,0,0,16,17.33a9,9,0,0,0,6.52-2.67,5.41,5.41,0,0,1,2.8.72,5.82,5.82,0,0,1,2,1.85A10.52,10.52,0,0,1,28.5,20a18.05,18.05,0,0,1,.66,3.17A30.07,30.07,0,0,1,29.33,26.48ZM21.66,2.34A7.71,7.71,0,0,1,24,8a7.71,7.71,0,0,1-2.34,5.66A7.71,7.71,0,0,1,16,16a7.71,7.71,0,0,1-5.66-2.34A7.71,7.71,0,0,1,8,8a7.71,7.71,0,0,1,2.34-5.66A7.71,7.71,0,0,1,16,0,7.71,7.71,0,0,1,21.66,2.34Z" transform="translate(-2.67)"/></svg>