<svg id="f4080eb9-e8cd-412d-94ec-c17db0c4fe67" xmlns="http://www.w3.org/2000/svg" viewBox="0 0 18 18"><path d="M16.44,8.38A2,2,0,0,0,17,7a2,2,0,1,0-3.45,1.38,3.07,3.07,0,0,0-1.08,1,5,5,0,0,0-1.63-1,3,3,0,1,0-3.68,0,5,5,0,0,0-1.63,1,3.07,3.07,0,0,0-1.08-1A2,2,0,1,0,1,7a2,2,0,0,0,.56,1.38A3,3,0,0,0,0,11v2H4v2H14V13h4V11A3,3,0,0,0,16.44,8.38ZM15,6a1,1,0,1,1-1,1A1,1,0,0,1,15,6ZM7,6A2,2,0,1,1,9,8H9A2,2,0,0,1,7,6ZM3,6A1,1,0,1,1,2,7,1,1,0,0,1,3,6Zm1.1,6H1V11a2,2,0,0,1,3.84-.79A4.89,4.89,0,0,0,4.1,12ZM13,13v1H5V13A4,4,0,0,1,9,9H9a4,4,0,0,1,4,4Zm4-1H13.9a4.89,4.89,0,0,0-.74-1.79A2,2,0,0,1,17,11Z"/></svg>