<svg xmlns="http://www.w3.org/2000/svg" viewBox="0 0 24 24"><path fill="#7D7D7D" d="M24 18V2.8c0-.4-.3-.6-.6-.6H22c-.4 0-.6-.3-.6-.6v-1c0-.4-.3-.6-.6-.6H2.1C1 0 0 .9 0 2v14.6c0 1.1.9 2 2.1 2h21.3c.3.1.6-.2.6-.6zM20.1 2v2.7c0 .4-.3.6-.6.6h-3.2c-1.1 0-2.1.9-2.1 2v1.3c0 1.1.9 2 2.1 2h3.2c.4 0 .6.3.6.6V14c0 .4-.3.6-.6.6H2.1c-.2 0-.4 0-.6.1h-.1V2c0-.4.3-.7.7-.7h17.3c.4 0 .7.3.7.7zm2.6 5.3v1.4c0 .4-.3.6-.6.6h-5.8c-.4 0-.7-.3-.7-.7V7.3c0-.4.3-.7.7-.7H22c.4.1.7.3.7.7zm-.7-2c-.4 0-.6-.3-.6-.6v-.5c0-.4.3-.6.6-.6.4 0 .6.3.6.6v.5c.1.3-.2.6-.6.6zm.7 6v5.4c0 .4-.3.6-.6.6h-20c-.4 0-.7-.3-.7-.7 0-.4.4-.6.7-.6h18.6c.4 0 .6-.3.6-.6v-4.1c0-.4.3-.6.6-.6.5 0 .8.2.8.6z"/></svg>