<svg xmlns="http://www.w3.org/2000/svg" viewBox="0 0 18 18"><path d="M9,0a9,9,0,1,0,9,9A9,9,0,0,0,9,0ZM1,9a8.7,8.7,0,0,1,.6-3.2L5.4,16.1A7.9,7.9,0,0,1,1,9ZM9,1a7.9,7.9,0,0,1,5.3,2A1.4,1.4,0,0,0,13,4.5a4.1,4.1,0,0,0,.8,1.9,4.4,4.4,0,0,1,.7,2.2,11,11,0,0,1-.6,2.6L13,13.9,10.1,5.2H11c.2,0,.3-.2.3-.4a.3.3,0,0,0-.3-.3H6.7c-.4,0-.5.7,0,.7h.8L8.7,8.7,7,14,4,5.2h.9c.2,0,.3-.2.3-.4a.3.3,0,0,0-.3-.3H2.3A8.1,8.1,0,0,1,9,1ZM9,17a7.8,7.8,0,0,1-2.2-.3l2.4-7,2.5,6.8h0A8.6,8.6,0,0,1,9,17Zm6.5-8.1A10.2,10.2,0,0,0,16.2,6V5.4a8,8,0,0,1-3,10.5Z"/></svg>