<svg xmlns="http://www.w3.org/2000/svg" viewBox="0 0 32 25"><path d="M22.209 6.423c.366.361.732.723 1.09 1.092.079.081.116.072.19 0q1.344-1.35 2.693-2.693a1.042 1.042 0 0 1 1.823.768 1.114 1.114 0 0 1-.341.7c-.046.046-.047.071 0 .117q.575.57 1.144 1.145c.052.053.078.045.126 0a2.891 2.891 0 0 0 .534-.714 2.812 2.812 0 0 0 .251-1.962c-.014-.064-.069-.142.07-.166a1.691 1.691 0 0 0 1.37-1.522h.022v-.3a.05.05 0 0 0-.021 0c-.01-.065-.016-.131-.028-.2a1.7 1.7 0 0 0-1.468-1.348.018.018 0 0 1 0-.023h-.4a.022.022 0 0 1 0 .022 1.693 1.693 0 0 0-1.465 1.321c-.019.1-.04.149-.152.105a.9.9 0 0 0-.217-.05 2.811 2.811 0 0 0-2.466.8c-.922.915-1.837 1.836-2.758 2.752-.072.07-.056.1.003.156z" ></path><path d="M19.65 4.657c.1.03.127.062.094.166a2.181 2.181 0 0 0-.084.638 2.791 2.791 0 0 0 .838 2.058q1.376 1.379 2.753 2.756c.059.059.088.056.144 0a96.63 96.63 0 0 1 1.109-1.109c.067-.067.07-.1 0-.17q-1.343-1.332-2.678-2.673a2.071 2.071 0 0 1-.182-.2 1.045 1.045 0 0 1 .314-1.51 1.031 1.031 0 0 1 1.283.182c.069.067.1.062.163 0q.555-.564 1.118-1.118c.054-.053.055-.08 0-.133a2.813 2.813 0 0 0-2.557-.8c-.084.015-.128.011-.15-.1a1.7 1.7 0 0 0-1.46-1.3.025.025 0 0 1 0-.022h-.4a.02.02 0 0 1 0 .022 1.7 1.7 0 0 0-1.5 1.57.018.018 0 0 0-.02 0v.274a.083.083 0 0 1 .022 0 1.712 1.712 0 0 0 1.193 1.469z" ></path><path d="M31.496 22.088h-4.341a1.855 1.855 0 0 0-1.757-1.515v-8.241a2.755 2.755 0 0 0 2.3.39c.083-.021.1-.005.126.08a1.713 1.713 0 0 0 1.455 1.245.046.046 0 0 0 .005.02h.374a.032.032 0 0 0 0-.014 1.288 1.288 0 0 0 .8-.273 1.593 1.593 0 0 0 .714-1.207v-.448c-.006-.006-.015-.011-.017-.018a1.67 1.67 0 0 0-1.377-1.428c-.063-.014-.063-.047-.054-.1a3.1 3.1 0 0 0 .057-.48 2.671 2.671 0 0 0-.731-2.011c-.937-.97-1.9-1.914-2.851-2.872-.068-.068-.094-.022-.135.019-.364.364-.726.73-1.095 1.089-.082.08-.076.12 0 .2q1.356 1.349 2.7 2.7a1.042 1.042 0 1 1-1.467 1.476c-.05-.049-.075-.063-.133 0-.289.3-.582.586-.876.877a.489.489 0 0 0-.2-.09c.761-.75 1.512-1.509 2.269-2.263.066-.066.026-.093-.016-.135-.365-.363-.731-.724-1.09-1.094-.081-.084-.122-.073-.2 0q-1.342 1.352-2.692 2.7a1.024 1.024 0 0 1-1.1.291.989.989 0 0 1-.7-.793 1.024 1.024 0 0 1 .313-.962c.038-.039.077-.063.015-.124q-.581-.573-1.154-1.152c-.041-.042-.065-.046-.108 0a2.811 2.811 0 0 0-.684 1.038 2.728 2.728 0 0 0-.121 1.6c.016.072.011.118-.078.144a1.672 1.672 0 0 0-1.1 1c-.052.121-.055.256-.118.372v.5a1.332 1.332 0 0 0 .2.618 1.564 1.564 0 0 0 1.316.836v.015h.373v-.021a1.69 1.69 0 0 0 1.434-1.186c.031-.1.066-.118.169-.1a2.715 2.715 0 0 0 2.463-.694v8.511a1.854 1.854 0 0 0-1.6 1.5h-12.67a1.854 1.854 0 0 0-1.681-1.508v-5.058c0-.011-.006-.021-.007-.033a7.8 7.8 0 1 0-1 .017v5.072a1.855 1.855 0 0 0-1.676 1.51h-4.6a.503.503 0 1 0 0 1.006h4.57v.049a1.86 1.86 0 0 0 1.858 1.859h.719a1.861 1.861 0 0 0 1.853-1.861v-.053h12.6v.049a1.861 1.861 0 0 0 1.858 1.859h.719a1.861 1.861 0 0 0 1.859-1.859v-.049h4.307a.503.503 0 1 0 0-1.006zm-18.111-14.4a8.74 8.74 0 0 0 .5-1.877 5.542 5.542 0 0 0 .008-1.294c.639.67 1.01 3.1.7 4.582a6.99 6.99 0 0 1-3.3 4.671 1.134 1.134 0 0 1 .095-.336c.668-1.915 1.324-3.833 1.997-5.746zM6.171.974a6.888 6.888 0 0 1 6.259 1.63 1.208 1.208 0 0 0-1.215 1.435 2.982 2.982 0 0 0 .48 1.131 5.08 5.08 0 0 1 .658 1.378 3.835 3.835 0 0 1-.117 2.212c-.343 1.049-.666 2.1-.979 3.164-.069-.025-.061-.093-.077-.14q-1.107-3.285-2.208-6.571c-.066-.2-.128-.392-.2-.585-.036-.095-.034-.136.085-.141.211-.008.422-.03.632-.053a.3.3 0 0 0 .271-.418.256.256 0 0 0-.269-.168c-.557.03-1.113.069-1.672.082-.392.009-.783-.016-1.175-.03-.289-.011-.577-.039-.866-.052a.28.28 0 0 0-.308.277.274.274 0 0 0 .263.3c.205.026.41.045.616.059a.153.153 0 0 1 .157.115q.5 1.39 1.01 2.778a.228.228 0 0 1 .009.163c-.5 1.476-.988 2.952-1.5 4.474l-.1-.271-2.1-6.25c-.1-.3-.2-.6-.3-.894-.03-.083-.013-.108.074-.114.211-.013.422-.032.632-.054s.3-.114.308-.282a.267.267 0 0 0-.3-.3c-.459.02-.918.048-1.377.071a4.6 4.6 0 0 1-.914-.01A6.929 6.929 0 0 1 6.171.975zm-4.843 9.459a6.934 6.934 0 0 1 .059-5.507l3.305 9.062a6.693 6.693 0 0 1-3.364-3.554zm4.507 3.889q1.006-2.9 2-5.806c.009-.028.022-.056.047-.121l.43 1.166q.853 2.34 1.711 4.679c.041.112-.012.117-.085.141a7.083 7.083 0 0 1-1.882.342 7.179 7.179 0 0 1-2.115-.232c-.091-.023-.151-.037-.106-.168zm3.307 8.818a.853.853 0 0 1-.852.852h-.719a.853.853 0 0 1-.852-.852v-.719a.853.853 0 0 1 .852-.852h.719a.853.853 0 0 1 .852.852zm17.041 0a.854.854 0 0 1-.853.852h-.719a.853.853 0 0 1-.852-.852v-.719a.853.853 0 0 1 .852-.852h.719a.854.854 0 0 1 .853.852z" ></path></svg>
