<svg id="bc284073-cdae-4608-aef9-72ef305d2a87" data-name="Icons" xmlns="http://www.w3.org/2000/svg" viewBox="0 0 96 96"><title>All-Icons-Outlined</title><g opacity="0"><rect width="96" height="96" fill="#fff"/></g><path d="M61.282,69.2c-.137-.107-16.541-61.863-16.541-61.863-.032-.123-1.094-4.1-1.094-4.1L28.221,67.938,10.312,80.869,21.6,86.6l-3.225,4.728,17.041,1.44,7.258-7.159L45.119,90l3.135-5.435,13.591,6.384,23.843-2.628Z" fill="#f9e9e0"/><path d="M86.306,87.536,62.151,68.577,44.653,3.126a1,1,0,0,0-.929-.9.541.541,0,0,0-.058.007h0a.9.9,0,0,0-.163.022.971.971,0,0,0-.153.021.952.952,0,0,0-.326.178h0v0a1.016,1.016,0,0,0-.226.27,1,1,0,0,0-.054.125,1.052,1.052,0,0,0-.064.151L27.334,67.35,9.726,80.063a1,1,0,0,0,.133,1.7l10.269,5.211-2.579,3.793a1,1,0,0,0,.743,1.558l17.041,1.44a.787.787,0,0,0,.084,0h0a1.008,1.008,0,0,0,.368-.071c.021-.009.037-.027.057-.036a1.01,1.01,0,0,0,.26-.171s.011-.006.016-.011l6.322-6.234,1.8,3.24a1,1,0,0,0,.866.514h.008a1,1,0,0,0,.866-.5l2.67-4.629L61.4,91.857a.989.989,0,0,0,.534.088L85.8,89.317a1,1,0,0,0,.508-1.781Zm-49.642,2.6,2.554-27.782a1.024,1.024,0,0,0,.026-.3L43,21.211l1.168,61.515L42.034,84.84ZM29.2,68.154l9.877-41.425L32.754,68.411l-5.11,7.514ZM39.532,37.079,37.261,61.784l-1.9,2.8Zm9.145,46.583h0l-.022-.01L46.163,82.48l-1.3-68.369L60.3,89.127Zm2.864-47.027,7.99,29.887-2.2-1.724ZM12.226,80.724l14.515-10.48-1.986,9.929-3.493,5.136ZM36.883,65.9,34.512,91.69,20.165,90.479Zm8.252,22.077L43.919,85.79l1.47-1.45,1.449.681Zm17.361,1.9L57.964,67.849l2.7,2.135a1.084,1.084,0,0,0,.2.123L83.144,87.6Z" fill="#b35227"/></svg>