<svg xmlns="http://www.w3.org/2000/svg" version="1.1" id="Layer_1" x="0px" y="0px" width="13px" height="18px" viewBox="0 0 42.6 58.1" enable-background="new 0 0 42.6 58.1" xml:space="preserve"><path fill-rule="evenodd" clip-rule="evenodd" fill="#fff" d="M13.2 45.3C6.4 43.1 1.5 36.5 0.4 29.6 -2.9 10.4 17.4-6.9 37.8 2.7 38 7 36 13.2 30.5 15 57.8 32.2 34.5 67.3 6 55.8c-5.2-2.7-2.4-7.5 3.1-4.7 6.2 2.1 14.3 2.1 19.4-0.7 3.3-1.8 6.2-4.2 8.3-7.4 0.6-0.9 1.4-2.2 2-3.6 0.4-1 1.8-5.2 0.7-5.7 -0.3-0.1-0.4 0.2-0.5 0.5 -0.7 2.8-2 5.2-3.9 7.4 -2.2 2.5-4.9 4.5-8.4 5.7 -4.1 1.5-8.8 1.7-15.3 0.3C11.9 47.2 12.7 45.9 13.2 45.3L13.2 45.3zM32 4.5c0 0 0.1 0.8 0.2 1.9 0.1 3.2-0.8 5.2-3 7.5 -0.5 0.5-1 0.9-1.6 1.4 7.7 4.8 11.7 15.2 7.2 22.5 -6 9.8-17.9 7.6-24.5 0.9 -6.8-7.1-5.9-16.2-1-22.9C14.4 8.7 23.7 4.2 32 4.5L32 4.5zM8.8 26c1.5-14.6 18.3-17.5 24.5 2C38.4 48 6.5 43.7 8.8 26L8.8 26zM22.5 35.6c13.3 0.5 6.9-13.1-1.8-16.1C12.1 16.6 7.3 35.6 22.5 35.6L22.5 35.6z"/></svg>