<svg id="e4e50d01-0246-43a7-bdfe-0fa56d7fbf3e" data-name="Layer 1" xmlns="http://www.w3.org/2000/svg" viewBox="0 0 150.004 150"><path d="M136.64,82.639c.285-5.389.613-10.113-.438-15.408L149.7,58.875l-10.51-24.751-15.216,3.111c-2.961-3.815-7.257-7.534-10.884-11.3l2.9-15.649L91.076,0,82.641,13.36a119.665,119.665,0,0,0-15.456-.226L58.877.307,34.126,10.818l3.109,15.216c-4.481,3.008-7.532,7.254-11.3,10.883l-15.648-2.9L0,58.925l13.363,8.436c-.951,5.439-.566,10.781-.229,15.456L.307,91.125,10.82,115.876l15.216-3.109c3.006,4.481,7.255,7.532,10.883,11.3l-2.9,15.649L58.929,150l8.434-13.36c5.438.95,10.113.613,15.456.228L91.127,149.7l24.752-10.513-3.112-15.215c3.815-2.959,7.534-7.255,11.3-10.884l15.651,2.9L150,91.075Zm-34,25.38a3.13,3.13,0,0,1-3.13,3.131H50.489a3.131,3.131,0,0,1-3.131-3.131V68.293a3.13,3.13,0,0,1,3.131-3.13h3.574c.026-4.331-.006-8.664.13-12.991a17.553,17.553,0,0,1,1.791-6.8,20.264,20.264,0,0,1,6.723-8.111,18.75,18.75,0,0,1,6.708-3.033,19.512,19.512,0,0,1,5.4-.579,19.917,19.917,0,0,1,15.863,9.09,19.621,19.621,0,0,1,2.784,6.588,24.62,24.62,0,0,1,.594,5.455c-.011,3.461,0,6.922,0,10.383h5.46a3.13,3.13,0,0,1,3.13,3.13Z" fill="#fff"></path><path d="M79.7,89.183a2.437,2.437,0,0,1,.762-2.914,4.284,4.284,0,0,0,.972-1.082,7.613,7.613,0,0,0-.341-8.387c-2.315-3.195-5.822-4.257-8.924-2.478a7.711,7.711,0,0,0-4.278,7.321,5.877,5.877,0,0,0,2.013,4.53,2.444,2.444,0,0,1,.865,2.87c-.592,2.006-1.109,4.036-1.625,6.065-.61,2.4-1.464,4.744-1.3,7.3.046.724.207,1,.952.982,2.1-.045,6.313.032,6.313.056,2.231,0,4.462.015,6.693-.023.237,0,.667-.309.673-.487a13.151,13.151,0,0,0-.07-3.41C81.589,96.057,80.623,92.625,79.7,89.183Z" fill="#fff"></path><path d="M87.332,46.719a15.194,15.194,0,0,0-5.884-6.112,12.026,12.026,0,0,0-4.407-1.641,30.214,30.214,0,0,0-3.929-.279A12.552,12.552,0,0,0,67.7,40.075a14.974,14.974,0,0,0-6.984,6.763,14.111,14.111,0,0,0-1.729,6.381c-.03,2.038-.006,4.077-.006,6.116h-.013c0,1.942,0,3.885.007,5.828H89.138c.018-4.072.041-8.144-.027-12.215A13.773,13.773,0,0,0,87.332,46.719Z" fill="#fff"></path></svg>